<?xml version="1.0" encoding="utf-8"?>
<COLLADA xmlns="http://www.collada.org/2005/11/COLLADASchema" version="1.4.1">
  <asset>
    <contributor><authoring_tool>VIGIL SIH26126 farm generator</authoring_tool></contributor>
    <unit name="meter" meter="1"/>
    <up_axis>Z_UP</up_axis>
  </asset>
  <library_effects>
    <effect id="MAT_WEED_STEM-fx"><profile_COMMON><technique sid="c"><lambert><diffuse><color>0.0860 0.1040 0.0360 1</color></diffuse></lambert></technique></profile_COMMON></effect>
  </library_effects>
  <library_materials>
    <material id="MAT_WEED_STEM" name="MAT_WEED_STEM"><instance_effect url="#MAT_WEED_STEM-fx"/></material>
  </library_materials>
  <library_geometries>
    <geometry id="weeds_-06+00_solid-mesh" name="weeds_-06+00_solid">
      <mesh>
        <source id="weeds_-06+00_solid-pos"><float_array id="weeds_-06+00_solid-pos-a" count="156">2.8836 0.33169 -0.047399 2.8798 0.33263 -0.047667 2.8786 0.33422 -0.021783 2.882 0.33339 -0.021457 2.8788 0.32877 -0.047435 2.8778 0.33082 -0.021548 2.8827 0.32783 -0.047166 2.8812 0.33 -0.021222 2.8763 0.33654 0.0039904 2.8792 0.33584 0.0044254 2.8756 0.33361 0.0042453 2.8785 0.33291 0.0046803 2.8729 0.33961 0.029722 2.8753 0.33903 0.030215 2.8723 0.33715 0.029979 2.8747 0.33657 0.030472 2.8683 0.34342 0.055411 2.8703 0.34295 0.055913 2.8678 0.34143 0.055652 2.8697 0.34096 0.056153 2.8625 0.34797 0.081081 2.864 0.34762 0.081505 2.8621 0.34645 0.081278 2.8636 0.34609 0.081702 2.8812 0.33023 -0.047417 2.8631 0.34703 0.081391 -0.45836 0.08966 -0.030992 -0.45465 0.090807 -0.031053 -0.45375 0.088326 -0.0055304 -0.45701 0.087309 -0.0053885 -0.45571 0.094514 -0.030617 -0.45468 0.091586 -0.0051162 -0.45942 0.093367 -0.030556 -0.45794 0.090569 -0.0049743 -0.45153 0.085802 0.019926 -0.45433 0.084912 0.0202 -0.45232 0.088613 0.020335 -0.45512 0.087723 0.020609 -0.44799 0.083227 0.045383 -0.45033 0.082471 0.045741 -0.44864 0.085592 0.04577 -0.45098 0.084836 0.046127 -0.44312 0.080604 0.070842 -0.445 0.079986 0.071233 -0.44364 0.082524 0.071188 -0.44552 0.081906 0.071579 -0.43691 0.077932 0.096326 -0.43835 0.077456 0.096664 -0.43731 0.079409 0.096604 -0.43875 0.078933 0.096942 -0.45704 0.092087 -0.030804 -0.43783 0.078432 0.096634</float_array><technique_common><accessor source="#weeds_-06+00_solid-pos-a" count="52" stride="3"><param name="X" type="float"/><param name="Y" type="float"/><param name="Z" type="float"/></accessor></technique_common></source>
        <source id="weeds_-06+00_solid-nrm"><float_array id="weeds_-06+00_solid-nrm-a" count="156">0.666 0.465 0.583 -0.45 0.735 0.507 -0.511 0.854 -0.098 0.859 0.512 0.032 -0.726 -0.381 0.573 -0.85 -0.528 -0.003 0.39 -0.651 0.651 0.518 -0.846 0.124 -0.506 0.85 -0.145 0.857 0.513 0.055 -0.849 -0.528 -0.026 0.512 -0.842 0.171 -0.498 0.846 -0.191 0.854 0.514 0.078 -0.848 -0.528 -0.049 0.502 -0.837 0.216 -0.487 0.841 -0.235 0.851 0.516 0.101 -0.846 -0.529 -0.071 0.491 -0.832 0.26 -0.271 0.586 -0.763 0.827 0.328 -0.456 -0.574 -0.537 -0.619 0.526 -0.79 -0.315 -0.052 0.073 0.996 0.228 -0.184 -0.956 -0.362 -0.774 0.52 0.747 -0.446 0.493 0.874 -0.476 -0.1 -0.486 -0.873 -0.043 0.418 0.654 0.631 0.469 0.88 0.071 -0.693 0.329 0.642 -0.877 0.464 0.125 0.869 -0.472 -0.145 -0.484 -0.875 -0.02 0.469 0.882 0.048 -0.871 0.461 0.17 0.862 -0.47 -0.19 -0.482 -0.876 0.004 0.468 0.883 0.026 -0.862 0.458 0.215 0.852 -0.468 -0.234 -0.48 -0.877 0.026 0.467 0.884 0.003 -0.852 0.457 0.258 0.564 -0.325 -0.759 -0.537 -0.666 -0.518 0.244 0.793 -0.558 -0.843 0.442 -0.306 0.048 -0.103 0.993 -0.262 0.111 -0.959</float_array><technique_common><accessor source="#weeds_-06+00_solid-nrm-a" count="52" stride="3"><param name="X" type="float"/><param name="Y" type="float"/><param name="Z" type="float"/></accessor></technique_common></source>
        <vertices id="weeds_-06+00_solid-vtx"><input semantic="POSITION" source="#weeds_-06+00_solid-pos"/></vertices>
        <triangles count="96" material="MAT_WEED_STEM-mat"><input semantic="VERTEX" source="#weeds_-06+00_solid-vtx" offset="0"/><input semantic="NORMAL" source="#weeds_-06+00_solid-nrm" offset="1"/><p>0 0 1 1 2 2 0 0 2 2 3 3 1 1 4 4 5 5 1 1 5 5 2 2 4 4 6 6 7 7 4 4 7 7 5 5 6 6 0 0 3 3 6 6 3 3 7 7 3 3 2 2 8 8 3 3 8 8 9 9 2 2 5 5 10 10 2 2 10 10 8 8 5 5 7 7 11 11 5 5 11 11 10 10 7 7 3 3 9 9 7 7 9 9 11 11 9 9 8 8 12 12 9 9 12 12 13 13 8 8 10 10 14 14 8 8 14 14 12 12 10 10 11 11 15 15 10 10 15 15 14 14 11 11 9 9 13 13 11 11 13 13 15 15 13 13 12 12 16 16 13 13 16 16 17 17 12 12 14 14 18 18 12 12 18 18 16 16 14 14 15 15 19 19 14 14 19 19 18 18 15 15 13 13 17 17 15 15 17 17 19 19 17 17 16 16 20 20 17 17 20 20 21 21 16 16 18 18 22 22 16 16 22 22 20 20 18 18 19 19 23 23 18 18 23 23 22 22 19 19 17 17 21 21 19 19 21 21 23 23 0 0 1 1 24 24 1 1 4 4 24 24 4 4 6 6 24 24 6 6 0 0 24 24 20 20 21 21 25 25 22 22 20 20 25 25 23 23 22 22 25 25 21 21 23 23 25 25 26 26 27 27 28 28 26 26 28 28 29 29 27 27 30 30 31 31 27 27 31 31 28 28 30 30 32 32 33 33 30 30 33 33 31 31 32 32 26 26 29 29 32 32 29 29 33 33 29 29 28 28 34 34 29 29 34 34 35 35 28 28 31 31 36 36 28 28 36 36 34 34 31 31 33 33 37 37 31 31 37 37 36 36 33 33 29 29 35 35 33 33 35 35 37 37 35 35 34 34 38 38 35 35 38 38 39 39 34 34 36 36 40 40 34 34 40 40 38 38 36 36 37 37 41 41 36 36 41 41 40 40 37 37 35 35 39 39 37 37 39 39 41 41 39 39 38 38 42 42 39 39 42 42 43 43 38 38 40 40 44 44 38 38 44 44 42 42 40 40 41 41 45 45 40 40 45 45 44 44 41 41 39 39 43 43 41 41 43 43 45 45 43 43 42 42 46 46 43 43 46 46 47 47 42 42 44 44 48 48 42 42 48 48 46 46 44 44 45 45 49 49 44 44 49 49 48 48 45 45 43 43 47 47 45 45 47 47 49 49 26 26 27 27 50 50 27 27 30 30 50 50 30 30 32 32 50 50 32 32 26 26 50 50 46 46 47 47 51 51 48 48 46 46 51 51 49 49 48 48 51 51 47 47 49 49 51 51</p></triangles>
      </mesh>
    </geometry>
  </library_geometries>
  <library_visual_scenes><visual_scene id="scene" name="scene">
    <node id="weeds_-06+00_solid" name="weeds_-06+00_solid" type="NODE"><instance_geometry url="#weeds_-06+00_solid-mesh"><bind_material><technique_common>
      <instance_material symbol="MAT_WEED_STEM-mat" target="#MAT_WEED_STEM"/>
    </technique_common></bind_material></instance_geometry></node>
  </visual_scene></library_visual_scenes>
  <scene><instance_visual_scene url="#scene"/></scene>
</COLLADA>
