<?xml version="1.0" encoding="utf-8"?>
<COLLADA xmlns="http://www.collada.org/2005/11/COLLADASchema" version="1.4.1">
  <asset>
    <contributor><authoring_tool>VIGIL SIH26126 farm generator</authoring_tool></contributor>
    <unit name="meter" meter="1"/>
    <up_axis>Z_UP</up_axis>
  </asset>
  <library_effects>
    <effect id="MAT_WEED_GRASS-fx"><profile_COMMON><technique sid="c"><lambert><diffuse><color>0.0980 0.1280 0.0300 1</color></diffuse></lambert></technique></profile_COMMON></effect>
    <effect id="MAT_WEED_BROAD-fx"><profile_COMMON><technique sid="c"><lambert><diffuse><color>0.0720 0.1520 0.0340 1</color></diffuse></lambert></technique></profile_COMMON></effect>
  </library_effects>
  <library_materials>
    <material id="MAT_WEED_GRASS" name="MAT_WEED_GRASS"><instance_effect url="#MAT_WEED_GRASS-fx"/></material>
    <material id="MAT_WEED_BROAD" name="MAT_WEED_BROAD"><instance_effect url="#MAT_WEED_BROAD-fx"/></material>
  </library_materials>
  <library_geometries>
    <geometry id="weeds_-05-01_foliage-mesh" name="weeds_-05-01_foliage">
      <mesh>
        <source id="weeds_-05-01_foliage-pos"><float_array id="weeds_-05-01_foliage-pos-a" count="900">0.078445 0.21492 -0.058916 0.083809 0.21579 -0.058681 0.077518 0.24216 0.014796 0.072933 0.24139 0.014593 0.072048 0.27167 0.052297 0.068722 0.27109 0.052147 0.067982 0.30583 0.037211 0.066208 0.30551 0.03713 0.064957 0.34343 -0.016921 0.064957 0.34343 -0.016921 0.080994 0.21259 -0.059048 0.081261 0.21812 -0.058549 0.058449 0.21356 -0.0087584 0.057957 0.20884 -0.0091929 0.03627 0.21091 0.016633 0.035725 0.2075 0.016314 0.015045 0.21132 0.0060469 0.014656 0.20951 0.0058752 -0.0054817 0.21407 -0.032126 -0.0054817 0.21407 -0.032126 0.081184 0.21772 -0.058587 0.08107 0.21299 -0.05901 0.10693 0.20834 0.0015873 0.10742 0.21238 0.0019603 0.13382 0.20669 0.031149 0.13446 0.20957 0.031424 0.1622 0.20916 0.015492 0.16268 0.21067 0.01564 0.19172 0.21465 -0.033277 0.19172 0.21465 -0.033277 0.082443 0.21742 -0.058576 0.079811 0.21329 -0.059021 0.097183 0.19664 -0.0072291 0.099331 0.20025 -0.0068447 0.1154 0.18246 0.019088 0.11688 0.18513 0.019369 0.13475 0.17177 0.0078605 0.1355 0.17321 0.0080111 0.15496 0.16373 -0.032003 0.15496 0.16373 -0.032003 0.082745 0.21598 -0.058695 0.07951 0.21473 -0.058902 0.083031 0.19679 -0.013686 0.085789 0.19791 -0.013504 0.087215 0.18048 0.014017 0.089203 0.18133 0.014151 0.092285 0.16663 0.014557 0.093338 0.1671 0.01463 0.098129 0.15499 -0.0091909 0.098129 0.15499 -0.0091909 0.080151 0.21305 -0.059032 0.082104 0.21766 -0.058565 0.05674 0.22135 0.0070054 0.055214 0.21735 0.0066046 0.032196 0.22743 0.043157 0.0312 0.22449 0.042866 0.0089493 0.23727 0.035322 0.0084763 0.23568 0.035167 -0.013229 0.25013 -0.0078251 -0.013229 0.25013 -0.0078251 0.078754 0.21476 -0.058921 0.0835 0.21595 -0.058676 0.076466 0.23393 0.0073439 0.072361 0.23316 0.0071544 0.070019 0.2544 0.04555 0.06702 0.25402 0.045428 0.064667 0.27865 0.041875 0.063061 0.27855 0.041818 0.060219 0.30604 0.0038369 0.060219 0.30604 0.0038369 0.084259 0.2143 -0.0588 0.077995 0.21641 -0.058797 0.069153 0.1892 -0.010022 0.074677 0.18792 -0.0099723 0.061409 0.1643 0.013252 0.065495 0.16376 0.013325 0.054993 0.14286 -0.00086898 0.057198 0.14279 -0.00081045 0.049564 0.12412 -0.043043 0.049564 0.12412 -0.043043 0.078857 0.2135 -0.05903 0.083397 0.21721 -0.058567 0.067055 0.23072 0.0010559 0.063465 0.22719 0.00063623 0.051369 0.24635 0.033704 0.049007 0.24355 0.033386 0.036861 0.26531 0.02623 0.03574 0.2637 0.026054 0.023346 0.28688 -0.012921 0.023346 0.28688 -0.012921 0.080513 0.21738 -0.058637 0.081741 0.21333 -0.05896 0.09634 0.21474 -0.0050794 0.094936 0.21805 -0.0048264 0.11138 0.21811 0.028449 0.11012 0.22038 0.028614 0.12719 0.22432 0.030531 0.12639 0.22545 0.030608 0.14365 0.233 0.0047982 0.14365 0.233 0.0047982 1.4297 0.2391 -0.063857 1.4326 0.23359 -0.062959 1.4572 0.25834 0.014653 1.4547 0.26304 0.013881 1.4863 0.27958 0.053968 1.4844 0.28297 0.053407 1.5221 0.29545 0.037333 1.5211 0.29726 0.037033 1.563 0.30736 -0.020846 1.563 0.30736 -0.020846 1.4281 0.23541 -0.063687 1.4342 0.23728 -0.063129 1.4197 0.26575 -0.012752 1.4144 0.26444 -0.013269 1.408 0.29167 0.011664 1.4041 0.29093 0.011262 1.4007 0.31388 -0.0022003 1.3987 0.3136 -0.0024285 1.397 0.33329 -0.045421 1.397 0.33329 -0.045421 1.4337 0.23721 -0.063178 1.4286 0.23548 -0.063638 1.4318 0.2119 0.0041599 1.4364 0.21295 0.0046115 1.4394 0.18503 0.03896 1.4427 0.18548 0.039326 1.4529 0.15332 0.025682 1.4548 0.15339 0.025896 1.471 0.11799 -0.022795 1.471 0.11799 -0.022795 1.4339 0.23572 -0.063014 1.4284 0.23697 -0.063802 1.4157 0.21714 -0.006412 1.4204 0.21622 -0.0057466 1.4065 0.19463 0.023893 1.41 0.19406 0.024368 1.4024 0.16821 0.014268 1.4042 0.16796 0.014517 1.4021 0.13883 -0.025815 1.4021 0.13883 -0.025815 1.4324 0.23483 -0.063102 1.4299 0.23786 -0.063714 1.4107 0.23197 -0.015013 1.413 0.22941 -0.014488 1.394 0.22412 0.015076 1.3957 0.22229 0.015458 1.3809 0.21335 0.016282 1.3818 0.21239 0.016487 1.371 0.2 -0.0083358 1.371 0.2 -0.0083358 1.4283 0.23651 -0.063772 1.434 0.23618 -0.063044 1.4271 0.27227 0.0038529 1.4222 0.27236 0.0032459 1.4237 0.30524 0.039453 1.4202 0.30518 0.039026 1.4259 0.33356 0.028267 1.424 0.33345 0.028046 1.4326 0.35811 -0.020475 1.4326 0.35811 -0.020475 1.4296 0.23869 -0.063825 1.4327 0.23399 -0.062991 1.4481 0.25556 0.0065834 1.4457 0.25973 0.0058857 1.467 0.27448 0.046546 1.4655 0.2776 0.046054 1.4913 0.2892 0.041944 1.4906 0.2909 0.04169 1.5202 0.30047 0.00078048 1.5202 0.30047 0.00078048 1.4312 0.23252 -0.063029 1.4311 0.24017 -0.063787 1.3973 0.24462 -0.012773 1.3979 0.23811 -0.01205 1.3669 0.24605 0.011158 1.3678 0.24139 0.011731 1.3416 0.24337 -0.0046575 1.3423 0.24094 -0.0043283 1.3202 0.23766 -0.050292 1.3202 0.23766 -0.050292 1.4283 0.23809 -0.063927 1.434 0.2346 -0.062889 1.4412 0.26395 -0.0012606 1.4361 0.26647 -0.0021379 1.4516 0.29051 0.03166 1.4477 0.292 0.031038 1.4669 0.31281 0.021904 1.4647 0.3134 0.021583 1.4861 0.33164 -0.021537 1.4861 0.33164 -0.021537 1.4331 0.2378 -0.063313 1.4292 0.23488 -0.063503 1.4349 0.2252 -0.0042439 1.438 0.22803 -0.0041483 1.4434 0.21363 0.033349 1.4454 0.21589 0.033368 1.456 0.19896 0.037474 1.4569 0.20026 0.037458 1.4721 0.18155 0.011995 1.4721 0.18155 0.011995 -1.5098 -0.45187 -0.049267 -1.5148 -0.45153 -0.049306 -1.5144 -0.48045 0.00905 -1.5102 -0.48071 0.0090832 -1.5136 -0.50901 0.037546 -1.5105 -0.50918 0.03757 -1.5123 -0.53702 0.022388 -1.5107 -0.53709 0.022402 -1.5106 -0.56462 -0.025182 -1.5106 -0.56462 -0.025182 -1.5119 -0.44941 -0.049255 -1.5127 -0.45399 -0.049318 -1.4937 -0.45865 -0.0073354 -1.4928 -0.45479 -0.0072796 -1.4744 -0.46286 0.014414 -1.4736 -0.46011 0.014455 -1.4548 -0.46659 0.0063071 -1.4543 -0.46516 0.0063294 -1.4348 -0.46999 -0.024693 -1.4348 -0.46999 -0.024693 -1.5126 -0.45367 -0.049313 -1.512 -0.44973 -0.049259 -1.5376 -0.44546 0.00017265 -1.5384 -0.44874 0.0001247 -1.563 -0.44104 0.023813 -1.5639 -0.44333 0.023778 -1.5883 -0.43621 0.0098965 -1.5889 -0.43738 0.009877 -1.6135 -0.43106 -0.031523 -1.6135 -0.43106 -0.031523 -1.5137 -0.45317 -0.049317 -1.5109 -0.45023 -0.049256 -1.5274 -0.43699 -0.0057984 -1.5296 -0.43959 -0.0058505 -1.5437 -0.42364 0.016488 -1.5453 -0.42558 0.01645 -1.5598 -0.41001 0.0075881 -1.5607 -0.41108 0.0075679 -1.5758 -0.39618 -0.025096 -1.5758 -0.39618 -0.025096 -1.5138 -0.45191 -0.049302 -1.5108 -0.45149 -0.049271 -1.5143 -0.43942 -0.010699 -1.5169 -0.43983 -0.010726 -1.5178 -0.42721 0.013321 -1.5197 -0.42753 0.013301 -1.5212 -0.41474 0.014781 -1.5222 -0.41493 0.014771 -1.5245 -0.40204 -0.0039289 -1.5245 -0.40204 -0.0039289 -1.5112 -0.44996 -0.049255 -1.5134 -0.45344 -0.049317 -1.4935 -0.4667 0.005015 -1.4917 -0.46364 0.0050681 -1.4733 -0.47947 0.034943 -1.4721 -0.4772 0.034981 -1.4527 -0.49167 0.028362 -1.4522 -0.49043 0.028382 -1.432 -0.50339 -0.0075288 -1.432 -0.50339 -0.0075288 -1.5101 -0.45167 -0.049267 -1.5145 -0.45173 -0.049306 -1.5124 -0.47325 0.003649 -1.5087 -0.47341 0.0036796 -1.51 -0.49453 0.033517 -1.5072 -0.4948 0.033537 -1.5071 -0.51546 0.02861 -1.5056 -0.51569 0.02862 -1.5039 -0.53612 -0.0048302 -1.5039 -0.53612 -0.0048302 -1.515 -0.4502 -0.049291 -1.5095 -0.4532 -0.049281 -1.5012 -0.43617 -0.006637 -1.5061 -0.43401 -0.0066522 -1.493 -0.41885 0.01482 -1.4966 -0.4176 0.014804 -1.4847 -0.40121 0.0052102 -1.4867 -0.40072 0.0051992 -1.4764 -0.38342 -0.027712 -1.4764 -0.38342 -0.027712 -1.5101 -0.45059 -0.049253 -1.5145 -0.45281 -0.049319 -1.5034 -0.47196 -0.00096979 -1.4998 -0.46971 -0.00091092 -1.4919 -0.49063 0.025011 -1.4895 -0.48875 0.025055 -1.4801 -0.50869 0.0177 -1.4789 -0.50757 0.017724 -1.4681 -0.52624 -0.015897 -1.4681 -0.52624 -0.015897 -1.5119 -0.45351 -0.049306 -1.5127 -0.44989 -0.049267 -1.5283 -0.45236 -0.0055322 -1.5273 -0.45541 -0.0055619 -1.5436 -0.45479 0.021296 -1.5426 -0.45694 0.021277 -1.5585 -0.45697 0.022016 -1.5579 -0.45807 0.022008 -1.5731 -0.45888 -0.00035293 -1.5731 -0.45888 -0.00035293</float_array><technique_common><accessor source="#weeds_-05-01_foliage-pos-a" count="300" stride="3"><param name="X" type="float"/><param name="Y" type="float"/><param name="Z" type="float"/></accessor></technique_common></source>
        <source id="weeds_-05-01_foliage-nrm"><float_array id="weeds_-05-01_foliage-nrm-a" count="1434">0.137 -0.929 0.345 0.122 -0.863 0.49 0.122 -0.864 0.489 -0.003 -0.249 0.969 -0.001 -0.259 0.966 -0.147 0.622 0.769 -0.146 0.618 0.772 -0.172 0.805 0.568 0.907 -0.105 0.408 0.84 -0.13 0.527 0.837 -0.131 0.531 0.26 -0.109 0.959 0.173 -0.099 0.98 -0.673 0.067 0.737 -0.707 0.079 0.702 -0.867 0.143 0.477 -0.918 0.027 0.397 -0.843 0.041 0.536 -0.836 0.042 0.547 -0.255 -0.076 0.964 -0.097 -0.11 0.989 0.659 -0.261 0.705 0.705 -0.276 0.653 0.828 -0.312 0.466 -0.795 0.447 0.409 -0.749 0.392 0.534 -0.75 0.393 0.532 -0.206 0.025 0.978 -0.248 0.049 0.968 0.596 -0.386 0.704 0.578 -0.379 0.722 0.761 -0.443 0.475 -0.364 0.856 0.367 -0.363 0.821 0.441 -0.249 0.457 0.854 -0.254 0.471 0.845 0.158 -0.482 0.862 0.146 -0.458 0.877 0.332 -0.812 0.48 0.855 -0.381 0.351 0.811 -0.359 0.462 0.812 -0.359 0.459 0.268 -0.198 0.943 0.32 -0.215 0.923 -0.641 0.121 0.758 -0.61 0.109 0.785 -0.845 0.203 0.495 0.194 -0.94 0.279 0.159 -0.91 0.382 0.157 -0.909 0.386 0.049 -0.492 0.869 0.037 -0.422 0.906 -0.068 0.48 0.875 -0.07 0.541 0.838 -0.074 0.805 0.588 0.237 0.832 0.502 0.177 0.755 0.631 0.181 0.761 0.623 0.021 0.027 0.999 0.043 0.168 0.985 -0.056 -0.777 0.627 -0.06 -0.729 0.682 -0.041 -0.911 0.41 0.608 -0.723 0.327 0.595 -0.668 0.448 0.596 -0.671 0.441 0.132 -0.263 0.956 0.236 -0.35 0.906 -0.585 0.34 0.736 -0.525 0.296 0.798 -0.732 0.457 0.505 -0.905 -0.344 0.251 -0.863 -0.384 0.329 -0.865 -0.382 0.325 -0.487 -0.298 0.821 -0.57 -0.332 0.751 0.416 0.237 0.878 0.278 0.136 0.951 0.681 0.442 0.584 -0.838 -0.385 0.388 -0.778 -0.332 0.533 -0.779 -0.332 0.532 -0.254 0.023 0.967 -0.262 0.019 0.965 0.496 0.403 0.769 0.492 0.402 0.772 0.674 0.471 0.569 0.183 -0.831 0.525 0.131 -0.758 0.639 0.129 -0.755 0.643 -0.05 -0.165 0.985 -0.067 -0.083 0.994 -0.177 0.7 0.692 -0.176 0.734 0.656 -0.165 0.894 0.416 -0.288 0.899 0.33 -0.253 0.84 0.48 -0.25 0.835 0.491 -0.178 0.294 0.939 -0.16 0.149 0.976 -0.055 -0.603 0.796 -0.052 -0.658 0.751 -0.041 -0.815 0.579 0.148 0.925 0.351 0.105 0.868 0.485 0.106 0.87 0.482 -0.074 0.284 0.956 -0.065 0.327 0.943 -0.19 -0.585 0.789 -0.189 -0.563 0.804 -0.185 -0.792 0.582 0.677 0.651 0.344 0.639 0.644 0.422 0.639 0.644 0.421 0.307 0.447 0.84 0.318 0.456 0.831 -0.413 -0.199 0.889 -0.394 -0.179 0.901 -0.666 -0.51 0.544 -0.094 -0.881 0.464 -0.09 -0.814 0.573 -0.09 -0.816 0.571 -0.126 -0.201 0.972 -0.124 -0.253 0.959 -0.118 0.689 0.715 -0.12 0.658 0.744 -0.101 0.894 0.436 -0.832 -0.45 0.325 -0.813 -0.394 0.428 -0.812 -0.392 0.432 -0.455 -0.105 0.884 -0.395 -0.069 0.916 0.382 0.295 0.876 0.44 0.313 0.842 0.704 0.382 0.599 0.836 0.099 0.54 0.733 0.141 0.665 0.741 0.139 0.658 -0.004 0.089 0.996 0.129 0.111 0.985 -0.751 -0.127 0.649 -0.706 -0.102 0.701 -0.876 -0.207 0.436 -0.496 -0.762 0.416 -0.449 -0.712 0.539 -0.452 -0.716 0.532 -0.225 -0.099 0.969 -0.271 -0.223 0.937 0.101 0.708 0.699 0.076 0.642 0.763 0.173 0.873 0.455 -0.63 0.755 0.181 -0.653 0.708 0.268 -0.652 0.711 0.263 -0.448 0.421 0.788 -0.506 0.481 0.716 0.314 -0.207 0.927 0.175 -0.108 0.979 0.609 -0.421 0.672 0.055 0.895 0.443 0.046 0.812 0.582 0.046 0.812 0.581 0.003 0.147 0.989 0.003 0.157 0.988 -0.041 -0.697 0.716 -0.04 -0.693 0.72 -0.046 -0.865 0.5 -0.89 0.165 0.424 -0.816 0.171 0.552 -0.812 0.171 0.557 -0.262 0.04 0.964 -0.187 0.019 0.982 0.575 -0.211 0.79 0.611 -0.225 0.759 0.789 -0.294 0.54 0.868 -0.168 0.467 0.773 -0.187 0.606 0.765 -0.188 0.616 0.192 -0.044 0.98 0.056 0.002 0.998 -0.606 0.265 0.75 -0.65 0.292 0.701 -0.772 0.373 0.516 0.662 -0.61 0.435 0.611 -0.55 0.569 0.612 -0.552 0.566 0.127 -0.138 0.982 0.16 -0.165 0.973 -0.518 0.386 0.763 -0.502 0.373 0.78 -0.674 0.502 0.541 0.133 -0.943 0.306 0.135 -0.912 0.387 0.135 -0.913 0.386 0.082 -0.556 0.827 0.084 -0.57 0.817 -0.087 0.402 0.911 -0.082 0.375 0.923 -0.159 0.804 0.573 -0.787 0.468 0.402 -0.745 0.421 0.518 -0.746 0.423 0.515 -0.251 0.129 0.959 -0.294 0.152 0.944 0.532 -0.264 0.805 0.501 -0.251 0.829 0.753 -0.358 0.552 0.008 0.926 0.378 0.029 0.877 0.479 0.03 0.875 0.483 0.013 0.398 0.917 0.007 0.325 0.946 -0.087 -0.555 0.827 -0.096 -0.611 0.786 -0.135 -0.849 0.511 -0.408 -0.82 0.402 -0.347 -0.766 0.541 -0.351 -0.77 0.532 -0.077 -0.119 0.99 -0.126 -0.252 0.96 0.179 0.685 0.706 0.169 0.632 0.756 0.206 0.838 0.505 -0.447 0.793 0.413 -0.45 0.715 0.535 -0.45 0.72 0.528 -0.114 0.176 0.978 -0.188 0.278 0.942 0.435 -0.482 0.761 0.38 -0.431 0.818 0.583 -0.616 0.53 0.913 0.232 0.335 0.869 0.266 0.416 0.872 0.264 0.412 0.457 0.164 0.874 0.546 0.196 0.815 -0.47 -0.274 0.839 -0.328 -0.195 0.924 -0.742 -0.422 0.52 -0.137 0.929 -0.345 -0.122 0.863 -0.49 -0.122 0.864 -0.489 0.003 0.249 -0.969 0.001 0.259 -0.966 0.147 -0.622 -0.769 0.146 -0.618 -0.772 0.172 -0.805 -0.568 -0.907 0.105 -0.408 -0.84 0.13 -0.527 -0.837 0.131 -0.531 -0.26 0.109 -0.959 -0.173 0.099 -0.98 0.673 -0.067 -0.737 0.707 -0.079 -0.702 0.867 -0.143 -0.477 0.918 -0.027 -0.397 0.843 -0.041 -0.536 0.836 -0.042 -0.547 0.255 0.076 -0.964 0.097 0.11 -0.989 -0.659 0.261 -0.705 -0.705 0.276 -0.653 -0.828 0.312 -0.466 0.795 -0.447 -0.409 0.749 -0.392 -0.534 0.75 -0.393 -0.532 0.206 -0.025 -0.978 0.248 -0.049 -0.968 -0.596 0.386 -0.704 -0.578 0.379 -0.722 -0.761 0.443 -0.475 0.364 -0.856 -0.367 0.363 -0.821 -0.441 0.249 -0.457 -0.854 0.254 -0.471 -0.845 -0.158 0.482 -0.862 -0.146 0.458 -0.877 -0.332 0.812 -0.48 -0.855 0.381 -0.351 -0.811 0.359 -0.462 -0.812 0.359 -0.459 -0.268 0.198 -0.943 -0.32 0.215 -0.923 0.641 -0.121 -0.758 0.61 -0.109 -0.785 0.845 -0.203 -0.495 -0.194 0.94 -0.279 -0.159 0.91 -0.382 -0.157 0.909 -0.386 -0.049 0.492 -0.869 -0.037 0.422 -0.906 0.068 -0.48 -0.875 0.07 -0.541 -0.838 0.074 -0.805 -0.588 -0.237 -0.832 -0.502 -0.177 -0.755 -0.631 -0.181 -0.761 -0.623 -0.021 -0.027 -0.999 -0.043 -0.168 -0.985 0.056 0.777 -0.627 0.06 0.729 -0.682 0.041 0.911 -0.41 -0.608 0.723 -0.327 -0.595 0.668 -0.448 -0.596 0.671 -0.441 -0.132 0.263 -0.956 -0.236 0.35 -0.906 0.585 -0.34 -0.736 0.525 -0.296 -0.798 0.732 -0.457 -0.505 0.905 0.344 -0.251 0.863 0.384 -0.329 0.865 0.382 -0.325 0.487 0.298 -0.821 0.57 0.332 -0.751 -0.416 -0.237 -0.878 -0.278 -0.136 -0.951 -0.681 -0.442 -0.584 0.838 0.385 -0.388 0.778 0.332 -0.533 0.779 0.332 -0.532 0.254 -0.023 -0.967 0.262 -0.019 -0.965 -0.496 -0.403 -0.769 -0.492 -0.402 -0.772 -0.674 -0.471 -0.569 -0.183 0.831 -0.525 -0.131 0.758 -0.639 -0.129 0.755 -0.643 0.05 0.165 -0.985 0.067 0.083 -0.994 0.177 -0.7 -0.692 0.176 -0.734 -0.656 0.165 -0.894 -0.416 0.288 -0.899 -0.33 0.253 -0.84 -0.48 0.25 -0.835 -0.491 0.178 -0.294 -0.939 0.16 -0.149 -0.976 0.055 0.603 -0.796 0.052 0.658 -0.751 0.041 0.815 -0.579 -0.148 -0.925 -0.351 -0.105 -0.868 -0.485 -0.106 -0.87 -0.482 0.074 -0.284 -0.956 0.065 -0.327 -0.943 0.19 0.585 -0.789 0.189 0.563 -0.804 0.185 0.792 -0.582 -0.677 -0.651 -0.344 -0.639 -0.644 -0.422 -0.639 -0.644 -0.421 -0.307 -0.447 -0.84 -0.318 -0.456 -0.831 0.413 0.199 -0.889 0.394 0.179 -0.901 0.666 0.51 -0.544 0.094 0.881 -0.464 0.09 0.814 -0.573 0.09 0.816 -0.571 0.126 0.201 -0.972 0.124 0.253 -0.959 0.118 -0.689 -0.715 0.12 -0.658 -0.744 0.101 -0.894 -0.436 0.832 0.45 -0.325 0.813 0.394 -0.428 0.812 0.392 -0.432 0.455 0.105 -0.884 0.395 0.069 -0.916 -0.382 -0.295 -0.876 -0.44 -0.313 -0.842 -0.704 -0.382 -0.599 -0.836 -0.099 -0.54 -0.733 -0.141 -0.665 -0.741 -0.139 -0.658 0.004 -0.089 -0.996 -0.129 -0.111 -0.985 0.751 0.127 -0.649 0.706 0.102 -0.701 0.876 0.207 -0.436 0.496 0.762 -0.416 0.449 0.712 -0.539 0.452 0.716 -0.532 0.225 0.099 -0.969 0.271 0.223 -0.937 -0.101 -0.708 -0.699 -0.076 -0.642 -0.763 -0.173 -0.873 -0.455 0.63 -0.755 -0.181 0.653 -0.708 -0.268 0.652 -0.711 -0.263 0.448 -0.421 -0.788 0.506 -0.481 -0.716 -0.314 0.207 -0.927 -0.175 0.108 -0.979 -0.609 0.421 -0.672 -0.055 -0.895 -0.443 -0.046 -0.812 -0.582 -0.046 -0.812 -0.581 -0.003 -0.147 -0.989 -0.003 -0.157 -0.988 0.041 0.697 -0.716 0.04 0.693 -0.72 0.046 0.865 -0.5 0.89 -0.165 -0.424 0.816 -0.171 -0.552 0.812 -0.171 -0.557 0.262 -0.04 -0.964 0.187 -0.019 -0.982 -0.575 0.211 -0.79 -0.611 0.225 -0.759 -0.789 0.294 -0.54 -0.868 0.168 -0.467 -0.773 0.187 -0.606 -0.765 0.188 -0.616 -0.192 0.044 -0.98 -0.056 -0.002 -0.998 0.606 -0.265 -0.75 0.65 -0.292 -0.701 0.772 -0.373 -0.516 -0.662 0.61 -0.435 -0.611 0.55 -0.569 -0.612 0.552 -0.566 -0.127 0.138 -0.982 -0.16 0.165 -0.973 0.518 -0.386 -0.763 0.502 -0.373 -0.78 0.674 -0.502 -0.541 -0.133 0.943 -0.306 -0.135 0.912 -0.387 -0.135 0.913 -0.386 -0.082 0.556 -0.827 -0.084 0.57 -0.817 0.087 -0.402 -0.911 0.082 -0.375 -0.923 0.159 -0.804 -0.573 0.787 -0.468 -0.402 0.745 -0.421 -0.518 0.746 -0.423 -0.515 0.251 -0.129 -0.959 0.294 -0.152 -0.944 -0.532 0.264 -0.805 -0.501 0.251 -0.829 -0.753 0.358 -0.552 -0.008 -0.926 -0.378 -0.029 -0.877 -0.479 -0.03 -0.875 -0.483 -0.013 -0.398 -0.917 -0.007 -0.325 -0.946 0.087 0.555 -0.827 0.096 0.611 -0.786 0.135 0.849 -0.511 0.408 0.82 -0.402 0.347 0.766 -0.541 0.351 0.77 -0.532 0.077 0.119 -0.99 0.126 0.252 -0.96 -0.179 -0.685 -0.706 -0.169 -0.632 -0.756 -0.206 -0.838 -0.505 0.447 -0.793 -0.413 0.45 -0.715 -0.535 0.45 -0.72 -0.528 0.114 -0.176 -0.978 0.188 -0.278 -0.942 -0.435 0.482 -0.761 -0.38 0.431 -0.818 -0.583 0.616 -0.53 -0.913 -0.232 -0.335 -0.869 -0.266 -0.416 -0.872 -0.264 -0.412 -0.457 -0.164 -0.874 -0.546 -0.196 -0.815 0.47 0.274 -0.839 0.328 0.195 -0.924 0.742 0.422 -0.52</float_array><technique_common><accessor source="#weeds_-05-01_foliage-nrm-a" count="478" stride="3"><param name="X" type="float"/><param name="Y" type="float"/><param name="Z" type="float"/></accessor></technique_common></source>
        <vertices id="weeds_-05-01_foliage-vtx"><input semantic="POSITION" source="#weeds_-05-01_foliage-pos"/></vertices>
        <triangles count="480" material="MAT_WEED_GRASS-mat"><input semantic="VERTEX" source="#weeds_-05-01_foliage-vtx" offset="0"/><input semantic="NORMAL" source="#weeds_-05-01_foliage-nrm" offset="1"/><p>0 0 1 0 2 1 0 0 2 1 3 2 3 2 2 1 4 3 3 2 4 3 5 4 5 4 4 3 6 5 5 4 6 5 7 6 7 6 6 5 8 7 7 6 8 7 9 7 10 8 11 8 12 9 10 8 12 9 13 10 13 10 12 9 14 11 13 10 14 11 15 12 15 12 14 11 16 13 15 12 16 13 17 14 17 14 16 13 18 15 17 14 18 15 19 15 20 16 21 16 22 17 20 16 22 17 23 18 23 18 22 17 24 19 23 18 24 19 25 20 25 20 24 19 26 21 25 20 26 21 27 22 27 22 26 21 28 23 27 22 28 23 29 23 30 24 31 24 32 25 30 24 32 25 33 26 33 26 32 25 34 27 33 26 34 27 35 28 35 28 34 27 36 29 35 28 36 29 37 30 37 30 36 29 38 31 37 30 38 31 39 31 40 32 41 32 42 33 40 32 42 33 43 33 43 33 42 33 44 34 43 33 44 34 45 35 45 35 44 34 46 36 45 35 46 36 47 37 47 37 46 36 48 38 47 37 48 38 49 38 50 39 51 39 52 40 50 39 52 40 53 41 53 41 52 40 54 42 53 41 54 42 55 43 55 43 54 42 56 44 55 43 56 44 57 45 57 45 56 44 58 46 57 45 58 46 59 46 60 47 61 47 62 48 60 47 62 48 63 49 63 49 62 48 64 50 63 49 64 50 65 51 65 51 64 50 66 52 65 51 66 52 67 53 67 53 66 52 68 54 67 53 68 54 69 54 70 55 71 55 72 56 70 55 72 56 73 57 73 57 72 56 74 58 73 57 74 58 75 59 75 59 74 58 76 60 75 59 76 60 77 61 77 61 76 60 78 62 77 61 78 62 79 62 80 63 81 63 82 64 80 63 82 64 83 65 83 65 82 64 84 66 83 65 84 66 85 67 85 67 84 66 86 68 85 67 86 68 87 69 87 69 86 68 88 70 87 69 88 70 89 70 90 71 91 71 92 72 90 71 92 72 93 73 93 73 92 72 94 74 93 73 94 74 95 75 95 75 94 74 96 76 95 75 96 76 97 77 97 77 96 76 98 78 97 77 98 78 99 78 100 79 101 79 102 80 100 79 102 80 103 81 103 81 102 80 104 82 103 81 104 82 105 83 105 83 104 82 106 84 105 83 106 84 107 85 107 85 106 84 108 86 107 85 108 86 109 86 110 87 111 87 112 88 110 87 112 88 113 89 113 89 112 88 114 90 113 89 114 90 115 91 115 91 114 90 116 92 115 91 116 92 117 93 117 93 116 92 118 94 117 93 118 94 119 94 120 95 121 95 122 96 120 95 122 96 123 97 123 97 122 96 124 98 123 97 124 98 125 99 125 99 124 98 126 100 125 99 126 100 127 101 127 101 126 100 128 102 127 101 128 102 129 102 130 103 131 103 132 104 130 103 132 104 133 105 133 105 132 104 134 106 133 105 134 106 135 107 135 107 134 106 136 108 135 107 136 108 137 109 137 109 136 108 138 110 137 109 138 110 139 110 140 111 141 111 142 112 140 111 142 112 143 113 143 113 142 112 144 114 143 113 144 114 145 115 145 115 144 114 146 116 145 115 146 116 147 117 147 117 146 116 148 118 147 117 148 118 149 118 150 119 151 119 152 120 150 119 152 120 153 121 153 121 152 120 154 122 153 121 154 122 155 123 155 123 154 122 156 124 155 123 156 124 157 125 157 125 156 124 158 126 157 125 158 126 159 126 160 127 161 127 162 128 160 127 162 128 163 129 163 129 162 128 164 130 163 129 164 130 165 131 165 131 164 130 166 132 165 131 166 132 167 133 167 133 166 132 168 134 167 133 168 134 169 134 170 135 171 135 172 136 170 135 172 136 173 137 173 137 172 136 174 138 173 137 174 138 175 139 175 139 174 138 176 140 175 139 176 140 177 141 177 141 176 140 178 142 177 141 178 142 179 142 180 143 181 143 182 144 180 143 182 144 183 145 183 145 182 144 184 146 183 145 184 146 185 147 185 147 184 146 186 148 185 147 186 148 187 149 187 149 186 148 188 150 187 149 188 150 189 150 190 151 191 151 192 152 190 151 192 152 193 153 193 153 192 152 194 154 193 153 194 154 195 155 195 155 194 154 196 156 195 155 196 156 197 157 197 157 196 156 198 158 197 157 198 158 199 158 200 159 201 159 202 160 200 159 202 160 203 161 203 161 202 160 204 162 203 161 204 162 205 163 205 163 204 162 206 164 205 163 206 164 207 165 207 165 206 164 208 166 207 165 208 166 209 166 210 167 211 167 212 168 210 167 212 168 213 169 213 169 212 168 214 170 213 169 214 170 215 171 215 171 214 170 216 172 215 171 216 172 217 173 217 173 216 172 218 174 217 173 218 174 219 174 220 175 221 175 222 176 220 175 222 176 223 177 223 177 222 176 224 178 223 177 224 178 225 179 225 179 224 178 226 180 225 179 226 180 227 181 227 181 226 180 228 182 227 181 228 182 229 182 230 183 231 183 232 184 230 183 232 184 233 185 233 185 232 184 234 186 233 185 234 186 235 187 235 187 234 186 236 188 235 187 236 188 237 189 237 189 236 188 238 190 237 189 238 190 239 190 240 191 241 191 242 192 240 191 242 192 243 193 243 193 242 192 244 194 243 193 244 194 245 195 245 195 244 194 246 196 245 195 246 196 247 197 247 197 246 196 248 198 247 197 248 198 249 198 250 199 251 199 252 200 250 199 252 200 253 201 253 201 252 200 254 202 253 201 254 202 255 203 255 203 254 202 256 204 255 203 256 204 257 205 257 205 256 204 258 206 257 205 258 206 259 206 260 207 261 207 262 208 260 207 262 208 263 209 263 209 262 208 264 210 263 209 264 210 265 211 265 211 264 210 266 212 265 211 266 212 267 213 267 213 266 212 268 214 267 213 268 214 269 214 270 215 271 215 272 216 270 215 272 216 273 217 273 217 272 216 274 218 273 217 274 218 275 219 275 219 274 218 276 220 275 219 276 220 277 221 277 221 276 220 278 222 277 221 278 222 279 222 280 223 281 223 282 224 280 223 282 224 283 225 283 225 282 224 284 226 283 225 284 226 285 227 285 227 284 226 286 228 285 227 286 228 287 229 287 229 286 228 288 230 287 229 288 230 289 230 290 231 291 231 292 232 290 231 292 232 293 233 293 233 292 232 294 234 293 233 294 234 295 235 295 235 294 234 296 236 295 235 296 236 297 237 297 237 296 236 298 238 297 237 298 238 299 238 0 239 2 240 1 239 0 239 3 241 2 240 3 241 4 242 2 240 3 241 5 243 4 242 5 243 6 244 4 242 5 243 7 245 6 244 7 245 8 246 6 244 7 245 9 246 8 246 10 247 12 248 11 247 10 247 13 249 12 248 13 249 14 250 12 248 13 249 15 251 14 250 15 251 16 252 14 250 15 251 17 253 16 252 17 253 18 254 16 252 17 253 19 254 18 254 20 255 22 256 21 255 20 255 23 257 22 256 23 257 24 258 22 256 23 257 25 259 24 258 25 259 26 260 24 258 25 259 27 261 26 260 27 261 28 262 26 260 27 261 29 262 28 262 30 263 32 264 31 263 30 263 33 265 32 264 33 265 34 266 32 264 33 265 35 267 34 266 35 267 36 268 34 266 35 267 37 269 36 268 37 269 38 270 36 268 37 269 39 270 38 270 40 271 42 272 41 271 40 271 43 272 42 272 43 272 44 273 42 272 43 272 45 274 44 273 45 274 46 275 44 273 45 274 47 276 46 275 47 276 48 277 46 275 47 276 49 277 48 277 50 278 52 279 51 278 50 278 53 280 52 279 53 280 54 281 52 279 53 280 55 282 54 281 55 282 56 283 54 281 55 282 57 284 56 283 57 284 58 285 56 283 57 284 59 285 58 285 60 286 62 287 61 286 60 286 63 288 62 287 63 288 64 289 62 287 63 288 65 290 64 289 65 290 66 291 64 289 65 290 67 292 66 291 67 292 68 293 66 291 67 292 69 293 68 293 70 294 72 295 71 294 70 294 73 296 72 295 73 296 74 297 72 295 73 296 75 298 74 297 75 298 76 299 74 297 75 298 77 300 76 299 77 300 78 301 76 299 77 300 79 301 78 301 80 302 82 303 81 302 80 302 83 304 82 303 83 304 84 305 82 303 83 304 85 306 84 305 85 306 86 307 84 305 85 306 87 308 86 307 87 308 88 309 86 307 87 308 89 309 88 309 90 310 92 311 91 310 90 310 93 312 92 311 93 312 94 313 92 311 93 312 95 314 94 313 95 314 96 315 94 313 95 314 97 316 96 315 97 316 98 317 96 315 97 316 99 317 98 317 100 318 102 319 101 318 100 318 103 320 102 319 103 320 104 321 102 319 103 320 105 322 104 321 105 322 106 323 104 321 105 322 107 324 106 323 107 324 108 325 106 323 107 324 109 325 108 325 110 326 112 327 111 326 110 326 113 328 112 327 113 328 114 329 112 327 113 328 115 330 114 329 115 330 116 331 114 329 115 330 117 332 116 331 117 332 118 333 116 331 117 332 119 333 118 333 120 334 122 335 121 334 120 334 123 336 122 335 123 336 124 337 122 335 123 336 125 338 124 337 125 338 126 339 124 337 125 338 127 340 126 339 127 340 128 341 126 339 127 340 129 341 128 341 130 342 132 343 131 342 130 342 133 344 132 343 133 344 134 345 132 343 133 344 135 346 134 345 135 346 136 347 134 345 135 346 137 348 136 347 137 348 138 349 136 347 137 348 139 349 138 349 140 350 142 351 141 350 140 350 143 352 142 351 143 352 144 353 142 351 143 352 145 354 144 353 145 354 146 355 144 353 145 354 147 356 146 355 147 356 148 357 146 355 147 356 149 357 148 357 150 358 152 359 151 358 150 358 153 360 152 359 153 360 154 361 152 359 153 360 155 362 154 361 155 362 156 363 154 361 155 362 157 364 156 363 157 364 158 365 156 363 157 364 159 365 158 365 160 366 162 367 161 366 160 366 163 368 162 367 163 368 164 369 162 367 163 368 165 370 164 369 165 370 166 371 164 369 165 370 167 372 166 371 167 372 168 373 166 371 167 372 169 373 168 373 170 374 172 375 171 374 170 374 173 376 172 375 173 376 174 377 172 375 173 376 175 378 174 377 175 378 176 379 174 377 175 378 177 380 176 379 177 380 178 381 176 379 177 380 179 381 178 381 180 382 182 383 181 382 180 382 183 384 182 383 183 384 184 385 182 383 183 384 185 386 184 385 185 386 186 387 184 385 185 386 187 388 186 387 187 388 188 389 186 387 187 388 189 389 188 389 190 390 192 391 191 390 190 390 193 392 192 391 193 392 194 393 192 391 193 392 195 394 194 393 195 394 196 395 194 393 195 394 197 396 196 395 197 396 198 397 196 395 197 396 199 397 198 397 200 398 202 399 201 398 200 398 203 400 202 399 203 400 204 401 202 399 203 400 205 402 204 401 205 402 206 403 204 401 205 402 207 404 206 403 207 404 208 405 206 403 207 404 209 405 208 405 210 406 212 407 211 406 210 406 213 408 212 407 213 408 214 409 212 407 213 408 215 410 214 409 215 410 216 411 214 409 215 410 217 412 216 411 217 412 218 413 216 411 217 412 219 413 218 413 220 414 222 415 221 414 220 414 223 416 222 415 223 416 224 417 222 415 223 416 225 418 224 417 225 418 226 419 224 417 225 418 227 420 226 419 227 420 228 421 226 419 227 420 229 421 228 421 230 422 232 423 231 422 230 422 233 424 232 423 233 424 234 425 232 423 233 424 235 426 234 425 235 426 236 427 234 425 235 426 237 428 236 427 237 428 238 429 236 427 237 428 239 429 238 429 240 430 242 431 241 430 240 430 243 432 242 431 243 432 244 433 242 431 243 432 245 434 244 433 245 434 246 435 244 433 245 434 247 436 246 435 247 436 248 437 246 435 247 436 249 437 248 437 250 438 252 439 251 438 250 438 253 440 252 439 253 440 254 441 252 439 253 440 255 442 254 441 255 442 256 443 254 441 255 442 257 444 256 443 257 444 258 445 256 443 257 444 259 445 258 445 260 446 262 447 261 446 260 446 263 448 262 447 263 448 264 449 262 447 263 448 265 450 264 449 265 450 266 451 264 449 265 450 267 452 266 451 267 452 268 453 266 451 267 452 269 453 268 453 270 454 272 455 271 454 270 454 273 456 272 455 273 456 274 457 272 455 273 456 275 458 274 457 275 458 276 459 274 457 275 458 277 460 276 459 277 460 278 461 276 459 277 460 279 461 278 461 280 462 282 463 281 462 280 462 283 464 282 463 283 464 284 465 282 463 283 464 285 466 284 465 285 466 286 467 284 465 285 466 287 468 286 467 287 468 288 469 286 467 287 468 289 469 288 469 290 470 292 471 291 470 290 470 293 472 292 471 293 472 294 473 292 471 293 472 295 474 294 473 295 474 296 475 294 473 295 474 297 476 296 475 297 476 298 477 296 475 297 476 299 477 298 477</p></triangles>
      </mesh>
    </geometry>
  </library_geometries>
  <library_visual_scenes><visual_scene id="scene" name="scene">
    <node id="weeds_-05-01_foliage" name="weeds_-05-01_foliage" type="NODE"><instance_geometry url="#weeds_-05-01_foliage-mesh"><bind_material><technique_common>
      <instance_material symbol="MAT_WEED_GRASS-mat" target="#MAT_WEED_GRASS"/>
      <instance_material symbol="MAT_WEED_BROAD-mat" target="#MAT_WEED_BROAD"/>
    </technique_common></bind_material></instance_geometry></node>
  </visual_scene></library_visual_scenes>
  <scene><instance_visual_scene url="#scene"/></scene>
<!-- vigil:double-sided -->
</COLLADA>
