<?xml version="1.0" encoding="utf-8"?>
<COLLADA xmlns="http://www.collada.org/2005/11/COLLADASchema" version="1.4.1">
  <asset>
    <contributor><authoring_tool>VIGIL SIH26126 farm generator</authoring_tool></contributor>
    <unit name="meter" meter="1"/>
    <up_axis>Z_UP</up_axis>
  </asset>
  <library_effects>
    <effect id="MAT_WEED_STEM-fx"><profile_COMMON><technique sid="c"><lambert><diffuse><color>0.0860 0.1040 0.0360 1</color></diffuse></lambert></technique></profile_COMMON></effect>
  </library_effects>
  <library_materials>
    <material id="MAT_WEED_STEM" name="MAT_WEED_STEM"><instance_effect url="#MAT_WEED_STEM-fx"/></material>
  </library_materials>
  <library_geometries>
    <geometry id="weeds_-03+01_solid-mesh" name="weeds_-03+01_solid">
      <mesh>
        <source id="weeds_-03+01_solid-pos"><float_array id="weeds_-03+01_solid-pos-a" count="78">-0.18732 0.88944 -0.074513 -0.17856 0.88696 -0.074411 -0.17954 0.88786 -0.016139 -0.18725 0.89005 -0.016301 -0.17586 0.89566 -0.074419 -0.17717 0.89552 -0.016121 -0.18462 0.89814 -0.074522 -0.18488 0.8977 -0.016283 -0.18167 0.8887 0.042147 -0.18833 0.89059 0.041881 -0.17962 0.89531 0.042206 -0.18627 0.8972 0.04194 -0.18493 0.88948 0.10042 -0.19053 0.89108 0.10009 -0.18321 0.89505 0.10051 -0.1888 0.89664 0.10018 -0.18934 0.8902 0.15868 -0.19388 0.89149 0.15832 -0.18793 0.89472 0.15878 -0.19247 0.89602 0.15842 -0.19487 0.89085 0.21691 -0.19836 0.89185 0.21661 -0.19379 0.89433 0.217 -0.19728 0.89533 0.21669 -0.18159 0.89255 -0.074466 -0.19608 0.89309 0.2168</float_array><technique_common><accessor source="#weeds_-03+01_solid-pos-a" count="26" stride="3"><param name="X" type="float"/><param name="Y" type="float"/><param name="Z" type="float"/></accessor></technique_common></source>
        <source id="weeds_-03+01_solid-nrm"><float_array id="weeds_-03+01_solid-nrm-a" count="78">-0.714 -0.381 0.587 0.381 -0.711 0.591 0.479 -0.877 0.026 -0.878 -0.478 -0.003 0.701 0.386 0.599 0.88 0.475 0.03 -0.393 0.716 0.577 -0.473 0.881 0 0.479 -0.877 0.034 -0.878 -0.478 -0.02 0.879 0.475 0.047 -0.473 0.881 -0.008 0.478 -0.877 0.043 -0.878 -0.478 -0.038 0.878 0.474 0.065 -0.473 0.881 -0.016 0.477 -0.878 0.051 -0.877 -0.477 -0.056 0.877 0.474 0.083 -0.472 0.881 -0.024 0.44 -0.726 -0.528 -0.667 -0.39 -0.635 0.768 0.389 -0.509 -0.342 0.725 -0.598 -0.01 0.004 1 0.086 -0.001 -0.996</float_array><technique_common><accessor source="#weeds_-03+01_solid-nrm-a" count="26" stride="3"><param name="X" type="float"/><param name="Y" type="float"/><param name="Z" type="float"/></accessor></technique_common></source>
        <vertices id="weeds_-03+01_solid-vtx"><input semantic="POSITION" source="#weeds_-03+01_solid-pos"/></vertices>
        <triangles count="48" material="MAT_WEED_STEM-mat"><input semantic="VERTEX" source="#weeds_-03+01_solid-vtx" offset="0"/><input semantic="NORMAL" source="#weeds_-03+01_solid-nrm" offset="1"/><p>0 0 1 1 2 2 0 0 2 2 3 3 1 1 4 4 5 5 1 1 5 5 2 2 4 4 6 6 7 7 4 4 7 7 5 5 6 6 0 0 3 3 6 6 3 3 7 7 3 3 2 2 8 8 3 3 8 8 9 9 2 2 5 5 10 10 2 2 10 10 8 8 5 5 7 7 11 11 5 5 11 11 10 10 7 7 3 3 9 9 7 7 9 9 11 11 9 9 8 8 12 12 9 9 12 12 13 13 8 8 10 10 14 14 8 8 14 14 12 12 10 10 11 11 15 15 10 10 15 15 14 14 11 11 9 9 13 13 11 11 13 13 15 15 13 13 12 12 16 16 13 13 16 16 17 17 12 12 14 14 18 18 12 12 18 18 16 16 14 14 15 15 19 19 14 14 19 19 18 18 15 15 13 13 17 17 15 15 17 17 19 19 17 17 16 16 20 20 17 17 20 20 21 21 16 16 18 18 22 22 16 16 22 22 20 20 18 18 19 19 23 23 18 18 23 23 22 22 19 19 17 17 21 21 19 19 21 21 23 23 0 0 1 1 24 24 1 1 4 4 24 24 4 4 6 6 24 24 6 6 0 0 24 24 20 20 21 21 25 25 22 22 20 20 25 25 23 23 22 22 25 25 21 21 23 23 25 25</p></triangles>
      </mesh>
    </geometry>
  </library_geometries>
  <library_visual_scenes><visual_scene id="scene" name="scene">
    <node id="weeds_-03+01_solid" name="weeds_-03+01_solid" type="NODE"><instance_geometry url="#weeds_-03+01_solid-mesh"><bind_material><technique_common>
      <instance_material symbol="MAT_WEED_STEM-mat" target="#MAT_WEED_STEM"/>
    </technique_common></bind_material></instance_geometry></node>
  </visual_scene></library_visual_scenes>
  <scene><instance_visual_scene url="#scene"/></scene>
</COLLADA>
