<?xml version="1.0" encoding="utf-8"?>
<COLLADA xmlns="http://www.collada.org/2005/11/COLLADASchema" version="1.4.1">
  <asset>
    <contributor><authoring_tool>VIGIL SIH26126 farm generator</authoring_tool></contributor>
    <unit name="meter" meter="1"/>
    <up_axis>Z_UP</up_axis>
  </asset>
  <library_effects>
    <effect id="MAT_WEED_GRASS-fx"><profile_COMMON><technique sid="c"><lambert><diffuse><color>0.0980 0.1280 0.0300 1</color></diffuse></lambert></technique></profile_COMMON></effect>
    <effect id="MAT_WEED_BROAD-fx"><profile_COMMON><technique sid="c"><lambert><diffuse><color>0.0720 0.1520 0.0340 1</color></diffuse></lambert></technique></profile_COMMON></effect>
  </library_effects>
  <library_materials>
    <material id="MAT_WEED_GRASS" name="MAT_WEED_GRASS"><instance_effect url="#MAT_WEED_GRASS-fx"/></material>
    <material id="MAT_WEED_BROAD" name="MAT_WEED_BROAD"><instance_effect url="#MAT_WEED_BROAD-fx"/></material>
  </library_materials>
  <library_geometries>
    <geometry id="weeds_-06+00_foliage-mesh" name="weeds_-06+00_foliage">
      <mesh>
        <source id="weeds_-06+00_foliage-pos"><float_array id="weeds_-06+00_foliage-pos-a" count="1164">-2.421 -0.42378 -0.037158 -2.4273 -0.42085 -0.036927 -2.4399 -0.45245 0.05821 -2.4345 -0.45492 0.058009 -2.4552 -0.48714 0.10678 -2.4513 -0.4889 0.10663 -2.4749 -0.52623 0.087292 -2.4728 -0.52716 0.087211 -2.4978 -0.56859 0.017261 -2.4978 -0.56859 0.017261 -2.4221 -0.4195 -0.037362 -2.4263 -0.42514 -0.036723 -2.3993 -0.43616 0.028013 -2.3955 -0.43153 0.027461 -2.3742 -0.44898 0.061169 -2.3713 -0.44578 0.060766 -2.352 -0.46469 0.047758 -2.3503 -0.46307 0.047543 -2.332 -0.48266 -0.0013588 -2.332 -0.48266 -0.0013588 -2.4259 -0.42477 -0.036771 -2.4224 -0.41986 -0.037314 -2.447 -0.39586 0.040748 -2.4503 -0.39977 0.041221 -2.4744 -0.37458 0.078635 -2.4771 -0.37717 0.07898 -2.506 -0.35705 0.057991 -2.5076 -0.35829 0.058175 -2.5407 -0.3422 -0.0055146 -2.5407 -0.3422 -0.0055146 -2.427 -0.42356 -0.036774 -2.4213 -0.42108 -0.037311 -2.4283 -0.39057 0.029481 -2.4332 -0.39284 0.029947 -2.4378 -0.36233 0.063298 -2.4412 -0.36408 0.063639 -2.4506 -0.3373 0.048517 -2.4524 -0.33829 0.048701 -2.4659 -0.31476 -0.0033292 -2.4659 -0.31476 -0.0033292 -2.4263 -0.42182 -0.036931 -2.422 -0.42281 -0.037154 -2.4134 -0.40092 0.021319 -2.4171 -0.40013 0.021515 -2.4066 -0.38044 0.057119 -2.4093 -0.37992 0.057266 -2.4021 -0.36221 0.05776 -2.4036 -0.36195 0.05784 -2.3999 -0.34598 0.026963 -2.3999 -0.34598 0.026963 -2.4215 -0.42059 -0.03733 -2.4268 -0.42404 -0.036755 -2.4032 -0.44544 0.048427 -2.3987 -0.44231 0.047932 -2.3818 -0.46906 0.095531 -2.3787 -0.46667 0.095171 -2.3641 -0.49615 0.0857 -2.3625 -0.49481 0.085507 -2.3494 -0.526 0.030161 -2.3494 -0.526 0.030161 -2.4213 -0.42339 -0.037169 -2.4271 -0.42124 -0.036916 -2.4329 -0.4446 0.048588 -2.428 -0.44673 0.048399 -2.4408 -0.47043 0.098094 -2.4374 -0.47218 0.097977 -2.4523 -0.49988 0.093392 -2.4505 -0.50092 0.09334 -2.4666 -0.53234 0.044213 -2.4666 -0.53234 0.044213 -2.4267 -0.41896 -0.037086 -2.4216 -0.42567 -0.036999 -2.3934 -0.40281 0.026253 -2.3984 -0.39751 0.026243 -2.3679 -0.38184 0.056491 -2.3718 -0.37836 0.056531 -2.3458 -0.36396 0.038324 -2.3481 -0.3623 0.03837 -2.3265 -0.34848 -0.016157 -2.3265 -0.34848 -0.016157 -2.4205 -0.42199 -0.03731 -2.4279 -0.42265 -0.036775 -2.4206 -0.448 0.040582 -2.4143 -0.44685 0.04009 -2.4153 -0.47539 0.083026 -2.4109 -0.47413 0.082648 -2.4133 -0.50585 0.073536 -2.411 -0.50496 0.073325 -2.414 -0.53866 0.023044 -2.414 -0.53866 0.023044 -2.425 -0.42489 -0.036827 -2.4234 -0.41975 -0.037258 -2.4402 -0.41025 0.03226 -2.4411 -0.41475 0.032604 -2.4588 -0.40272 0.075437 -2.459 -0.40601 0.075665 -2.4799 -0.39795 0.077912 -2.4798 -0.3997 0.078021 -2.5032 -0.39558 0.044386 -2.5032 -0.39558 0.044386 2.8802 0.33173 -0.026685 2.882 0.3293 -0.027866 2.8812 0.32806 -0.027849 2.8793 0.32738 -0.027297 2.8767 0.3274 -0.026452 2.8732 0.32847 -0.025364 2.8692 0.33092 -0.024408 2.8658 0.33457 -0.023924 2.8641 0.33821 -0.023875 2.8644 0.34141 -0.02397 2.8671 0.34315 -0.024076 2.8711 0.34334 -0.02428 2.8759 0.34196 -0.024856 2.8799 0.3395 -0.025812 2.8824 0.33676 -0.026832 2.8836 0.33442 -0.027583 2.8839 0.33239 -0.028025 2.8831 0.33112 -0.02794 2.879 0.33301 -0.012644 2.8794 0.33717 -0.014331 2.8818 0.33801 -0.014386 2.8849 0.33737 -0.013713 2.8882 0.33541 -0.012642 2.8914 0.3315 -0.011256 2.8936 0.32564 -0.010065 2.8937 0.3188 -0.0095079 2.8917 0.31327 -0.0094806 2.8877 0.30976 -0.0095564 2.8824 0.3098 -0.0095472 2.8773 0.31265 -0.0096259 2.8729 0.3179 -0.010214 2.8707 0.32377 -0.011404 2.8706 0.32884 -0.012768 2.8717 0.33244 -0.013808 2.8737 0.33498 -0.014444 2.876 0.33589 -0.014356 2.8777 0.33443 0.0013824 2.8737 0.33159 -0.002106 2.8708 0.33322 -0.0023551 2.8687 0.33672 -0.0011742 2.8676 0.34135 0.00098127 2.8683 0.34754 0.0042909 2.8717 0.3543 0.0081721 2.8779 0.35988 0.011684 2.8848 0.36236 0.013939 2.8915 0.36134 0.015066 2.8961 0.35619 0.014623 2.8979 0.34894 0.012897 2.8969 0.34053 0.0096989 2.8935 0.33377 0.0058169 2.889 0.32967 0.0022768 2.8847 0.32795 -0.00020104 2.8807 0.32781 -0.0017559 2.8778 0.32932 -0.0018539 2.8759 0.33617 0.015376 2.8803 0.33514 0.013855 2.8807 0.33289 0.01394 2.8792 0.3302 0.014758 2.8763 0.32764 0.015879 2.8713 0.32532 0.017044 2.8643 0.32418 0.017508 2.8568 0.32496 0.016853 2.8512 0.32748 0.015735 2.8484 0.3315 0.01496 2.8497 0.33631 0.015178 2.8541 0.34063 0.015866 2.861 0.3439 0.016266 2.8679 0.34503 0.015802 2.8735 0.34437 0.014825 2.8771 0.34277 0.013966 2.8793 0.34063 0.013453 2.8798 0.3384 0.01365 2.8739 0.33799 0.029361 2.8703 0.3416 0.026416 2.8714 0.34419 0.026232 2.8745 0.34623 0.027292 2.879 0.34728 0.029096 2.8855 0.34674 0.031584 2.8931 0.34367 0.033995 2.9001 0.33803 0.035573 2.9041 0.33173 0.036236 2.9044 0.32559 0.036566 2.8999 0.32145 0.03671 2.8926 0.3198 0.036415 2.8836 0.32071 0.035054 2.876 0.32379 0.032642 2.871 0.3278 0.029995 2.8685 0.33159 0.027967 2.8676 0.33518 0.026647 2.8687 0.33781 0.026591 2.8713 0.3402 0.043307 2.872 0.33693 0.041989 2.8706 0.33606 0.041962 2.8684 0.33628 0.042511 2.8658 0.3375 0.043387 2.8627 0.34021 0.044546 2.86 0.34449 0.045604 2.8584 0.34969 0.046204 2.8586 0.35408 0.046355 2.8605 0.35712 0.046354 2.8641 0.35758 0.04631 2.8681 0.3559 0.046123 2.8722 0.35231 0.045502 2.8749 0.34802 0.044444 2.8761 0.34413 0.0433 2.8761 0.34126 0.042446 2.8754 0.33913 0.041922 2.874 0.33822 0.041972 2.8687 0.34247 0.057246 2.8702 0.34433 0.055611 2.8714 0.34397 0.055643 2.8724 0.34266 0.056413 2.8731 0.34067 0.057639 2.8731 0.33769 0.059352 2.872 0.33398 0.061145 2.8697 0.33036 0.062514 2.8671 0.3281 0.063187 2.8643 0.32757 0.063353 2.8623 0.32942 0.062971 2.8612 0.33271 0.062132 2.8612 0.33693 0.060664 2.8623 0.34064 0.058871 2.864 0.34318 0.057231 2.8656 0.34454 0.056107 2.8672 0.34513 0.055454 2.8684 0.34482 0.055531 2.8655 0.3451 0.071148 2.8632 0.34501 0.070097 2.8627 0.34618 0.06998 2.8629 0.34786 0.070277 2.8638 0.34967 0.070847 2.8658 0.35161 0.071708 2.8688 0.3531 0.072666 2.8724 0.35355 0.073469 2.8754 0.3528 0.073965 2.8773 0.35094 0.074262 2.8775 0.3482 0.074295 2.8762 0.3454 0.074054 2.8737 0.34283 0.073402 2.8707 0.34134 0.072444 2.868 0.34096 0.071472 2.866 0.34131 0.070747 2.8646 0.34215 0.070269 2.864 0.34331 0.070219 -0.45608 0.089975 -0.010363 -0.45877 0.091172 -0.011549 -0.45872 0.092607 -0.011436 -0.45746 0.094082 -0.010748 -0.4553 0.095303 -0.0097544 -0.45183 0.096102 -0.0085021 -0.44734 0.095951 -0.0074071 -0.44276 0.094543 -0.0068586 -0.43961 0.092309 -0.0068462 -0.43833 0.08947 -0.0070815 -0.43976 0.086669 -0.0074202 -0.44302 0.084543 -0.0078765 -0.44767 0.083363 -0.0086884 -0.45216 0.083521 -0.0097827 -0.45558 0.084622 -0.010842 -0.45767 0.086059 -0.011565 -0.45885 0.087666 -0.011938 -0.45883 0.089094 -0.01176 -0.45498 0.088527 0.0034973 -0.45327 0.084934 0.0016492 -0.45486 0.083048 0.0014159 -0.45782 0.081987 0.001909 -0.4615 0.081964 0.00284 -0.46613 0.083548 0.0041548 -0.47082 0.087314 0.0054173 -0.47422 0.092969 0.0062213 -0.47516 0.098628 0.0065861 -0.4735 0.10357 0.0068935 -0.46901 0.10617 0.0072309 -0.46331 0.10634 0.0073645 -0.45709 0.10415 0.0068564 -0.45241 0.10038 0.0055932 -0.44985 0.096251 0.0040611 -0.44907 0.092719 0.0028263 -0.44947 0.089656 0.0019806 -0.45101 0.087713 0.0018867 -0.45362 0.087069 0.017351 -0.45147 0.091696 0.014272 -0.44831 0.091753 0.01414 -0.44483 0.089809 0.015305 -0.44178 0.086305 0.017319 -0.43951 0.080539 0.0203 -0.43928 0.072884 0.023653 -0.44193 0.064874 0.026515 -0.4466 0.059205 0.028214 -0.45277 0.056642 0.028946 -0.45907 0.05873 0.028423 -0.46403 0.064032 0.026886 -0.4671 0.071825 0.02412 -0.46732 0.07948 0.020767 -0.46539 0.085406 0.017715 -0.46257 0.089134 0.015603 -0.45922 0.091337 0.014323 -0.45606 0.091521 0.014349 -0.45168 0.085592 0.031191 -0.45587 0.08434 0.029455 -0.45724 0.086053 0.029603 -0.45734 0.088979 0.030602 -0.45616 0.092512 0.031986 -0.45307 0.096888 0.033536 -0.4478 0.10128 0.034469 -0.44107 0.10441 0.034261 -0.43514 0.10514 0.033409 -0.43077 0.10324 0.03267 -0.42963 0.098496 0.032615 -0.4313 0.092621 0.032852 -0.4355 0.086438 0.032696 -0.44078 0.082056 0.031764 -0.44572 0.079921 0.030482 -0.4495 0.079521 0.029472 -0.45242 0.080229 0.028907 -0.45384 0.081891 0.029162 -0.4496 0.08411 0.045027 -0.44472 0.083078 0.042211 -0.44442 0.080352 0.041861 -0.44613 0.076998 0.042632 -0.44947 0.073752 0.04409 -0.45523 0.070832 0.046161 -0.46319 0.069454 0.048181 -0.47184 0.070592 0.049516 -0.47823 0.07387 0.050164 -0.48141 0.07888 0.050707 -0.47958 0.084615 0.051291 -0.47424 0.089645 0.051515 -0.46621 0.093438 0.050698 -0.45825 0.094804 0.048677 -0.45203 0.094104 0.046225 -0.44806 0.092286 0.044236 -0.44561 0.089764 0.042848 -0.44522 0.087037 0.042627 -0.44683 0.082603 0.058847 -0.44891 0.085114 0.057632 -0.44814 0.086544 0.057726 -0.44617 0.087441 0.058398 -0.44344 0.087645 0.059376 -0.43964 0.086793 0.060602 -0.43532 0.084479 0.061651 -0.43155 0.080838 0.062139 -0.4296 0.077049 0.062109 -0.42975 0.073541 0.061872 -0.43252 0.071382 0.061589 -0.43673 0.070789 0.061218 -0.44184 0.07183 0.060491 -0.44616 0.07415 0.059443 -0.44897 0.076911 0.058392 -0.45033 0.079379 0.057659 -0.4507 0.081579 0.057271 -0.44999 0.083025 0.057441 -0.44395 0.081094 0.072663 -0.4443 0.078871 0.070885 -0.44549 0.078568 0.070855 -0.447 0.079108 0.071601 -0.44852 0.080389 0.072847 -0.44999 0.082797 0.074651 -0.4509 0.08634 0.076628 -0.4508 0.090405 0.078255 -0.44967 0.093582 0.07917 -0.44763 0.095379 0.079524 -0.44499 0.094876 0.079205 -0.44249 0.0927 0.078318 -0.44045 0.089228 0.076707 -0.43954 0.085685 0.07473 -0.43965 0.08284 0.072914 -0.44034 0.08095 0.071652 -0.44139 0.079701 0.070886 -0.44257 0.079348 0.070898 -0.44043 0.079561 0.086465 -0.43856 0.080815 0.085571 -0.43755 0.080099 0.085444 -0.43695 0.078553 0.085658 -0.43688 0.076529 0.086092 -0.43763 0.073871 0.086745 -0.43947 0.071052 0.087445 -0.44229 0.068835 0.087996 -0.44516 0.067954 0.088329 -0.44773 0.068515 0.08857 -0.4492 0.07072 0.088696 -0.44946 0.07374 0.088646 -0.44849 0.077227 0.088263 -0.44664 0.080043 0.087563 -0.44453 0.081768 0.086786 -0.4427 0.082489 0.086179 -0.44109 0.082523 0.085765 -0.44005 0.081834 0.085706</float_array><technique_common><accessor source="#weeds_-06+00_foliage-pos-a" count="388" stride="3"><param name="X" type="float"/><param name="Y" type="float"/><param name="Z" type="float"/></accessor></technique_common></source>
        <source id="weeds_-06+00_foliage-nrm"><float_array id="weeds_-06+00_foliage-nrm-a" count="2178">0.406 0.85 0.336 0.381 0.79 0.48 0.381 0.791 0.479 0.136 0.214 0.967 0.14 0.223 0.965 -0.237 -0.599 0.765 -0.235 -0.595 0.768 -0.316 -0.763 0.565 -0.7 0.595 0.395 -0.632 0.581 0.513 -0.629 0.58 0.518 -0.165 0.244 0.956 -0.098 0.186 0.978 0.519 -0.43 0.739 0.541 -0.459 0.705 0.639 -0.601 0.48 0.746 -0.532 0.401 0.676 -0.502 0.539 0.669 -0.5 0.55 0.249 -0.075 0.966 0.135 0.043 0.99 -0.41 0.592 0.694 -0.439 0.629 0.641 -0.518 0.725 0.453 0.407 -0.815 0.413 0.399 -0.743 0.538 0.399 -0.745 0.535 0.151 -0.132 0.98 0.172 -0.176 0.969 -0.286 0.662 0.693 -0.276 0.646 0.712 -0.389 0.797 0.462 -0.183 -0.912 0.368 -0.165 -0.882 0.441 -0.165 -0.883 0.44 -0.059 -0.519 0.853 -0.063 -0.533 0.844 0.134 0.499 0.856 0.13 0.472 0.872 0.178 0.865 0.469 -0.5 0.797 0.338 -0.478 0.755 0.449 -0.479 0.756 0.446 -0.121 0.324 0.938 -0.155 0.366 0.918 0.462 -0.457 0.76 0.442 -0.43 0.787 0.586 -0.639 0.499 0.365 0.891 0.27 0.378 0.848 0.373 0.378 0.846 0.376 0.232 0.446 0.865 0.202 0.381 0.902 -0.224 -0.436 0.872 -0.256 -0.488 0.835 -0.398 -0.708 0.583 -0.669 -0.556 0.493 -0.579 -0.527 0.623 -0.585 -0.529 0.615 -0.042 -0.005 0.999 -0.141 -0.113 0.984 0.481 0.621 0.619 0.456 0.58 0.675 0.544 0.737 0.402 -0.101 0.944 0.315 -0.122 0.892 0.436 -0.121 0.895 0.429 0.031 0.301 0.953 -0.007 0.433 0.901 0.29 -0.609 0.738 0.265 -0.539 0.8 0.348 -0.788 0.508 0.943 -0.216 0.254 0.93 -0.159 0.332 0.931 -0.162 0.328 0.571 -0.018 0.821 0.659 -0.037 0.751 -0.491 0.039 0.87 -0.32 0.047 0.946 -0.82 0.014 0.572 -0.264 0.121 -0.957 -0.331 0.194 -0.923 -0.334 0.193 -0.923 -0.316 0.19 -0.93 -0.267 0.159 -0.95 -0.218 0.07 -0.973 -0.201 -0.034 -0.979 -0.203 -0.075 -0.976 -0.186 -0.033 -0.982 -0.142 0.046 -0.989 -0.092 0.121 -0.988 -0.062 0.156 -0.986 -0.098 0.136 -0.986 -0.198 0.103 -0.975 -0.299 0.107 -0.948 -0.348 0.137 -0.927 -0.359 0.152 -0.921 -0.359 0.148 -0.922 0.103 -0.257 -0.961 0.115 -0.383 -0.917 0.117 -0.383 -0.916 0.101 -0.364 -0.926 0.08 -0.301 -0.95 0.086 -0.196 -0.977 0.124 -0.101 -0.987 0.148 -0.065 -0.987 0.119 -0.082 -0.989 0.049 -0.113 -0.992 -0.024 -0.136 -0.99 -0.056 -0.142 -0.988 -0.015 -0.153 -0.988 0.076 -0.2 -0.977 0.149 -0.275 -0.95 0.174 -0.337 -0.925 0.174 -0.362 -0.916 0.175 -0.36 -0.916 0.287 0.431 -0.855 0.35 0.487 -0.8 0.349 0.47 -0.811 0.329 0.432 -0.84 0.273 0.391 -0.879 0.204 0.371 -0.906 0.172 0.369 -0.914 0.193 0.361 -0.912 0.24 0.339 -0.909 0.285 0.311 -0.907 0.302 0.298 -0.906 0.287 0.326 -0.901 0.264 0.396 -0.879 0.264 0.467 -0.844 0.283 0.505 -0.815 0.296 0.517 -0.804 0.295 0.517 -0.804 -0.187 -0.094 -0.978 -0.34 -0.089 -0.936 -0.344 -0.095 -0.934 -0.319 -0.082 -0.944 -0.23 -0.07 -0.971 -0.083 -0.117 -0.99 0.037 -0.209 -0.977 0.073 -0.251 -0.965 0.052 -0.189 -0.981 0.025 -0.059 -0.998 0.008 0.075 -0.997 0.007 0.142 -0.99 -0.013 0.089 -0.996 -0.096 -0.038 -0.995 -0.22 -0.129 -0.967 -0.309 -0.144 -0.94 -0.336 -0.139 -0.931 -0.331 -0.144 -0.933 0.344 -0.185 -0.921 0.444 -0.254 -0.859 0.448 -0.251 -0.858 0.425 -0.251 -0.869 0.36 -0.225 -0.905 0.281 -0.131 -0.951 0.238 -0.012 -0.971 0.23 0.036 -0.972 0.218 -0.016 -0.976 0.182 -0.12 -0.976 0.134 -0.219 -0.966 0.105 -0.264 -0.959 0.145 -0.235 -0.961 0.261 -0.181 -0.948 0.384 -0.167 -0.908 0.45 -0.191 -0.872 0.467 -0.207 -0.86 0.466 -0.202 -0.862 -0.161 0.239 -0.958 -0.189 0.334 -0.923 -0.192 0.334 -0.923 -0.177 0.323 -0.93 -0.147 0.275 -0.95 -0.14 0.178 -0.974 -0.168 0.081 -0.982 -0.187 0.046 -0.981 -0.155 0.074 -0.985 -0.087 0.123 -0.989 -0.014 0.165 -0.986 0.025 0.181 -0.983 -0.015 0.179 -0.984 -0.115 0.194 -0.974 -0.2 0.241 -0.95 -0.231 0.289 -0.929 -0.234 0.307 -0.922 -0.235 0.304 -0.923 -0.099 -0.501 -0.86 -0.151 -0.579 -0.801 -0.148 -0.582 -0.799 -0.15 -0.566 -0.811 -0.134 -0.513 -0.848 -0.055 -0.444 -0.894 0.052 -0.4 -0.915 0.095 -0.39 -0.916 0.041 -0.386 -0.922 -0.059 -0.364 -0.93 -0.156 -0.332 -0.93 -0.204 -0.309 -0.929 -0.173 -0.339 -0.925 -0.106 -0.43 -0.896 -0.077 -0.528 -0.845 -0.093 -0.581 -0.808 -0.104 -0.594 -0.797 -0.1 -0.593 -0.799 0.333 0.09 -0.939 0.421 0.101 -0.902 0.421 0.101 -0.901 0.409 0.088 -0.908 0.367 0.067 -0.928 0.293 0.066 -0.954 0.222 0.091 -0.971 0.195 0.108 -0.975 0.208 0.088 -0.974 0.234 0.041 -0.971 0.254 -0.008 -0.967 0.261 -0.031 -0.965 0.265 0.001 -0.964 0.29 0.073 -0.954 0.337 0.132 -0.932 0.378 0.154 -0.913 0.395 0.156 -0.905 0.327 0.087 -0.941 0.422 0.054 -0.905 0.424 0.057 -0.904 0.407 0.051 -0.912 0.349 0.055 -0.935 0.261 0.11 -0.959 0.193 0.194 -0.962 0.173 0.23 -0.958 0.18 0.185 -0.966 0.184 0.095 -0.978 0.178 0.004 -0.984 0.17 -0.041 -0.985 0.191 -0.006 -0.982 0.261 0.072 -0.963 0.35 0.116 -0.929 0.408 0.113 -0.906 0.425 0.105 -0.899 0.423 0.108 -0.9 -0.191 0.237 -0.953 -0.268 0.337 -0.903 -0.27 0.337 -0.902 -0.246 0.328 -0.912 -0.194 0.286 -0.938 -0.144 0.193 -0.971 -0.127 0.092 -0.988 -0.129 0.049 -0.99 -0.113 0.077 -0.991 -0.068 0.14 -0.988 -0.015 0.195 -0.981 0.01 0.217 -0.976 -0.032 0.206 -0.978 -0.137 0.201 -0.97 -0.241 0.229 -0.943 -0.295 0.269 -0.917 -0.309 0.29 -0.906 -0.309 0.288 -0.907 0.003 -0.463 -0.886 -0.025 -0.546 -0.838 -0.032 -0.53 -0.848 -0.034 -0.485 -0.874 -0.004 -0.42 -0.908 0.047 -0.366 -0.929 0.073 -0.347 -0.935 0.051 -0.352 -0.935 -0.002 -0.356 -0.934 -0.056 -0.354 -0.934 -0.078 -0.351 -0.933 -0.05 -0.368 -0.928 0.006 -0.419 -0.908 0.041 -0.483 -0.875 0.044 -0.528 -0.848 0.038 -0.544 -0.838 0.15 0.239 -0.959 0.285 0.307 -0.908 0.285 0.314 -0.906 0.27 0.292 -0.918 0.199 0.238 -0.951 0.046 0.208 -0.977 -0.108 0.229 -0.968 -0.161 0.247 -0.956 -0.11 0.204 -0.973 -0.018 0.104 -0.994 0.067 -0.004 -0.998 0.103 -0.063 -0.993 0.093 -0.006 -0.996 0.099 0.146 -0.984 0.159 0.285 -0.945 0.229 0.34 -0.912 0.255 0.349 -0.902 0.248 0.351 -0.903 -0.365 0.052 -0.93 -0.49 0.059 -0.87 -0.492 0.054 -0.869 -0.472 0.066 -0.879 -0.4 0.078 -0.913 -0.282 0.038 -0.959 -0.181 -0.044 -0.983 -0.149 -0.082 -0.985 -0.166 -0.03 -0.986 -0.188 0.079 -0.979 -0.198 0.189 -0.962 -0.196 0.242 -0.95 -0.216 0.197 -0.956 -0.289 0.091 -0.953 -0.391 0.015 -0.92 -0.463 0.002 -0.886 -0.486 0.006 -0.874 -0.482 0.002 -0.876 0.299 -0.067 -0.952 0.37 -0.138 -0.919 0.373 -0.137 -0.918 0.355 -0.134 -0.925 0.305 -0.106 -0.947 0.249 -0.023 -0.968 0.224 0.077 -0.972 0.222 0.117 -0.968 0.209 0.077 -0.975 0.175 0 -0.985 0.132 -0.073 -0.989 0.107 -0.107 -0.988 0.141 -0.085 -0.986 0.236 -0.05 -0.971 0.333 -0.05 -0.941 0.384 -0.078 -0.92 0.396 -0.092 -0.914 0.395 -0.089 -0.914 -0.144 0.542 -0.828 -0.141 0.632 -0.762 -0.145 0.633 -0.76 -0.135 0.621 -0.772 -0.12 0.569 -0.813 -0.152 0.474 -0.867 -0.222 0.384 -0.896 -0.254 0.354 -0.9 -0.205 0.377 -0.903 -0.106 0.408 -0.907 -0.004 0.429 -0.904 0.051 0.432 -0.9 0.007 0.443 -0.897 -0.1 0.487 -0.868 -0.178 0.554 -0.813 -0.192 0.605 -0.772 -0.19 0.622 -0.76 -0.193 0.618 -0.762 -0.212 -0.183 -0.96 -0.285 -0.238 -0.929 -0.281 -0.22 -0.934 -0.254 -0.18 -0.95 -0.189 -0.141 -0.972 -0.114 -0.126 -0.985 -0.081 -0.127 -0.989 -0.103 -0.117 -0.988 -0.15 -0.089 -0.985 -0.193 -0.055 -0.98 -0.211 -0.039 -0.977 -0.198 -0.069 -0.978 -0.183 -0.145 -0.972 -0.194 -0.221 -0.956 -0.219 -0.262 -0.94 -0.234 -0.273 -0.933 -0.233 -0.273 -0.933 -0.406 -0.85 -0.336 -0.381 -0.79 -0.48 -0.381 -0.791 -0.479 -0.136 -0.214 -0.967 -0.14 -0.223 -0.965 0.237 0.599 -0.765 0.235 0.595 -0.768 0.316 0.763 -0.565 0.7 -0.595 -0.395 0.632 -0.581 -0.513 0.629 -0.58 -0.518 0.165 -0.244 -0.956 0.098 -0.186 -0.978 -0.519 0.43 -0.739 -0.541 0.459 -0.705 -0.639 0.601 -0.48 -0.746 0.532 -0.401 -0.676 0.502 -0.539 -0.669 0.5 -0.55 -0.249 0.075 -0.966 -0.135 -0.043 -0.99 0.41 -0.592 -0.694 0.439 -0.629 -0.641 0.518 -0.725 -0.453 -0.407 0.815 -0.413 -0.399 0.743 -0.538 -0.399 0.745 -0.535 -0.151 0.132 -0.98 -0.172 0.176 -0.969 0.286 -0.662 -0.693 0.276 -0.646 -0.712 0.389 -0.797 -0.462 0.183 0.912 -0.368 0.165 0.882 -0.441 0.165 0.883 -0.44 0.059 0.519 -0.853 0.063 0.533 -0.844 -0.134 -0.499 -0.856 -0.13 -0.472 -0.872 -0.178 -0.865 -0.469 0.5 -0.797 -0.338 0.478 -0.755 -0.449 0.479 -0.756 -0.446 0.121 -0.324 -0.938 0.155 -0.366 -0.918 -0.462 0.457 -0.76 -0.442 0.43 -0.787 -0.586 0.639 -0.499 -0.365 -0.891 -0.27 -0.378 -0.848 -0.373 -0.378 -0.846 -0.376 -0.232 -0.446 -0.865 -0.202 -0.381 -0.902 0.224 0.436 -0.872 0.256 0.488 -0.835 0.398 0.708 -0.583 0.669 0.556 -0.493 0.579 0.527 -0.623 0.585 0.529 -0.615 0.042 0.005 -0.999 0.141 0.113 -0.984 -0.481 -0.621 -0.619 -0.456 -0.58 -0.675 -0.544 -0.737 -0.402 0.101 -0.944 -0.315 0.122 -0.892 -0.436 0.121 -0.895 -0.429 -0.031 -0.301 -0.953 0.007 -0.433 -0.901 -0.29 0.609 -0.738 -0.265 0.539 -0.8 -0.348 0.788 -0.508 -0.943 0.216 -0.254 -0.93 0.159 -0.332 -0.931 0.162 -0.328 -0.571 0.018 -0.821 -0.659 0.037 -0.751 0.491 -0.039 -0.87 0.32 -0.047 -0.946 0.82 -0.014 -0.572 0.264 -0.121 0.957 0.331 -0.194 0.923 0.334 -0.193 0.923 0.316 -0.19 0.93 0.267 -0.159 0.95 0.218 -0.07 0.973 0.201 0.034 0.979 0.203 0.075 0.976 0.186 0.033 0.982 0.142 -0.046 0.989 0.092 -0.121 0.988 0.062 -0.156 0.986 0.098 -0.136 0.986 0.198 -0.103 0.975 0.299 -0.107 0.948 0.348 -0.137 0.927 0.359 -0.152 0.921 0.359 -0.148 0.922 -0.103 0.257 0.961 -0.115 0.383 0.917 -0.117 0.383 0.916 -0.101 0.364 0.926 -0.08 0.301 0.95 -0.086 0.196 0.977 -0.124 0.101 0.987 -0.148 0.065 0.987 -0.119 0.082 0.989 -0.049 0.113 0.992 0.024 0.136 0.99 0.056 0.142 0.988 0.015 0.153 0.988 -0.076 0.2 0.977 -0.149 0.275 0.95 -0.174 0.337 0.925 -0.174 0.362 0.916 -0.175 0.36 0.916 -0.287 -0.431 0.855 -0.35 -0.487 0.8 -0.349 -0.47 0.811 -0.329 -0.432 0.84 -0.273 -0.391 0.879 -0.204 -0.371 0.906 -0.172 -0.369 0.914 -0.193 -0.361 0.912 -0.24 -0.339 0.909 -0.285 -0.311 0.907 -0.302 -0.298 0.906 -0.287 -0.326 0.901 -0.264 -0.396 0.879 -0.264 -0.467 0.844 -0.283 -0.505 0.815 -0.296 -0.517 0.804 -0.295 -0.517 0.804 0.187 0.094 0.978 0.34 0.089 0.936 0.344 0.095 0.934 0.319 0.082 0.944 0.23 0.07 0.971 0.083 0.117 0.99 -0.037 0.209 0.977 -0.073 0.251 0.965 -0.052 0.189 0.981 -0.025 0.059 0.998 -0.008 -0.075 0.997 -0.007 -0.142 0.99 0.013 -0.089 0.996 0.096 0.038 0.995 0.22 0.129 0.967 0.309 0.144 0.94 0.336 0.139 0.931 0.331 0.144 0.933 -0.344 0.185 0.921 -0.444 0.254 0.859 -0.448 0.251 0.858 -0.425 0.251 0.869 -0.36 0.225 0.905 -0.281 0.131 0.951 -0.238 0.012 0.971 -0.23 -0.036 0.972 -0.218 0.016 0.976 -0.182 0.12 0.976 -0.134 0.219 0.966 -0.105 0.264 0.959 -0.145 0.235 0.961 -0.261 0.181 0.948 -0.384 0.167 0.908 -0.45 0.191 0.872 -0.467 0.207 0.86 -0.466 0.202 0.862 0.161 -0.239 0.958 0.189 -0.334 0.923 0.192 -0.334 0.923 0.177 -0.323 0.93 0.147 -0.275 0.95 0.14 -0.178 0.974 0.168 -0.081 0.982 0.187 -0.046 0.981 0.155 -0.074 0.985 0.087 -0.123 0.989 0.014 -0.165 0.986 -0.025 -0.181 0.983 0.015 -0.179 0.984 0.115 -0.194 0.974 0.2 -0.241 0.95 0.231 -0.289 0.929 0.234 -0.307 0.922 0.235 -0.304 0.923 0.099 0.501 0.86 0.151 0.579 0.801 0.148 0.582 0.799 0.15 0.566 0.811 0.134 0.513 0.848 0.055 0.444 0.894 -0.052 0.4 0.915 -0.095 0.39 0.916 -0.041 0.386 0.922 0.059 0.364 0.93 0.156 0.332 0.93 0.204 0.309 0.929 0.173 0.339 0.925 0.106 0.43 0.896 0.077 0.528 0.845 0.093 0.581 0.808 0.104 0.594 0.797 0.1 0.593 0.799 -0.333 -0.09 0.939 -0.421 -0.101 0.902 -0.421 -0.101 0.901 -0.409 -0.088 0.908 -0.367 -0.067 0.928 -0.293 -0.066 0.954 -0.222 -0.091 0.971 -0.195 -0.108 0.975 -0.208 -0.088 0.974 -0.234 -0.041 0.971 -0.254 0.008 0.967 -0.261 0.031 0.965 -0.265 -0.001 0.964 -0.29 -0.073 0.954 -0.337 -0.132 0.932 -0.378 -0.154 0.913 -0.395 -0.156 0.905 -0.327 -0.087 0.941 -0.422 -0.054 0.905 -0.424 -0.057 0.904 -0.407 -0.051 0.912 -0.349 -0.055 0.935 -0.261 -0.11 0.959 -0.193 -0.194 0.962 -0.173 -0.23 0.958 -0.18 -0.185 0.966 -0.184 -0.095 0.978 -0.178 -0.004 0.984 -0.17 0.041 0.985 -0.191 0.006 0.982 -0.261 -0.072 0.963 -0.35 -0.116 0.929 -0.408 -0.113 0.906 -0.425 -0.105 0.899 -0.423 -0.108 0.9 0.191 -0.237 0.953 0.268 -0.337 0.903 0.27 -0.337 0.902 0.246 -0.328 0.912 0.194 -0.286 0.938 0.144 -0.193 0.971 0.127 -0.092 0.988 0.129 -0.049 0.99 0.113 -0.077 0.991 0.068 -0.14 0.988 0.015 -0.195 0.981 -0.01 -0.217 0.976 0.032 -0.206 0.978 0.137 -0.201 0.97 0.241 -0.229 0.943 0.295 -0.269 0.917 0.309 -0.29 0.906 0.309 -0.288 0.907 -0.003 0.463 0.886 0.025 0.546 0.838 0.032 0.53 0.848 0.034 0.485 0.874 0.004 0.42 0.908 -0.047 0.366 0.929 -0.073 0.347 0.935 -0.051 0.352 0.935 0.002 0.356 0.934 0.056 0.354 0.934 0.078 0.351 0.933 0.05 0.368 0.928 -0.006 0.419 0.908 -0.041 0.483 0.875 -0.044 0.528 0.848 -0.038 0.544 0.838 -0.15 -0.239 0.959 -0.285 -0.307 0.908 -0.285 -0.314 0.906 -0.27 -0.292 0.918 -0.199 -0.238 0.951 -0.046 -0.208 0.977 0.108 -0.229 0.968 0.161 -0.247 0.956 0.11 -0.204 0.973 0.018 -0.104 0.994 -0.067 0.004 0.998 -0.103 0.063 0.993 -0.093 0.006 0.996 -0.099 -0.146 0.984 -0.159 -0.285 0.945 -0.229 -0.34 0.912 -0.255 -0.349 0.902 -0.248 -0.351 0.903 0.365 -0.052 0.93 0.49 -0.059 0.87 0.492 -0.054 0.869 0.472 -0.066 0.879 0.4 -0.078 0.913 0.282 -0.038 0.959 0.181 0.044 0.983 0.149 0.082 0.985 0.166 0.03 0.986 0.188 -0.079 0.979 0.198 -0.189 0.962 0.196 -0.242 0.95 0.216 -0.197 0.956 0.289 -0.091 0.953 0.391 -0.015 0.92 0.463 -0.002 0.886 0.486 -0.006 0.874 0.482 -0.002 0.876 -0.299 0.067 0.952 -0.37 0.138 0.919 -0.373 0.137 0.918 -0.355 0.134 0.925 -0.305 0.106 0.947 -0.249 0.023 0.968 -0.224 -0.077 0.972 -0.222 -0.117 0.968 -0.209 -0.077 0.975 -0.175 -0 0.985 -0.132 0.073 0.989 -0.107 0.107 0.988 -0.141 0.085 0.986 -0.236 0.05 0.971 -0.333 0.05 0.941 -0.384 0.078 0.92 -0.396 0.092 0.914 -0.395 0.089 0.914 0.144 -0.542 0.828 0.141 -0.632 0.762 0.145 -0.633 0.76 0.135 -0.621 0.772 0.12 -0.569 0.813 0.152 -0.474 0.867 0.222 -0.384 0.896 0.254 -0.354 0.9 0.205 -0.377 0.903 0.106 -0.408 0.907 0.004 -0.429 0.904 -0.051 -0.432 0.9 -0.007 -0.443 0.897 0.1 -0.487 0.868 0.178 -0.554 0.813 0.192 -0.605 0.772 0.19 -0.622 0.76 0.193 -0.618 0.762 0.212 0.183 0.96 0.285 0.238 0.929 0.281 0.22 0.934 0.254 0.18 0.95 0.189 0.141 0.972 0.114 0.126 0.985 0.081 0.127 0.989 0.103 0.117 0.988 0.15 0.089 0.985 0.193 0.055 0.98 0.211 0.039 0.977 0.198 0.069 0.978 0.183 0.145 0.972 0.194 0.221 0.956 0.219 0.262 0.94 0.234 0.273 0.933 0.233 0.273 0.933</float_array><technique_common><accessor source="#weeds_-06+00_foliage-nrm-a" count="726" stride="3"><param name="X" type="float"/><param name="Y" type="float"/><param name="Z" type="float"/></accessor></technique_common></source>
        <vertices id="weeds_-06+00_foliage-vtx"><input semantic="POSITION" source="#weeds_-06+00_foliage-pos"/></vertices>
        <triangles count="160" material="MAT_WEED_GRASS-mat"><input semantic="VERTEX" source="#weeds_-06+00_foliage-vtx" offset="0"/><input semantic="NORMAL" source="#weeds_-06+00_foliage-nrm" offset="1"/><p>0 0 1 0 2 1 0 0 2 1 3 2 3 2 2 1 4 3 3 2 4 3 5 4 5 4 4 3 6 5 5 4 6 5 7 6 7 6 6 5 8 7 7 6 8 7 9 7 10 8 11 8 12 9 10 8 12 9 13 10 13 10 12 9 14 11 13 10 14 11 15 12 15 12 14 11 16 13 15 12 16 13 17 14 17 14 16 13 18 15 17 14 18 15 19 15 20 16 21 16 22 17 20 16 22 17 23 18 23 18 22 17 24 19 23 18 24 19 25 20 25 20 24 19 26 21 25 20 26 21 27 22 27 22 26 21 28 23 27 22 28 23 29 23 30 24 31 24 32 25 30 24 32 25 33 26 33 26 32 25 34 27 33 26 34 27 35 28 35 28 34 27 36 29 35 28 36 29 37 30 37 30 36 29 38 31 37 30 38 31 39 31 40 32 41 32 42 33 40 32 42 33 43 34 43 34 42 33 44 35 43 34 44 35 45 36 45 36 44 35 46 37 45 36 46 37 47 38 47 38 46 37 48 39 47 38 48 39 49 39 50 40 51 40 52 41 50 40 52 41 53 42 53 42 52 41 54 43 53 42 54 43 55 44 55 44 54 43 56 45 55 44 56 45 57 46 57 46 56 45 58 47 57 46 58 47 59 47 60 48 61 48 62 49 60 48 62 49 63 50 63 50 62 49 64 51 63 50 64 51 65 52 65 52 64 51 66 53 65 52 66 53 67 54 67 54 66 53 68 55 67 54 68 55 69 55 70 56 71 56 72 57 70 56 72 57 73 58 73 58 72 57 74 59 73 58 74 59 75 60 75 60 74 59 76 61 75 60 76 61 77 62 77 62 76 61 78 63 77 62 78 63 79 63 80 64 81 64 82 65 80 64 82 65 83 66 83 66 82 65 84 67 83 66 84 67 85 68 85 68 84 67 86 69 85 68 86 69 87 70 87 70 86 69 88 71 87 70 88 71 89 71 90 72 91 72 92 73 90 72 92 73 93 74 93 74 92 73 94 75 93 74 94 75 95 76 95 76 94 75 96 77 95 76 96 77 97 78 97 78 96 77 98 79 97 78 98 79 99 79 0 363 2 364 1 363 0 363 3 365 2 364 3 365 4 366 2 364 3 365 5 367 4 366 5 367 6 368 4 366 5 367 7 369 6 368 7 369 8 370 6 368 7 369 9 370 8 370 10 371 12 372 11 371 10 371 13 373 12 372 13 373 14 374 12 372 13 373 15 375 14 374 15 375 16 376 14 374 15 375 17 377 16 376 17 377 18 378 16 376 17 377 19 378 18 378 20 379 22 380 21 379 20 379 23 381 22 380 23 381 24 382 22 380 23 381 25 383 24 382 25 383 26 384 24 382 25 383 27 385 26 384 27 385 28 386 26 384 27 385 29 386 28 386 30 387 32 388 31 387 30 387 33 389 32 388 33 389 34 390 32 388 33 389 35 391 34 390 35 391 36 392 34 390 35 391 37 393 36 392 37 393 38 394 36 392 37 393 39 394 38 394 40 395 42 396 41 395 40 395 43 397 42 396 43 397 44 398 42 396 43 397 45 399 44 398 45 399 46 400 44 398 45 399 47 401 46 400 47 401 48 402 46 400 47 401 49 402 48 402 50 403 52 404 51 403 50 403 53 405 52 404 53 405 54 406 52 404 53 405 55 407 54 406 55 407 56 408 54 406 55 407 57 409 56 408 57 409 58 410 56 408 57 409 59 410 58 410 60 411 62 412 61 411 60 411 63 413 62 412 63 413 64 414 62 412 63 413 65 415 64 414 65 415 66 416 64 414 65 415 67 417 66 416 67 417 68 418 66 416 67 417 69 418 68 418 70 419 72 420 71 419 70 419 73 421 72 420 73 421 74 422 72 420 73 421 75 423 74 422 75 423 76 424 74 422 75 423 77 425 76 424 77 425 78 426 76 424 77 425 79 426 78 426 80 427 82 428 81 427 80 427 83 429 82 428 83 429 84 430 82 428 83 429 85 431 84 430 85 431 86 432 84 430 85 431 87 433 86 432 87 433 88 434 86 432 87 433 89 434 88 434 90 435 92 436 91 435 90 435 93 437 92 436 93 437 94 438 92 436 93 437 95 439 94 438 95 439 96 440 94 438 95 439 97 441 96 440 97 441 98 442 96 440 97 441 99 442 98 442</p></triangles>
        <triangles count="512" material="MAT_WEED_BROAD-mat"><input semantic="VERTEX" source="#weeds_-06+00_foliage-vtx" offset="0"/><input semantic="NORMAL" source="#weeds_-06+00_foliage-nrm" offset="1"/><p>100 80 101 81 102 82 100 80 102 82 103 83 100 80 103 83 104 84 100 80 104 84 105 85 100 80 105 85 106 86 100 80 106 86 107 87 100 80 107 87 108 88 100 80 108 88 109 89 100 80 109 89 110 90 100 80 110 90 111 91 100 80 111 91 112 92 100 80 112 92 113 93 100 80 113 93 114 94 100 80 114 94 115 95 100 80 115 95 116 96 100 80 116 96 117 97 118 98 119 99 120 100 118 98 120 100 121 101 118 98 121 101 122 102 118 98 122 102 123 103 118 98 123 103 124 104 118 98 124 104 125 105 118 98 125 105 126 106 118 98 126 106 127 107 118 98 127 107 128 108 118 98 128 108 129 109 118 98 129 109 130 110 118 98 130 110 131 111 118 98 131 111 132 112 118 98 132 112 133 113 118 98 133 113 134 114 118 98 134 114 135 115 136 116 137 117 138 117 136 116 138 117 139 118 136 116 139 118 140 119 136 116 140 119 141 120 136 116 141 120 142 121 136 116 142 121 143 122 136 116 143 122 144 123 136 116 144 123 145 124 136 116 145 124 146 125 136 116 146 125 147 126 136 116 147 126 148 127 136 116 148 127 149 128 136 116 149 128 150 129 136 116 150 129 151 130 136 116 151 130 152 131 136 116 152 131 153 132 154 133 155 134 156 135 154 133 156 135 157 136 154 133 157 136 158 137 154 133 158 137 159 138 154 133 159 138 160 139 154 133 160 139 161 140 154 133 161 140 162 141 154 133 162 141 163 142 154 133 163 142 164 143 154 133 164 143 165 144 154 133 165 144 166 145 154 133 166 145 167 146 154 133 167 146 168 147 154 133 168 147 169 148 154 133 169 148 170 149 154 133 170 149 171 150 172 151 173 152 174 153 172 151 174 153 175 154 172 151 175 154 176 155 172 151 176 155 177 156 172 151 177 156 178 157 172 151 178 157 179 158 172 151 179 158 180 159 172 151 180 159 181 160 172 151 181 160 182 161 172 151 182 161 183 162 172 151 183 162 184 163 172 151 184 163 185 164 172 151 185 164 186 165 172 151 186 165 187 166 172 151 187 166 188 167 172 151 188 167 189 168 190 169 191 170 192 171 190 169 192 171 193 172 190 169 193 172 194 173 190 169 194 173 195 174 190 169 195 174 196 175 190 169 196 175 197 176 190 169 197 176 198 177 190 169 198 177 199 178 190 169 199 178 200 179 190 169 200 179 201 180 190 169 201 180 202 181 190 169 202 181 203 182 190 169 203 182 204 183 190 169 204 183 205 184 190 169 205 184 206 185 190 169 206 185 207 186 208 187 209 188 210 189 208 187 210 189 211 190 208 187 211 190 212 191 208 187 212 191 213 192 208 187 213 192 214 193 208 187 214 193 215 194 208 187 215 194 216 195 208 187 216 195 217 196 208 187 217 196 218 197 208 187 218 197 219 198 208 187 219 198 220 199 208 187 220 199 221 200 208 187 221 200 222 201 208 187 222 201 223 202 208 187 223 202 224 203 208 187 224 203 225 204 226 205 227 206 228 207 226 205 228 207 229 208 226 205 229 208 230 209 226 205 230 209 231 210 226 205 231 210 232 211 226 205 232 211 233 212 226 205 233 212 234 213 226 205 234 213 235 214 226 205 235 214 236 215 226 205 236 215 237 216 226 205 237 216 238 217 226 205 238 217 239 218 226 205 239 218 240 219 226 205 240 219 241 220 226 205 241 220 242 221 226 205 242 221 243 221 244 222 245 223 246 224 244 222 246 224 247 225 244 222 247 225 248 226 244 222 248 226 249 227 244 222 249 227 250 228 244 222 250 228 251 229 244 222 251 229 252 230 244 222 252 230 253 231 244 222 253 231 254 232 244 222 254 232 255 233 244 222 255 233 256 234 244 222 256 234 257 235 244 222 257 235 258 236 244 222 258 236 259 237 244 222 259 237 260 238 244 222 260 238 261 239 262 240 263 241 264 242 262 240 264 242 265 243 262 240 265 243 266 244 262 240 266 244 267 245 262 240 267 245 268 246 262 240 268 246 269 247 262 240 269 247 270 248 262 240 270 248 271 249 262 240 271 249 272 250 262 240 272 250 273 251 262 240 273 251 274 252 262 240 274 252 275 253 262 240 275 253 276 254 262 240 276 254 277 255 262 240 277 255 278 256 262 240 278 256 279 257 280 258 281 259 282 259 280 258 282 259 283 260 280 258 283 260 284 261 280 258 284 261 285 262 280 258 285 262 286 263 280 258 286 263 287 264 280 258 287 264 288 265 280 258 288 265 289 266 280 258 289 266 290 267 280 258 290 267 291 268 280 258 291 268 292 269 280 258 292 269 293 270 280 258 293 270 294 271 280 258 294 271 295 272 280 258 295 272 296 273 280 258 296 273 297 273 298 274 299 275 300 276 298 274 300 276 301 277 298 274 301 277 302 278 298 274 302 278 303 279 298 274 303 279 304 280 298 274 304 280 305 281 298 274 305 281 306 282 298 274 306 282 307 283 298 274 307 283 308 284 298 274 308 284 309 285 298 274 309 285 310 286 298 274 310 286 311 287 298 274 311 287 312 288 298 274 312 288 313 289 298 274 313 289 314 290 298 274 314 290 315 291 316 292 317 293 318 294 316 292 318 294 319 295 316 292 319 295 320 296 316 292 320 296 321 297 316 292 321 297 322 298 316 292 322 298 323 299 316 292 323 299 324 300 316 292 324 300 325 301 316 292 325 301 326 302 316 292 326 302 327 303 316 292 327 303 328 304 316 292 328 304 329 305 316 292 329 305 330 306 316 292 330 306 331 307 316 292 331 307 332 308 316 292 332 308 333 309 334 310 335 311 336 312 334 310 336 312 337 313 334 310 337 313 338 314 334 310 338 314 339 315 334 310 339 315 340 316 334 310 340 316 341 317 334 310 341 317 342 318 334 310 342 318 343 319 334 310 343 319 344 320 334 310 344 320 345 321 334 310 345 321 346 322 334 310 346 322 347 323 334 310 347 323 348 324 334 310 348 324 349 325 334 310 349 325 350 326 334 310 350 326 351 327 352 328 353 329 354 330 352 328 354 330 355 331 352 328 355 331 356 332 352 328 356 332 357 333 352 328 357 333 358 334 352 328 358 334 359 335 352 328 359 335 360 336 352 328 360 336 361 337 352 328 361 337 362 338 352 328 362 338 363 339 352 328 363 339 364 340 352 328 364 340 365 341 352 328 365 341 366 342 352 328 366 342 367 343 352 328 367 343 368 344 352 328 368 344 369 345 370 346 371 347 372 347 370 346 372 347 373 348 370 346 373 348 374 349 370 346 374 349 375 350 370 346 375 350 376 351 370 346 376 351 377 352 370 346 377 352 378 353 370 346 378 353 379 354 370 346 379 354 380 355 370 346 380 355 381 356 370 346 381 356 382 357 370 346 382 357 383 358 370 346 383 358 384 359 370 346 384 359 385 360 370 346 385 360 386 361 370 346 386 361 387 362 100 443 102 445 101 444 100 443 103 446 102 445 100 443 104 447 103 446 100 443 105 448 104 447 100 443 106 449 105 448 100 443 107 450 106 449 100 443 108 451 107 450 100 443 109 452 108 451 100 443 110 453 109 452 100 443 111 454 110 453 100 443 112 455 111 454 100 443 113 456 112 455 100 443 114 457 113 456 100 443 115 458 114 457 100 443 116 459 115 458 100 443 117 460 116 459 118 461 120 463 119 462 118 461 121 464 120 463 118 461 122 465 121 464 118 461 123 466 122 465 118 461 124 467 123 466 118 461 125 468 124 467 118 461 126 469 125 468 118 461 127 470 126 469 118 461 128 471 127 470 118 461 129 472 128 471 118 461 130 473 129 472 118 461 131 474 130 473 118 461 132 475 131 474 118 461 133 476 132 475 118 461 134 477 133 476 118 461 135 478 134 477 136 479 138 480 137 480 136 479 139 481 138 480 136 479 140 482 139 481 136 479 141 483 140 482 136 479 142 484 141 483 136 479 143 485 142 484 136 479 144 486 143 485 136 479 145 487 144 486 136 479 146 488 145 487 136 479 147 489 146 488 136 479 148 490 147 489 136 479 149 491 148 490 136 479 150 492 149 491 136 479 151 493 150 492 136 479 152 494 151 493 136 479 153 495 152 494 154 496 156 498 155 497 154 496 157 499 156 498 154 496 158 500 157 499 154 496 159 501 158 500 154 496 160 502 159 501 154 496 161 503 160 502 154 496 162 504 161 503 154 496 163 505 162 504 154 496 164 506 163 505 154 496 165 507 164 506 154 496 166 508 165 507 154 496 167 509 166 508 154 496 168 510 167 509 154 496 169 511 168 510 154 496 170 512 169 511 154 496 171 513 170 512 172 514 174 516 173 515 172 514 175 517 174 516 172 514 176 518 175 517 172 514 177 519 176 518 172 514 178 520 177 519 172 514 179 521 178 520 172 514 180 522 179 521 172 514 181 523 180 522 172 514 182 524 181 523 172 514 183 525 182 524 172 514 184 526 183 525 172 514 185 527 184 526 172 514 186 528 185 527 172 514 187 529 186 528 172 514 188 530 187 529 172 514 189 531 188 530 190 532 192 534 191 533 190 532 193 535 192 534 190 532 194 536 193 535 190 532 195 537 194 536 190 532 196 538 195 537 190 532 197 539 196 538 190 532 198 540 197 539 190 532 199 541 198 540 190 532 200 542 199 541 190 532 201 543 200 542 190 532 202 544 201 543 190 532 203 545 202 544 190 532 204 546 203 545 190 532 205 547 204 546 190 532 206 548 205 547 190 532 207 549 206 548 208 550 210 552 209 551 208 550 211 553 210 552 208 550 212 554 211 553 208 550 213 555 212 554 208 550 214 556 213 555 208 550 215 557 214 556 208 550 216 558 215 557 208 550 217 559 216 558 208 550 218 560 217 559 208 550 219 561 218 560 208 550 220 562 219 561 208 550 221 563 220 562 208 550 222 564 221 563 208 550 223 565 222 564 208 550 224 566 223 565 208 550 225 567 224 566 226 568 228 570 227 569 226 568 229 571 228 570 226 568 230 572 229 571 226 568 231 573 230 572 226 568 232 574 231 573 226 568 233 575 232 574 226 568 234 576 233 575 226 568 235 577 234 576 226 568 236 578 235 577 226 568 237 579 236 578 226 568 238 580 237 579 226 568 239 581 238 580 226 568 240 582 239 581 226 568 241 583 240 582 226 568 242 584 241 583 226 568 243 584 242 584 244 585 246 587 245 586 244 585 247 588 246 587 244 585 248 589 247 588 244 585 249 590 248 589 244 585 250 591 249 590 244 585 251 592 250 591 244 585 252 593 251 592 244 585 253 594 252 593 244 585 254 595 253 594 244 585 255 596 254 595 244 585 256 597 255 596 244 585 257 598 256 597 244 585 258 599 257 598 244 585 259 600 258 599 244 585 260 601 259 600 244 585 261 602 260 601 262 603 264 605 263 604 262 603 265 606 264 605 262 603 266 607 265 606 262 603 267 608 266 607 262 603 268 609 267 608 262 603 269 610 268 609 262 603 270 611 269 610 262 603 271 612 270 611 262 603 272 613 271 612 262 603 273 614 272 613 262 603 274 615 273 614 262 603 275 616 274 615 262 603 276 617 275 616 262 603 277 618 276 617 262 603 278 619 277 618 262 603 279 620 278 619 280 621 282 622 281 622 280 621 283 623 282 622 280 621 284 624 283 623 280 621 285 625 284 624 280 621 286 626 285 625 280 621 287 627 286 626 280 621 288 628 287 627 280 621 289 629 288 628 280 621 290 630 289 629 280 621 291 631 290 630 280 621 292 632 291 631 280 621 293 633 292 632 280 621 294 634 293 633 280 621 295 635 294 634 280 621 296 636 295 635 280 621 297 636 296 636 298 637 300 639 299 638 298 637 301 640 300 639 298 637 302 641 301 640 298 637 303 642 302 641 298 637 304 643 303 642 298 637 305 644 304 643 298 637 306 645 305 644 298 637 307 646 306 645 298 637 308 647 307 646 298 637 309 648 308 647 298 637 310 649 309 648 298 637 311 650 310 649 298 637 312 651 311 650 298 637 313 652 312 651 298 637 314 653 313 652 298 637 315 654 314 653 316 655 318 657 317 656 316 655 319 658 318 657 316 655 320 659 319 658 316 655 321 660 320 659 316 655 322 661 321 660 316 655 323 662 322 661 316 655 324 663 323 662 316 655 325 664 324 663 316 655 326 665 325 664 316 655 327 666 326 665 316 655 328 667 327 666 316 655 329 668 328 667 316 655 330 669 329 668 316 655 331 670 330 669 316 655 332 671 331 670 316 655 333 672 332 671 334 673 336 675 335 674 334 673 337 676 336 675 334 673 338 677 337 676 334 673 339 678 338 677 334 673 340 679 339 678 334 673 341 680 340 679 334 673 342 681 341 680 334 673 343 682 342 681 334 673 344 683 343 682 334 673 345 684 344 683 334 673 346 685 345 684 334 673 347 686 346 685 334 673 348 687 347 686 334 673 349 688 348 687 334 673 350 689 349 688 334 673 351 690 350 689 352 691 354 693 353 692 352 691 355 694 354 693 352 691 356 695 355 694 352 691 357 696 356 695 352 691 358 697 357 696 352 691 359 698 358 697 352 691 360 699 359 698 352 691 361 700 360 699 352 691 362 701 361 700 352 691 363 702 362 701 352 691 364 703 363 702 352 691 365 704 364 703 352 691 366 705 365 704 352 691 367 706 366 705 352 691 368 707 367 706 352 691 369 708 368 707 370 709 372 710 371 710 370 709 373 711 372 710 370 709 374 712 373 711 370 709 375 713 374 712 370 709 376 714 375 713 370 709 377 715 376 714 370 709 378 716 377 715 370 709 379 717 378 716 370 709 380 718 379 717 370 709 381 719 380 718 370 709 382 720 381 719 370 709 383 721 382 720 370 709 384 722 383 721 370 709 385 723 384 722 370 709 386 724 385 723 370 709 387 725 386 724</p></triangles>
      </mesh>
    </geometry>
  </library_geometries>
  <library_visual_scenes><visual_scene id="scene" name="scene">
    <node id="weeds_-06+00_foliage" name="weeds_-06+00_foliage" type="NODE"><instance_geometry url="#weeds_-06+00_foliage-mesh"><bind_material><technique_common>
      <instance_material symbol="MAT_WEED_GRASS-mat" target="#MAT_WEED_GRASS"/>
      <instance_material symbol="MAT_WEED_BROAD-mat" target="#MAT_WEED_BROAD"/>
    </technique_common></bind_material></instance_geometry></node>
  </visual_scene></library_visual_scenes>
  <scene><instance_visual_scene url="#scene"/></scene>
<!-- vigil:double-sided -->
</COLLADA>
