<?xml version="1.0" encoding="utf-8"?>
<COLLADA xmlns="http://www.collada.org/2005/11/COLLADASchema" version="1.4.1">
  <asset>
    <contributor><authoring_tool>VIGIL SIH26126 farm generator</authoring_tool></contributor>
    <unit name="meter" meter="1"/>
    <up_axis>Z_UP</up_axis>
  </asset>
  <library_effects>
    <effect id="MAT_WEED_STEM-fx"><profile_COMMON><technique sid="c"><lambert><diffuse><color>0.0860 0.1040 0.0360 1</color></diffuse></lambert></technique></profile_COMMON></effect>
  </library_effects>
  <library_materials>
    <material id="MAT_WEED_STEM" name="MAT_WEED_STEM"><instance_effect url="#MAT_WEED_STEM-fx"/></material>
  </library_materials>
  <library_geometries>
    <geometry id="weeds_-05+00_solid-mesh" name="weeds_-05+00_solid">
      <mesh>
        <source id="weeds_-05+00_solid-pos"><float_array id="weeds_-05+00_solid-pos-a" count="546">0.67864 0.29302 -0.052736 0.67744 0.28324 -0.051477 0.67764 0.29317 0.019238 0.67869 0.30179 0.018269 0.68731 0.28214 -0.051258 0.68631 0.2922 0.019461 0.6885 0.29191 -0.052518 0.68737 0.30082 0.018492 0.67721 0.30136 0.090156 0.67812 0.30882 0.089559 0.68471 0.30052 0.090402 0.68562 0.30799 0.089804 0.67617 0.3078 0.16137 0.67694 0.3141 0.16107 0.68248 0.30709 0.16162 0.68325 0.3134 0.16132 0.67451 0.3125 0.23289 0.67514 0.31763 0.23281 0.67963 0.31192 0.23313 0.68026 0.31705 0.23305 0.67223 0.31546 0.30474 0.67271 0.31941 0.30474 0.67617 0.31501 0.30494 0.67665 0.31896 0.30494 0.68297 0.28758 -0.051997 0.67445 0.31721 0.30484 0.12618 0.26438 -0.052028 0.12387 0.26761 -0.047678 0.11086 0.21747 -0.013359 0.11255 0.21522 -0.017726 0.12068 0.26554 -0.052459 0.10788 0.21657 -0.01765 0.092922 0.16888 -0.0061055 0.095131 0.16783 -0.0023535 0.096806 0.1676 -0.0064968 0.074856 0.12217 -0.025738 0.076233 0.12056 -0.022763 0.078018 0.12106 -0.025887 0.12554 0.26477 -0.048055 0.12383 0.26904 -0.051845 0.087948 0.28198 -0.012133 0.088978 0.27855 -0.0083178 0.12136 0.26372 -0.052264 0.085915 0.27733 -0.012449 0.050072 0.29585 0.0042374 0.049431 0.2938 0.00822 0.048481 0.29186 0.0042552 0.0088234 0.31136 -0.010081 0.0074959 0.31013 -0.0068846 0.0074768 0.30811 -0.0099202 0.1263 0.26432 -0.051581 0.12244 0.26828 -0.052856 0.15489 0.30903 -0.018399 0.1585 0.30586 -0.017452 0.12199 0.26493 -0.047727 0.15519 0.30657 -0.01365 0.18498 0.35075 -0.0039729 0.18614 0.34956 -0.0081267 0.18834 0.34842 -0.0043911 0.21255 0.39466 -0.024418 0.21314 0.39299 -0.027595 0.21532 0.39278 -0.024677 0.12624 0.26435 -0.051835 0.12248 0.26851 -0.052525 0.15289 0.30086 -0.01827 0.15642 0.29751 -0.017961 0.12202 0.26467 -0.047804 0.15332 0.2979 -0.013876 0.18111 0.33409 -0.0043961 0.18216 0.33273 -0.0085269 0.18428 0.33151 -0.0047764 0.20667 0.3696 -0.025103 0.20713 0.36769 -0.028154 0.20933 0.36755 -0.025246 -1.028 -0.105 -0.056484 -1.0299 -0.10246 -0.05133 -0.98163 -0.12159 -0.017342 -0.98087 -0.12381 -0.02208 -1.0314 -0.10761 -0.052539 -0.98332 -0.12598 -0.018139 -0.93476 -0.14146 -0.0081384 -0.93616 -0.14341 -0.01189 -0.93646 -0.14509 -0.0077406 -0.89087 -0.1623 -0.031312 -0.89277 -0.16395 -0.033845 -0.89203 -0.16529 -0.030508 -1.028 -0.105 -0.056454 -1.0304 -0.10233 -0.051728 -0.98434 -0.10788 -0.017878 -0.98296 -0.11023 -0.022337 -1.0309 -0.10774 -0.05217 -0.98491 -0.11256 -0.018163 -0.93955 -0.11416 -0.0086045 -0.94043 -0.11627 -0.012433 -0.94017 -0.1181 -0.0083627 -0.89763 -0.12146 -0.031936 -0.89918 -0.12323 -0.03465 -0.89803 -0.12468 -0.031525 -1.0267 -0.10481 -0.052132 -1.0321 -0.1031 -0.052213 -1.043 -0.13475 -0.013812 -1.0383 -0.13596 -0.013127 -1.0305 -0.10717 -0.056007 -1.0409 -0.13773 -0.017324 -1.0551 -0.16729 -0.0020534 -1.0537 -0.16797 0.0022366 -1.0513 -0.16879 -0.0013554 -1.0686 -0.2 -0.020468 -1.0697 -0.20094 -0.017078 -1.0666 -0.20175 -0.018224 -1.0276 -0.10497 -0.056124 -1.0308 -0.10234 -0.051929 -0.99576 -0.10512 -0.017294 -0.99377 -0.10745 -0.021465 -1.0309 -0.10777 -0.052299 -0.99609 -0.10982 -0.017572 -0.96187 -0.10862 -0.0072455 -0.96276 -0.11074 -0.011057 -0.96234 -0.11258 -0.0070048 -0.93102 -0.11316 -0.029947 -0.93278 -0.11495 -0.032476 -0.93126 -0.1164 -0.029548 -1.0273 -0.10481 -0.051045 -1.0301 -0.10281 -0.055977 -1.062 -0.075242 -0.017389 -1.0604 -0.076914 -0.012599 -1.0319 -0.10744 -0.053331 -1.0641 -0.079093 -0.015316 -1.0949 -0.048359 -0.002392 -1.0963 -0.049826 0.0015735 -1.0975 -0.051495 -0.0024355 -1.1312 -0.022362 -0.020161 -1.1333 -0.023702 -0.017657 -1.133 -0.025059 -0.021075 3.5898 0.4378 -0.066961 3.5932 0.43775 -0.061875 3.5482 0.43297 -0.026923 3.5459 0.43365 -0.03175 3.5909 0.44275 -0.064127 3.5467 0.43758 -0.028592 3.5025 0.42837 -0.015698 3.5024 0.43083 -0.01946 3.5019 0.43256 -0.015278 3.4573 0.4252 -0.034895 3.4577 0.4279 -0.037179 3.4565 0.42841 -0.0337 3.5895 0.43727 -0.062538 3.5944 0.44002 -0.063167 3.5721 0.48237 -0.027585 3.5681 0.47983 -0.026254 3.59 0.44102 -0.067258 3.5682 0.48227 -0.031014 3.549 0.52483 -0.016903 3.5476 0.52436 -0.012581 3.5453 0.52311 -0.01613 3.5256 0.56719 -0.034782 3.5256 0.56842 -0.031258 3.5229 0.56671 -0.0325 3.5898 0.43781 -0.066979 3.5944 0.43851 -0.063333 3.5774 0.4091 -0.029011 3.5738 0.40894 -0.032748 3.5897 0.44199 -0.062653 3.5732 0.41199 -0.028468 3.5597 0.37986 -0.017478 3.5581 0.38138 -0.021435 3.556 0.38217 -0.017446 3.5419 0.35165 -0.037171 3.5412 0.35372 -0.040146 3.5389 0.35363 -0.037341 3.59 0.43811 -0.06732 3.5942 0.43812 -0.062866 3.5641 0.40434 -0.028607 3.5609 0.40483 -0.03286 3.5897 0.44208 -0.062778 3.5602 0.40779 -0.02852 3.5334 0.37086 -0.017361 3.5319 0.37262 -0.021281 3.5302 0.37379 -0.017237 3.5026 0.33845 -0.037026 3.5019 0.3405 -0.040009 3.5 0.34084 -0.036901</float_array><technique_common><accessor source="#weeds_-05+00_solid-pos-a" count="182" stride="3"><param name="X" type="float"/><param name="Y" type="float"/><param name="Z" type="float"/></accessor></technique_common></source>
        <source id="weeds_-05+00_solid-nrm"><float_array id="weeds_-05+00_solid-nrm-a" count="546">-0.525 0.724 0.447 -0.662 -0.445 0.603 -0.787 -0.612 0.077 -0.615 0.783 -0.089 0.516 -0.583 0.627 0.624 -0.774 0.112 0.655 0.587 0.476 0.783 0.62 -0.054 -0.787 -0.614 0.055 -0.615 0.785 -0.075 0.623 -0.776 0.098 0.783 0.622 -0.032 -0.788 -0.615 0.033 -0.615 0.786 -0.061 0.623 -0.778 0.084 0.783 0.622 -0.01 -0.788 -0.616 0.011 -0.615 0.787 -0.047 0.623 -0.779 0.071 0.783 0.622 0.012 -0.648 -0.535 -0.542 -0.497 0.66 -0.564 0.557 -0.676 -0.483 0.686 0.517 -0.511 -0.008 0.129 0.992 0.049 -0.006 -0.999 0.793 -0.481 -0.374 0.1 0.544 0.833 -0.307 0.493 0.814 0.929 -0.371 -0.004 -0.918 -0.04 -0.394 -0.733 -0.058 -0.678 -0.863 0.451 0.227 0.538 -0.383 0.751 0.51 -0.246 -0.824 -0.811 0.464 -0.357 -0.059 -0.377 0.924 0.857 -0.138 -0.497 0.632 -0.338 0.698 0.033 0.959 -0.282 0.148 0.95 -0.274 0.496 -0.255 0.83 -0.675 -0.629 -0.386 -0.566 -0.738 -0.367 0.328 0.887 -0.325 0.018 -0.016 1 -0.363 -0.868 -0.337 0.45 0.757 -0.474 -0.288 0.142 0.947 -0.196 -0.878 -0.438 0.854 -0.456 -0.25 -0.396 0.756 -0.521 -0.651 0.709 -0.272 0.796 -0.418 -0.439 -0.506 -0.268 0.82 -0.13 -0.371 0.919 -0.699 0.619 0.357 0.195 -0.26 -0.945 0.562 -0.354 0.748 -0.605 0.615 0.506 -0.271 -0.247 -0.93 0.864 -0.372 0.338 0.84 -0.44 -0.317 -0.394 0.817 -0.422 -0.629 0.757 -0.176 0.768 -0.412 -0.491 -0.485 -0.359 0.798 -0.125 -0.45 0.884 -0.636 0.664 0.393 0.154 -0.273 -0.95 0.548 -0.386 0.742 -0.556 0.679 0.479 -0.307 -0.288 -0.907 0.851 -0.398 0.342 0.583 -0.023 -0.812 -0.015 0.862 0.507 0.087 0.828 0.554 0.412 -0.008 -0.911 -0.501 -0.825 0.26 -0.479 -0.775 0.412 0.394 0.772 0.499 -0.125 -0.013 -0.992 -0.233 -0.775 0.588 0.527 0.804 0.276 -0.442 0.021 -0.897 -0.113 -0.842 0.527 0.603 -0.002 -0.797 -0.197 0.889 0.414 -0.119 0.858 0.499 0.424 -0.002 -0.906 -0.339 -0.879 0.335 -0.302 -0.833 0.464 0.197 0.832 0.518 -0.132 -0.025 -0.991 -0.018 -0.812 0.583 0.332 0.887 0.321 -0.475 -0.016 -0.88 0.115 -0.88 0.46 0.93 0.098 0.355 -0.745 0.602 0.285 -0.819 0.531 0.218 0.729 0.188 0.659 -0.171 -0.75 -0.639 0.171 -0.68 -0.713 -0.809 0.507 -0.298 0.022 -0.07 0.997 0.813 -0.51 -0.281 -0.44 0.571 -0.693 -0.561 -0.203 0.803 0.922 -0.377 -0.092 0.715 0.01 -0.699 -0.294 0.882 0.368 -0.217 0.849 0.481 0.528 0.008 -0.849 -0.352 -0.886 0.302 -0.327 -0.831 0.45 0.18 0.819 0.545 -0.143 -0.029 -0.989 0.033 -0.795 0.606 0.344 0.893 0.292 -0.58 -0.02 -0.814 0.2 -0.882 0.427 0.766 0.023 0.642 -0.076 0.78 -0.621 0.164 0.789 -0.592 0.578 -0.015 0.816 -0.651 -0.759 0.015 -0.634 -0.773 -0.017 0.527 0.767 -0.366 0.004 0.092 0.996 -0.54 -0.8 -0.262 0.652 0.681 -0.335 -0.389 0.124 0.913 -0.326 -0.797 -0.508 -0.514 -0.497 -0.7 0.549 -0.547 0.632 0.41 -0.625 0.664 -0.386 -0.396 -0.833 -0.042 0.995 0.093 0.019 0.956 0.292 0.069 -0.831 0.551 0.042 0.05 -0.998 -0.154 0.786 0.598 -0.039 -0.967 0.254 0.337 0.276 -0.9 -0.31 0.737 0.6 -0.533 -0.688 0.492 0.927 0.28 0.249 0.922 0.36 0.144 -0.347 -0.56 0.753 -0.437 0.451 -0.778 -0.615 0.153 -0.774 0.864 0.334 -0.377 -0.014 0.051 0.999 -0.886 -0.354 -0.298 0.671 0.059 -0.739 0.258 0.485 0.836 -0.872 -0.482 -0.089 -0.481 -0.545 -0.687 0.936 -0.231 0.267 0.88 -0.224 0.418 -0.376 -0.401 -0.835 -0.476 0.762 0.439 -0.489 0.675 0.552 0.647 -0.486 0.587 0.028 0.082 -0.996 -0.701 0.345 0.624 0.601 -0.676 0.426 0.285 0.409 -0.867 -0.882 0.255 0.397 -0.419 -0.449 -0.789 0.848 -0.369 0.382 0.782 -0.389 0.487 -0.309 -0.32 -0.895 -0.447 0.794 0.411 -0.451 0.726 0.519 0.573 -0.598 0.56 0.026 0.069 -0.997 -0.627 0.493 0.603 0.524 -0.746 0.411 0.241 0.31 -0.92 -0.773 0.431 0.466</float_array><technique_common><accessor source="#weeds_-05+00_solid-nrm-a" count="182" stride="3"><param name="X" type="float"/><param name="Y" type="float"/><param name="Z" type="float"/></accessor></technique_common></source>
        <vertices id="weeds_-05+00_solid-vtx"><input semantic="POSITION" source="#weeds_-05+00_solid-pos"/></vertices>
        <triangles count="282" material="MAT_WEED_STEM-mat"><input semantic="VERTEX" source="#weeds_-05+00_solid-vtx" offset="0"/><input semantic="NORMAL" source="#weeds_-05+00_solid-nrm" offset="1"/><p>0 0 1 1 2 2 0 0 2 2 3 3 1 1 4 4 5 5 1 1 5 5 2 2 4 4 6 6 7 7 4 4 7 7 5 5 6 6 0 0 3 3 6 6 3 3 7 7 3 3 2 2 8 8 3 3 8 8 9 9 2 2 5 5 10 10 2 2 10 10 8 8 5 5 7 7 11 11 5 5 11 11 10 10 7 7 3 3 9 9 7 7 9 9 11 11 9 9 8 8 12 12 9 9 12 12 13 13 8 8 10 10 14 14 8 8 14 14 12 12 10 10 11 11 15 15 10 10 15 15 14 14 11 11 9 9 13 13 11 11 13 13 15 15 13 13 12 12 16 16 13 13 16 16 17 17 12 12 14 14 18 18 12 12 18 18 16 16 14 14 15 15 19 19 14 14 19 19 18 18 15 15 13 13 17 17 15 15 17 17 19 19 17 17 16 16 20 20 17 17 20 20 21 21 16 16 18 18 22 22 16 16 22 22 20 20 18 18 19 19 23 23 18 18 23 23 22 22 19 19 17 17 21 21 19 19 21 21 23 23 0 0 1 1 24 24 1 1 4 4 24 24 4 4 6 6 24 24 6 6 0 0 24 24 20 20 21 21 25 25 22 22 20 20 25 25 23 23 22 22 25 25 21 21 23 23 25 25 26 26 27 27 28 28 26 26 28 28 29 29 27 27 30 30 31 31 27 27 31 31 28 28 30 30 26 26 29 29 30 30 29 29 31 31 29 29 28 28 32 32 29 29 32 32 33 33 28 28 31 31 34 34 28 28 34 34 32 32 31 31 29 29 33 33 31 31 33 33 34 34 33 33 32 32 35 35 33 33 35 35 36 36 32 32 34 34 37 37 32 32 37 37 35 35 34 34 33 33 36 36 34 34 36 36 37 37 38 38 39 39 40 40 38 38 40 40 41 41 39 39 42 42 43 43 39 39 43 43 40 40 42 42 38 38 41 41 42 42 41 41 43 43 41 41 40 40 44 44 41 41 44 44 45 45 40 40 43 43 46 46 40 40 46 46 44 44 43 43 41 41 45 45 43 43 45 45 46 46 45 45 44 44 47 47 45 45 47 47 48 48 44 44 46 46 49 49 44 44 49 49 47 47 46 46 45 45 48 48 46 46 48 48 49 49 50 50 51 51 52 52 50 50 52 52 53 53 51 51 54 54 55 55 51 51 55 55 52 52 54 54 50 50 53 53 54 54 53 53 55 55 53 53 52 52 56 56 53 53 56 56 57 57 52 52 55 55 58 58 52 52 58 58 56 56 55 55 53 53 57 57 55 55 57 57 58 58 57 57 56 56 59 59 57 57 59 59 60 60 56 56 58 58 61 61 56 56 61 61 59 59 58 58 57 57 60 60 58 58 60 60 61 61 62 62 63 63 64 64 62 62 64 64 65 65 63 63 66 66 67 67 63 63 67 67 64 64 66 66 62 62 65 65 66 66 65 65 67 67 65 65 64 64 68 68 65 65 68 68 69 69 64 64 67 67 70 70 64 64 70 70 68 68 67 67 65 65 69 69 67 67 69 69 70 70 69 69 68 68 71 71 69 69 71 71 72 72 68 68 70 70 73 73 68 68 73 73 71 71 70 70 69 69 72 72 70 70 72 72 73 73 74 74 75 75 76 76 74 74 76 76 77 77 75 75 78 78 79 79 75 75 79 79 76 76 78 78 74 74 77 77 78 78 77 77 79 79 77 77 76 76 80 80 77 77 80 80 81 81 76 76 79 79 82 82 76 76 82 82 80 80 79 79 77 77 81 81 79 79 81 81 82 82 81 81 80 80 83 83 81 81 83 83 84 84 80 80 82 82 85 85 80 80 85 85 83 83 82 82 81 81 84 84 82 82 84 84 85 85 86 86 87 87 88 88 86 86 88 88 89 89 87 87 90 90 91 91 87 87 91 91 88 88 90 90 86 86 89 89 90 90 89 89 91 91 89 89 88 88 92 92 89 89 92 92 93 93 88 88 91 91 94 94 88 88 94 94 92 92 91 91 89 89 93 93 91 91 93 93 94 94 93 93 92 92 95 95 93 93 95 95 96 96 92 92 94 94 97 97 92 92 97 97 95 95 94 94 93 93 96 96 94 94 96 96 97 97 98 98 99 99 100 100 98 98 100 100 101 101 99 99 102 102 103 103 99 99 103 103 100 100 102 102 98 98 101 101 102 102 101 101 103 103 101 101 100 100 104 104 101 101 104 104 105 105 100 100 103 103 106 106 100 100 106 106 104 104 103 103 101 101 105 105 103 103 105 105 106 106 105 105 104 104 107 107 105 105 107 107 108 108 104 104 106 106 109 109 104 104 109 109 107 107 106 106 105 105 108 108 106 106 108 108 109 109 110 110 111 111 112 112 110 110 112 112 113 113 111 111 114 114 115 115 111 111 115 115 112 112 114 114 110 110 113 113 114 114 113 113 115 115 113 113 112 112 116 116 113 113 116 116 117 117 112 112 115 115 118 118 112 112 118 118 116 116 115 115 113 113 117 117 115 115 117 117 118 118 117 117 116 116 119 119 117 117 119 119 120 120 116 116 118 118 121 121 116 116 121 121 119 119 118 118 117 117 120 120 118 118 120 120 121 121 122 122 123 123 124 124 122 122 124 124 125 125 123 123 126 126 127 127 123 123 127 127 124 124 126 126 122 122 125 125 126 126 125 125 127 127 125 125 124 124 128 128 125 125 128 128 129 129 124 124 127 127 130 130 124 124 130 130 128 128 127 127 125 125 129 129 127 127 129 129 130 130 129 129 128 128 131 131 129 129 131 131 132 132 128 128 130 130 133 133 128 128 133 133 131 131 130 130 129 129 132 132 130 130 132 132 133 133 134 134 135 135 136 136 134 134 136 136 137 137 135 135 138 138 139 139 135 135 139 139 136 136 138 138 134 134 137 137 138 138 137 137 139 139 137 137 136 136 140 140 137 137 140 140 141 141 136 136 139 139 142 142 136 136 142 142 140 140 139 139 137 137 141 141 139 139 141 141 142 142 141 141 140 140 143 143 141 141 143 143 144 144 140 140 142 142 145 145 140 140 145 145 143 143 142 142 141 141 144 144 142 142 144 144 145 145 146 146 147 147 148 148 146 146 148 148 149 149 147 147 150 150 151 151 147 147 151 151 148 148 150 150 146 146 149 149 150 150 149 149 151 151 149 149 148 148 152 152 149 149 152 152 153 153 148 148 151 151 154 154 148 148 154 154 152 152 151 151 149 149 153 153 151 151 153 153 154 154 153 153 152 152 155 155 153 153 155 155 156 156 152 152 154 154 157 157 152 152 157 157 155 155 154 154 153 153 156 156 154 154 156 156 157 157 158 158 159 159 160 160 158 158 160 160 161 161 159 159 162 162 163 163 159 159 163 163 160 160 162 162 158 158 161 161 162 162 161 161 163 163 161 161 160 160 164 164 161 161 164 164 165 165 160 160 163 163 166 166 160 160 166 166 164 164 163 163 161 161 165 165 163 163 165 165 166 166 165 165 164 164 167 167 165 165 167 167 168 168 164 164 166 166 169 169 164 164 169 169 167 167 166 166 165 165 168 168 166 166 168 168 169 169 170 170 171 171 172 172 170 170 172 172 173 173 171 171 174 174 175 175 171 171 175 175 172 172 174 174 170 170 173 173 174 174 173 173 175 175 173 173 172 172 176 176 173 173 176 176 177 177 172 172 175 175 178 178 172 172 178 178 176 176 175 175 173 173 177 177 175 175 177 177 178 178 177 177 176 176 179 179 177 177 179 179 180 180 176 176 178 178 181 181 176 176 181 181 179 179 178 178 177 177 180 180 178 178 180 180 181 181</p></triangles>
      </mesh>
    </geometry>
  </library_geometries>
  <library_visual_scenes><visual_scene id="scene" name="scene">
    <node id="weeds_-05+00_solid" name="weeds_-05+00_solid" type="NODE"><instance_geometry url="#weeds_-05+00_solid-mesh"><bind_material><technique_common>
      <instance_material symbol="MAT_WEED_STEM-mat" target="#MAT_WEED_STEM"/>
    </technique_common></bind_material></instance_geometry></node>
  </visual_scene></library_visual_scenes>
  <scene><instance_visual_scene url="#scene"/></scene>
</COLLADA>
