<?xml version="1.0" encoding="utf-8"?>
<COLLADA xmlns="http://www.collada.org/2005/11/COLLADASchema" version="1.4.1">
  <asset>
    <contributor><authoring_tool>VIGIL SIH26126 farm generator</authoring_tool></contributor>
    <unit name="meter" meter="1"/>
    <up_axis>Z_UP</up_axis>
  </asset>
  <library_effects>
    <effect id="MAT_WEED_STEM-fx"><profile_COMMON><technique sid="c"><lambert><diffuse><color>0.0860 0.1040 0.0360 1</color></diffuse></lambert></technique></profile_COMMON></effect>
  </library_effects>
  <library_materials>
    <material id="MAT_WEED_STEM" name="MAT_WEED_STEM"><instance_effect url="#MAT_WEED_STEM-fx"/></material>
  </library_materials>
  <library_geometries>
    <geometry id="weeds_-02+02_solid-mesh" name="weeds_-02+02_solid">
      <mesh>
        <source id="weeds_-02+02_solid-pos"><float_array id="weeds_-02+02_solid-pos-a" count="78">0.0063572 0.0046024 -0.074704 -0.0047054 0.0064812 -0.074876 -0.0047188 0.010015 0.002586 0.0050163 0.0083561 0.0026409 -0.0063572 -0.0046024 -0.074264 -0.0061741 0.00026512 0.0031582 0.0047054 -0.0064812 -0.074092 0.003561 -0.0013943 0.0032131 -0.0033684 0.013784 0.080076 0.0050373 0.012341 0.079957 -0.0046253 0.0053673 0.080628 0.0037804 0.0039215 0.080509 -0.00065231 0.017782 0.15756 0.0064201 0.016554 0.15732 -0.0017128 0.010698 0.15807 0.0053616 0.00947 0.15783 0.0034256 0.022011 0.23503 0.0091686 0.021002 0.23473 0.0025635 0.016256 0.23549 0.0083065 0.015249 0.23518 0.0088654 0.026466 0.31249 0.013279 0.025686 0.31221 0.0082016 0.022041 0.31285 0.012615 0.021261 0.31257 0 0 -0.074484 0.01074 0.023865 0.31253</float_array><technique_common><accessor source="#weeds_-02+02_solid-pos-a" count="26" stride="3"><param name="X" type="float"/><param name="Y" type="float"/><param name="Z" type="float"/></accessor></technique_common></source>
        <source id="weeds_-02+02_solid-nrm"><float_array id="weeds_-02+02_solid-nrm-a" count="78">0.67 0.518 0.532 -0.488 0.7 0.522 -0.59 0.807 -0.033 0.809 0.588 -0.022 -0.677 -0.457 0.577 -0.811 -0.584 0.047 0.481 -0.636 0.603 0.584 -0.81 0.058 -0.589 0.807 -0.025 0.809 0.587 -0.038 -0.81 -0.582 0.063 0.583 -0.811 0.05 -0.589 0.808 -0.017 0.809 0.586 -0.054 -0.81 -0.581 0.078 0.583 -0.811 0.042 -0.588 0.809 -0.009 0.808 0.584 -0.07 -0.809 -0.58 0.094 0.583 -0.812 0.035 -0.531 0.64 -0.556 0.645 0.455 -0.613 -0.719 -0.526 -0.455 0.45 -0.72 -0.528 -0.006 0.056 0.998 -0.076 -0.071 -0.995</float_array><technique_common><accessor source="#weeds_-02+02_solid-nrm-a" count="26" stride="3"><param name="X" type="float"/><param name="Y" type="float"/><param name="Z" type="float"/></accessor></technique_common></source>
        <vertices id="weeds_-02+02_solid-vtx"><input semantic="POSITION" source="#weeds_-02+02_solid-pos"/></vertices>
        <triangles count="48" material="MAT_WEED_STEM-mat"><input semantic="VERTEX" source="#weeds_-02+02_solid-vtx" offset="0"/><input semantic="NORMAL" source="#weeds_-02+02_solid-nrm" offset="1"/><p>0 0 1 1 2 2 0 0 2 2 3 3 1 1 4 4 5 5 1 1 5 5 2 2 4 4 6 6 7 7 4 4 7 7 5 5 6 6 0 0 3 3 6 6 3 3 7 7 3 3 2 2 8 8 3 3 8 8 9 9 2 2 5 5 10 10 2 2 10 10 8 8 5 5 7 7 11 11 5 5 11 11 10 10 7 7 3 3 9 9 7 7 9 9 11 11 9 9 8 8 12 12 9 9 12 12 13 13 8 8 10 10 14 14 8 8 14 14 12 12 10 10 11 11 15 15 10 10 15 15 14 14 11 11 9 9 13 13 11 11 13 13 15 15 13 13 12 12 16 16 13 13 16 16 17 17 12 12 14 14 18 18 12 12 18 18 16 16 14 14 15 15 19 19 14 14 19 19 18 18 15 15 13 13 17 17 15 15 17 17 19 19 17 17 16 16 20 20 17 17 20 20 21 21 16 16 18 18 22 22 16 16 22 22 20 20 18 18 19 19 23 23 18 18 23 23 22 22 19 19 17 17 21 21 19 19 21 21 23 23 0 0 1 1 24 24 1 1 4 4 24 24 4 4 6 6 24 24 6 6 0 0 24 24 20 20 21 21 25 25 22 22 20 20 25 25 23 23 22 22 25 25 21 21 23 23 25 25</p></triangles>
      </mesh>
    </geometry>
  </library_geometries>
  <library_visual_scenes><visual_scene id="scene" name="scene">
    <node id="weeds_-02+02_solid" name="weeds_-02+02_solid" type="NODE"><instance_geometry url="#weeds_-02+02_solid-mesh"><bind_material><technique_common>
      <instance_material symbol="MAT_WEED_STEM-mat" target="#MAT_WEED_STEM"/>
    </technique_common></bind_material></instance_geometry></node>
  </visual_scene></library_visual_scenes>
  <scene><instance_visual_scene url="#scene"/></scene>
</COLLADA>
