<?xml version="1.0" encoding="utf-8"?>
<COLLADA xmlns="http://www.collada.org/2005/11/COLLADASchema" version="1.4.1">
  <asset>
    <contributor><authoring_tool>VIGIL SIH26126 farm generator</authoring_tool></contributor>
    <unit name="meter" meter="1"/>
    <up_axis>Z_UP</up_axis>
  </asset>
  <library_effects>
    <effect id="MAT_WEED_STEM-fx"><profile_COMMON><technique sid="c"><lambert><diffuse><color>0.0860 0.1040 0.0360 1</color></diffuse></lambert></technique></profile_COMMON></effect>
  </library_effects>
  <library_materials>
    <material id="MAT_WEED_STEM" name="MAT_WEED_STEM"><instance_effect url="#MAT_WEED_STEM-fx"/></material>
  </library_materials>
  <library_geometries>
    <geometry id="weeds_-07+00_solid-mesh" name="weeds_-07+00_solid">
      <mesh>
        <source id="weeds_-07+00_solid-pos"><float_array id="weeds_-07+00_solid-pos-a" count="222">-0.3763 0.020622 -0.011991 -0.3892 0.021494 -0.011848 -0.38767 0.019595 0.070061 -0.37632 0.018828 0.069832 -0.3913 0.0087361 -0.012006 -0.38952 0.0083673 0.069957 -0.37841 0.0078635 -0.01215 -0.37817 0.0076001 0.069728 -0.38454 0.018112 0.15199 -0.37474 0.017448 0.15162 -0.38614 0.008415 0.15197 -0.37634 0.0077515 0.15159 -0.3798 0.017045 0.23391 -0.37156 0.016484 0.23345 -0.38115 0.0088792 0.23394 -0.37291 0.0083182 0.23348 -0.37347 0.016394 0.31582 -0.36679 0.015935 0.31532 -0.37457 0.0097599 0.31588 -0.36788 0.0093002 0.31539 -0.36555 0.016158 0.3977 -0.36041 0.015803 0.39727 -0.36639 0.011055 0.39776 -0.36125 0.0107 0.39734 -0.3838 0.014679 -0.011999 -0.3634 0.013429 0.39752 0.38105 -0.012099 -0.020678 0.38319 -0.016914 -0.01659 0.41584 0.036093 0.019275 0.41414 0.039562 0.015085 0.38718 -0.015023 -0.021539 0.41928 0.036617 0.014784 0.4517 0.087865 0.027448 0.44969 0.089467 0.031428 0.44744 0.090528 0.027375 0.48503 0.13938 0.0084228 0.48411 0.14147 0.011586 0.4816 0.14163 0.008538 0.382 -0.013039 -0.016733 0.3825 -0.018303 -0.020855 0.42436 -0.046968 0.016165 0.42444 -0.04289 0.02023 0.38691 -0.012695 -0.021219 0.42809 -0.042027 0.015907 0.46646 -0.075554 0.029475 0.46813 -0.073611 0.033534 0.46951 -0.071288 0.029555 0.50964 -0.10475 0.011542 0.51182 -0.10392 0.014726 0.51218 -0.10131 0.011751 0.38096 -0.012023 -0.020217 0.38427 -0.01773 -0.021937 0.33682 -0.059165 0.013277 0.33355 -0.054438 0.014616 0.38619 -0.014283 -0.016653 0.33756 -0.056524 0.018191 0.29029 -0.10091 0.028093 0.28893 -0.098858 0.024036 0.28696 -0.097165 0.028001 0.24333 -0.14338 0.0074823 0.24287 -0.14099 0.0043915 0.24058 -0.14034 0.0074918 0.381 -0.012061 -0.020478 0.38419 -0.018014 -0.021611 0.34157 -0.050078 0.013621 0.33839 -0.045124 0.014319 0.38622 -0.013962 -0.016717 0.34227 -0.046785 0.018209 0.29967 -0.08229 0.028117 0.29849 -0.08007 0.024082 0.29663 -0.078296 0.028062 0.25749 -0.11537 0.0074658 0.25726 -0.11275 0.004504 0.25492 -0.11217 0.0075922</float_array><technique_common><accessor source="#weeds_-07+00_solid-pos-a" count="74" stride="3"><param name="X" type="float"/><param name="Y" type="float"/><param name="Z" type="float"/></accessor></technique_common></source>
        <source id="weeds_-07+00_solid-nrm"><float_array id="weeds_-07+00_solid-nrm-a" count="222">0.628 0.484 0.61 -0.503 0.634 0.587 -0.623 0.781 0.034 0.783 0.622 0.005 -0.615 -0.5 0.61 -0.785 -0.619 0.023 0.515 -0.65 0.559 0.618 -0.786 -0.008 -0.623 0.781 0.042 0.783 0.622 -0.014 -0.784 -0.619 0.042 0.618 -0.786 -0.016 -0.622 0.782 0.05 0.782 0.622 -0.032 -0.783 -0.619 0.06 0.618 -0.786 -0.024 -0.621 0.782 0.058 0.781 0.622 -0.051 -0.782 -0.619 0.079 0.617 -0.786 -0.032 -0.56 0.652 -0.511 0.579 0.499 -0.645 -0.682 -0.502 -0.532 0.47 -0.653 -0.594 0.01 -0.014 1 -0.083 0.001 -0.997 -0.664 0.664 -0.344 -0.159 -0.484 0.86 0.2 -0.532 0.822 -0.811 0.577 0.102 0.835 -0.146 -0.53 0.613 -0.068 -0.787 0.74 -0.652 0.167 -0.339 0.398 0.853 -0.429 0.361 -0.828 0.626 -0.593 -0.507 0.169 0.253 0.953 -0.797 0.35 -0.492 -0.437 0.386 0.812 -0.272 -0.885 -0.377 -0.379 -0.853 -0.358 -0.32 0.271 0.908 0.753 0.456 -0.474 0.682 0.585 -0.439 -0.535 -0.746 -0.397 0.035 -0.031 0.999 0.528 0.758 -0.383 -0.614 -0.574 -0.541 0.254 -0.221 0.942 0.362 0.8 -0.479 -0.73 0.655 -0.196 0.161 -0.74 -0.653 0.433 -0.801 -0.413 -0.679 0.602 -0.42 0.532 0.084 0.843 0.227 0.236 0.945 0.541 -0.775 0.327 -0.153 0.301 -0.941 -0.366 0.378 0.85 0.45 -0.74 0.5 0.228 0.194 -0.954 -0.7 0.522 0.487 -0.72 0.636 -0.277 0.153 -0.816 -0.557 0.412 -0.858 -0.306 -0.651 0.588 -0.481 0.534 0.168 0.829 0.239 0.306 0.921 0.47 -0.801 0.37 -0.116 0.302 -0.946 -0.348 0.404 0.846 0.39 -0.791 0.472 0.268 0.221 -0.938 -0.681 0.543 0.491</float_array><technique_common><accessor source="#weeds_-07+00_solid-nrm-a" count="74" stride="3"><param name="X" type="float"/><param name="Y" type="float"/><param name="Z" type="float"/></accessor></technique_common></source>
        <vertices id="weeds_-07+00_solid-vtx"><input semantic="POSITION" source="#weeds_-07+00_solid-pos"/></vertices>
        <triangles count="120" material="MAT_WEED_STEM-mat"><input semantic="VERTEX" source="#weeds_-07+00_solid-vtx" offset="0"/><input semantic="NORMAL" source="#weeds_-07+00_solid-nrm" offset="1"/><p>0 0 1 1 2 2 0 0 2 2 3 3 1 1 4 4 5 5 1 1 5 5 2 2 4 4 6 6 7 7 4 4 7 7 5 5 6 6 0 0 3 3 6 6 3 3 7 7 3 3 2 2 8 8 3 3 8 8 9 9 2 2 5 5 10 10 2 2 10 10 8 8 5 5 7 7 11 11 5 5 11 11 10 10 7 7 3 3 9 9 7 7 9 9 11 11 9 9 8 8 12 12 9 9 12 12 13 13 8 8 10 10 14 14 8 8 14 14 12 12 10 10 11 11 15 15 10 10 15 15 14 14 11 11 9 9 13 13 11 11 13 13 15 15 13 13 12 12 16 16 13 13 16 16 17 17 12 12 14 14 18 18 12 12 18 18 16 16 14 14 15 15 19 19 14 14 19 19 18 18 15 15 13 13 17 17 15 15 17 17 19 19 17 17 16 16 20 20 17 17 20 20 21 21 16 16 18 18 22 22 16 16 22 22 20 20 18 18 19 19 23 23 18 18 23 23 22 22 19 19 17 17 21 21 19 19 21 21 23 23 0 0 1 1 24 24 1 1 4 4 24 24 4 4 6 6 24 24 6 6 0 0 24 24 20 20 21 21 25 25 22 22 20 20 25 25 23 23 22 22 25 25 21 21 23 23 25 25 26 26 27 27 28 28 26 26 28 28 29 29 27 27 30 30 31 31 27 27 31 31 28 28 30 30 26 26 29 29 30 30 29 29 31 31 29 29 28 28 32 32 29 29 32 32 33 33 28 28 31 31 34 34 28 28 34 34 32 32 31 31 29 29 33 33 31 31 33 33 34 34 33 33 32 32 35 35 33 33 35 35 36 36 32 32 34 34 37 37 32 32 37 37 35 35 34 34 33 33 36 36 34 34 36 36 37 37 38 38 39 39 40 40 38 38 40 40 41 41 39 39 42 42 43 43 39 39 43 43 40 40 42 42 38 38 41 41 42 42 41 41 43 43 41 41 40 40 44 44 41 41 44 44 45 45 40 40 43 43 46 46 40 40 46 46 44 44 43 43 41 41 45 45 43 43 45 45 46 46 45 45 44 44 47 47 45 45 47 47 48 48 44 44 46 46 49 49 44 44 49 49 47 47 46 46 45 45 48 48 46 46 48 48 49 49 50 50 51 51 52 52 50 50 52 52 53 53 51 51 54 54 55 55 51 51 55 55 52 52 54 54 50 50 53 53 54 54 53 53 55 55 53 53 52 52 56 56 53 53 56 56 57 57 52 52 55 55 58 58 52 52 58 58 56 56 55 55 53 53 57 57 55 55 57 57 58 58 57 57 56 56 59 59 57 57 59 59 60 60 56 56 58 58 61 61 56 56 61 61 59 59 58 58 57 57 60 60 58 58 60 60 61 61 62 62 63 63 64 64 62 62 64 64 65 65 63 63 66 66 67 67 63 63 67 67 64 64 66 66 62 62 65 65 66 66 65 65 67 67 65 65 64 64 68 68 65 65 68 68 69 69 64 64 67 67 70 70 64 64 70 70 68 68 67 67 65 65 69 69 67 67 69 69 70 70 69 69 68 68 71 71 69 69 71 71 72 72 68 68 70 70 73 73 68 68 73 73 71 71 70 70 69 69 72 72 70 70 72 72 73 73</p></triangles>
      </mesh>
    </geometry>
  </library_geometries>
  <library_visual_scenes><visual_scene id="scene" name="scene">
    <node id="weeds_-07+00_solid" name="weeds_-07+00_solid" type="NODE"><instance_geometry url="#weeds_-07+00_solid-mesh"><bind_material><technique_common>
      <instance_material symbol="MAT_WEED_STEM-mat" target="#MAT_WEED_STEM"/>
    </technique_common></bind_material></instance_geometry></node>
  </visual_scene></library_visual_scenes>
  <scene><instance_visual_scene url="#scene"/></scene>
</COLLADA>
