<?xml version="1.0" encoding="utf-8"?>
<COLLADA xmlns="http://www.collada.org/2005/11/COLLADASchema" version="1.4.1">
  <asset>
    <contributor><authoring_tool>VIGIL SIH26126 farm generator</authoring_tool></contributor>
    <unit name="meter" meter="1"/>
    <up_axis>Z_UP</up_axis>
  </asset>
  <library_effects>
    <effect id="MAT_WEED_STEM-fx"><profile_COMMON><technique sid="c"><lambert><diffuse><color>0.0860 0.1040 0.0360 1</color></diffuse></lambert></technique></profile_COMMON></effect>
  </library_effects>
  <library_materials>
    <material id="MAT_WEED_STEM" name="MAT_WEED_STEM"><instance_effect url="#MAT_WEED_STEM-fx"/></material>
  </library_materials>
  <library_geometries>
    <geometry id="weeds_-02-02_solid-mesh" name="weeds_-02-02_solid">
      <mesh>
        <source id="weeds_-02-02_solid-pos"><float_array id="weeds_-02-02_solid-pos-a" count="2688">1.1815 -0.19217 0.024035 1.1734 -0.19038 0.023493 1.1702 -0.19081 0.079381 1.1773 -0.19239 0.079968 1.1722 -0.19865 0.023433 1.1691 -0.19809 0.079353 1.1803 -0.20044 0.023975 1.1763 -0.19967 0.079939 1.1655 -0.19059 0.13516 1.1717 -0.19195 0.13585 1.1646 -0.19687 0.13517 1.1708 -0.19823 0.13587 1.1594 -0.1897 0.1909 1.1646 -0.19085 0.19164 1.1586 -0.19499 0.19095 1.1638 -0.19614 0.19169 1.1519 -0.18815 0.2466 1.156 -0.18908 0.24733 1.1512 -0.19245 0.24667 1.1554 -0.19338 0.2474 1.1428 -0.18594 0.3023 1.1461 -0.18665 0.30291 1.1423 -0.18924 0.30236 1.1456 -0.18996 0.30297 1.1768 -0.19541 0.023734 1.1442 -0.18795 0.30263 1.3125 -0.11094 0.02538 1.3088 -0.1045 0.02534 1.309 -0.10462 0.071833 1.3122 -0.11028 0.071959 1.3025 -0.10832 0.025417 1.3034 -0.10798 0.071921 1.3062 -0.11476 0.025457 1.3066 -0.11364 0.072047 1.3087 -0.1034 0.1183 1.3115 -0.10829 0.11857 1.3038 -0.1063 0.11841 1.3066 -0.11118 0.11868 1.308 -0.10085 0.16481 1.3103 -0.10496 0.16517 1.3039 -0.10328 0.16493 1.3062 -0.10739 0.16529 1.3068 -0.096956 0.21136 1.3088 -0.10029 0.21176 1.3035 -0.098926 0.21148 1.3054 -0.10226 0.21188 1.3053 -0.091723 0.25798 1.3068 -0.094283 0.25832 1.3027 -0.093235 0.25808 1.3042 -0.095795 0.25842 1.3075 -0.10963 0.025398 1.3047 -0.09376 0.2582 2.1665 2.4097 -3.1092e-06 2.1708 2.4072 -0.00060611 2.1729 2.4037 0.031554 2.1691 2.406 0.032196 2.1734 2.4115 -0.00027056 2.1752 2.4075 0.031887 2.1691 2.414 0.00033244 2.1714 2.4097 0.032529 2.1761 2.399 0.063485 2.1729 2.4009 0.064229 2.1781 2.4022 0.063836 2.1749 2.4041 0.064581 2.1804 2.3929 0.09527 2.1777 2.3945 0.096054 2.1821 2.3956 0.095618 2.1794 2.3972 0.096402 2.1858 2.3855 0.12691 2.1836 2.3868 0.12767 2.1872 2.3877 0.12723 2.185 2.3889 0.12799 2.1923 2.3768 0.15843 2.1906 2.3777 0.15907 2.1934 2.3784 0.15869 2.1917 2.3794 0.15933 2.1699 2.4106 -0.00013684 2.192 2.3781 0.15888 2.1037 2.9461 -0.020306 2.1082 2.948 -0.020551 2.1097 2.9478 0.011403 2.1057 2.9461 0.011728 2.1061 2.9524 -0.020379 2.1078 2.9516 0.011592 2.1016 2.9505 -0.020135 2.1039 2.95 0.011917 2.1128 2.9477 0.043261 2.1094 2.9462 0.043732 2.1113 2.951 0.043488 2.1079 2.9496 0.043959 2.1177 2.9477 0.075108 2.1149 2.9465 0.075662 2.1164 2.9505 0.075352 2.1136 2.9493 0.075905 2.1243 2.9478 0.10694 2.122 2.9468 0.10752 2.1232 2.9501 0.10718 2.1209 2.9491 0.10776 2.1325 2.9481 0.1388 2.1308 2.9473 0.13929 2.1317 2.9499 0.139 2.13 2.9491 0.13949 2.1049 2.9492 -0.020343 2.1313 2.9486 0.13914 1.9694 1.9261 -0.021224 1.9597 1.9301 -0.02301 1.9497 1.9327 0.040069 1.9583 1.9292 0.041763 1.9552 1.9204 -0.023201 1.9458 1.9241 0.039927 1.965 1.9164 -0.021416 1.9544 1.9207 0.041621 1.9382 1.9364 0.10281 1.9455 1.9334 0.10449 1.9348 1.929 0.10273 1.9421 1.926 0.10441 1.925 1.9412 0.1653 1.9311 1.9387 0.16689 1.9221 1.935 0.16527 1.9283 1.9325 0.16686 1.9102 1.9472 0.22754 1.9152 1.9452 0.22897 1.9079 1.9422 0.22755 1.9128 1.9401 0.22898 1.8938 1.9543 0.28956 1.8976 1.9527 0.29071 1.892 1.9504 0.28958 1.8958 1.9489 0.29073 1.9623 1.9232 -0.022213 1.8948 1.9516 0.29015 1.0693 0.86049 -0.0054697 1.0679 0.85764 -0.00071205 1.083 0.89795 0.031137 1.0845 0.8996 0.026625 1.0731 0.85761 -0.0029024 1.0875 0.89736 0.029503 1.0981 0.93862 0.040993 1.1002 0.93773 0.03747 1.1019 0.93749 0.041312 1.1136 0.97815 0.022652 1.1157 0.9767 0.020503 1.1167 0.9776 0.023702 1.069 0.861 -0.0013688 1.0694 0.85573 -0.0019261 1.1154 0.85807 0.030117 1.1149 0.86249 0.031334 1.0719 0.85901 -0.0057891 1.1168 0.8614 0.026889 1.1613 0.8609 0.039081 1.1615 0.86229 0.043073 1.1614 0.86475 0.039772 1.2067 0.86385 0.021583 1.2078 0.86339 0.02483 1.2074 0.86635 0.023669 1.0693 0.86048 -0.0054859 1.0681 0.85629 -0.0020566 1.0506 0.88261 0.029943 1.0519 0.88575 0.026435 1.073 0.85897 -0.0015416 1.0548 0.88506 0.030347 1.0332 0.90928 0.04082 1.0351 0.91008 0.03711 1.0367 0.91151 0.040766 1.016 0.93552 0.022753 1.018 0.93523 0.019958 1.0189 0.93725 0.022527 1.0694 0.86016 -0.0058029 1.0678 0.8567 -0.0016223 1.0521 0.89584 0.030209 1.0537 0.89829 0.02622 1.0731 0.85889 -0.0016588 1.0566 0.89773 0.030188 1.0363 0.9352 0.04071 1.0383 0.93576 0.037032 1.0401 0.93679 0.040738 1.0209 0.97409 0.022557 1.0229 0.97384 0.019754 1.024 0.97539 0.022602 2.2896 3.1818 -0.016279 2.3022 3.1796 -0.014878 2.2932 3.1841 0.066724 2.2821 3.1861 0.065651 2.3041 3.1924 -0.015267 2.2948 3.1953 0.066417 2.2914 3.1947 -0.016669 2.2837 3.1974 0.065343 2.2865 3.1876 0.14858 2.2768 3.1894 0.14793 2.2879 3.1974 0.14837 2.2782 3.1991 0.14772 2.282 3.1903 0.23079 2.2738 3.1918 0.23047 2.2831 3.1985 0.23067 2.275 3.2 0.23035 2.2797 3.192 0.31337 2.2731 3.1932 0.3133 2.2806 3.1986 0.31331 2.274 3.1999 0.31324 2.2797 3.1928 0.39635 2.2746 3.1937 0.39637 2.2804 3.1979 0.39632 2.2753 3.1988 0.39634 2.2968 3.1871 -0.015773 2.2775 3.1958 0.39634 2.5191 2.0227 -0.016675 2.5281 2.02 -0.017104 2.5296 2.0166 0.047773 2.5217 2.019 0.04807 2.5307 2.029 -0.016611 2.5319 2.0245 0.048235 2.5217 2.0317 -0.016181 2.524 2.027 0.048533 2.53 2.0132 0.11271 2.5232 2.0153 0.11283 2.532 2.0201 0.11316 2.5252 2.0221 0.11327 2.5293 2.0097 0.17767 2.5235 2.0115 0.17765 2.531 2.0155 0.17809 2.5252 2.0173 0.17807 2.5274 2.0063 0.24266 2.5227 2.0077 0.24255 2.5287 2.0109 0.24304 2.5241 2.0124 0.24293 2.5243 2.0027 0.30767 2.5207 2.0038 0.30755 2.5254 2.0063 0.30797 2.5218 2.0074 0.30785 2.5249 2.0258 -0.016643 2.5231 2.0051 0.30776 2.7201 0.66314 -0.016862 2.7186 0.65993 -0.013939 2.7572 0.66569 0.014338 2.7583 0.6681 0.011299 2.7213 0.65885 -0.017614 2.759 0.66429 0.01097 2.7972 0.66985 0.021793 2.7971 0.67146 0.024832 2.7968 0.6731 0.02183 2.8367 0.67568 0.0088473 2.8373 0.67697 0.011283 2.8364 0.67835 0.0090104 2.72 0.66219 -0.013932 2.7177 0.65977 -0.017176 2.7204 0.62597 0.0096265 2.7223 0.6276 0.012791 2.7223 0.65998 -0.017307 2.7244 0.62623 0.009558 2.7238 0.59254 0.018643 2.7253 0.59246 0.021737 2.7271 0.59285 0.018812 2.7281 0.55892 0.0041989 2.7293 0.55813 0.006603 2.7308 0.55912 0.0044433 2.7201 0.66321 -0.016514 2.7188 0.65915 -0.017978 2.6779 0.66434 0.007452 2.6788 0.66797 0.0086024 2.7211 0.65957 -0.013924 2.6794 0.66501 0.01121 2.6377 0.66933 0.017567 2.6383 0.67097 0.014586 2.6382 0.67259 0.017616 2.5979 0.67491 0.001086 2.5989 0.67623 -0.0011636 2.5982 0.67758 0.0011895 2.7201 0.66317 -0.016711 2.7186 0.65906 -0.017741 2.6843 0.66586 0.0079487 2.6854 0.66955 0.0086242 2.7213 0.65969 -0.013963 2.6861 0.66683 0.01148 2.6507 0.67264 0.018074 2.6514 0.67425 0.015115 2.6514 0.67586 0.018158 2.6175 0.67986 0.0018101 2.6187 0.68115 -0.00033706 2.618 0.6825 0.0020052 -1.9402 2.3533 -0.072118 -1.9357 2.3625 -0.073005 -1.9358 2.3678 -0.013952 -1.9397 2.3597 -0.013056 -1.9449 2.3671 -0.073325 -1.9439 2.3718 -0.014209 -1.9494 2.3579 -0.072438 -1.9478 2.3637 -0.013312 -1.9347 2.3745 0.044935 -1.9381 2.3676 0.045907 -1.9417 2.378 0.044757 -1.9451 2.3711 0.045729 -1.9324 2.3828 0.10374 -1.9353 2.377 0.10472 -1.9383 2.3857 0.10362 -1.9412 2.3799 0.10461 -1.9289 2.3926 0.16245 -1.9312 2.3879 0.16339 -1.9337 2.395 0.16239 -1.936 2.3903 0.16332 -1.9242 2.4039 0.22111 -1.926 2.4003 0.22188 -1.9279 2.4057 0.22107 -1.9297 2.4021 0.22184 -1.9425 2.3602 -0.072721 -1.9269 2.403 0.22148 1.6322 -1.3579 -0.032962 1.6314 -1.3549 -0.028888 1.6445 -1.3943 -0.00052711 1.6445 -1.3964 -0.0044151 1.6274 -1.3576 -0.030827 1.6407 -1.3962 -0.0019907 1.6583 -1.4342 0.0087731 1.6562 -1.4346 0.0056839 1.6546 -1.4353 0.0089961 1.6715 -1.4738 -0.0064025 1.669 -1.4737 -0.0083129 1.6688 -1.4749 -0.0055282 1.6326 -1.3581 -0.029394 1.6291 -1.3542 -0.029992 1.5942 -1.3798 -0.002513 1.5974 -1.3831 -0.0013597 1.6292 -1.3581 -0.033291 1.5952 -1.3833 -0.0052511 1.5601 -1.4061 0.0049671 1.5607 -1.4073 0.0084563 1.5625 -1.4092 0.005648 1.527 -1.4326 -0.01049 1.5258 -1.4327 -0.0076928 1.5279 -1.4349 -0.0086338 1.6322 -1.3579 -0.032976 1.6305 -1.3539 -0.030083 1.6601 -1.3651 -0.0016415 1.6611 -1.3683 -0.0046258 1.6283 -1.3586 -0.029617 1.6583 -1.3693 -0.0012709 1.6903 -1.3769 0.008494 1.6894 -1.3786 0.0052802 1.689 -1.3805 0.0084684 1.7205 -1.3888 -0.006478 1.7188 -1.3896 -0.0089227 1.7193 -1.3917 -0.0066587 1.6319 -1.3577 -0.033259 1.6309 -1.3541 -0.029696 1.6673 -1.3763 -0.0011388 1.6677 -1.3792 -0.0045573 1.6282 -1.3586 -0.029721 1.665 -1.3802 -0.0011515 1.7042 -1.399 0.0089288 1.7031 -1.4005 0.0057368 1.7022 -1.4023 0.0089581 1.7411 -1.4218 -0.00586 1.7394 -1.4227 -0.0083107 1.7395 -1.4245 -0.005817 0.78978 -2.513 -0.10499 0.7873 -2.5111 -0.1008 0.82014 -2.5324 -0.070683 0.82146 -2.5341 -0.0747 0.78607 -2.5157 -0.10277 0.81853 -2.5363 -0.072175 0.85401 -2.5539 -0.06041 0.85278 -2.5556 -0.063618 0.852 -2.5571 -0.060157 0.88759 -2.5759 -0.075628 0.8858 -2.5774 -0.077615 0.88628 -2.5785 -0.074697 0.79018 -2.5128 -0.10128 0.78521 -2.512 -0.10196 0.77504 -2.5524 -0.072927 0.77924 -2.5529 -0.071681 0.78776 -2.515 -0.10533 0.77789 -2.5544 -0.075728 0.76607 -2.593 -0.064716 0.76718 -2.5935 -0.061065 0.76962 -2.5939 -0.063963 0.75817 -2.6335 -0.080387 0.75736 -2.6343 -0.077471 0.76025 -2.6346 -0.07842 0.78977 -2.513 -0.10501 0.78606 -2.511 -0.10205 0.81388 -2.5009 -0.072294 0.8166 -2.5027 -0.075354 0.78732 -2.5158 -0.1015 0.81511 -2.5051 -0.071844 0.8427 -2.4911 -0.061588 0.84309 -2.493 -0.064908 0.84391 -2.4946 -0.061559 0.87193 -2.4818 -0.077023 0.87126 -2.4835 -0.079555 0.87284 -2.4847 -0.077167 0.78944 -2.513 -0.10531 0.78648 -2.5109 -0.10165 0.82584 -2.5049 -0.071608 0.82785 -2.5069 -0.075125 0.78724 -2.5159 -0.10161 0.82649 -2.5093 -0.071561 0.86608 -2.4993 -0.060814 0.86621 -2.5012 -0.064113 0.86661 -2.5029 -0.060732 0.90667 -2.4941 -0.0759 0.90604 -2.4958 -0.078437 0.90711 -2.4971 -0.075814 0.53077 -1.0798 -0.011802 0.52193 -1.0721 -0.011157 0.52814 -1.0728 0.072919 0.53591 -1.0796 0.072247 0.51443 -1.0811 -0.010571 0.52154 -1.0807 0.073471 0.52326 -1.0888 -0.011216 0.52931 -1.0875 0.072799 0.5357 -1.0741 0.15693 0.54239 -1.0799 0.15617 0.53 -1.0809 0.15747 0.53669 -1.0868 0.15671 0.5446 -1.0759 0.24084 0.55021 -1.0808 0.24005 0.5398 -1.0817 0.24135 0.54542 -1.0866 0.24056 0.55483 -1.0782 0.32465 0.55938 -1.0822 0.32388 0.55094 -1.0829 0.3251 0.55548 -1.0869 0.32434 0.5664 -1.0811 0.40834 0.56989 -1.0842 0.4077 0.56341 -1.0847 0.4087 0.5669 -1.0878 0.40807 0.5226 -1.0804 -0.011187 0.56665 -1.0845 0.4082 -0.48111 0.97064 0.017033 -0.47463 0.96523 0.016969 -0.47358 0.96653 0.066419 -0.47927 0.97129 0.066572 -0.46955 0.97196 0.016764 -0.4691 0.97245 0.06626 -0.47602 0.97736 0.016827 -0.47479 0.97721 0.066412 -0.47155 0.96657 0.11585 -0.47646 0.97068 0.11615 -0.46768 0.97167 0.11575 -0.47258 0.97578 0.11605 -0.46853 0.96534 0.16534 -0.47265 0.9688 0.16573 -0.46527 0.96964 0.16528 -0.46939 0.9731 0.16567 -0.46453 0.96285 0.21487 -0.46787 0.96566 0.2153 -0.46187 0.96634 0.21485 -0.46521 0.96914 0.21528 -0.45954 0.95909 0.26448 -0.4621 0.96125 0.26485 -0.45749 0.96177 0.26447 -0.46005 0.96393 0.26485 -0.47533 0.9713 0.016898 -0.4598 0.96151 0.26466 -2.1709 2.8599 -0.093973 -2.1734 2.8627 -0.090557 -2.1853 2.8176 -0.066992 -2.1834 2.8157 -0.070393 -2.176 2.861 -0.09442 -2.1878 2.817 -0.070417 -2.2003 2.7747 -0.064263 -2.1984 2.7736 -0.061366 -2.1966 2.7735 -0.064502 -2.2139 2.7342 -0.082068 -2.2127 2.7327 -0.079819 -2.2109 2.7331 -0.082136 -2.1717 2.8601 -0.090928 -2.1733 2.8641 -0.093688 -2.2096 2.8754 -0.063743 -2.2087 2.8722 -0.060946 -2.1753 2.8594 -0.094335 -2.2113 2.8713 -0.064266 -2.2464 2.8882 -0.051717 -2.2472 2.8863 -0.048779 -2.2477 2.8847 -0.05194 -2.2846 2.9033 -0.063254 -2.286 2.9022 -0.060902 -2.2857 2.9005 -0.063325 -2.1708 2.8598 -0.09363 -2.1745 2.8634 -0.094541 -2.1481 2.898 -0.065199 -2.1447 2.895 -0.064509 -2.1751 2.8603 -0.090779 -2.148 2.8956 -0.061663 -2.1229 2.9339 -0.051246 -2.1215 2.9329 -0.054451 -2.1196 2.9318 -0.051571 -2.0979 2.9727 -0.064011 -2.0971 2.9713 -0.066508 -2.0953 2.971 -0.064212 -2.1708 2.8598 -0.093824 -2.1745 2.8636 -0.094276 -2.1497 2.8907 -0.065545 -2.1462 2.8877 -0.065355 -2.175 2.8601 -0.090849 -2.1494 2.888 -0.0623 -2.1257 2.9192 -0.052471 -2.1244 2.9181 -0.05567 -2.1226 2.9169 -0.052785 -2.1023 2.9507 -0.065894 -2.1016 2.949 -0.068308 -2.0997 2.9488 -0.066016 0.24913 -1.7391 -0.057286 0.23699 -1.7358 -0.057349 0.23693 -1.7374 0.021695 0.24761 -1.7403 0.021906 0.23471 -1.7482 -0.057486 0.23492 -1.7483 0.021608 0.24685 -1.7515 -0.057423 0.2456 -1.7512 0.021819 0.23473 -1.7379 0.10071 0.24395 -1.7404 0.10116 0.23299 -1.7473 0.1007 0.2422 -1.7498 0.10114 0.2304 -1.7373 0.17981 0.23814 -1.7394 0.18041 0.22892 -1.7452 0.17984 0.23666 -1.7473 0.18044 0.22393 -1.7356 0.25899 0.23021 -1.7373 0.25965 0.22272 -1.742 0.25905 0.22899 -1.7437 0.25972 0.21531 -1.7328 0.33828 0.22013 -1.7341 0.33887 0.21437 -1.7377 0.33835 0.21919 -1.739 0.33893 0.24192 -1.7437 -0.057386 0.21725 -1.7359 0.33861 -0.01497 -1.0303 -0.0078747 -0.0024605 -1.0279 -0.0085092 0.0010262 -1.0284 0.072709 -0.0099726 -1.0305 0.073426 -0.0041037 -1.0153 -0.0082308 -0.0004158 -1.0173 0.072989 -0.016613 -1.0176 -0.0075963 -0.011415 -1.0194 0.073706 0.0068703 -1.0291 0.15378 -0.0026064 -1.0309 0.15467 0.0056353 -1.0195 0.15408 -0.0038414 -1.0213 0.15497 0.015079 -1.0298 0.23481 0.0071239 -1.0313 0.23579 0.014053 -1.0217 0.23511 0.0060968 -1.0232 0.23609 0.025658 -1.0305 0.3158 0.019218 -1.0318 0.31678 0.024837 -1.024 0.31608 0.018398 -1.0252 0.31706 0.038616 -1.0314 0.39679 0.033674 -1.0323 0.39761 0.037992 -1.0263 0.39702 0.03305 -1.0273 0.39785 -0.0095367 -1.0228 -0.0080528 0.035833 -1.0293 0.39732 1.7308 -2.1496 -0.076543 1.7335 -2.1528 -0.0714 1.6836 -2.1237 -0.028351 1.6822 -2.121 -0.033227 1.7359 -2.147 -0.072989 1.6861 -2.1187 -0.029517 1.6314 -2.0939 -0.011507 1.6328 -2.0918 -0.015692 1.634 -2.0899 -0.011413 1.5778 -2.0634 -0.029094 1.5799 -2.0617 -0.032076 1.5797 -2.0601 -0.028479 1.7307 -2.1496 -0.076506 1.7341 -2.153 -0.071906 1.6849 -2.1401 -0.02915 1.6828 -2.1372 -0.033638 1.7353 -2.1467 -0.072521 1.6861 -2.1347 -0.029605 1.6334 -2.1265 -0.012374 1.6341 -2.1242 -0.016556 1.6347 -2.122 -0.012276 1.5802 -2.1122 -0.030249 1.5819 -2.1103 -0.033365 1.5812 -2.1085 -0.029926 1.7299 -2.1496 -0.071772 1.7361 -2.1524 -0.072687 1.7597 -2.1167 -0.034626 1.7544 -2.1147 -0.033176 1.7342 -2.1474 -0.076473 1.7571 -2.1129 -0.038017 1.7807 -2.0802 -0.024694 1.7798 -2.0793 -0.019986 1.7764 -2.078 -0.023378 1.7984 -2.0438 -0.046614 1.8004 -2.0429 -0.043244 1.7966 -2.0415 -0.04396 1.7303 -2.1495 -0.076099 1.7344 -2.1531 -0.072169 1.6983 -2.1449 -0.030319 1.6956 -2.1419 -0.034409 1.7354 -2.1467 -0.072664 1.6993 -2.1395 -0.030731 1.6597 -2.1361 -0.014431 1.6604 -2.1337 -0.018599 1.6608 -2.1315 -0.014309 1.6195 -2.1265 -0.033372 1.6215 -2.1247 -0.036329 1.6203 -2.1228 -0.033037 1.7308 -2.1497 -0.070725 1.7331 -2.1524 -0.076321 1.7738 -2.1891 -0.040557 1.7729 -2.1869 -0.03531 1.7362 -2.1472 -0.073886 1.7772 -2.1849 -0.038771 1.8121 -2.2251 -0.029704 1.8146 -2.2236 -0.025789 1.8156 -2.2218 -0.030205 1.8494 -2.2607 -0.053758 1.8524 -2.2594 -0.051484 1.8517 -2.2577 -0.055035 -2.1837 -1.5751 -0.098344 -2.1972 -1.5795 -0.099936 -2.2052 -1.5855 -0.008377 -2.1933 -1.5816 -0.0070896 -2.1937 -1.5934 -0.10041 -2.2021 -1.5977 -0.0087585 -2.1802 -1.5889 -0.098822 -2.1902 -1.5938 -0.0074711 -2.2118 -1.5904 0.083428 -2.2015 -1.587 0.084342 -2.2091 -1.6009 0.083167 -2.1988 -1.5975 0.084081 -2.2169 -1.5942 0.17544 -2.2082 -1.5913 0.17604 -2.2146 -1.6031 0.17527 -2.206 -1.6002 0.17588 -2.2206 -1.5969 0.26765 -2.2135 -1.5946 0.268 -2.2187 -1.6041 0.26756 -2.2117 -1.6018 0.26792 -2.2228 -1.5986 0.36004 -2.2174 -1.5968 0.36026 -2.2214 -1.6041 0.35999 -2.216 -1.6023 0.36022 -2.1887 -1.5842 -0.099379 -2.2194 -1.6004 0.36013 2.8768 -1.5446 -0.043075 2.8752 -1.5495 -0.042782 2.8756 -1.547 -0.0076474 2.877 -1.5428 -0.0077833 2.8801 -1.5509 -0.042696 2.8799 -1.5482 -0.0075296 2.8817 -1.546 -0.042989 2.8813 -1.544 -0.0076655 2.8749 -1.546 0.027576 2.8761 -1.5423 0.027668 2.8787 -1.5471 0.027749 2.8799 -1.5434 0.027842 2.8732 -1.5464 0.062981 2.8742 -1.5433 0.063234 2.8764 -1.5473 0.063186 2.8774 -1.5442 0.063439 2.8704 -1.5482 0.098569 2.8713 -1.5457 0.098914 2.873 -1.5489 0.098781 2.8738 -1.5464 0.099126 2.8666 -1.5515 0.13437 2.8672 -1.5495 0.13469 2.8686 -1.552 0.13455 2.8692 -1.5501 0.13487 2.8784 -1.5477 -0.042886 2.8679 -1.5508 0.13462 0.85162 -1.336 -0.028345 0.84332 -1.3347 -0.027953 0.84581 -1.3414 0.031975 0.85311 -1.3425 0.031747 0.8419 -1.343 -0.028735 0.84456 -1.3486 0.031312 0.8502 -1.3443 -0.029127 0.85187 -1.3498 0.031084 0.84683 -1.3475 0.091989 0.85314 -1.3485 0.091995 0.84575 -1.3537 0.091462 0.85206 -1.3548 0.091467 0.84639 -1.353 0.15217 0.85171 -1.3539 0.15235 0.84548 -1.3583 0.15177 0.85079 -1.3592 0.15194 0.84449 -1.358 0.21252 0.8488 -1.3587 0.2128 0.84374 -1.3623 0.21222 0.84805 -1.363 0.2125 0.84112 -1.3624 0.27308 0.84443 -1.3629 0.27334 0.84054 -1.3657 0.27286 0.84385 -1.3662 0.27312 0.84676 -1.3395 -0.02854 0.84248 -1.3643 0.2731 -1.0177 -1.9667 -0.077317 -1.0193 -1.9694 -0.073237 -1.0108 -1.9283 -0.039728 -1.0092 -1.9267 -0.043586 -1.0146 -1.9695 -0.074484 -1.0067 -1.9287 -0.040639 -1.0024 -1.8854 -0.026891 -1.0006 -1.8858 -0.030183 -0.99889 -1.8862 -0.026805 -0.99383 -1.8414 -0.041203 -0.99214 -1.8424 -0.043541 -0.99099 -1.8418 -0.04071 -1.0177 -1.9667 -0.077288 -1.0194 -1.9698 -0.073631 -1.0222 -1.9333 -0.040315 -1.0206 -1.9311 -0.043873 -1.0146 -1.9691 -0.07412 -1.018 -1.9328 -0.040675 -1.0251 -1.8949 -0.027494 -1.0232 -1.8948 -0.03079 -1.0215 -1.8947 -0.027416 -1.0278 -1.8552 -0.041997 -1.0261 -1.8559 -0.044445 -1.025 -1.855 -0.041743 -1.018 -1.9661 -0.073563 -1.0184 -1.971 -0.074234 -0.98735 -1.9782 -0.044135 -0.98719 -1.9741 -0.043035 -1.0153 -1.9685 -0.077242 -0.98532 -1.9755 -0.046835 -0.95638 -1.9833 -0.036228 -0.95589 -1.9825 -0.032526 -0.9558 -1.9799 -0.035227 -0.92623 -1.9862 -0.05345 -0.92508 -1.9873 -0.050781 -0.92503 -1.9844 -0.051377 -1.0178 -1.9664 -0.07697 -1.0193 -1.9701 -0.073836 -1.0223 -1.9436 -0.04113 -1.0208 -1.941 -0.044378 -1.0146 -1.9691 -0.074232 -1.0182 -1.9429 -0.041457 -1.0254 -1.9152 -0.028904 -1.0236 -1.9151 -0.032189 -1.0219 -1.9148 -0.02881 -1.0284 -1.8855 -0.044144 -1.0267 -1.8864 -0.046465 -1.0256 -1.8851 -0.043882 -1.0178 -1.9668 -0.072732 -1.0192 -1.969 -0.077119 -1.0352 -2.0059 -0.048562 -1.0339 -2.0047 -0.044437 -1.0147 -1.9699 -0.075188 -1.0314 -2.0071 -0.047138 -1.0515 -2.0409 -0.039657 -1.0498 -2.0422 -0.036556 -1.0483 -2.0425 -0.040033 -1.0676 -2.0751 -0.058274 -1.0659 -2.0769 -0.056462 -1.065 -2.0759 -0.05927 1.483 -2.0445 -0.073306 1.4807 -2.0422 -0.067851 1.5253 -2.0761 -0.032291 1.5264 -2.078 -0.037377 1.4785 -2.0476 -0.070143 1.523 -2.0807 -0.034045 1.5714 -2.1069 -0.021925 1.5701 -2.1084 -0.026188 1.5691 -2.1108 -0.022343 1.6182 -2.1335 -0.044599 1.6162 -2.1347 -0.047631 1.6164 -2.1368 -0.04444 1.483 -2.0446 -0.073272 1.4802 -2.0419 -0.068284 1.5243 -2.0601 -0.030644 1.526 -2.0623 -0.035414 1.479 -2.0479 -0.069745 1.5231 -2.0653 -0.031824 1.5699 -2.0752 -0.017985 1.5692 -2.0769 -0.0223 1.5687 -2.0796 -0.018509 1.6164 -2.0861 -0.038592 1.6148 -2.0875 -0.041792 1.6155 -2.0898 -0.038794 1.4838 -2.0452 -0.068765 1.4784 -2.0424 -0.069073 1.4579 -2.0825 -0.037198 1.4627 -2.0847 -0.036258 1.48 -2.0467 -0.073463 1.4602 -2.0857 -0.041056 1.4394 -2.1194 -0.032399 1.4402 -2.121 -0.028067 1.4431 -2.1218 -0.031587 1.423 -2.1517 -0.058117 1.4213 -2.1531 -0.054981 1.4247 -2.1543 -0.055969 1.4834 -2.0446 -0.072896 1.4798 -2.0418 -0.068521 1.5124 -2.0554 -0.030698 1.5148 -2.0577 -0.035114 1.479 -2.0479 -0.069883 1.5115 -2.0606 -0.031852 1.5468 -2.0659 -0.017847 1.546 -2.0676 -0.02215 1.5457 -2.0703 -0.01836 1.5817 -2.0721 -0.038427 1.5799 -2.0735 -0.041466 1.581 -2.0758 -0.038628 1.4831 -2.0453 -0.06773 1.4809 -2.0418 -0.072617 1.446 -2.0118 -0.032034 1.4469 -2.0146 -0.027359 1.4782 -2.0472 -0.070954 1.443 -2.0161 -0.030845 1.4127 -1.9787 -0.015411 1.4105 -1.9808 -0.011822 1.4095 -1.9819 -0.016272 1.3796 -1.9412 -0.032246 1.3769 -1.9428 -0.030174 1.3775 -1.9439 -0.033824 0.95004 -1.8097 -0.062838 0.95227 -1.811 -0.058034 0.90291 -1.8073 -0.030099 0.90171 -1.8059 -0.034491 0.95206 -1.8061 -0.059475 0.90303 -1.803 -0.031114 0.85539 -1.8042 -0.024219 0.85614 -1.8023 -0.027678 0.85572 -1.8004 -0.024113 0.81134 -1.8014 -0.047133 0.81257 -1.7996 -0.049478 0.81139 -1.7984 -0.046627 0.95 -1.8097 -0.062812 0.95282 -1.811 -0.058368 0.9096 -1.8184 -0.029483 0.90782 -1.8171 -0.033648 0.95154 -1.8061 -0.059167 0.90864 -1.8142 -0.030083 0.86818 -1.8265 -0.022469 0.86842 -1.8246 -0.026017 0.86748 -1.8228 -0.022544 0.83011 -1.8349 -0.044458 0.831 -1.8331 -0.046979 0.82942 -1.832 -0.044332 0.94881 -1.81 -0.058979 0.95403 -1.8098 -0.05883 0.95225 -1.7762 -0.026941 0.94774 -1.7766 -0.026503 0.95153 -1.807 -0.062538 0.94962 -1.7745 -0.030324 0.95218 -1.7432 -0.018774 0.95061 -1.7427 -0.015036 0.94838 -1.743 -0.018331 0.95436 -1.7116 -0.037407 0.95487 -1.7103 -0.034448 0.95195 -1.7106 -0.03558 0.94967 -1.8099 -0.062523 0.95311 -1.8109 -0.058542 0.92042 -1.8172 -0.028562 0.91811 -1.8161 -0.03248 0.95158 -1.8061 -0.059282 0.91924 -1.813 -0.029163 0.88936 -1.8242 -0.020467 0.88961 -1.8223 -0.024 0.88852 -1.8205 -0.020547 0.86181 -1.8315 -0.0415 0.86287 -1.8295 -0.043855 0.86098 -1.8286 -0.041389 0.94928 -1.8097 -0.058003 0.95257 -1.8109 -0.062185 0.98765 -1.8223 -0.025263 0.98558 -1.821 -0.02116 0.95252 -1.8062 -0.060159 0.98819 -1.8181 -0.02368 1.0243 -1.8343 -0.0093359 1.0249 -1.8323 -0.0059009 1.0256 -1.8308 -0.0095707 1.0649 -1.8467 -0.022534 1.0662 -1.8447 -0.020377 1.0656 -1.8438 -0.023523 -6.8094 2.6331 -0.1184 -6.8066 2.6376 -0.11869 -6.8038 2.6377 -0.083063 -6.8062 2.6337 -0.082685 -6.8112 2.6404 -0.11828 -6.8078 2.6402 -0.08266 -6.814 2.6358 -0.11799 -6.8103 2.6361 -0.082282 -6.7995 2.6389 -0.04757 -6.8016 2.6355 -0.047032 -6.803 2.6411 -0.04715 -6.8051 2.6376 -0.046612 -6.7938 2.6413 -0.012118 -6.7956 2.6384 -0.01149 -6.7967 2.6432 -0.011707 -6.7985 2.6402 -0.011078 -6.7867 2.6449 0.023291 -6.7881 2.6426 0.023941 -6.7891 2.6464 0.02367 -6.7905 2.6441 0.024319 -6.7781 2.6497 0.05869 -6.7792 2.6479 0.059242 -6.7799 2.6509 0.058998 -6.781 2.6491 0.05955 -6.8103 2.6367 -0.11834 -6.7796 2.6494 0.05912</float_array><technique_common><accessor source="#weeds_-02-02_solid-pos-a" count="896" stride="3"><param name="X" type="float"/><param name="Y" type="float"/><param name="Z" type="float"/></accessor></technique_common></source>
        <source id="weeds_-02-02_solid-nrm"><float_array id="weeds_-02-02_solid-nrm-a" count="2688">0.646 0.474 0.599 -0.499 0.669 0.55 -0.564 0.825 -0.038 0.822 0.564 0.071 -0.718 -0.471 0.512 -0.818 -0.573 -0.046 0.422 -0.667 0.614 0.568 -0.82 0.065 -0.562 0.825 -0.062 0.821 0.564 0.086 -0.818 -0.572 -0.061 0.565 -0.82 0.089 -0.558 0.825 -0.086 0.82 0.564 0.1 -0.817 -0.572 -0.075 0.561 -0.82 0.113 -0.554 0.825 -0.11 0.818 0.564 0.115 -0.816 -0.571 -0.09 0.556 -0.82 0.137 -0.356 0.654 -0.668 0.779 0.452 -0.435 -0.596 -0.505 -0.625 0.555 -0.703 -0.444 -0.066 0.002 0.998 0.177 -0.045 -0.983 0.783 -0.198 0.59 0.206 0.78 0.591 0.256 0.967 -0.011 0.966 -0.257 0.018 -0.776 0.209 0.595 -0.969 0.248 0.009 -0.198 -0.768 0.609 -0.249 -0.968 0.038 0.257 0.966 -0.036 0.966 -0.257 0.034 -0.969 0.248 -0.007 -0.25 -0.966 0.064 0.258 0.964 -0.062 0.965 -0.256 0.05 -0.968 0.248 -0.023 -0.251 -0.964 0.089 0.259 0.962 -0.087 0.964 -0.256 0.066 -0.968 0.248 -0.039 -0.253 -0.961 0.114 0.225 0.711 -0.666 0.809 -0.273 -0.52 -0.774 0.139 -0.618 -0.193 -0.852 -0.487 0.006 0.01 1 0.03 -0.117 -0.993 -0.747 -0.266 0.609 0.23 -0.851 0.471 0.228 -0.963 -0.142 -0.97 -0.234 0.064 0.827 0.126 0.548 0.967 0.251 -0.034 -0.151 0.712 0.686 -0.236 0.957 0.168 0.222 -0.957 -0.189 -0.968 -0.237 0.087 0.966 0.252 -0.057 -0.229 0.949 0.215 0.214 -0.948 -0.234 -0.965 -0.24 0.11 0.964 0.254 -0.08 -0.22 0.94 0.26 0.203 -0.939 -0.278 -0.961 -0.243 0.133 0.961 0.255 -0.103 -0.209 0.93 0.303 0.052 -0.611 -0.79 -0.904 -0.05 -0.425 0.678 0.363 -0.639 -0.278 0.921 -0.274 0.068 -0.119 0.99 -0.2 0.276 -0.94 -0.259 -0.774 0.579 0.79 -0.295 0.538 0.93 -0.361 -0.069 -0.364 -0.931 0.034 0.326 0.76 0.562 0.347 0.938 -0.008 -0.721 0.282 0.634 -0.931 0.351 0.096 0.925 -0.363 -0.117 -0.362 -0.93 0.057 0.347 0.938 -0.03 -0.925 0.352 0.143 0.917 -0.365 -0.163 -0.36 -0.929 0.08 0.346 0.937 -0.052 -0.915 0.355 0.19 0.906 -0.368 -0.208 -0.357 -0.928 0.102 0.345 0.936 -0.074 -0.904 0.359 0.234 0.588 -0.307 -0.748 -0.437 -0.78 -0.449 0.145 0.773 -0.618 -0.89 0.294 -0.348 0.059 -0.011 0.998 -0.266 -0.012 -0.964 0.62 0.325 0.714 -0.383 0.77 0.509 -0.357 0.928 -0.108 0.917 0.369 0.153 -0.819 -0.259 0.512 -0.918 -0.378 -0.123 0.191 -0.705 0.683 0.359 -0.923 0.136 -0.353 0.926 -0.133 0.914 0.369 0.17 -0.915 -0.378 -0.14 0.353 -0.922 0.161 -0.347 0.925 -0.158 0.91 0.37 0.187 -0.912 -0.378 -0.157 0.347 -0.919 0.186 -0.34 0.922 -0.182 0.906 0.371 0.204 -0.909 -0.379 -0.174 0.34 -0.917 0.21 -0.129 0.672 -0.729 0.875 0.23 -0.425 -0.572 -0.368 -0.733 0.418 -0.818 -0.396 -0.159 0.053 0.986 0.244 -0.118 -0.963 -0.243 0.67 -0.702 -0.709 -0.255 0.658 -0.719 -0.094 0.688 -0.209 0.51 -0.835 0.916 -0.395 0.077 0.858 -0.431 0.281 -0.763 0.301 0.572 0.007 -0.065 -0.998 0.782 -0.199 0.591 -0.847 0.457 0.272 0.087 -0.425 -0.901 0.805 -0.037 0.592 -0.381 0.778 0.499 -0.132 -0.956 0.261 -0.06 -0.986 0.153 -0.339 0.555 0.76 0.57 0.193 -0.798 0.377 0.482 -0.791 -0.07 -0.925 -0.373 0.071 -0.004 0.997 0.047 0.95 -0.309 -0.242 -0.633 -0.735 0.341 -0.434 0.834 -0.069 0.993 -0.095 -0.299 0.661 -0.688 -0.598 -0.747 0.29 -0.564 -0.697 0.442 -0.217 0.503 -0.836 0.898 0.102 0.428 0.826 0.152 0.543 -0.698 -0.37 0.613 0.041 -0.066 -0.997 0.617 0.488 0.617 -0.856 -0.248 0.454 0.227 -0.436 -0.871 0.61 0.691 0.387 -0.241 0.563 -0.79 -0.683 -0.606 0.407 -0.67 -0.536 0.513 -0.174 0.408 -0.896 0.915 0.061 0.399 0.855 0.096 0.51 -0.768 -0.255 0.587 0.03 -0.059 -0.998 0.72 0.356 0.596 -0.887 -0.147 0.439 0.157 -0.353 -0.922 0.725 0.516 0.456 -0.716 -0.451 0.533 0.404 -0.621 0.672 0.578 -0.811 0.096 -0.813 -0.582 -0.036 0.597 0.503 0.625 0.804 0.591 0.062 -0.526 0.674 0.519 -0.586 0.807 -0.069 0.579 -0.812 0.071 -0.814 -0.581 -0.021 0.806 0.59 0.046 -0.587 0.808 -0.044 0.58 -0.813 0.045 -0.815 -0.58 -0.005 0.808 0.589 0.031 -0.587 0.809 -0.018 0.58 -0.814 0.02 -0.815 -0.579 0.01 0.809 0.588 0.015 -0.586 0.81 0.007 0.47 -0.663 -0.583 -0.673 -0.484 -0.559 0.669 0.479 -0.568 -0.479 0.662 -0.577 -0.102 0.045 0.994 -0.005 -0.005 -1 -0.714 -0.431 0.551 0.41 -0.76 0.504 0.48 -0.876 -0.053 -0.878 -0.479 0.001 0.747 0.362 0.557 0.88 0.474 0.023 -0.378 0.689 0.619 -0.473 0.878 0.078 0.48 -0.876 -0.045 -0.878 -0.478 -0.015 0.88 0.473 0.039 -0.473 0.878 0.07 0.479 -0.877 -0.037 -0.879 -0.477 -0.031 0.88 0.472 0.055 -0.473 0.879 0.062 0.478 -0.878 -0.029 -0.879 -0.475 -0.047 0.879 0.471 0.071 -0.472 0.88 0.054 0.427 -0.7 -0.573 -0.716 -0.364 -0.595 0.766 0.432 -0.476 -0.37 0.776 -0.512 0.029 -0.063 0.998 0.054 0.067 -0.996 0.081 0.957 -0.278 -0.551 -0.239 0.8 -0.326 -0.567 0.757 -0.097 0.989 0.111 0.473 -0.737 -0.483 0.407 -0.527 -0.746 -0.016 -0.993 0.121 0.066 0.542 0.838 0.016 0.636 -0.772 -0.029 -0.876 -0.482 0.319 0.011 0.948 -0.254 0.868 -0.427 -0.014 0.611 0.791 -0.858 -0.36 -0.368 -0.902 -0.257 -0.348 -0.03 0.44 0.898 0.878 -0.265 -0.399 0.924 -0.125 -0.36 -0.923 -0.068 -0.379 -0.03 -0.085 0.996 0.948 0.103 -0.302 -0.855 0.11 -0.507 -0.029 -0.408 0.913 0.883 0.263 -0.389 0.025 0.989 -0.146 -0.471 -0.615 -0.632 -0.327 -0.855 -0.402 0.025 0.936 -0.35 0.432 -0.405 0.805 0.347 -0.051 0.937 -0.249 -0.934 0.257 0.174 0.38 -0.909 0.03 0.55 0.834 -0.293 -0.86 0.418 0.368 -0.022 -0.93 -0.078 0.884 0.46 0.019 0.976 -0.218 -0.533 -0.653 -0.538 -0.386 -0.871 -0.305 0.034 0.913 -0.407 0.503 -0.346 0.792 0.415 -0.009 0.91 -0.32 -0.9 0.295 0.203 0.35 -0.914 0.064 0.553 0.831 -0.372 -0.843 0.389 0.419 -0.037 -0.907 -0.048 0.884 0.465 0.258 -0.675 0.692 0.745 0.308 0.592 0.947 0.318 -0.04 0.318 -0.942 0.108 -0.245 0.791 0.561 -0.328 0.941 -0.078 -0.73 -0.193 0.656 -0.944 -0.321 0.07 0.947 0.314 -0.067 0.319 -0.94 0.126 -0.328 0.94 -0.096 -0.943 -0.317 0.097 0.946 0.31 -0.094 0.319 -0.937 0.143 -0.328 0.938 -0.113 -0.942 -0.312 0.124 0.945 0.305 -0.121 0.319 -0.934 0.161 -0.327 0.936 -0.13 -0.94 -0.307 0.15 0.695 0.135 -0.706 0.212 -0.851 -0.48 -0.3 0.631 -0.716 -0.803 -0.349 -0.483 0.01 0.091 0.996 -0.076 -0.172 -0.982 0.553 -0.374 -0.744 0.391 0.62 0.68 0.478 0.509 0.716 0.431 -0.265 -0.862 -0.958 -0.278 0.071 -0.932 -0.208 0.298 0.738 0.251 0.627 -0.018 0.03 -0.999 -0.716 -0.323 0.619 0.928 0.188 0.322 -0.258 0.248 -0.934 -0.643 -0.455 0.616 0.724 -0.37 0.582 -0.42 0.865 0.276 -0.5 0.852 0.155 0.531 -0.203 0.823 -0.311 -0.488 -0.816 -0.027 -0.589 -0.808 -0.438 0.784 -0.44 -0.071 -0.026 0.997 0.489 -0.807 -0.331 -0.122 0.611 -0.782 -0.493 0.128 0.861 0.618 -0.781 -0.088 0.595 -0.333 -0.731 0.072 0.951 0.301 0.068 0.884 0.462 0.435 -0.255 -0.864 -0.643 -0.621 0.448 -0.559 -0.607 0.565 0.327 0.701 0.634 -0.043 0.011 -0.999 -0.232 -0.726 0.648 0.516 0.711 0.478 -0.371 0.174 -0.912 -0.123 -0.898 0.423 0.488 -0.288 -0.824 0.206 0.882 0.424 0.228 0.815 0.533 0.349 -0.208 -0.914 -0.679 -0.604 0.418 -0.612 -0.586 0.532 0.439 0.659 0.611 -0.032 0.012 -0.999 -0.374 -0.689 0.621 0.593 0.657 0.466 -0.272 0.153 -0.95 -0.299 -0.822 0.484 0.71 0.058 -0.702 -0.1 0.758 0.644 0.047 0.73 0.682 0.549 0.064 -0.834 -0.579 -0.813 0.068 -0.608 -0.744 0.277 0.429 0.683 0.591 -0.027 -0 -1 -0.376 -0.712 0.593 0.612 0.734 0.296 -0.38 0.016 -0.925 -0.229 -0.771 0.595 0.814 0.185 0.551 -0.888 0.394 0.237 -0.936 0.33 0.125 0.569 0.199 0.798 0.078 -0.611 -0.788 0.385 -0.5 -0.776 -0.85 0.315 -0.422 -0.052 -0.058 0.997 0.907 -0.307 -0.289 -0.506 0.395 -0.767 -0.507 -0.215 0.835 0.978 -0.201 -0.065 0.715 0.118 -0.689 -0.564 0.782 0.264 -0.531 0.737 0.419 0.545 0.075 -0.835 -0.117 -0.894 0.433 -0.059 -0.834 0.548 -0.205 0.776 0.596 -0.036 -0.033 -0.999 0.288 -0.718 0.634 -0.055 0.896 0.441 -0.423 -0.12 -0.898 0.486 -0.77 0.414 0.607 0.084 -0.79 -0.417 0.823 0.385 -0.359 0.793 0.492 0.446 0.056 -0.893 -0.156 -0.902 0.403 -0.116 -0.85 0.514 -0.085 0.815 0.574 -0.026 -0.024 -0.999 0.147 -0.782 0.606 0.044 0.902 0.43 -0.328 -0.071 -0.942 0.296 -0.83 0.473 0.876 0.068 0.477 -0.026 0.836 0.548 -0.082 0.996 0.019 0.994 0.081 -0.069 -0.797 -0.066 0.601 -0.993 -0.078 0.092 0.107 -0.833 0.543 0.076 -0.997 0.006 -0.081 0.996 0.026 0.993 0.081 -0.084 -0.991 -0.078 0.107 0.075 -0.997 -0.002 -0.079 0.996 0.034 0.992 0.081 -0.099 -0.989 -0.077 0.123 0.074 -0.997 -0.009 -0.078 0.996 0.041 0.99 0.081 -0.115 -0.987 -0.078 0.138 0.073 -0.997 -0.017 -0.145 0.858 -0.493 0.768 0.083 -0.635 -0.916 -0.052 -0.398 -0.019 -0.834 -0.552 0.075 0.002 0.997 -0.155 0.028 -0.988 -0.772 -0.081 0.631 0.102 -0.763 0.638 0.109 -0.994 0.01 -0.993 -0.107 0.047 0.799 0.098 0.593 0.993 0.118 -0.018 -0.074 0.779 0.622 -0.116 0.993 0.02 0.108 -0.994 -0.017 -0.992 -0.107 0.064 0.992 0.117 -0.035 -0.114 0.992 0.047 0.106 -0.993 -0.045 -0.991 -0.107 0.08 0.992 0.117 -0.052 -0.111 0.991 0.074 0.103 -0.992 -0.072 -0.989 -0.107 0.097 0.991 0.116 -0.068 -0.108 0.989 0.101 0.027 -0.735 -0.678 -0.854 -0.051 -0.518 0.741 0.128 -0.659 -0.138 0.834 -0.534 0.022 0.014 1 -0.09 0.066 -0.994 0.798 -0.444 -0.408 0.068 0.448 0.891 -0.292 0.4 0.869 0.935 -0.352 0.055 -0.853 -0.055 -0.52 -0.625 -0.044 -0.78 -0.876 0.426 0.227 0.434 -0.373 0.82 0.481 -0.161 -0.862 -0.759 0.458 -0.463 -0.09 -0.384 0.919 0.849 -0.071 -0.523 0.528 -0.33 0.783 0.065 0.957 -0.282 0.171 0.949 -0.264 0.389 -0.256 0.885 -0.618 -0.609 -0.497 -0.521 -0.711 -0.472 0.336 0.89 -0.308 -0.02 -0.068 0.998 -0.342 -0.834 -0.432 0.444 0.767 -0.462 -0.276 0.062 0.959 -0.184 -0.828 -0.53 0.866 -0.429 -0.256 -0.327 0.744 -0.583 -0.607 0.715 -0.346 0.796 -0.37 -0.479 -0.478 -0.312 0.821 -0.15 -0.382 0.912 -0.698 0.594 0.4 0.194 -0.171 -0.966 0.456 -0.346 0.82 -0.594 0.568 0.57 -0.199 -0.175 -0.964 0.816 -0.362 0.45 0.85 -0.405 -0.337 -0.333 0.812 -0.479 -0.596 0.769 -0.232 0.763 -0.357 -0.538 -0.46 -0.393 0.796 -0.147 -0.453 0.88 -0.63 0.636 0.446 0.158 -0.183 -0.97 0.444 -0.376 0.813 -0.544 0.637 0.546 -0.231 -0.215 -0.949 0.802 -0.39 0.452 0.685 0.429 0.588 -0.428 0.665 0.612 -0.53 0.848 0.004 0.848 0.529 0.032 -0.694 -0.44 0.569 -0.843 -0.537 -0.006 0.418 -0.676 0.607 0.536 -0.844 0.025 -0.529 0.848 -0.022 0.848 0.528 0.048 -0.843 -0.537 -0.021 0.534 -0.844 0.051 -0.527 0.849 -0.048 0.847 0.528 0.063 -0.843 -0.536 -0.037 0.531 -0.844 0.076 -0.524 0.849 -0.074 0.846 0.528 0.078 -0.843 -0.535 -0.052 0.527 -0.844 0.102 -0.355 0.659 -0.664 0.76 0.421 -0.495 -0.638 -0.46 -0.617 0.491 -0.708 -0.508 -0.008 -0.01 1 0.111 -0.034 -0.993 -0.437 -0.657 0.615 0.69 -0.487 0.535 0.806 -0.59 -0.051 -0.59 -0.806 0.042 0.502 0.639 0.583 0.582 0.813 -0.014 -0.628 0.47 0.62 -0.808 0.584 0.076 0.804 -0.59 -0.074 -0.589 -0.806 0.058 0.582 0.813 -0.03 -0.806 0.584 0.1 0.801 -0.59 -0.098 -0.587 -0.806 0.075 0.581 0.812 -0.046 -0.802 0.584 0.124 0.798 -0.59 -0.122 -0.585 -0.806 0.091 0.58 0.812 -0.062 -0.798 0.584 0.148 0.566 -0.474 -0.674 -0.574 -0.645 -0.505 0.375 0.671 -0.64 -0.753 0.5 -0.429 0.053 -0.015 0.998 -0.169 0.025 -0.985 -0.634 0.087 -0.769 -0.008 -0.832 0.555 -0.091 -0.784 0.614 -0.483 0.053 -0.874 0.609 0.767 0.2 0.598 0.711 0.369 -0.376 -0.703 0.603 -0.022 0.002 -1 0.382 0.718 0.582 -0.548 -0.738 0.394 0.262 -0.062 -0.963 0.271 0.8 0.535 -0.654 0.07 -0.753 0.145 -0.888 0.436 0.087 -0.842 0.533 -0.494 0.049 -0.868 0.467 0.831 0.303 0.441 0.779 0.446 -0.198 -0.779 0.595 -0.014 0.012 -1 0.186 0.775 0.604 -0.363 -0.835 0.413 0.297 -0.031 -0.954 0.056 0.866 0.497 -0.847 0.006 0.532 0.689 -0.691 0.22 0.763 -0.632 0.134 -0.591 -0.102 0.8 0.145 0.692 -0.707 -0.179 0.659 -0.731 0.671 -0.597 -0.439 0.119 0.062 0.991 -0.767 0.608 -0.204 0.24 -0.583 -0.776 0.638 0.128 0.76 -0.87 0.493 0.026 -0.759 0.071 -0.647 0.231 -0.898 0.375 0.177 -0.847 0.501 -0.588 0.051 -0.808 0.477 0.838 0.266 0.462 0.777 0.428 -0.176 -0.766 0.619 -0.005 0.014 -1 0.141 0.761 0.633 -0.38 -0.841 0.385 0.404 -0.039 -0.914 -0.028 0.879 0.475 -0.612 0.059 0.789 -0.102 -0.75 -0.654 -0.319 -0.738 -0.594 -0.398 0.072 0.915 0.717 0.691 -0.094 0.696 0.706 -0.126 -0.64 -0.701 -0.313 0.118 -0.085 0.989 0.563 0.733 -0.381 -0.75 -0.606 -0.264 0.45 -0.157 0.879 0.314 0.733 -0.603 0.323 0.664 0.674 -0.773 0.362 0.521 -0.877 0.479 -0.041 0.474 0.874 0.103 -0.44 -0.735 0.516 -0.48 -0.874 -0.076 0.661 -0.43 0.615 0.871 -0.487 0.066 -0.877 0.479 -0.033 0.476 0.875 0.085 -0.482 -0.874 -0.058 0.872 -0.486 0.058 -0.877 0.479 -0.025 0.478 0.876 0.068 -0.483 -0.875 -0.041 0.872 -0.486 0.05 -0.877 0.479 -0.017 0.479 0.876 0.05 -0.484 -0.875 -0.023 0.873 -0.486 0.042 -0.709 0.411 -0.573 0.412 0.722 -0.556 -0.373 -0.705 -0.603 0.75 -0.393 -0.532 -0.098 -0.059 0.993 0.035 0.017 -0.999 -0.397 0.767 0.504 -0.724 -0.355 0.591 -0.883 -0.469 0.02 -0.466 0.884 -0.033 0.395 -0.699 0.596 0.483 -0.874 0.057 0.725 0.425 0.542 0.878 0.48 0.004 -0.883 -0.469 -0.025 -0.465 0.885 -0.011 0.482 -0.875 0.036 0.877 0.478 0.05 -0.882 -0.466 -0.07 -0.465 0.885 0.01 0.481 -0.877 0.015 0.875 0.474 0.095 -0.88 -0.46 -0.114 -0.465 0.885 0.032 0.48 -0.877 -0.006 0.873 0.468 0.139 -0.668 -0.32 -0.672 -0.329 0.803 -0.497 0.471 -0.685 -0.556 0.793 0.447 -0.415 -0.001 0.06 0.998 0.126 0.122 -0.985 0.699 0.433 0.569 -0.471 0.623 0.624 -0.578 0.809 0.103 0.817 0.575 0.049 -0.663 -0.541 0.517 -0.81 -0.586 -0.027 0.506 -0.733 0.454 0.585 -0.807 -0.079 -0.578 0.812 0.081 0.817 0.574 0.063 -0.81 -0.585 -0.041 0.584 -0.81 -0.058 -0.578 0.814 0.06 0.816 0.572 0.078 -0.811 -0.583 -0.055 0.582 -0.812 -0.036 -0.576 0.817 0.038 0.816 0.571 0.092 -0.811 -0.581 -0.068 0.58 -0.814 -0.014 -0.449 0.73 -0.515 0.733 0.512 -0.448 -0.648 -0.464 -0.603 0.532 -0.661 -0.529 0.031 -0.1 0.995 0.089 0.051 -0.995 -0.14 0.654 -0.743 -0.798 -0.272 0.537 -0.784 -0.173 0.597 -0.12 0.499 -0.858 0.923 -0.335 0.188 0.872 -0.343 0.348 -0.801 0.14 0.582 -0.005 0.013 -1 0.818 -0.129 0.561 -0.88 0.292 0.375 0.035 -0.299 -0.954 0.857 0.009 0.516 -0.163 0.668 -0.726 -0.793 -0.442 0.419 -0.773 -0.369 0.515 -0.128 0.508 -0.851 0.942 -0.176 0.287 0.889 -0.167 0.426 -0.815 -0.064 0.577 0.007 0.009 -1 0.807 0.086 0.585 -0.915 0.08 0.396 0.077 -0.323 -0.943 0.843 0.245 0.479 -0.282 0.82 0.498 -0.404 -0.892 0.204 -0.322 -0.939 0.123 -0.304 0.559 0.772 0.718 0.086 -0.691 0.573 0.401 -0.715 -0.323 -0.851 -0.414 0.103 -0.091 0.99 0.299 0.935 -0.188 -0.475 -0.449 -0.757 0.346 -0.585 0.734 0.156 0.987 0.026 -0.196 0.763 -0.615 -0.769 -0.529 0.359 -0.745 -0.46 0.483 -0.158 0.599 -0.785 0.95 -0.183 0.251 0.893 -0.189 0.408 -0.795 -0.081 0.601 0.013 -0.001 -1 0.779 0.127 0.615 -0.925 0.094 0.368 0.107 -0.43 -0.896 0.825 0.332 0.457 -0.159 0.632 0.758 -0.755 -0.163 -0.635 -0.816 0.06 -0.574 -0.073 0.436 0.897 0.882 -0.463 -0.09 0.89 -0.439 -0.12 -0.874 0.386 -0.294 -0.041 -0.142 0.989 0.88 -0.308 -0.363 -0.817 0.521 -0.246 0.008 -0.503 0.864 0.81 -0.068 -0.583 0.648 0.025 -0.761 0.023 0.737 0.675 0.116 0.679 0.724 0.492 0.073 -0.867 -0.643 -0.759 0.098 -0.627 -0.731 0.268 0.425 0.591 0.685 -0.008 0.145 -0.989 -0.395 -0.784 0.478 0.597 0.646 0.475 -0.314 0.202 -0.928 -0.278 -0.864 0.421 0.669 0.038 -0.742 -0.149 0.81 0.567 -0.082 0.75 0.656 0.504 0.076 -0.86 -0.495 -0.848 0.188 -0.463 -0.821 0.335 0.233 0.675 0.7 -0.016 0.136 -0.991 -0.183 -0.851 0.492 0.406 0.751 0.521 -0.352 0.171 -0.92 -0.042 -0.928 0.37 0.878 -0.083 0.471 -0.718 0.619 0.319 -0.789 0.57 0.229 0.646 -0.021 0.763 -0.18 -0.573 -0.8 0.176 -0.538 -0.824 -0.716 0.621 -0.317 -0.098 -0.206 0.974 0.791 -0.538 -0.291 -0.288 0.681 -0.673 -0.652 -0.227 0.723 0.888 -0.456 -0.061 0.772 0.021 -0.635 -0.245 0.826 0.508 -0.182 0.758 0.626 0.601 0.064 -0.797 -0.507 -0.849 0.15 -0.486 -0.814 0.318 0.21 0.658 0.723 -0.027 0.134 -0.991 -0.132 -0.843 0.522 0.423 0.76 0.493 -0.461 0.172 -0.87 0.05 -0.938 0.344 0.666 -0.17 0.726 0.088 0.835 -0.543 0.328 0.809 -0.488 0.455 -0.203 0.867 -0.755 -0.633 -0.171 -0.737 -0.644 -0.205 0.671 0.71 -0.216 -0.098 -0.063 0.993 -0.612 -0.643 -0.461 0.777 0.602 -0.182 -0.459 0.026 0.888 -0.359 -0.624 -0.694 -0.505 -0.231 -0.831 0.279 -0.756 0.593 0.17 -0.754 0.635 -0.336 -0.194 -0.922 0.18 0.962 0.206 0.169 0.915 0.366 -0.132 -0.81 0.571 0.153 -0.018 -0.988 -0.069 0.838 0.541 -0.236 -0.908 0.346 0.449 0.062 -0.892 -0.201 0.858 0.473 -0.518 -0.256 -0.816 0.463 -0.729 0.504 0.374 -0.719 0.586 -0.346 -0.203 -0.916 0.007 0.961 0.277 -0.018 0.911 0.412 0.071 -0.798 0.598 0.156 -0.005 -0.988 -0.281 0.8 0.53 -0.028 -0.915 0.402 0.466 0.108 -0.878 -0.423 0.814 0.399 -0.851 -0.379 0.363 0.889 -0.289 0.355 0.938 -0.202 0.281 -0.639 -0.367 0.676 -0.061 0.7 -0.712 -0.349 0.515 -0.783 0.941 -0.22 -0.255 -0.087 0.127 0.988 -0.922 0.179 -0.344 0.626 -0.428 -0.652 0.412 0.43 0.804 -0.99 0.033 -0.139 -0.626 -0.299 -0.72 0.554 -0.695 0.458 0.464 -0.679 0.568 -0.442 -0.243 -0.863 0.018 0.97 0.243 0.006 0.917 0.398 0.081 -0.777 0.625 0.165 0.002 -0.986 -0.323 0.768 0.553 -0.036 -0.927 0.373 0.559 0.152 -0.815 -0.502 0.784 0.364 -0.728 -0.23 0.646 0.358 -0.74 -0.569 0.138 -0.828 -0.543 -0.569 -0.118 0.814 0.356 0.934 -0.041 0.337 0.939 -0.075 -0.219 -0.922 -0.32 -0.018 -0.013 1 0.249 0.91 -0.331 -0.367 -0.882 -0.297 0.353 0.081 0.932 0.061 0.81 -0.584 0.245 -0.794 0.556 0.844 0.195 0.5 0.968 0.229 -0.1 0.226 -0.974 0.008 -0.139 0.8 0.584 -0.244 0.97 0.019 -0.738 -0.189 0.648 -0.963 -0.239 0.126 0.963 0.226 -0.146 0.228 -0.973 0.031 -0.245 0.97 -0.003 -0.957 -0.235 0.172 0.956 0.22 -0.191 0.23 -0.972 0.054 -0.245 0.969 -0.025 -0.949 -0.228 0.217 0.948 0.213 -0.235 0.233 -0.97 0.076 -0.246 0.968 -0.047 -0.94 -0.22 0.26 0.641 0.097 -0.762 0.059 -0.881 -0.468 -0.342 0.729 -0.593 -0.916 -0.254 -0.31 0.092 0.006 0.996 -0.254 -0.143 -0.957</float_array><technique_common><accessor source="#weeds_-02-02_solid-nrm-a" count="896" stride="3"><param name="X" type="float"/><param name="Y" type="float"/><param name="Z" type="float"/></accessor></technique_common></source>
        <vertices id="weeds_-02-02_solid-vtx"><input semantic="POSITION" source="#weeds_-02-02_solid-pos"/></vertices>
        <triangles count="1488" material="MAT_WEED_STEM-mat"><input semantic="VERTEX" source="#weeds_-02-02_solid-vtx" offset="0"/><input semantic="NORMAL" source="#weeds_-02-02_solid-nrm" offset="1"/><p>0 0 1 1 2 2 0 0 2 2 3 3 1 1 4 4 5 5 1 1 5 5 2 2 4 4 6 6 7 7 4 4 7 7 5 5 6 6 0 0 3 3 6 6 3 3 7 7 3 3 2 2 8 8 3 3 8 8 9 9 2 2 5 5 10 10 2 2 10 10 8 8 5 5 7 7 11 11 5 5 11 11 10 10 7 7 3 3 9 9 7 7 9 9 11 11 9 9 8 8 12 12 9 9 12 12 13 13 8 8 10 10 14 14 8 8 14 14 12 12 10 10 11 11 15 15 10 10 15 15 14 14 11 11 9 9 13 13 11 11 13 13 15 15 13 13 12 12 16 16 13 13 16 16 17 17 12 12 14 14 18 18 12 12 18 18 16 16 14 14 15 15 19 19 14 14 19 19 18 18 15 15 13 13 17 17 15 15 17 17 19 19 17 17 16 16 20 20 17 17 20 20 21 21 16 16 18 18 22 22 16 16 22 22 20 20 18 18 19 19 23 23 18 18 23 23 22 22 19 19 17 17 21 21 19 19 21 21 23 23 0 0 1 1 24 24 1 1 4 4 24 24 4 4 6 6 24 24 6 6 0 0 24 24 20 20 21 21 25 25 22 22 20 20 25 25 23 23 22 22 25 25 21 21 23 23 25 25 26 26 27 27 28 28 26 26 28 28 29 29 27 27 30 30 31 31 27 27 31 31 28 28 30 30 32 32 33 33 30 30 33 33 31 31 32 32 26 26 29 29 32 32 29 29 33 33 29 29 28 28 34 34 29 29 34 34 35 35 28 28 31 31 36 36 28 28 36 36 34 34 31 31 33 33 37 37 31 31 37 37 36 36 33 33 29 29 35 35 33 33 35 35 37 37 35 35 34 34 38 38 35 35 38 38 39 39 34 34 36 36 40 40 34 34 40 40 38 38 36 36 37 37 41 41 36 36 41 41 40 40 37 37 35 35 39 39 37 37 39 39 41 41 39 39 38 38 42 42 39 39 42 42 43 43 38 38 40 40 44 44 38 38 44 44 42 42 40 40 41 41 45 45 40 40 45 45 44 44 41 41 39 39 43 43 41 41 43 43 45 45 43 43 42 42 46 46 43 43 46 46 47 47 42 42 44 44 48 48 42 42 48 48 46 46 44 44 45 45 49 49 44 44 49 49 48 48 45 45 43 43 47 47 45 45 47 47 49 49 26 26 27 27 50 50 27 27 30 30 50 50 30 30 32 32 50 50 32 32 26 26 50 50 46 46 47 47 51 51 48 48 46 46 51 51 49 49 48 48 51 51 47 47 49 49 51 51 52 52 53 53 54 54 52 52 54 54 55 55 53 53 56 56 57 57 53 53 57 57 54 54 56 56 58 58 59 59 56 56 59 59 57 57 58 58 52 52 55 55 58 58 55 55 59 59 55 55 54 54 60 60 55 55 60 60 61 61 54 54 57 57 62 62 54 54 62 62 60 60 57 57 59 59 63 63 57 57 63 63 62 62 59 59 55 55 61 61 59 59 61 61 63 63 61 61 60 60 64 64 61 61 64 64 65 65 60 60 62 62 66 66 60 60 66 66 64 64 62 62 63 63 67 67 62 62 67 67 66 66 63 63 61 61 65 65 63 63 65 65 67 67 65 65 64 64 68 68 65 65 68 68 69 69 64 64 66 66 70 70 64 64 70 70 68 68 66 66 67 67 71 71 66 66 71 71 70 70 67 67 65 65 69 69 67 67 69 69 71 71 69 69 68 68 72 72 69 69 72 72 73 73 68 68 70 70 74 74 68 68 74 74 72 72 70 70 71 71 75 75 70 70 75 75 74 74 71 71 69 69 73 73 71 71 73 73 75 75 52 52 53 53 76 76 53 53 56 56 76 76 56 56 58 58 76 76 58 58 52 52 76 76 72 72 73 73 77 77 74 74 72 72 77 77 75 75 74 74 77 77 73 73 75 75 77 77 78 78 79 79 80 80 78 78 80 80 81 81 79 79 82 82 83 83 79 79 83 83 80 80 82 82 84 84 85 85 82 82 85 85 83 83 84 84 78 78 81 81 84 84 81 81 85 85 81 81 80 80 86 86 81 81 86 86 87 87 80 80 83 83 88 88 80 80 88 88 86 86 83 83 85 85 89 89 83 83 89 89 88 88 85 85 81 81 87 87 85 85 87 87 89 89 87 87 86 86 90 90 87 87 90 90 91 91 86 86 88 88 92 92 86 86 92 92 90 90 88 88 89 89 93 93 88 88 93 93 92 92 89 89 87 87 91 91 89 89 91 91 93 93 91 91 90 90 94 94 91 91 94 94 95 95 90 90 92 92 96 96 90 90 96 96 94 94 92 92 93 93 97 97 92 92 97 97 96 96 93 93 91 91 95 95 93 93 95 95 97 97 95 95 94 94 98 98 95 95 98 98 99 99 94 94 96 96 100 100 94 94 100 100 98 98 96 96 97 97 101 101 96 96 101 101 100 100 97 97 95 95 99 99 97 97 99 99 101 101 78 78 79 79 102 102 79 79 82 82 102 102 82 82 84 84 102 102 84 84 78 78 102 102 98 98 99 99 103 103 100 100 98 98 103 103 101 101 100 100 103 103 99 99 101 101 103 103 104 104 105 105 106 106 104 104 106 106 107 107 105 105 108 108 109 109 105 105 109 109 106 106 108 108 110 110 111 111 108 108 111 111 109 109 110 110 104 104 107 107 110 110 107 107 111 111 107 107 106 106 112 112 107 107 112 112 113 113 106 106 109 109 114 114 106 106 114 114 112 112 109 109 111 111 115 115 109 109 115 115 114 114 111 111 107 107 113 113 111 111 113 113 115 115 113 113 112 112 116 116 113 113 116 116 117 117 112 112 114 114 118 118 112 112 118 118 116 116 114 114 115 115 119 119 114 114 119 119 118 118 115 115 113 113 117 117 115 115 117 117 119 119 117 117 116 116 120 120 117 117 120 120 121 121 116 116 118 118 122 122 116 116 122 122 120 120 118 118 119 119 123 123 118 118 123 123 122 122 119 119 117 117 121 121 119 119 121 121 123 123 121 121 120 120 124 124 121 121 124 124 125 125 120 120 122 122 126 126 120 120 126 126 124 124 122 122 123 123 127 127 122 122 127 127 126 126 123 123 121 121 125 125 123 123 125 125 127 127 104 104 105 105 128 128 105 105 108 108 128 128 108 108 110 110 128 128 110 110 104 104 128 128 124 124 125 125 129 129 126 126 124 124 129 129 127 127 126 126 129 129 125 125 127 127 129 129 130 130 131 131 132 132 130 130 132 132 133 133 131 131 134 134 135 135 131 131 135 135 132 132 134 134 130 130 133 133 134 134 133 133 135 135 133 133 132 132 136 136 133 133 136 136 137 137 132 132 135 135 138 138 132 132 138 138 136 136 135 135 133 133 137 137 135 135 137 137 138 138 137 137 136 136 139 139 137 137 139 139 140 140 136 136 138 138 141 141 136 136 141 141 139 139 138 138 137 137 140 140 138 138 140 140 141 141 142 142 143 143 144 144 142 142 144 144 145 145 143 143 146 146 147 147 143 143 147 147 144 144 146 146 142 142 145 145 146 146 145 145 147 147 145 145 144 144 148 148 145 145 148 148 149 149 144 144 147 147 150 150 144 144 150 150 148 148 147 147 145 145 149 149 147 147 149 149 150 150 149 149 148 148 151 151 149 149 151 151 152 152 148 148 150 150 153 153 148 148 153 153 151 151 150 150 149 149 152 152 150 150 152 152 153 153 154 154 155 155 156 156 154 154 156 156 157 157 155 155 158 158 159 159 155 155 159 159 156 156 158 158 154 154 157 157 158 158 157 157 159 159 157 157 156 156 160 160 157 157 160 160 161 161 156 156 159 159 162 162 156 156 162 162 160 160 159 159 157 157 161 161 159 159 161 161 162 162 161 161 160 160 163 163 161 161 163 163 164 164 160 160 162 162 165 165 160 160 165 165 163 163 162 162 161 161 164 164 162 162 164 164 165 165 166 166 167 167 168 168 166 166 168 168 169 169 167 167 170 170 171 171 167 167 171 171 168 168 170 170 166 166 169 169 170 170 169 169 171 171 169 169 168 168 172 172 169 169 172 172 173 173 168 168 171 171 174 174 168 168 174 174 172 172 171 171 169 169 173 173 171 171 173 173 174 174 173 173 172 172 175 175 173 173 175 175 176 176 172 172 174 174 177 177 172 172 177 177 175 175 174 174 173 173 176 176 174 174 176 176 177 177 178 178 179 179 180 180 178 178 180 180 181 181 179 179 182 182 183 183 179 179 183 183 180 180 182 182 184 184 185 185 182 182 185 185 183 183 184 184 178 178 181 181 184 184 181 181 185 185 181 181 180 180 186 186 181 181 186 186 187 187 180 180 183 183 188 188 180 180 188 188 186 186 183 183 185 185 189 189 183 183 189 189 188 188 185 185 181 181 187 187 185 185 187 187 189 189 187 187 186 186 190 190 187 187 190 190 191 191 186 186 188 188 192 192 186 186 192 192 190 190 188 188 189 189 193 193 188 188 193 193 192 192 189 189 187 187 191 191 189 189 191 191 193 193 191 191 190 190 194 194 191 191 194 194 195 195 190 190 192 192 196 196 190 190 196 196 194 194 192 192 193 193 197 197 192 192 197 197 196 196 193 193 191 191 195 195 193 193 195 195 197 197 195 195 194 194 198 198 195 195 198 198 199 199 194 194 196 196 200 200 194 194 200 200 198 198 196 196 197 197 201 201 196 196 201 201 200 200 197 197 195 195 199 199 197 197 199 199 201 201 178 178 179 179 202 202 179 179 182 182 202 202 182 182 184 184 202 202 184 184 178 178 202 202 198 198 199 199 203 203 200 200 198 198 203 203 201 201 200 200 203 203 199 199 201 201 203 203 204 204 205 205 206 206 204 204 206 206 207 207 205 205 208 208 209 209 205 205 209 209 206 206 208 208 210 210 211 211 208 208 211 211 209 209 210 210 204 204 207 207 210 210 207 207 211 211 207 207 206 206 212 212 207 207 212 212 213 213 206 206 209 209 214 214 206 206 214 214 212 212 209 209 211 211 215 215 209 209 215 215 214 214 211 211 207 207 213 213 211 211 213 213 215 215 213 213 212 212 216 216 213 213 216 216 217 217 212 212 214 214 218 218 212 212 218 218 216 216 214 214 215 215 219 219 214 214 219 219 218 218 215 215 213 213 217 217 215 215 217 217 219 219 217 217 216 216 220 220 217 217 220 220 221 221 216 216 218 218 222 222 216 216 222 222 220 220 218 218 219 219 223 223 218 218 223 223 222 222 219 219 217 217 221 221 219 219 221 221 223 223 221 221 220 220 224 224 221 221 224 224 225 225 220 220 222 222 226 226 220 220 226 226 224 224 222 222 223 223 227 227 222 222 227 227 226 226 223 223 221 221 225 225 223 223 225 225 227 227 204 204 205 205 228 228 205 205 208 208 228 228 208 208 210 210 228 228 210 210 204 204 228 228 224 224 225 225 229 229 226 226 224 224 229 229 227 227 226 226 229 229 225 225 227 227 229 229 230 230 231 231 232 232 230 230 232 232 233 233 231 231 234 234 235 235 231 231 235 235 232 232 234 234 230 230 233 233 234 234 233 233 235 235 233 233 232 232 236 236 233 233 236 236 237 237 232 232 235 235 238 238 232 232 238 238 236 236 235 235 233 233 237 237 235 235 237 237 238 238 237 237 236 236 239 239 237 237 239 239 240 240 236 236 238 238 241 241 236 236 241 241 239 239 238 238 237 237 240 240 238 238 240 240 241 241 242 242 243 243 244 244 242 242 244 244 245 245 243 243 246 246 247 247 243 243 247 247 244 244 246 246 242 242 245 245 246 246 245 245 247 247 245 245 244 244 248 248 245 245 248 248 249 249 244 244 247 247 250 250 244 244 250 250 248 248 247 247 245 245 249 249 247 247 249 249 250 250 249 249 248 248 251 251 249 249 251 251 252 252 248 248 250 250 253 253 248 248 253 253 251 251 250 250 249 249 252 252 250 250 252 252 253 253 254 254 255 255 256 256 254 254 256 256 257 257 255 255 258 258 259 259 255 255 259 259 256 256 258 258 254 254 257 257 258 258 257 257 259 259 257 257 256 256 260 260 257 257 260 260 261 261 256 256 259 259 262 262 256 256 262 262 260 260 259 259 257 257 261 261 259 259 261 261 262 262 261 261 260 260 263 263 261 261 263 263 264 264 260 260 262 262 265 265 260 260 265 265 263 263 262 262 261 261 264 264 262 262 264 264 265 265 266 266 267 267 268 268 266 266 268 268 269 269 267 267 270 270 271 271 267 267 271 271 268 268 270 270 266 266 269 269 270 270 269 269 271 271 269 269 268 268 272 272 269 269 272 272 273 273 268 268 271 271 274 274 268 268 274 274 272 272 271 271 269 269 273 273 271 271 273 273 274 274 273 273 272 272 275 275 273 273 275 275 276 276 272 272 274 274 277 277 272 272 277 277 275 275 274 274 273 273 276 276 274 274 276 276 277 277 278 278 279 279 280 280 278 278 280 280 281 281 279 279 282 282 283 283 279 279 283 283 280 280 282 282 284 284 285 285 282 282 285 285 283 283 284 284 278 278 281 281 284 284 281 281 285 285 281 281 280 280 286 286 281 281 286 286 287 287 280 280 283 283 288 288 280 280 288 288 286 286 283 283 285 285 289 289 283 283 289 289 288 288 285 285 281 281 287 287 285 285 287 287 289 289 287 287 286 286 290 290 287 287 290 290 291 291 286 286 288 288 292 292 286 286 292 292 290 290 288 288 289 289 293 293 288 288 293 293 292 292 289 289 287 287 291 291 289 289 291 291 293 293 291 291 290 290 294 294 291 291 294 294 295 295 290 290 292 292 296 296 290 290 296 296 294 294 292 292 293 293 297 297 292 292 297 297 296 296 293 293 291 291 295 295 293 293 295 295 297 297 295 295 294 294 298 298 295 295 298 298 299 299 294 294 296 296 300 300 294 294 300 300 298 298 296 296 297 297 301 301 296 296 301 301 300 300 297 297 295 295 299 299 297 297 299 299 301 301 278 278 279 279 302 302 279 279 282 282 302 302 282 282 284 284 302 302 284 284 278 278 302 302 298 298 299 299 303 303 300 300 298 298 303 303 301 301 300 300 303 303 299 299 301 301 303 303 304 304 305 305 306 306 304 304 306 306 307 307 305 305 308 308 309 309 305 305 309 309 306 306 308 308 304 304 307 307 308 308 307 307 309 309 307 307 306 306 310 310 307 307 310 310 311 311 306 306 309 309 312 312 306 306 312 312 310 310 309 309 307 307 311 311 309 309 311 311 312 312 311 311 310 310 313 313 311 311 313 313 314 314 310 310 312 312 315 315 310 310 315 315 313 313 312 312 311 311 314 314 312 312 314 314 315 315 316 316 317 317 318 318 316 316 318 318 319 319 317 317 320 320 321 321 317 317 321 321 318 318 320 320 316 316 319 319 320 320 319 319 321 321 319 319 318 318 322 322 319 319 322 322 323 323 318 318 321 321 324 324 318 318 324 324 322 322 321 321 319 319 323 323 321 321 323 323 324 324 323 323 322 322 325 325 323 323 325 325 326 326 322 322 324 324 327 327 322 322 327 327 325 325 324 324 323 323 326 326 324 324 326 326 327 327 328 328 329 329 330 330 328 328 330 330 331 331 329 329 332 332 333 333 329 329 333 333 330 330 332 332 328 328 331 331 332 332 331 331 333 333 331 331 330 330 334 334 331 331 334 334 335 335 330 330 333 333 336 336 330 330 336 336 334 334 333 333 331 331 335 335 333 333 335 335 336 336 335 335 334 334 337 337 335 335 337 337 338 338 334 334 336 336 339 339 334 334 339 339 337 337 336 336 335 335 338 338 336 336 338 338 339 339 340 340 341 341 342 342 340 340 342 342 343 343 341 341 344 344 345 345 341 341 345 345 342 342 344 344 340 340 343 343 344 344 343 343 345 345 343 343 342 342 346 346 343 343 346 346 347 347 342 342 345 345 348 348 342 342 348 348 346 346 345 345 343 343 347 347 345 345 347 347 348 348 347 347 346 346 349 349 347 347 349 349 350 350 346 346 348 348 351 351 346 346 351 351 349 349 348 348 347 347 350 350 348 348 350 350 351 351 352 352 353 353 354 354 352 352 354 354 355 355 353 353 356 356 357 357 353 353 357 357 354 354 356 356 352 352 355 355 356 356 355 355 357 357 355 355 354 354 358 358 355 355 358 358 359 359 354 354 357 357 360 360 354 354 360 360 358 358 357 357 355 355 359 359 357 357 359 359 360 360 359 359 358 358 361 361 359 359 361 361 362 362 358 358 360 360 363 363 358 358 363 363 361 361 360 360 359 359 362 362 360 360 362 362 363 363 364 364 365 365 366 366 364 364 366 366 367 367 365 365 368 368 369 369 365 365 369 369 366 366 368 368 364 364 367 367 368 368 367 367 369 369 367 367 366 366 370 370 367 367 370 370 371 371 366 366 369 369 372 372 366 366 372 372 370 370 369 369 367 367 371 371 369 369 371 371 372 372 371 371 370 370 373 373 371 371 373 373 374 374 370 370 372 372 375 375 370 370 375 375 373 373 372 372 371 371 374 374 372 372 374 374 375 375 376 376 377 377 378 378 376 376 378 378 379 379 377 377 380 380 381 381 377 377 381 381 378 378 380 380 376 376 379 379 380 380 379 379 381 381 379 379 378 378 382 382 379 379 382 382 383 383 378 378 381 381 384 384 378 378 384 384 382 382 381 381 379 379 383 383 381 381 383 383 384 384 383 383 382 382 385 385 383 383 385 385 386 386 382 382 384 384 387 387 382 382 387 387 385 385 384 384 383 383 386 386 384 384 386 386 387 387 388 388 389 389 390 390 388 388 390 390 391 391 389 389 392 392 393 393 389 389 393 393 390 390 392 392 388 388 391 391 392 392 391 391 393 393 391 391 390 390 394 394 391 391 394 394 395 395 390 390 393 393 396 396 390 390 396 396 394 394 393 393 391 391 395 395 393 393 395 395 396 396 395 395 394 394 397 397 395 395 397 397 398 398 394 394 396 396 399 399 394 394 399 399 397 397 396 396 395 395 398 398 396 396 398 398 399 399 400 400 401 401 402 402 400 400 402 402 403 403 401 401 404 404 405 405 401 401 405 405 402 402 404 404 406 406 407 407 404 404 407 407 405 405 406 406 400 400 403 403 406 406 403 403 407 407 403 403 402 402 408 408 403 403 408 408 409 409 402 402 405 405 410 410 402 402 410 410 408 408 405 405 407 407 411 411 405 405 411 411 410 410 407 407 403 403 409 409 407 407 409 409 411 411 409 409 408 408 412 412 409 409 412 412 413 413 408 408 410 410 414 414 408 408 414 414 412 412 410 410 411 411 415 415 410 410 415 415 414 414 411 411 409 409 413 413 411 411 413 413 415 415 413 413 412 412 416 416 413 413 416 416 417 417 412 412 414 414 418 418 412 412 418 418 416 416 414 414 415 415 419 419 414 414 419 419 418 418 415 415 413 413 417 417 415 415 417 417 419 419 417 417 416 416 420 420 417 417 420 420 421 421 416 416 418 418 422 422 416 416 422 422 420 420 418 418 419 419 423 423 418 418 423 423 422 422 419 419 417 417 421 421 419 419 421 421 423 423 400 400 401 401 424 424 401 401 404 404 424 424 404 404 406 406 424 424 406 406 400 400 424 424 420 420 421 421 425 425 422 422 420 420 425 425 423 423 422 422 425 425 421 421 423 423 425 425 426 426 427 427 428 428 426 426 428 428 429 429 427 427 430 430 431 431 427 427 431 431 428 428 430 430 432 432 433 433 430 430 433 433 431 431 432 432 426 426 429 429 432 432 429 429 433 433 429 429 428 428 434 434 429 429 434 434 435 435 428 428 431 431 436 436 428 428 436 436 434 434 431 431 433 433 437 437 431 431 437 437 436 436 433 433 429 429 435 435 433 433 435 435 437 437 435 435 434 434 438 438 435 435 438 438 439 439 434 434 436 436 440 440 434 434 440 440 438 438 436 436 437 437 441 441 436 436 441 441 440 440 437 437 435 435 439 439 437 437 439 439 441 441 439 439 438 438 442 442 439 439 442 442 443 443 438 438 440 440 444 444 438 438 444 444 442 442 440 440 441 441 445 445 440 440 445 445 444 444 441 441 439 439 443 443 441 441 443 443 445 445 443 443 442 442 446 446 443 443 446 446 447 447 442 442 444 444 448 448 442 442 448 448 446 446 444 444 445 445 449 449 444 444 449 449 448 448 445 445 443 443 447 447 445 445 447 447 449 449 426 426 427 427 450 450 427 427 430 430 450 450 430 430 432 432 450 450 432 432 426 426 450 450 446 446 447 447 451 451 448 448 446 446 451 451 449 449 448 448 451 451 447 447 449 449 451 451 452 452 453 453 454 454 452 452 454 454 455 455 453 453 456 456 457 457 453 453 457 457 454 454 456 456 452 452 455 455 456 456 455 455 457 457 455 455 454 454 458 458 455 455 458 458 459 459 454 454 457 457 460 460 454 454 460 460 458 458 457 457 455 455 459 459 457 457 459 459 460 460 459 459 458 458 461 461 459 459 461 461 462 462 458 458 460 460 463 463 458 458 463 463 461 461 460 460 459 459 462 462 460 460 462 462 463 463 464 464 465 465 466 466 464 464 466 466 467 467 465 465 468 468 469 469 465 465 469 469 466 466 468 468 464 464 467 467 468 468 467 467 469 469 467 467 466 466 470 470 467 467 470 470 471 471 466 466 469 469 472 472 466 466 472 472 470 470 469 469 467 467 471 471 469 469 471 471 472 472 471 471 470 470 473 473 471 471 473 473 474 474 470 470 472 472 475 475 470 470 475 475 473 473 472 472 471 471 474 474 472 472 474 474 475 475 476 476 477 477 478 478 476 476 478 478 479 479 477 477 480 480 481 481 477 477 481 481 478 478 480 480 476 476 479 479 480 480 479 479 481 481 479 479 478 478 482 482 479 479 482 482 483 483 478 478 481 481 484 484 478 478 484 484 482 482 481 481 479 479 483 483 481 481 483 483 484 484 483 483 482 482 485 485 483 483 485 485 486 486 482 482 484 484 487 487 482 482 487 487 485 485 484 484 483 483 486 486 484 484 486 486 487 487 488 488 489 489 490 490 488 488 490 490 491 491 489 489 492 492 493 493 489 489 493 493 490 490 492 492 488 488 491 491 492 492 491 491 493 493 491 491 490 490 494 494 491 491 494 494 495 495 490 490 493 493 496 496 490 490 496 496 494 494 493 493 491 491 495 495 493 493 495 495 496 496 495 495 494 494 497 497 495 495 497 497 498 498 494 494 496 496 499 499 494 494 499 499 497 497 496 496 495 495 498 498 496 496 498 498 499 499 500 500 501 501 502 502 500 500 502 502 503 503 501 501 504 504 505 505 501 501 505 505 502 502 504 504 506 506 507 507 504 504 507 507 505 505 506 506 500 500 503 503 506 506 503 503 507 507 503 503 502 502 508 508 503 503 508 508 509 509 502 502 505 505 510 510 502 502 510 510 508 508 505 505 507 507 511 511 505 505 511 511 510 510 507 507 503 503 509 509 507 507 509 509 511 511 509 509 508 508 512 512 509 509 512 512 513 513 508 508 510 510 514 514 508 508 514 514 512 512 510 510 511 511 515 515 510 510 515 515 514 514 511 511 509 509 513 513 511 511 513 513 515 515 513 513 512 512 516 516 513 513 516 516 517 517 512 512 514 514 518 518 512 512 518 518 516 516 514 514 515 515 519 519 514 514 519 519 518 518 515 515 513 513 517 517 515 515 517 517 519 519 517 517 516 516 520 520 517 517 520 520 521 521 516 516 518 518 522 522 516 516 522 522 520 520 518 518 519 519 523 523 518 518 523 523 522 522 519 519 517 517 521 521 519 519 521 521 523 523 500 500 501 501 524 524 501 501 504 504 524 524 504 504 506 506 524 524 506 506 500 500 524 524 520 520 521 521 525 525 522 522 520 520 525 525 523 523 522 522 525 525 521 521 523 523 525 525 526 526 527 527 528 528 526 526 528 528 529 529 527 527 530 530 531 531 527 527 531 531 528 528 530 530 532 532 533 533 530 530 533 533 531 531 532 532 526 526 529 529 532 532 529 529 533 533 529 529 528 528 534 534 529 529 534 534 535 535 528 528 531 531 536 536 528 528 536 536 534 534 531 531 533 533 537 537 531 531 537 537 536 536 533 533 529 529 535 535 533 533 535 535 537 537 535 535 534 534 538 538 535 535 538 538 539 539 534 534 536 536 540 540 534 534 540 540 538 538 536 536 537 537 541 541 536 536 541 541 540 540 537 537 535 535 539 539 537 537 539 539 541 541 539 539 538 538 542 542 539 539 542 542 543 543 538 538 540 540 544 544 538 538 544 544 542 542 540 540 541 541 545 545 540 540 545 545 544 544 541 541 539 539 543 543 541 541 543 543 545 545 543 543 542 542 546 546 543 543 546 546 547 547 542 542 544 544 548 548 542 542 548 548 546 546 544 544 545 545 549 549 544 544 549 549 548 548 545 545 543 543 547 547 545 545 547 547 549 549 526 526 527 527 550 550 527 527 530 530 550 550 530 530 532 532 550 550 532 532 526 526 550 550 546 546 547 547 551 551 548 548 546 546 551 551 549 549 548 548 551 551 547 547 549 549 551 551 552 552 553 553 554 554 552 552 554 554 555 555 553 553 556 556 557 557 553 553 557 557 554 554 556 556 552 552 555 555 556 556 555 555 557 557 555 555 554 554 558 558 555 555 558 558 559 559 554 554 557 557 560 560 554 554 560 560 558 558 557 557 555 555 559 559 557 557 559 559 560 560 559 559 558 558 561 561 559 559 561 561 562 562 558 558 560 560 563 563 558 558 563 563 561 561 560 560 559 559 562 562 560 560 562 562 563 563 564 564 565 565 566 566 564 564 566 566 567 567 565 565 568 568 569 569 565 565 569 569 566 566 568 568 564 564 567 567 568 568 567 567 569 569 567 567 566 566 570 570 567 567 570 570 571 571 566 566 569 569 572 572 566 566 572 572 570 570 569 569 567 567 571 571 569 569 571 571 572 572 571 571 570 570 573 573 571 571 573 573 574 574 570 570 572 572 575 575 570 570 575 575 573 573 572 572 571 571 574 574 572 572 574 574 575 575 576 576 577 577 578 578 576 576 578 578 579 579 577 577 580 580 581 581 577 577 581 581 578 578 580 580 576 576 579 579 580 580 579 579 581 581 579 579 578 578 582 582 579 579 582 582 583 583 578 578 581 581 584 584 578 578 584 584 582 582 581 581 579 579 583 583 581 581 583 583 584 584 583 583 582 582 585 585 583 583 585 585 586 586 582 582 584 584 587 587 582 582 587 587 585 585 584 584 583 583 586 586 584 584 586 586 587 587 588 588 589 589 590 590 588 588 590 590 591 591 589 589 592 592 593 593 589 589 593 593 590 590 592 592 588 588 591 591 592 592 591 591 593 593 591 591 590 590 594 594 591 591 594 594 595 595 590 590 593 593 596 596 590 590 596 596 594 594 593 593 591 591 595 595 593 593 595 595 596 596 595 595 594 594 597 597 595 595 597 597 598 598 594 594 596 596 599 599 594 594 599 599 597 597 596 596 595 595 598 598 596 596 598 598 599 599 600 600 601 601 602 602 600 600 602 602 603 603 601 601 604 604 605 605 601 601 605 605 602 602 604 604 600 600 603 603 604 604 603 603 605 605 603 603 602 602 606 606 603 603 606 606 607 607 602 602 605 605 608 608 602 602 608 608 606 606 605 605 603 603 607 607 605 605 607 607 608 608 607 607 606 606 609 609 607 607 609 609 610 610 606 606 608 608 611 611 606 606 611 611 609 609 608 608 607 607 610 610 608 608 610 610 611 611 612 612 613 613 614 614 612 612 614 614 615 615 613 613 616 616 617 617 613 613 617 617 614 614 616 616 618 618 619 619 616 616 619 619 617 617 618 618 612 612 615 615 618 618 615 615 619 619 615 615 614 614 620 620 615 615 620 620 621 621 614 614 617 617 622 622 614 614 622 622 620 620 617 617 619 619 623 623 617 617 623 623 622 622 619 619 615 615 621 621 619 619 621 621 623 623 621 621 620 620 624 624 621 621 624 624 625 625 620 620 622 622 626 626 620 620 626 626 624 624 622 622 623 623 627 627 622 622 627 627 626 626 623 623 621 621 625 625 623 623 625 625 627 627 625 625 624 624 628 628 625 625 628 628 629 629 624 624 626 626 630 630 624 624 630 630 628 628 626 626 627 627 631 631 626 626 631 631 630 630 627 627 625 625 629 629 627 627 629 629 631 631 629 629 628 628 632 632 629 629 632 632 633 633 628 628 630 630 634 634 628 628 634 634 632 632 630 630 631 631 635 635 630 630 635 635 634 634 631 631 629 629 633 633 631 631 633 633 635 635 612 612 613 613 636 636 613 613 616 616 636 636 616 616 618 618 636 636 618 618 612 612 636 636 632 632 633 633 637 637 634 634 632 632 637 637 635 635 634 634 637 637 633 633 635 635 637 637 638 638 639 639 640 640 638 638 640 640 641 641 639 639 642 642 643 643 639 639 643 643 640 640 642 642 644 644 645 645 642 642 645 645 643 643 644 644 638 638 641 641 644 644 641 641 645 645 641 641 640 640 646 646 641 641 646 646 647 647 640 640 643 643 648 648 640 640 648 648 646 646 643 643 645 645 649 649 643 643 649 649 648 648 645 645 641 641 647 647 645 645 647 647 649 649 647 647 646 646 650 650 647 647 650 650 651 651 646 646 648 648 652 652 646 646 652 652 650 650 648 648 649 649 653 653 648 648 653 653 652 652 649 649 647 647 651 651 649 649 651 651 653 653 651 651 650 650 654 654 651 651 654 654 655 655 650 650 652 652 656 656 650 650 656 656 654 654 652 652 653 653 657 657 652 652 657 657 656 656 653 653 651 651 655 655 653 653 655 655 657 657 655 655 654 654 658 658 655 655 658 658 659 659 654 654 656 656 660 660 654 654 660 660 658 658 656 656 657 657 661 661 656 656 661 661 660 660 657 657 655 655 659 659 657 657 659 659 661 661 638 638 639 639 662 662 639 639 642 642 662 662 642 642 644 644 662 662 644 644 638 638 662 662 658 658 659 659 663 663 660 660 658 658 663 663 661 661 660 660 663 663 659 659 661 661 663 663 664 664 665 665 666 666 664 664 666 666 667 667 665 665 668 668 669 669 665 665 669 669 666 666 668 668 670 670 671 671 668 668 671 671 669 669 670 670 664 664 667 667 670 670 667 667 671 671 667 667 666 666 672 672 667 667 672 672 673 673 666 666 669 669 674 674 666 666 674 674 672 672 669 669 671 671 675 675 669 669 675 675 674 674 671 671 667 667 673 673 671 671 673 673 675 675 673 673 672 672 676 676 673 673 676 676 677 677 672 672 674 674 678 678 672 672 678 678 676 676 674 674 675 675 679 679 674 674 679 679 678 678 675 675 673 673 677 677 675 675 677 677 679 679 677 677 676 676 680 680 677 677 680 680 681 681 676 676 678 678 682 682 676 676 682 682 680 680 678 678 679 679 683 683 678 678 683 683 682 682 679 679 677 677 681 681 679 679 681 681 683 683 681 681 680 680 684 684 681 681 684 684 685 685 680 680 682 682 686 686 680 680 686 686 684 684 682 682 683 683 687 687 682 682 687 687 686 686 683 683 681 681 685 685 683 683 685 685 687 687 664 664 665 665 688 688 665 665 668 668 688 688 668 668 670 670 688 688 670 670 664 664 688 688 684 684 685 685 689 689 686 686 684 684 689 689 687 687 686 686 689 689 685 685 687 687 689 689 690 690 691 691 692 692 690 690 692 692 693 693 691 691 694 694 695 695 691 691 695 695 692 692 694 694 690 690 693 693 694 694 693 693 695 695 693 693 692 692 696 696 693 693 696 696 697 697 692 692 695 695 698 698 692 692 698 698 696 696 695 695 693 693 697 697 695 695 697 697 698 698 697 697 696 696 699 699 697 697 699 699 700 700 696 696 698 698 701 701 696 696 701 701 699 699 698 698 697 697 700 700 698 698 700 700 701 701 702 702 703 703 704 704 702 702 704 704 705 705 703 703 706 706 707 707 703 703 707 707 704 704 706 706 702 702 705 705 706 706 705 705 707 707 705 705 704 704 708 708 705 705 708 708 709 709 704 704 707 707 710 710 704 704 710 710 708 708 707 707 705 705 709 709 707 707 709 709 710 710 709 709 708 708 711 711 709 709 711 711 712 712 708 708 710 710 713 713 708 708 713 713 711 711 710 710 709 709 712 712 710 710 712 712 713 713 714 714 715 715 716 716 714 714 716 716 717 717 715 715 718 718 719 719 715 715 719 719 716 716 718 718 714 714 717 717 718 718 717 717 719 719 717 717 716 716 720 720 717 717 720 720 721 721 716 716 719 719 722 722 716 716 722 722 720 720 719 719 717 717 721 721 719 719 721 721 722 722 721 721 720 720 723 723 721 721 723 723 724 724 720 720 722 722 725 725 720 720 725 725 723 723 722 722 721 721 724 724 722 722 724 724 725 725 726 726 727 727 728 728 726 726 728 728 729 729 727 727 730 730 731 731 727 727 731 731 728 728 730 730 726 726 729 729 730 730 729 729 731 731 729 729 728 728 732 732 729 729 732 732 733 733 728 728 731 731 734 734 728 728 734 734 732 732 731 731 729 729 733 733 731 731 733 733 734 734 733 733 732 732 735 735 733 733 735 735 736 736 732 732 734 734 737 737 732 732 737 737 735 735 734 734 733 733 736 736 734 734 736 736 737 737 738 738 739 739 740 740 738 738 740 740 741 741 739 739 742 742 743 743 739 739 743 743 740 740 742 742 738 738 741 741 742 742 741 741 743 743 741 741 740 740 744 744 741 741 744 744 745 745 740 740 743 743 746 746 740 740 746 746 744 744 743 743 741 741 745 745 743 743 745 745 746 746 745 745 744 744 747 747 745 745 747 747 748 748 744 744 746 746 749 749 744 744 749 749 747 747 746 746 745 745 748 748 746 746 748 748 749 749 750 750 751 751 752 752 750 750 752 752 753 753 751 751 754 754 755 755 751 751 755 755 752 752 754 754 750 750 753 753 754 754 753 753 755 755 753 753 752 752 756 756 753 753 756 756 757 757 752 752 755 755 758 758 752 752 758 758 756 756 755 755 753 753 757 757 755 755 757 757 758 758 757 757 756 756 759 759 757 757 759 759 760 760 756 756 758 758 761 761 756 756 761 761 759 759 758 758 757 757 760 760 758 758 760 760 761 761 762 762 763 763 764 764 762 762 764 764 765 765 763 763 766 766 767 767 763 763 767 767 764 764 766 766 762 762 765 765 766 766 765 765 767 767 765 765 764 764 768 768 765 765 768 768 769 769 764 764 767 767 770 770 764 764 770 770 768 768 767 767 765 765 769 769 767 767 769 769 770 770 769 769 768 768 771 771 769 769 771 771 772 772 768 768 770 770 773 773 768 768 773 773 771 771 770 770 769 769 772 772 770 770 772 772 773 773 774 774 775 775 776 776 774 774 776 776 777 777 775 775 778 778 779 779 775 775 779 779 776 776 778 778 774 774 777 777 778 778 777 777 779 779 777 777 776 776 780 780 777 777 780 780 781 781 776 776 779 779 782 782 776 776 782 782 780 780 779 779 777 777 781 781 779 779 781 781 782 782 781 781 780 780 783 783 781 781 783 783 784 784 780 780 782 782 785 785 780 780 785 785 783 783 782 782 781 781 784 784 782 782 784 784 785 785 786 786 787 787 788 788 786 786 788 788 789 789 787 787 790 790 791 791 787 787 791 791 788 788 790 790 786 786 789 789 790 790 789 789 791 791 789 789 788 788 792 792 789 789 792 792 793 793 788 788 791 791 794 794 788 788 794 794 792 792 791 791 789 789 793 793 791 791 793 793 794 794 793 793 792 792 795 795 793 793 795 795 796 796 792 792 794 794 797 797 792 792 797 797 795 795 794 794 793 793 796 796 794 794 796 796 797 797 798 798 799 799 800 800 798 798 800 800 801 801 799 799 802 802 803 803 799 799 803 803 800 800 802 802 798 798 801 801 802 802 801 801 803 803 801 801 800 800 804 804 801 801 804 804 805 805 800 800 803 803 806 806 800 800 806 806 804 804 803 803 801 801 805 805 803 803 805 805 806 806 805 805 804 804 807 807 805 805 807 807 808 808 804 804 806 806 809 809 804 804 809 809 807 807 806 806 805 805 808 808 806 806 808 808 809 809 810 810 811 811 812 812 810 810 812 812 813 813 811 811 814 814 815 815 811 811 815 815 812 812 814 814 810 810 813 813 814 814 813 813 815 815 813 813 812 812 816 816 813 813 816 816 817 817 812 812 815 815 818 818 812 812 818 818 816 816 815 815 813 813 817 817 815 815 817 817 818 818 817 817 816 816 819 819 817 817 819 819 820 820 816 816 818 818 821 821 816 816 821 821 819 819 818 818 817 817 820 820 818 818 820 820 821 821 822 822 823 823 824 824 822 822 824 824 825 825 823 823 826 826 827 827 823 823 827 827 824 824 826 826 822 822 825 825 826 826 825 825 827 827 825 825 824 824 828 828 825 825 828 828 829 829 824 824 827 827 830 830 824 824 830 830 828 828 827 827 825 825 829 829 827 827 829 829 830 830 829 829 828 828 831 831 829 829 831 831 832 832 828 828 830 830 833 833 828 828 833 833 831 831 830 830 829 829 832 832 830 830 832 832 833 833 834 834 835 835 836 836 834 834 836 836 837 837 835 835 838 838 839 839 835 835 839 839 836 836 838 838 834 834 837 837 838 838 837 837 839 839 837 837 836 836 840 840 837 837 840 840 841 841 836 836 839 839 842 842 836 836 842 842 840 840 839 839 837 837 841 841 839 839 841 841 842 842 841 841 840 840 843 843 841 841 843 843 844 844 840 840 842 842 845 845 840 840 845 845 843 843 842 842 841 841 844 844 842 842 844 844 845 845 846 846 847 847 848 848 846 846 848 848 849 849 847 847 850 850 851 851 847 847 851 851 848 848 850 850 846 846 849 849 850 850 849 849 851 851 849 849 848 848 852 852 849 849 852 852 853 853 848 848 851 851 854 854 848 848 854 854 852 852 851 851 849 849 853 853 851 851 853 853 854 854 853 853 852 852 855 855 853 853 855 855 856 856 852 852 854 854 857 857 852 852 857 857 855 855 854 854 853 853 856 856 854 854 856 856 857 857 858 858 859 859 860 860 858 858 860 860 861 861 859 859 862 862 863 863 859 859 863 863 860 860 862 862 858 858 861 861 862 862 861 861 863 863 861 861 860 860 864 864 861 861 864 864 865 865 860 860 863 863 866 866 860 860 866 866 864 864 863 863 861 861 865 865 863 863 865 865 866 866 865 865 864 864 867 867 865 865 867 867 868 868 864 864 866 866 869 869 864 864 869 869 867 867 866 866 865 865 868 868 866 866 868 868 869 869 870 870 871 871 872 872 870 870 872 872 873 873 871 871 874 874 875 875 871 871 875 875 872 872 874 874 876 876 877 877 874 874 877 877 875 875 876 876 870 870 873 873 876 876 873 873 877 877 873 873 872 872 878 878 873 873 878 878 879 879 872 872 875 875 880 880 872 872 880 880 878 878 875 875 877 877 881 881 875 875 881 881 880 880 877 877 873 873 879 879 877 877 879 879 881 881 879 879 878 878 882 882 879 879 882 882 883 883 878 878 880 880 884 884 878 878 884 884 882 882 880 880 881 881 885 885 880 880 885 885 884 884 881 881 879 879 883 883 881 881 883 883 885 885 883 883 882 882 886 886 883 883 886 886 887 887 882 882 884 884 888 888 882 882 888 888 886 886 884 884 885 885 889 889 884 884 889 889 888 888 885 885 883 883 887 887 885 885 887 887 889 889 887 887 886 886 890 890 887 887 890 890 891 891 886 886 888 888 892 892 886 886 892 892 890 890 888 888 889 889 893 893 888 888 893 893 892 892 889 889 887 887 891 891 889 889 891 891 893 893 870 870 871 871 894 894 871 871 874 874 894 894 874 874 876 876 894 894 876 876 870 870 894 894 890 890 891 891 895 895 892 892 890 890 895 895 893 893 892 892 895 895 891 891 893 893 895 895</p></triangles>
      </mesh>
    </geometry>
  </library_geometries>
  <library_visual_scenes><visual_scene id="scene" name="scene">
    <node id="weeds_-02-02_solid" name="weeds_-02-02_solid" type="NODE"><instance_geometry url="#weeds_-02-02_solid-mesh"><bind_material><technique_common>
      <instance_material symbol="MAT_WEED_STEM-mat" target="#MAT_WEED_STEM"/>
    </technique_common></bind_material></instance_geometry></node>
  </visual_scene></library_visual_scenes>
  <scene><instance_visual_scene url="#scene"/></scene>
</COLLADA>
