<?xml version="1.0" encoding="utf-8"?>
<COLLADA xmlns="http://www.collada.org/2005/11/COLLADASchema" version="1.4.1">
  <asset>
    <contributor><authoring_tool>VIGIL SIH26126 farm generator</authoring_tool></contributor>
    <unit name="meter" meter="1"/>
    <up_axis>Z_UP</up_axis>
  </asset>
  <library_effects>
    <effect id="MAT_WEED_STEM-fx"><profile_COMMON><technique sid="c"><lambert><diffuse><color>0.0860 0.1040 0.0360 1</color></diffuse></lambert></technique></profile_COMMON></effect>
  </library_effects>
  <library_materials>
    <material id="MAT_WEED_STEM" name="MAT_WEED_STEM"><instance_effect url="#MAT_WEED_STEM-fx"/></material>
  </library_materials>
  <library_geometries>
    <geometry id="weeds_-02+01_solid-mesh" name="weeds_-02+01_solid">
      <mesh>
        <source id="weeds_-02+01_solid-pos"><float_array id="weeds_-02+01_solid-pos-a" count="2220">2.8316 -0.60909 0.025632 2.8353 -0.61808 0.026037 2.8309 -0.61663 0.084245 2.8276 -0.60871 0.083816 2.8446 -0.61535 0.026752 2.8391 -0.61422 0.0849 2.8409 -0.60635 0.026347 2.8358 -0.60631 0.084471 2.8256 -0.61423 0.1424 2.8228 -0.6074 0.14191 2.8327 -0.61215 0.14301 2.8299 -0.60532 0.14252 2.8195 -0.61088 0.20048 2.8172 -0.60514 0.19996 2.8255 -0.60914 0.20103 2.8231 -0.60339 0.20051 2.8126 -0.6066 0.25848 2.8107 -0.60193 0.25797 2.8175 -0.60518 0.25896 2.8156 -0.60051 0.25845 2.8049 -0.60137 0.31639 2.8035 -0.59778 0.31597 2.8087 -0.60028 0.31677 2.8072 -0.59669 0.31634 2.8381 -0.61222 0.026192 2.8061 -0.59903 0.31637 2.0646 -0.64814 0.027282 2.0689 -0.64928 0.027462 2.0667 -0.65259 0.055007 2.0629 -0.65161 0.054944 2.0703 -0.64501 0.028128 2.0679 -0.64884 0.055625 2.0659 -0.64388 0.027948 2.064 -0.64786 0.055563 2.0658 -0.65676 0.082538 2.0624 -0.65593 0.082648 2.0668 -0.65353 0.083128 2.0635 -0.65269 0.083238 2.0661 -0.66177 0.11013 2.0633 -0.66109 0.11036 2.067 -0.65906 0.11067 2.0642 -0.65838 0.1109 2.0677 -0.66765 0.13778 2.0654 -0.66711 0.13807 2.0684 -0.66546 0.13826 2.0661 -0.66492 0.13855 2.0705 -0.67438 0.16551 2.0688 -0.67398 0.16578 2.0711 -0.6727 0.16589 2.0693 -0.6723 0.16616 2.0674 -0.64658 0.027705 2.0699 -0.67334 0.16584 0.60336 -0.59412 0.026908 0.60362 -0.59762 0.031413 0.59714 -0.54992 0.061534 0.5976 -0.54763 0.057256 0.60872 -0.5954 0.029292 0.60189 -0.54857 0.059944 0.59018 -0.50189 0.070847 0.59267 -0.50189 0.067491 0.59459 -0.50138 0.071109 0.58396 -0.45485 0.05347 0.58678 -0.45542 0.051413 0.58734 -0.45406 0.054433 0.60289 -0.59371 0.030792 0.60605 -0.59894 0.030245 0.65059 -0.57661 0.060141 0.64773 -0.57232 0.061311 0.60676 -0.59449 0.026576 0.65019 -0.57258 0.057084 0.69455 -0.55381 0.068202 0.6941 -0.55228 0.071981 0.69256 -0.54985 0.068867 0.73765 -0.53113 0.051228 0.73904 -0.53112 0.054289 0.73706 -0.52826 0.053202 0.60337 -0.59413 0.026892 0.60444 -0.59895 0.030135 0.57337 -0.57962 0.06066 0.57291 -0.57585 0.057338 0.60789 -0.59406 0.030585 0.57622 -0.57529 0.061011 0.54184 -0.55996 0.071199 0.54325 -0.55832 0.067674 0.54408 -0.55617 0.071123 0.51055 -0.54062 0.054346 0.51263 -0.54006 0.051682 0.51249 -0.53759 0.054111 0.60368 -0.5944 0.02659 0.60402 -0.59862 0.03055 0.56765 -0.56549 0.06094 0.56789 -0.56229 0.057158 0.60799 -0.59412 0.030473 0.5711 -0.56161 0.060883 0.53095 -0.53215 0.071147 0.53262 -0.5307 0.06765 0.53388 -0.52888 0.071143 0.49455 -0.49916 0.054236 0.49661 -0.49856 0.051565 0.49694 -0.49647 0.054254 2.1855 -1.9582 0.015722 2.1772 -1.9535 0.014618 2.1747 -1.9443 0.077867 2.182 -1.9484 0.078961 2.1725 -1.9618 0.015737 2.1706 -1.9516 0.078878 2.1808 -1.9665 0.01684 2.1779 -1.9557 0.079973 2.171 -1.9338 0.14085 2.1773 -1.9374 0.14201 2.1674 -1.9401 0.14177 2.1737 -1.9437 0.14293 2.1659 -1.9222 0.20366 2.1712 -1.9252 0.20481 2.1629 -1.9275 0.20447 2.1682 -1.9305 0.20562 2.1595 -1.9094 0.26628 2.1637 -1.9118 0.26736 2.157 -1.9137 0.26697 2.1613 -1.916 0.26805 2.1517 -1.8953 0.32876 2.155 -1.8971 0.32965 2.1498 -1.8986 0.3293 2.1531 -1.9004 0.33019 2.179 -1.96 0.015729 2.1524 -1.8979 0.32947 1.6473 -0.59127 0.02299 1.649 -0.58668 0.028141 1.6597 -0.64751 0.075754 1.6577 -0.65058 0.07086 1.6423 -0.58809 0.027174 1.6538 -0.64826 0.075135 1.6684 -0.71184 0.095633 1.6653 -0.71205 0.091472 1.6633 -0.7119 0.096251 1.6736 -0.77932 0.079095 1.6705 -0.77855 0.076179 1.6695 -0.77956 0.080172 1.6473 -0.59131 0.023029 1.6487 -0.58602 0.027594 1.673 -0.63648 0.073084 1.6712 -0.64028 0.068613 1.6425 -0.58871 0.027682 1.6675 -0.6386 0.073245 1.6952 -0.69045 0.091079 1.6922 -0.69138 0.086933 1.6904 -0.69198 0.091728 1.7139 -0.74779 0.072428 1.7109 -0.74753 0.06938 1.7101 -0.74913 0.073214 1.6484 -0.59186 0.028016 1.6468 -0.58464 0.026893 1.6056 -0.58319 0.071812 1.6074 -0.58923 0.073446 1.6433 -0.58954 0.023397 1.6037 -0.588 0.06858 1.5623 -0.58586 0.086973 1.5625 -0.58705 0.092047 1.5631 -0.59101 0.088516 1.5175 -0.59266 0.068321 1.5158 -0.59133 0.072047 1.5169 -0.59563 0.071347 1.6476 -0.59167 0.023452 1.6485 -0.58568 0.02732 1.6686 -0.62149 0.071641 1.6673 -0.62594 0.067581 1.6424 -0.58869 0.027534 1.6632 -0.6239 0.071848 1.6868 -0.66104 0.088485 1.6839 -0.66195 0.084356 1.6822 -0.66275 0.089158 1.7015 -0.70378 0.068495 1.6983 -0.70325 0.065621 1.6978 -0.70532 0.069294 1.648 -0.59098 0.029138 1.6483 -0.58742 0.022963 1.6585 -0.52716 0.057722 1.6578 -0.52906 0.063502 1.6422 -0.58764 0.026205 1.653 -0.52659 0.060175 1.6669 -0.47046 0.066114 1.6645 -0.46896 0.070496 1.6618 -0.46929 0.066046 1.6717 -0.41641 0.037576 1.6689 -0.4143 0.040207 1.6675 -0.4161 0.036612 0.37474 -1.8276 0.021554 0.37884 -1.826 0.028007 0.32036 -1.8344 0.071788 0.31762 -1.8349 0.065555 0.37539 -1.8205 0.024112 0.31801 -1.8291 0.068721 0.26224 -1.8474 0.085804 0.26196 -1.845 0.080585 0.26092 -1.8421 0.085457 0.20609 -1.8644 0.061436 0.20642 -1.8613 0.058031 0.20456 -1.8602 0.062257 0.37418 -1.8275 0.027196 0.38012 -1.8231 0.025949 0.34478 -1.7665 0.061343 0.33992 -1.7703 0.063445 0.37467 -1.8235 0.020528 0.34 -1.7681 0.056986 0.30968 -1.7149 0.065516 0.30775 -1.7149 0.070995 0.30511 -1.7177 0.066755 0.27567 -1.669 0.033932 0.27534 -1.6668 0.038094 0.27217 -1.6698 0.03683 0.37475 -1.8276 0.02153 0.38038 -1.825 0.026054 0.36054 -1.8593 0.074699 0.3561 -1.861 0.069974 0.37384 -1.8214 0.026089 0.35477 -1.8564 0.074695 0.34102 -1.898 0.094757 0.3389 -1.8972 0.089456 0.33603 -1.8958 0.094244 0.32274 -1.9416 0.075496 0.32182 -1.9397 0.071331 0.31874 -1.9397 0.074813 0.37504 -1.8272 0.021048 0.38003 -1.8255 0.026712 0.3441 -1.8681 0.075893 0.34026 -1.8689 0.0704 0.3739 -1.8213 0.025913 0.3388 -1.8644 0.075212 0.30862 -1.9149 0.096182 0.30669 -1.9137 0.09088 0.30414 -1.9118 0.095666 0.2744 -1.9664 0.077537 0.27342 -1.9645 0.073365 0.27073 -1.9639 0.077146 2.5199 -1.9446 0.016948 2.5234 -1.9467 0.017106 2.5218 -1.9464 0.045753 2.5187 -1.9446 0.045713 2.5255 -1.9432 0.017232 2.5237 -1.9434 0.045897 2.522 -1.9411 0.017074 2.5206 -1.9415 0.045858 2.5211 -1.9472 0.074439 2.5185 -1.9456 0.074576 2.5227 -1.9446 0.074622 2.5201 -1.943 0.074759 2.5213 -1.9491 0.10324 2.5191 -1.9477 0.1035 2.5227 -1.9469 0.10344 2.5205 -1.9455 0.1037 2.5224 -1.952 0.13216 2.5206 -1.9509 0.13248 2.5235 -1.9502 0.13236 2.5217 -1.9491 0.13268 2.5244 -1.956 0.16122 2.523 -1.9552 0.16151 2.5253 -1.9546 0.16139 2.5239 -1.9538 0.16168 2.5227 -1.9439 0.01709 2.5242 -1.9549 0.16145 2.1517 0.50897 0.037205 2.1513 0.50392 0.037389 2.1533 0.5054 0.071566 2.1537 0.50984 0.071522 2.1563 0.5035 0.037161 2.1577 0.50502 0.071406 2.1568 0.50855 0.036977 2.1581 0.50947 0.071362 2.1546 0.50528 0.10583 2.1549 0.50912 0.106 2.1584 0.50495 0.10576 2.1588 0.50879 0.10593 2.1552 0.50358 0.14028 2.1555 0.5068 0.14059 2.1584 0.50329 0.14028 2.1587 0.50651 0.14058 2.1551 0.50029 0.1749 2.1554 0.50289 0.17529 2.1577 0.50004 0.17494 2.158 0.50264 0.17533 2.1543 0.49539 0.20974 2.1545 0.49738 0.21008 2.1563 0.49519 0.20978 2.1565 0.49718 0.21013 2.154 0.50624 0.037183 2.1554 0.49629 0.20993 0.74558 -1.7916 0.017385 0.74846 -1.7887 0.022497 0.7219 -1.8327 0.067851 0.71947 -1.8344 0.062953 0.74281 -1.7868 0.020676 0.71711 -1.8307 0.066467 0.69531 -1.8805 0.086873 0.69333 -1.8796 0.082551 0.69135 -1.8783 0.086771 0.66875 -1.932 0.07123 0.66712 -1.9303 0.06809 0.66546 -1.9303 0.071698 0.74558 -1.7917 0.017425 0.74866 -1.7881 0.021961 0.73763 -1.8309 0.067268 0.73498 -1.8331 0.06279 0.74261 -1.7873 0.021171 0.7324 -1.8299 0.066653 0.72655 -1.8774 0.086471 0.72435 -1.8771 0.082177 0.72215 -1.8764 0.086427 0.71544 -1.9278 0.070794 0.71365 -1.9266 0.067537 0.71183 -1.9271 0.071006 0.74557 -1.7921 0.022242 0.74795 -1.7864 0.021063 0.71207 -1.7637 0.057676 0.7103 -1.7686 0.059366 0.74333 -1.7886 0.017252 0.70863 -1.7665 0.05432 0.67602 -1.7454 0.066036 0.67502 -1.7459 0.07081 0.67399 -1.7493 0.067531 0.64072 -1.7321 0.042426 0.63966 -1.7301 0.045713 0.63852 -1.7337 0.045152 0.74557 -1.792 0.017855 0.74869 -1.7878 0.021678 0.74168 -1.8184 0.065514 0.739 -1.8213 0.061472 0.74259 -1.7873 0.021024 0.73641 -1.8178 0.064956 0.73463 -1.8531 0.083277 0.73241 -1.8528 0.078995 0.73019 -1.8522 0.083264 0.72755 -1.8915 0.065969 0.72574 -1.8899 0.062858 0.7239 -1.8909 0.066203 0.74558 -1.7912 0.023256 0.74821 -1.7893 0.017544 0.78094 -1.7482 0.052262 0.77879 -1.7488 0.05756 0.74306 -1.7865 0.019758 0.77671 -1.7452 0.053825 0.81363 -1.711 0.061962 0.81198 -1.7085 0.065761 0.8103 -1.7079 0.061226 0.84649 -1.677 0.036494 0.84509 -1.6741 0.038614 0.84362 -1.6751 0.035041 0.37673 0.66042 0.031466 0.37506 0.66473 0.037821 0.40017 0.60755 0.080875 0.40049 0.60445 0.074826 0.36964 0.65973 0.034781 0.39485 0.6038 0.078585 0.42625 0.5501 0.094461 0.42323 0.54902 0.089683 0.42102 0.54756 0.094792 0.4514 0.49347 0.070228 0.44776 0.49297 0.067281 0.44753 0.49102 0.071562 0.3774 0.66012 0.036975 0.37161 0.66534 0.036133 0.32475 0.61814 0.078192 0.32983 0.61398 0.079906 0.37242 0.65941 0.03096 0.32677 0.61323 0.073893 0.27907 0.57054 0.089329 0.28014 0.56882 0.094697 0.28296 0.56641 0.090317 0.23474 0.52336 0.065013 0.23299 0.52276 0.069335 0.23649 0.52 0.067835 0.37671 0.66043 0.031443 0.37358 0.66604 0.035994 0.41843 0.65518 0.079671 0.42043 0.65063 0.074996 0.37114 0.65841 0.03663 0.41652 0.6485 0.080169 0.46423 0.64404 0.095045 0.46315 0.64136 0.090049 0.46286 0.63831 0.09494 0.50996 0.63309 0.071614 0.50765 0.63148 0.067823 0.5087 0.62844 0.071282 0.37623 0.66063 0.03101 0.37421 0.66581 0.036587 0.43064 0.63986 0.080219 0.43158 0.63571 0.074882 0.371 0.65844 0.03647 0.42784 0.63348 0.080132 0.48782 0.61371 0.095267 0.48634 0.61115 0.090307 0.48542 0.60832 0.095255 0.54485 0.58776 0.071897 0.54258 0.58611 0.068097 0.5429 0.58335 0.071917 1.933 -1.0934 -0.00088874 1.9218 -1.0972 -0.00065185 1.9263 -1.1037 0.071236 1.9361 -1.1003 0.070937 1.9251 -1.1085 -0.0017727 1.9292 -1.1136 0.07028 1.9363 -1.1047 -0.0020096 1.9391 -1.1103 0.069982 1.932 -1.1092 0.14317 1.9405 -1.1063 0.14276 1.9345 -1.1178 0.1424 1.943 -1.1149 0.14199 1.9388 -1.1139 0.21512 1.946 -1.1114 0.21464 1.941 -1.1211 0.21452 1.9481 -1.1187 0.21404 1.9469 -1.1176 0.28709 1.9527 -1.1156 0.28659 1.9486 -1.1235 0.28663 1.9544 -1.1215 0.28614 1.9561 -1.1205 0.35906 1.9606 -1.1189 0.35864 1.9574 -1.125 0.35872 1.9619 -1.1235 0.3583 1.929 -1.101 -0.0013307 1.959 -1.122 0.35868 0.73124 -2.1973 -0.00091574 0.73163 -2.1933 0.004401 0.74759 -2.2501 0.043601 0.74661 -2.2529 0.038628 0.72569 -2.1967 0.0027417 0.74222 -2.2527 0.042395 0.76449 -2.3074 0.056791 0.76195 -2.3081 0.052649 0.75969 -2.3092 0.056867 0.78162 -2.3642 0.035884 0.77886 -2.3642 0.032979 0.77781 -2.3659 0.036467 0.73127 -2.1974 -0.00088063 0.73136 -2.1927 0.0039373 0.75848 -2.2354 0.043439 0.75781 -2.2389 0.03881 0.72593 -2.1972 0.0031703 0.75365 -2.2392 0.042862 0.78655 -2.2787 0.057152 0.7843 -2.28 0.052975 0.78232 -2.2817 0.057155 0.81494 -2.3216 0.036541 0.81236 -2.322 0.033476 0.81155 -2.3242 0.036776 0.73196 -2.1981 0.003757 0.7294 -2.192 0.0032353 0.68683 -2.2099 0.040694 0.68929 -2.2149 0.041806 0.72719 -2.1972 -0.00076531 0.68603 -2.2145 0.037091 0.64538 -2.2286 0.050215 0.64536 -2.2302 0.05479 0.64685 -2.2331 0.051239 0.60595 -2.2474 0.028131 0.60387 -2.2472 0.031517 0.60566 -2.2506 0.030585 0.73156 -2.1977 -0.00049829 0.73112 -2.1924 0.0036951 0.7521 -2.2233 0.043073 0.7519 -2.2272 0.038804 0.72588 -2.1972 0.0030302 0.74744 -2.2272 0.042525 0.77419 -2.2547 0.056671 0.7719 -2.256 0.052507 0.77006 -2.2579 0.056686 0.79647 -2.2858 0.035773 0.79368 -2.286 0.03288 0.79319 -2.2885 0.036011 0.73139 -2.1976 0.004834 0.73158 -2.1935 -0.00048874 0.72855 -2.1402 0.037985 0.72768 -2.1429 0.043051 0.72559 -2.1962 0.0018817 0.72307 -2.1419 0.039759 0.72659 -2.0875 0.051722 0.72369 -2.0875 0.055652 0.72162 -2.0882 0.051276 0.72464 -2.034 0.030918 0.72148 -2.0333 0.033263 0.72082 -2.0349 0.029664 2.8991 -1.9269 0.017079 2.9046 -1.9211 0.017265 2.9016 -1.9207 0.070957 2.8968 -1.9259 0.070899 2.8987 -1.9156 0.016976 2.8964 -1.9159 0.070726 2.8932 -1.9215 0.01679 2.8916 -1.9211 0.070668 2.8999 -1.9195 0.12468 2.8957 -1.924 0.12481 2.8954 -1.9154 0.12452 2.8912 -1.9198 0.12465 2.8995 -1.9175 0.17851 2.8959 -1.9212 0.17877 2.8957 -1.914 0.17841 2.8921 -1.9177 0.17867 2.9002 -1.9146 0.23244 2.8974 -1.9176 0.23278 2.8972 -1.9117 0.23238 2.8943 -1.9147 0.23272 2.9023 -1.9108 0.2865 2.9001 -1.9131 0.28681 2.8999 -1.9086 0.28647 2.8977 -1.9109 0.28678 2.8989 -1.9213 0.017028 2.9 -1.9109 0.28664 -1.0835 2.2054 -0.046331 -1.0836 2.1955 -0.046077 -1.0765 2.1975 0.01241 -1.0764 2.2062 0.012301 -1.0737 2.1961 -0.04719 -1.0679 2.198 0.011456 -1.0737 2.206 -0.047444 -1.0678 2.2067 0.011347 -1.0699 2.1976 0.070973 -1.0698 2.2051 0.071077 -1.0624 2.198 0.070193 -1.0623 2.2055 0.070296 -1.0636 2.1958 0.12969 -1.0635 2.2021 0.12994 -1.0573 2.1962 0.12907 -1.0572 2.2025 0.12932 -1.0578 2.1922 0.18857 -1.0577 2.1974 0.1889 -1.0527 2.1925 0.18809 -1.0526 2.1977 0.18843 -1.0523 2.1868 0.24762 -1.0523 2.1908 0.24794 -1.0484 2.187 0.24727 -1.0483 2.191 0.24758 -1.0786 2.2008 -0.046761 -1.0503 2.1889 0.2476 0.89766 2.746 -0.074993 0.89432 2.743 -0.074988 0.89165 2.7464 -0.047187 0.89458 2.749 -0.047095 0.89699 2.7395 -0.074255 0.89399 2.7433 -0.046509 0.90033 2.7425 -0.07426 0.89692 2.7459 -0.046417 0.8876 2.7492 -0.019464 0.89011 2.7515 -0.019218 0.88961 2.7465 -0.018822 0.89212 2.7488 -0.018577 0.88216 2.7514 0.0082557 0.88424 2.7533 0.0086 0.88383 2.7491 0.0088416 0.88592 2.751 0.0091859 0.87532 2.753 0.035971 0.87699 2.7546 0.03636 0.87667 2.7512 0.036482 0.87834 2.7527 0.036871 0.86708 2.7541 0.063707 0.86835 2.7553 0.064048 0.8681 2.7526 0.064113 0.86938 2.7539 0.064454 0.89733 2.7428 -0.074624 0.86823 2.754 0.064081 -2.4389 -1.9389 -0.085023 -2.4312 -1.9344 -0.084793 -2.4318 -1.9373 -0.026728 -2.4386 -1.9413 -0.026816 -2.4354 -1.9264 -0.084352 -2.4355 -1.9303 -0.026315 -2.4431 -1.931 -0.084582 -2.4423 -1.9343 -0.026404 -2.4309 -1.9397 0.031346 -2.4368 -1.9432 0.031466 -2.434 -1.9337 0.031745 -2.4399 -1.9371 0.031865 -2.4283 -1.9416 0.089507 -2.4333 -1.9445 0.089772 -2.431 -1.9365 0.089879 -2.4359 -1.9394 0.090144 -2.4242 -1.943 0.14776 -2.4282 -1.9454 0.1481 -2.4263 -1.9388 0.14809 -2.4303 -1.9412 0.14843 -2.4185 -1.9439 0.20612 -2.4215 -1.9457 0.20644 -2.4201 -1.9407 0.20639 -2.4232 -1.9425 0.20671 -2.4371 -1.9327 -0.084687 -2.4208 -1.9432 0.20641 0.29502 1.9139 -0.025023 0.28242 1.9167 -0.026384 0.2743 1.9119 0.048194 0.2854 1.9095 0.049298 0.2801 1.9039 -0.027311 0.27226 1.9007 0.047411 0.29271 1.9012 -0.02595 0.28336 1.8983 0.048515 0.26775 1.9074 0.123 0.27735 1.9053 0.12379 0.26598 1.8977 0.12238 0.27558 1.8956 0.12317 0.26277 1.903 0.198 0.27087 1.9013 0.19853 0.26127 1.8949 0.19753 0.26937 1.8931 0.19806 0.25936 1.8989 0.2732 0.26595 1.8975 0.27352 0.25814 1.8923 0.27285 0.26473 1.8909 0.27317 0.25753 1.8949 0.34857 0.26259 1.8938 0.34878 0.25659 1.8898 0.34832 0.26165 1.8888 0.34853 0.28756 1.9089 -0.026167 0.25959 1.8918 0.34855 -1.962 -2.4722 -0.049922 -1.9535 -2.4757 -0.050059 -1.9531 -2.4755 0.011189 -1.9606 -2.4724 0.011429 -1.9498 -2.4672 -0.050029 -1.9499 -2.468 0.011242 -1.9584 -2.4637 -0.049892 -1.9574 -2.4649 0.011482 -1.9512 -2.4762 0.072393 -1.9577 -2.4736 0.072807 -1.9485 -2.4698 0.072484 -1.9549 -2.4671 0.072898 -1.948 -2.478 0.13364 -1.9534 -2.4757 0.13416 -1.9456 -2.4726 0.13375 -1.9511 -2.4703 0.13427 -1.9433 -2.4807 0.19492 -1.9477 -2.4789 0.19549 -1.9414 -2.4763 0.19505 -1.9458 -2.4745 0.19561 -1.9372 -2.4845 0.25628 -1.9406 -2.4831 0.25677 -1.9358 -2.4811 0.25638 -1.9391 -2.4797 0.25687 -1.9559 -2.4697 -0.049975 -1.9382 -2.4821 0.25658 1.6755 1.5978 -0.0030714 1.6832 1.592 -0.0023302 1.6822 1.5991 0.05396 1.6754 1.6042 0.053238 1.6889 1.5998 -0.0031137 1.6872 1.6059 0.053295 1.6812 1.6055 -0.003855 1.6805 1.611 0.052573 1.6801 1.6066 0.11022 1.6743 1.6109 0.10947 1.6845 1.6125 0.10969 1.6786 1.6168 0.10894 1.6769 1.6144 0.16642 1.672 1.6181 0.16569 1.6805 1.6194 0.16601 1.6756 1.623 0.16528 1.6725 1.6226 0.22257 1.6685 1.6255 0.22189 1.6755 1.6266 0.22226 1.6715 1.6296 0.22159 1.667 1.6311 0.27865 1.664 1.6334 0.27809 1.6693 1.6342 0.27842 1.6662 1.6365 0.27787 1.6822 1.5988 -0.0030926 1.6666 1.6338 0.27826 -0.66568 1.8107 -0.020116 -0.66666 1.8074 -0.020634 -0.66549 1.8036 0.0030639 -0.66463 1.8065 0.0036018 -0.66328 1.8067 -0.020885 -0.66252 1.803 0.0028712 -0.6623 1.8099 -0.020367 -0.66165 1.8059 0.0034091 -0.66502 1.7989 0.026625 -0.66427 1.8013 0.027229 -0.66245 1.7983 0.026505 -0.6617 1.8008 0.02711 -0.66524 1.7931 0.050111 -0.6646 1.7952 0.050735 -0.66308 1.7926 0.050048 -0.66244 1.7947 0.050672 -0.66615 1.7864 0.073521 -0.66563 1.788 0.07412 -0.6644 1.786 0.073499 -0.66388 1.7876 0.074097 -0.66776 1.7787 0.096877 -0.66736 1.7799 0.097371 -0.66641 1.7783 0.09687 -0.66601 1.7796 0.097364 -0.66448 1.8087 -0.020501 -0.66688 1.7791 0.097121 -1.9519 0.3136 -0.043779 -1.9485 0.30939 -0.04396 -1.9502 0.30698 -0.010784 -1.9532 0.31067 -0.01051 -1.9446 0.31305 -0.043456 -1.9467 0.31019 -0.010302 -1.948 0.31726 -0.043275 -1.9497 0.31389 -0.010028 -1.9511 0.3028 0.02228 -1.9537 0.30596 0.022714 -1.9481 0.30556 0.022763 -1.9507 0.30872 0.023197 -1.9515 0.29683 0.05532 -1.9536 0.29947 0.055849 -1.9489 0.29914 0.055781 -1.9511 0.30178 0.05631 -1.9511 0.28908 0.088336 -1.9529 0.2912 0.088895 -1.949 0.29093 0.088751 -1.9508 0.29305 0.089311 -1.9501 0.27952 0.12136 -1.9515 0.28115 0.12184 -1.9485 0.28094 0.12169 -1.9499 0.28256 0.12217 -1.9482 0.31333 -0.043618 -1.95 0.28104 0.12176 1.2258 3.0269 -0.095982 1.224 3.0302 -0.095981 1.2254 3.0307 -0.0731 1.227 3.0279 -0.073021 1.2208 3.0284 -0.09571 1.2225 3.0292 -0.072834 1.2226 3.0252 -0.095711 1.2241 3.0264 -0.072755 1.2265 3.0325 -0.050247 1.2279 3.0301 -0.050042 1.2241 3.0312 -0.049971 1.2254 3.0288 -0.049766 1.2275 3.0356 -0.02736 1.2286 3.0335 -0.027075 1.2254 3.0345 -0.027091 1.2265 3.0324 -0.026805 1.2282 3.0399 -0.0044418 1.2291 3.0382 -0.0041197 1.2265 3.039 -0.0041935 1.2274 3.0373 -0.0038714 1.2287 3.0454 0.01853 1.2294 3.0441 0.018812 1.2274 3.0447 0.018732 1.2281 3.0435 0.019014 1.2233 3.0277 -0.095846 1.2284 3.0444 0.018772</float_array><technique_common><accessor source="#weeds_-02+01_solid-pos-a" count="740" stride="3"><param name="X" type="float"/><param name="Y" type="float"/><param name="Z" type="float"/></accessor></technique_common></source>
        <source id="weeds_-02+01_solid-nrm"><float_array id="weeds_-02+01_solid-nrm-a" count="2220">-0.747 0.342 0.57 -0.395 -0.72 0.57 -0.43 -0.903 -0.006 -0.9 0.43 -0.074 0.644 -0.326 0.692 0.895 -0.433 0.104 0.3 0.734 0.609 0.433 0.901 0.033 -0.431 -0.903 0.003 -0.898 0.43 -0.094 0.893 -0.432 0.123 0.434 0.9 0.025 -0.432 -0.902 0.011 -0.896 0.429 -0.113 0.891 -0.432 0.143 0.435 0.9 0.016 -0.433 -0.901 0.019 -0.894 0.429 -0.133 0.888 -0.431 0.162 0.436 0.9 0.008 -0.288 -0.777 -0.559 -0.622 0.294 -0.725 0.783 -0.384 -0.489 0.426 0.699 -0.575 -0.08 0.012 0.997 0.121 -0.068 -0.99 -0.732 -0.458 0.504 0.35 -0.778 0.522 0.485 -0.87 -0.09 -0.876 -0.472 -0.1 0.642 0.298 0.707 0.864 0.487 0.13 -0.438 0.622 0.649 -0.495 0.861 0.115 0.486 -0.863 -0.138 -0.877 -0.475 -0.075 0.866 0.489 0.106 -0.495 0.853 0.163 0.484 -0.855 -0.185 -0.877 -0.477 -0.05 0.868 0.491 0.081 -0.492 0.845 0.21 0.479 -0.847 -0.231 -0.877 -0.48 -0.025 0.868 0.492 0.057 -0.486 0.836 0.256 0.34 -0.542 -0.769 -0.762 -0.248 -0.599 0.644 0.536 -0.546 -0.447 0.829 -0.335 -0.075 -0.131 0.989 -0.091 0.248 -0.965 -0.458 0.445 -0.769 -0.49 -0.512 0.705 -0.554 -0.387 0.737 -0.357 0.314 -0.88 0.992 0.093 0.08 0.948 0.033 0.317 -0.761 -0.095 0.642 0.018 -0.048 -0.999 0.745 0.189 0.64 -0.944 -0.004 0.33 0.206 -0.295 -0.933 0.698 0.33 0.635 -0.638 0.5 0.586 0.255 -0.917 0.306 0.337 -0.924 0.181 -0.475 0.303 0.826 0.387 0.393 -0.834 0.133 0.541 -0.83 0.29 -0.85 -0.44 0.065 0.028 0.997 -0.332 0.871 -0.363 0.016 -0.617 -0.787 0.439 -0.196 0.877 -0.466 0.878 -0.111 -0.506 0.414 -0.757 -0.244 -0.912 0.331 -0.227 -0.839 0.494 -0.362 0.305 -0.881 0.737 0.492 0.464 0.647 0.493 0.582 -0.444 -0.604 0.662 0.045 -0.035 -0.998 0.348 0.667 0.658 -0.633 -0.587 0.504 0.326 -0.246 -0.913 0.278 0.86 0.428 -0.408 0.347 -0.844 -0.361 -0.814 0.455 -0.37 -0.738 0.564 -0.288 0.243 -0.926 0.77 0.469 0.433 0.696 0.463 0.549 -0.545 -0.544 0.637 0.034 -0.033 -0.999 0.48 0.606 0.634 -0.699 -0.521 0.49 0.236 -0.208 -0.949 0.435 0.753 0.494 0.769 0.309 0.56 -0.24 0.868 0.436 -0.26 0.952 -0.161 0.964 0.265 0.019 -0.816 -0.13 0.563 -0.963 -0.271 0.008 0.191 -0.688 0.7 0.266 -0.946 0.186 -0.258 0.948 -0.184 0.963 0.267 0.034 -0.962 -0.273 -0.007 0.263 -0.942 0.209 -0.256 0.944 -0.207 0.962 0.27 0.049 -0.961 -0.275 -0.022 0.26 -0.937 0.233 -0.252 0.94 -0.23 0.96 0.272 0.063 -0.96 -0.277 -0.037 0.256 -0.932 0.256 -0.136 0.647 -0.75 0.871 0.101 -0.481 -0.731 -0.36 -0.58 0.282 -0.903 -0.324 -0.042 0.157 0.987 0.132 -0.234 -0.963 0.204 -0.593 -0.779 0.742 0.49 0.459 0.755 0.399 0.521 0.136 -0.455 -0.88 -0.953 0.056 0.299 -0.883 0.087 0.461 0.849 0.127 0.514 -0.091 -0.061 -0.994 -0.743 -0.081 0.665 0.954 0.001 0.298 -0.192 0.205 -0.96 -0.752 -0.217 0.623 0.232 -0.599 -0.766 0.692 0.637 0.339 0.696 0.569 0.439 0.146 -0.461 -0.875 -0.911 -0.089 0.402 -0.84 -0.075 0.538 0.808 0.311 0.5 -0.103 -0.06 -0.993 -0.677 -0.267 0.685 0.929 0.204 0.31 -0.236 0.216 -0.947 -0.69 -0.427 0.585 0.53 -0.671 0.518 0.212 0.963 0.164 0.113 0.99 0.087 0.498 -0.383 0.778 -0.72 -0.308 -0.622 -0.516 -0.548 -0.658 0.076 0.869 -0.489 -0.017 0.101 0.995 -0.098 -0.982 -0.16 0.269 0.491 -0.828 -0.386 0.471 0.793 0.081 -0.995 0.057 0.301 -0.683 -0.666 0.647 0.709 0.28 0.648 0.642 0.41 0.203 -0.536 -0.819 -0.926 -0.087 0.367 -0.852 -0.057 0.521 0.787 0.322 0.526 -0.11 -0.054 -0.992 -0.638 -0.294 0.712 0.94 0.193 0.281 -0.286 0.308 -0.908 -0.657 -0.502 0.563 0.375 -0.495 0.784 0.605 0.318 -0.73 0.723 0.141 -0.677 0.255 -0.322 0.912 -0.985 0.175 0.001 -0.989 0.148 -0.031 0.905 -0.124 -0.406 0.104 0.184 0.977 -0.958 0.014 -0.286 0.898 -0.266 -0.352 -0.031 0.488 0.872 -0.838 -0.193 -0.511 -0.411 -0.648 -0.642 0.591 -0.368 0.718 0.466 -0.452 0.76 -0.289 -0.552 -0.782 -0.199 0.978 -0.066 -0.14 0.98 0.143 0.172 -0.709 0.684 0.075 -0.102 -0.992 -0.296 0.833 0.468 0.099 -0.907 0.409 0.33 0.158 -0.931 -0.44 0.765 0.47 -0.457 -0.655 0.601 0.883 0.408 0.232 0.875 0.472 0.113 -0.293 -0.46 0.838 -0.462 0.266 -0.846 -0.595 -0.034 -0.803 0.838 0.355 -0.414 -0.063 0.202 0.977 -0.831 -0.486 -0.27 0.686 0.008 -0.728 0.148 0.625 0.766 -0.812 -0.582 -0.036 -0.371 -0.691 -0.621 0.942 -0.088 0.323 0.88 -0.063 0.47 -0.278 -0.557 -0.783 -0.596 0.744 0.302 -0.6 0.677 0.425 0.679 -0.308 0.666 0.057 -0.073 -0.996 -0.762 0.355 0.542 0.668 -0.516 0.536 0.257 0.287 -0.923 -0.919 0.218 0.33 -0.317 -0.602 -0.733 0.867 -0.209 0.453 0.801 -0.218 0.558 -0.22 -0.479 -0.85 -0.573 0.774 0.269 -0.57 0.725 0.387 0.625 -0.425 0.655 0.057 -0.086 -0.995 -0.708 0.499 0.499 0.605 -0.593 0.531 0.229 0.178 -0.957 -0.836 0.405 0.371 -0.836 -0.203 0.51 0.172 -0.813 0.556 0.234 -0.972 0 -0.973 -0.229 -0.028 0.781 0.196 0.594 0.967 0.249 0.053 -0.227 0.81 0.541 -0.244 0.969 0.023 0.233 -0.972 -0.043 -0.973 -0.229 -0.007 0.968 0.248 0.032 -0.243 0.968 0.066 0.23 -0.969 -0.086 -0.973 -0.229 0.015 0.969 0.247 0.011 -0.239 0.965 0.109 0.225 -0.966 -0.127 -0.973 -0.23 0.037 0.969 0.246 -0.01 -0.233 0.961 0.151 0.141 -0.728 -0.67 -0.865 -0.103 -0.492 0.773 0.3 -0.558 -0.239 0.893 -0.381 -0.049 -0.006 0.999 -0.098 0.181 -0.979 -0.504 0.649 0.57 -0.6 -0.511 0.615 -0.767 -0.639 0.05 -0.635 0.772 0.028 0.558 -0.611 0.561 0.652 -0.758 -0.004 0.656 0.549 0.518 0.761 0.648 -0.025 -0.77 -0.638 0.005 -0.634 0.772 0.051 0.65 -0.759 -0.026 0.764 0.645 0.021 -0.772 -0.634 -0.04 -0.632 0.771 0.073 0.648 -0.76 -0.047 0.766 0.64 0.065 -0.774 -0.627 -0.084 -0.631 0.77 0.095 0.646 -0.761 -0.069 0.767 0.632 0.109 -0.627 -0.434 -0.647 -0.508 0.728 -0.461 0.558 -0.55 -0.622 0.66 0.609 -0.44 0.048 0.032 0.998 0.041 0.168 -0.985 -0.045 -0.715 -0.697 0.834 0.061 0.548 0.791 -0.027 0.612 -0.016 -0.569 -0.822 -0.787 0.602 0.134 -0.74 0.605 0.295 0.715 -0.332 0.615 0.019 -0.077 -0.997 -0.755 0.398 0.521 0.749 -0.513 0.42 0.072 0.238 -0.969 -0.832 0.274 0.483 -0.027 -0.734 -0.679 0.881 0.218 0.42 0.839 0.16 0.519 -0.011 -0.579 -0.815 -0.854 0.461 0.241 -0.81 0.446 0.382 0.788 -0.141 0.599 0.008 -0.069 -0.998 -0.808 0.19 0.558 0.844 -0.319 0.431 0.038 0.274 -0.961 -0.887 0.042 0.459 0.02 -0.835 0.549 0.643 0.748 0.167 0.579 0.811 0.081 0.114 -0.577 0.809 -0.701 0.085 -0.708 -0.654 -0.262 -0.709 0.565 0.694 -0.446 -0.091 0.18 0.98 -0.556 -0.819 -0.145 0.6 0.245 -0.761 -0.173 0.708 0.684 -0.438 -0.896 0.075 -0.025 -0.827 -0.561 0.884 0.304 0.354 0.839 0.253 0.481 -0.01 -0.671 -0.742 -0.859 0.469 0.205 -0.806 0.467 0.363 0.774 -0.118 0.622 0.006 -0.058 -0.998 -0.794 0.145 0.59 0.85 -0.337 0.404 0.04 0.389 -0.921 -0.895 -0.048 0.443 -0.047 -0.605 0.795 0.782 -0.105 -0.614 0.774 -0.332 -0.538 -0.074 -0.384 0.92 -0.704 0.695 -0.146 -0.719 0.672 -0.176 0.727 -0.643 -0.239 0.064 0.186 0.98 -0.744 0.529 -0.408 0.632 -0.752 -0.186 0.125 0.54 0.833 -0.744 0.266 -0.613 0.616 -0.301 -0.728 0.314 0.655 0.687 0.422 0.551 0.72 0.481 -0.208 -0.851 -0.928 -0.367 0.066 -0.91 -0.299 0.286 0.721 0.315 0.617 -0.027 0.04 -0.999 -0.687 -0.401 0.606 0.91 0.272 0.313 -0.308 0.232 -0.922 -0.595 -0.528 0.606 0.781 -0.291 0.553 -0.549 0.789 0.275 -0.624 0.765 0.157 0.577 -0.156 0.802 -0.253 -0.512 -0.821 0.06 -0.582 -0.811 -0.559 0.719 -0.414 -0.067 -0.046 0.997 0.608 -0.724 -0.326 -0.223 0.603 -0.766 -0.524 0.066 0.849 0.726 -0.681 -0.092 0.652 -0.257 -0.714 -0.07 0.949 0.309 -0.064 0.882 0.467 0.483 -0.198 -0.853 -0.572 -0.693 0.439 -0.487 -0.673 0.557 0.235 0.73 0.642 -0.051 0.019 -0.999 -0.127 -0.76 0.638 0.43 0.762 0.485 -0.413 0.146 -0.899 0.013 -0.913 0.409 0.541 -0.224 -0.811 0.079 0.898 0.432 0.113 0.834 0.541 0.39 -0.16 -0.907 -0.611 -0.678 0.408 -0.545 -0.656 0.523 0.358 0.7 0.618 -0.039 0.021 -0.999 -0.282 -0.739 0.612 0.517 0.714 0.472 -0.309 0.136 -0.941 -0.183 -0.861 0.474 0.396 0.647 0.651 -0.679 0.316 0.663 -0.886 0.453 0.101 0.461 0.886 0.056 -0.335 -0.75 0.571 -0.463 -0.886 -0.027 0.738 -0.417 0.53 0.884 -0.462 -0.074 -0.885 0.453 0.109 0.46 0.887 0.037 -0.462 -0.887 -0.009 0.883 -0.461 -0.082 -0.884 0.453 0.118 0.459 0.888 0.019 -0.46 -0.888 0.01 0.883 -0.461 -0.091 -0.883 0.453 0.127 0.458 0.889 0 -0.459 -0.888 0.028 0.882 -0.461 -0.1 -0.782 0.397 -0.481 0.302 0.735 -0.606 -0.434 -0.693 -0.575 0.655 -0.347 -0.671 0.049 -0.084 0.995 -0.108 0.042 -0.993 0.434 -0.439 -0.787 0.525 0.578 0.624 0.563 0.475 0.677 0.335 -0.313 -0.889 -0.967 -0.135 0.214 -0.914 -0.111 0.39 0.742 0.206 0.637 -0.001 0.039 -0.999 -0.741 -0.285 0.608 0.903 0.121 0.412 -0.189 0.273 -0.943 -0.709 -0.428 0.56 0.459 -0.442 -0.771 0.43 0.745 0.51 0.45 0.656 0.606 0.346 -0.317 -0.883 -0.901 -0.294 0.319 -0.837 -0.281 0.469 0.649 0.394 0.65 -0.013 0.038 -0.999 -0.618 -0.473 0.628 0.827 0.33 0.455 -0.234 0.274 -0.933 -0.574 -0.639 0.512 0.655 -0.587 0.476 -0.154 0.948 0.278 -0.247 0.95 0.19 0.532 -0.368 0.763 -0.546 -0.356 -0.758 -0.254 -0.557 -0.791 -0.204 0.897 -0.392 -0.112 -0.017 0.994 0.261 -0.93 -0.258 0.131 0.626 -0.769 -0.559 0.298 0.774 0.405 -0.914 -0.028 0.539 -0.515 -0.667 0.361 0.818 0.448 0.375 0.726 0.576 0.418 -0.383 -0.824 -0.915 -0.29 0.28 -0.853 -0.262 0.451 0.622 0.398 0.675 -0.022 0.043 -0.999 -0.569 -0.496 0.656 0.846 0.324 0.424 -0.311 0.348 -0.884 -0.51 -0.71 0.485 0.457 -0.489 0.743 0.527 0.516 -0.675 0.704 0.346 -0.621 0.288 -0.366 0.885 -0.996 0.015 -0.087 -0.992 -0.009 -0.122 0.94 0.07 -0.333 -0.028 0.083 0.996 -0.911 -0.108 -0.397 0.956 -0.077 -0.284 -0.252 0.362 0.898 -0.714 -0.273 -0.645 0.005 -0.818 0.576 0.793 0.033 0.608 0.999 0.031 0.043 0.028 -0.999 0.028 -0.052 0.826 0.562 -0.04 0.999 -0.003 -0.842 -0.024 0.54 -0.999 -0.038 -0.018 0.999 0.03 0.019 0.028 -0.999 0.043 -0.039 0.999 -0.018 -0.999 -0.036 0.006 1 0.028 -0.004 0.027 -0.998 0.059 -0.038 0.999 -0.033 -0.999 -0.034 0.03 0.999 0.026 -0.028 0.027 -0.997 0.074 -0.037 0.998 -0.048 -0.998 -0.031 0.053 0.801 -0.02 -0.599 -0.005 -0.872 -0.49 -0.058 0.793 -0.607 -0.859 -0.065 -0.508 -0.042 0.008 0.999 -0.057 -0.076 -0.995 -0.51 0.565 0.648 -0.462 -0.549 0.697 -0.686 -0.722 0.093 -0.716 0.693 0.086 0.644 -0.536 0.546 0.726 -0.685 -0.059 0.6 0.578 0.553 0.683 0.727 -0.063 -0.689 -0.722 0.066 -0.714 0.693 0.102 0.724 -0.686 -0.075 0.686 0.726 -0.036 -0.692 -0.72 0.039 -0.712 0.692 0.118 0.722 -0.686 -0.091 0.69 0.724 -0.009 -0.696 -0.718 0.012 -0.709 0.692 0.134 0.719 -0.686 -0.107 0.693 0.721 0.018 -0.602 -0.514 -0.611 -0.637 0.609 -0.473 0.524 -0.512 -0.68 0.5 0.626 -0.599 0.111 0.025 0.994 -0.094 0.081 -0.992 0.014 0.856 0.518 -0.869 0.143 0.474 -0.987 0.093 -0.13 0.11 0.991 -0.082 -0.147 -0.707 0.692 -0.091 -0.989 0.113 0.744 -0.001 0.669 0.985 -0.08 0.154 -0.98 0.089 -0.176 0.107 0.993 -0.056 -0.09 -0.992 0.088 0.977 -0.077 0.2 -0.971 0.087 -0.221 0.104 0.994 -0.031 -0.088 -0.994 0.064 0.966 -0.076 0.245 -0.96 0.087 -0.265 0.1 0.995 -0.007 -0.086 -0.995 0.039 0.954 -0.076 0.289 -0.619 0.038 -0.784 0.255 0.775 -0.578 0.106 -0.827 -0.553 0.954 -0.096 -0.285 -0.109 0.122 0.987 0.303 -0.052 -0.951 -0.221 -0.805 0.551 0.788 -0.257 0.56 0.96 -0.279 -0.015 -0.281 -0.959 -0.03 0.224 0.741 0.634 0.271 0.961 0.057 -0.786 0.195 0.587 -0.962 0.271 0.041 0.96 -0.278 -0.039 -0.281 -0.96 -0.014 0.271 0.962 0.041 -0.96 0.271 0.064 0.958 -0.278 -0.063 -0.281 -0.96 0.002 0.272 0.962 0.025 -0.959 0.271 0.088 0.957 -0.278 -0.086 -0.28 -0.96 0.019 0.272 0.962 0.009 -0.956 0.271 0.112 0.732 -0.217 -0.646 -0.293 -0.775 -0.561 0.159 0.799 -0.58 -0.856 0.24 -0.458 0.002 -0.054 0.999 -0.116 0.023 -0.993 0.573 0.401 0.715 -0.504 0.613 0.609 -0.559 0.829 -0.003 0.823 0.553 0.13 -0.719 -0.464 0.518 -0.828 -0.552 -0.101 0.355 -0.678 0.644 0.549 -0.835 0.032 -0.56 0.829 0.006 0.825 0.554 0.111 -0.83 -0.552 -0.082 0.55 -0.835 0.023 -0.56 0.828 0.016 0.827 0.555 0.092 -0.831 -0.553 -0.063 0.551 -0.834 0.013 -0.56 0.828 0.025 0.829 0.555 0.073 -0.832 -0.553 -0.044 0.552 -0.834 0.004 -0.411 0.685 -0.602 0.688 0.464 -0.558 -0.638 -0.421 -0.645 0.467 -0.629 -0.621 -0.118 -0.051 0.992 0.049 0.041 -0.998 -0.75 -0.313 0.582 0.316 -0.765 0.561 0.374 -0.928 -0.011 -0.928 -0.372 0.028 0.764 0.303 0.569 0.924 0.382 -0.002 -0.302 0.755 0.581 -0.38 0.924 0.036 0.373 -0.927 -0.034 -0.927 -0.372 0.044 0.924 0.382 -0.018 -0.378 0.924 0.06 0.371 -0.927 -0.058 -0.926 -0.372 0.059 0.924 0.381 -0.033 -0.375 0.923 0.083 0.368 -0.926 -0.081 -0.925 -0.372 0.074 0.923 0.381 -0.048 -0.372 0.922 0.107 0.247 -0.729 -0.638 -0.827 -0.268 -0.494 0.707 0.357 -0.611 -0.366 0.81 -0.458 0.012 -0.009 1 -0.11 0.079 -0.991 -0.786 -0.047 0.617 0.106 -0.699 0.707 0.15 -0.98 0.131 -0.989 -0.148 0.007 0.768 0.183 0.613 0.989 0.148 0.022 -0.123 0.838 0.532 -0.142 0.985 -0.102 0.149 -0.979 0.14 -0.989 -0.15 -0.012 0.988 0.15 0.041 -0.142 0.984 -0.111 0.148 -0.978 0.149 -0.988 -0.152 -0.031 0.987 0.152 0.06 -0.142 0.983 -0.12 0.146 -0.976 0.158 -0.987 -0.154 -0.049 0.985 0.154 0.078 -0.141 0.982 -0.129 0.163 -0.861 -0.481 -0.736 -0.201 -0.647 0.842 0.046 -0.537 -0.065 0.698 -0.713 -0.013 0.11 0.994 0.081 -0.131 -0.988 -0.405 0.621 0.671 -0.686 -0.51 0.518 -0.865 -0.498 -0.06 -0.497 0.848 0.182 0.445 -0.8 0.402 0.515 -0.843 -0.157 0.73 0.321 0.603 0.86 0.503 0.086 -0.867 -0.488 -0.104 -0.496 0.844 0.203 0.513 -0.84 -0.178 0.861 0.492 0.13 -0.868 -0.475 -0.147 -0.495 0.84 0.224 0.511 -0.836 -0.198 0.862 0.477 0.173 -0.868 -0.459 -0.189 -0.494 0.834 0.244 0.509 -0.833 -0.218 0.861 0.461 0.215 -0.682 -0.186 -0.707 -0.379 0.88 -0.285 0.473 -0.528 -0.705 0.758 0.563 -0.328 0.037 -0.166 0.985 0.08 0.347 -0.934 -0.835 0.011 0.551 -0.086 -0.835 0.543 -0.076 -0.992 -0.102 -0.996 0.082 -0.018 0.776 -0.109 0.621 0.997 -0.065 0.046 0.025 0.73 0.683 0.064 0.99 0.13 -0.076 -0.985 -0.153 -0.997 0.08 0.006 0.998 -0.064 0.023 0.064 0.982 0.18 -0.078 -0.976 -0.202 -0.997 0.078 0.03 0.998 -0.064 -0 0.067 0.971 0.23 -0.081 -0.965 -0.251 -0.996 0.075 0.053 0.998 -0.062 -0.023 0.071 0.958 0.278 -0.079 -0.603 -0.794 -0.837 0.204 -0.508 0.802 0.093 -0.59 0.046 0.937 -0.347 -0.05 -0.083 0.995 -0.03 0.261 -0.965 0.801 -0.204 0.563 0.263 0.791 0.553 0.285 0.956 -0.065 0.956 -0.292 -0.023 -0.725 0.247 0.643 -0.961 0.273 0.053 -0.187 -0.747 0.638 -0.274 -0.958 0.091 0.284 0.952 -0.113 0.957 -0.291 0.002 -0.961 0.273 0.028 -0.273 -0.952 0.14 0.284 0.945 -0.161 0.957 -0.289 0.026 -0.962 0.274 0.004 -0.273 -0.944 0.187 0.285 0.936 -0.208 0.957 -0.287 0.051 -0.962 0.273 -0.02 -0.274 -0.933 0.234 0.21 0.62 -0.756 0.764 -0.365 -0.533 -0.792 0.089 -0.604 -0.247 -0.898 -0.364 0.064 0.036 0.997 -0.03 -0.234 -0.972</float_array><technique_common><accessor source="#weeds_-02+01_solid-nrm-a" count="740" stride="3"><param name="X" type="float"/><param name="Y" type="float"/><param name="Z" type="float"/></accessor></technique_common></source>
        <vertices id="weeds_-02+01_solid-vtx"><input semantic="POSITION" source="#weeds_-02+01_solid-pos"/></vertices>
        <triangles count="1254" material="MAT_WEED_STEM-mat"><input semantic="VERTEX" source="#weeds_-02+01_solid-vtx" offset="0"/><input semantic="NORMAL" source="#weeds_-02+01_solid-nrm" offset="1"/><p>0 0 1 1 2 2 0 0 2 2 3 3 1 1 4 4 5 5 1 1 5 5 2 2 4 4 6 6 7 7 4 4 7 7 5 5 6 6 0 0 3 3 6 6 3 3 7 7 3 3 2 2 8 8 3 3 8 8 9 9 2 2 5 5 10 10 2 2 10 10 8 8 5 5 7 7 11 11 5 5 11 11 10 10 7 7 3 3 9 9 7 7 9 9 11 11 9 9 8 8 12 12 9 9 12 12 13 13 8 8 10 10 14 14 8 8 14 14 12 12 10 10 11 11 15 15 10 10 15 15 14 14 11 11 9 9 13 13 11 11 13 13 15 15 13 13 12 12 16 16 13 13 16 16 17 17 12 12 14 14 18 18 12 12 18 18 16 16 14 14 15 15 19 19 14 14 19 19 18 18 15 15 13 13 17 17 15 15 17 17 19 19 17 17 16 16 20 20 17 17 20 20 21 21 16 16 18 18 22 22 16 16 22 22 20 20 18 18 19 19 23 23 18 18 23 23 22 22 19 19 17 17 21 21 19 19 21 21 23 23 0 0 1 1 24 24 1 1 4 4 24 24 4 4 6 6 24 24 6 6 0 0 24 24 20 20 21 21 25 25 22 22 20 20 25 25 23 23 22 22 25 25 21 21 23 23 25 25 26 26 27 27 28 28 26 26 28 28 29 29 27 27 30 30 31 31 27 27 31 31 28 28 30 30 32 32 33 33 30 30 33 33 31 31 32 32 26 26 29 29 32 32 29 29 33 33 29 29 28 28 34 34 29 29 34 34 35 35 28 28 31 31 36 36 28 28 36 36 34 34 31 31 33 33 37 37 31 31 37 37 36 36 33 33 29 29 35 35 33 33 35 35 37 37 35 35 34 34 38 38 35 35 38 38 39 39 34 34 36 36 40 40 34 34 40 40 38 38 36 36 37 37 41 41 36 36 41 41 40 40 37 37 35 35 39 39 37 37 39 39 41 41 39 39 38 38 42 42 39 39 42 42 43 43 38 38 40 40 44 44 38 38 44 44 42 42 40 40 41 41 45 45 40 40 45 45 44 44 41 41 39 39 43 43 41 41 43 43 45 45 43 43 42 42 46 46 43 43 46 46 47 47 42 42 44 44 48 48 42 42 48 48 46 46 44 44 45 45 49 49 44 44 49 49 48 48 45 45 43 43 47 47 45 45 47 47 49 49 26 26 27 27 50 50 27 27 30 30 50 50 30 30 32 32 50 50 32 32 26 26 50 50 46 46 47 47 51 51 48 48 46 46 51 51 49 49 48 48 51 51 47 47 49 49 51 51 52 52 53 53 54 54 52 52 54 54 55 55 53 53 56 56 57 57 53 53 57 57 54 54 56 56 52 52 55 55 56 56 55 55 57 57 55 55 54 54 58 58 55 55 58 58 59 59 54 54 57 57 60 60 54 54 60 60 58 58 57 57 55 55 59 59 57 57 59 59 60 60 59 59 58 58 61 61 59 59 61 61 62 62 58 58 60 60 63 63 58 58 63 63 61 61 60 60 59 59 62 62 60 60 62 62 63 63 64 64 65 65 66 66 64 64 66 66 67 67 65 65 68 68 69 69 65 65 69 69 66 66 68 68 64 64 67 67 68 68 67 67 69 69 67 67 66 66 70 70 67 67 70 70 71 71 66 66 69 69 72 72 66 66 72 72 70 70 69 69 67 67 71 71 69 69 71 71 72 72 71 71 70 70 73 73 71 71 73 73 74 74 70 70 72 72 75 75 70 70 75 75 73 73 72 72 71 71 74 74 72 72 74 74 75 75 76 76 77 77 78 78 76 76 78 78 79 79 77 77 80 80 81 81 77 77 81 81 78 78 80 80 76 76 79 79 80 80 79 79 81 81 79 79 78 78 82 82 79 79 82 82 83 83 78 78 81 81 84 84 78 78 84 84 82 82 81 81 79 79 83 83 81 81 83 83 84 84 83 83 82 82 85 85 83 83 85 85 86 86 82 82 84 84 87 87 82 82 87 87 85 85 84 84 83 83 86 86 84 84 86 86 87 87 88 88 89 89 90 90 88 88 90 90 91 91 89 89 92 92 93 93 89 89 93 93 90 90 92 92 88 88 91 91 92 92 91 91 93 93 91 91 90 90 94 94 91 91 94 94 95 95 90 90 93 93 96 96 90 90 96 96 94 94 93 93 91 91 95 95 93 93 95 95 96 96 95 95 94 94 97 97 95 95 97 97 98 98 94 94 96 96 99 99 94 94 99 99 97 97 96 96 95 95 98 98 96 96 98 98 99 99 100 100 101 101 102 102 100 100 102 102 103 103 101 101 104 104 105 105 101 101 105 105 102 102 104 104 106 106 107 107 104 104 107 107 105 105 106 106 100 100 103 103 106 106 103 103 107 107 103 103 102 102 108 108 103 103 108 108 109 109 102 102 105 105 110 110 102 102 110 110 108 108 105 105 107 107 111 111 105 105 111 111 110 110 107 107 103 103 109 109 107 107 109 109 111 111 109 109 108 108 112 112 109 109 112 112 113 113 108 108 110 110 114 114 108 108 114 114 112 112 110 110 111 111 115 115 110 110 115 115 114 114 111 111 109 109 113 113 111 111 113 113 115 115 113 113 112 112 116 116 113 113 116 116 117 117 112 112 114 114 118 118 112 112 118 118 116 116 114 114 115 115 119 119 114 114 119 119 118 118 115 115 113 113 117 117 115 115 117 117 119 119 117 117 116 116 120 120 117 117 120 120 121 121 116 116 118 118 122 122 116 116 122 122 120 120 118 118 119 119 123 123 118 118 123 123 122 122 119 119 117 117 121 121 119 119 121 121 123 123 100 100 101 101 124 124 101 101 104 104 124 124 104 104 106 106 124 124 106 106 100 100 124 124 120 120 121 121 125 125 122 122 120 120 125 125 123 123 122 122 125 125 121 121 123 123 125 125 126 126 127 127 128 128 126 126 128 128 129 129 127 127 130 130 131 131 127 127 131 131 128 128 130 130 126 126 129 129 130 130 129 129 131 131 129 129 128 128 132 132 129 129 132 132 133 133 128 128 131 131 134 134 128 128 134 134 132 132 131 131 129 129 133 133 131 131 133 133 134 134 133 133 132 132 135 135 133 133 135 135 136 136 132 132 134 134 137 137 132 132 137 137 135 135 134 134 133 133 136 136 134 134 136 136 137 137 138 138 139 139 140 140 138 138 140 140 141 141 139 139 142 142 143 143 139 139 143 143 140 140 142 142 138 138 141 141 142 142 141 141 143 143 141 141 140 140 144 144 141 141 144 144 145 145 140 140 143 143 146 146 140 140 146 146 144 144 143 143 141 141 145 145 143 143 145 145 146 146 145 145 144 144 147 147 145 145 147 147 148 148 144 144 146 146 149 149 144 144 149 149 147 147 146 146 145 145 148 148 146 146 148 148 149 149 150 150 151 151 152 152 150 150 152 152 153 153 151 151 154 154 155 155 151 151 155 155 152 152 154 154 150 150 153 153 154 154 153 153 155 155 153 153 152 152 156 156 153 153 156 156 157 157 152 152 155 155 158 158 152 152 158 158 156 156 155 155 153 153 157 157 155 155 157 157 158 158 157 157 156 156 159 159 157 157 159 159 160 160 156 156 158 158 161 161 156 156 161 161 159 159 158 158 157 157 160 160 158 158 160 160 161 161 162 162 163 163 164 164 162 162 164 164 165 165 163 163 166 166 167 167 163 163 167 167 164 164 166 166 162 162 165 165 166 166 165 165 167 167 165 165 164 164 168 168 165 165 168 168 169 169 164 164 167 167 170 170 164 164 170 170 168 168 167 167 165 165 169 169 167 167 169 169 170 170 169 169 168 168 171 171 169 169 171 171 172 172 168 168 170 170 173 173 168 168 173 173 171 171 170 170 169 169 172 172 170 170 172 172 173 173 174 174 175 175 176 176 174 174 176 176 177 177 175 175 178 178 179 179 175 175 179 179 176 176 178 178 174 174 177 177 178 178 177 177 179 179 177 177 176 176 180 180 177 177 180 180 181 181 176 176 179 179 182 182 176 176 182 182 180 180 179 179 177 177 181 181 179 179 181 181 182 182 181 181 180 180 183 183 181 181 183 183 184 184 180 180 182 182 185 185 180 180 185 185 183 183 182 182 181 181 184 184 182 182 184 184 185 185 186 186 187 187 188 188 186 186 188 188 189 189 187 187 190 190 191 191 187 187 191 191 188 188 190 190 186 186 189 189 190 190 189 189 191 191 189 189 188 188 192 192 189 189 192 192 193 193 188 188 191 191 194 194 188 188 194 194 192 192 191 191 189 189 193 193 191 191 193 193 194 194 193 193 192 192 195 195 193 193 195 195 196 196 192 192 194 194 197 197 192 192 197 197 195 195 194 194 193 193 196 196 194 194 196 196 197 197 198 198 199 199 200 200 198 198 200 200 201 201 199 199 202 202 203 203 199 199 203 203 200 200 202 202 198 198 201 201 202 202 201 201 203 203 201 201 200 200 204 204 201 201 204 204 205 205 200 200 203 203 206 206 200 200 206 206 204 204 203 203 201 201 205 205 203 203 205 205 206 206 205 205 204 204 207 207 205 205 207 207 208 208 204 204 206 206 209 209 204 204 209 209 207 207 206 206 205 205 208 208 206 206 208 208 209 209 210 210 211 211 212 212 210 210 212 212 213 213 211 211 214 214 215 215 211 211 215 215 212 212 214 214 210 210 213 213 214 214 213 213 215 215 213 213 212 212 216 216 213 213 216 216 217 217 212 212 215 215 218 218 212 212 218 218 216 216 215 215 213 213 217 217 215 215 217 217 218 218 217 217 216 216 219 219 217 217 219 219 220 220 216 216 218 218 221 221 216 216 221 221 219 219 218 218 217 217 220 220 218 218 220 220 221 221 222 222 223 223 224 224 222 222 224 224 225 225 223 223 226 226 227 227 223 223 227 227 224 224 226 226 222 222 225 225 226 226 225 225 227 227 225 225 224 224 228 228 225 225 228 228 229 229 224 224 227 227 230 230 224 224 230 230 228 228 227 227 225 225 229 229 227 227 229 229 230 230 229 229 228 228 231 231 229 229 231 231 232 232 228 228 230 230 233 233 228 228 233 233 231 231 230 230 229 229 232 232 230 230 232 232 233 233 234 234 235 235 236 236 234 234 236 236 237 237 235 235 238 238 239 239 235 235 239 239 236 236 238 238 240 240 241 241 238 238 241 241 239 239 240 240 234 234 237 237 240 240 237 237 241 241 237 237 236 236 242 242 237 237 242 242 243 243 236 236 239 239 244 244 236 236 244 244 242 242 239 239 241 241 245 245 239 239 245 245 244 244 241 241 237 237 243 243 241 241 243 243 245 245 243 243 242 242 246 246 243 243 246 246 247 247 242 242 244 244 248 248 242 242 248 248 246 246 244 244 245 245 249 249 244 244 249 249 248 248 245 245 243 243 247 247 245 245 247 247 249 249 247 247 246 246 250 250 247 247 250 250 251 251 246 246 248 248 252 252 246 246 252 252 250 250 248 248 249 249 253 253 248 248 253 253 252 252 249 249 247 247 251 251 249 249 251 251 253 253 251 251 250 250 254 254 251 251 254 254 255 255 250 250 252 252 256 256 250 250 256 256 254 254 252 252 253 253 257 257 252 252 257 257 256 256 253 253 251 251 255 255 253 253 255 255 257 257 234 234 235 235 258 258 235 235 238 238 258 258 238 238 240 240 258 258 240 240 234 234 258 258 254 254 255 255 259 259 256 256 254 254 259 259 257 257 256 256 259 259 255 255 257 257 259 259 260 260 261 261 262 262 260 260 262 262 263 263 261 261 264 264 265 265 261 261 265 265 262 262 264 264 266 266 267 267 264 264 267 267 265 265 266 266 260 260 263 263 266 266 263 263 267 267 263 263 262 262 268 268 263 263 268 268 269 269 262 262 265 265 270 270 262 262 270 270 268 268 265 265 267 267 271 271 265 265 271 271 270 270 267 267 263 263 269 269 267 267 269 269 271 271 269 269 268 268 272 272 269 269 272 272 273 273 268 268 270 270 274 274 268 268 274 274 272 272 270 270 271 271 275 275 270 270 275 275 274 274 271 271 269 269 273 273 271 271 273 273 275 275 273 273 272 272 276 276 273 273 276 276 277 277 272 272 274 274 278 278 272 272 278 278 276 276 274 274 275 275 279 279 274 274 279 279 278 278 275 275 273 273 277 277 275 275 277 277 279 279 277 277 276 276 280 280 277 277 280 280 281 281 276 276 278 278 282 282 276 276 282 282 280 280 278 278 279 279 283 283 278 278 283 283 282 282 279 279 277 277 281 281 279 279 281 281 283 283 260 260 261 261 284 284 261 261 264 264 284 284 264 264 266 266 284 284 266 266 260 260 284 284 280 280 281 281 285 285 282 282 280 280 285 285 283 283 282 282 285 285 281 281 283 283 285 285 286 286 287 287 288 288 286 286 288 288 289 289 287 287 290 290 291 291 287 287 291 291 288 288 290 290 286 286 289 289 290 290 289 289 291 291 289 289 288 288 292 292 289 289 292 292 293 293 288 288 291 291 294 294 288 288 294 294 292 292 291 291 289 289 293 293 291 291 293 293 294 294 293 293 292 292 295 295 293 293 295 295 296 296 292 292 294 294 297 297 292 292 297 297 295 295 294 294 293 293 296 296 294 294 296 296 297 297 298 298 299 299 300 300 298 298 300 300 301 301 299 299 302 302 303 303 299 299 303 303 300 300 302 302 298 298 301 301 302 302 301 301 303 303 301 301 300 300 304 304 301 301 304 304 305 305 300 300 303 303 306 306 300 300 306 306 304 304 303 303 301 301 305 305 303 303 305 305 306 306 305 305 304 304 307 307 305 305 307 307 308 308 304 304 306 306 309 309 304 304 309 309 307 307 306 306 305 305 308 308 306 306 308 308 309 309 310 310 311 311 312 312 310 310 312 312 313 313 311 311 314 314 315 315 311 311 315 315 312 312 314 314 310 310 313 313 314 314 313 313 315 315 313 313 312 312 316 316 313 313 316 316 317 317 312 312 315 315 318 318 312 312 318 318 316 316 315 315 313 313 317 317 315 315 317 317 318 318 317 317 316 316 319 319 317 317 319 319 320 320 316 316 318 318 321 321 316 316 321 321 319 319 318 318 317 317 320 320 318 318 320 320 321 321 322 322 323 323 324 324 322 322 324 324 325 325 323 323 326 326 327 327 323 323 327 327 324 324 326 326 322 322 325 325 326 326 325 325 327 327 325 325 324 324 328 328 325 325 328 328 329 329 324 324 327 327 330 330 324 324 330 330 328 328 327 327 325 325 329 329 327 327 329 329 330 330 329 329 328 328 331 331 329 329 331 331 332 332 328 328 330 330 333 333 328 328 333 333 331 331 330 330 329 329 332 332 330 330 332 332 333 333 334 334 335 335 336 336 334 334 336 336 337 337 335 335 338 338 339 339 335 335 339 339 336 336 338 338 334 334 337 337 338 338 337 337 339 339 337 337 336 336 340 340 337 337 340 340 341 341 336 336 339 339 342 342 336 336 342 342 340 340 339 339 337 337 341 341 339 339 341 341 342 342 341 341 340 340 343 343 341 341 343 343 344 344 340 340 342 342 345 345 340 340 345 345 343 343 342 342 341 341 344 344 342 342 344 344 345 345 346 346 347 347 348 348 346 346 348 348 349 349 347 347 350 350 351 351 347 347 351 351 348 348 350 350 346 346 349 349 350 350 349 349 351 351 349 349 348 348 352 352 349 349 352 352 353 353 348 348 351 351 354 354 348 348 354 354 352 352 351 351 349 349 353 353 351 351 353 353 354 354 353 353 352 352 355 355 353 353 355 355 356 356 352 352 354 354 357 357 352 352 357 357 355 355 354 354 353 353 356 356 354 354 356 356 357 357 358 358 359 359 360 360 358 358 360 360 361 361 359 359 362 362 363 363 359 359 363 363 360 360 362 362 358 358 361 361 362 362 361 361 363 363 361 361 360 360 364 364 361 361 364 364 365 365 360 360 363 363 366 366 360 360 366 366 364 364 363 363 361 361 365 365 363 363 365 365 366 366 365 365 364 364 367 367 365 365 367 367 368 368 364 364 366 366 369 369 364 364 369 369 367 367 366 366 365 365 368 368 366 366 368 368 369 369 370 370 371 371 372 372 370 370 372 372 373 373 371 371 374 374 375 375 371 371 375 375 372 372 374 374 370 370 373 373 374 374 373 373 375 375 373 373 372 372 376 376 373 373 376 376 377 377 372 372 375 375 378 378 372 372 378 378 376 376 375 375 373 373 377 377 375 375 377 377 378 378 377 377 376 376 379 379 377 377 379 379 380 380 376 376 378 378 381 381 376 376 381 381 379 379 378 378 377 377 380 380 378 378 380 380 381 381 382 382 383 383 384 384 382 382 384 384 385 385 383 383 386 386 387 387 383 383 387 387 384 384 386 386 382 382 385 385 386 386 385 385 387 387 385 385 384 384 388 388 385 385 388 388 389 389 384 384 387 387 390 390 384 384 390 390 388 388 387 387 385 385 389 389 387 387 389 389 390 390 389 389 388 388 391 391 389 389 391 391 392 392 388 388 390 390 393 393 388 388 393 393 391 391 390 390 389 389 392 392 390 390 392 392 393 393 394 394 395 395 396 396 394 394 396 396 397 397 395 395 398 398 399 399 395 395 399 399 396 396 398 398 400 400 401 401 398 398 401 401 399 399 400 400 394 394 397 397 400 400 397 397 401 401 397 397 396 396 402 402 397 397 402 402 403 403 396 396 399 399 404 404 396 396 404 404 402 402 399 399 401 401 405 405 399 399 405 405 404 404 401 401 397 397 403 403 401 401 403 403 405 405 403 403 402 402 406 406 403 403 406 406 407 407 402 402 404 404 408 408 402 402 408 408 406 406 404 404 405 405 409 409 404 404 409 409 408 408 405 405 403 403 407 407 405 405 407 407 409 409 407 407 406 406 410 410 407 407 410 410 411 411 406 406 408 408 412 412 406 406 412 412 410 410 408 408 409 409 413 413 408 408 413 413 412 412 409 409 407 407 411 411 409 409 411 411 413 413 411 411 410 410 414 414 411 411 414 414 415 415 410 410 412 412 416 416 410 410 416 416 414 414 412 412 413 413 417 417 412 412 417 417 416 416 413 413 411 411 415 415 413 413 415 415 417 417 394 394 395 395 418 418 395 395 398 398 418 418 398 398 400 400 418 418 400 400 394 394 418 418 414 414 415 415 419 419 416 416 414 414 419 419 417 417 416 416 419 419 415 415 417 417 419 419 420 420 421 421 422 422 420 420 422 422 423 423 421 421 424 424 425 425 421 421 425 425 422 422 424 424 420 420 423 423 424 424 423 423 425 425 423 423 422 422 426 426 423 423 426 426 427 427 422 422 425 425 428 428 422 422 428 428 426 426 425 425 423 423 427 427 425 425 427 427 428 428 427 427 426 426 429 429 427 427 429 429 430 430 426 426 428 428 431 431 426 426 431 431 429 429 428 428 427 427 430 430 428 428 430 430 431 431 432 432 433 433 434 434 432 432 434 434 435 435 433 433 436 436 437 437 433 433 437 437 434 434 436 436 432 432 435 435 436 436 435 435 437 437 435 435 434 434 438 438 435 435 438 438 439 439 434 434 437 437 440 440 434 434 440 440 438 438 437 437 435 435 439 439 437 437 439 439 440 440 439 439 438 438 441 441 439 439 441 441 442 442 438 438 440 440 443 443 438 438 443 443 441 441 440 440 439 439 442 442 440 440 442 442 443 443 444 444 445 445 446 446 444 444 446 446 447 447 445 445 448 448 449 449 445 445 449 449 446 446 448 448 444 444 447 447 448 448 447 447 449 449 447 447 446 446 450 450 447 447 450 450 451 451 446 446 449 449 452 452 446 446 452 452 450 450 449 449 447 447 451 451 449 449 451 451 452 452 451 451 450 450 453 453 451 451 453 453 454 454 450 450 452 452 455 455 450 450 455 455 453 453 452 452 451 451 454 454 452 452 454 454 455 455 456 456 457 457 458 458 456 456 458 458 459 459 457 457 460 460 461 461 457 457 461 461 458 458 460 460 456 456 459 459 460 460 459 459 461 461 459 459 458 458 462 462 459 459 462 462 463 463 458 458 461 461 464 464 458 458 464 464 462 462 461 461 459 459 463 463 461 461 463 463 464 464 463 463 462 462 465 465 463 463 465 465 466 466 462 462 464 464 467 467 462 462 467 467 465 465 464 464 463 463 466 466 464 464 466 466 467 467 468 468 469 469 470 470 468 468 470 470 471 471 469 469 472 472 473 473 469 469 473 473 470 470 472 472 468 468 471 471 472 472 471 471 473 473 471 471 470 470 474 474 471 471 474 474 475 475 470 470 473 473 476 476 470 470 476 476 474 474 473 473 471 471 475 475 473 473 475 475 476 476 475 475 474 474 477 477 475 475 477 477 478 478 474 474 476 476 479 479 474 474 479 479 477 477 476 476 475 475 478 478 476 476 478 478 479 479 480 480 481 481 482 482 480 480 482 482 483 483 481 481 484 484 485 485 481 481 485 485 482 482 484 484 486 486 487 487 484 484 487 487 485 485 486 486 480 480 483 483 486 486 483 483 487 487 483 483 482 482 488 488 483 483 488 488 489 489 482 482 485 485 490 490 482 482 490 490 488 488 485 485 487 487 491 491 485 485 491 491 490 490 487 487 483 483 489 489 487 487 489 489 491 491 489 489 488 488 492 492 489 489 492 492 493 493 488 488 490 490 494 494 488 488 494 494 492 492 490 490 491 491 495 495 490 490 495 495 494 494 491 491 489 489 493 493 491 491 493 493 495 495 493 493 492 492 496 496 493 493 496 496 497 497 492 492 494 494 498 498 492 492 498 498 496 496 494 494 495 495 499 499 494 494 499 499 498 498 495 495 493 493 497 497 495 495 497 497 499 499 497 497 496 496 500 500 497 497 500 500 501 501 496 496 498 498 502 502 496 496 502 502 500 500 498 498 499 499 503 503 498 498 503 503 502 502 499 499 497 497 501 501 499 499 501 501 503 503 480 480 481 481 504 504 481 481 484 484 504 504 484 484 486 486 504 504 486 486 480 480 504 504 500 500 501 501 505 505 502 502 500 500 505 505 503 503 502 502 505 505 501 501 503 503 505 505 506 506 507 507 508 508 506 506 508 508 509 509 507 507 510 510 511 511 507 507 511 511 508 508 510 510 512 512 513 513 510 510 513 513 511 511 512 512 506 506 509 509 512 512 509 509 513 513 509 509 508 508 514 514 509 509 514 514 515 515 508 508 511 511 516 516 508 508 516 516 514 514 511 511 513 513 517 517 511 511 517 517 516 516 513 513 509 509 515 515 513 513 515 515 517 517 515 515 514 514 518 518 515 515 518 518 519 519 514 514 516 516 520 520 514 514 520 520 518 518 516 516 517 517 521 521 516 516 521 521 520 520 517 517 515 515 519 519 517 517 519 519 521 521 519 519 518 518 522 522 519 519 522 522 523 523 518 518 520 520 524 524 518 518 524 524 522 522 520 520 521 521 525 525 520 520 525 525 524 524 521 521 519 519 523 523 521 521 523 523 525 525 523 523 522 522 526 526 523 523 526 526 527 527 522 522 524 524 528 528 522 522 528 528 526 526 524 524 525 525 529 529 524 524 529 529 528 528 525 525 523 523 527 527 525 525 527 527 529 529 506 506 507 507 530 530 507 507 510 510 530 530 510 510 512 512 530 530 512 512 506 506 530 530 526 526 527 527 531 531 528 528 526 526 531 531 529 529 528 528 531 531 527 527 529 529 531 531 532 532 533 533 534 534 532 532 534 534 535 535 533 533 536 536 537 537 533 533 537 537 534 534 536 536 538 538 539 539 536 536 539 539 537 537 538 538 532 532 535 535 538 538 535 535 539 539 535 535 534 534 540 540 535 535 540 540 541 541 534 534 537 537 542 542 534 534 542 542 540 540 537 537 539 539 543 543 537 537 543 543 542 542 539 539 535 535 541 541 539 539 541 541 543 543 541 541 540 540 544 544 541 541 544 544 545 545 540 540 542 542 546 546 540 540 546 546 544 544 542 542 543 543 547 547 542 542 547 547 546 546 543 543 541 541 545 545 543 543 545 545 547 547 545 545 544 544 548 548 545 545 548 548 549 549 544 544 546 546 550 550 544 544 550 550 548 548 546 546 547 547 551 551 546 546 551 551 550 550 547 547 545 545 549 549 547 547 549 549 551 551 549 549 548 548 552 552 549 549 552 552 553 553 548 548 550 550 554 554 548 548 554 554 552 552 550 550 551 551 555 555 550 550 555 555 554 554 551 551 549 549 553 553 551 551 553 553 555 555 532 532 533 533 556 556 533 533 536 536 556 556 536 536 538 538 556 556 538 538 532 532 556 556 552 552 553 553 557 557 554 554 552 552 557 557 555 555 554 554 557 557 553 553 555 555 557 557 558 558 559 559 560 560 558 558 560 560 561 561 559 559 562 562 563 563 559 559 563 563 560 560 562 562 564 564 565 565 562 562 565 565 563 563 564 564 558 558 561 561 564 564 561 561 565 565 561 561 560 560 566 566 561 561 566 566 567 567 560 560 563 563 568 568 560 560 568 568 566 566 563 563 565 565 569 569 563 563 569 569 568 568 565 565 561 561 567 567 565 565 567 567 569 569 567 567 566 566 570 570 567 567 570 570 571 571 566 566 568 568 572 572 566 566 572 572 570 570 568 568 569 569 573 573 568 568 573 573 572 572 569 569 567 567 571 571 569 569 571 571 573 573 571 571 570 570 574 574 571 571 574 574 575 575 570 570 572 572 576 576 570 570 576 576 574 574 572 572 573 573 577 577 572 572 577 577 576 576 573 573 571 571 575 575 573 573 575 575 577 577 575 575 574 574 578 578 575 575 578 578 579 579 574 574 576 576 580 580 574 574 580 580 578 578 576 576 577 577 581 581 576 576 581 581 580 580 577 577 575 575 579 579 577 577 579 579 581 581 558 558 559 559 582 582 559 559 562 562 582 582 562 562 564 564 582 582 564 564 558 558 582 582 578 578 579 579 583 583 580 580 578 578 583 583 581 581 580 580 583 583 579 579 581 581 583 583 584 584 585 585 586 586 584 584 586 586 587 587 585 585 588 588 589 589 585 585 589 589 586 586 588 588 590 590 591 591 588 588 591 591 589 589 590 590 584 584 587 587 590 590 587 587 591 591 587 587 586 586 592 592 587 587 592 592 593 593 586 586 589 589 594 594 586 586 594 594 592 592 589 589 591 591 595 595 589 589 595 595 594 594 591 591 587 587 593 593 591 591 593 593 595 595 593 593 592 592 596 596 593 593 596 596 597 597 592 592 594 594 598 598 592 592 598 598 596 596 594 594 595 595 599 599 594 594 599 599 598 598 595 595 593 593 597 597 595 595 597 597 599 599 597 597 596 596 600 600 597 597 600 600 601 601 596 596 598 598 602 602 596 596 602 602 600 600 598 598 599 599 603 603 598 598 603 603 602 602 599 599 597 597 601 601 599 599 601 601 603 603 601 601 600 600 604 604 601 601 604 604 605 605 600 600 602 602 606 606 600 600 606 606 604 604 602 602 603 603 607 607 602 602 607 607 606 606 603 603 601 601 605 605 603 603 605 605 607 607 584 584 585 585 608 608 585 585 588 588 608 608 588 588 590 590 608 608 590 590 584 584 608 608 604 604 605 605 609 609 606 606 604 604 609 609 607 607 606 606 609 609 605 605 607 607 609 609 610 610 611 611 612 612 610 610 612 612 613 613 611 611 614 614 615 615 611 611 615 615 612 612 614 614 616 616 617 617 614 614 617 617 615 615 616 616 610 610 613 613 616 616 613 613 617 617 613 613 612 612 618 618 613 613 618 618 619 619 612 612 615 615 620 620 612 612 620 620 618 618 615 615 617 617 621 621 615 615 621 621 620 620 617 617 613 613 619 619 617 617 619 619 621 621 619 619 618 618 622 622 619 619 622 622 623 623 618 618 620 620 624 624 618 618 624 624 622 622 620 620 621 621 625 625 620 620 625 625 624 624 621 621 619 619 623 623 621 621 623 623 625 625 623 623 622 622 626 626 623 623 626 626 627 627 622 622 624 624 628 628 622 622 628 628 626 626 624 624 625 625 629 629 624 624 629 629 628 628 625 625 623 623 627 627 625 625 627 627 629 629 627 627 626 626 630 630 627 627 630 630 631 631 626 626 628 628 632 632 626 626 632 632 630 630 628 628 629 629 633 633 628 628 633 633 632 632 629 629 627 627 631 631 629 629 631 631 633 633 610 610 611 611 634 634 611 611 614 614 634 634 614 614 616 616 634 634 616 616 610 610 634 634 630 630 631 631 635 635 632 632 630 630 635 635 633 633 632 632 635 635 631 631 633 633 635 635 636 636 637 637 638 638 636 636 638 638 639 639 637 637 640 640 641 641 637 637 641 641 638 638 640 640 642 642 643 643 640 640 643 643 641 641 642 642 636 636 639 639 642 642 639 639 643 643 639 639 638 638 644 644 639 639 644 644 645 645 638 638 641 641 646 646 638 638 646 646 644 644 641 641 643 643 647 647 641 641 647 647 646 646 643 643 639 639 645 645 643 643 645 645 647 647 645 645 644 644 648 648 645 645 648 648 649 649 644 644 646 646 650 650 644 644 650 650 648 648 646 646 647 647 651 651 646 646 651 651 650 650 647 647 645 645 649 649 647 647 649 649 651 651 649 649 648 648 652 652 649 649 652 652 653 653 648 648 650 650 654 654 648 648 654 654 652 652 650 650 651 651 655 655 650 650 655 655 654 654 651 651 649 649 653 653 651 651 653 653 655 655 653 653 652 652 656 656 653 653 656 656 657 657 652 652 654 654 658 658 652 652 658 658 656 656 654 654 655 655 659 659 654 654 659 659 658 658 655 655 653 653 657 657 655 655 657 657 659 659 636 636 637 637 660 660 637 637 640 640 660 660 640 640 642 642 660 660 642 642 636 636 660 660 656 656 657 657 661 661 658 658 656 656 661 661 659 659 658 658 661 661 657 657 659 659 661 661 662 662 663 663 664 664 662 662 664 664 665 665 663 663 666 666 667 667 663 663 667 667 664 664 666 666 668 668 669 669 666 666 669 669 667 667 668 668 662 662 665 665 668 668 665 665 669 669 665 665 664 664 670 670 665 665 670 670 671 671 664 664 667 667 672 672 664 664 672 672 670 670 667 667 669 669 673 673 667 667 673 673 672 672 669 669 665 665 671 671 669 669 671 671 673 673 671 671 670 670 674 674 671 671 674 674 675 675 670 670 672 672 676 676 670 670 676 676 674 674 672 672 673 673 677 677 672 672 677 677 676 676 673 673 671 671 675 675 673 673 675 675 677 677 675 675 674 674 678 678 675 675 678 678 679 679 674 674 676 676 680 680 674 674 680 680 678 678 676 676 677 677 681 681 676 676 681 681 680 680 677 677 675 675 679 679 677 677 679 679 681 681 679 679 678 678 682 682 679 679 682 682 683 683 678 678 680 680 684 684 678 678 684 684 682 682 680 680 681 681 685 685 680 680 685 685 684 684 681 681 679 679 683 683 681 681 683 683 685 685 662 662 663 663 686 686 663 663 666 666 686 686 666 666 668 668 686 686 668 668 662 662 686 686 682 682 683 683 687 687 684 684 682 682 687 687 685 685 684 684 687 687 683 683 685 685 687 687 688 688 689 689 690 690 688 688 690 690 691 691 689 689 692 692 693 693 689 689 693 693 690 690 692 692 694 694 695 695 692 692 695 695 693 693 694 694 688 688 691 691 694 694 691 691 695 695 691 691 690 690 696 696 691 691 696 696 697 697 690 690 693 693 698 698 690 690 698 698 696 696 693 693 695 695 699 699 693 693 699 699 698 698 695 695 691 691 697 697 695 695 697 697 699 699 697 697 696 696 700 700 697 697 700 700 701 701 696 696 698 698 702 702 696 696 702 702 700 700 698 698 699 699 703 703 698 698 703 703 702 702 699 699 697 697 701 701 699 699 701 701 703 703 701 701 700 700 704 704 701 701 704 704 705 705 700 700 702 702 706 706 700 700 706 706 704 704 702 702 703 703 707 707 702 702 707 707 706 706 703 703 701 701 705 705 703 703 705 705 707 707 705 705 704 704 708 708 705 705 708 708 709 709 704 704 706 706 710 710 704 704 710 710 708 708 706 706 707 707 711 711 706 706 711 711 710 710 707 707 705 705 709 709 707 707 709 709 711 711 688 688 689 689 712 712 689 689 692 692 712 712 692 692 694 694 712 712 694 694 688 688 712 712 708 708 709 709 713 713 710 710 708 708 713 713 711 711 710 710 713 713 709 709 711 711 713 713 714 714 715 715 716 716 714 714 716 716 717 717 715 715 718 718 719 719 715 715 719 719 716 716 718 718 720 720 721 721 718 718 721 721 719 719 720 720 714 714 717 717 720 720 717 717 721 721 717 717 716 716 722 722 717 717 722 722 723 723 716 716 719 719 724 724 716 716 724 724 722 722 719 719 721 721 725 725 719 719 725 725 724 724 721 721 717 717 723 723 721 721 723 723 725 725 723 723 722 722 726 726 723 723 726 726 727 727 722 722 724 724 728 728 722 722 728 728 726 726 724 724 725 725 729 729 724 724 729 729 728 728 725 725 723 723 727 727 725 725 727 727 729 729 727 727 726 726 730 730 727 727 730 730 731 731 726 726 728 728 732 732 726 726 732 732 730 730 728 728 729 729 733 733 728 728 733 733 732 732 729 729 727 727 731 731 729 729 731 731 733 733 731 731 730 730 734 734 731 731 734 734 735 735 730 730 732 732 736 736 730 730 736 736 734 734 732 732 733 733 737 737 732 732 737 737 736 736 733 733 731 731 735 735 733 733 735 735 737 737 714 714 715 715 738 738 715 715 718 718 738 738 718 718 720 720 738 738 720 720 714 714 738 738 734 734 735 735 739 739 736 736 734 734 739 739 737 737 736 736 739 739 735 735 737 737 739 739</p></triangles>
      </mesh>
    </geometry>
  </library_geometries>
  <library_visual_scenes><visual_scene id="scene" name="scene">
    <node id="weeds_-02+01_solid" name="weeds_-02+01_solid" type="NODE"><instance_geometry url="#weeds_-02+01_solid-mesh"><bind_material><technique_common>
      <instance_material symbol="MAT_WEED_STEM-mat" target="#MAT_WEED_STEM"/>
    </technique_common></bind_material></instance_geometry></node>
  </visual_scene></library_visual_scenes>
  <scene><instance_visual_scene url="#scene"/></scene>
</COLLADA>
