<?xml version="1.0" encoding="utf-8"?>
<COLLADA xmlns="http://www.collada.org/2005/11/COLLADASchema" version="1.4.1">
  <asset>
    <contributor><authoring_tool>VIGIL SIH26126 farm generator</authoring_tool></contributor>
    <unit name="meter" meter="1"/>
    <up_axis>Z_UP</up_axis>
  </asset>
  <library_effects>
    <effect id="MAT_WEED_STEM-fx"><profile_COMMON><technique sid="c"><lambert><diffuse><color>0.0860 0.1040 0.0360 1</color></diffuse></lambert></technique></profile_COMMON></effect>
  </library_effects>
  <library_materials>
    <material id="MAT_WEED_STEM" name="MAT_WEED_STEM"><instance_effect url="#MAT_WEED_STEM-fx"/></material>
  </library_materials>
  <library_geometries>
    <geometry id="weeds_+00-03_solid-mesh" name="weeds_+00-03_solid">
      <mesh>
        <source id="weeds_+00-03_solid-pos"><float_array id="weeds_+00-03_solid-pos-a" count="222">3.833 0.066031 -0.1136 3.8376 0.065184 -0.10889 3.8132 0.11207 -0.069301 3.8099 0.11261 -0.074072 3.8386 0.069052 -0.11425 3.815 0.1149 -0.074141 3.7931 0.16149 -0.060126 3.7906 0.16069 -0.055846 3.7888 0.15971 -0.06043 3.7733 0.20981 -0.081063 3.7711 0.21003 -0.077655 3.7698 0.20841 -0.081119 3.834 0.066154 -0.10919 3.8385 0.064173 -0.1136 3.8808 0.079441 -0.070475 3.8776 0.08128 -0.066079 3.8367 0.069939 -0.11396 3.8791 0.084404 -0.070734 3.9246 0.095623 -0.053518 3.9238 0.097597 -0.049019 3.923 0.099775 -0.053413 3.9711 0.11321 -0.070995 3.9715 0.11506 -0.067417 3.9699 0.11662 -0.070748 3.8329 0.06599 -0.1131 3.8391 0.065729 -0.11474 3.8427 0.01161 -0.076699 3.8372 0.011448 -0.075456 3.8372 0.068546 -0.10891 3.8408 0.013224 -0.071309 3.8481 -0.041395 -0.061137 3.8461 -0.041283 -0.065715 3.8435 -0.042009 -0.061452 3.8559 -0.093987 -0.08468 3.854 -0.093111 -0.088165 3.8521 -0.094528 -0.084845 3.8329 0.066011 -0.11338 3.8392 0.065531 -0.11437 3.8384 0.019218 -0.076351 3.8328 0.019247 -0.075817 3.837 0.068722 -0.10899 3.836 0.021114 -0.071338 3.8391 -0.026039 -0.061189 3.837 -0.025719 -0.065739 3.8345 -0.026333 -0.061458 3.8424 -0.070848 -0.084814 3.8404 -0.069704 -0.088154 3.8386 -0.071178 -0.084847 -0.82007 -0.07073 -0.050084 -0.80765 -0.068596 -0.049425 -0.81137 -0.078251 0.03484 -0.8223 -0.080147 0.034425 -0.81045 -0.056372 -0.048035 -0.81384 -0.067497 0.0361 -0.82287 -0.058506 -0.048694 -0.82477 -0.069393 0.035685 -0.8127 -0.088005 0.11915 -0.82215 -0.089672 0.11907 -0.81483 -0.078726 0.1203 -0.82428 -0.080393 0.12022 -0.81165 -0.097872 0.20361 -0.8196 -0.099298 0.20379 -0.81343 -0.090063 0.20463 -0.82138 -0.09149 0.20481 -0.8082 -0.10785 0.28823 -0.81466 -0.10903 0.28857 -0.80964 -0.10151 0.2891 -0.81609 -0.10268 0.28944 -0.80236 -0.11794 0.37305 -0.80732 -0.11885 0.37339 -0.80346 -0.11307 0.37374 -0.80842 -0.11398 0.37407 -0.81526 -0.063551 -0.049059 -0.80539 -0.11596 0.37356</float_array><technique_common><accessor source="#weeds_+00-03_solid-pos-a" count="74" stride="3"><param name="X" type="float"/><param name="Y" type="float"/><param name="Z" type="float"/></accessor></technique_common></source>
        <source id="weeds_+00-03_solid-nrm"><float_array id="weeds_+00-03_solid-nrm-a" count="222">-0.924 -0.163 -0.347 0.315 -0.512 0.799 0.58 -0.195 0.791 -0.934 -0.355 0.03 0.614 0.675 -0.41 0.46 0.562 -0.687 0.951 0.239 0.197 -0.621 -0.07 0.78 -0.565 -0.152 -0.811 0.897 0.195 -0.397 -0.177 0.34 0.924 -0.731 -0.489 -0.477 -0.662 -0.173 0.729 0.576 -0.763 -0.295 0.489 -0.826 -0.282 -0.501 -0.146 0.853 0.047 0.933 -0.358 -0.095 0.939 -0.332 0.324 -0.889 -0.322 0.01 -0.007 1 -0.31 0.904 -0.295 0.158 -0.875 -0.457 0.335 0.079 0.939 -0.437 0.811 -0.389 -0.948 -0.229 -0.221 0.766 -0.335 -0.549 0.942 -0.123 -0.312 -0.884 -0.217 -0.415 0.208 0.559 0.802 -0.123 0.384 0.915 0.945 -0.02 0.326 -0.348 0.084 -0.934 -0.619 -0.11 0.777 0.875 -0.084 0.477 -0.003 0.396 -0.918 -0.873 -0.31 0.376 -0.929 -0.232 -0.29 0.805 -0.385 -0.451 0.96 -0.179 -0.216 -0.86 -0.201 -0.469 0.131 0.614 0.779 -0.179 0.443 0.879 0.927 -0.102 0.361 -0.326 0.123 -0.937 -0.631 -0.074 0.772 0.878 -0.171 0.447 -0.004 0.452 -0.892 -0.882 -0.278 0.381 -0.476 -0.752 0.456 0.661 -0.52 0.541 0.831 -0.555 -0.039 -0.557 -0.824 -0.099 0.44 0.616 0.653 0.548 0.827 0.124 -0.698 0.381 0.606 -0.835 0.546 0.064 0.831 -0.553 -0.063 -0.558 -0.826 -0.085 0.549 0.829 0.11 -0.835 0.544 0.088 0.83 -0.551 -0.087 -0.558 -0.827 -0.07 0.55 0.83 0.095 -0.833 0.542 0.112 0.828 -0.549 -0.11 -0.557 -0.829 -0.055 0.55 0.831 0.081 -0.831 0.54 0.135 0.638 -0.385 -0.667 -0.511 -0.631 -0.583 0.42 0.767 -0.486 -0.734 0.516 -0.441 -0.032 -0.12 0.992 -0.089 0.119 -0.989</float_array><technique_common><accessor source="#weeds_+00-03_solid-nrm-a" count="74" stride="3"><param name="X" type="float"/><param name="Y" type="float"/><param name="Z" type="float"/></accessor></technique_common></source>
        <vertices id="weeds_+00-03_solid-vtx"><input semantic="POSITION" source="#weeds_+00-03_solid-pos"/></vertices>
        <triangles count="120" material="MAT_WEED_STEM-mat"><input semantic="VERTEX" source="#weeds_+00-03_solid-vtx" offset="0"/><input semantic="NORMAL" source="#weeds_+00-03_solid-nrm" offset="1"/><p>0 0 1 1 2 2 0 0 2 2 3 3 1 1 4 4 5 5 1 1 5 5 2 2 4 4 0 0 3 3 4 4 3 3 5 5 3 3 2 2 6 6 3 3 6 6 7 7 2 2 5 5 8 8 2 2 8 8 6 6 5 5 3 3 7 7 5 5 7 7 8 8 7 7 6 6 9 9 7 7 9 9 10 10 6 6 8 8 11 11 6 6 11 11 9 9 8 8 7 7 10 10 8 8 10 10 11 11 12 12 13 13 14 14 12 12 14 14 15 15 13 13 16 16 17 17 13 13 17 17 14 14 16 16 12 12 15 15 16 16 15 15 17 17 15 15 14 14 18 18 15 15 18 18 19 19 14 14 17 17 20 20 14 14 20 20 18 18 17 17 15 15 19 19 17 17 19 19 20 20 19 19 18 18 21 21 19 19 21 21 22 22 18 18 20 20 23 23 18 18 23 23 21 21 20 20 19 19 22 22 20 20 22 22 23 23 24 24 25 25 26 26 24 24 26 26 27 27 25 25 28 28 29 29 25 25 29 29 26 26 28 28 24 24 27 27 28 28 27 27 29 29 27 27 26 26 30 30 27 27 30 30 31 31 26 26 29 29 32 32 26 26 32 32 30 30 29 29 27 27 31 31 29 29 31 31 32 32 31 31 30 30 33 33 31 31 33 33 34 34 30 30 32 32 35 35 30 30 35 35 33 33 32 32 31 31 34 34 32 32 34 34 35 35 36 36 37 37 38 38 36 36 38 38 39 39 37 37 40 40 41 41 37 37 41 41 38 38 40 40 36 36 39 39 40 40 39 39 41 41 39 39 38 38 42 42 39 39 42 42 43 43 38 38 41 41 44 44 38 38 44 44 42 42 41 41 39 39 43 43 41 41 43 43 44 44 43 43 42 42 45 45 43 43 45 45 46 46 42 42 44 44 47 47 42 42 47 47 45 45 44 44 43 43 46 46 44 44 46 46 47 47 48 48 49 49 50 50 48 48 50 50 51 51 49 49 52 52 53 53 49 49 53 53 50 50 52 52 54 54 55 55 52 52 55 55 53 53 54 54 48 48 51 51 54 54 51 51 55 55 51 51 50 50 56 56 51 51 56 56 57 57 50 50 53 53 58 58 50 50 58 58 56 56 53 53 55 55 59 59 53 53 59 59 58 58 55 55 51 51 57 57 55 55 57 57 59 59 57 57 56 56 60 60 57 57 60 60 61 61 56 56 58 58 62 62 56 56 62 62 60 60 58 58 59 59 63 63 58 58 63 63 62 62 59 59 57 57 61 61 59 59 61 61 63 63 61 61 60 60 64 64 61 61 64 64 65 65 60 60 62 62 66 66 60 60 66 66 64 64 62 62 63 63 67 67 62 62 67 67 66 66 63 63 61 61 65 65 63 63 65 65 67 67 65 65 64 64 68 68 65 65 68 68 69 69 64 64 66 66 70 70 64 64 70 70 68 68 66 66 67 67 71 71 66 66 71 71 70 70 67 67 65 65 69 69 67 67 69 69 71 71 48 48 49 49 72 72 49 49 52 52 72 72 52 52 54 54 72 72 54 54 48 48 72 72 68 68 69 69 73 73 70 70 68 68 73 73 71 71 70 70 73 73 69 69 71 71 73 73</p></triangles>
      </mesh>
    </geometry>
  </library_geometries>
  <library_visual_scenes><visual_scene id="scene" name="scene">
    <node id="weeds_+00-03_solid" name="weeds_+00-03_solid" type="NODE"><instance_geometry url="#weeds_+00-03_solid-mesh"><bind_material><technique_common>
      <instance_material symbol="MAT_WEED_STEM-mat" target="#MAT_WEED_STEM"/>
    </technique_common></bind_material></instance_geometry></node>
  </visual_scene></library_visual_scenes>
  <scene><instance_visual_scene url="#scene"/></scene>
</COLLADA>
