<?xml version="1.0" encoding="utf-8"?>
<COLLADA xmlns="http://www.collada.org/2005/11/COLLADASchema" version="1.4.1">
  <asset>
    <contributor><authoring_tool>VIGIL SIH26126 farm generator</authoring_tool></contributor>
    <unit name="meter" meter="1"/>
    <up_axis>Z_UP</up_axis>
  </asset>
  <library_effects>
    <effect id="MAT_WEED_STEM-fx"><profile_COMMON><technique sid="c"><lambert><diffuse><color>0.0860 0.1040 0.0360 1</color></diffuse></lambert></technique></profile_COMMON></effect>
  </library_effects>
  <library_materials>
    <material id="MAT_WEED_STEM" name="MAT_WEED_STEM"><instance_effect url="#MAT_WEED_STEM-fx"/></material>
  </library_materials>
  <library_geometries>
    <geometry id="weeds_+01-02_solid-mesh" name="weeds_+01-02_solid">
      <mesh>
        <source id="weeds_+01-02_solid-pos"><float_array id="weeds_+01-02_solid-pos-a" count="2322">-2.6818 2.1121 0.0036532 -2.6842 2.1101 0.008336 -2.6504 2.1405 0.037736 -2.6485 2.1414 0.033311 -2.6796 2.1076 0.0060593 -2.6466 2.1378 0.036028 -2.6172 2.1713 0.045945 -2.6159 2.1694 0.042501 -2.6143 2.1684 0.04615 -2.5852 2.2007 0.026998 -2.5841 2.1983 0.024889 -2.5826 2.1987 0.027919 -2.6817 2.1127 0.0076016 -2.6838 2.1077 0.0071577 -2.6395 2.0881 0.036494 -2.6379 2.0924 0.037595 -2.6801 2.1095 0.0032892 -2.6368 2.0905 0.033272 -2.5959 2.069 0.04359 -2.5949 2.0701 0.0474 -2.594 2.0725 0.044177 -2.5536 2.0502 0.025208 -2.5527 2.0492 0.028309 -2.5517 2.0521 0.027144 -2.6818 2.1121 0.0036376 -2.6848 2.1088 0.0070637 -2.6873 2.1416 0.037935 -2.6847 2.1439 0.034452 -2.679 2.109 0.0073472 -2.6822 2.1419 0.03814 -2.6904 2.1747 0.048453 -2.6884 2.1746 0.044802 -2.6861 2.1751 0.048245 -2.6944 2.2072 0.031085 -2.6928 2.206 0.028335 -2.6909 2.2075 0.03074 -2.6818 2.1117 0.0033339 -2.6848 2.1093 0.0074807 -2.6797 2.1532 0.037885 -2.6773 2.1547 0.033941 -2.679 2.1089 0.007234 -2.6747 2.1529 0.037681 -2.6754 2.1974 0.047735 -2.6734 2.1969 0.044116 -2.6711 2.197 0.047608 -2.6719 2.2408 0.029981 -2.6703 2.2396 0.027222 -2.6684 2.2405 0.029898 -1.8242 -0.27128 0.02568 -1.8244 -0.27537 0.025555 -1.8248 -0.27591 0.051949 -1.8246 -0.2723 0.052151 -1.8203 -0.27523 0.025651 -1.8212 -0.27579 0.052065 -1.8201 -0.27114 0.025776 -1.821 -0.27218 0.052267 -1.8258 -0.27778 0.078294 -1.8256 -0.27468 0.078625 -1.8226 -0.27769 0.078448 -1.8225 -0.27459 0.078779 -1.8272 -0.281 0.10466 -1.8271 -0.27841 0.10507 -1.8246 -0.28094 0.10483 -1.8245 -0.27834 0.10524 -1.8292 -0.28557 0.13105 -1.8291 -0.28349 0.13148 -1.8271 -0.28553 0.13122 -1.827 -0.28345 0.13166 -1.8318 -0.29151 0.15748 -1.8317 -0.28991 0.15785 -1.8301 -0.29148 0.15763 -1.83 -0.28989 0.158 -1.8223 -0.27325 0.025666 -1.8309 -0.2907 0.15774 -2.2797 2.9395 -0.017387 -2.2808 2.945 -0.012371 -2.3319 2.8986 0.025182 -2.331 2.8946 0.020118 -2.2852 2.9447 -0.018403 -2.3354 2.8995 0.019789 -2.3847 2.8561 0.030336 -2.3833 2.8534 0.034951 -2.381 2.8518 0.030217 -2.4333 2.8145 0.0037894 -2.4331 2.8118 0.0073852 -2.4304 2.8109 0.0038908 -2.2806 2.9406 -0.012745 -2.2794 2.9465 -0.017249 -2.3165 2.989 0.026515 -2.318 2.9845 0.031008 -2.2856 2.9422 -0.018167 -2.3218 2.9851 0.025783 -2.3527 3.0329 0.042546 -2.3552 3.0312 0.047117 -2.3571 3.0294 0.042275 -2.3883 3.0795 0.022057 -2.3909 3.0792 0.025657 -2.3919 3.0768 0.022003 -2.2797 2.9393 -0.01685 -2.2814 2.9466 -0.018605 -2.2218 2.9718 0.026678 -2.2198 2.9656 0.028048 -2.2846 2.9433 -0.012706 -2.2236 2.969 0.032232 -2.162 2.9988 0.048104 -2.161 2.9964 0.043274 -2.1596 2.9937 0.047866 -2.0998 3.0283 0.028173 -2.0998 3.0259 0.024424 -2.0978 3.0242 0.028079 -2.2797 2.9394 -0.017154 -2.2812 2.9468 -0.018204 -2.2294 2.9638 0.026357 -2.2275 2.9575 0.026961 -2.2848 2.943 -0.012803 -2.2313 2.9604 0.03149 -2.1772 2.9824 0.046661 -2.1764 2.9799 0.041841 -2.1752 2.9772 0.046441 -2.1226 3.0038 0.025939 -2.123 3.0011 0.022319 -2.1209 2.9995 0.025966 -2.1124 1.5467 -0.012566 -2.1143 1.551 -0.0094103 -2.1453 1.5117 0.019666 -2.1437 1.5086 0.016363 -2.1173 1.5497 -0.013775 -2.1478 1.5115 0.015689 -2.1771 1.473 0.025335 -2.1758 1.4715 0.028839 -2.1737 1.4703 0.025628 -2.205 1.4333 0.0084242 -2.2045 1.4316 0.011184 -2.2023 1.4311 0.0088088 -2.1134 1.5477 -0.0093544 -2.1134 1.552 -0.012965 -2.1492 1.5811 0.014448 -2.1497 1.5778 0.017943 -2.1172 1.5478 -0.013431 -2.1525 1.5774 0.0141 -2.1838 1.6095 0.022018 -2.1855 1.6081 0.025347 -2.1864 1.6062 0.021983 -2.2171 1.6375 0.0033714 -2.2191 1.6372 0.0059066 -2.2193 1.635 0.0034579 -2.1124 1.5467 -0.012173 -2.1148 1.5517 -0.013976 -2.0766 1.5819 0.01768 -2.0742 1.5777 0.019138 -2.1168 1.5492 -0.0096025 -2.0777 1.58 0.021804 -2.0379 1.612 0.032206 -2.0366 1.61 0.028956 -2.0353 1.6086 0.032448 -1.9965 1.6416 0.017118 -1.996 1.6394 0.014623 -1.9943 1.6388 0.017388 -2.1124 1.5467 -0.012395 -2.1147 1.5519 -0.013705 -2.0809 1.575 0.017868 -2.0785 1.5706 0.01879 -2.1169 1.5489 -0.009651 -2.0819 1.5724 0.021738 -2.0463 1.5976 0.032047 -2.0451 1.5955 0.028807 -2.0439 1.594 0.032305 -2.0091 1.6199 0.01683 -2.0088 1.6176 0.014433 -2.0071 1.617 0.017188 0.16174 1.4712 0.0045327 0.15919 1.4823 0.0053685 0.15994 1.476 0.083693 0.16219 1.4662 0.08286 0.14799 1.48 0.0053913 0.15009 1.4739 0.083747 0.15054 1.4689 0.0045555 0.15233 1.4642 0.082914 0.16146 1.4684 0.16195 0.16339 1.46 0.16106 0.15295 1.4667 0.16206 0.15488 1.4583 0.16117 0.16372 1.4597 0.24011 0.16534 1.4526 0.23922 0.15656 1.4582 0.24025 0.15817 1.4511 0.23936 0.16674 1.4497 0.31817 0.16805 1.444 0.31733 0.16092 1.4485 0.31832 0.16223 1.4428 0.31748 0.17051 1.4386 0.3961 0.17151 1.4342 0.39542 0.16603 1.4377 0.39624 0.16704 1.4333 0.39555 0.15487 1.4756 0.004962 0.16877 1.4359 0.39583 0.01143 1.6151 0.0025121 0.013241 1.6128 0.0064742 -0.026208 1.6366 0.03485 -0.027037 1.6386 0.031156 0.015063 1.6174 0.0052454 -0.024315 1.6405 0.033961 -0.066172 1.6601 0.044004 -0.064984 1.6617 0.04095 -0.06425 1.6634 0.044066 -0.1057 1.6832 0.027972 -0.104 1.6845 0.025839 -0.1043 1.6859 0.028405 0.011395 1.6151 0.0025376 0.013713 1.6126 0.0061381 -0.025109 1.6235 0.034812 -0.026456 1.6257 0.031364 0.014627 1.6176 0.0055559 -0.024166 1.6278 0.034375 -0.064475 1.6341 0.044427 -0.06376 1.6359 0.04134 -0.063515 1.6377 0.044421 -0.10353 1.6443 0.028687 -0.10215 1.6457 0.026431 -0.10283 1.6473 0.028853 0.010549 1.6152 0.0059538 0.015244 1.6131 0.0056346 0.031016 1.6429 0.03334 0.026917 1.6446 0.034105 0.013942 1.6169 0.0026433 0.029152 1.6458 0.030641 0.046001 1.6726 0.040395 0.045127 1.6735 0.04376 0.042754 1.6744 0.041104 0.060052 1.7012 0.024093 0.061356 1.7021 0.026605 0.058532 1.7031 0.025878 0.011072 1.6152 0.0028162 0.013996 1.6125 0.0059626 -0.014968 1.6198 0.03468 -0.016851 1.622 0.031492 0.014666 1.6176 0.0054528 -0.014238 1.6241 0.034261 -0.044655 1.6268 0.044342 -0.043917 1.6285 0.041265 -0.04383 1.6304 0.044344 -0.073874 1.6333 0.028525 -0.072289 1.6347 0.026398 -0.073321 1.6363 0.028691 0.011159 1.6152 0.0067568 0.013192 1.6129 0.00286 0.04225 1.5853 0.031772 0.041337 1.5872 0.035495 0.015383 1.6172 0.0046148 0.044663 1.5887 0.033093 0.070627 1.5574 0.042402 0.072317 1.5587 0.045318 0.073268 1.5601 0.042089 0.099814 1.5288 0.027522 0.10202 1.53 0.029274 0.10161 1.5312 0.026604 0.1557 -2.5239 -0.13979 0.15721 -2.5265 -0.13511 0.12475 -2.4958 -0.10036 0.12413 -2.4938 -0.10475 0.15975 -2.5224 -0.13669 0.12724 -2.4923 -0.10153 0.09081 -2.4655 -0.088448 0.092094 -2.4643 -0.092141 0.093258 -2.4627 -0.088481 0.056003 -2.4362 -0.10651 0.057771 -2.4353 -0.10912 0.057864 -2.4338 -0.10608 0.15567 -2.5239 -0.13976 0.15762 -2.5268 -0.13552 0.12343 -2.5088 -0.10027 0.12236 -2.5064 -0.10435 0.15938 -2.5221 -0.13631 0.1251 -2.5047 -0.10087 0.087745 -2.4912 -0.08766 0.088607 -2.4896 -0.09138 0.089333 -2.4878 -0.087747 0.051075 -2.4744 -0.10522 0.05255 -2.4733 -0.10797 0.052297 -2.4716 -0.10509 0.15503 -2.5236 -0.13567 0.15917 -2.5265 -0.13618 0.18117 -2.5 -0.10413 0.17753 -2.4976 -0.10311 0.15846 -2.5226 -0.13974 0.17976 -2.4969 -0.10732 0.20138 -2.4737 -0.096627 0.20086 -2.4726 -0.092607 0.1986 -2.4713 -0.095699 0.21938 -2.4486 -0.11686 0.22092 -2.4479 -0.11393 0.21834 -2.4464 -0.11471 0.15537 -2.5238 -0.13942 0.15788 -2.5269 -0.13574 0.13256 -2.5142 -0.10071 0.13099 -2.5117 -0.10447 0.15941 -2.5221 -0.13643 0.13403 -2.5101 -0.10129 0.10558 -2.5019 -0.088324 0.10646 -2.5004 -0.092031 0.10704 -2.4985 -0.088397 0.077744 -2.4905 -0.10625 0.079432 -2.4894 -0.10885 0.078835 -2.4877 -0.10611 0.15566 -2.5237 -0.13473 0.15702 -2.5264 -0.13941 0.18149 -2.5581 -0.10562 0.18113 -2.5561 -0.10118 0.15999 -2.5226 -0.13745 0.18452 -2.5552 -0.10417 0.20438 -2.5903 -0.09355 0.2064 -2.5892 -0.090155 0.2074 -2.5881 -0.094045 0.22671 -2.6235 -0.11185 0.22913 -2.6228 -0.10985 0.22882 -2.6216 -0.11303 2.1764 0.44939 -0.144 2.1703 0.461 -0.14442 2.1642 0.46028 -0.053986 2.1697 0.45007 -0.05373 2.1585 0.45509 -0.14514 2.1539 0.45508 -0.054577 2.1647 0.44348 -0.14472 2.1593 0.44487 -0.054321 2.1594 0.45845 0.036567 2.1641 0.44963 0.036593 2.1504 0.45396 0.036124 2.1552 0.44514 0.03615 2.1557 0.4555 0.12719 2.1597 0.44807 0.12705 2.1482 0.45172 0.12688 2.1522 0.44429 0.12674 2.1533 0.45142 0.2179 2.1565 0.44539 0.21765 2.1472 0.44835 0.21769 2.1504 0.44232 0.21744 2.1521 0.44623 0.30866 2.1545 0.44159 0.30842 2.1474 0.44387 0.30851 2.1498 0.43923 0.30827 2.1675 0.45224 -0.14457 2.1509 0.44273 0.30846 1.9108 2.5672 -0.10966 1.9031 2.5656 -0.10962 1.9033 2.5676 -0.053856 1.9101 2.569 -0.053959 1.9042 2.5578 -0.10928 1.9043 2.5608 -0.053535 1.9119 2.5594 -0.10932 1.9111 2.5621 -0.053638 1.9044 2.5701 0.0019161 1.9103 2.5713 0.0017067 1.9052 2.5642 0.0022348 1.9111 2.5654 0.0020254 1.9064 2.5731 0.057667 1.9113 2.5741 0.05739 1.9071 2.5681 0.057971 1.912 2.5691 0.057694 1.9092 2.5766 0.1134 1.9132 2.5774 0.11309 1.9097 2.5726 0.11367 1.9137 2.5733 0.11337 1.9128 2.5806 0.1691 1.9159 2.5812 0.16883 1.9133 2.5775 0.16932 1.9163 2.5781 0.16905 1.9075 2.5625 -0.10947 1.9146 2.5793 0.16908 0.0010824 -1.9053 -0.075025 0.010203 -1.8978 -0.074905 0.0019512 -1.8901 0.0078472 -0.0060663 -1.8967 0.0076382 0.001792 -1.8896 -0.076375 -0.0054531 -1.8829 0.006589 -0.007329 -1.8971 -0.076495 -0.013471 -1.8895 0.00638 -0.0070314 -1.8836 0.09068 -0.013941 -1.8893 0.090321 -0.013431 -1.8774 0.089655 -0.020339 -1.8831 0.089296 -0.016742 -1.8783 0.17356 -0.022546 -1.8831 0.1731 -0.022134 -1.8731 0.17274 -0.027938 -1.8779 0.17229 -0.02718 -1.8742 0.25647 -0.031884 -1.8782 0.25598 -0.031563 -1.87 0.25586 -0.036267 -1.8739 0.25537 -0.038342 -1.8714 0.33942 -0.041956 -1.8744 0.339 -0.041715 -1.8681 0.33896 -0.045329 -1.8711 0.33854 0.0014372 -1.8975 -0.0757 -0.041835 -1.8713 0.33898 0.73277 2.2256 -0.012367 0.73336 2.2361 -0.012641 0.72713 2.2377 0.052058 0.7266 2.2284 0.052426 0.72297 2.2377 -0.013571 0.71799 2.239 0.051268 0.72238 2.2272 -0.013297 0.71746 2.2298 0.051635 0.72143 2.241 0.11673 0.72095 2.2331 0.11726 0.71354 2.2422 0.11609 0.71305 2.2342 0.11663 0.71626 2.2463 0.18145 0.71584 2.2396 0.18209 0.70961 2.2473 0.18096 0.70918 2.2406 0.18159 0.71161 2.2534 0.24624 0.71125 2.248 0.2469 0.7062 2.2542 0.24587 0.70584 2.2488 0.24653 0.70747 2.2624 0.31111 0.70719 2.2583 0.31168 0.70331 2.2631 0.31084 0.70303 2.2589 0.3114 0.72787 2.2316 -0.012969 0.70525 2.2607 0.31126 1.1925 -0.419 -0.055147 1.1944 -0.42772 -0.055727 1.2011 -0.42958 0.0036511 1.1994 -0.42191 0.0042777 1.2032 -0.42617 -0.056578 1.2088 -0.42822 0.0029275 1.2012 -0.41745 -0.055998 1.2071 -0.42055 0.0035541 1.2077 -0.4331 0.062941 1.2063 -0.42649 0.063682 1.2144 -0.43193 0.06236 1.213 -0.42532 0.063101 1.2144 -0.43829 0.12222 1.2132 -0.43274 0.12301 1.22 -0.43731 0.12177 1.2188 -0.43176 0.12256 1.2211 -0.44514 0.1815 1.2201 -0.44065 0.18228 1.2257 -0.44436 0.18116 1.2247 -0.43986 0.18194 1.2278 -0.45367 0.2408 1.2271 -0.45022 0.24144 1.2313 -0.45307 0.24054 1.2306 -0.44962 0.24119 1.1978 -0.42258 -0.055862 1.2292 -0.45165 0.24099 1.4417 -1.0134 -0.089411 1.4423 -1.016 -0.085867 1.4172 -0.98597 -0.058873 1.4173 -0.98397 -0.062179 1.4453 -1.013 -0.086719 1.42 -0.98351 -0.05945 1.3922 -0.955 -0.049626 1.3937 -0.95403 -0.05234 1.3947 -0.95312 -0.049364 1.3682 -0.92331 -0.063624 1.3701 -0.92278 -0.065499 1.3702 -0.92169 -0.063056 1.4417 -1.0134 -0.089387 1.4426 -1.0163 -0.086182 1.4139 -0.99652 -0.059626 1.4137 -0.99421 -0.0627 1.445 -1.0127 -0.086428 1.4161 -0.99346 -0.059777 1.3853 -0.97581 -0.050667 1.3866 -0.97453 -0.053407 1.3873 -0.9733 -0.050458 1.3577 -0.95428 -0.065109 1.3593 -0.95352 -0.067093 1.3592 -0.95219 -0.06478 1.4409 -1.0132 -0.086243 1.4441 -1.0164 -0.086597 1.4652 -0.99977 -0.059184 1.4623 -0.9972 -0.05844 1.4443 -1.0128 -0.089158 1.4647 -0.99679 -0.061536 1.4863 -0.98201 -0.050833 1.4857 -0.98118 -0.04769 1.4842 -0.97958 -0.05012 1.5071 -0.96357 -0.064088 1.5083 -0.96344 -0.061705 1.5064 -0.96168 -0.062354 1.4414 -1.0133 -0.089134 1.4429 -1.0164 -0.086342 1.4209 -1.0027 -0.059825 1.4202 -1.0002 -0.062664 1.445 -1.0127 -0.086522 1.4229 -0.99955 -0.05996 1.399 -0.98802 -0.050904 1.4002 -0.98674 -0.053633 1.4008 -0.98545 -0.050687 1.3781 -0.97256 -0.065495 1.3799 -0.97188 -0.067358 1.3795 -0.97041 -0.065167 1.4414 -1.0135 -0.085496 1.4424 -1.0157 -0.089192 1.4561 -1.0482 -0.063706 1.4558 -1.0466 -0.060179 1.4455 -1.0132 -0.087309 1.4591 -1.0464 -0.062263 1.4698 -1.0797 -0.055101 1.4715 -1.0793 -0.052314 1.4727 -1.0785 -0.055207 1.4847 -1.1107 -0.070043 1.4868 -1.1107 -0.068336 1.4869 -1.1095 -0.070737 0.81879 0.43501 -0.012497 0.81658 0.43815 -0.012507 0.81696 0.43823 0.011798 0.8189 0.43546 0.011891 0.81334 0.4361 -0.012412 0.8141 0.43642 0.01191 0.81555 0.43295 -0.012402 0.81605 0.43366 0.012003 0.81698 0.43955 0.036091 0.81866 0.43717 0.036316 0.81451 0.438 0.036238 0.81619 0.43562 0.036462 0.81665 0.44213 0.060438 0.81805 0.44014 0.060747 0.81457 0.44083 0.060601 0.81597 0.43884 0.060911 0.81597 0.44596 0.084837 0.8171 0.44435 0.085184 0.81427 0.44491 0.085001 0.8154 0.44331 0.085348 0.81492 0.45105 0.10931 0.81579 0.44982 0.10962 0.81362 0.45025 0.10945 0.81448 0.44902 0.10975 0.81607 0.43555 -0.012455 0.8147 0.45003 0.10953 -1.2247 -1.5038 -0.035788 -1.2146 -1.509 -0.037575 -1.2056 -1.5149 0.034187 -1.2145 -1.5104 0.0359 -1.2094 -1.4988 -0.037279 -1.2011 -1.5059 0.034478 -1.2195 -1.4936 -0.035492 -1.2099 -1.5014 0.036191 -1.195 -1.5221 0.10559 -1.2026 -1.5182 0.10731 -1.1911 -1.5144 0.10589 -1.1987 -1.5105 0.10761 -1.1828 -1.5307 0.17673 -1.1891 -1.5275 0.17838 -1.1794 -1.5242 0.17703 -1.1858 -1.521 0.17868 -1.1689 -1.5407 0.24761 -1.174 -1.5381 0.24911 -1.1661 -1.5354 0.24789 -1.1713 -1.5328 0.24939 -1.1533 -1.552 0.31826 -1.1572 -1.55 0.31948 -1.1512 -1.548 0.31849 -1.1551 -1.546 0.3197 -1.2171 -1.5013 -0.036533 -1.1542 -1.549 0.31898 0.29909 0.76788 0.029804 0.29539 0.77865 0.030235 0.29241 0.77384 0.10964 0.29567 0.76437 0.10916 0.28473 0.77466 0.029703 0.28303 0.77033 0.10921 0.28843 0.76389 0.029272 0.28629 0.76085 0.10873 0.2903 0.76793 0.18905 0.29312 0.75976 0.18847 0.28219 0.76489 0.18874 0.28501 0.75672 0.18815 0.28905 0.76091 0.26843 0.29143 0.75404 0.2678 0.28223 0.75836 0.26822 0.2846 0.75149 0.26758 0.28868 0.7528 0.34778 0.2906 0.74723 0.34715 0.28313 0.75072 0.34764 0.28506 0.74515 0.34701 0.28917 0.74359 0.42708 0.29065 0.73931 0.42655 0.2849 0.74199 0.42699 0.28638 0.73771 0.42646 0.29191 0.77127 0.029754 0.28777 0.74065 0.42677 -0.92458 -1.4479 -0.032434 -0.93449 -1.4493 -0.033517 -0.94005 -1.4513 0.026197 -0.93132 -1.45 0.027076 -0.93351 -1.4593 -0.033668 -0.93919 -1.4601 0.02609 -0.9236 -1.4579 -0.032585 -0.93046 -1.4588 0.026969 -0.94449 -1.4526 0.08607 -0.93694 -1.4516 0.0867 -0.94375 -1.4603 0.086022 -0.9362 -1.4592 0.086653 -0.94781 -1.4535 0.14607 -0.94144 -1.4525 0.1465 -0.94719 -1.4599 0.14607 -0.94083 -1.459 0.14649 -0.95001 -1.4537 0.20621 -0.94483 -1.453 0.20646 -0.94951 -1.4589 0.20624 -0.94433 -1.4582 0.20649 -0.95108 -1.4534 0.26646 -0.9471 -1.4528 0.26663 -0.9507 -1.4574 0.2665 -0.94672 -1.4568 0.26666 -0.92904 -1.4536 -0.033051 -0.9489 -1.4551 0.26656 -3.5163 -2.5362 -0.10198 -3.5108 -2.5448 -0.1024 -3.5083 -2.5456 -0.037952 -3.5131 -2.538 -0.037462 -3.5022 -2.5393 -0.10256 -3.5008 -2.5408 -0.038069 -3.5077 -2.5307 -0.10215 -3.5056 -2.5332 -0.037579 -3.5052 -2.5482 0.026407 -3.5093 -2.5417 0.027048 -3.4987 -2.544 0.026353 -3.5028 -2.5375 0.026994 -3.5014 -2.5526 0.090768 -3.5049 -2.5472 0.091488 -3.4959 -2.5491 0.090761 -3.4993 -2.5437 0.091482 -3.4969 -2.5589 0.15513 -3.4997 -2.5544 0.15586 -3.4925 -2.556 0.15515 -3.4953 -2.5516 0.15589 -3.4918 -2.5669 0.21952 -3.494 -2.5635 0.22014 -3.4884 -2.5647 0.21955 -3.4905 -2.5613 0.22017 -3.5092 -2.5377 -0.10227 -3.4912 -2.5641 0.21985 2.1635 1.7484 -0.13553 2.1677 1.7415 -0.13521 2.1664 1.7438 -0.080688 2.1627 1.7499 -0.081044 2.1746 1.7456 -0.13514 2.1725 1.7475 -0.080608 2.1704 1.7525 -0.13547 2.1688 1.7535 -0.080965 2.1643 1.7468 -0.026186 2.1611 1.752 -0.026611 2.1695 1.7499 -0.026077 2.1664 1.7551 -0.026502 2.1614 1.7504 0.028272 2.1588 1.7547 0.027816 2.1659 1.753 0.028399 2.1632 1.7573 0.027942 2.1578 1.7546 0.082688 2.1556 1.7581 0.082238 2.1614 1.7567 0.082819 2.1592 1.7602 0.082368 2.1534 1.7594 0.13705 2.1518 1.7621 0.13667 2.1562 1.7611 0.13716 2.1545 1.7638 0.13678 2.169 1.747 -0.13534 2.154 1.7616 0.13692 1.6454 1.7397 -0.087073 1.6536 1.7435 -0.0872 1.6538 1.7437 -0.02822 1.6466 1.7404 -0.027993 1.6498 1.7517 -0.087139 1.6505 1.7509 -0.028142 1.6416 1.7479 -0.087012 1.6432 1.7476 -0.027915 1.6556 1.7443 0.030717 1.6494 1.7415 0.031112 1.6528 1.7505 0.030828 1.6465 1.7477 0.031224 1.6592 1.7452 0.089693 1.6539 1.7429 0.090193 1.6567 1.7505 0.089823 1.6515 1.7481 0.090322 1.6643 1.7466 0.14871 1.6601 1.7446 0.14925 1.6624 1.7508 0.14884 1.6581 1.7489 0.14938 1.6712 1.7482 0.20779 1.6679 1.7467 0.20826 1.6697 1.7515 0.2079 1.6664 1.75 0.20837 1.6476 1.7457 -0.087106 1.6688 1.7491 0.20808 2.3127 -6.8976 -0.18698 2.3087 -6.8963 -0.18078 2.3708 -6.9066 -0.13588 2.3733 -6.908 -0.14172 2.3096 -6.9031 -0.18337 2.3711 -6.9126 -0.13787 2.4342 -6.9131 -0.12054 2.4339 -6.9153 -0.12553 2.4339 -6.9184 -0.12099 2.4978 -6.9151 -0.14401 2.4966 -6.9174 -0.1476 2.4978 -6.9195 -0.14378 2.3127 -6.8976 -0.18694 2.3081 -6.8963 -0.18133 2.3609 -6.8906 -0.13459 2.3641 -6.892 -0.14002 2.3102 -6.9031 -0.18287 2.3626 -6.8966 -0.13584 2.4151 -6.8812 -0.11716 2.4155 -6.8834 -0.12218 2.4163 -6.8864 -0.11766 2.4697 -6.8673 -0.1388 2.4691 -6.8696 -0.14257 2.4708 -6.8716 -0.13895 2.3136 -6.8977 -0.1816 2.3066 -6.8979 -0.18231 2.3057 -6.9499 -0.14442 2.3117 -6.9496 -0.14302 2.3108 -6.9014 -0.18722 2.31 -6.952 -0.14872 2.3066 -6.998 -0.13827 2.3081 -6.9991 -0.1331 2.3117 -6.9983 -0.13706 2.309 -7.0403 -0.16793 2.3078 -7.0427 -0.16428 2.312 -7.0421 -0.16524 2.3131 -6.8974 -0.18648 2.3077 -6.8964 -0.18162 2.3462 -6.8922 -0.13536 2.3501 -6.8934 -0.14034 2.3102 -6.9031 -0.18303 2.3482 -6.8981 -0.13656 2.3863 -6.8842 -0.11838 2.3867 -6.8864 -0.12339 2.3877 -6.8894 -0.11887 2.4267 -6.8718 -0.14068 2.4258 -6.8742 -0.14427 2.428 -6.876 -0.14082 2.3129 -6.8982 -0.18042 2.3091 -6.8959 -0.18637 2.2546 -6.8836 -0.14152 2.2568 -6.886 -0.1359 2.3091 -6.9029 -0.18434 2.2539 -6.8897 -0.1401 2.2016 -6.8676 -0.12477 2.2003 -6.8709 -0.12058 2.2001 -6.8726 -0.1258 2.1483 -6.8472 -0.14735 2.1463 -6.8503 -0.14499 2.1476 -6.8511 -0.1492 2.2882 1.229 -0.15172 2.2967 1.22 -0.15228 2.2956 1.2149 -0.072281 2.2881 1.2228 -0.071628 2.306 1.2281 -0.15153 2.3038 1.2221 -0.071581 2.2975 1.2371 -0.15096 2.2963 1.2299 -0.070928 2.2956 1.2079 0.0075658 2.2892 1.2147 0.0083995 2.3027 1.2141 0.0082289 2.2963 1.2209 0.0090625 2.2969 1.1989 0.087366 2.2915 1.2046 0.088294 2.3028 1.2041 0.087973 2.2974 1.2098 0.088901 2.2993 1.188 0.16712 2.2949 1.1926 0.16805 2.3041 1.1921 0.16765 2.2997 1.1967 0.16859 2.3028 1.175 0.24687 2.2995 1.1785 0.24765 2.3066 1.1782 0.24729 2.3032 1.1817 0.24808 2.2971 1.2285 -0.15162 2.303 1.1784 0.24747</float_array><technique_common><accessor source="#weeds_+01-02_solid-pos-a" count="774" stride="3"><param name="X" type="float"/><param name="Y" type="float"/><param name="Z" type="float"/></accessor></technique_common></source>
        <source id="weeds_+01-02_solid-nrm"><float_array id="weeds_+01-02_solid-nrm-a" count="2322">0.059 0.676 -0.734 -0.7 0.094 0.708 -0.636 0.235 0.735 0.012 0.516 -0.856 0.645 -0.762 0.061 0.581 -0.764 0.28 -0.511 0.597 0.618 -0.058 -0.059 -0.997 0.617 -0.514 0.596 -0.538 0.784 0.31 -0.143 -0.393 -0.908 0.708 -0.383 0.593 0.033 0.849 0.527 -0.545 -0.783 0.301 -0.5 -0.846 0.185 -0.019 0.62 0.784 0.541 -0.085 -0.837 0.503 0.241 -0.83 -0.497 -0.781 -0.379 0.094 -0.03 0.995 0.463 0.814 -0.35 -0.514 -0.434 -0.74 0.134 -0.509 0.85 0.391 0.913 -0.119 0.006 0.695 -0.719 -0.858 -0.385 0.341 -0.793 -0.353 0.497 0.002 0.515 -0.857 0.853 -0.309 0.421 0.81 -0.231 0.539 -0.746 -0.01 0.666 -0.03 -0.074 -0.997 0.776 0.148 0.614 -0.845 0.166 0.509 -0.028 -0.464 -0.885 0.865 0.331 0.377 0.009 0.579 -0.816 -0.858 -0.222 0.463 -0.806 -0.165 0.569 -0.005 0.413 -0.911 0.85 -0.352 0.391 0.811 -0.293 0.506 -0.759 0.12 0.64 -0.036 -0.064 -0.997 0.807 -0.009 0.591 -0.828 0.267 0.493 -0.054 -0.362 -0.93 0.886 0.126 0.447 -0.589 0.573 0.571 -0.584 -0.575 0.572 -0.719 -0.693 -0.05 -0.692 0.721 0.028 0.562 -0.605 0.563 0.705 -0.709 -0.002 0.556 0.539 0.633 0.71 0.7 0.077 -0.718 -0.689 -0.099 -0.692 0.72 0.051 0.705 -0.709 -0.024 0.709 0.694 0.127 -0.718 -0.681 -0.147 -0.692 0.718 0.073 0.704 -0.709 -0.046 0.708 0.684 0.175 -0.717 -0.67 -0.195 -0.692 0.716 0.096 0.703 -0.708 -0.068 0.706 0.672 0.222 -0.524 -0.407 -0.748 -0.535 0.713 -0.453 0.632 -0.474 -0.613 0.631 0.676 -0.381 -0.022 -0.029 0.999 0.083 0.223 -0.971 0.458 -0.817 -0.351 0.281 0.398 0.874 -0.064 0.55 0.833 0.609 -0.788 0.086 -0.755 0.395 -0.524 -0.559 0.276 -0.782 -0.528 0.831 0.178 0.175 -0.536 0.826 0.353 -0.444 -0.823 -0.409 0.781 -0.472 -0.3 -0.252 0.92 0.698 -0.54 -0.47 0.279 -0.549 0.788 0.553 0.781 -0.29 0.641 0.718 -0.269 0.196 -0.407 0.892 -0.846 -0.211 -0.49 -0.815 -0.352 -0.461 0.757 0.576 -0.307 -0.071 -0.006 0.997 -0.721 -0.556 -0.413 0.794 0.405 -0.452 -0.229 0.252 0.94 -0.578 -0.642 -0.504 0.519 -0.83 -0.205 0.109 0.801 -0.589 -0.152 0.921 -0.36 0.497 -0.759 -0.421 -0.6 0.026 0.8 -0.352 -0.217 0.91 -0.3 0.89 0.344 0.099 -0.303 -0.948 0.208 -0.524 0.826 -0.23 0.827 0.513 -0.254 -0.086 -0.963 0.507 -0.73 0.459 0.519 -0.806 -0.283 0.136 0.863 -0.487 -0.116 0.961 -0.252 0.478 -0.736 -0.48 -0.627 -0.056 0.777 -0.385 -0.282 0.879 -0.223 0.894 0.389 0.061 -0.294 -0.954 0.182 -0.544 0.819 -0.152 0.859 0.489 -0.304 -0.103 -0.947 0.481 -0.746 0.461 0.627 -0.727 -0.28 0.155 0.506 0.848 -0.198 0.576 0.793 0.755 -0.628 0.186 -0.783 0.163 -0.6 -0.547 0.067 -0.834 -0.694 0.714 0.093 0.226 -0.39 0.893 0.455 -0.413 -0.789 -0.526 0.62 -0.582 -0.276 -0.216 0.936 0.809 -0.408 -0.424 0.33 -0.384 0.862 0.404 0.84 -0.363 0.499 0.8 -0.333 0.218 -0.258 0.941 -0.751 -0.429 -0.502 -0.697 -0.553 -0.457 0.637 0.685 -0.353 -0.109 0.065 0.992 -0.574 -0.722 -0.387 0.707 0.517 -0.483 -0.302 0.266 0.916 -0.416 -0.78 -0.468 0.686 -0.717 -0.123 -0.015 0.732 -0.682 -0.305 0.826 -0.474 0.655 -0.666 -0.358 -0.608 -0.036 0.793 -0.331 -0.197 0.923 -0.482 0.834 0.268 0.189 -0.342 -0.921 0.255 -0.372 0.893 -0.404 0.796 0.451 -0.18 -0.217 -0.959 0.613 -0.55 0.567 0.684 -0.699 -0.208 -0.005 0.81 -0.586 -0.284 0.887 -0.365 0.632 -0.65 -0.421 -0.618 -0.12 0.777 -0.35 -0.267 0.898 -0.407 0.856 0.317 0.152 -0.342 -0.927 0.234 -0.397 0.887 -0.332 0.842 0.425 -0.225 -0.242 -0.944 0.591 -0.571 0.57 0.702 -0.484 0.521 0.459 0.658 0.597 0.538 0.84 0.066 0.842 -0.538 -0.047 -0.684 0.404 0.607 -0.839 0.539 0.072 -0.44 -0.737 0.513 -0.544 -0.838 -0.042 0.539 0.839 0.074 0.841 -0.537 -0.063 -0.839 0.537 0.089 -0.544 -0.837 -0.049 0.54 0.838 0.082 0.841 -0.535 -0.08 -0.838 0.536 0.105 -0.545 -0.837 -0.057 0.54 0.837 0.09 0.84 -0.534 -0.096 -0.837 0.534 0.121 -0.545 -0.836 -0.065 0.425 0.778 -0.462 0.672 -0.371 -0.641 -0.73 0.521 -0.441 -0.491 -0.63 -0.602 0.017 -0.071 0.997 -0.058 0.141 -0.988 -0.578 0.045 -0.815 -0.03 -0.785 0.619 -0.119 -0.733 0.67 -0.422 0.012 -0.906 0.608 0.763 0.221 0.583 0.709 0.398 -0.41 -0.655 0.635 0.036 -0.035 -0.999 0.344 0.718 0.605 -0.577 -0.705 0.411 0.312 -0.09 -0.946 0.235 0.8 0.551 -0.6 0.03 -0.8 0.137 -0.85 0.509 0.069 -0.795 0.602 -0.433 0.008 -0.901 0.456 0.831 0.319 0.417 0.779 0.468 -0.228 -0.731 0.644 0.044 -0.026 -0.999 0.143 0.774 0.616 -0.39 -0.803 0.45 0.346 -0.061 -0.936 0.014 0.867 0.498 -0.872 0.017 0.489 0.7 -0.648 0.3 0.777 -0.592 0.212 -0.627 -0.071 0.776 0.18 0.634 -0.752 -0.146 0.594 -0.791 0.715 -0.579 -0.391 0.058 0.094 0.994 -0.775 0.565 -0.283 0.295 -0.577 -0.761 0.581 0.153 0.799 -0.887 0.46 -0.046 -0.711 0.034 -0.702 0.23 -0.862 0.451 0.164 -0.801 0.575 -0.529 0.012 -0.848 0.469 0.838 0.28 0.44 0.777 0.451 -0.206 -0.715 0.668 0.053 -0.024 -0.998 0.095 0.76 0.643 -0.407 -0.812 0.42 0.449 -0.066 -0.891 -0.072 0.88 0.469 -0.649 0.078 0.757 -0.053 -0.748 -0.662 -0.28 -0.738 -0.614 -0.443 0.096 0.891 0.734 0.674 -0.082 0.716 0.688 -0.118 -0.629 -0.698 -0.342 0.059 -0.04 0.997 0.592 0.701 -0.396 -0.741 -0.601 -0.299 0.392 -0.108 0.914 0.347 0.685 -0.641 -0.658 0.164 -0.735 -0.164 -0.81 0.563 -0.248 -0.746 0.618 -0.511 0.098 -0.854 0.752 0.643 0.147 0.735 0.607 0.303 -0.538 -0.601 0.591 0 -0.056 -0.998 0.521 0.687 0.507 -0.703 -0.598 0.385 0.31 -0.178 -0.934 0.416 0.786 0.457 -0.681 0.151 -0.716 -0.005 -0.892 0.452 -0.062 -0.837 0.543 -0.524 0.096 -0.846 0.622 0.747 0.237 0.589 0.717 0.372 -0.362 -0.718 0.595 0.011 -0.047 -0.999 0.321 0.788 0.525 -0.534 -0.736 0.416 0.354 -0.151 -0.923 0.195 0.889 0.414 -0.871 0.187 0.454 0.589 -0.773 0.238 0.669 -0.726 0.159 -0.672 0.056 0.739 0.297 0.642 -0.707 -0.066 0.674 -0.736 0.602 -0.718 -0.348 0.124 0.105 0.987 -0.677 0.703 -0.219 0.181 -0.692 -0.699 0.698 0.053 0.714 -0.79 0.613 -0.013 -0.777 0.175 -0.604 0.086 -0.915 0.394 0.035 -0.858 0.513 -0.619 0.118 -0.777 0.632 0.748 0.202 0.61 0.708 0.356 -0.337 -0.709 0.619 0.023 -0.047 -0.999 0.27 0.787 0.555 -0.551 -0.738 0.389 0.465 -0.175 -0.868 0.108 0.914 0.391 -0.663 0.22 0.715 -0.225 -0.786 -0.576 -0.458 -0.722 -0.519 -0.452 0.208 0.867 0.844 0.525 -0.108 0.829 0.543 -0.138 -0.773 -0.582 -0.252 0.097 -0.054 0.994 0.716 0.59 -0.373 -0.862 -0.461 -0.212 0.457 -0.201 0.866 0.479 0.645 -0.596 0.749 -0.248 0.614 0.217 0.794 0.568 0.297 0.954 0.031 0.952 -0.301 0.066 -0.82 0.251 0.514 -0.952 0.304 -0.041 -0.286 -0.791 0.541 -0.306 -0.952 -0.007 0.297 0.954 0.039 0.952 -0.301 0.049 -0.952 0.304 -0.024 -0.306 -0.952 -0.015 0.298 0.953 0.047 0.953 -0.301 0.033 -0.953 0.304 -0.008 -0.306 -0.952 -0.023 0.298 0.953 0.055 0.954 -0.301 0.016 -0.953 0.303 0.009 -0.306 -0.952 -0.03 0.256 0.83 -0.496 0.803 -0.224 -0.552 -0.793 0.281 -0.54 -0.254 -0.776 -0.577 -0.062 0.003 0.998 0.004 0.054 -0.999 0.476 0.7 0.533 -0.691 0.51 0.512 -0.819 0.574 -0.013 0.576 0.817 -0.027 -0.481 -0.653 0.586 -0.579 -0.814 0.052 0.687 -0.463 0.56 0.814 -0.579 0.037 -0.818 0.575 -0.006 0.576 0.816 -0.044 -0.579 -0.813 0.068 0.814 -0.58 0.03 -0.818 0.576 0.001 0.576 0.815 -0.06 -0.578 -0.812 0.084 0.814 -0.58 0.022 -0.817 0.577 0.009 0.576 0.814 -0.076 -0.578 -0.81 0.1 0.814 -0.581 0.015 -0.73 0.451 -0.513 0.449 0.642 -0.622 -0.52 -0.723 -0.455 0.664 -0.54 -0.518 -0.004 0.043 0.999 -0.07 -0.081 -0.994 -0.084 -0.797 0.599 0.768 0.02 0.64 0.994 -0.032 0.106 -0.044 -0.995 0.092 -0.007 0.893 0.45 0.045 0.997 -0.069 -0.867 0.081 0.492 -0.996 0.042 -0.082 0.993 -0.032 0.114 -0.043 -0.996 0.077 0.044 0.998 -0.055 -0.995 0.042 -0.09 0.992 -0.032 0.122 -0.042 -0.997 0.063 0.043 0.998 -0.04 -0.994 0.042 -0.098 0.991 -0.032 0.13 -0.04 -0.998 0.048 0.041 0.999 -0.025 -0.994 0.042 -0.106 0.894 -0.036 -0.446 0.03 -0.873 -0.487 0.097 0.845 -0.526 -0.759 0.025 -0.651 -0.087 0.089 0.992 0.125 -0.01 -0.992 0.441 -0.588 0.678 0.578 0.532 0.619 0.775 0.63 0.048 0.622 -0.777 0.101 -0.546 0.627 0.555 -0.634 0.77 -0.073 -0.677 -0.496 0.544 -0.773 -0.634 -0.021 0.777 0.629 0.023 0.62 -0.775 0.118 -0.632 0.77 -0.09 -0.775 -0.632 0.003 0.779 0.626 -0.001 0.618 -0.774 0.135 -0.63 0.77 -0.107 -0.777 -0.629 0.027 0.782 0.623 -0.024 0.617 -0.772 0.152 -0.627 0.769 -0.124 -0.779 -0.625 0.051 0.67 0.436 -0.6 0.526 -0.702 -0.479 -0.468 0.53 -0.707 -0.619 -0.591 -0.517 -0.085 0.031 0.996 0.044 -0.137 -0.99 -0.612 0.425 0.667 -0.399 -0.712 0.577 -0.556 -0.831 0.025 -0.821 0.556 0.131 0.733 -0.474 0.488 0.83 -0.548 -0.105 0.517 0.665 0.539 0.553 0.833 0.001 -0.559 -0.829 0.002 -0.819 0.555 0.146 0.828 -0.548 -0.12 0.556 0.831 0.023 -0.562 -0.827 -0.021 -0.817 0.554 0.161 0.826 -0.547 -0.135 0.559 0.828 0.046 -0.566 -0.824 -0.043 -0.815 0.552 0.177 0.824 -0.547 -0.151 0.563 0.824 0.068 -0.531 -0.604 -0.594 -0.731 0.546 -0.41 0.622 -0.362 -0.695 0.419 0.774 -0.475 0.104 -0.043 0.994 -0.098 0.164 -0.982 -0.509 0.316 -0.8 -0.356 -0.771 0.528 -0.423 -0.695 0.582 -0.372 0.229 -0.899 0.838 0.479 0.26 0.795 0.433 0.424 -0.663 -0.508 0.55 0.06 0.006 -0.998 0.58 0.526 0.622 -0.817 -0.474 0.328 0.305 -0.162 -0.938 0.508 0.645 0.571 -0.536 0.308 -0.786 -0.22 -0.881 0.419 -0.267 -0.816 0.513 -0.385 0.23 -0.894 0.722 0.595 0.354 0.668 0.559 0.492 -0.521 -0.649 0.555 0.071 0.012 -0.997 0.413 0.655 0.632 -0.683 -0.636 0.36 0.35 -0.147 -0.925 0.33 0.789 0.519 -0.831 0.323 0.454 0.383 -0.89 0.246 0.479 -0.862 0.169 -0.66 0.132 0.74 0.449 0.588 -0.673 0.128 0.68 -0.722 0.452 -0.8 -0.394 0.058 0.017 0.998 -0.486 0.841 -0.238 0.078 -0.638 -0.766 0.592 -0.119 0.797 -0.637 0.77 -0.025 -0.64 0.347 -0.686 -0.137 -0.921 0.364 -0.18 -0.854 0.487 -0.476 0.266 -0.838 0.736 0.597 0.318 0.688 0.548 0.476 -0.497 -0.644 0.581 0.081 0.01 -0.997 0.363 0.66 0.658 -0.698 -0.635 0.33 0.444 -0.194 -0.875 0.256 0.833 0.491 -0.62 0.288 0.73 -0.319 -0.665 -0.675 -0.527 -0.569 -0.631 -0.426 0.222 0.877 0.931 0.365 -0.022 0.92 0.387 -0.055 -0.834 -0.407 -0.371 0.003 -0.12 0.993 0.829 0.463 -0.314 -0.903 -0.277 -0.327 0.303 -0.314 0.9 0.616 0.56 -0.554 0.795 -0.146 0.589 0.17 0.806 0.567 0.2 0.979 -0.03 0.978 -0.206 0.012 -0.773 0.166 0.612 -0.983 0.185 0.016 -0.148 -0.787 0.598 -0.19 -0.98 0.056 0.201 0.976 -0.077 0.978 -0.205 0.037 -0.983 0.186 -0.007 -0.192 -0.976 0.103 0.204 0.971 -0.123 0.977 -0.204 0.061 -0.982 0.187 -0.031 -0.195 -0.969 0.149 0.208 0.964 -0.168 0.976 -0.202 0.085 -0.981 0.187 -0.055 -0.199 -0.961 0.194 0.187 0.668 -0.72 0.816 -0.286 -0.503 -0.774 0.03 -0.632 -0.152 -0.912 -0.382 0.019 0.016 1 0.031 -0.218 -0.975 -0.687 -0.309 0.658 0.318 -0.817 0.481 0.298 -0.946 -0.128 -0.944 -0.311 0.114 0.838 0.198 0.509 0.944 0.318 -0.086 -0.167 0.706 0.688 -0.301 0.941 0.155 0.294 -0.944 -0.152 -0.941 -0.312 0.13 0.942 0.319 -0.102 -0.296 0.938 0.179 0.289 -0.941 -0.176 -0.938 -0.314 0.146 0.94 0.32 -0.118 -0.291 0.935 0.203 0.283 -0.938 -0.2 -0.935 -0.315 0.161 0.938 0.321 -0.133 -0.285 0.931 0.227 0.107 -0.669 -0.735 -0.89 -0.167 -0.423 0.644 0.356 -0.677 -0.354 0.86 -0.368 0.128 -0.094 0.987 -0.214 0.165 -0.963 0.738 -0.384 0.555 0.335 0.72 0.608 0.422 0.904 0.074 0.905 -0.425 0.012 -0.773 0.329 0.542 -0.904 0.427 0.012 -0.37 -0.776 0.511 -0.429 -0.902 -0.05 0.422 0.903 0.082 0.905 -0.425 -0.003 -0.904 0.426 0.028 -0.429 -0.901 -0.058 0.422 0.902 0.09 0.905 -0.424 -0.019 -0.904 0.425 0.043 -0.43 -0.901 -0.065 0.423 0.901 0.098 0.905 -0.423 -0.035 -0.904 0.424 0.059 -0.43 -0.9 -0.073 0.345 0.817 -0.462 0.759 -0.299 -0.578 -0.773 0.417 -0.478 -0.372 -0.696 -0.615 -0.031 -0.051 0.998 -0.023 0.115 -0.993 0.413 0.598 0.687 -0.686 0.476 0.55 -0.787 0.615 -0.049 0.611 0.787 0.088 -0.544 -0.629 0.556 -0.617 -0.785 -0.059 0.559 -0.507 0.656 0.78 -0.621 0.076 -0.788 0.615 -0.04 0.613 0.787 0.069 -0.618 -0.785 -0.04 0.781 -0.621 0.067 -0.788 0.615 -0.031 0.615 0.787 0.05 -0.62 -0.785 -0.021 0.782 -0.621 0.058 -0.788 0.615 -0.022 0.616 0.787 0.031 -0.621 -0.784 -0.002 0.782 -0.621 0.049 -0.612 0.499 -0.614 0.514 0.618 -0.595 -0.471 -0.632 -0.615 0.658 -0.502 -0.561 -0.105 -0.025 0.994 0.041 -0.004 -0.999 -0.765 0.159 0.624 -0.154 -0.801 0.578 -0.221 -0.975 -0.016 -0.973 0.221 0.062 0.807 -0.19 0.559 0.977 -0.211 -0.035 0.196 0.771 0.606 0.215 0.976 0.044 -0.222 -0.974 -0.041 -0.972 0.22 0.078 0.976 -0.211 -0.051 0.217 0.974 0.068 -0.224 -0.972 -0.066 -0.971 0.22 0.094 0.975 -0.212 -0.066 0.219 0.971 0.093 -0.227 -0.97 -0.09 -0.97 0.219 0.11 0.974 -0.211 -0.082 0.222 0.968 0.117 -0.227 -0.715 -0.661 -0.839 0.252 -0.481 0.753 -0.1 -0.651 0.142 0.87 -0.473 0.035 -0.026 0.999 -0.075 0.133 -0.988 -0.814 0.214 0.54 -0.213 -0.786 0.581 -0.236 -0.971 0.039 -0.971 0.237 -0.029 0.783 -0.179 0.596 0.969 -0.239 0.054 0.182 0.82 0.543 0.243 0.97 -0.014 -0.237 -0.97 0.047 -0.971 0.236 -0.045 0.969 -0.239 0.071 0.243 0.97 -0.022 -0.238 -0.97 0.055 -0.97 0.236 -0.062 0.967 -0.238 0.087 0.243 0.969 -0.03 -0.239 -0.969 0.063 -0.969 0.235 -0.078 0.966 -0.237 0.104 0.244 0.969 -0.038 -0.154 -0.856 -0.493 -0.761 0.152 -0.631 0.854 -0.242 -0.461 0.252 0.77 -0.586 -0.028 0.031 0.999 0.089 -0.083 -0.993 -0.275 -0.764 0.584 0.77 -0.283 0.571 0.936 -0.351 -0.013 -0.353 -0.935 0.026 0.293 0.764 0.575 0.343 0.939 0 -0.752 0.283 0.595 -0.938 0.345 0.04 0.935 -0.352 -0.038 -0.352 -0.935 0.041 0.343 0.939 -0.015 -0.936 0.346 0.064 0.934 -0.353 -0.062 -0.351 -0.934 0.057 0.344 0.939 -0.03 -0.934 0.347 0.088 0.931 -0.355 -0.086 -0.351 -0.934 0.072 0.343 0.938 -0.046 -0.931 0.349 0.112 0.694 -0.305 -0.652 -0.359 -0.788 -0.5 0.214 0.761 -0.612 -0.84 0.276 -0.468 0.015 -0 1 -0.13 -0.025 -0.991 0.601 0.321 -0.732 -0.359 0.669 0.65 -0.252 0.663 0.705 0.446 0.289 -0.847 -0.219 -0.971 0.094 -0.226 -0.938 0.263 0.066 0.73 0.68 -0.027 0.116 -0.993 -0.006 -0.875 0.483 0.202 0.856 0.476 -0.33 0.021 -0.944 0.139 -0.89 0.433 0.612 0.343 -0.713 -0.541 0.651 0.533 -0.457 0.631 0.627 0.455 0.298 -0.839 -0.05 -0.98 0.192 -0.042 -0.94 0.339 -0.145 0.714 0.685 -0.03 0.103 -0.994 0.214 -0.835 0.507 -0.017 0.86 0.511 -0.349 -0.024 -0.937 0.381 -0.837 0.394 0.792 0.345 0.504 -0.94 0.21 0.269 -0.975 0.132 0.178 0.546 0.294 0.784 0.149 -0.6 -0.786 0.45 -0.401 -0.798 -0.909 0.207 -0.361 -0.038 -0.22 0.975 0.965 -0.104 -0.24 -0.543 0.46 -0.702 -0.508 -0.502 0.7 1 0.016 -0.011 0.705 0.377 -0.6 -0.63 0.619 0.47 -0.548 0.591 0.592 0.543 0.333 -0.771 -0.058 -0.986 0.154 -0.064 -0.945 0.321 -0.158 0.689 0.708 -0.039 0.096 -0.995 0.254 -0.803 0.54 -0.005 0.876 0.483 -0.449 -0.075 -0.891 0.468 -0.802 0.372 0.635 0.172 0.753 -0.288 0.775 -0.562 -0.065 0.865 -0.497 0.458 0.044 0.888 -0.364 -0.914 -0.18 -0.34 -0.916 -0.213 0.272 0.939 -0.209 -0.107 -0.092 0.99 -0.218 -0.86 -0.462 0.415 0.894 -0.167 -0.464 -0.185 0.866 0.008 -0.728 -0.685 -0.815 -0.004 0.579 -0.05 -0.858 0.511 -0.054 -0.996 -0.075 -0.998 0.055 0.011 0.798 -0.087 0.597 0.999 -0.046 0.017 0.033 0.771 0.636 0.047 0.994 0.101 -0.054 -0.994 -0.099 -0.998 0.054 0.027 0.999 -0.046 0.001 0.048 0.991 0.125 -0.055 -0.991 -0.123 -0.998 0.053 0.043 0.999 -0.045 -0.015 0.049 0.988 0.148 -0.057 -0.988 -0.146 -0.997 0.051 0.059 0.999 -0.044 -0.031 0.051 0.984 0.171 -0.069 -0.72 -0.691 -0.844 0.141 -0.518 0.794 0.064 -0.604 0.022 0.914 -0.404 -0.015 -0.076 0.997 -0.042 0.179 -0.983</float_array><technique_common><accessor source="#weeds_+01-02_solid-nrm-a" count="774" stride="3"><param name="X" type="float"/><param name="Y" type="float"/><param name="Z" type="float"/></accessor></technique_common></source>
        <vertices id="weeds_+01-02_solid-vtx"><input semantic="POSITION" source="#weeds_+01-02_solid-pos"/></vertices>
        <triangles count="1296" material="MAT_WEED_STEM-mat"><input semantic="VERTEX" source="#weeds_+01-02_solid-vtx" offset="0"/><input semantic="NORMAL" source="#weeds_+01-02_solid-nrm" offset="1"/><p>0 0 1 1 2 2 0 0 2 2 3 3 1 1 4 4 5 5 1 1 5 5 2 2 4 4 0 0 3 3 4 4 3 3 5 5 3 3 2 2 6 6 3 3 6 6 7 7 2 2 5 5 8 8 2 2 8 8 6 6 5 5 3 3 7 7 5 5 7 7 8 8 7 7 6 6 9 9 7 7 9 9 10 10 6 6 8 8 11 11 6 6 11 11 9 9 8 8 7 7 10 10 8 8 10 10 11 11 12 12 13 13 14 14 12 12 14 14 15 15 13 13 16 16 17 17 13 13 17 17 14 14 16 16 12 12 15 15 16 16 15 15 17 17 15 15 14 14 18 18 15 15 18 18 19 19 14 14 17 17 20 20 14 14 20 20 18 18 17 17 15 15 19 19 17 17 19 19 20 20 19 19 18 18 21 21 19 19 21 21 22 22 18 18 20 20 23 23 18 18 23 23 21 21 20 20 19 19 22 22 20 20 22 22 23 23 24 24 25 25 26 26 24 24 26 26 27 27 25 25 28 28 29 29 25 25 29 29 26 26 28 28 24 24 27 27 28 28 27 27 29 29 27 27 26 26 30 30 27 27 30 30 31 31 26 26 29 29 32 32 26 26 32 32 30 30 29 29 27 27 31 31 29 29 31 31 32 32 31 31 30 30 33 33 31 31 33 33 34 34 30 30 32 32 35 35 30 30 35 35 33 33 32 32 31 31 34 34 32 32 34 34 35 35 36 36 37 37 38 38 36 36 38 38 39 39 37 37 40 40 41 41 37 37 41 41 38 38 40 40 36 36 39 39 40 40 39 39 41 41 39 39 38 38 42 42 39 39 42 42 43 43 38 38 41 41 44 44 38 38 44 44 42 42 41 41 39 39 43 43 41 41 43 43 44 44 43 43 42 42 45 45 43 43 45 45 46 46 42 42 44 44 47 47 42 42 47 47 45 45 44 44 43 43 46 46 44 44 46 46 47 47 48 48 49 49 50 50 48 48 50 50 51 51 49 49 52 52 53 53 49 49 53 53 50 50 52 52 54 54 55 55 52 52 55 55 53 53 54 54 48 48 51 51 54 54 51 51 55 55 51 51 50 50 56 56 51 51 56 56 57 57 50 50 53 53 58 58 50 50 58 58 56 56 53 53 55 55 59 59 53 53 59 59 58 58 55 55 51 51 57 57 55 55 57 57 59 59 57 57 56 56 60 60 57 57 60 60 61 61 56 56 58 58 62 62 56 56 62 62 60 60 58 58 59 59 63 63 58 58 63 63 62 62 59 59 57 57 61 61 59 59 61 61 63 63 61 61 60 60 64 64 61 61 64 64 65 65 60 60 62 62 66 66 60 60 66 66 64 64 62 62 63 63 67 67 62 62 67 67 66 66 63 63 61 61 65 65 63 63 65 65 67 67 65 65 64 64 68 68 65 65 68 68 69 69 64 64 66 66 70 70 64 64 70 70 68 68 66 66 67 67 71 71 66 66 71 71 70 70 67 67 65 65 69 69 67 67 69 69 71 71 48 48 49 49 72 72 49 49 52 52 72 72 52 52 54 54 72 72 54 54 48 48 72 72 68 68 69 69 73 73 70 70 68 68 73 73 71 71 70 70 73 73 69 69 71 71 73 73 74 74 75 75 76 76 74 74 76 76 77 77 75 75 78 78 79 79 75 75 79 79 76 76 78 78 74 74 77 77 78 78 77 77 79 79 77 77 76 76 80 80 77 77 80 80 81 81 76 76 79 79 82 82 76 76 82 82 80 80 79 79 77 77 81 81 79 79 81 81 82 82 81 81 80 80 83 83 81 81 83 83 84 84 80 80 82 82 85 85 80 80 85 85 83 83 82 82 81 81 84 84 82 82 84 84 85 85 86 86 87 87 88 88 86 86 88 88 89 89 87 87 90 90 91 91 87 87 91 91 88 88 90 90 86 86 89 89 90 90 89 89 91 91 89 89 88 88 92 92 89 89 92 92 93 93 88 88 91 91 94 94 88 88 94 94 92 92 91 91 89 89 93 93 91 91 93 93 94 94 93 93 92 92 95 95 93 93 95 95 96 96 92 92 94 94 97 97 92 92 97 97 95 95 94 94 93 93 96 96 94 94 96 96 97 97 98 98 99 99 100 100 98 98 100 100 101 101 99 99 102 102 103 103 99 99 103 103 100 100 102 102 98 98 101 101 102 102 101 101 103 103 101 101 100 100 104 104 101 101 104 104 105 105 100 100 103 103 106 106 100 100 106 106 104 104 103 103 101 101 105 105 103 103 105 105 106 106 105 105 104 104 107 107 105 105 107 107 108 108 104 104 106 106 109 109 104 104 109 109 107 107 106 106 105 105 108 108 106 106 108 108 109 109 110 110 111 111 112 112 110 110 112 112 113 113 111 111 114 114 115 115 111 111 115 115 112 112 114 114 110 110 113 113 114 114 113 113 115 115 113 113 112 112 116 116 113 113 116 116 117 117 112 112 115 115 118 118 112 112 118 118 116 116 115 115 113 113 117 117 115 115 117 117 118 118 117 117 116 116 119 119 117 117 119 119 120 120 116 116 118 118 121 121 116 116 121 121 119 119 118 118 117 117 120 120 118 118 120 120 121 121 122 122 123 123 124 124 122 122 124 124 125 125 123 123 126 126 127 127 123 123 127 127 124 124 126 126 122 122 125 125 126 126 125 125 127 127 125 125 124 124 128 128 125 125 128 128 129 129 124 124 127 127 130 130 124 124 130 130 128 128 127 127 125 125 129 129 127 127 129 129 130 130 129 129 128 128 131 131 129 129 131 131 132 132 128 128 130 130 133 133 128 128 133 133 131 131 130 130 129 129 132 132 130 130 132 132 133 133 134 134 135 135 136 136 134 134 136 136 137 137 135 135 138 138 139 139 135 135 139 139 136 136 138 138 134 134 137 137 138 138 137 137 139 139 137 137 136 136 140 140 137 137 140 140 141 141 136 136 139 139 142 142 136 136 142 142 140 140 139 139 137 137 141 141 139 139 141 141 142 142 141 141 140 140 143 143 141 141 143 143 144 144 140 140 142 142 145 145 140 140 145 145 143 143 142 142 141 141 144 144 142 142 144 144 145 145 146 146 147 147 148 148 146 146 148 148 149 149 147 147 150 150 151 151 147 147 151 151 148 148 150 150 146 146 149 149 150 150 149 149 151 151 149 149 148 148 152 152 149 149 152 152 153 153 148 148 151 151 154 154 148 148 154 154 152 152 151 151 149 149 153 153 151 151 153 153 154 154 153 153 152 152 155 155 153 153 155 155 156 156 152 152 154 154 157 157 152 152 157 157 155 155 154 154 153 153 156 156 154 154 156 156 157 157 158 158 159 159 160 160 158 158 160 160 161 161 159 159 162 162 163 163 159 159 163 163 160 160 162 162 158 158 161 161 162 162 161 161 163 163 161 161 160 160 164 164 161 161 164 164 165 165 160 160 163 163 166 166 160 160 166 166 164 164 163 163 161 161 165 165 163 163 165 165 166 166 165 165 164 164 167 167 165 165 167 167 168 168 164 164 166 166 169 169 164 164 169 169 167 167 166 166 165 165 168 168 166 166 168 168 169 169 170 170 171 171 172 172 170 170 172 172 173 173 171 171 174 174 175 175 171 171 175 175 172 172 174 174 176 176 177 177 174 174 177 177 175 175 176 176 170 170 173 173 176 176 173 173 177 177 173 173 172 172 178 178 173 173 178 178 179 179 172 172 175 175 180 180 172 172 180 180 178 178 175 175 177 177 181 181 175 175 181 181 180 180 177 177 173 173 179 179 177 177 179 179 181 181 179 179 178 178 182 182 179 179 182 182 183 183 178 178 180 180 184 184 178 178 184 184 182 182 180 180 181 181 185 185 180 180 185 185 184 184 181 181 179 179 183 183 181 181 183 183 185 185 183 183 182 182 186 186 183 183 186 186 187 187 182 182 184 184 188 188 182 182 188 188 186 186 184 184 185 185 189 189 184 184 189 189 188 188 185 185 183 183 187 187 185 185 187 187 189 189 187 187 186 186 190 190 187 187 190 190 191 191 186 186 188 188 192 192 186 186 192 192 190 190 188 188 189 189 193 193 188 188 193 193 192 192 189 189 187 187 191 191 189 189 191 191 193 193 170 170 171 171 194 194 171 171 174 174 194 194 174 174 176 176 194 194 176 176 170 170 194 194 190 190 191 191 195 195 192 192 190 190 195 195 193 193 192 192 195 195 191 191 193 193 195 195 196 196 197 197 198 198 196 196 198 198 199 199 197 197 200 200 201 201 197 197 201 201 198 198 200 200 196 196 199 199 200 200 199 199 201 201 199 199 198 198 202 202 199 199 202 202 203 203 198 198 201 201 204 204 198 198 204 204 202 202 201 201 199 199 203 203 201 201 203 203 204 204 203 203 202 202 205 205 203 203 205 205 206 206 202 202 204 204 207 207 202 202 207 207 205 205 204 204 203 203 206 206 204 204 206 206 207 207 208 208 209 209 210 210 208 208 210 210 211 211 209 209 212 212 213 213 209 209 213 213 210 210 212 212 208 208 211 211 212 212 211 211 213 213 211 211 210 210 214 214 211 211 214 214 215 215 210 210 213 213 216 216 210 210 216 216 214 214 213 213 211 211 215 215 213 213 215 215 216 216 215 215 214 214 217 217 215 215 217 217 218 218 214 214 216 216 219 219 214 214 219 219 217 217 216 216 215 215 218 218 216 216 218 218 219 219 220 220 221 221 222 222 220 220 222 222 223 223 221 221 224 224 225 225 221 221 225 225 222 222 224 224 220 220 223 223 224 224 223 223 225 225 223 223 222 222 226 226 223 223 226 226 227 227 222 222 225 225 228 228 222 222 228 228 226 226 225 225 223 223 227 227 225 225 227 227 228 228 227 227 226 226 229 229 227 227 229 229 230 230 226 226 228 228 231 231 226 226 231 231 229 229 228 228 227 227 230 230 228 228 230 230 231 231 232 232 233 233 234 234 232 232 234 234 235 235 233 233 236 236 237 237 233 233 237 237 234 234 236 236 232 232 235 235 236 236 235 235 237 237 235 235 234 234 238 238 235 235 238 238 239 239 234 234 237 237 240 240 234 234 240 240 238 238 237 237 235 235 239 239 237 237 239 239 240 240 239 239 238 238 241 241 239 239 241 241 242 242 238 238 240 240 243 243 238 238 243 243 241 241 240 240 239 239 242 242 240 240 242 242 243 243 244 244 245 245 246 246 244 244 246 246 247 247 245 245 248 248 249 249 245 245 249 249 246 246 248 248 244 244 247 247 248 248 247 247 249 249 247 247 246 246 250 250 247 247 250 250 251 251 246 246 249 249 252 252 246 246 252 252 250 250 249 249 247 247 251 251 249 249 251 251 252 252 251 251 250 250 253 253 251 251 253 253 254 254 250 250 252 252 255 255 250 250 255 255 253 253 252 252 251 251 254 254 252 252 254 254 255 255 256 256 257 257 258 258 256 256 258 258 259 259 257 257 260 260 261 261 257 257 261 261 258 258 260 260 256 256 259 259 260 260 259 259 261 261 259 259 258 258 262 262 259 259 262 262 263 263 258 258 261 261 264 264 258 258 264 264 262 262 261 261 259 259 263 263 261 261 263 263 264 264 263 263 262 262 265 265 263 263 265 265 266 266 262 262 264 264 267 267 262 262 267 267 265 265 264 264 263 263 266 266 264 264 266 266 267 267 268 268 269 269 270 270 268 268 270 270 271 271 269 269 272 272 273 273 269 269 273 273 270 270 272 272 268 268 271 271 272 272 271 271 273 273 271 271 270 270 274 274 271 271 274 274 275 275 270 270 273 273 276 276 270 270 276 276 274 274 273 273 271 271 275 275 273 273 275 275 276 276 275 275 274 274 277 277 275 275 277 277 278 278 274 274 276 276 279 279 274 274 279 279 277 277 276 276 275 275 278 278 276 276 278 278 279 279 280 280 281 281 282 282 280 280 282 282 283 283 281 281 284 284 285 285 281 281 285 285 282 282 284 284 280 280 283 283 284 284 283 283 285 285 283 283 282 282 286 286 283 283 286 286 287 287 282 282 285 285 288 288 282 282 288 288 286 286 285 285 283 283 287 287 285 285 287 287 288 288 287 287 286 286 289 289 287 287 289 289 290 290 286 286 288 288 291 291 286 286 291 291 289 289 288 288 287 287 290 290 288 288 290 290 291 291 292 292 293 293 294 294 292 292 294 294 295 295 293 293 296 296 297 297 293 293 297 297 294 294 296 296 292 292 295 295 296 296 295 295 297 297 295 295 294 294 298 298 295 295 298 298 299 299 294 294 297 297 300 300 294 294 300 300 298 298 297 297 295 295 299 299 297 297 299 299 300 300 299 299 298 298 301 301 299 299 301 301 302 302 298 298 300 300 303 303 298 298 303 303 301 301 300 300 299 299 302 302 300 300 302 302 303 303 304 304 305 305 306 306 304 304 306 306 307 307 305 305 308 308 309 309 305 305 309 309 306 306 308 308 304 304 307 307 308 308 307 307 309 309 307 307 306 306 310 310 307 307 310 310 311 311 306 306 309 309 312 312 306 306 312 312 310 310 309 309 307 307 311 311 309 309 311 311 312 312 311 311 310 310 313 313 311 311 313 313 314 314 310 310 312 312 315 315 310 310 315 315 313 313 312 312 311 311 314 314 312 312 314 314 315 315 316 316 317 317 318 318 316 316 318 318 319 319 317 317 320 320 321 321 317 317 321 321 318 318 320 320 322 322 323 323 320 320 323 323 321 321 322 322 316 316 319 319 322 322 319 319 323 323 319 319 318 318 324 324 319 319 324 324 325 325 318 318 321 321 326 326 318 318 326 326 324 324 321 321 323 323 327 327 321 321 327 327 326 326 323 323 319 319 325 325 323 323 325 325 327 327 325 325 324 324 328 328 325 325 328 328 329 329 324 324 326 326 330 330 324 324 330 330 328 328 326 326 327 327 331 331 326 326 331 331 330 330 327 327 325 325 329 329 327 327 329 329 331 331 329 329 328 328 332 332 329 329 332 332 333 333 328 328 330 330 334 334 328 328 334 334 332 332 330 330 331 331 335 335 330 330 335 335 334 334 331 331 329 329 333 333 331 331 333 333 335 335 333 333 332 332 336 336 333 333 336 336 337 337 332 332 334 334 338 338 332 332 338 338 336 336 334 334 335 335 339 339 334 334 339 339 338 338 335 335 333 333 337 337 335 335 337 337 339 339 316 316 317 317 340 340 317 317 320 320 340 340 320 320 322 322 340 340 322 322 316 316 340 340 336 336 337 337 341 341 338 338 336 336 341 341 339 339 338 338 341 341 337 337 339 339 341 341 342 342 343 343 344 344 342 342 344 344 345 345 343 343 346 346 347 347 343 343 347 347 344 344 346 346 348 348 349 349 346 346 349 349 347 347 348 348 342 342 345 345 348 348 345 345 349 349 345 345 344 344 350 350 345 345 350 350 351 351 344 344 347 347 352 352 344 344 352 352 350 350 347 347 349 349 353 353 347 347 353 353 352 352 349 349 345 345 351 351 349 349 351 351 353 353 351 351 350 350 354 354 351 351 354 354 355 355 350 350 352 352 356 356 350 350 356 356 354 354 352 352 353 353 357 357 352 352 357 357 356 356 353 353 351 351 355 355 353 353 355 355 357 357 355 355 354 354 358 358 355 355 358 358 359 359 354 354 356 356 360 360 354 354 360 360 358 358 356 356 357 357 361 361 356 356 361 361 360 360 357 357 355 355 359 359 357 357 359 359 361 361 359 359 358 358 362 362 359 359 362 362 363 363 358 358 360 360 364 364 358 358 364 364 362 362 360 360 361 361 365 365 360 360 365 365 364 364 361 361 359 359 363 363 361 361 363 363 365 365 342 342 343 343 366 366 343 343 346 346 366 366 346 346 348 348 366 366 348 348 342 342 366 366 362 362 363 363 367 367 364 364 362 362 367 367 365 365 364 364 367 367 363 363 365 365 367 367 368 368 369 369 370 370 368 368 370 370 371 371 369 369 372 372 373 373 369 369 373 373 370 370 372 372 374 374 375 375 372 372 375 375 373 373 374 374 368 368 371 371 374 374 371 371 375 375 371 371 370 370 376 376 371 371 376 376 377 377 370 370 373 373 378 378 370 370 378 378 376 376 373 373 375 375 379 379 373 373 379 379 378 378 375 375 371 371 377 377 375 375 377 377 379 379 377 377 376 376 380 380 377 377 380 380 381 381 376 376 378 378 382 382 376 376 382 382 380 380 378 378 379 379 383 383 378 378 383 383 382 382 379 379 377 377 381 381 379 379 381 381 383 383 381 381 380 380 384 384 381 381 384 384 385 385 380 380 382 382 386 386 380 380 386 386 384 384 382 382 383 383 387 387 382 382 387 387 386 386 383 383 381 381 385 385 383 383 385 385 387 387 385 385 384 384 388 388 385 385 388 388 389 389 384 384 386 386 390 390 384 384 390 390 388 388 386 386 387 387 391 391 386 386 391 391 390 390 387 387 385 385 389 389 387 387 389 389 391 391 368 368 369 369 392 392 369 369 372 372 392 392 372 372 374 374 392 392 374 374 368 368 392 392 388 388 389 389 393 393 390 390 388 388 393 393 391 391 390 390 393 393 389 389 391 391 393 393 394 394 395 395 396 396 394 394 396 396 397 397 395 395 398 398 399 399 395 395 399 399 396 396 398 398 400 400 401 401 398 398 401 401 399 399 400 400 394 394 397 397 400 400 397 397 401 401 397 397 396 396 402 402 397 397 402 402 403 403 396 396 399 399 404 404 396 396 404 404 402 402 399 399 401 401 405 405 399 399 405 405 404 404 401 401 397 397 403 403 401 401 403 403 405 405 403 403 402 402 406 406 403 403 406 406 407 407 402 402 404 404 408 408 402 402 408 408 406 406 404 404 405 405 409 409 404 404 409 409 408 408 405 405 403 403 407 407 405 405 407 407 409 409 407 407 406 406 410 410 407 407 410 410 411 411 406 406 408 408 412 412 406 406 412 412 410 410 408 408 409 409 413 413 408 408 413 413 412 412 409 409 407 407 411 411 409 409 411 411 413 413 411 411 410 410 414 414 411 411 414 414 415 415 410 410 412 412 416 416 410 410 416 416 414 414 412 412 413 413 417 417 412 412 417 417 416 416 413 413 411 411 415 415 413 413 415 415 417 417 394 394 395 395 418 418 395 395 398 398 418 418 398 398 400 400 418 418 400 400 394 394 418 418 414 414 415 415 419 419 416 416 414 414 419 419 417 417 416 416 419 419 415 415 417 417 419 419 420 420 421 421 422 422 420 420 422 422 423 423 421 421 424 424 425 425 421 421 425 425 422 422 424 424 426 426 427 427 424 424 427 427 425 425 426 426 420 420 423 423 426 426 423 423 427 427 423 423 422 422 428 428 423 423 428 428 429 429 422 422 425 425 430 430 422 422 430 430 428 428 425 425 427 427 431 431 425 425 431 431 430 430 427 427 423 423 429 429 427 427 429 429 431 431 429 429 428 428 432 432 429 429 432 432 433 433 428 428 430 430 434 434 428 428 434 434 432 432 430 430 431 431 435 435 430 430 435 435 434 434 431 431 429 429 433 433 431 431 433 433 435 435 433 433 432 432 436 436 433 433 436 436 437 437 432 432 434 434 438 438 432 432 438 438 436 436 434 434 435 435 439 439 434 434 439 439 438 438 435 435 433 433 437 437 435 435 437 437 439 439 437 437 436 436 440 440 437 437 440 440 441 441 436 436 438 438 442 442 436 436 442 442 440 440 438 438 439 439 443 443 438 438 443 443 442 442 439 439 437 437 441 441 439 439 441 441 443 443 420 420 421 421 444 444 421 421 424 424 444 444 424 424 426 426 444 444 426 426 420 420 444 444 440 440 441 441 445 445 442 442 440 440 445 445 443 443 442 442 445 445 441 441 443 443 445 445 446 446 447 447 448 448 446 446 448 448 449 449 447 447 450 450 451 451 447 447 451 451 448 448 450 450 446 446 449 449 450 450 449 449 451 451 449 449 448 448 452 452 449 449 452 452 453 453 448 448 451 451 454 454 448 448 454 454 452 452 451 451 449 449 453 453 451 451 453 453 454 454 453 453 452 452 455 455 453 453 455 455 456 456 452 452 454 454 457 457 452 452 457 457 455 455 454 454 453 453 456 456 454 454 456 456 457 457 458 458 459 459 460 460 458 458 460 460 461 461 459 459 462 462 463 463 459 459 463 463 460 460 462 462 458 458 461 461 462 462 461 461 463 463 461 461 460 460 464 464 461 461 464 464 465 465 460 460 463 463 466 466 460 460 466 466 464 464 463 463 461 461 465 465 463 463 465 465 466 466 465 465 464 464 467 467 465 465 467 467 468 468 464 464 466 466 469 469 464 464 469 469 467 467 466 466 465 465 468 468 466 466 468 468 469 469 470 470 471 471 472 472 470 470 472 472 473 473 471 471 474 474 475 475 471 471 475 475 472 472 474 474 470 470 473 473 474 474 473 473 475 475 473 473 472 472 476 476 473 473 476 476 477 477 472 472 475 475 478 478 472 472 478 478 476 476 475 475 473 473 477 477 475 475 477 477 478 478 477 477 476 476 479 479 477 477 479 479 480 480 476 476 478 478 481 481 476 476 481 481 479 479 478 478 477 477 480 480 478 478 480 480 481 481 482 482 483 483 484 484 482 482 484 484 485 485 483 483 486 486 487 487 483 483 487 487 484 484 486 486 482 482 485 485 486 486 485 485 487 487 485 485 484 484 488 488 485 485 488 488 489 489 484 484 487 487 490 490 484 484 490 490 488 488 487 487 485 485 489 489 487 487 489 489 490 490 489 489 488 488 491 491 489 489 491 491 492 492 488 488 490 490 493 493 488 488 493 493 491 491 490 490 489 489 492 492 490 490 492 492 493 493 494 494 495 495 496 496 494 494 496 496 497 497 495 495 498 498 499 499 495 495 499 499 496 496 498 498 494 494 497 497 498 498 497 497 499 499 497 497 496 496 500 500 497 497 500 500 501 501 496 496 499 499 502 502 496 496 502 502 500 500 499 499 497 497 501 501 499 499 501 501 502 502 501 501 500 500 503 503 501 501 503 503 504 504 500 500 502 502 505 505 500 500 505 505 503 503 502 502 501 501 504 504 502 502 504 504 505 505 506 506 507 507 508 508 506 506 508 508 509 509 507 507 510 510 511 511 507 507 511 511 508 508 510 510 512 512 513 513 510 510 513 513 511 511 512 512 506 506 509 509 512 512 509 509 513 513 509 509 508 508 514 514 509 509 514 514 515 515 508 508 511 511 516 516 508 508 516 516 514 514 511 511 513 513 517 517 511 511 517 517 516 516 513 513 509 509 515 515 513 513 515 515 517 517 515 515 514 514 518 518 515 515 518 518 519 519 514 514 516 516 520 520 514 514 520 520 518 518 516 516 517 517 521 521 516 516 521 521 520 520 517 517 515 515 519 519 517 517 519 519 521 521 519 519 518 518 522 522 519 519 522 522 523 523 518 518 520 520 524 524 518 518 524 524 522 522 520 520 521 521 525 525 520 520 525 525 524 524 521 521 519 519 523 523 521 521 523 523 525 525 523 523 522 522 526 526 523 523 526 526 527 527 522 522 524 524 528 528 522 522 528 528 526 526 524 524 525 525 529 529 524 524 529 529 528 528 525 525 523 523 527 527 525 525 527 527 529 529 506 506 507 507 530 530 507 507 510 510 530 530 510 510 512 512 530 530 512 512 506 506 530 530 526 526 527 527 531 531 528 528 526 526 531 531 529 529 528 528 531 531 527 527 529 529 531 531 532 532 533 533 534 534 532 532 534 534 535 535 533 533 536 536 537 537 533 533 537 537 534 534 536 536 538 538 539 539 536 536 539 539 537 537 538 538 532 532 535 535 538 538 535 535 539 539 535 535 534 534 540 540 535 535 540 540 541 541 534 534 537 537 542 542 534 534 542 542 540 540 537 537 539 539 543 543 537 537 543 543 542 542 539 539 535 535 541 541 539 539 541 541 543 543 541 541 540 540 544 544 541 541 544 544 545 545 540 540 542 542 546 546 540 540 546 546 544 544 542 542 543 543 547 547 542 542 547 547 546 546 543 543 541 541 545 545 543 543 545 545 547 547 545 545 544 544 548 548 545 545 548 548 549 549 544 544 546 546 550 550 544 544 550 550 548 548 546 546 547 547 551 551 546 546 551 551 550 550 547 547 545 545 549 549 547 547 549 549 551 551 549 549 548 548 552 552 549 549 552 552 553 553 548 548 550 550 554 554 548 548 554 554 552 552 550 550 551 551 555 555 550 550 555 555 554 554 551 551 549 549 553 553 551 551 553 553 555 555 532 532 533 533 556 556 533 533 536 536 556 556 536 536 538 538 556 556 538 538 532 532 556 556 552 552 553 553 557 557 554 554 552 552 557 557 555 555 554 554 557 557 553 553 555 555 557 557 558 558 559 559 560 560 558 558 560 560 561 561 559 559 562 562 563 563 559 559 563 563 560 560 562 562 564 564 565 565 562 562 565 565 563 563 564 564 558 558 561 561 564 564 561 561 565 565 561 561 560 560 566 566 561 561 566 566 567 567 560 560 563 563 568 568 560 560 568 568 566 566 563 563 565 565 569 569 563 563 569 569 568 568 565 565 561 561 567 567 565 565 567 567 569 569 567 567 566 566 570 570 567 567 570 570 571 571 566 566 568 568 572 572 566 566 572 572 570 570 568 568 569 569 573 573 568 568 573 573 572 572 569 569 567 567 571 571 569 569 571 571 573 573 571 571 570 570 574 574 571 571 574 574 575 575 570 570 572 572 576 576 570 570 576 576 574 574 572 572 573 573 577 577 572 572 577 577 576 576 573 573 571 571 575 575 573 573 575 575 577 577 575 575 574 574 578 578 575 575 578 578 579 579 574 574 576 576 580 580 574 574 580 580 578 578 576 576 577 577 581 581 576 576 581 581 580 580 577 577 575 575 579 579 577 577 579 579 581 581 558 558 559 559 582 582 559 559 562 562 582 582 562 562 564 564 582 582 564 564 558 558 582 582 578 578 579 579 583 583 580 580 578 578 583 583 581 581 580 580 583 583 579 579 581 581 583 583 584 584 585 585 586 586 584 584 586 586 587 587 585 585 588 588 589 589 585 585 589 589 586 586 588 588 590 590 591 591 588 588 591 591 589 589 590 590 584 584 587 587 590 590 587 587 591 591 587 587 586 586 592 592 587 587 592 592 593 593 586 586 589 589 594 594 586 586 594 594 592 592 589 589 591 591 595 595 589 589 595 595 594 594 591 591 587 587 593 593 591 591 593 593 595 595 593 593 592 592 596 596 593 593 596 596 597 597 592 592 594 594 598 598 592 592 598 598 596 596 594 594 595 595 599 599 594 594 599 599 598 598 595 595 593 593 597 597 595 595 597 597 599 599 597 597 596 596 600 600 597 597 600 600 601 601 596 596 598 598 602 602 596 596 602 602 600 600 598 598 599 599 603 603 598 598 603 603 602 602 599 599 597 597 601 601 599 599 601 601 603 603 601 601 600 600 604 604 601 601 604 604 605 605 600 600 602 602 606 606 600 600 606 606 604 604 602 602 603 603 607 607 602 602 607 607 606 606 603 603 601 601 605 605 603 603 605 605 607 607 584 584 585 585 608 608 585 585 588 588 608 608 588 588 590 590 608 608 590 590 584 584 608 608 604 604 605 605 609 609 606 606 604 604 609 609 607 607 606 606 609 609 605 605 607 607 609 609 610 610 611 611 612 612 610 610 612 612 613 613 611 611 614 614 615 615 611 611 615 615 612 612 614 614 616 616 617 617 614 614 617 617 615 615 616 616 610 610 613 613 616 616 613 613 617 617 613 613 612 612 618 618 613 613 618 618 619 619 612 612 615 615 620 620 612 612 620 620 618 618 615 615 617 617 621 621 615 615 621 621 620 620 617 617 613 613 619 619 617 617 619 619 621 621 619 619 618 618 622 622 619 619 622 622 623 623 618 618 620 620 624 624 618 618 624 624 622 622 620 620 621 621 625 625 620 620 625 625 624 624 621 621 619 619 623 623 621 621 623 623 625 625 623 623 622 622 626 626 623 623 626 626 627 627 622 622 624 624 628 628 622 622 628 628 626 626 624 624 625 625 629 629 624 624 629 629 628 628 625 625 623 623 627 627 625 625 627 627 629 629 627 627 626 626 630 630 627 627 630 630 631 631 626 626 628 628 632 632 626 626 632 632 630 630 628 628 629 629 633 633 628 628 633 633 632 632 629 629 627 627 631 631 629 629 631 631 633 633 610 610 611 611 634 634 611 611 614 614 634 634 614 614 616 616 634 634 616 616 610 610 634 634 630 630 631 631 635 635 632 632 630 630 635 635 633 633 632 632 635 635 631 631 633 633 635 635 636 636 637 637 638 638 636 636 638 638 639 639 637 637 640 640 641 641 637 637 641 641 638 638 640 640 642 642 643 643 640 640 643 643 641 641 642 642 636 636 639 639 642 642 639 639 643 643 639 639 638 638 644 644 639 639 644 644 645 645 638 638 641 641 646 646 638 638 646 646 644 644 641 641 643 643 647 647 641 641 647 647 646 646 643 643 639 639 645 645 643 643 645 645 647 647 645 645 644 644 648 648 645 645 648 648 649 649 644 644 646 646 650 650 644 644 650 650 648 648 646 646 647 647 651 651 646 646 651 651 650 650 647 647 645 645 649 649 647 647 649 649 651 651 649 649 648 648 652 652 649 649 652 652 653 653 648 648 650 650 654 654 648 648 654 654 652 652 650 650 651 651 655 655 650 650 655 655 654 654 651 651 649 649 653 653 651 651 653 653 655 655 653 653 652 652 656 656 653 653 656 656 657 657 652 652 654 654 658 658 652 652 658 658 656 656 654 654 655 655 659 659 654 654 659 659 658 658 655 655 653 653 657 657 655 655 657 657 659 659 636 636 637 637 660 660 637 637 640 640 660 660 640 640 642 642 660 660 642 642 636 636 660 660 656 656 657 657 661 661 658 658 656 656 661 661 659 659 658 658 661 661 657 657 659 659 661 661 662 662 663 663 664 664 662 662 664 664 665 665 663 663 666 666 667 667 663 663 667 667 664 664 666 666 668 668 669 669 666 666 669 669 667 667 668 668 662 662 665 665 668 668 665 665 669 669 665 665 664 664 670 670 665 665 670 670 671 671 664 664 667 667 672 672 664 664 672 672 670 670 667 667 669 669 673 673 667 667 673 673 672 672 669 669 665 665 671 671 669 669 671 671 673 673 671 671 670 670 674 674 671 671 674 674 675 675 670 670 672 672 676 676 670 670 676 676 674 674 672 672 673 673 677 677 672 672 677 677 676 676 673 673 671 671 675 675 673 673 675 675 677 677 675 675 674 674 678 678 675 675 678 678 679 679 674 674 676 676 680 680 674 674 680 680 678 678 676 676 677 677 681 681 676 676 681 681 680 680 677 677 675 675 679 679 677 677 679 679 681 681 679 679 678 678 682 682 679 679 682 682 683 683 678 678 680 680 684 684 678 678 684 684 682 682 680 680 681 681 685 685 680 680 685 685 684 684 681 681 679 679 683 683 681 681 683 683 685 685 662 662 663 663 686 686 663 663 666 666 686 686 666 666 668 668 686 686 668 668 662 662 686 686 682 682 683 683 687 687 684 684 682 682 687 687 685 685 684 684 687 687 683 683 685 685 687 687 688 688 689 689 690 690 688 688 690 690 691 691 689 689 692 692 693 693 689 689 693 693 690 690 692 692 688 688 691 691 692 692 691 691 693 693 691 691 690 690 694 694 691 691 694 694 695 695 690 690 693 693 696 696 690 690 696 696 694 694 693 693 691 691 695 695 693 693 695 695 696 696 695 695 694 694 697 697 695 695 697 697 698 698 694 694 696 696 699 699 694 694 699 699 697 697 696 696 695 695 698 698 696 696 698 698 699 699 700 700 701 701 702 702 700 700 702 702 703 703 701 701 704 704 705 705 701 701 705 705 702 702 704 704 700 700 703 703 704 704 703 703 705 705 703 703 702 702 706 706 703 703 706 706 707 707 702 702 705 705 708 708 702 702 708 708 706 706 705 705 703 703 707 707 705 705 707 707 708 708 707 707 706 706 709 709 707 707 709 709 710 710 706 706 708 708 711 711 706 706 711 711 709 709 708 708 707 707 710 710 708 708 710 710 711 711 712 712 713 713 714 714 712 712 714 714 715 715 713 713 716 716 717 717 713 713 717 717 714 714 716 716 712 712 715 715 716 716 715 715 717 717 715 715 714 714 718 718 715 715 718 718 719 719 714 714 717 717 720 720 714 714 720 720 718 718 717 717 715 715 719 719 717 717 719 719 720 720 719 719 718 718 721 721 719 719 721 721 722 722 718 718 720 720 723 723 718 718 723 723 721 721 720 720 719 719 722 722 720 720 722 722 723 723 724 724 725 725 726 726 724 724 726 726 727 727 725 725 728 728 729 729 725 725 729 729 726 726 728 728 724 724 727 727 728 728 727 727 729 729 727 727 726 726 730 730 727 727 730 730 731 731 726 726 729 729 732 732 726 726 732 732 730 730 729 729 727 727 731 731 729 729 731 731 732 732 731 731 730 730 733 733 731 731 733 733 734 734 730 730 732 732 735 735 730 730 735 735 733 733 732 732 731 731 734 734 732 732 734 734 735 735 736 736 737 737 738 738 736 736 738 738 739 739 737 737 740 740 741 741 737 737 741 741 738 738 740 740 736 736 739 739 740 740 739 739 741 741 739 739 738 738 742 742 739 739 742 742 743 743 738 738 741 741 744 744 738 738 744 744 742 742 741 741 739 739 743 743 741 741 743 743 744 744 743 743 742 742 745 745 743 743 745 745 746 746 742 742 744 744 747 747 742 742 747 747 745 745 744 744 743 743 746 746 744 744 746 746 747 747 748 748 749 749 750 750 748 748 750 750 751 751 749 749 752 752 753 753 749 749 753 753 750 750 752 752 754 754 755 755 752 752 755 755 753 753 754 754 748 748 751 751 754 754 751 751 755 755 751 751 750 750 756 756 751 751 756 756 757 757 750 750 753 753 758 758 750 750 758 758 756 756 753 753 755 755 759 759 753 753 759 759 758 758 755 755 751 751 757 757 755 755 757 757 759 759 757 757 756 756 760 760 757 757 760 760 761 761 756 756 758 758 762 762 756 756 762 762 760 760 758 758 759 759 763 763 758 758 763 763 762 762 759 759 757 757 761 761 759 759 761 761 763 763 761 761 760 760 764 764 761 761 764 764 765 765 760 760 762 762 766 766 760 760 766 766 764 764 762 762 763 763 767 767 762 762 767 767 766 766 763 763 761 761 765 765 763 763 765 765 767 767 765 765 764 764 768 768 765 765 768 768 769 769 764 764 766 766 770 770 764 764 770 770 768 768 766 766 767 767 771 771 766 766 771 771 770 770 767 767 765 765 769 769 767 767 769 769 771 771 748 748 749 749 772 772 749 749 752 752 772 772 752 752 754 754 772 772 754 754 748 748 772 772 768 768 769 769 773 773 770 770 768 768 773 773 771 771 770 770 773 773 769 769 771 771 773 773</p></triangles>
      </mesh>
    </geometry>
  </library_geometries>
  <library_visual_scenes><visual_scene id="scene" name="scene">
    <node id="weeds_+01-02_solid" name="weeds_+01-02_solid" type="NODE"><instance_geometry url="#weeds_+01-02_solid-mesh"><bind_material><technique_common>
      <instance_material symbol="MAT_WEED_STEM-mat" target="#MAT_WEED_STEM"/>
    </technique_common></bind_material></instance_geometry></node>
  </visual_scene></library_visual_scenes>
  <scene><instance_visual_scene url="#scene"/></scene>
</COLLADA>
