<?xml version="1.0" encoding="utf-8"?>
<COLLADA xmlns="http://www.collada.org/2005/11/COLLADASchema" version="1.4.1">
  <asset>
    <contributor><authoring_tool>VIGIL SIH26126 farm generator</authoring_tool></contributor>
    <unit name="meter" meter="1"/>
    <up_axis>Z_UP</up_axis>
  </asset>
  <library_effects>
    <effect id="MAT_WEED_GRASS-fx"><profile_COMMON><technique sid="c"><lambert><diffuse><color>0.0980 0.1280 0.0300 1</color></diffuse></lambert></technique></profile_COMMON></effect>
    <effect id="MAT_WEED_BROAD-fx"><profile_COMMON><technique sid="c"><lambert><diffuse><color>0.0720 0.1520 0.0340 1</color></diffuse></lambert></technique></profile_COMMON></effect>
  </library_effects>
  <library_materials>
    <material id="MAT_WEED_GRASS" name="MAT_WEED_GRASS"><instance_effect url="#MAT_WEED_GRASS-fx"/></material>
    <material id="MAT_WEED_BROAD" name="MAT_WEED_BROAD"><instance_effect url="#MAT_WEED_BROAD-fx"/></material>
  </library_materials>
  <library_geometries>
    <geometry id="weeds_-03-01_foliage-mesh" name="weeds_-03-01_foliage">
      <mesh>
        <source id="weeds_-03-01_foliage-pos"><float_array id="weeds_-03-01_foliage-pos-a" count="2796">1.3263 0.46983 -0.14588 1.3217 0.46324 -0.14544 1.3625 0.44148 -0.054584 1.3664 0.44715 -0.054962 1.4029 0.41742 -0.0094642 1.4057 0.42155 -0.0097389 1.4424 0.38973 -0.031183 1.4439 0.39194 -0.03133 1.4814 0.35935 -0.10253 1.4814 0.35935 -0.10253 1.3212 0.46934 -0.14578 1.3269 0.46373 -0.14554 1.3497 0.49039 -0.08306 1.3451 0.49546 -0.083287 1.3719 0.51561 -0.051579 1.3687 0.51948 -0.051757 1.3934 0.53848 -0.065819 1.3918 0.54063 -0.065921 1.4144 0.55956 -0.11512 1.4144 0.55956 -0.11512 1.3265 0.4642 -0.14556 1.3216 0.46887 -0.14576 1.2948 0.44288 -0.067733 1.2987 0.43848 -0.067534 1.2677 0.4143 -0.029168 1.2701 0.41084 -0.029004 1.2397 0.38215 -0.048078 1.2408 0.38019 -0.047981 1.2111 0.34737 -0.10907 1.2111 0.34737 -0.10907 1.3249 0.46313 -0.14547 1.3232 0.46994 -0.14584 1.2916 0.46495 -0.078418 1.2933 0.45917 -0.07811 1.2598 0.45781 -0.043386 1.2611 0.45366 -0.043167 1.2274 0.44778 -0.056083 1.2282 0.44559 -0.055968 1.1946 0.43555 -0.10518 1.1946 0.43555 -0.10518 1.3231 0.46419 -0.14551 1.325 0.46888 -0.1458 1.3059 0.48028 -0.087142 1.3043 0.47624 -0.086889 1.2864 0.4902 -0.05074 1.2852 0.48724 -0.050555 1.2664 0.49799 -0.048862 1.2658 0.49641 -0.048763 1.2459 0.50392 -0.077854 1.2459 0.50392 -0.077854 1.3226 0.4698 -0.14582 1.3255 0.46327 -0.14549 1.3611 0.48406 -0.063736 1.3583 0.48955 -0.064012 1.3959 0.50299 -0.019358 1.3938 0.50689 -0.019551 1.4299 0.51887 -0.030875 1.4286 0.5209 -0.030975 1.463 0.53226 -0.087265 1.463 0.53226 -0.087265 1.3259 0.46965 -0.14586 1.3222 0.46341 -0.14545 1.3542 0.45082 -0.063463 1.3576 0.45597 -0.063804 1.3859 0.43644 -0.016832 1.3886 0.44003 -0.017074 1.4171 0.41912 -0.023443 1.4187 0.42095 -0.023568 1.4479 0.39933 -0.073737 1.4479 0.39933 -0.073737 1.3197 0.46418 -0.14546 1.3284 0.46889 -0.14585 1.3124 0.5023 -0.082487 1.3053 0.49759 -0.082121 1.2957 0.53343 -0.051526 1.2909 0.52956 -0.051238 1.2782 0.56148 -0.068094 1.2758 0.55918 -0.06793 1.2603 0.58713 -0.12033 1.2603 0.58713 -0.12033 1.3244 0.47075 -0.1459 1.3237 0.46231 -0.14541 1.36 0.46428 -0.071549 1.3599 0.47153 -0.071962 1.3956 0.4647 -0.031956 1.395 0.46993 -0.032248 1.4303 0.46244 -0.043343 1.4297 0.46519 -0.043492 1.4641 0.45802 -0.094973 1.4641 0.45802 -0.094973 1.3269 0.46525 -0.14562 1.3212 0.46782 -0.14569 1.3121 0.44842 -0.077038 1.3171 0.44675 -0.077011 1.3029 0.42757 -0.03427 1.3066 0.42674 -0.034274 1.2934 0.40456 -0.031479 1.2954 0.40433 -0.031494 1.2835 0.37971 -0.064047 1.2835 0.37971 -0.064047 -0.023657 0.43525 -0.14684 -0.020399 0.42942 -0.14616 -0.0037785 0.44623 -0.088695 -0.0061417 0.45144 -0.08926 0.015074 0.46165 -0.056749 0.013681 0.46556 -0.057139 0.03739 0.47471 -0.062901 0.036823 0.47686 -0.063097 0.062551 0.48589 -0.099527 0.062551 0.48589 -0.099527 -0.025156 0.4354 -0.14699 -0.0189 0.42927 -0.14601 -0.0063534 0.45256 -0.08663 -0.011301 0.4582 -0.087454 0.0083714 0.47444 -0.053817 0.0051003 0.47879 -0.054404 0.026619 0.49393 -0.060715 0.025051 0.49638 -0.061021 0.047773 0.51152 -0.099514 0.047773 0.51152 -0.099514 -0.020691 0.42894 -0.14615 -0.023365 0.43573 -0.14685 -0.046886 0.43128 -0.0931 -0.045193 0.42525 -0.09254 -0.068525 0.42497 -0.060884 -0.067741 0.42049 -0.06051 -0.08736 0.41615 -0.061809 -0.087185 0.41373 -0.061629 -0.10384 0.40518 -0.091688 -0.10384 0.40518 -0.091688 -0.026489 0.4295 -0.1467 -0.017567 0.43517 -0.14629 -0.044626 0.47116 -0.07009 -0.05167 0.46546 -0.07033 -0.068735 0.50416 -0.03015 -0.073341 0.49947 -0.030241 -0.088024 0.53302 -0.044355 -0.090183 0.53026 -0.044358 -0.10332 0.55852 -0.10178 -0.10332 0.55852 -0.10178 -0.023455 0.42971 -0.14645 -0.020601 0.43496 -0.14655 -0.046396 0.44965 -0.086371 -0.048971 0.44523 -0.0863 -0.070208 0.46247 -0.050361 -0.072168 0.45932 -0.050322 -0.090818 0.47264 -0.051674 -0.091915 0.47099 -0.051659 -0.10861 0.4805 -0.085976 -0.10861 0.4805 -0.085976 -0.023752 0.43426 -0.14678 -0.020304 0.43041 -0.14621 -0.0098057 0.44863 -0.090543 -0.01309 0.4516 -0.091038 0.002367 0.46546 -0.056637 -0.00022888 0.46736 -0.056997 0.017303 0.48001 -0.056167 0.01582 0.48086 -0.056357 0.034653 0.49247 -0.084882 0.034653 0.49247 -0.084882 -0.018167 0.43251 -0.14617 -0.025888 0.43216 -0.14683 -0.03097 0.40734 -0.07054 -0.024363 0.40709 -0.069934 -0.032927 0.38028 -0.025154 -0.02817 0.3797 -0.024691 -0.030497 0.34982 -0.026717 -0.027994 0.3493 -0.026459 -0.024426 0.31645 -0.067755 -0.024426 0.31645 -0.067755 -0.026047 0.43435 -0.14699 -0.018009 0.43032 -0.146 -0.0068474 0.47218 -0.071441 -0.013678 0.47574 -0.072292 0.007473 0.51157 -0.036369 0.0025578 0.51422 -0.036988 0.026707 0.5472 -0.058718 0.024105 0.54866 -0.059048 0.049526 0.58011 -0.12298 0.049526 0.58011 -0.12298 -0.024223 0.43431 -0.14683 -0.019833 0.43036 -0.14617 -0.0045033 0.45962 -0.077861 -0.0082035 0.46306 -0.078425 0.01351 0.48688 -0.041812 0.010872 0.48943 -0.04222 0.035679 0.51103 -0.053515 0.034296 0.51241 -0.053732 0.061087 0.53277 -0.10232 0.061087 0.53277 -0.10232 -0.021814 0.43636 -0.14675 -0.022242 0.42831 -0.14624 -0.0023537 0.43143 -0.092158 -0.0011864 0.43824 -0.092518 0.019985 0.43324 -0.062827 0.021399 0.43806 -0.063029 0.045889 0.43274 -0.070085 0.046938 0.43521 -0.07016 0.074656 0.43038 -0.10562 0.074656 0.43038 -0.10562 -0.024534 0.43515 -0.14691 -0.019522 0.42952 -0.14608 0.0027771 0.46115 -0.072335 -0.0017738 0.46573 -0.073052 0.028135 0.49041 -0.036399 0.024656 0.49354 -0.036922 0.058167 0.51599 -0.055543 0.056221 0.51755 -0.055823 0.091593 0.53881 -0.11515 0.091593 0.53881 -0.11515 -0.027018 0.4322 -0.14693 -0.017038 0.43247 -0.14606 -0.025364 0.47134 -0.068268 -0.033907 0.47097 -0.069004 -0.031116 0.50785 -0.024556 -0.037308 0.50748 -0.025082 -0.032551 0.54079 -0.032368 -0.035852 0.54054 -0.032645 -0.030375 0.57075 -0.083041 -0.030375 0.57075 -0.083041 -0.018641 0.43073 -0.14609 -0.025415 0.43394 -0.14691 -0.04224 0.41408 -0.080883 -0.036247 0.41178 -0.080193 -0.05628 0.39235 -0.041875 -0.051821 0.39101 -0.041387 -0.066408 0.36791 -0.043994 -0.063978 0.36737 -0.043741 -0.073238 0.34123 -0.080882 -0.073238 0.34123 -0.080882 -0.0228 0.43632 -0.14684 -0.021255 0.42835 -0.14616 -0.00059128 0.43927 -0.074573 -0.0023689 0.44598 -0.075188 0.022394 0.44862 -0.031312 0.020781 0.45338 -0.03178 0.049015 0.45519 -0.031262 0.047985 0.45767 -0.031523 0.078703 0.45935 -0.068172 0.078703 0.45935 -0.068172 -0.024628 0.43508 -0.14692 -0.019428 0.42959 -0.14608 -0.0097752 0.44843 -0.087863 -0.014229 0.45314 -0.08858 0.0016041 0.46603 -0.051746 -0.001627 0.46944 -0.052266 0.015884 0.48145 -0.049807 0.014158 0.48327 -0.050084 0.032763 0.49492 -0.0783 0.032763 0.49492 -0.0783 -0.69986 0.55494 -0.14844 -0.69122 0.54977 -0.14835 -0.67038 0.58849 -0.054663 -0.67739 0.59353 -0.054781 -0.65091 0.62514 -0.0043831 -0.65567 0.62921 -0.0045007 -0.63309 0.65843 -0.018962 -0.63545 0.66081 -0.019041 -0.6165 0.6891 -0.08544 -0.6165 0.6891 -0.08544 -0.70194 0.55401 -0.14833 -0.68914 0.5507 -0.14845 -0.67795 0.59503 -0.050256 -0.68867 0.59869 -0.050205 -0.66839 0.63716 0.0027767 -0.67595 0.64039 0.0027747 -0.66073 0.67581 -0.011773 -0.66462 0.67783 -0.011794 -0.6545 0.71175 -0.080631 -0.6545 0.71175 -0.080631 -0.69123 0.54892 -0.1483 -0.69985 0.55579 -0.14849 -0.71576 0.53646 -0.05325 -0.70901 0.52985 -0.053035 -0.73232 0.51448 0.0053151 -0.72792 0.50921 0.0055103 -0.75025 0.48882 0.0074798 -0.7482 0.48578 0.007604 -0.76953 0.45993 -0.039608 -0.76953 0.45993 -0.039608 -0.69923 0.5453 -0.1479 -0.69185 0.55941 -0.14889 -0.73761 0.59222 -0.012841 -0.74251 0.57947 -0.011991 -0.78484 0.62059 0.061504 -0.78732 0.611 0.062114 -0.83398 0.64308 0.043647 -0.83471 0.63783 0.043966 -0.88439 0.66089 -0.047852 -0.88439 0.66089 -0.047852 -0.69543 0.54785 -0.14814 -0.69565 0.55686 -0.14865 -0.72733 0.56144 -0.041008 -0.72737 0.55373 -0.040565 -0.76006 0.56325 0.025512 -0.76025 0.55766 0.025837 -0.79441 0.56117 0.028516 -0.7946 0.55819 0.028692 -0.83022 0.55569 -0.024619 -0.83022 0.55569 -0.024619 -0.69925 0.55358 -0.14837 -0.69183 0.55112 -0.14841 -0.6803 0.58701 -0.056276 -0.68683 0.58843 -0.056198 -0.67007 0.6207 -0.0011262 -0.67489 0.62122 -0.0010394 -0.66149 0.65094 -0.0028498 -0.66408 0.65095 -0.0027874 -0.65429 0.67807 -0.054223 -0.65429 0.67807 -0.054223 -0.69062 0.55548 -0.14869 -0.70045 0.54923 -0.14809 -0.67289 0.51855 -0.020328 -0.66406 0.52318 -0.020808 -0.64602 0.48494 0.054735 -0.63936 0.48775 0.054412 -0.62068 0.44665 0.049815 -0.61701 0.44785 0.049658 -0.59663 0.40429 -0.022348 -0.59663 0.40429 -0.022348 -0.70231 0.55198 -0.14821 -0.68877 0.55273 -0.14858 -0.68997 0.62156 -0.023522 -0.70158 0.62108 -0.023213 -0.69342 0.68654 0.0344 -0.70185 0.68632 0.034617 -0.69962 0.74597 -0.0053765 -0.70412 0.74592 -0.0052645 -0.70784 0.80136 -0.11647 -0.70784 0.80136 -0.11647 -0.69989 0.55328 -0.14834 -0.69118 0.55142 -0.14845 -0.67898 0.60633 -0.035546 -0.68641 0.60806 -0.035464 -0.6685 0.65822 0.02249 -0.67387 0.65956 0.022543 -0.66022 0.70554 -0.00073584 -0.66307 0.70631 -0.00071074 -0.65365 0.74934 -0.087096 -0.65365 0.74934 -0.087096 -0.6983 0.55778 -0.14864 -0.69278 0.54693 -0.14815 -0.6583 0.56985 -0.061647 -0.66192 0.57964 -0.062121 -0.62481 0.59104 -0.01732 -0.6266 0.5984 -0.017699 -0.59257 0.60911 -0.035341 -0.59306 0.61313 -0.03556 -0.56109 0.62476 -0.10157 -0.56109 0.62476 -0.10157 -0.70094 0.55416 -0.14837 -0.69014 0.55055 -0.14842 -0.66959 0.61417 -0.027815 -0.67899 0.61674 -0.027734 -0.65116 0.67414 0.0285 -0.65806 0.67562 0.028582 -0.63534 0.72863 -0.0088982 -0.63906 0.72921 -0.0088414 -0.62147 0.77902 -0.11513 -0.62147 0.77902 -0.11513 -0.70196 0.54844 -0.14801 -0.68912 0.55627 -0.14877 -0.71255 0.60692 -0.014092 -0.72343 0.60002 -0.013432 -0.73795 0.65383 0.062669 -0.74576 0.6487 0.063153 -0.76578 0.69544 0.051773 -0.76991 0.69263 0.052034 -0.79561 0.73262 -0.032048 -0.79561 0.73262 -0.032048 -0.68991 0.5528 -0.14856 -0.70117 0.55191 -0.14823 -0.69453 0.51824 -0.034774 -0.68496 0.51973 -0.035091 -0.68849 0.48218 0.032601 -0.68165 0.48377 0.032343 -0.68389 0.44239 0.02991 -0.68031 0.44351 0.029759 -0.68056 0.39953 -0.03201 -0.68056 0.39953 -0.03201 -0.69955 0.55698 -0.14856 -0.69153 0.54773 -0.14823 -0.65821 0.58277 -0.032075 -0.66559 0.59021 -0.032322 -0.62658 0.61536 0.035922 -0.63228 0.62038 0.035772 -0.59713 0.6438 0.030413 -0.60035 0.64627 0.03035 -0.56958 0.66859 -0.037959 -0.56958 0.66859 -0.037959 -0.70101 0.554 -0.14835 -0.69007 0.55071 -0.14843 -0.67956 0.58698 -0.051795 -0.68893 0.58979 -0.051729 -0.67047 0.62124 0.0072879 -0.67726 0.62328 0.0073361 -0.66308 0.65226 0.0082271 -0.66671 0.65334 0.0082529 -0.65718 0.68037 -0.04261 -0.65718 0.68037 -0.04261 0.64047 0.33685 -0.14593 0.63402 0.33901 -0.14551 0.62931 0.30595 -0.056084 0.63484 0.30414 -0.056446 0.62115 0.27008 -0.010422 0.62517 0.26879 -0.010687 0.60767 0.23016 -0.028721 0.60982 0.22949 -0.028864 0.59026 0.18725 -0.094513 0.59026 0.18725 -0.094513 0.63882 0.3409 -0.14604 0.63567 0.33496 -0.1454 0.66485 0.32653 -0.085355 0.66783 0.33146 -0.085919 0.69171 0.31649 -0.05499 0.69407 0.31993 -0.055408 0.71501 0.30381 -0.068386 0.71637 0.30557 -0.068613 0.73561 0.28908 -0.11534 0.73561 0.28908 -0.11534 0.63596 0.33536 -0.14545 0.63852 0.3405 -0.14599 0.61349 0.3603 -0.07162 0.61087 0.35613 -0.071135 0.58498 0.37755 -0.034994 0.58278 0.37474 -0.03463 0.55151 0.39132 -0.053359 0.5502 0.38994 -0.053161 0.51437 0.40261 -0.11199 0.51437 0.40261 -0.11199 0.6347 0.33641 -0.14541 0.63978 0.33945 -0.14603 0.63024 0.3676 -0.082644 0.62598 0.36486 -0.082107 0.61782 0.39363 -0.050235 0.6148 0.39155 -0.049845 0.60138 0.41668 -0.063489 0.5998 0.41552 -0.063281 0.58188 0.43743 -0.11157 0.58188 0.43743 -0.11157 0.63511 0.33817 -0.14555 0.63938 0.33769 -0.14589 0.64585 0.35927 -0.090843 0.64219 0.35963 -0.090551 0.65029 0.37953 -0.057096 0.64763 0.37974 -0.05688 0.65178 0.39772 -0.056383 0.65036 0.3978 -0.056267 0.65064 0.41404 -0.085209 0.65064 0.41404 -0.085209 0.63952 0.3399 -0.14604 0.63496 0.33596 -0.1454 0.66314 0.31688 -0.066168 0.6669 0.32041 -0.066712 0.68841 0.2958 -0.022719 0.69104 0.29847 -0.023111 0.70917 0.27154 -0.032769 0.71052 0.27302 -0.032977 0.72628 0.24474 -0.085767 0.72628 0.24474 -0.085767 0.6402 0.33721 -0.14593 0.63428 0.33865 -0.14551 0.63455 0.31444 -0.065222 0.63954 0.31291 -0.065555 0.63217 0.28797 -0.018767 0.63572 0.28665 -0.018989 0.62555 0.25816 -0.023254 0.6274 0.25735 -0.023362 0.61541 0.2256 -0.069536 0.61541 0.2256 -0.069536 0.63428 0.34091 -0.14565 0.64021 0.33495 -0.14579 0.66541 0.35958 -0.086753 0.65989 0.36419 -0.086566 0.68754 0.38242 -0.058725 0.68324 0.38537 -0.058541 0.70545 0.40239 -0.076173 0.70302 0.40375 -0.076049 0.72014 0.42011 -0.12774 0.72014 0.42011 -0.12774 0.64074 0.33866 -0.14607 0.63375 0.3372 -0.14537 0.64659 0.31256 -0.073118 0.65243 0.31438 -0.073733 0.65692 0.2861 -0.033675 0.66101 0.28782 -0.034133 0.66319 0.25685 -0.043032 0.66527 0.25797 -0.04328 0.66619 0.22545 -0.090916 0.66619 0.22545 -0.090916 0.63689 0.33535 -0.14553 0.63759 0.34051 -0.14591 0.62189 0.34716 -0.07996 0.62176 0.34269 -0.07967 0.60415 0.35198 -0.038765 0.6044 0.34875 -0.038584 0.58329 0.35428 -0.03582 0.5836 0.35257 -0.035741 0.55971 0.35437 -0.06671 0.55971 0.35437 -0.06671 -3.8638 0.72544 -0.15215 -3.8568 0.73076 -0.15113 -3.8876 0.75579 -0.069162 -3.8939 0.75176 -0.070077 -3.9135 0.78115 -0.02535 -3.9183 0.77862 -0.026038 -3.9319 0.8072 -0.038502 -3.9345 0.80607 -0.03888 -3.9442 0.83391 -0.097231 -3.9442 0.83391 -0.097231 -3.8638 0.72346 -0.15217 -3.8568 0.73275 -0.1511 -3.8956 0.75159 -0.066221 -3.9021 0.74409 -0.067206 -3.9294 0.77056 -0.021051 -3.9345 0.76549 -0.021813 -3.9554 0.79013 -0.035251 -3.9583 0.78764 -0.03568 -3.9751 0.81029 -0.097158 -3.9751 0.81029 -0.097158 -3.8562 0.73047 -0.15104 -3.8644 0.72574 -0.15224 -3.8631 0.70189 -0.068765 -3.8557 0.7052 -0.067703 -3.8568 0.67843 -0.017441 -3.8512 0.68027 -0.016651 -3.8433 0.65539 -0.015607 -3.8402 0.65605 -0.015179 -3.8236 0.63258 -0.057001 -3.8236 0.63258 -0.057001 -3.8561 0.72277 -0.15113 -3.8644 0.73343 -0.15215 -3.9171 0.70048 -0.037859 -3.909 0.69229 -0.036833 -3.9616 0.66788 0.022313 -3.9551 0.66269 0.023155 -3.9943 0.63626 0.0016009 -3.9905 0.63394 0.0020962 -4.0175 0.60565 -0.083699 -4.0175 0.60565 -0.083699 -3.8568 0.72671 -0.15117 -3.8638 0.7295 -0.15211 -3.8874 0.7001 -0.060211 -3.8815 0.69753 -0.059423 -3.9057 0.67093 -0.0043985 -3.9015 0.66893 -0.0038363 -3.9161 0.64226 -0.0043392 -3.9139 0.64112 -0.0040446 -3.9196 0.614 -0.053562 -3.9196 0.614 -0.053562 -3.8625 0.7255 -0.15197 -3.8581 0.73071 -0.1513 -3.8897 0.74735 -0.071279 -3.893 0.74251 -0.071796 -3.9169 0.764 -0.023757 -3.919 0.76026 -0.024085 -3.9372 0.78094 -0.026173 -3.9381 0.77884 -0.026321 -3.9513 0.79815 -0.072178 -3.9513 0.79815 -0.072178 -3.861 0.73312 -0.15168 -3.8596 0.72308 -0.1516 -3.8373 0.7292 -0.035539 -3.8379 0.73789 -0.035511 -3.8086 0.73635 0.034292 -3.8084 0.74268 0.034383 -3.7699 0.74459 0.033944 -3.7695 0.74796 0.03403 -3.7227 0.75371 -0.025399 -3.7227 0.75371 -0.025399 -3.8623 0.72248 -0.15198 -3.8582 0.73373 -0.15129 -3.9225 0.74923 -0.045045 -3.9261 0.73965 -0.045657 -3.9788 0.7649 0.0022154 -3.9816 0.75799 0.0017579 -4.0235 0.78126 -0.036325 -4.025 0.7776 -0.036576 -4.0596 0.79812 -0.1375 -4.0596 0.79812 -0.1375 -3.8625 0.72487 -0.15198 -3.8581 0.73133 -0.15129 -3.906 0.75374 -0.05396 -3.9098 0.74827 -0.05456 -3.9474 0.77641 -0.0048279 -3.9503 0.7725 -0.0052714 -3.9791 0.79974 -0.027058 -3.9807 0.79768 -0.027299 -4.0033 0.8236 -0.10473 -4.0033 0.8236 -0.10473 -3.8654 0.72766 -0.15235 -3.8552 0.72855 -0.15092 -3.8684 0.75982 -0.073385 -3.8772 0.76012 -0.074594 -3.8771 0.79176 -0.032904 -3.8834 0.79275 -0.03376 -3.8785 0.8247 -0.04716 -3.8817 0.82563 -0.047599 -3.8741 0.85855 -0.10372 -3.8741 0.85855 -0.10372 -3.8635 0.72431 -0.15213 -3.857 0.73189 -0.15115 -3.9095 0.76354 -0.046838 -3.9147 0.75676 -0.047637 -3.9543 0.7954 0.00098394 -3.9578 0.79028 0.0004387 -3.9877 0.82788 -0.033485 -3.9895 0.82505 -0.033757 -4.0128 0.86077 -0.1284 -4.0128 0.86077 -0.1284 -3.8595 0.7216 -0.1516 -3.8611 0.73461 -0.15167 -3.9198 0.72567 -0.037762 -3.9182 0.71456 -0.037675 -3.9713 0.71672 0.025279 -3.97 0.70869 0.025361 -4.012 0.70831 0.011357 -4.0113 0.70403 0.01141 -4.0438 0.70036 -0.066589 -4.0438 0.70036 -0.066589 -3.8587 0.73282 -0.15136 -3.8619 0.72338 -0.15191 -3.8433 0.71225 -0.049915 -3.8411 0.72051 -0.049522 -3.8191 0.70207 0.011655 -3.818 0.70815 0.011881 -3.7866 0.69291 0.011721 -3.7862 0.69618 0.01181 -3.747 0.68457 -0.040214 -3.747 0.68457 -0.040214 -3.8652 0.72637 -0.15234 -3.8553 0.72983 -0.15094 -3.8809 0.7627 -0.048057 -3.8892 0.75916 -0.04924 -3.9011 0.79572 0.01249 -3.9069 0.79275 0.011652 -3.9125 0.82917 0.008474 -3.9155 0.82738 0.0080383 -3.9163 0.86294 -0.050756 -3.9163 0.86294 -0.050756 -3.8634 0.7242 -0.15212 -3.8571 0.732 -0.15116 -3.8898 0.74772 -0.067281 -3.8952 0.74104 -0.068103 -3.9182 0.76345 -0.01642 -3.9221 0.7586 -0.017015 -3.9397 0.77955 -0.01663 -3.9418 0.77696 -0.016948 -3.9551 0.796 -0.062316 -3.9551 0.796 -0.062316 1.4304 -1.3368 -0.094142 1.4361 -1.337 -0.096831 1.4367 -1.3395 -0.097139 1.4351 -1.343 -0.096353 1.4317 -1.3466 -0.094943 1.4255 -1.3502 -0.093067 1.4168 -1.3527 -0.09148 1.4072 -1.3528 -0.090781 1.3999 -1.3506 -0.090693 1.3959 -1.3463 -0.090459 1.3972 -1.3406 -0.089719 1.4025 -1.3351 -0.089053 1.4109 -1.3304 -0.089305 1.4196 -1.3279 -0.090893 1.4267 -1.3277 -0.093098 1.4314 -1.3288 -0.094967 1.4344 -1.3308 -0.096286 1.4351 -1.3333 -0.096472 1.4293 -1.3395 -0.068894 1.4264 -1.3323 -0.072633 1.4293 -1.329 -0.072363 1.4347 -1.3274 -0.070302 1.4414 -1.3279 -0.067355 1.4499 -1.3317 -0.063833 1.4589 -1.3396 -0.0612 1.4658 -1.3509 -0.060599 1.4681 -1.3618 -0.061465 1.4653 -1.3709 -0.062544 1.4567 -1.3752 -0.063013 1.4455 -1.3747 -0.063343 1.4334 -1.3696 -0.064655 1.4245 -1.3616 -0.067286 1.4198 -1.3534 -0.070286 1.4185 -1.3465 -0.072503 1.4193 -1.3407 -0.073719 1.4222 -1.3373 -0.073203 1.4279 -1.3423 -0.043657 1.4246 -1.3489 -0.053555 1.4188 -1.3494 -0.053795 1.4121 -1.3472 -0.04979 1.406 -1.3427 -0.042802 1.4009 -1.3346 -0.032 1.3993 -1.3229 -0.018893 1.4028 -1.3099 -0.0064866 1.4104 -1.3 0.0016062 1.4213 -1.2949 0.0051286 1.4332 -1.2974 0.0022263 1.4432 -1.3054 -0.0053871 1.4502 -1.3173 -0.017509 1.4518 -1.3289 -0.030617 1.4492 -1.3379 -0.041627 1.4446 -1.3436 -0.048908 1.4388 -1.3472 -0.053252 1.433 -1.348 -0.053326 1.4261 -1.3451 -0.018432 1.4316 -1.3407 -0.023617 1.4348 -1.3426 -0.023832 1.4368 -1.3473 -0.021807 1.4372 -1.3536 -0.018431 1.435 -1.3625 -0.013757 1.4291 -1.3728 -0.009123 1.4199 -1.3821 -0.0059358 1.4105 -1.387 -0.0045146 1.4022 -1.3866 -0.0039183 1.3979 -1.3796 -0.0039579 1.3976 -1.3689 -0.0049486 1.4011 -1.3562 -0.0078803 1.407 -1.3459 -0.012515 1.4134 -1.3395 -0.017376 1.4189 -1.3367 -0.021015 1.4238 -1.3361 -0.023344 1.427 -1.338 -0.023411 1.424 -1.348 0.0067809 1.4161 -1.3462 -0.00075272 1.4142 -1.341 -0.00037077 1.415 -1.3347 0.0034705 1.4183 -1.3284 0.0095553 1.4255 -1.3223 0.018345 1.437 -1.3186 0.028242 1.451 -1.3191 0.036732 1.4628 -1.3238 0.041519 1.4706 -1.3326 0.042785 1.4709 -1.3439 0.039609 1.4654 -1.3546 0.033345 1.4551 -1.3633 0.023979 1.4436 -1.367 0.014084 1.4336 -1.3663 0.0059378 1.4265 -1.3632 0.00075304 1.4213 -1.3586 -0.0020439 1.4191 -1.3536 -0.0014565 1.4217 -1.351 0.031985 1.4275 -1.3563 0.028843 1.4259 -1.3607 0.028219 1.4211 -1.3645 0.028743 1.4143 -1.367 0.029939 1.4047 -1.3671 0.031611 1.3936 -1.3634 0.033003 1.3836 -1.3555 0.033566 1.3782 -1.346 0.0337 1.3779 -1.3361 0.034257 1.3842 -1.3285 0.035576 1.3944 -1.3245 0.036893 1.4071 -1.3244 0.03719 1.4182 -1.3281 0.035797 1.4258 -1.3338 0.033493 1.4298 -1.3396 0.031413 1.4312 -1.3454 0.029862 1.4297 -1.3498 0.029534 1.419 -1.354 0.057173 1.4202 -1.3484 0.053833 1.4236 -1.3475 0.053889 1.4279 -1.3487 0.05544 1.432 -1.3518 0.057891 1.4359 -1.3575 0.061276 1.4381 -1.3659 0.064742 1.4373 -1.3754 0.067283 1.4337 -1.3829 0.068441 1.4277 -1.3873 0.068646 1.4203 -1.3866 0.067846 1.4135 -1.382 0.066228 1.4081 -1.3742 0.063414 1.406 -1.3659 0.059948 1.4066 -1.3589 0.056764 1.4088 -1.3541 0.054594 1.4119 -1.3508 0.053368 1.4153 -1.3498 0.053614 1.416 -1.3571 0.082355 1.4132 -1.3603 0.079915 1.4113 -1.3595 0.079915 1.4099 -1.3571 0.081017 1.4092 -1.3535 0.082729 1.4099 -1.3482 0.084941 1.4124 -1.3417 0.086879 1.4167 -1.3356 0.087853 1.4215 -1.3318 0.087965 1.426 -1.3312 0.087842 1.429 -1.3347 0.087793 1.43 -1.3406 0.087549 1.4292 -1.3481 0.086496 1.4267 -1.3546 0.084558 1.4235 -1.3589 0.082404 1.4206 -1.3612 0.080772 1.4179 -1.362 0.079765 1.4159 -1.3613 0.079852 1.4126 -1.3603 0.10752 1.417 -1.3591 0.10435 1.4182 -1.3611 0.10413 1.4179 -1.3642 0.10524 1.4162 -1.368 0.1072 1.4124 -1.3724 0.11005 1.4062 -1.3766 0.11312 1.3986 -1.3792 0.11558 1.3922 -1.3793 0.11697 1.3879 -1.3768 0.1177 1.3875 -1.3718 0.11766 1.3903 -1.3659 0.11679 1.3957 -1.3599 0.11465 1.4018 -1.3557 0.11158 1.4073 -1.3538 0.1085 1.4112 -1.3536 0.10622 1.414 -1.3545 0.10474 1.4153 -1.3564 0.10461 1.1628 -1.1567 -0.11108 1.1581 -1.1626 -0.11307 1.1517 -1.1596 -0.11236 1.1487 -1.1518 -0.1105 1.1525 -1.1437 -0.10898 1.1612 -1.1401 -0.10839 1.1705 -1.1431 -0.10889 1.1758 -1.1509 -0.11036 1.1744 -1.1588 -0.11224 1.1686 -1.1622 -0.11302 1.1468 -1.1363 -0.10063 1.154 -1.1404 -0.10295 1.152 -1.1469 -0.10199 1.1444 -1.1504 -0.099625 1.135 -1.1474 -0.097655 1.1295 -1.1391 -0.096951 1.1308 -1.1297 -0.09772 1.1382 -1.1239 -0.099723 1.1468 -1.1248 -0.10207 1.1516 -1.1302 -0.10299 1.1309 -1.1159 -0.10076 1.1248 -1.1195 -0.1039 1.1197 -1.1152 -0.10253 1.1192 -1.1079 -0.09907 1.125 -1.1019 -0.095873 1.1342 -1.1013 -0.0946 1.1421 -1.1064 -0.095773 1.1448 -1.1146 -0.09892 1.1411 -1.1208 -0.1024 1.1347 -1.1221 -0.10385 1.1595 -1.1657 -0.11107 1.1631 -1.1703 -0.1128 1.1599 -1.174 -0.11208 1.1537 -1.1743 -0.11033 1.1483 -1.1698 -0.10885 1.147 -1.163 -0.1083 1.1506 -1.1573 -0.10887 1.1572 -1.1555 -0.11036 1.1628 -1.1583 -0.11211 1.1644 -1.1631 -0.11281 1.1411 -1.1519 -0.10062 1.1424 -1.1579 -0.10229 1.1373 -1.1599 -0.10165 1.1311 -1.1572 -0.10004 1.1279 -1.1505 -0.098711 1.13 -1.1435 -0.098219 1.1365 -1.1398 -0.098693 1.1441 -1.1412 -0.10001 1.1482 -1.1465 -0.10162 1.1474 -1.1518 -0.10227 1.2045 -1.1698 -0.11083 1.2016 -1.1743 -0.11231 1.1968 -1.1726 -0.11177 1.1941 -1.1672 -0.11037 1.1962 -1.1611 -0.10921 1.2022 -1.158 -0.10876 1.2091 -1.1595 -0.10915 1.2134 -1.1648 -0.11028 1.2129 -1.1706 -0.11169 1.209 -1.1734 -0.11228 1.2187 -1.1589 -0.1002 1.2142 -1.1655 -0.10432 1.2067 -1.1633 -0.10245 1.2023 -1.1558 -0.09778 1.2055 -1.1467 -0.093404 1.2147 -1.1418 -0.091664 1.2256 -1.1435 -0.093307 1.2325 -1.151 -0.097635 1.2319 -1.1593 -0.10233 1.2258 -1.1636 -0.10426 1.233 -1.148 -0.10015 1.2242 -1.1448 -0.10427 1.2244 -1.1367 -0.10244 1.2316 -1.1309 -0.097857 1.2427 -1.1323 -0.093613 1.251 -1.1407 -0.091932 1.2523 -1.152 -0.093514 1.246 -1.1605 -0.097709 1.2364 -1.1614 -0.10232 1.2297 -1.1562 -0.10422 1.1656 -1.1714 -0.11103 1.1716 -1.177 -0.1139 1.1681 -1.183 -0.11264 1.1598 -1.1847 -0.10955 1.1512 -1.1796 -0.10683 1.1478 -1.1702 -0.10582 1.1514 -1.1613 -0.10688 1.16 -1.1573 -0.10962 1.1683 -1.1601 -0.1127 1.1717 -1.1665 -0.11393 1.1517 -1.1616 -0.10054 1.154 -1.1712 -0.10244 1.1459 -1.1743 -0.10184 1.1358 -1.17 -0.10029 1.1307 -1.1592 -0.099216 1.134 -1.1482 -0.098852 1.1443 -1.1424 -0.099187 1.1563 -1.1447 -0.10025 1.163 -1.1531 -0.1018 1.1618 -1.1614 -0.10242 1.1978 -1.2136 -0.11076 1.191 -1.206 -0.11532 1.1957 -1.1987 -0.11325 1.2061 -1.197 -0.10814 1.2163 -1.204 -0.10342 1.2197 -1.2162 -0.10157 1.2146 -1.2273 -0.10337 1.2037 -1.2319 -0.10807 1.1937 -1.2278 -0.11319 1.1901 -1.2195 -0.11529 1.2072 -1.2344 -0.10007 1.2148 -1.2341 -0.10142 1.2167 -1.2403 -0.10095 1.2127 -1.2468 -0.099835 1.2041 -1.2489 -0.099112 1.1957 -1.245 -0.098919 1.1919 -1.2369 -0.099205 1.1944 -1.2287 -0.099975 1.2013 -1.2252 -0.10107 1.2077 -1.2272 -0.10147</float_array><technique_common><accessor source="#weeds_-03-01_foliage-pos-a" count="932" stride="3"><param name="X" type="float"/><param name="Y" type="float"/><param name="Z" type="float"/></accessor></technique_common></source>
        <source id="weeds_-03-01_foliage-nrm"><float_array id="weeds_-03-01_foliage-nrm-a" count="4752">-0.72 0.529 0.45 -0.643 0.483 0.594 -0.644 0.483 0.593 -0.105 0.139 0.985 -0.112 0.144 0.983 0.551 -0.318 0.772 0.547 -0.316 0.775 0.702 -0.432 0.567 -0.639 -0.593 0.489 -0.596 -0.519 0.613 -0.594 -0.515 0.618 -0.167 -0.115 0.979 -0.109 -0.065 0.992 0.495 0.401 0.771 0.527 0.42 0.739 0.687 0.515 0.513 0.636 0.638 0.434 0.593 0.559 0.58 0.589 0.552 0.59 0.149 0.194 0.97 0.038 0.113 0.993 -0.542 -0.291 0.789 -0.59 -0.316 0.743 -0.729 -0.388 0.564 0.868 0.259 0.424 0.788 0.256 0.56 0.79 0.256 0.557 0.186 0.101 0.977 0.225 0.113 0.968 -0.587 -0.165 0.792 -0.568 -0.157 0.808 -0.776 -0.249 0.58 0.873 -0.339 0.35 0.845 -0.314 0.433 0.845 -0.314 0.432 0.497 -0.141 0.856 0.51 -0.147 0.848 -0.358 0.186 0.915 -0.333 0.177 0.926 -0.747 0.307 0.59 -0.817 -0.364 0.447 -0.752 -0.344 0.563 -0.754 -0.344 0.56 -0.231 -0.065 0.971 -0.273 -0.088 0.958 0.512 0.342 0.788 0.483 0.326 0.812 0.716 0.456 0.529 -0.776 0.503 0.382 -0.716 0.499 0.488 -0.714 0.499 0.492 -0.299 0.262 0.918 -0.243 0.224 0.944 0.403 -0.274 0.873 0.446 -0.313 0.838 0.638 -0.498 0.587 0.461 -0.735 0.498 0.445 -0.633 0.634 0.446 -0.64 0.626 0.058 -0.045 0.997 0.136 -0.147 0.98 -0.453 0.532 0.715 -0.412 0.498 0.764 -0.583 0.632 0.511 -0.899 0.058 0.435 -0.828 0.027 0.56 -0.833 0.029 0.553 -0.192 0.063 0.979 -0.313 0.051 0.948 0.631 0.163 0.759 0.559 0.149 0.816 0.827 0.201 0.525 0.352 0.889 0.294 0.297 0.875 0.383 0.3 0.876 0.378 0.135 0.495 0.858 0.16 0.58 0.799 -0.04 -0.438 0.898 -0.021 -0.279 0.96 -0.082 -0.78 0.62 -0.846 -0.39 0.363 -0.817 -0.328 0.475 -0.815 -0.324 0.481 -0.401 -0.083 0.912 -0.306 -0.042 0.951 0.451 0.208 0.868 0.524 0.221 0.823 0.759 0.255 0.599 -0.696 -0.604 0.389 -0.682 -0.536 0.497 -0.681 -0.532 0.502 -0.35 -0.171 0.921 -0.28 -0.111 0.954 0.375 0.357 0.856 0.434 0.387 0.813 0.653 0.49 0.578 0.852 0.33 0.406 0.822 0.286 0.492 0.82 0.284 0.497 0.447 0.183 0.876 0.351 0.164 0.922 -0.451 0.034 0.892 -0.584 0.018 0.812 -0.871 -0.027 0.49 0.488 -0.713 0.503 0.476 -0.627 0.616 0.478 -0.634 0.609 0.046 -0.113 0.993 0.15 -0.223 0.963 -0.565 0.452 0.69 -0.493 0.4 0.772 -0.711 0.553 0.435 0.785 -0.433 0.443 0.741 -0.42 0.524 0.74 -0.42 0.525 0.373 -0.211 0.903 0.349 -0.197 0.916 -0.404 0.277 0.872 -0.439 0.3 0.847 -0.725 0.486 0.487 -0.697 -0.634 0.335 -0.645 -0.632 0.43 -0.648 -0.632 0.425 -0.358 -0.276 0.892 -0.415 -0.355 0.838 0.183 0.505 0.843 0.104 0.385 0.917 0.365 0.753 0.547 -0.034 0.95 0.31 -0.01 0.911 0.413 -0.009 0.908 0.418 -0.049 0.506 0.861 -0.061 0.418 0.906 -0.17 -0.392 0.904 -0.186 -0.486 0.854 -0.222 -0.772 0.595 -0.444 -0.751 0.489 -0.417 -0.653 0.632 -0.417 -0.652 0.634 -0.147 -0.053 0.988 -0.138 -0.035 0.99 0.258 0.632 0.731 0.262 0.638 0.724 0.364 0.77 0.524 -0.646 -0.638 0.419 -0.613 -0.572 0.544 -0.613 -0.572 0.546 -0.253 -0.117 0.96 -0.237 -0.1 0.966 0.354 0.484 0.8 0.364 0.492 0.791 0.54 0.628 0.561 -0.932 0.12 0.343 -0.869 0.161 0.467 -0.863 0.164 0.477 -0.393 0.11 0.913 -0.243 0.073 0.967 0.477 -0.157 0.865 0.556 -0.198 0.807 0.734 -0.293 0.613 -0.685 -0.573 0.451 -0.615 -0.51 0.601 -0.618 -0.513 0.596 -0.165 0.009 0.986 -0.215 -0.048 0.975 0.369 0.576 0.73 0.349 0.554 0.755 0.481 0.694 0.536 -0.008 -0.895 0.446 -0.012 -0.837 0.546 -0.012 -0.838 0.545 -0.067 -0.306 0.95 -0.066 -0.326 0.943 -0.111 0.581 0.806 -0.111 0.564 0.818 -0.108 0.858 0.503 0.337 0.876 0.346 0.281 0.851 0.443 0.284 0.852 0.439 0.047 0.414 0.909 0.076 0.486 0.87 -0.196 -0.468 0.862 -0.182 -0.381 0.906 -0.232 -0.767 0.598 -0.937 -0.186 0.296 -0.897 -0.196 0.397 -0.898 -0.196 0.393 -0.47 -0.053 0.881 -0.533 -0.075 0.843 0.4 0.257 0.88 0.32 0.228 0.92 0.707 0.358 0.609 -0.712 -0.625 0.32 -0.694 -0.596 0.404 -0.459 -0.308 0.833 0.201 0.331 0.922 0.534 0.597 0.599 -0.498 -0.755 0.427 -0.494 -0.689 0.53 -0.493 -0.685 0.536 -0.204 -0.262 0.943 -0.131 -0.17 0.977 0.433 0.469 0.769 0.483 0.513 0.709 0.627 0.636 0.45 -0.255 -0.868 0.425 -0.265 -0.806 0.529 -0.266 -0.803 0.534 -0.106 -0.318 0.942 -0.067 -0.222 0.973 0.282 0.569 0.773 0.312 0.622 0.719 0.41 0.793 0.451 0.633 0.729 0.259 0.645 0.684 0.341 0.646 0.681 0.345 0.445 0.444 0.777 0.376 0.382 0.844 -0.318 -0.177 0.931 -0.441 -0.263 0.858 -0.696 -0.449 0.56 0.854 -0.366 0.37 0.826 -0.295 0.48 0.829 -0.3 0.472 0.254 -0.045 0.966 0.407 -0.094 0.909 -0.661 0.148 0.735 -0.565 0.143 0.813 -0.853 0.15 0.499 0.959 0.027 0.282 0.932 0.019 0.362 0.931 0.019 0.363 0.593 0.036 0.805 0.566 0.037 0.823 -0.409 0.08 0.909 -0.455 0.082 0.887 -0.83 0.085 0.551 -0.246 -0.894 0.375 -0.191 -0.869 0.457 -0.194 -0.87 0.453 -0.059 -0.421 0.905 -0.077 -0.523 0.849 0.021 0.608 0.794 0.022 0.462 0.887 0.014 0.883 0.468 -0.467 0.831 0.303 -0.416 0.819 0.395 -0.414 0.818 0.399 -0.197 0.488 0.85 -0.155 0.404 0.901 0.183 -0.428 0.885 0.21 -0.522 0.827 0.28 -0.784 0.554 0.056 -0.874 0.482 0.05 -0.782 0.621 0.05 -0.781 0.623 0.034 -0.093 0.995 0.033 -0.07 0.997 0.006 0.746 0.666 0.006 0.753 0.658 0.001 0.895 0.446 -0.189 -0.875 0.446 -0.179 -0.806 0.564 -0.179 -0.805 0.565 -0.037 -0.213 0.976 -0.031 -0.188 0.982 0.184 0.669 0.72 0.187 0.68 0.709 0.236 0.859 0.454 -0.833 -0.348 0.431 -0.792 -0.28 0.542 -0.788 -0.274 0.551 -0.303 -0.072 0.95 -0.132 -0.024 0.991 0.649 0.139 0.748 0.726 0.139 0.673 0.883 0.133 0.451 -0.253 -0.838 0.483 -0.206 -0.755 0.622 -0.208 -0.759 0.617 -0.018 -0.043 0.999 -0.037 -0.126 0.991 0.137 0.751 0.646 0.135 0.725 0.675 0.146 0.886 0.439 0.505 -0.776 0.379 0.49 -0.731 0.475 0.49 -0.731 0.474 0.243 -0.292 0.925 0.253 -0.31 0.917 -0.302 0.519 0.8 -0.291 0.505 0.813 -0.469 0.734 0.492 -0.1 0.953 0.285 -0.124 0.915 0.383 -0.123 0.917 0.379 -0.05 0.458 0.888 -0.067 0.537 0.841 0.192 -0.511 0.838 0.167 -0.425 0.89 0.269 -0.785 0.558 -0.686 -0.62 0.381 -0.638 -0.61 0.47 -0.64 -0.611 0.467 -0.289 -0.27 0.918 -0.339 -0.325 0.883 0.363 0.491 0.792 0.313 0.426 0.849 0.532 0.705 0.47 -0.266 -0.893 0.364 -0.255 -0.861 0.44 -0.145 -0.502 0.853 -0.145 -0.502 0.852 0.145 0.462 0.875 0.253 0.834 0.491 0.315 0.885 0.343 0.3 0.819 0.489 0.301 0.819 0.488 0.135 0.216 0.967 0.138 0.225 0.964 -0.143 -0.619 0.772 -0.142 -0.616 0.775 -0.209 -0.793 0.572 -0.761 0.478 0.439 -0.683 0.471 0.558 -0.68 0.47 0.562 -0.159 0.2 0.967 -0.088 0.154 0.984 0.582 -0.345 0.736 0.608 -0.371 0.702 0.724 -0.5 0.475 0.822 -0.414 0.39 0.748 -0.395 0.534 0.741 -0.393 0.544 0.276 -0.042 0.96 0.154 0.053 0.987 -0.452 0.51 0.732 -0.489 0.544 0.682 -0.591 0.636 0.497 0.516 -0.752 0.41 0.5 -0.679 0.538 0.501 -0.68 0.535 0.188 -0.111 0.976 0.213 -0.15 0.965 -0.337 0.597 0.728 -0.324 0.582 0.746 -0.468 0.727 0.503 -0.069 -0.926 0.371 -0.052 -0.894 0.445 0.024 -0.516 0.856 0.022 -0.531 0.847 0.1 0.492 0.865 0.1 0.464 0.88 0.093 0.868 0.488 -0.588 0.715 0.38 -0.554 0.672 0.492 -0.555 0.673 0.489 -0.126 0.283 0.951 -0.164 0.32 0.933 0.529 -0.38 0.759 0.506 -0.356 0.786 0.676 -0.547 0.494 0.27 0.922 0.279 0.288 0.878 0.382 0.289 0.876 0.386 0.2 0.454 0.868 0.179 0.386 0.905 -0.145 -0.459 0.877 -0.172 -0.514 0.841 -0.295 -0.75 0.592 -0.576 -0.641 0.508 -0.487 -0.599 0.636 -0.494 -0.602 0.628 -0.011 -0.02 1 -0.096 -0.137 0.986 0.417 0.665 0.62 0.399 0.62 0.675 0.462 0.79 0.403 -0.199 0.918 0.344 -0.21 0.858 0.468 -0.21 0.862 0.461 0.024 0.284 0.958 -0.028 0.406 0.913 0.376 -0.557 0.741 0.344 -0.49 0.801 0.454 -0.732 0.508 0.97 -0.068 0.234 0.949 -0.014 0.314 0.951 -0.017 0.31 0.581 0.062 0.812 0.669 0.058 0.741 -0.457 -0.045 0.889 -0.288 -0.011 0.958 -0.79 -0.117 0.602 0.482 -0.769 0.42 0.414 -0.749 0.517 0.411 -0.747 0.523 0.087 -0.349 0.933 0.025 -0.247 0.969 -0.352 0.543 0.762 -0.369 0.609 0.702 -0.405 0.797 0.448 0.672 -0.593 0.443 0.604 -0.587 0.539 0.601 -0.586 0.544 0.179 -0.281 0.943 0.1 -0.209 0.973 -0.503 0.444 0.741 -0.535 0.494 0.685 -0.628 0.659 0.415 -0.47 0.845 0.254 -0.431 0.836 0.339 -0.429 0.836 0.343 -0.326 0.544 0.773 -0.299 0.453 0.84 -0.036 -0.418 0.908 0.006 -0.56 0.828 0.113 -0.847 0.52 0.642 0.609 0.466 0.555 0.607 0.568 0.562 0.608 0.561 0.052 0.159 0.986 0.164 0.283 0.945 -0.463 -0.589 0.662 -0.429 -0.506 0.748 -0.517 -0.751 0.41 0.316 0.877 0.363 0.306 0.844 0.44 0.306 0.843 0.442 0.12 0.514 0.85 0.106 0.489 0.866 -0.317 -0.395 0.862 -0.334 -0.436 0.835 -0.451 -0.76 0.468 0.702 -0.592 0.397 0.693 -0.539 0.479 0.694 -0.542 0.474 0.297 -0.277 0.914 0.39 -0.331 0.859 -0.64 0.222 0.736 -0.513 0.16 0.843 -0.856 0.339 0.389 -0.976 -0.099 0.195 -0.955 -0.064 0.289 -0.954 -0.062 0.293 -0.618 -0.027 0.786 -0.529 -0.027 0.848 0.398 -0.059 0.916 0.5 -0.069 0.863 0.787 -0.096 0.61 0.787 -0.325 0.524 0.692 -0.303 0.655 0.691 -0.303 0.656 0.012 -0.065 0.998 -0.011 -0.056 0.998 -0.758 0.27 0.594 -0.764 0.273 0.585 -0.869 0.334 0.366 0.7 -0.539 0.469 0.633 -0.512 0.58 0.632 -0.512 0.581 0.102 -0.178 0.979 0.08 -0.162 0.984 -0.627 0.397 0.67 -0.635 0.405 0.658 -0.751 0.528 0.396 -0.023 -0.926 0.376 -0.083 -0.87 0.486 -0.089 -0.865 0.495 -0.133 -0.363 0.922 -0.118 -0.189 0.975 0.047 0.612 0.79 0.083 0.687 0.722 0.17 0.84 0.516 0.641 -0.585 0.497 0.573 -0.521 0.633 0.576 -0.524 0.628 -0.057 -0.092 0.994 0.017 -0.143 0.99 -0.711 0.39 0.585 -0.692 0.377 0.616 -0.807 0.459 0.372 0.879 0.117 0.461 0.826 0.117 0.552 0.826 0.117 0.551 0.289 0.049 0.956 0.31 0.052 0.949 -0.681 -0.107 0.724 -0.666 -0.104 0.739 -0.91 -0.151 0.386 -0.941 0.274 0.198 -0.927 0.234 0.293 -0.928 0.236 0.289 -0.537 0.093 0.838 -0.613 0.112 0.782 0.482 -0.082 0.872 0.388 -0.073 0.919 0.783 -0.106 0.613 0.292 -0.889 0.354 0.294 -0.847 0.444 0.294 -0.848 0.44 0.065 -0.428 0.901 0.101 -0.493 0.864 -0.402 0.487 0.776 -0.365 0.412 0.835 -0.505 0.735 0.452 0.694 -0.608 0.384 0.664 -0.592 0.457 0.345 -0.384 0.856 -0.466 0.272 0.842 -0.465 0.272 0.842 -0.726 0.532 0.436 -0.306 0.012 -0.952 -0.428 0.003 -0.904 -0.43 -0.003 -0.903 -0.413 0.011 -0.911 -0.341 0.033 -0.94 -0.209 -0.002 -0.978 -0.092 -0.088 -0.992 -0.056 -0.127 -0.99 -0.084 -0.062 -0.995 -0.123 0.064 -0.99 -0.151 0.192 -0.97 -0.158 0.26 -0.953 -0.171 0.209 -0.963 -0.23 0.077 -0.97 -0.326 -0.024 -0.945 -0.398 -0.046 -0.916 -0.419 -0.045 -0.907 -0.414 -0.048 -0.909 0.315 -0.16 -0.936 0.406 -0.288 -0.867 0.412 -0.287 -0.865 0.385 -0.276 -0.881 0.323 -0.216 -0.922 0.265 -0.079 -0.961 0.251 0.067 -0.966 0.256 0.124 -0.959 0.229 0.076 -0.97 0.157 -0.02 -0.987 0.073 -0.107 -0.992 0.03 -0.142 -0.989 0.086 -0.128 -0.988 0.23 -0.12 -0.966 0.369 -0.161 -0.915 0.434 -0.218 -0.874 0.448 -0.245 -0.86 0.448 -0.239 -0.861 -0.071 0.785 -0.616 -0.049 0.836 -0.547 -0.042 0.828 -0.56 -0.038 0.8 -0.598 -0.066 0.754 -0.653 -0.119 0.711 -0.693 -0.145 0.695 -0.704 -0.119 0.702 -0.702 -0.06 0.712 -0.7 -0.001 0.715 -0.699 0.027 0.714 -0.7 -0.003 0.724 -0.69 -0.107 0.793 -0.6 -0.111 0.82 -0.562 -0.106 0.83 -0.548 -0.107 0.829 -0.549 -0.275 -0.4 -0.874 -0.356 -0.489 -0.796 -0.353 -0.495 -0.794 -0.351 -0.474 -0.808 -0.315 -0.41 -0.856 -0.191 -0.345 -0.919 -0.038 -0.322 -0.946 0.02 -0.323 -0.946 -0.051 -0.298 -0.953 -0.179 -0.231 -0.956 -0.298 -0.152 -0.942 -0.354 -0.102 -0.929 -0.326 -0.152 -0.933 -0.27 -0.298 -0.916 -0.264 -0.44 -0.858 -0.299 -0.504 -0.81 -0.316 -0.517 -0.796 -0.309 -0.517 -0.798 0.618 0.318 -0.719 0.693 0.309 -0.651 0.694 0.31 -0.65 0.684 0.3 -0.665 0.648 0.29 -0.705 0.578 0.308 -0.756 0.508 0.35 -0.787 0.48 0.373 -0.794 0.496 0.348 -0.796 0.524 0.288 -0.801 0.545 0.226 -0.807 0.552 0.197 -0.811 0.556 0.231 -0.798 0.579 0.305 -0.756 0.621 0.357 -0.698 0.656 0.368 -0.658 0.671 0.365 -0.645 0.67 0.366 -0.645 -0.173 0.164 -0.971 -0.289 0.236 -0.928 -0.291 0.235 -0.927 -0.264 0.235 -0.935 -0.195 0.212 -0.958 -0.109 0.138 -0.984 -0.055 0.042 -0.998 -0.041 -0.002 -0.999 -0.036 0.032 -0.999 -0.014 0.111 -0.994 0.018 0.186 -0.982 0.034 0.216 -0.976 -0.003 0.19 -0.982 -0.106 0.148 -0.983 -0.221 0.138 -0.966 -0.29 0.158 -0.944 -0.313 0.174 -0.934 -0.312 0.172 -0.935 0.158 -0.424 -0.892 0.151 -0.53 -0.834 0.153 -0.531 -0.833 0.14 -0.514 -0.846 0.128 -0.461 -0.878 0.146 -0.37 -0.917 0.193 -0.288 -0.938 0.22 -0.257 -0.941 0.192 -0.27 -0.944 0.124 -0.294 -0.948 0.054 -0.309 -0.95 0.023 -0.311 -0.95 0.061 -0.324 -0.944 0.142 -0.371 -0.917 0.202 -0.44 -0.875 0.216 -0.493 -0.843 0.213 -0.514 -0.831 0.214 -0.513 -0.831 0.123 0.378 -0.918 0.193 0.483 -0.854 0.189 0.489 -0.851 0.189 0.467 -0.864 0.16 0.394 -0.905 0.042 0.305 -0.951 -0.109 0.257 -0.96 -0.166 0.249 -0.954 -0.09 0.234 -0.968 0.049 0.189 -0.981 0.184 0.13 -0.974 0.251 0.09 -0.964 0.214 0.134 -0.968 0.133 0.27 -0.954 0.106 0.415 -0.904 0.135 0.488 -0.862 0.15 0.504 -0.851 0.143 0.503 -0.853 -0.44 -0.196 -0.876 -0.529 -0.227 -0.818 -0.529 -0.232 -0.816 -0.52 -0.217 -0.826 -0.473 -0.184 -0.862 -0.363 -0.183 -0.913 -0.247 -0.227 -0.942 -0.207 -0.25 -0.946 -0.248 -0.205 -0.947 -0.314 -0.111 -0.943 -0.37 -0.012 -0.929 -0.393 0.044 -0.919 -0.389 -0.003 -0.921 -0.398 -0.129 -0.908 -0.442 -0.233 -0.866 -0.489 -0.266 -0.831 -0.505 -0.269 -0.82 -0.501 -0.271 -0.822 -0.002 0.22 -0.975 0.032 0.297 -0.954 0.041 0.265 -0.963 0.03 0.204 -0.978 0.009 0.167 -0.986 -0 0.161 -0.987 -0.01 0.165 -0.986 -0.033 0.198 -0.98 -0.049 0.257 -0.965 -0.042 0.29 -0.956 -0.256 -0.064 -0.965 -0.331 -0.042 -0.943 -0.302 -0.026 -0.953 -0.243 -0.027 -0.97 -0.207 -0.042 -0.977 -0.2 -0.051 -0.978 -0.204 -0.062 -0.977 -0.233 -0.092 -0.968 -0.286 -0.119 -0.951 -0.318 -0.117 -0.941 0.115 0.42 -0.9 0.167 0.475 -0.864 0.167 0.445 -0.88 0.141 0.396 -0.907 0.112 0.37 -0.922 0.102 0.367 -0.925 0.094 0.374 -0.923 0.081 0.41 -0.908 0.082 0.466 -0.881 0.097 0.492 -0.865 -0.264 0.047 -0.963 -0.324 0.098 -0.941 -0.292 0.101 -0.951 -0.239 0.076 -0.968 -0.212 0.048 -0.976 -0.209 0.037 -0.977 -0.216 0.027 -0.976 -0.253 0.011 -0.967 -0.312 0.007 -0.95 -0.34 0.021 -0.94 -0.175 0.144 -0.974 -0.206 0.22 -0.954 -0.176 0.207 -0.962 -0.141 0.159 -0.977 -0.129 0.12 -0.984 -0.131 0.108 -0.985 -0.141 0.103 -0.985 -0.181 0.106 -0.978 -0.235 0.131 -0.963 -0.254 0.157 -0.954 -0.024 0.228 -0.973 0.004 0.307 -0.952 0.016 0.277 -0.961 0.01 0.215 -0.976 -0.008 0.177 -0.984 -0.017 0.169 -0.985 -0.027 0.173 -0.985 -0.053 0.203 -0.978 -0.074 0.26 -0.963 -0.07 0.293 -0.953 -0.073 0.484 -0.872 -0.046 0.553 -0.832 -0.034 0.527 -0.849 -0.039 0.474 -0.879 -0.056 0.44 -0.896 -0.064 0.433 -0.899 -0.075 0.436 -0.897 -0.101 0.461 -0.882 -0.122 0.509 -0.852 -0.119 0.538 -0.835 0.4 0.19 -0.897 0.472 0.184 -0.862 0.449 0.164 -0.878 0.397 0.153 -0.905 0.36 0.16 -0.919 0.352 0.167 -0.921 0.352 0.178 -0.919 0.372 0.212 -0.904 0.414 0.248 -0.876 0.443 0.253 -0.86 -0.337 0.001 -0.942 -0.402 0.041 -0.915 -0.371 0.049 -0.927 -0.317 0.034 -0.948 -0.286 0.011 -0.958 -0.281 0.001 -0.96 -0.287 -0.01 -0.958 -0.321 -0.032 -0.947 -0.376 -0.046 -0.925 -0.406 -0.037 -0.913 -0.103 0.085 -0.991 -0.135 0.161 -0.978 -0.105 0.148 -0.983 -0.069 0.1 -0.993 -0.056 0.06 -0.997 -0.058 0.049 -0.997 -0.069 0.044 -0.997 -0.109 0.047 -0.993 -0.163 0.072 -0.984 -0.183 0.099 -0.978 0.436 -0.033 -0.899 0.495 -0.075 -0.866 0.466 -0.082 -0.881 0.415 -0.064 -0.907 0.387 -0.039 -0.921 0.384 -0.029 -0.923 0.389 -0.019 -0.921 0.423 0.001 -0.906 0.476 0.012 -0.88 0.503 0.002 -0.864 -0.091 -0.1 -0.991 -0.17 -0.127 -0.977 -0.152 -0.097 -0.984 -0.099 -0.063 -0.993 -0.059 -0.053 -0.997 -0.048 -0.057 -0.997 -0.045 -0.068 -0.997 -0.056 -0.109 -0.992 -0.09 -0.164 -0.982 -0.119 -0.182 -0.976 0.72 -0.529 -0.45 0.643 -0.483 -0.594 0.644 -0.483 -0.593 0.105 -0.139 -0.985 0.112 -0.144 -0.983 -0.551 0.318 -0.772 -0.547 0.316 -0.775 -0.702 0.432 -0.567 0.639 0.593 -0.489 0.596 0.519 -0.613 0.594 0.515 -0.618 0.167 0.115 -0.979 0.109 0.065 -0.992 -0.495 -0.401 -0.771 -0.527 -0.42 -0.739 -0.687 -0.515 -0.513 -0.636 -0.638 -0.434 -0.593 -0.559 -0.58 -0.589 -0.552 -0.59 -0.149 -0.194 -0.97 -0.038 -0.113 -0.993 0.542 0.291 -0.789 0.59 0.316 -0.743 0.729 0.388 -0.564 -0.868 -0.259 -0.424 -0.788 -0.256 -0.56 -0.79 -0.256 -0.557 -0.186 -0.101 -0.977 -0.225 -0.113 -0.968 0.587 0.165 -0.792 0.568 0.157 -0.808 0.776 0.249 -0.58 -0.873 0.339 -0.35 -0.845 0.314 -0.433 -0.845 0.314 -0.432 -0.497 0.141 -0.856 -0.51 0.147 -0.848 0.358 -0.186 -0.915 0.333 -0.177 -0.926 0.747 -0.307 -0.59 0.817 0.364 -0.447 0.752 0.344 -0.563 0.754 0.344 -0.56 0.231 0.065 -0.971 0.273 0.088 -0.958 -0.512 -0.342 -0.788 -0.483 -0.326 -0.812 -0.716 -0.456 -0.529 0.776 -0.503 -0.382 0.716 -0.499 -0.488 0.714 -0.499 -0.492 0.299 -0.262 -0.918 0.243 -0.224 -0.944 -0.403 0.274 -0.873 -0.446 0.313 -0.838 -0.638 0.498 -0.587 -0.461 0.735 -0.498 -0.445 0.633 -0.634 -0.446 0.64 -0.626 -0.058 0.045 -0.997 -0.136 0.147 -0.98 0.453 -0.532 -0.715 0.412 -0.498 -0.764 0.583 -0.632 -0.511 0.899 -0.058 -0.435 0.828 -0.027 -0.56 0.833 -0.029 -0.553 0.192 -0.063 -0.979 0.313 -0.051 -0.948 -0.631 -0.163 -0.759 -0.559 -0.149 -0.816 -0.827 -0.201 -0.525 -0.352 -0.889 -0.294 -0.297 -0.875 -0.383 -0.3 -0.876 -0.378 -0.135 -0.495 -0.858 -0.16 -0.58 -0.799 0.04 0.438 -0.898 0.021 0.279 -0.96 0.082 0.78 -0.62 0.846 0.39 -0.363 0.817 0.328 -0.475 0.815 0.324 -0.481 0.401 0.083 -0.912 0.306 0.042 -0.951 -0.451 -0.208 -0.868 -0.524 -0.221 -0.823 -0.759 -0.255 -0.599 0.696 0.604 -0.389 0.682 0.536 -0.497 0.681 0.532 -0.502 0.35 0.171 -0.921 0.28 0.111 -0.954 -0.375 -0.357 -0.856 -0.434 -0.387 -0.813 -0.653 -0.49 -0.578 -0.852 -0.33 -0.406 -0.822 -0.286 -0.492 -0.82 -0.284 -0.497 -0.447 -0.183 -0.876 -0.351 -0.164 -0.922 0.451 -0.034 -0.892 0.584 -0.018 -0.812 0.871 0.027 -0.49 -0.488 0.713 -0.503 -0.476 0.627 -0.616 -0.478 0.634 -0.609 -0.046 0.113 -0.993 -0.15 0.223 -0.963 0.565 -0.452 -0.69 0.493 -0.4 -0.772 0.711 -0.553 -0.435 -0.785 0.433 -0.443 -0.741 0.42 -0.524 -0.74 0.42 -0.525 -0.373 0.211 -0.903 -0.349 0.197 -0.916 0.404 -0.277 -0.872 0.439 -0.3 -0.847 0.725 -0.486 -0.487 0.697 0.634 -0.335 0.645 0.632 -0.43 0.648 0.632 -0.425 0.358 0.276 -0.892 0.415 0.355 -0.838 -0.183 -0.505 -0.843 -0.104 -0.385 -0.917 -0.365 -0.753 -0.547 0.034 -0.95 -0.31 0.01 -0.911 -0.413 0.009 -0.908 -0.418 0.049 -0.506 -0.861 0.061 -0.418 -0.906 0.17 0.392 -0.904 0.186 0.486 -0.854 0.222 0.772 -0.595 0.444 0.751 -0.489 0.417 0.653 -0.632 0.417 0.652 -0.634 0.147 0.053 -0.988 0.138 0.035 -0.99 -0.258 -0.632 -0.731 -0.262 -0.638 -0.724 -0.364 -0.77 -0.524 0.646 0.638 -0.419 0.613 0.572 -0.544 0.613 0.572 -0.546 0.253 0.117 -0.96 0.237 0.1 -0.966 -0.354 -0.484 -0.8 -0.364 -0.492 -0.791 -0.54 -0.628 -0.561 0.932 -0.12 -0.343 0.869 -0.161 -0.467 0.863 -0.164 -0.477 0.393 -0.11 -0.913 0.243 -0.073 -0.967 -0.477 0.157 -0.865 -0.556 0.198 -0.807 -0.734 0.293 -0.613 0.685 0.573 -0.451 0.615 0.51 -0.601 0.618 0.513 -0.596 0.165 -0.009 -0.986 0.215 0.048 -0.975 -0.369 -0.576 -0.73 -0.349 -0.554 -0.755 -0.481 -0.694 -0.536 0.008 0.895 -0.446 0.012 0.837 -0.546 0.012 0.838 -0.545 0.067 0.306 -0.95 0.066 0.326 -0.943 0.111 -0.581 -0.806 0.111 -0.564 -0.818 0.108 -0.858 -0.503 -0.337 -0.876 -0.346 -0.281 -0.851 -0.443 -0.284 -0.852 -0.439 -0.047 -0.414 -0.909 -0.076 -0.486 -0.87 0.196 0.468 -0.862 0.182 0.381 -0.906 0.232 0.767 -0.598 0.937 0.186 -0.296 0.897 0.196 -0.397 0.898 0.196 -0.393 0.47 0.053 -0.881 0.533 0.075 -0.843 -0.4 -0.257 -0.88 -0.32 -0.228 -0.92 -0.707 -0.358 -0.609 0.712 0.625 -0.32 0.694 0.596 -0.404 0.459 0.308 -0.833 -0.201 -0.331 -0.922 -0.534 -0.597 -0.599 0.498 0.755 -0.427 0.494 0.689 -0.53 0.493 0.685 -0.536 0.204 0.262 -0.943 0.131 0.17 -0.977 -0.433 -0.469 -0.769 -0.483 -0.513 -0.709 -0.627 -0.636 -0.45 0.255 0.868 -0.425 0.265 0.806 -0.529 0.266 0.803 -0.534 0.106 0.318 -0.942 0.067 0.222 -0.973 -0.282 -0.569 -0.773 -0.312 -0.622 -0.719 -0.41 -0.793 -0.451 -0.633 -0.729 -0.259 -0.645 -0.684 -0.341 -0.646 -0.681 -0.345 -0.445 -0.444 -0.777 -0.376 -0.382 -0.844 0.318 0.177 -0.931 0.441 0.263 -0.858 0.696 0.449 -0.56 -0.854 0.366 -0.37 -0.826 0.295 -0.48 -0.829 0.3 -0.472 -0.254 0.045 -0.966 -0.407 0.094 -0.909 0.661 -0.148 -0.735 0.565 -0.143 -0.813 0.853 -0.15 -0.499 -0.959 -0.027 -0.282 -0.932 -0.019 -0.362 -0.931 -0.019 -0.363 -0.593 -0.036 -0.805 -0.566 -0.037 -0.823 0.409 -0.08 -0.909 0.455 -0.082 -0.887 0.83 -0.085 -0.551 0.246 0.894 -0.375 0.191 0.869 -0.457 0.194 0.87 -0.453 0.059 0.421 -0.905 0.077 0.523 -0.849 -0.021 -0.608 -0.794 -0.022 -0.462 -0.887 -0.014 -0.883 -0.468 0.467 -0.831 -0.303 0.416 -0.819 -0.395 0.414 -0.818 -0.399 0.197 -0.488 -0.85 0.155 -0.404 -0.901 -0.183 0.428 -0.885 -0.21 0.522 -0.827 -0.28 0.784 -0.554 -0.056 0.874 -0.482 -0.05 0.782 -0.621 -0.05 0.781 -0.623 -0.034 0.093 -0.995 -0.033 0.07 -0.997 -0.006 -0.746 -0.666 -0.006 -0.753 -0.658 -0.001 -0.895 -0.446 0.189 0.875 -0.446 0.179 0.806 -0.564 0.179 0.805 -0.565 0.037 0.213 -0.976 0.031 0.188 -0.982 -0.184 -0.669 -0.72 -0.187 -0.68 -0.709 -0.236 -0.859 -0.454 0.833 0.348 -0.431 0.792 0.28 -0.542 0.788 0.274 -0.551 0.303 0.072 -0.95 0.132 0.024 -0.991 -0.649 -0.139 -0.748 -0.726 -0.139 -0.673 -0.883 -0.133 -0.451 0.253 0.838 -0.483 0.206 0.755 -0.622 0.208 0.759 -0.617 0.018 0.043 -0.999 0.037 0.126 -0.991 -0.137 -0.751 -0.646 -0.135 -0.725 -0.675 -0.146 -0.886 -0.439 -0.505 0.776 -0.379 -0.49 0.731 -0.475 -0.49 0.731 -0.474 -0.243 0.292 -0.925 -0.253 0.31 -0.917 0.302 -0.519 -0.8 0.291 -0.505 -0.813 0.469 -0.734 -0.492 0.1 -0.953 -0.285 0.124 -0.915 -0.383 0.123 -0.917 -0.379 0.05 -0.458 -0.888 0.067 -0.537 -0.841 -0.192 0.511 -0.838 -0.167 0.425 -0.89 -0.269 0.785 -0.558 0.686 0.62 -0.381 0.638 0.61 -0.47 0.64 0.611 -0.467 0.289 0.27 -0.918 0.339 0.325 -0.883 -0.363 -0.491 -0.792 -0.313 -0.426 -0.849 -0.532 -0.705 -0.47 0.266 0.893 -0.364 0.255 0.861 -0.44 0.145 0.502 -0.853 0.145 0.502 -0.852 -0.145 -0.462 -0.875 -0.253 -0.834 -0.491 -0.315 -0.885 -0.343 -0.3 -0.819 -0.489 -0.301 -0.819 -0.488 -0.135 -0.216 -0.967 -0.138 -0.225 -0.964 0.143 0.619 -0.772 0.142 0.616 -0.775 0.209 0.793 -0.572 0.761 -0.478 -0.439 0.683 -0.471 -0.558 0.68 -0.47 -0.562 0.159 -0.2 -0.967 0.088 -0.154 -0.984 -0.582 0.345 -0.736 -0.608 0.371 -0.702 -0.724 0.5 -0.475 -0.822 0.414 -0.39 -0.748 0.395 -0.534 -0.741 0.393 -0.544 -0.276 0.042 -0.96 -0.154 -0.053 -0.987 0.452 -0.51 -0.732 0.489 -0.544 -0.682 0.591 -0.636 -0.497 -0.516 0.752 -0.41 -0.5 0.679 -0.538 -0.501 0.68 -0.535 -0.188 0.111 -0.976 -0.213 0.15 -0.965 0.337 -0.597 -0.728 0.324 -0.582 -0.746 0.468 -0.727 -0.503 0.069 0.926 -0.371 0.052 0.894 -0.445 -0.024 0.516 -0.856 -0.022 0.531 -0.847 -0.1 -0.492 -0.865 -0.1 -0.464 -0.88 -0.093 -0.868 -0.488 0.588 -0.715 -0.38 0.554 -0.672 -0.492 0.555 -0.673 -0.489 0.126 -0.283 -0.951 0.164 -0.32 -0.933 -0.529 0.38 -0.759 -0.506 0.356 -0.786 -0.676 0.547 -0.494 -0.27 -0.922 -0.279 -0.288 -0.878 -0.382 -0.289 -0.876 -0.386 -0.2 -0.454 -0.868 -0.179 -0.386 -0.905 0.145 0.459 -0.877 0.172 0.514 -0.841 0.295 0.75 -0.592 0.576 0.641 -0.508 0.487 0.599 -0.636 0.494 0.602 -0.628 0.011 0.02 -1 0.096 0.137 -0.986 -0.417 -0.665 -0.62 -0.399 -0.62 -0.675 -0.462 -0.79 -0.403 0.199 -0.918 -0.344 0.21 -0.858 -0.468 0.21 -0.862 -0.461 -0.024 -0.284 -0.958 0.028 -0.406 -0.913 -0.376 0.557 -0.741 -0.344 0.49 -0.801 -0.454 0.732 -0.508 -0.97 0.068 -0.234 -0.949 0.014 -0.314 -0.951 0.017 -0.31 -0.581 -0.062 -0.812 -0.669 -0.058 -0.741 0.457 0.045 -0.889 0.288 0.011 -0.958 0.79 0.117 -0.602 -0.482 0.769 -0.42 -0.414 0.749 -0.517 -0.411 0.747 -0.523 -0.087 0.349 -0.933 -0.025 0.247 -0.969 0.352 -0.543 -0.762 0.369 -0.609 -0.702 0.405 -0.797 -0.448 -0.672 0.593 -0.443 -0.604 0.587 -0.539 -0.601 0.586 -0.544 -0.179 0.281 -0.943 -0.1 0.209 -0.973 0.503 -0.444 -0.741 0.535 -0.494 -0.685 0.628 -0.659 -0.415 0.47 -0.845 -0.254 0.431 -0.836 -0.339 0.429 -0.836 -0.343 0.326 -0.544 -0.773 0.299 -0.453 -0.84 0.036 0.418 -0.908 -0.006 0.56 -0.828 -0.113 0.847 -0.52 -0.642 -0.609 -0.466 -0.555 -0.607 -0.568 -0.562 -0.608 -0.561 -0.052 -0.159 -0.986 -0.164 -0.283 -0.945 0.463 0.589 -0.662 0.429 0.506 -0.748 0.517 0.751 -0.41 -0.316 -0.877 -0.363 -0.306 -0.844 -0.44 -0.306 -0.843 -0.442 -0.12 -0.514 -0.85 -0.106 -0.489 -0.866 0.317 0.395 -0.862 0.334 0.436 -0.835 0.451 0.76 -0.468 -0.702 0.592 -0.397 -0.693 0.539 -0.479 -0.694 0.542 -0.474 -0.297 0.277 -0.914 -0.39 0.331 -0.859 0.64 -0.222 -0.736 0.513 -0.16 -0.843 0.856 -0.339 -0.389 0.976 0.099 -0.195 0.955 0.064 -0.289 0.954 0.062 -0.293 0.618 0.027 -0.786 0.529 0.027 -0.848 -0.398 0.059 -0.916 -0.5 0.069 -0.863 -0.787 0.096 -0.61 -0.787 0.325 -0.524 -0.692 0.303 -0.655 -0.691 0.303 -0.656 -0.012 0.065 -0.998 0.011 0.056 -0.998 0.758 -0.27 -0.594 0.764 -0.273 -0.585 0.869 -0.334 -0.366 -0.7 0.539 -0.469 -0.633 0.512 -0.58 -0.632 0.512 -0.581 -0.102 0.178 -0.979 -0.08 0.162 -0.984 0.627 -0.397 -0.67 0.635 -0.405 -0.658 0.751 -0.528 -0.396 0.023 0.926 -0.376 0.083 0.87 -0.486 0.089 0.865 -0.495 0.133 0.363 -0.922 0.118 0.189 -0.975 -0.047 -0.612 -0.79 -0.083 -0.687 -0.722 -0.17 -0.84 -0.516 -0.641 0.585 -0.497 -0.573 0.521 -0.633 -0.576 0.524 -0.628 0.057 0.092 -0.994 -0.017 0.143 -0.99 0.711 -0.39 -0.585 0.692 -0.377 -0.616 0.807 -0.459 -0.372 -0.879 -0.117 -0.461 -0.826 -0.117 -0.552 -0.826 -0.117 -0.551 -0.289 -0.049 -0.956 -0.31 -0.052 -0.949 0.681 0.107 -0.724 0.666 0.104 -0.739 0.91 0.151 -0.386 0.941 -0.274 -0.198 0.927 -0.234 -0.293 0.928 -0.236 -0.289 0.537 -0.093 -0.838 0.613 -0.112 -0.782 -0.482 0.082 -0.872 -0.388 0.073 -0.919 -0.783 0.106 -0.613 -0.292 0.889 -0.354 -0.294 0.847 -0.444 -0.294 0.848 -0.44 -0.065 0.428 -0.901 -0.101 0.493 -0.864 0.402 -0.487 -0.776 0.365 -0.412 -0.835 0.505 -0.735 -0.452 -0.694 0.608 -0.384 -0.664 0.592 -0.457 -0.345 0.384 -0.856 0.466 -0.272 -0.842 0.465 -0.272 -0.842 0.726 -0.532 -0.436 0.306 -0.012 0.952 0.428 -0.003 0.904 0.43 0.003 0.903 0.413 -0.011 0.911 0.341 -0.033 0.94 0.209 0.002 0.978 0.092 0.088 0.992 0.056 0.127 0.99 0.084 0.062 0.995 0.123 -0.064 0.99 0.151 -0.192 0.97 0.158 -0.26 0.953 0.171 -0.209 0.963 0.23 -0.077 0.97 0.326 0.024 0.945 0.398 0.046 0.916 0.419 0.045 0.907 0.414 0.048 0.909 -0.315 0.16 0.936 -0.406 0.288 0.867 -0.412 0.287 0.865 -0.385 0.276 0.881 -0.323 0.216 0.922 -0.265 0.079 0.961 -0.251 -0.067 0.966 -0.256 -0.124 0.959 -0.229 -0.076 0.97 -0.157 0.02 0.987 -0.073 0.107 0.992 -0.03 0.142 0.989 -0.086 0.128 0.988 -0.23 0.12 0.966 -0.369 0.161 0.915 -0.434 0.218 0.874 -0.448 0.245 0.86 -0.448 0.239 0.861 0.071 -0.785 0.616 0.049 -0.836 0.547 0.042 -0.828 0.56 0.038 -0.8 0.598 0.066 -0.754 0.653 0.119 -0.711 0.693 0.145 -0.695 0.704 0.119 -0.702 0.702 0.06 -0.712 0.7 0.001 -0.715 0.699 -0.027 -0.714 0.7 0.003 -0.724 0.69 0.107 -0.793 0.6 0.111 -0.82 0.562 0.106 -0.83 0.548 0.107 -0.829 0.549 0.275 0.4 0.874 0.356 0.489 0.796 0.353 0.495 0.794 0.351 0.474 0.808 0.315 0.41 0.856 0.191 0.345 0.919 0.038 0.322 0.946 -0.02 0.323 0.946 0.051 0.298 0.953 0.179 0.231 0.956 0.298 0.152 0.942 0.354 0.102 0.929 0.326 0.152 0.933 0.27 0.298 0.916 0.264 0.44 0.858 0.299 0.504 0.81 0.316 0.517 0.796 0.309 0.517 0.798 -0.618 -0.318 0.719 -0.693 -0.309 0.651 -0.694 -0.31 0.65 -0.684 -0.3 0.665 -0.648 -0.29 0.705 -0.578 -0.308 0.756 -0.508 -0.35 0.787 -0.48 -0.373 0.794 -0.496 -0.348 0.796 -0.524 -0.288 0.801 -0.545 -0.226 0.807 -0.552 -0.197 0.811 -0.556 -0.231 0.798 -0.579 -0.305 0.756 -0.621 -0.357 0.698 -0.656 -0.368 0.658 -0.671 -0.365 0.645 -0.67 -0.366 0.645 0.173 -0.164 0.971 0.289 -0.236 0.928 0.291 -0.235 0.927 0.264 -0.235 0.935 0.195 -0.212 0.958 0.109 -0.138 0.984 0.055 -0.042 0.998 0.041 0.002 0.999 0.036 -0.032 0.999 0.014 -0.111 0.994 -0.018 -0.186 0.982 -0.034 -0.216 0.976 0.003 -0.19 0.982 0.106 -0.148 0.983 0.221 -0.138 0.966 0.29 -0.158 0.944 0.313 -0.174 0.934 0.312 -0.172 0.935 -0.158 0.424 0.892 -0.151 0.53 0.834 -0.153 0.531 0.833 -0.14 0.514 0.846 -0.128 0.461 0.878 -0.146 0.37 0.917 -0.193 0.288 0.938 -0.22 0.257 0.941 -0.192 0.27 0.944 -0.124 0.294 0.948 -0.054 0.309 0.95 -0.023 0.311 0.95 -0.061 0.324 0.944 -0.142 0.371 0.917 -0.202 0.44 0.875 -0.216 0.493 0.843 -0.213 0.514 0.831 -0.214 0.513 0.831 -0.123 -0.378 0.918 -0.193 -0.483 0.854 -0.189 -0.489 0.851 -0.189 -0.467 0.864 -0.16 -0.394 0.905 -0.042 -0.305 0.951 0.109 -0.257 0.96 0.166 -0.249 0.954 0.09 -0.234 0.968 -0.049 -0.189 0.981 -0.184 -0.13 0.974 -0.251 -0.09 0.964 -0.214 -0.134 0.968 -0.133 -0.27 0.954 -0.106 -0.415 0.904 -0.135 -0.488 0.862 -0.15 -0.504 0.851 -0.143 -0.503 0.853 0.44 0.196 0.876 0.529 0.227 0.818 0.529 0.232 0.816 0.52 0.217 0.826 0.473 0.184 0.862 0.363 0.183 0.913 0.247 0.227 0.942 0.207 0.25 0.946 0.248 0.205 0.947 0.314 0.111 0.943 0.37 0.012 0.929 0.393 -0.044 0.919 0.389 0.003 0.921 0.398 0.129 0.908 0.442 0.233 0.866 0.489 0.266 0.831 0.505 0.269 0.82 0.501 0.271 0.822 0.002 -0.22 0.975 -0.032 -0.297 0.954 -0.041 -0.265 0.963 -0.03 -0.204 0.978 -0.009 -0.167 0.986 0 -0.161 0.987 0.01 -0.165 0.986 0.033 -0.198 0.98 0.049 -0.257 0.965 0.042 -0.29 0.956 0.256 0.064 0.965 0.331 0.042 0.943 0.302 0.026 0.953 0.243 0.027 0.97 0.207 0.042 0.977 0.2 0.051 0.978 0.204 0.062 0.977 0.233 0.092 0.968 0.286 0.119 0.951 0.318 0.117 0.941 -0.115 -0.42 0.9 -0.167 -0.475 0.864 -0.167 -0.445 0.88 -0.141 -0.396 0.907 -0.112 -0.37 0.922 -0.102 -0.367 0.925 -0.094 -0.374 0.923 -0.081 -0.41 0.908 -0.082 -0.466 0.881 -0.097 -0.492 0.865 0.264 -0.047 0.963 0.324 -0.098 0.941 0.292 -0.101 0.951 0.239 -0.076 0.968 0.212 -0.048 0.976 0.209 -0.037 0.977 0.216 -0.027 0.976 0.253 -0.011 0.967 0.312 -0.007 0.95 0.34 -0.021 0.94 0.175 -0.144 0.974 0.206 -0.22 0.954 0.176 -0.207 0.962 0.141 -0.159 0.977 0.129 -0.12 0.984 0.131 -0.108 0.985 0.141 -0.103 0.985 0.181 -0.106 0.978 0.235 -0.131 0.963 0.254 -0.157 0.954 0.024 -0.228 0.973 -0.004 -0.307 0.952 -0.016 -0.277 0.961 -0.01 -0.215 0.976 0.008 -0.177 0.984 0.017 -0.169 0.985 0.027 -0.173 0.985 0.053 -0.203 0.978 0.074 -0.26 0.963 0.07 -0.293 0.953 0.073 -0.484 0.872 0.046 -0.553 0.832 0.034 -0.527 0.849 0.039 -0.474 0.879 0.056 -0.44 0.896 0.064 -0.433 0.899 0.075 -0.436 0.897 0.101 -0.461 0.882 0.122 -0.509 0.852 0.119 -0.538 0.835 -0.4 -0.19 0.897 -0.472 -0.184 0.862 -0.449 -0.164 0.878 -0.397 -0.153 0.905 -0.36 -0.16 0.919 -0.352 -0.167 0.921 -0.352 -0.178 0.919 -0.372 -0.212 0.904 -0.414 -0.248 0.876 -0.443 -0.253 0.86 0.337 -0.001 0.942 0.402 -0.041 0.915 0.371 -0.049 0.927 0.317 -0.034 0.948 0.286 -0.011 0.958 0.281 -0.001 0.96 0.287 0.01 0.958 0.321 0.032 0.947 0.376 0.046 0.925 0.406 0.037 0.913 0.103 -0.085 0.991 0.135 -0.161 0.978 0.105 -0.148 0.983 0.069 -0.1 0.993 0.056 -0.06 0.997 0.058 -0.049 0.997 0.069 -0.044 0.997 0.109 -0.047 0.993 0.163 -0.072 0.984 0.183 -0.099 0.978 -0.436 0.033 0.899 -0.495 0.075 0.866 -0.466 0.082 0.881 -0.415 0.064 0.907 -0.387 0.039 0.921 -0.384 0.029 0.923 -0.389 0.019 0.921 -0.423 -0.001 0.906 -0.476 -0.012 0.88 -0.503 -0.002 0.864 0.091 0.1 0.991 0.17 0.127 0.977 0.152 0.097 0.984 0.099 0.063 0.993 0.059 0.053 0.997 0.048 0.057 0.997 0.045 0.068 0.997 0.056 0.109 0.992 0.09 0.164 0.982 0.119 0.182 0.976</float_array><technique_common><accessor source="#weeds_-03-01_foliage-nrm-a" count="1584" stride="3"><param name="X" type="float"/><param name="Y" type="float"/><param name="Z" type="float"/></accessor></technique_common></source>
        <vertices id="weeds_-03-01_foliage-vtx"><input semantic="POSITION" source="#weeds_-03-01_foliage-pos"/></vertices>
        <triangles count="1040" material="MAT_WEED_GRASS-mat"><input semantic="VERTEX" source="#weeds_-03-01_foliage-vtx" offset="0"/><input semantic="NORMAL" source="#weeds_-03-01_foliage-nrm" offset="1"/><p>0 0 1 0 2 1 0 0 2 1 3 2 3 2 2 1 4 3 3 2 4 3 5 4 5 4 4 3 6 5 5 4 6 5 7 6 7 6 6 5 8 7 7 6 8 7 9 7 10 8 11 8 12 9 10 8 12 9 13 10 13 10 12 9 14 11 13 10 14 11 15 12 15 12 14 11 16 13 15 12 16 13 17 14 17 14 16 13 18 15 17 14 18 15 19 15 20 16 21 16 22 17 20 16 22 17 23 18 23 18 22 17 24 19 23 18 24 19 25 20 25 20 24 19 26 21 25 20 26 21 27 22 27 22 26 21 28 23 27 22 28 23 29 23 30 24 31 24 32 25 30 24 32 25 33 26 33 26 32 25 34 27 33 26 34 27 35 28 35 28 34 27 36 29 35 28 36 29 37 30 37 30 36 29 38 31 37 30 38 31 39 31 40 32 41 32 42 33 40 32 42 33 43 34 43 34 42 33 44 35 43 34 44 35 45 36 45 36 44 35 46 37 45 36 46 37 47 38 47 38 46 37 48 39 47 38 48 39 49 39 50 40 51 40 52 41 50 40 52 41 53 42 53 42 52 41 54 43 53 42 54 43 55 44 55 44 54 43 56 45 55 44 56 45 57 46 57 46 56 45 58 47 57 46 58 47 59 47 60 48 61 48 62 49 60 48 62 49 63 50 63 50 62 49 64 51 63 50 64 51 65 52 65 52 64 51 66 53 65 52 66 53 67 54 67 54 66 53 68 55 67 54 68 55 69 55 70 56 71 56 72 57 70 56 72 57 73 58 73 58 72 57 74 59 73 58 74 59 75 60 75 60 74 59 76 61 75 60 76 61 77 62 77 62 76 61 78 63 77 62 78 63 79 63 80 64 81 64 82 65 80 64 82 65 83 66 83 66 82 65 84 67 83 66 84 67 85 68 85 68 84 67 86 69 85 68 86 69 87 70 87 70 86 69 88 71 87 70 88 71 89 71 90 72 91 72 92 73 90 72 92 73 93 74 93 74 92 73 94 75 93 74 94 75 95 76 95 76 94 75 96 77 95 76 96 77 97 78 97 78 96 77 98 79 97 78 98 79 99 79 100 80 101 80 102 81 100 80 102 81 103 82 103 82 102 81 104 83 103 82 104 83 105 84 105 84 104 83 106 85 105 84 106 85 107 86 107 86 106 85 108 87 107 86 108 87 109 87 110 88 111 88 112 89 110 88 112 89 113 90 113 90 112 89 114 91 113 90 114 91 115 92 115 92 114 91 116 93 115 92 116 93 117 94 117 94 116 93 118 95 117 94 118 95 119 95 120 96 121 96 122 97 120 96 122 97 123 98 123 98 122 97 124 99 123 98 124 99 125 100 125 100 124 99 126 101 125 100 126 101 127 102 127 102 126 101 128 103 127 102 128 103 129 103 130 104 131 104 132 105 130 104 132 105 133 106 133 106 132 105 134 107 133 106 134 107 135 108 135 108 134 107 136 109 135 108 136 109 137 110 137 110 136 109 138 111 137 110 138 111 139 111 140 112 141 112 142 113 140 112 142 113 143 114 143 114 142 113 144 115 143 114 144 115 145 116 145 116 144 115 146 117 145 116 146 117 147 118 147 118 146 117 148 119 147 118 148 119 149 119 150 120 151 120 152 121 150 120 152 121 153 122 153 122 152 121 154 123 153 122 154 123 155 124 155 124 154 123 156 125 155 124 156 125 157 126 157 126 156 125 158 127 157 126 158 127 159 127 160 128 161 128 162 129 160 128 162 129 163 130 163 130 162 129 164 131 163 130 164 131 165 132 165 132 164 131 166 133 165 132 166 133 167 134 167 134 166 133 168 135 167 134 168 135 169 135 170 136 171 136 172 137 170 136 172 137 173 138 173 138 172 137 174 139 173 138 174 139 175 140 175 140 174 139 176 141 175 140 176 141 177 142 177 142 176 141 178 143 177 142 178 143 179 143 180 144 181 144 182 145 180 144 182 145 183 146 183 146 182 145 184 147 183 146 184 147 185 148 185 148 184 147 186 149 185 148 186 149 187 150 187 150 186 149 188 151 187 150 188 151 189 151 190 152 191 152 192 153 190 152 192 153 193 154 193 154 192 153 194 155 193 154 194 155 195 156 195 156 194 155 196 157 195 156 196 157 197 158 197 158 196 157 198 159 197 158 198 159 199 159 200 160 201 160 202 161 200 160 202 161 203 162 203 162 202 161 204 163 203 162 204 163 205 164 205 164 204 163 206 165 205 164 206 165 207 166 207 166 206 165 208 167 207 166 208 167 209 167 210 168 211 168 212 169 210 168 212 169 213 170 213 170 212 169 214 171 213 170 214 171 215 172 215 172 214 171 216 173 215 172 216 173 217 174 217 174 216 173 218 175 217 174 218 175 219 175 220 176 221 176 222 177 220 176 222 177 223 178 223 178 222 177 224 179 223 178 224 179 225 180 225 180 224 179 226 181 225 180 226 181 227 182 227 182 226 181 228 183 227 182 228 183 229 183 230 184 231 184 232 185 230 184 232 185 233 186 233 186 232 185 234 187 233 186 234 187 235 188 235 188 234 187 236 189 235 188 236 189 237 190 237 190 236 189 238 191 237 190 238 191 239 191 240 192 241 192 242 193 240 192 242 193 243 193 243 193 242 193 244 194 243 193 244 194 245 194 245 194 244 194 246 195 245 194 246 195 247 195 247 195 246 195 248 196 247 195 248 196 249 196 250 197 251 197 252 198 250 197 252 198 253 199 253 199 252 198 254 200 253 199 254 200 255 201 255 201 254 200 256 202 255 201 256 202 257 203 257 203 256 202 258 204 257 203 258 204 259 204 260 205 261 205 262 206 260 205 262 206 263 207 263 207 262 206 264 208 263 207 264 208 265 209 265 209 264 208 266 210 265 209 266 210 267 211 267 211 266 210 268 212 267 211 268 212 269 212 270 213 271 213 272 214 270 213 272 214 273 215 273 215 272 214 274 216 273 215 274 216 275 217 275 217 274 216 276 218 275 217 276 218 277 219 277 219 276 218 278 220 277 219 278 220 279 220 280 221 281 221 282 222 280 221 282 222 283 223 283 223 282 222 284 224 283 223 284 224 285 225 285 225 284 224 286 226 285 225 286 226 287 227 287 227 286 226 288 228 287 227 288 228 289 228 290 229 291 229 292 230 290 229 292 230 293 231 293 231 292 230 294 232 293 231 294 232 295 233 295 233 294 232 296 234 295 233 296 234 297 235 297 235 296 234 298 236 297 235 298 236 299 236 300 237 301 237 302 238 300 237 302 238 303 239 303 239 302 238 304 240 303 239 304 240 305 241 305 241 304 240 306 242 305 241 306 242 307 243 307 243 306 242 308 244 307 243 308 244 309 244 310 245 311 245 312 246 310 245 312 246 313 247 313 247 312 246 314 248 313 247 314 248 315 249 315 249 314 248 316 250 315 249 316 250 317 251 317 251 316 250 318 252 317 251 318 252 319 252 320 253 321 253 322 254 320 253 322 254 323 255 323 255 322 254 324 256 323 255 324 256 325 257 325 257 324 256 326 258 325 257 326 258 327 259 327 259 326 258 328 260 327 259 328 260 329 260 330 261 331 261 332 262 330 261 332 262 333 263 333 263 332 262 334 264 333 263 334 264 335 265 335 265 334 264 336 266 335 265 336 266 337 267 337 267 336 266 338 268 337 267 338 268 339 268 340 269 341 269 342 270 340 269 342 270 343 271 343 271 342 270 344 272 343 271 344 272 345 273 345 273 344 272 346 274 345 273 346 274 347 275 347 275 346 274 348 276 347 275 348 276 349 276 350 277 351 277 352 278 350 277 352 278 353 279 353 279 352 278 354 280 353 279 354 280 355 281 355 281 354 280 356 282 355 281 356 282 357 283 357 283 356 282 358 284 357 283 358 284 359 284 360 285 361 285 362 286 360 285 362 286 363 287 363 287 362 286 364 288 363 287 364 288 365 289 365 289 364 288 366 290 365 289 366 290 367 291 367 291 366 290 368 292 367 291 368 292 369 292 370 293 371 293 372 294 370 293 372 294 373 295 373 295 372 294 374 296 373 295 374 296 375 297 375 297 374 296 376 298 375 297 376 298 377 299 377 299 376 298 378 300 377 299 378 300 379 300 380 301 381 301 382 302 380 301 382 302 383 303 383 303 382 302 384 304 383 303 384 304 385 305 385 305 384 304 386 306 385 305 386 306 387 307 387 307 386 306 388 308 387 307 388 308 389 308 390 309 391 309 392 310 390 309 392 310 393 310 393 310 392 310 394 311 393 310 394 311 395 312 395 312 394 311 396 313 395 312 396 313 397 313 397 313 396 313 398 314 397 313 398 314 399 314 400 315 401 315 402 316 400 315 402 316 403 317 403 317 402 316 404 318 403 317 404 318 405 319 405 319 404 318 406 320 405 319 406 320 407 321 407 321 406 320 408 322 407 321 408 322 409 322 410 323 411 323 412 324 410 323 412 324 413 325 413 325 412 324 414 326 413 325 414 326 415 327 415 327 414 326 416 328 415 327 416 328 417 329 417 329 416 328 418 330 417 329 418 330 419 330 420 331 421 331 422 332 420 331 422 332 423 333 423 333 422 332 424 334 423 333 424 334 425 335 425 335 424 334 426 336 425 335 426 336 427 337 427 337 426 336 428 338 427 337 428 338 429 338 430 339 431 339 432 340 430 339 432 340 433 341 433 341 432 340 434 342 433 341 434 342 435 343 435 343 434 342 436 344 435 343 436 344 437 345 437 345 436 344 438 346 437 345 438 346 439 346 440 347 441 347 442 348 440 347 442 348 443 348 443 348 442 348 444 349 443 348 444 349 445 350 445 350 444 349 446 351 445 350 446 351 447 352 447 352 446 351 448 353 447 352 448 353 449 353 450 354 451 354 452 355 450 354 452 355 453 356 453 356 452 355 454 357 453 356 454 357 455 358 455 358 454 357 456 359 455 358 456 359 457 360 457 360 456 359 458 361 457 360 458 361 459 361 460 362 461 362 462 363 460 362 462 363 463 364 463 364 462 363 464 365 463 364 464 365 465 366 465 366 464 365 466 367 465 366 466 367 467 368 467 368 466 367 468 369 467 368 468 369 469 369 470 370 471 370 472 371 470 370 472 371 473 372 473 372 472 371 474 373 473 372 474 373 475 374 475 374 474 373 476 375 475 374 476 375 477 376 477 376 476 375 478 377 477 376 478 377 479 377 480 378 481 378 482 379 480 378 482 379 483 380 483 380 482 379 484 381 483 380 484 381 485 382 485 382 484 381 486 383 485 382 486 383 487 384 487 384 486 383 488 385 487 384 488 385 489 385 490 386 491 386 492 387 490 386 492 387 493 388 493 388 492 387 494 389 493 388 494 389 495 390 495 390 494 389 496 391 495 390 496 391 497 392 497 392 496 391 498 393 497 392 498 393 499 393 500 394 501 394 502 395 500 394 502 395 503 396 503 396 502 395 504 397 503 396 504 397 505 398 505 398 504 397 506 399 505 398 506 399 507 400 507 400 506 399 508 401 507 400 508 401 509 401 510 402 511 402 512 403 510 402 512 403 513 404 513 404 512 403 514 405 513 404 514 405 515 406 515 406 514 405 516 407 515 406 516 407 517 408 517 408 516 407 518 409 517 408 518 409 519 409 520 410 521 410 522 411 520 410 522 411 523 412 523 412 522 411 524 413 523 412 524 413 525 414 525 414 524 413 526 415 525 414 526 415 527 416 527 416 526 415 528 417 527 416 528 417 529 417 530 418 531 418 532 419 530 418 532 419 533 420 533 420 532 419 534 421 533 420 534 421 535 422 535 422 534 421 536 423 535 422 536 423 537 424 537 424 536 423 538 425 537 424 538 425 539 425 540 426 541 426 542 427 540 426 542 427 543 428 543 428 542 427 544 429 543 428 544 429 545 430 545 430 544 429 546 431 545 430 546 431 547 432 547 432 546 431 548 433 547 432 548 433 549 433 550 434 551 434 552 435 550 434 552 435 553 436 553 436 552 435 554 437 553 436 554 437 555 438 555 438 554 437 556 439 555 438 556 439 557 440 557 440 556 439 558 441 557 440 558 441 559 441 560 442 561 442 562 443 560 442 562 443 563 444 563 444 562 443 564 445 563 444 564 445 565 446 565 446 564 445 566 447 565 446 566 447 567 448 567 448 566 447 568 449 567 448 568 449 569 449 570 450 571 450 572 451 570 450 572 451 573 452 573 452 572 451 574 453 573 452 574 453 575 454 575 454 574 453 576 455 575 454 576 455 577 456 577 456 576 455 578 457 577 456 578 457 579 457 580 458 581 458 582 459 580 458 582 459 583 460 583 460 582 459 584 461 583 460 584 461 585 462 585 462 584 461 586 463 585 462 586 463 587 464 587 464 586 463 588 465 587 464 588 465 589 465 590 466 591 466 592 467 590 466 592 467 593 468 593 468 592 467 594 469 593 468 594 469 595 470 595 470 594 469 596 471 595 470 596 471 597 472 597 472 596 471 598 473 597 472 598 473 599 473 600 474 601 474 602 475 600 474 602 475 603 476 603 476 602 475 604 477 603 476 604 477 605 478 605 478 604 477 606 479 605 478 606 479 607 480 607 480 606 479 608 481 607 480 608 481 609 481 610 482 611 482 612 483 610 482 612 483 613 484 613 484 612 483 614 485 613 484 614 485 615 486 615 486 614 485 616 487 615 486 616 487 617 488 617 488 616 487 618 489 617 488 618 489 619 489 620 490 621 490 622 491 620 490 622 491 623 492 623 492 622 491 624 493 623 492 624 493 625 494 625 494 624 493 626 495 625 494 626 495 627 496 627 496 626 495 628 497 627 496 628 497 629 497 630 498 631 498 632 499 630 498 632 499 633 500 633 500 632 499 634 501 633 500 634 501 635 502 635 502 634 501 636 503 635 502 636 503 637 504 637 504 636 503 638 505 637 504 638 505 639 505 640 506 641 506 642 507 640 506 642 507 643 507 643 507 642 507 644 508 643 507 644 508 645 508 645 508 644 508 646 509 645 508 646 509 647 510 647 510 646 509 648 511 647 510 648 511 649 511 0 792 2 793 1 792 0 792 3 794 2 793 3 794 4 795 2 793 3 794 5 796 4 795 5 796 6 797 4 795 5 796 7 798 6 797 7 798 8 799 6 797 7 798 9 799 8 799 10 800 12 801 11 800 10 800 13 802 12 801 13 802 14 803 12 801 13 802 15 804 14 803 15 804 16 805 14 803 15 804 17 806 16 805 17 806 18 807 16 805 17 806 19 807 18 807 20 808 22 809 21 808 20 808 23 810 22 809 23 810 24 811 22 809 23 810 25 812 24 811 25 812 26 813 24 811 25 812 27 814 26 813 27 814 28 815 26 813 27 814 29 815 28 815 30 816 32 817 31 816 30 816 33 818 32 817 33 818 34 819 32 817 33 818 35 820 34 819 35 820 36 821 34 819 35 820 37 822 36 821 37 822 38 823 36 821 37 822 39 823 38 823 40 824 42 825 41 824 40 824 43 826 42 825 43 826 44 827 42 825 43 826 45 828 44 827 45 828 46 829 44 827 45 828 47 830 46 829 47 830 48 831 46 829 47 830 49 831 48 831 50 832 52 833 51 832 50 832 53 834 52 833 53 834 54 835 52 833 53 834 55 836 54 835 55 836 56 837 54 835 55 836 57 838 56 837 57 838 58 839 56 837 57 838 59 839 58 839 60 840 62 841 61 840 60 840 63 842 62 841 63 842 64 843 62 841 63 842 65 844 64 843 65 844 66 845 64 843 65 844 67 846 66 845 67 846 68 847 66 845 67 846 69 847 68 847 70 848 72 849 71 848 70 848 73 850 72 849 73 850 74 851 72 849 73 850 75 852 74 851 75 852 76 853 74 851 75 852 77 854 76 853 77 854 78 855 76 853 77 854 79 855 78 855 80 856 82 857 81 856 80 856 83 858 82 857 83 858 84 859 82 857 83 858 85 860 84 859 85 860 86 861 84 859 85 860 87 862 86 861 87 862 88 863 86 861 87 862 89 863 88 863 90 864 92 865 91 864 90 864 93 866 92 865 93 866 94 867 92 865 93 866 95 868 94 867 95 868 96 869 94 867 95 868 97 870 96 869 97 870 98 871 96 869 97 870 99 871 98 871 100 872 102 873 101 872 100 872 103 874 102 873 103 874 104 875 102 873 103 874 105 876 104 875 105 876 106 877 104 875 105 876 107 878 106 877 107 878 108 879 106 877 107 878 109 879 108 879 110 880 112 881 111 880 110 880 113 882 112 881 113 882 114 883 112 881 113 882 115 884 114 883 115 884 116 885 114 883 115 884 117 886 116 885 117 886 118 887 116 885 117 886 119 887 118 887 120 888 122 889 121 888 120 888 123 890 122 889 123 890 124 891 122 889 123 890 125 892 124 891 125 892 126 893 124 891 125 892 127 894 126 893 127 894 128 895 126 893 127 894 129 895 128 895 130 896 132 897 131 896 130 896 133 898 132 897 133 898 134 899 132 897 133 898 135 900 134 899 135 900 136 901 134 899 135 900 137 902 136 901 137 902 138 903 136 901 137 902 139 903 138 903 140 904 142 905 141 904 140 904 143 906 142 905 143 906 144 907 142 905 143 906 145 908 144 907 145 908 146 909 144 907 145 908 147 910 146 909 147 910 148 911 146 909 147 910 149 911 148 911 150 912 152 913 151 912 150 912 153 914 152 913 153 914 154 915 152 913 153 914 155 916 154 915 155 916 156 917 154 915 155 916 157 918 156 917 157 918 158 919 156 917 157 918 159 919 158 919 160 920 162 921 161 920 160 920 163 922 162 921 163 922 164 923 162 921 163 922 165 924 164 923 165 924 166 925 164 923 165 924 167 926 166 925 167 926 168 927 166 925 167 926 169 927 168 927 170 928 172 929 171 928 170 928 173 930 172 929 173 930 174 931 172 929 173 930 175 932 174 931 175 932 176 933 174 931 175 932 177 934 176 933 177 934 178 935 176 933 177 934 179 935 178 935 180 936 182 937 181 936 180 936 183 938 182 937 183 938 184 939 182 937 183 938 185 940 184 939 185 940 186 941 184 939 185 940 187 942 186 941 187 942 188 943 186 941 187 942 189 943 188 943 190 944 192 945 191 944 190 944 193 946 192 945 193 946 194 947 192 945 193 946 195 948 194 947 195 948 196 949 194 947 195 948 197 950 196 949 197 950 198 951 196 949 197 950 199 951 198 951 200 952 202 953 201 952 200 952 203 954 202 953 203 954 204 955 202 953 203 954 205 956 204 955 205 956 206 957 204 955 205 956 207 958 206 957 207 958 208 959 206 957 207 958 209 959 208 959 210 960 212 961 211 960 210 960 213 962 212 961 213 962 214 963 212 961 213 962 215 964 214 963 215 964 216 965 214 963 215 964 217 966 216 965 217 966 218 967 216 965 217 966 219 967 218 967 220 968 222 969 221 968 220 968 223 970 222 969 223 970 224 971 222 969 223 970 225 972 224 971 225 972 226 973 224 971 225 972 227 974 226 973 227 974 228 975 226 973 227 974 229 975 228 975 230 976 232 977 231 976 230 976 233 978 232 977 233 978 234 979 232 977 233 978 235 980 234 979 235 980 236 981 234 979 235 980 237 982 236 981 237 982 238 983 236 981 237 982 239 983 238 983 240 984 242 985 241 984 240 984 243 985 242 985 243 985 244 986 242 985 243 985 245 986 244 986 245 986 246 987 244 986 245 986 247 987 246 987 247 987 248 988 246 987 247 987 249 988 248 988 250 989 252 990 251 989 250 989 253 991 252 990 253 991 254 992 252 990 253 991 255 993 254 992 255 993 256 994 254 992 255 993 257 995 256 994 257 995 258 996 256 994 257 995 259 996 258 996 260 997 262 998 261 997 260 997 263 999 262 998 263 999 264 1000 262 998 263 999 265 1001 264 1000 265 1001 266 1002 264 1000 265 1001 267 1003 266 1002 267 1003 268 1004 266 1002 267 1003 269 1004 268 1004 270 1005 272 1006 271 1005 270 1005 273 1007 272 1006 273 1007 274 1008 272 1006 273 1007 275 1009 274 1008 275 1009 276 1010 274 1008 275 1009 277 1011 276 1010 277 1011 278 1012 276 1010 277 1011 279 1012 278 1012 280 1013 282 1014 281 1013 280 1013 283 1015 282 1014 283 1015 284 1016 282 1014 283 1015 285 1017 284 1016 285 1017 286 1018 284 1016 285 1017 287 1019 286 1018 287 1019 288 1020 286 1018 287 1019 289 1020 288 1020 290 1021 292 1022 291 1021 290 1021 293 1023 292 1022 293 1023 294 1024 292 1022 293 1023 295 1025 294 1024 295 1025 296 1026 294 1024 295 1025 297 1027 296 1026 297 1027 298 1028 296 1026 297 1027 299 1028 298 1028 300 1029 302 1030 301 1029 300 1029 303 1031 302 1030 303 1031 304 1032 302 1030 303 1031 305 1033 304 1032 305 1033 306 1034 304 1032 305 1033 307 1035 306 1034 307 1035 308 1036 306 1034 307 1035 309 1036 308 1036 310 1037 312 1038 311 1037 310 1037 313 1039 312 1038 313 1039 314 1040 312 1038 313 1039 315 1041 314 1040 315 1041 316 1042 314 1040 315 1041 317 1043 316 1042 317 1043 318 1044 316 1042 317 1043 319 1044 318 1044 320 1045 322 1046 321 1045 320 1045 323 1047 322 1046 323 1047 324 1048 322 1046 323 1047 325 1049 324 1048 325 1049 326 1050 324 1048 325 1049 327 1051 326 1050 327 1051 328 1052 326 1050 327 1051 329 1052 328 1052 330 1053 332 1054 331 1053 330 1053 333 1055 332 1054 333 1055 334 1056 332 1054 333 1055 335 1057 334 1056 335 1057 336 1058 334 1056 335 1057 337 1059 336 1058 337 1059 338 1060 336 1058 337 1059 339 1060 338 1060 340 1061 342 1062 341 1061 340 1061 343 1063 342 1062 343 1063 344 1064 342 1062 343 1063 345 1065 344 1064 345 1065 346 1066 344 1064 345 1065 347 1067 346 1066 347 1067 348 1068 346 1066 347 1067 349 1068 348 1068 350 1069 352 1070 351 1069 350 1069 353 1071 352 1070 353 1071 354 1072 352 1070 353 1071 355 1073 354 1072 355 1073 356 1074 354 1072 355 1073 357 1075 356 1074 357 1075 358 1076 356 1074 357 1075 359 1076 358 1076 360 1077 362 1078 361 1077 360 1077 363 1079 362 1078 363 1079 364 1080 362 1078 363 1079 365 1081 364 1080 365 1081 366 1082 364 1080 365 1081 367 1083 366 1082 367 1083 368 1084 366 1082 367 1083 369 1084 368 1084 370 1085 372 1086 371 1085 370 1085 373 1087 372 1086 373 1087 374 1088 372 1086 373 1087 375 1089 374 1088 375 1089 376 1090 374 1088 375 1089 377 1091 376 1090 377 1091 378 1092 376 1090 377 1091 379 1092 378 1092 380 1093 382 1094 381 1093 380 1093 383 1095 382 1094 383 1095 384 1096 382 1094 383 1095 385 1097 384 1096 385 1097 386 1098 384 1096 385 1097 387 1099 386 1098 387 1099 388 1100 386 1098 387 1099 389 1100 388 1100 390 1101 392 1102 391 1101 390 1101 393 1102 392 1102 393 1102 394 1103 392 1102 393 1102 395 1104 394 1103 395 1104 396 1105 394 1103 395 1104 397 1105 396 1105 397 1105 398 1106 396 1105 397 1105 399 1106 398 1106 400 1107 402 1108 401 1107 400 1107 403 1109 402 1108 403 1109 404 1110 402 1108 403 1109 405 1111 404 1110 405 1111 406 1112 404 1110 405 1111 407 1113 406 1112 407 1113 408 1114 406 1112 407 1113 409 1114 408 1114 410 1115 412 1116 411 1115 410 1115 413 1117 412 1116 413 1117 414 1118 412 1116 413 1117 415 1119 414 1118 415 1119 416 1120 414 1118 415 1119 417 1121 416 1120 417 1121 418 1122 416 1120 417 1121 419 1122 418 1122 420 1123 422 1124 421 1123 420 1123 423 1125 422 1124 423 1125 424 1126 422 1124 423 1125 425 1127 424 1126 425 1127 426 1128 424 1126 425 1127 427 1129 426 1128 427 1129 428 1130 426 1128 427 1129 429 1130 428 1130 430 1131 432 1132 431 1131 430 1131 433 1133 432 1132 433 1133 434 1134 432 1132 433 1133 435 1135 434 1134 435 1135 436 1136 434 1134 435 1135 437 1137 436 1136 437 1137 438 1138 436 1136 437 1137 439 1138 438 1138 440 1139 442 1140 441 1139 440 1139 443 1140 442 1140 443 1140 444 1141 442 1140 443 1140 445 1142 444 1141 445 1142 446 1143 444 1141 445 1142 447 1144 446 1143 447 1144 448 1145 446 1143 447 1144 449 1145 448 1145 450 1146 452 1147 451 1146 450 1146 453 1148 452 1147 453 1148 454 1149 452 1147 453 1148 455 1150 454 1149 455 1150 456 1151 454 1149 455 1150 457 1152 456 1151 457 1152 458 1153 456 1151 457 1152 459 1153 458 1153 460 1154 462 1155 461 1154 460 1154 463 1156 462 1155 463 1156 464 1157 462 1155 463 1156 465 1158 464 1157 465 1158 466 1159 464 1157 465 1158 467 1160 466 1159 467 1160 468 1161 466 1159 467 1160 469 1161 468 1161 470 1162 472 1163 471 1162 470 1162 473 1164 472 1163 473 1164 474 1165 472 1163 473 1164 475 1166 474 1165 475 1166 476 1167 474 1165 475 1166 477 1168 476 1167 477 1168 478 1169 476 1167 477 1168 479 1169 478 1169 480 1170 482 1171 481 1170 480 1170 483 1172 482 1171 483 1172 484 1173 482 1171 483 1172 485 1174 484 1173 485 1174 486 1175 484 1173 485 1174 487 1176 486 1175 487 1176 488 1177 486 1175 487 1176 489 1177 488 1177 490 1178 492 1179 491 1178 490 1178 493 1180 492 1179 493 1180 494 1181 492 1179 493 1180 495 1182 494 1181 495 1182 496 1183 494 1181 495 1182 497 1184 496 1183 497 1184 498 1185 496 1183 497 1184 499 1185 498 1185 500 1186 502 1187 501 1186 500 1186 503 1188 502 1187 503 1188 504 1189 502 1187 503 1188 505 1190 504 1189 505 1190 506 1191 504 1189 505 1190 507 1192 506 1191 507 1192 508 1193 506 1191 507 1192 509 1193 508 1193 510 1194 512 1195 511 1194 510 1194 513 1196 512 1195 513 1196 514 1197 512 1195 513 1196 515 1198 514 1197 515 1198 516 1199 514 1197 515 1198 517 1200 516 1199 517 1200 518 1201 516 1199 517 1200 519 1201 518 1201 520 1202 522 1203 521 1202 520 1202 523 1204 522 1203 523 1204 524 1205 522 1203 523 1204 525 1206 524 1205 525 1206 526 1207 524 1205 525 1206 527 1208 526 1207 527 1208 528 1209 526 1207 527 1208 529 1209 528 1209 530 1210 532 1211 531 1210 530 1210 533 1212 532 1211 533 1212 534 1213 532 1211 533 1212 535 1214 534 1213 535 1214 536 1215 534 1213 535 1214 537 1216 536 1215 537 1216 538 1217 536 1215 537 1216 539 1217 538 1217 540 1218 542 1219 541 1218 540 1218 543 1220 542 1219 543 1220 544 1221 542 1219 543 1220 545 1222 544 1221 545 1222 546 1223 544 1221 545 1222 547 1224 546 1223 547 1224 548 1225 546 1223 547 1224 549 1225 548 1225 550 1226 552 1227 551 1226 550 1226 553 1228 552 1227 553 1228 554 1229 552 1227 553 1228 555 1230 554 1229 555 1230 556 1231 554 1229 555 1230 557 1232 556 1231 557 1232 558 1233 556 1231 557 1232 559 1233 558 1233 560 1234 562 1235 561 1234 560 1234 563 1236 562 1235 563 1236 564 1237 562 1235 563 1236 565 1238 564 1237 565 1238 566 1239 564 1237 565 1238 567 1240 566 1239 567 1240 568 1241 566 1239 567 1240 569 1241 568 1241 570 1242 572 1243 571 1242 570 1242 573 1244 572 1243 573 1244 574 1245 572 1243 573 1244 575 1246 574 1245 575 1246 576 1247 574 1245 575 1246 577 1248 576 1247 577 1248 578 1249 576 1247 577 1248 579 1249 578 1249 580 1250 582 1251 581 1250 580 1250 583 1252 582 1251 583 1252 584 1253 582 1251 583 1252 585 1254 584 1253 585 1254 586 1255 584 1253 585 1254 587 1256 586 1255 587 1256 588 1257 586 1255 587 1256 589 1257 588 1257 590 1258 592 1259 591 1258 590 1258 593 1260 592 1259 593 1260 594 1261 592 1259 593 1260 595 1262 594 1261 595 1262 596 1263 594 1261 595 1262 597 1264 596 1263 597 1264 598 1265 596 1263 597 1264 599 1265 598 1265 600 1266 602 1267 601 1266 600 1266 603 1268 602 1267 603 1268 604 1269 602 1267 603 1268 605 1270 604 1269 605 1270 606 1271 604 1269 605 1270 607 1272 606 1271 607 1272 608 1273 606 1271 607 1272 609 1273 608 1273 610 1274 612 1275 611 1274 610 1274 613 1276 612 1275 613 1276 614 1277 612 1275 613 1276 615 1278 614 1277 615 1278 616 1279 614 1277 615 1278 617 1280 616 1279 617 1280 618 1281 616 1279 617 1280 619 1281 618 1281 620 1282 622 1283 621 1282 620 1282 623 1284 622 1283 623 1284 624 1285 622 1283 623 1284 625 1286 624 1285 625 1286 626 1287 624 1285 625 1286 627 1288 626 1287 627 1288 628 1289 626 1287 627 1288 629 1289 628 1289 630 1290 632 1291 631 1290 630 1290 633 1292 632 1291 633 1292 634 1293 632 1291 633 1292 635 1294 634 1293 635 1294 636 1295 634 1293 635 1294 637 1296 636 1295 637 1296 638 1297 636 1295 637 1296 639 1297 638 1297 640 1298 642 1299 641 1298 640 1298 643 1299 642 1299 643 1299 644 1300 642 1299 643 1299 645 1300 644 1300 645 1300 646 1301 644 1300 645 1300 647 1302 646 1301 647 1302 648 1303 646 1301 647 1302 649 1303 648 1303</p></triangles>
        <triangles count="480" material="MAT_WEED_BROAD-mat"><input semantic="VERTEX" source="#weeds_-03-01_foliage-vtx" offset="0"/><input semantic="NORMAL" source="#weeds_-03-01_foliage-nrm" offset="1"/><p>650 512 651 513 652 514 650 512 652 514 653 515 650 512 653 515 654 516 650 512 654 516 655 517 650 512 655 517 656 518 650 512 656 518 657 519 650 512 657 519 658 520 650 512 658 520 659 521 650 512 659 521 660 522 650 512 660 522 661 523 650 512 661 523 662 524 650 512 662 524 663 525 650 512 663 525 664 526 650 512 664 526 665 527 650 512 665 527 666 528 650 512 666 528 667 529 668 530 669 531 670 532 668 530 670 532 671 533 668 530 671 533 672 534 668 530 672 534 673 535 668 530 673 535 674 536 668 530 674 536 675 537 668 530 675 537 676 538 668 530 676 538 677 539 668 530 677 539 678 540 668 530 678 540 679 541 668 530 679 541 680 542 668 530 680 542 681 543 668 530 681 543 682 544 668 530 682 544 683 545 668 530 683 545 684 546 668 530 684 546 685 547 686 548 687 549 688 549 686 548 688 549 689 550 686 548 689 550 690 551 686 548 690 551 691 552 686 548 691 552 692 553 686 548 692 553 693 554 686 548 693 554 694 555 686 548 694 555 695 556 686 548 695 556 696 557 686 548 696 557 697 558 686 548 697 558 698 559 686 548 698 559 699 552 686 548 699 552 700 560 686 548 700 560 701 561 686 548 701 561 702 562 686 548 702 562 703 563 704 564 705 565 706 566 704 564 706 566 707 567 704 564 707 567 708 568 704 564 708 568 709 569 704 564 709 569 710 570 704 564 710 570 711 571 704 564 711 571 712 572 704 564 712 572 713 573 704 564 713 573 714 574 704 564 714 574 715 575 704 564 715 575 716 576 704 564 716 576 717 577 704 564 717 577 718 578 704 564 718 578 719 579 704 564 719 579 720 580 704 564 720 580 721 581 722 582 723 583 724 584 722 582 724 584 725 585 722 582 725 585 726 586 722 582 726 586 727 587 722 582 727 587 728 588 722 582 728 588 729 589 722 582 729 589 730 590 722 582 730 590 731 591 722 582 731 591 732 592 722 582 732 592 733 593 722 582 733 593 734 594 722 582 734 594 735 595 722 582 735 595 736 596 722 582 736 596 737 597 722 582 737 597 738 598 722 582 738 598 739 599 740 600 741 601 742 602 740 600 742 602 743 603 740 600 743 603 744 604 740 600 744 604 745 605 740 600 745 605 746 606 740 600 746 606 747 607 740 600 747 607 748 608 740 600 748 608 749 609 740 600 749 609 750 610 740 600 750 610 751 611 740 600 751 611 752 612 740 600 752 612 753 613 740 600 753 613 754 614 740 600 754 614 755 615 740 600 755 615 756 616 740 600 756 616 757 617 758 618 759 619 760 620 758 618 760 620 761 621 758 618 761 621 762 622 758 618 762 622 763 623 758 618 763 623 764 624 758 618 764 624 765 625 758 618 765 625 766 626 758 618 766 626 767 627 758 618 767 627 768 628 758 618 768 628 769 629 758 618 769 629 770 630 758 618 770 630 771 631 758 618 771 631 772 632 758 618 772 632 773 633 758 618 773 633 774 634 758 618 774 634 775 635 776 636 777 637 778 638 776 636 778 638 779 639 776 636 779 639 780 640 776 636 780 640 781 641 776 636 781 641 782 642 776 636 782 642 783 643 776 636 783 643 784 644 776 636 784 644 785 645 776 636 785 645 786 646 776 636 786 646 787 647 776 636 787 647 788 648 776 636 788 648 789 649 776 636 789 649 790 650 776 636 790 650 791 651 776 636 791 651 792 652 776 636 792 652 793 653 794 654 795 655 796 656 794 654 796 656 797 657 794 654 797 657 798 658 794 654 798 658 799 659 794 654 799 659 800 660 794 654 800 660 801 661 794 654 801 661 802 662 794 654 802 662 803 663 794 654 803 663 804 664 794 654 804 664 805 665 794 654 805 665 806 666 794 654 806 666 807 667 794 654 807 667 808 668 794 654 808 668 809 669 794 654 809 669 810 670 794 654 810 670 811 671 812 672 813 673 814 674 812 672 814 674 815 675 812 672 815 675 816 676 812 672 816 676 817 677 812 672 817 677 818 678 812 672 818 678 819 679 812 672 819 679 820 680 812 672 820 680 821 681 822 682 823 683 824 684 822 682 824 684 825 685 822 682 825 685 826 686 822 682 826 686 827 687 822 682 827 687 828 688 822 682 828 688 829 689 822 682 829 689 830 690 822 682 830 690 831 691 832 692 833 693 834 694 832 692 834 694 835 695 832 692 835 695 836 696 832 692 836 696 837 697 832 692 837 697 838 698 832 692 838 698 839 699 832 692 839 699 840 700 832 692 840 700 841 701 842 702 843 703 844 704 842 702 844 704 845 705 842 702 845 705 846 706 842 702 846 706 847 707 842 702 847 707 848 708 842 702 848 708 849 709 842 702 849 709 850 710 842 702 850 710 851 711 852 712 853 713 854 714 852 712 854 714 855 715 852 712 855 715 856 716 852 712 856 716 857 717 852 712 857 717 858 718 852 712 858 718 859 719 852 712 859 719 860 720 852 712 860 720 861 721 862 722 863 723 864 724 862 722 864 724 865 725 862 722 865 725 866 726 862 722 866 726 867 727 862 722 867 727 868 728 862 722 868 728 869 729 862 722 869 729 870 730 862 722 870 730 871 731 872 732 873 733 874 734 872 732 874 734 875 735 872 732 875 735 876 736 872 732 876 736 877 737 872 732 877 737 878 738 872 732 878 738 879 739 872 732 879 739 880 740 872 732 880 740 881 741 882 742 883 743 884 744 882 742 884 744 885 745 882 742 885 745 886 746 882 742 886 746 887 747 882 742 887 747 888 748 882 742 888 748 889 749 882 742 889 749 890 750 882 742 890 750 891 751 892 752 893 753 894 754 892 752 894 754 895 755 892 752 895 755 896 756 892 752 896 756 897 757 892 752 897 757 898 758 892 752 898 758 899 759 892 752 899 759 900 760 892 752 900 760 901 761 902 762 903 763 904 764 902 762 904 764 905 765 902 762 905 765 906 766 902 762 906 766 907 767 902 762 907 767 908 768 902 762 908 768 909 769 902 762 909 769 910 770 902 762 910 770 911 771 912 772 913 773 914 774 912 772 914 774 915 775 912 772 915 775 916 776 912 772 916 776 917 777 912 772 917 777 918 778 912 772 918 778 919 779 912 772 919 779 920 780 912 772 920 780 921 781 922 782 923 783 924 784 922 782 924 784 925 785 922 782 925 785 926 786 922 782 926 786 927 787 922 782 927 787 928 788 922 782 928 788 929 789 922 782 929 789 930 790 922 782 930 790 931 791 650 1304 652 1306 651 1305 650 1304 653 1307 652 1306 650 1304 654 1308 653 1307 650 1304 655 1309 654 1308 650 1304 656 1310 655 1309 650 1304 657 1311 656 1310 650 1304 658 1312 657 1311 650 1304 659 1313 658 1312 650 1304 660 1314 659 1313 650 1304 661 1315 660 1314 650 1304 662 1316 661 1315 650 1304 663 1317 662 1316 650 1304 664 1318 663 1317 650 1304 665 1319 664 1318 650 1304 666 1320 665 1319 650 1304 667 1321 666 1320 668 1322 670 1324 669 1323 668 1322 671 1325 670 1324 668 1322 672 1326 671 1325 668 1322 673 1327 672 1326 668 1322 674 1328 673 1327 668 1322 675 1329 674 1328 668 1322 676 1330 675 1329 668 1322 677 1331 676 1330 668 1322 678 1332 677 1331 668 1322 679 1333 678 1332 668 1322 680 1334 679 1333 668 1322 681 1335 680 1334 668 1322 682 1336 681 1335 668 1322 683 1337 682 1336 668 1322 684 1338 683 1337 668 1322 685 1339 684 1338 686 1340 688 1341 687 1341 686 1340 689 1342 688 1341 686 1340 690 1343 689 1342 686 1340 691 1344 690 1343 686 1340 692 1345 691 1344 686 1340 693 1346 692 1345 686 1340 694 1347 693 1346 686 1340 695 1348 694 1347 686 1340 696 1349 695 1348 686 1340 697 1350 696 1349 686 1340 698 1351 697 1350 686 1340 699 1344 698 1351 686 1340 700 1352 699 1344 686 1340 701 1353 700 1352 686 1340 702 1354 701 1353 686 1340 703 1355 702 1354 704 1356 706 1358 705 1357 704 1356 707 1359 706 1358 704 1356 708 1360 707 1359 704 1356 709 1361 708 1360 704 1356 710 1362 709 1361 704 1356 711 1363 710 1362 704 1356 712 1364 711 1363 704 1356 713 1365 712 1364 704 1356 714 1366 713 1365 704 1356 715 1367 714 1366 704 1356 716 1368 715 1367 704 1356 717 1369 716 1368 704 1356 718 1370 717 1369 704 1356 719 1371 718 1370 704 1356 720 1372 719 1371 704 1356 721 1373 720 1372 722 1374 724 1376 723 1375 722 1374 725 1377 724 1376 722 1374 726 1378 725 1377 722 1374 727 1379 726 1378 722 1374 728 1380 727 1379 722 1374 729 1381 728 1380 722 1374 730 1382 729 1381 722 1374 731 1383 730 1382 722 1374 732 1384 731 1383 722 1374 733 1385 732 1384 722 1374 734 1386 733 1385 722 1374 735 1387 734 1386 722 1374 736 1388 735 1387 722 1374 737 1389 736 1388 722 1374 738 1390 737 1389 722 1374 739 1391 738 1390 740 1392 742 1394 741 1393 740 1392 743 1395 742 1394 740 1392 744 1396 743 1395 740 1392 745 1397 744 1396 740 1392 746 1398 745 1397 740 1392 747 1399 746 1398 740 1392 748 1400 747 1399 740 1392 749 1401 748 1400 740 1392 750 1402 749 1401 740 1392 751 1403 750 1402 740 1392 752 1404 751 1403 740 1392 753 1405 752 1404 740 1392 754 1406 753 1405 740 1392 755 1407 754 1406 740 1392 756 1408 755 1407 740 1392 757 1409 756 1408 758 1410 760 1412 759 1411 758 1410 761 1413 760 1412 758 1410 762 1414 761 1413 758 1410 763 1415 762 1414 758 1410 764 1416 763 1415 758 1410 765 1417 764 1416 758 1410 766 1418 765 1417 758 1410 767 1419 766 1418 758 1410 768 1420 767 1419 758 1410 769 1421 768 1420 758 1410 770 1422 769 1421 758 1410 771 1423 770 1422 758 1410 772 1424 771 1423 758 1410 773 1425 772 1424 758 1410 774 1426 773 1425 758 1410 775 1427 774 1426 776 1428 778 1430 777 1429 776 1428 779 1431 778 1430 776 1428 780 1432 779 1431 776 1428 781 1433 780 1432 776 1428 782 1434 781 1433 776 1428 783 1435 782 1434 776 1428 784 1436 783 1435 776 1428 785 1437 784 1436 776 1428 786 1438 785 1437 776 1428 787 1439 786 1438 776 1428 788 1440 787 1439 776 1428 789 1441 788 1440 776 1428 790 1442 789 1441 776 1428 791 1443 790 1442 776 1428 792 1444 791 1443 776 1428 793 1445 792 1444 794 1446 796 1448 795 1447 794 1446 797 1449 796 1448 794 1446 798 1450 797 1449 794 1446 799 1451 798 1450 794 1446 800 1452 799 1451 794 1446 801 1453 800 1452 794 1446 802 1454 801 1453 794 1446 803 1455 802 1454 794 1446 804 1456 803 1455 794 1446 805 1457 804 1456 794 1446 806 1458 805 1457 794 1446 807 1459 806 1458 794 1446 808 1460 807 1459 794 1446 809 1461 808 1460 794 1446 810 1462 809 1461 794 1446 811 1463 810 1462 812 1464 814 1466 813 1465 812 1464 815 1467 814 1466 812 1464 816 1468 815 1467 812 1464 817 1469 816 1468 812 1464 818 1470 817 1469 812 1464 819 1471 818 1470 812 1464 820 1472 819 1471 812 1464 821 1473 820 1472 822 1474 824 1476 823 1475 822 1474 825 1477 824 1476 822 1474 826 1478 825 1477 822 1474 827 1479 826 1478 822 1474 828 1480 827 1479 822 1474 829 1481 828 1480 822 1474 830 1482 829 1481 822 1474 831 1483 830 1482 832 1484 834 1486 833 1485 832 1484 835 1487 834 1486 832 1484 836 1488 835 1487 832 1484 837 1489 836 1488 832 1484 838 1490 837 1489 832 1484 839 1491 838 1490 832 1484 840 1492 839 1491 832 1484 841 1493 840 1492 842 1494 844 1496 843 1495 842 1494 845 1497 844 1496 842 1494 846 1498 845 1497 842 1494 847 1499 846 1498 842 1494 848 1500 847 1499 842 1494 849 1501 848 1500 842 1494 850 1502 849 1501 842 1494 851 1503 850 1502 852 1504 854 1506 853 1505 852 1504 855 1507 854 1506 852 1504 856 1508 855 1507 852 1504 857 1509 856 1508 852 1504 858 1510 857 1509 852 1504 859 1511 858 1510 852 1504 860 1512 859 1511 852 1504 861 1513 860 1512 862 1514 864 1516 863 1515 862 1514 865 1517 864 1516 862 1514 866 1518 865 1517 862 1514 867 1519 866 1518 862 1514 868 1520 867 1519 862 1514 869 1521 868 1520 862 1514 870 1522 869 1521 862 1514 871 1523 870 1522 872 1524 874 1526 873 1525 872 1524 875 1527 874 1526 872 1524 876 1528 875 1527 872 1524 877 1529 876 1528 872 1524 878 1530 877 1529 872 1524 879 1531 878 1530 872 1524 880 1532 879 1531 872 1524 881 1533 880 1532 882 1534 884 1536 883 1535 882 1534 885 1537 884 1536 882 1534 886 1538 885 1537 882 1534 887 1539 886 1538 882 1534 888 1540 887 1539 882 1534 889 1541 888 1540 882 1534 890 1542 889 1541 882 1534 891 1543 890 1542 892 1544 894 1546 893 1545 892 1544 895 1547 894 1546 892 1544 896 1548 895 1547 892 1544 897 1549 896 1548 892 1544 898 1550 897 1549 892 1544 899 1551 898 1550 892 1544 900 1552 899 1551 892 1544 901 1553 900 1552 902 1554 904 1556 903 1555 902 1554 905 1557 904 1556 902 1554 906 1558 905 1557 902 1554 907 1559 906 1558 902 1554 908 1560 907 1559 902 1554 909 1561 908 1560 902 1554 910 1562 909 1561 902 1554 911 1563 910 1562 912 1564 914 1566 913 1565 912 1564 915 1567 914 1566 912 1564 916 1568 915 1567 912 1564 917 1569 916 1568 912 1564 918 1570 917 1569 912 1564 919 1571 918 1570 912 1564 920 1572 919 1571 912 1564 921 1573 920 1572 922 1574 924 1576 923 1575 922 1574 925 1577 924 1576 922 1574 926 1578 925 1577 922 1574 927 1579 926 1578 922 1574 928 1580 927 1579 922 1574 929 1581 928 1580 922 1574 930 1582 929 1581 922 1574 931 1583 930 1582</p></triangles>
      </mesh>
    </geometry>
  </library_geometries>
  <library_visual_scenes><visual_scene id="scene" name="scene">
    <node id="weeds_-03-01_foliage" name="weeds_-03-01_foliage" type="NODE"><instance_geometry url="#weeds_-03-01_foliage-mesh"><bind_material><technique_common>
      <instance_material symbol="MAT_WEED_GRASS-mat" target="#MAT_WEED_GRASS"/>
      <instance_material symbol="MAT_WEED_BROAD-mat" target="#MAT_WEED_BROAD"/>
    </technique_common></bind_material></instance_geometry></node>
  </visual_scene></library_visual_scenes>
  <scene><instance_visual_scene url="#scene"/></scene>
<!-- vigil:double-sided -->
</COLLADA>
