<?xml version="1.0" encoding="utf-8"?>
<COLLADA xmlns="http://www.collada.org/2005/11/COLLADASchema" version="1.4.1">
  <asset>
    <contributor><authoring_tool>VIGIL SIH26126 farm generator</authoring_tool></contributor>
    <unit name="meter" meter="1"/>
    <up_axis>Z_UP</up_axis>
  </asset>
  <library_effects>
    <effect id="MAT_ROCK_2-fx"><profile_COMMON><technique sid="c"><lambert><diffuse><color>0.1080 0.0940 0.0760 1</color></diffuse></lambert></technique></profile_COMMON></effect>
  </library_effects>
  <library_materials>
    <material id="MAT_ROCK_2" name="MAT_ROCK_2"><instance_effect url="#MAT_ROCK_2-fx"/></material>
  </library_materials>
  <library_geometries>
    <geometry id="ROCK_M2-mesh" name="ROCK_M2">
      <mesh>
        <source id="ROCK_M2-pos"><float_array id="ROCK_M2-pos-a" count="486">-0.2 2.4 1.2473e-09 -0.2305 2.3735 1.2473e-09 -0.22716 2.4225 1.2473e-09 -0.3129 2.3018 1.2473e-09 -0.29773 2.315 1.2473e-09 -0.2826 2.2809 1.2473e-09 -0.18549 2.4444 1.2473e-09 -0.16291 2.4022 1.2473e-09 -0.19142 2.3623 1.2473e-09 -0.31177 2.2717 0.012387 -0.29201 2.4761 1.2473e-09 -0.29513 2.4355 1.2473e-09 -0.30992 2.4615 0.017176 -0.15812 2.5282 1.2473e-09 -0.18943 2.5269 1.2473e-09 -0.17178 2.5474 0.017448 -0.07867 2.4073 1.2473e-09 -0.098519 2.4395 1.2473e-09 -0.084017 2.4276 0.019896 -0.17224 2.278 1.2473e-09 -0.13869 2.287 1.2473e-09 -0.14611 2.2609 0.015056 -0.34414 2.3076 0.010303 -0.29685 2.5137 0.01299 -0.13575 2.5357 0.017421 -0.074097 2.3847 0.016971 -0.18604 2.2368 0.013685 -0.32918 2.3922 0.10581 -0.32008 2.3533 0.11188 -0.28654 2.3948 0.11573 -0.232 2.5407 0.10556 -0.26357 2.5172 0.11326 -0.22284 2.5004 0.11989 -0.10921 2.4789 0.095886 -0.11591 2.5212 0.11384 -0.1305 2.4604 0.11224 -0.10016 2.3174 0.10589 -0.088222 2.3583 0.11136 -0.12285 2.3362 0.12634 -0.2523 2.2399 0.11146 -0.21176 2.2589 0.11073 -0.24413 2.2649 0.14182 -0.21268 2.3612 0.16726 -0.17367 2.3782 0.16645 -0.2 2.4 0.1727 -0.23288 2.2993 0.17789 -0.18502 2.3342 0.15646 -0.19864 2.2819 0.14393 -0.15121 2.3596 0.13999 -0.15924 2.3164 0.12964 -0.17349 2.2835 0.10695 -0.14188 2.309 0.1014 -0.16944 2.4266 0.17345 -0.14017 2.4036 0.15576 -0.11034 2.3797 0.13631 -0.13677 2.455 0.15688 -0.1146 2.4289 0.12952 -0.096416 2.4062 0.10529 -0.10983 2.4427 0.096642 -0.20827 2.4363 0.16338 -0.17778 2.468 0.15637 -0.14616 2.4957 0.13578 -0.21761 2.4774 0.1511 -0.18622 2.5155 0.14107 -0.15073 2.5509 0.12203 -0.19634 2.5473 0.11374 -0.2339 2.398 0.1657 -0.2466 2.4386 0.15674 -0.25795 2.4823 0.13911 -0.27171 2.3957 0.15246 -0.2766 2.4332 0.12811 -0.29165 2.4758 0.11379 -0.30071 2.4283 0.10346 -0.25744 2.3501 0.17034 -0.27885 2.3584 0.12626 -0.27195 2.3039 0.1455 -0.30149 2.3118 0.11446 -0.28157 2.2664 0.11743 -0.23082 2.2391 0.079783 -0.20893 2.235 0.047241 -0.18899 2.2441 0.082636 -0.16575 2.2495 0.047241 -0.14798 2.272 0.080388 -0.12878 2.2791 0.047241 -0.11358 2.2986 0.077801 -0.072925 2.3289 0.081998 -0.053966 2.3523 0.047241 -0.062428 2.3805 0.084043 -0.077816 2.4073 0.047241 -0.083762 2.43 0.077668 -0.072283 2.4551 0.047241 -0.082662 2.4752 0.07731 -0.10539 2.5086 0.076745 -0.12716 2.5118 0.047241 -0.12725 2.5483 0.083634 -0.14889 2.5565 0.047241 -0.17078 2.565 0.084157 -0.19032 2.5787 0.047241 -0.21362 2.5593 0.079982 -0.25591 2.5443 0.080635 -0.27681 2.5304 0.047241 -0.29521 2.516 0.085284 -0.3113 2.4921 0.047241 -0.31534 2.4616 0.081867 -0.3287 2.442 0.047241 -0.33297 2.4162 0.079209 -0.3443 2.3656 0.081262 -0.33966 2.3398 0.047241 -0.3385 2.3144 0.086301 -0.32331 2.2928 0.047241 -0.3016 2.2798 0.082887 -0.28465 2.27 0.047241 -0.27039 2.2513 0.079907 -0.091368 2.3101 0.047241 -0.12404 2.3074 0.01689 -0.084624 2.3384 0.012604 -0.10017 2.3174 1.2473e-09 -0.072003 2.364 1.2473e-09 -0.084678 2.5003 0.047241 -0.080667 2.4737 0.013587 -0.10938 2.5072 0.015448 -0.09953 2.4874 1.2473e-09 -0.12646 2.5204 1.2473e-09 -0.23611 2.5587 0.047241 -0.21181 2.5671 0.0093005 -0.25802 2.5427 0.010275 -0.23007 2.5321 1.2473e-09 -0.26958 2.5089 1.2473e-09 -0.35779 2.3905 0.047241 -0.32473 2.4177 0.013875 -0.34228 2.3633 0.0099983 -0.30856 2.3935 1.2473e-09 -0.32929 2.3387 1.2473e-09 -0.25122 2.2432 0.047241 -0.27084 2.2556 0.011805 -0.22425 2.2631 0.016609 -0.24002 2.2775 1.2473e-09 -0.20356 2.2567 1.2473e-09 -0.17683 2.2982 1.2473e-09 -0.1843 2.331 1.2473e-09 -0.139 2.3134 1.2473e-09 -0.1528 2.3609 1.2473e-09 -0.10259 2.3578 1.2473e-09 -0.12213 2.4047 1.2473e-09 -0.087355 2.4068 1.2473e-09 -0.10781 2.4487 1.2473e-09 -0.13764 2.4542 1.2473e-09 -0.1206 2.506 1.2473e-09 -0.1681 2.4977 1.2473e-09 -0.15945 2.5242 1.2473e-09 -0.20121 2.5053 1.2473e-09 -0.21607 2.4706 1.2473e-09 -0.24257 2.4873 1.2473e-09 -0.25094 2.4422 1.2473e-09 -0.28318 2.4688 1.2473e-09 -0.21247 2.2955 1.2473e-09 -0.2621 2.2897 1.2473e-09 -0.22324 2.3289 1.2473e-09 -0.26504 2.3434 1.2473e-09 -0.28341 2.4189 1.2473e-09 -0.25915 2.3964 1.2473e-09 -0.29323 2.3685 1.2473e-09</float_array><technique_common><accessor source="#ROCK_M2-pos-a" count="162" stride="3"><param name="X" type="float"/><param name="Y" type="float"/><param name="Z" type="float"/></accessor></technique_common></source>
        <source id="ROCK_M2-nrm"><float_array id="ROCK_M2-nrm-a" count="720">0 0 -1 -0.259 -0.376 -0.89 -0.714 0.055 -0.698 -0.029 0.662 -0.749 0.814 0.502 -0.294 0.14 -0.525 -0.839 -0.352 -0.367 -0.861 -0.74 0.133 -0.659 0.239 0.742 -0.627 0.974 0.223 0.034 0.261 -0.382 -0.886 -0.231 0.097 0.968 -0.016 0.332 0.943 0.695 -0.185 0.695 0.519 -0.26 0.815 0.368 -0.764 0.53 0.094 -0.168 0.981 0.39 0.031 0.921 0.247 -0.738 0.628 0.129 -0.251 0.959 0.599 -0.321 0.734 0.575 -0.33 0.749 0.563 -0.329 0.758 0.587 -0.29 0.756 0.23 -0.267 0.936 0.291 -0.836 0.464 0.533 -0.779 0.329 0.677 -0.593 0.435 0.589 -0.616 0.523 0.452 -0.754 0.476 0.063 -0.699 0.712 0.108 -0.152 0.983 0.54 -0.401 0.74 0.22 -0.277 0.935 0.412 -0.166 0.896 0.487 -0.051 0.872 0.268 -0.384 0.883 0.626 0.16 0.763 0.745 -0.064 0.664 0.835 0.52 0.181 0.545 -0.333 0.769 0.814 0.208 0.543 0.851 0.143 0.505 0.874 0.39 0.291 0.747 0.567 0.347 0.606 0.006 0.796 -0.198 0.201 0.959 0.115 0.398 0.91 0.938 0.304 0.169 -0.152 0.35 0.924 -0.063 0.273 0.96 0.143 0.482 0.865 0.287 0.34 0.896 -0.056 0.297 0.953 -0.57 0.613 0.547 0.673 -0.18 0.718 0.419 0.252 0.872 0.249 0.253 0.935 -0.188 0.606 0.773 -0.578 0.419 0.7 -0.262 0.27 0.926 -0.209 0.198 0.958 -0.151 0.252 0.956 -0.081 0.796 0.6 -0.159 0.165 0.973 -0.334 0.102 0.937 -0.236 0.31 0.921 -0.696 0.105 0.71 -0.681 0.334 0.651 -0.922 0.12 0.369 0.121 0.603 0.788 -0.596 0.413 0.688 -0.606 0.052 0.794 -0.713 -0.016 0.701 -0.71 -0.043 0.703 -0.234 0.246 0.941 -0.197 -0.072 0.978 -0.333 0.252 0.909 -0.923 -0.087 0.375 0.051 0.071 0.996 0.028 0.16 0.987 -0.902 -0.119 0.415 -0.895 0.043 0.443 -0.639 -0.199 0.743 -0.592 -0.483 0.646 -0.344 0.193 0.919 -0.319 -0.084 0.944 -0.695 0.16 0.701 -0.73 -0.28 0.624 -0.505 -0.43 0.748 -0.442 -0.63 0.638 0.41 -0.861 0.3 0.106 -0.976 0.192 0.313 -0.935 0.165 0.07 -0.859 0.508 0.446 -0.591 0.672 0.317 -0.946 0.065 0.554 -0.796 0.244 0.439 -0.591 0.677 0.516 -0.486 0.706 0.517 -0.856 0.011 0.622 -0.776 0.104 0.614 -0.766 0.191 0.609 -0.771 0.187 0.44 -0.497 0.748 0.115 -0.85 0.514 0.697 -0.291 0.655 0.911 -0.2 0.362 0.902 0.391 -0.182 0.785 -0.183 0.592 0.625 0.202 0.754 0.914 0.396 -0.093 0.918 0.382 -0.105 0.679 0.374 0.632 0.659 0.394 0.641 0.972 0.228 -0.051 0.949 -0.11 -0.297 0.957 -0.111 0.269 0.941 -0.02 0.338 0.586 -0.008 0.81 0.574 0.007 0.819 0.965 0.043 0.259 0.728 0.485 -0.484 0.895 0.436 0.091 0.879 0.468 0.09 0.653 0.669 0.355 0.824 0.401 -0.4 0.358 0.934 -0.003 0.355 0.922 0.156 -0.146 0.899 0.413 0.271 0.842 -0.466 0.4 0.744 -0.535 0.472 0.878 0.077 -0.161 0.894 0.418 -0.16 0.901 0.402 -0.26 0.86 0.439 -0.425 0.743 0.517 -0.582 0.813 0.025 -0.738 0.666 0.108 -0.468 0.731 0.497 -0.61 0.422 0.671 -0.739 0.666 -0.106 -0.926 0.331 0.184 -0.827 0.275 0.491 -0.808 0.026 0.588 -0.941 0.215 -0.262 -0.884 0.307 -0.353 -0.93 0.323 0.177 -0.923 0.349 0.159 -0.636 0.204 0.744 -0.628 0.532 0.568 -0.799 -0.094 0.594 -0.992 -0.117 -0.047 -0.877 -0.305 0.372 -0.79 -0.029 0.613 -0.601 -0.221 0.768 -0.929 -0.323 -0.182 -0.67 -0.729 0.143 -0.51 -0.604 0.613 -0.862 -0.355 0.362 -0.739 -0.657 0.152 -0.478 -0.813 0.333 -0.507 -0.862 -0.004 -0.676 -0.727 -0.121 -0.666 -0.739 0.099 -0.656 -0.747 0.105 0.559 -0.787 0.259 0.628 -0.759 0.17 0.88 -0.408 -0.243 0.585 -0.802 0.123 0.748 -0.663 -0.039 0.542 -0.655 -0.526 0.508 -0.713 -0.484 0.696 -0.617 -0.369 0.766 -0.115 -0.632 0.874 -0.404 -0.268 0.573 -0.725 0.383 0.588 -0.689 0.425 0.84 -0.508 -0.189 0.885 -0.239 0.4 0.986 0.152 -0.063 0.564 0.396 0.725 0.953 0.261 0.154 0.76 0.523 0.386 0.262 0.961 -0.088 0.96 0.263 -0.093 0.685 0.61 -0.399 0.263 0.965 0.005 0.71 0.635 0.304 0.758 -0.142 -0.637 0.59 0.012 -0.807 0.701 0.621 -0.35 0.74 0.602 -0.301 0.711 0.671 -0.21 0.193 0.786 -0.587 -0.298 0.861 0.412 -0.388 0.887 0.252 0.463 0.739 -0.49 -0.323 0.924 0.206 -0.571 0.82 0.015 -0.4 0.915 -0.055 -0.465 0.879 -0.104 -0.571 0.82 -0.016 -0.6 0.799 -0.038 0.367 0.399 -0.84 0.031 0.242 -0.97 -0.203 0.35 -0.914 -0.204 0.348 -0.915 -0.343 0.379 -0.859 -0.378 0.259 -0.889 -0.919 0.219 0.328 -0.838 0.473 0.271 -0.882 0.324 -0.341 -0.847 0.21 0.489 -0.934 -0.334 0.126 -0.79 0.446 -0.419 -0.788 0.293 -0.542 -0.932 -0.333 -0.145 -0.995 0.034 0.091 -0.526 0.239 -0.816 -0.496 0.158 -0.854 -0.442 0.205 -0.873 -0.404 0.153 -0.902 -0.591 0.015 -0.806 -0.334 -0.149 -0.931 -0.292 -0.94 -0.174 -0.617 -0.768 -0.17 -0.354 -0.906 0.231 -0.295 -0.953 0.065 -0.189 -0.982 -0.006 -0.625 -0.777 0.073 0.186 -0.89 -0.415 -0.147 -0.765 -0.627 -0.539 -0.738 -0.406 -0.205 -0.49 -0.848 -0.035 -0.435 -0.9 0.181 -0.652 -0.736 -0.477 -0.836 -0.272 -0.542 -0.745 -0.389 0.259 -0.382 -0.887</float_array><technique_common><accessor source="#ROCK_M2-nrm-a" count="240" stride="3"><param name="X" type="float"/><param name="Y" type="float"/><param name="Z" type="float"/></accessor></technique_common></source>
        <vertices id="ROCK_M2-vtx"><input semantic="POSITION" source="#ROCK_M2-pos"/></vertices>
        <triangles count="320" material="MAT_ROCK_2-mat"><input semantic="VERTEX" source="#ROCK_M2-vtx" offset="0"/><input semantic="NORMAL" source="#ROCK_M2-nrm" offset="1"/><p>0 0 1 0 2 0 3 0 4 0 5 0 0 0 2 0 6 0 0 0 6 0 7 0 0 0 7 0 8 0 3 1 5 1 9 1 10 2 11 2 12 2 13 3 14 3 15 3 16 4 17 4 18 4 19 5 20 5 21 5 3 6 9 6 22 6 10 7 12 7 23 7 13 8 15 8 24 8 16 9 18 9 25 9 19 10 21 10 26 10 27 11 28 11 29 11 30 12 31 12 32 12 33 13 34 13 35 13 36 14 37 14 38 14 39 15 40 15 41 15 42 16 43 16 44 16 45 17 46 17 42 17 41 18 47 18 45 18 42 19 46 19 43 19 46 20 48 20 43 20 45 21 47 21 46 21 47 22 49 22 46 22 46 23 49 23 48 23 49 24 38 24 48 24 41 25 40 25 47 25 40 26 50 26 47 26 47 27 50 27 49 27 50 28 51 28 49 28 49 29 51 29 38 29 51 30 36 30 38 30 43 31 52 31 44 31 48 32 53 32 43 32 38 33 54 33 48 33 43 34 53 34 52 34 53 35 55 35 52 35 48 36 54 36 53 36 54 37 56 37 53 37 53 38 56 38 55 38 56 39 35 39 55 39 38 40 37 40 54 40 37 41 57 41 54 41 54 42 57 42 56 42 57 43 58 43 56 43 56 44 58 44 35 44 58 45 33 45 35 45 52 46 59 46 44 46 55 47 60 47 52 47 35 48 61 48 55 48 52 49 60 49 59 49 60 50 62 50 59 50 55 51 61 51 60 51 61 52 63 52 60 52 60 53 63 53 62 53 63 54 32 54 62 54 35 55 34 55 61 55 34 56 64 56 61 56 61 57 64 57 63 57 64 58 65 58 63 58 63 59 65 59 32 59 65 60 30 60 32 60 59 61 66 61 44 61 62 62 67 62 59 62 32 63 68 63 62 63 59 64 67 64 66 64 67 65 69 65 66 65 62 66 68 66 67 66 68 67 70 67 67 67 67 68 70 68 69 68 70 69 29 69 69 69 32 70 31 70 68 70 31 71 71 71 68 71 68 72 71 72 70 72 71 73 72 73 70 73 70 74 72 74 29 74 72 75 27 75 29 75 66 76 42 76 44 76 69 77 73 77 66 77 29 78 74 78 69 78 66 79 73 79 42 79 73 80 45 80 42 80 69 81 74 81 73 81 74 82 75 82 73 82 73 83 75 83 45 83 75 84 41 84 45 84 29 85 28 85 74 85 28 86 76 86 74 86 74 87 76 87 75 87 76 88 77 88 75 88 75 89 77 89 41 89 77 90 39 90 41 90 78 91 40 91 39 91 79 92 80 92 78 92 26 93 81 93 79 93 78 94 80 94 40 94 80 95 50 95 40 95 79 96 81 96 80 96 81 97 82 97 80 97 80 98 82 98 50 98 82 99 51 99 50 99 26 100 21 100 81 100 21 101 83 101 81 101 81 102 83 102 82 102 83 103 84 103 82 103 82 104 84 104 51 104 84 105 36 105 51 105 85 106 37 106 36 106 86 107 87 107 85 107 25 108 88 108 86 108 85 109 87 109 37 109 87 110 57 110 37 110 86 111 88 111 87 111 88 112 89 112 87 112 87 113 89 113 57 113 89 114 58 114 57 114 25 115 18 115 88 115 18 116 90 116 88 116 88 117 90 117 89 117 90 118 91 118 89 118 89 119 91 119 58 119 91 120 33 120 58 120 92 121 34 121 33 121 93 122 94 122 92 122 24 123 95 123 93 123 92 124 94 124 34 124 94 125 64 125 34 125 93 126 95 126 94 126 95 127 96 127 94 127 94 128 96 128 64 128 96 129 65 129 64 129 24 130 15 130 95 130 15 131 97 131 95 131 95 132 97 132 96 132 97 133 98 133 96 133 96 134 98 134 65 134 98 135 30 135 65 135 99 136 31 136 30 136 100 137 101 137 99 137 23 138 102 138 100 138 99 139 101 139 31 139 101 140 71 140 31 140 100 141 102 141 101 141 102 142 103 142 101 142 101 143 103 143 71 143 103 144 72 144 71 144 23 145 12 145 102 145 12 146 104 146 102 146 102 147 104 147 103 147 104 148 105 148 103 148 103 149 105 149 72 149 105 150 27 150 72 150 106 151 28 151 27 151 107 152 108 152 106 152 22 153 109 153 107 153 106 154 108 154 28 154 108 155 76 155 28 155 107 156 109 156 108 156 109 157 110 157 108 157 108 158 110 158 76 158 110 159 77 159 76 159 22 160 9 160 109 160 9 161 111 161 109 161 109 162 111 162 110 162 111 163 112 163 110 163 110 164 112 164 77 164 112 165 39 165 77 165 84 166 85 166 36 166 83 167 113 167 84 167 21 168 114 168 83 168 84 169 113 169 85 169 113 170 86 170 85 170 83 171 114 171 113 171 114 172 115 172 113 172 113 173 115 173 86 173 115 174 25 174 86 174 21 175 20 175 114 175 20 176 116 176 114 176 114 177 116 177 115 177 116 178 117 178 115 178 115 179 117 179 25 179 117 180 16 180 25 180 91 181 92 181 33 181 90 182 118 182 91 182 18 116 119 116 90 116 91 183 118 183 92 183 118 184 93 184 92 184 90 185 119 185 118 185 119 186 120 186 118 186 118 187 120 187 93 187 120 188 24 188 93 188 18 189 17 189 119 189 17 190 121 190 119 190 119 191 121 191 120 191 121 192 122 192 120 192 120 193 122 193 24 193 122 194 13 194 24 194 98 195 99 195 30 195 97 196 123 196 98 196 15 197 124 197 97 197 98 198 123 198 99 198 123 199 100 199 99 199 97 200 124 200 123 200 124 201 125 201 123 201 123 202 125 202 100 202 125 203 23 203 100 203 15 204 14 204 124 204 14 205 126 205 124 205 124 206 126 206 125 206 126 207 127 207 125 207 125 208 127 208 23 208 127 209 10 209 23 209 105 210 106 210 27 210 104 211 128 211 105 211 12 212 129 212 104 212 105 213 128 213 106 213 128 214 107 214 106 214 104 215 129 215 128 215 129 216 130 216 128 216 128 217 130 217 107 217 130 218 22 218 107 218 12 219 11 219 129 219 11 220 131 220 129 220 129 221 131 221 130 221 131 222 132 222 130 222 130 223 132 223 22 223 132 224 3 224 22 224 112 225 78 225 39 225 111 226 133 226 112 226 9 227 134 227 111 227 112 228 133 228 78 228 133 229 79 229 78 229 111 230 134 230 133 230 134 231 135 231 133 231 133 232 135 232 79 232 135 233 26 233 79 233 9 234 5 234 134 234 5 235 136 235 134 235 134 236 136 236 135 236 136 237 137 237 135 237 135 238 137 238 26 238 137 239 19 239 26 239 138 0 20 0 19 0 139 0 140 0 138 0 8 0 141 0 139 0 138 0 140 0 20 0 140 0 116 0 20 0 139 0 141 0 140 0 141 0 142 0 140 0 140 0 142 0 116 0 142 0 117 0 116 0 8 0 7 0 141 0 7 0 143 0 141 0 141 0 143 0 142 0 143 0 144 0 142 0 142 0 144 0 117 0 144 0 16 0 117 0 144 0 17 0 16 0 143 0 145 0 144 0 7 0 146 0 143 0 144 0 145 0 17 0 145 0 121 0 17 0 143 0 146 0 145 0 146 0 147 0 145 0 145 0 147 0 121 0 147 0 122 0 121 0 7 0 6 0 146 0 6 0 148 0 146 0 146 0 148 0 147 0 148 0 149 0 147 0 147 0 149 0 122 0 149 0 13 0 122 0 149 0 14 0 13 0 148 0 150 0 149 0 6 0 151 0 148 0 149 0 150 0 14 0 150 0 126 0 14 0 148 0 151 0 150 0 151 0 152 0 150 0 150 0 152 0 126 0 152 0 127 0 126 0 6 0 2 0 151 0 2 0 153 0 151 0 151 0 153 0 152 0 153 0 154 0 152 0 152 0 154 0 127 0 154 0 10 0 127 0 137 0 138 0 19 0 136 0 155 0 137 0 5 0 156 0 136 0 137 0 155 0 138 0 155 0 139 0 138 0 136 0 156 0 155 0 156 0 157 0 155 0 155 0 157 0 139 0 157 0 8 0 139 0 5 0 4 0 156 0 4 0 158 0 156 0 156 0 158 0 157 0 158 0 1 0 157 0 157 0 1 0 8 0 1 0 0 0 8 0 154 0 11 0 10 0 153 0 159 0 154 0 2 0 160 0 153 0 154 0 159 0 11 0 159 0 131 0 11 0 153 0 160 0 159 0 160 0 161 0 159 0 159 0 161 0 131 0 161 0 132 0 131 0 2 0 1 0 160 0 1 0 158 0 160 0 160 0 158 0 161 0 158 0 4 0 161 0 161 0 4 0 132 0 4 0 3 0 132 0</p></triangles>
      </mesh>
    </geometry>
  </library_geometries>
  <library_visual_scenes><visual_scene id="scene" name="scene">
    <node id="ROCK_M2" name="ROCK_M2" type="NODE"><instance_geometry url="#ROCK_M2-mesh"><bind_material><technique_common>
      <instance_material symbol="MAT_ROCK_2-mat" target="#MAT_ROCK_2"/>
    </technique_common></bind_material></instance_geometry></node>
  </visual_scene></library_visual_scenes>
  <scene><instance_visual_scene url="#scene"/></scene>
</COLLADA>
