<?xml version="1.0" encoding="utf-8"?>
<COLLADA xmlns="http://www.collada.org/2005/11/COLLADASchema" version="1.4.1">
  <asset>
    <contributor><authoring_tool>VIGIL SIH26126 farm generator</authoring_tool></contributor>
    <unit name="meter" meter="1"/>
    <up_axis>Z_UP</up_axis>
  </asset>
  <library_effects>
    <effect id="MAT_ROCK_1-fx"><profile_COMMON><technique sid="c"><lambert><diffuse><color>0.0750 0.0680 0.0580 1</color></diffuse></lambert></technique></profile_COMMON></effect>
  </library_effects>
  <library_materials>
    <material id="MAT_ROCK_1" name="MAT_ROCK_1"><instance_effect url="#MAT_ROCK_1-fx"/></material>
  </library_materials>
  <library_geometries>
    <geometry id="ROCK_M1-mesh" name="ROCK_M1">
      <mesh>
        <source id="ROCK_M1-pos"><float_array id="ROCK_M1-pos-a" count="486">-0.75 2.4 -1.0908e-11 -0.72187 2.388 -1.0908e-11 -0.74402 2.3608 -1.0908e-11 -0.64282 2.3544 -1.0908e-11 -0.65466 2.3594 -1.0908e-11 -0.64467 2.3915 -1.0908e-11 -0.77884 2.3884 -1.0908e-11 -0.7719 2.431 -1.0908e-11 -0.73819 2.4278 -1.0908e-11 -0.64105 2.3741 0.0095722 -0.73191 2.2813 -1.0908e-11 -0.70994 2.293 -1.0908e-11 -0.71235 2.2616 0.0091732 -0.83896 2.3642 -1.0908e-11 -0.82151 2.3321 -1.0908e-11 -0.83745 2.3411 0.0092697 -0.83068 2.5143 -1.0908e-11 -0.84606 2.4863 -1.0908e-11 -0.85624 2.5177 0.0060181 -0.69784 2.5226 -1.0908e-11 -0.7316 2.538 -1.0908e-11 -0.71656 2.5315 0.0075994 -0.6371 2.3299 0.0080546 -0.74522 2.2496 0.0072082 -0.85195 2.3821 0.0096324 -0.83438 2.5543 0.0045871 -0.67803 2.5119 0.0058232 -0.66706 2.2825 0.069368 -0.6483 2.3087 0.076116 -0.68417 2.3068 0.084738 -0.80191 2.278 0.072725 -0.76698 2.2727 0.07411 -0.78777 2.3112 0.084407 -0.8561 2.4452 0.067089 -0.84795 2.4079 0.070024 -0.83401 2.4358 0.081457 -0.77355 2.5545 0.072838 -0.80208 2.5391 0.076285 -0.77032 2.5333 0.09478 -0.65343 2.4389 0.068335 -0.67494 2.4713 0.072915 -0.68122 2.4277 0.077779 -0.72677 2.4094 0.10152 -0.75492 2.4323 0.099255 -0.75 2.4 0.10653 -0.70405 2.4185 0.089313 -0.73021 2.4465 0.095444 -0.70434 2.4574 0.083475 -0.76254 2.4823 0.1042 -0.7328 2.4999 0.093848 -0.70449 2.507 0.076344 -0.74059 2.5286 0.073471 -0.77476 2.4105 0.097128 -0.78612 2.4512 0.098973 -0.79786 2.502 0.093614 -0.80481 2.4233 0.092351 -0.81595 2.4636 0.085306 -0.82752 2.5098 0.075567 -0.8554 2.4839 0.076291 -0.76299 2.3695 0.11294 -0.79276 2.3828 0.098297 -0.83255 2.3949 0.092653 -0.77675 2.3371 0.10161 -0.8164 2.3435 0.096067 -0.83837 2.3644 0.073433 -0.82378 2.3166 0.075437 -0.72747 2.3681 0.11301 -0.74057 2.3381 0.098951 -0.7536 2.3037 0.088225 -0.70263 2.3329 0.10321 -0.72038 2.3128 0.081904 -0.7333 2.2905 0.067478 -0.69625 2.2756 0.07216 -0.69873 2.3782 0.10218 -0.66792 2.3396 0.094174 -0.68686 2.3916 0.076378 -0.65113 2.3579 0.072799 -0.65 2.4006 0.071429 -0.64624 2.4698 0.053451 -0.65281 2.5008 0.029476 -0.68287 2.5001 0.053335 -0.70294 2.5106 0.029476 -0.71993 2.5267 0.052614 -0.73696 2.5267 0.029476 -0.75446 2.5405 0.050267 -0.79406 2.562 0.053234 -0.81694 2.5661 0.029476 -0.82376 2.5389 0.054119 -0.84964 2.5411 0.029476 -0.8593 2.5178 0.05593 -0.87378 2.5047 0.029476 -0.87568 2.4781 0.05332 -0.86346 2.427 0.050204 -0.85682 2.404 0.029476 -0.84432 2.3856 0.049701 -0.84309 2.3625 0.029476 -0.83496 2.34 0.051527 -0.81832 2.3291 0.029476 -0.8165 2.2966 0.051331 -0.78366 2.2676 0.051496 -0.76462 2.2579 0.029476 -0.74716 2.2444 0.055085 -0.72569 2.2405 0.029476 -0.70835 2.254 0.05327 -0.6851 2.2389 0.029476 -0.67127 2.2561 0.0527 -0.62642 2.2631 0.056762 -0.62952 2.2981 0.029476 -0.64846 2.3347 0.050934 -0.64935 2.3572 0.029476 -0.64326 2.3768 0.051105 -0.6316 2.3955 0.029476 -0.63265 2.4206 0.052315 -0.77558 2.5678 0.029476 -0.75236 2.529 0.0082464 -0.79052 2.542 0.0063295 -0.7698 2.5299 -1.0908e-11 -0.80338 2.5235 -1.0908e-11 -0.86798 2.4502 0.029476 -0.87227 2.4787 0.0036353 -0.87334 2.4268 0.0044824 -0.86738 2.45 -1.0908e-11 -0.84807 2.3994 -1.0908e-11 -0.80464 2.2716 0.029476 -0.8135 2.3054 0.0069063 -0.78003 2.2735 0.0063617 -0.78947 2.3072 -1.0908e-11 -0.75825 2.2873 -1.0908e-11 -0.64489 2.2511 0.029476 -0.68067 2.2695 0.0063134 -0.63852 2.2798 0.0024949 -0.67937 2.3 -1.0908e-11 -0.64104 2.3133 -1.0908e-11 -0.63467 2.4465 0.029476 -0.62431 2.4191 0.0025236 -0.63448 2.4816 -1.0908e-11 -0.64002 2.4443 -1.0908e-11 -0.66549 2.4956 -1.0908e-11 -0.70669 2.5018 -1.0908e-11 -0.72188 2.4661 -1.0908e-11 -0.74579 2.5124 -1.0908e-11 -0.75986 2.4647 -1.0908e-11 -0.78382 2.4996 -1.0908e-11 -0.78834 2.4543 -1.0908e-11 -0.8196 2.4986 -1.0908e-11 -0.82878 2.458 -1.0908e-11 -0.80788 2.4246 -1.0908e-11 -0.83776 2.4117 -1.0908e-11 -0.8073 2.3769 -1.0908e-11 -0.82274 2.3707 -1.0908e-11 -0.7987 2.3388 -1.0908e-11 -0.77615 2.3385 -1.0908e-11 -0.76526 2.3113 -1.0908e-11 -0.73731 2.3168 -1.0908e-11 -0.73617 2.3093 -1.0908e-11 -0.67812 2.4611 -1.0908e-11 -0.66478 2.4052 -1.0908e-11 -0.70415 2.4185 -1.0908e-11 -0.68811 2.3737 -1.0908e-11 -0.70599 2.3062 -1.0908e-11 -0.71322 2.3479 -1.0908e-11 -0.67468 2.3274 -1.0908e-11</float_array><technique_common><accessor source="#ROCK_M1-pos-a" count="162" stride="3"><param name="X" type="float"/><param name="Y" type="float"/><param name="Z" type="float"/></accessor></technique_common></source>
        <source id="ROCK_M1-nrm"><float_array id="ROCK_M1-nrm-a" count="720">-0 0 -1 0.96 0.048 -0.275 0.152 -0.288 -0.945 -0.608 -0.331 -0.722 -0.213 0.117 -0.97 0.414 0.909 -0.05 0.925 0.095 -0.367 0.16 -0.282 -0.946 -0.788 -0.274 -0.552 -0.217 0.091 -0.972 0.455 0.887 0.078 0.234 -0.397 0.887 -0.083 -0.299 0.951 -0.562 -0.058 0.825 -0.278 0.67 0.688 0.298 0.063 0.952 0.114 0.235 0.965 0.407 0.184 0.895 0.401 0.139 0.905 0.056 0.166 0.985 0.19 -0.068 0.979 0.366 0.141 0.92 0.403 0.047 0.914 0.306 0.043 0.951 0.209 0.208 0.955 0.312 0.061 0.948 0.276 0.138 0.951 0.499 0.125 0.858 0.304 0.605 0.736 0.533 0.582 0.615 0.506 0.657 0.56 -0.286 0.169 0.943 -0.075 -0.11 0.991 -0.208 0.147 0.967 -0.044 -0.058 0.997 -0.197 -0.1 0.975 -0.266 0.04 0.963 -0.417 -0 0.909 -0.399 0.05 0.916 -0.32 0.077 0.944 -0.425 0.343 0.838 -0.42 0.344 0.84 -0.509 0.054 0.859 -0.135 0.172 0.976 -0.219 0.007 0.976 -0.588 -0.177 0.789 -0.229 0.292 0.929 -0.109 0.112 0.988 -0.244 0.248 0.937 -0.333 0.254 0.908 -0.476 -0.104 0.873 -0.105 0.114 0.988 -0.133 0.024 0.991 -0.134 0.025 0.991 -0.197 -0.483 0.853 -0.78 0.14 0.611 -0.855 -0.149 0.496 -0.791 -0.21 0.574 -0.793 -0.218 0.569 -0.278 -0.535 0.798 -0.266 -0.217 0.939 0.006 0.203 0.979 0.078 -0.359 0.93 -0.202 -0.481 0.853 -0.018 -0.418 0.908 -0.153 -0.364 0.919 0.078 -0.323 0.943 0.272 -0.378 0.885 -0.172 -0.641 0.748 -0.165 -0.644 0.747 -0.179 -0.343 0.922 0.421 -0.521 0.743 0.309 -0.636 0.707 -0.273 -0.406 0.872 -0.128 -0.328 0.936 0.186 -0.429 0.884 0.1 0.265 0.959 0.356 -0.009 0.935 0.302 -0.398 0.866 0.262 0.255 0.931 0.342 0.326 0.881 0.252 0 0.968 0.702 0.446 0.555 0.813 0.271 0.515 0.483 -0.109 0.869 0.235 -0.374 0.897 0.746 0.087 0.66 0.487 0.437 0.756 0.126 0.028 0.992 0.148 -0.061 0.987 0.283 0.102 0.954 0.552 0.254 0.794 0.49 0.596 0.636 0.186 0.951 0.249 0.477 0.581 0.659 0.693 0.527 0.493 0.185 0.947 0.263 0.58 0.804 -0.132 0.555 0.781 0.287 0.454 0.808 0.375 0.415 0.772 0.48 0.367 0.776 0.513 0.409 0.863 -0.299 0.373 0.887 -0.272 0.343 0.904 0.257 0.617 0.786 0.033 -0.318 0.727 0.609 -0.487 0.65 0.583 -0.607 0.793 0.047 -0.521 0.69 0.502 -0.615 0.518 0.595 -0.495 0.648 0.579 -0.419 0.752 0.508 -0.311 0.59 0.745 -0.389 0.44 0.809 -0.835 0.489 -0.254 -0.794 0.527 -0.303 -0.82 0.544 0.179 -0.885 0.344 0.314 -0.755 0.271 0.598 -0.723 -0.148 0.675 -0.841 -0.143 0.521 -0.893 -0.416 0.174 -0.943 -0.312 0.113 -0.867 -0.405 0.289 -0.976 -0.21 0.056 -0.909 -0.3 0.289 -0.968 -0.192 0.161 -0.978 -0.198 0.068 -0.945 -0.281 0.166 -0.939 -0.333 0.09 -0.744 -0.553 0.376 -0.766 -0.569 -0.298 -0.823 -0.348 -0.45 -0.919 -0.391 0.047 -0.855 -0.496 0.153 -0.154 -0.933 0.325 -0.528 -0.845 -0.084 -0.407 -0.913 -0.014 -0.493 -0.696 0.521 0.351 -0.341 0.872 -0.399 -0.895 -0.198 0.24 -0.91 0.339 0.116 -0.291 0.95 -0.309 -0.521 0.795 0.31 -0.754 -0.579 -0.027 -0.685 -0.728 -0.034 -0.859 0.51 0.054 -0.819 0.571 0.049 -0.672 0.739 0.207 -0.544 0.813 0.13 -0.334 0.934 0.909 0.303 0.285 0.939 0.315 0.136 0.902 0.303 0.307 0.997 0.061 0.057 0.91 0.305 0.282 0.979 -0.12 -0.166 0.962 -0.12 0.245 0.944 -0.014 0.33 0.9 0.066 0.431 0.908 -0.419 0.021 0.901 -0.416 0.125 0.926 -0.233 0.298 0.824 -0.214 0.524 0.67 0.119 0.733 0.463 0.873 -0.152 0.719 0.676 0.159 -0.068 0.986 0.153 0.437 0.733 0.521 -0.04 0.977 0.21 0.663 0.623 -0.415 0.235 0.571 -0.787 -0.028 0.677 -0.736 0.244 0.798 -0.551 -0.04 0.723 0.69 -0.182 0.859 0.479 0.297 0.787 -0.541 -0.069 0.365 -0.928 0.109 0.253 -0.961 -0.037 0.11 -0.993 -0.783 -0.223 0.581 -0.976 -0.104 -0.194 -0.831 0.367 -0.418 -0.972 -0.23 -0.046 -0.971 -0.234 -0.052 -0.993 -0.106 0.049 -0.982 0.023 0.189 -0.893 -0.216 0.394 -0.889 -0.4 0.224 -0.173 0.131 -0.976 -0.164 0.096 -0.982 -0.599 -0.001 -0.801 -0.288 -0.11 -0.951 -0.502 -0.332 -0.798 -0.742 -0.192 -0.643 -0.648 -0.736 -0.197 -0.941 -0.224 -0.255 -0.751 -0.528 0.396 -0.594 -0.67 0.445 -0.32 -0.938 0.136 -0.972 -0.231 0.036 -0.544 -0.56 -0.625 -0.298 -0.872 -0.389 -0.554 -0.813 -0.179 -0.615 -0.365 -0.699 -0.24 -0.31 -0.92 -0.25 -0.246 -0.936 -0.141 -0.221 -0.965 -0.135 -0.231 -0.964 -0.046 -0.203 -0.978 0.007 -0.533 0.846 0.256 -0.845 0.47 0.08 -0.61 -0.788 0.117 -0.936 0.331 0.848 -0.278 -0.452 0.185 -0.611 -0.77 0.106 -0.694 -0.712 0.945 -0.309 -0.106 0.947 0.009 -0.322 -0.017 -0.28 -0.96 0.047 -0.204 -0.978 -0.039 -0.201 -0.979 0.025 -0.072 -0.997 0.872 0.029 -0.488 0.865 0.037 -0.501 0.693 0.175 0.699 0.998 0.06 -0.02 0.933 -0.356 -0.059 0.944 0.256 0.207 0.938 0.313 0.148 0.95 0.057 0.307 0.965 0.165 0.203 0.886 0.296 0.358 0.543 0.817 -0.195 0.533 -0.321 -0.783 0.139 -0.012 -0.99 0.129 -0.019 -0.992 0.211 0.467 -0.859 0.507 0.607 -0.612</float_array><technique_common><accessor source="#ROCK_M1-nrm-a" count="240" stride="3"><param name="X" type="float"/><param name="Y" type="float"/><param name="Z" type="float"/></accessor></technique_common></source>
        <vertices id="ROCK_M1-vtx"><input semantic="POSITION" source="#ROCK_M1-pos"/></vertices>
        <triangles count="320" material="MAT_ROCK_1-mat"><input semantic="VERTEX" source="#ROCK_M1-vtx" offset="0"/><input semantic="NORMAL" source="#ROCK_M1-nrm" offset="1"/><p>0 0 1 0 2 0 3 0 4 0 5 0 0 0 2 0 6 0 0 0 6 0 7 0 0 0 7 0 8 0 3 1 5 1 9 1 10 2 11 2 12 2 13 3 14 3 15 3 16 4 17 4 18 4 19 5 20 5 21 5 3 6 9 6 22 6 10 7 12 7 23 7 13 8 15 8 24 8 16 9 18 9 25 9 19 10 21 10 26 10 27 11 28 11 29 11 30 12 31 12 32 12 33 13 34 13 35 13 36 14 37 14 38 14 39 15 40 15 41 15 42 16 43 16 44 16 45 17 46 17 42 17 41 18 47 18 45 18 42 19 46 19 43 19 46 20 48 20 43 20 45 21 47 21 46 21 47 22 49 22 46 22 46 23 49 23 48 23 49 24 38 24 48 24 41 25 40 25 47 25 40 26 50 26 47 26 47 27 50 27 49 27 50 28 51 28 49 28 49 29 51 29 38 29 51 30 36 30 38 30 43 31 52 31 44 31 48 32 53 32 43 32 38 33 54 33 48 33 43 34 53 34 52 34 53 35 55 35 52 35 48 36 54 36 53 36 54 37 56 37 53 37 53 38 56 38 55 38 56 39 35 39 55 39 38 40 37 40 54 40 37 41 57 41 54 41 54 42 57 42 56 42 57 43 58 43 56 43 56 44 58 44 35 44 58 45 33 45 35 45 52 46 59 46 44 46 55 47 60 47 52 47 35 48 61 48 55 48 52 49 60 49 59 49 60 50 62 50 59 50 55 51 61 51 60 51 61 52 63 52 60 52 60 53 63 53 62 53 63 54 32 54 62 54 35 55 34 55 61 55 34 56 64 56 61 56 61 57 64 57 63 57 64 58 65 58 63 58 63 59 65 59 32 59 65 60 30 60 32 60 59 61 66 61 44 61 62 62 67 62 59 62 32 63 68 63 62 63 59 64 67 64 66 64 67 65 69 65 66 65 62 66 68 66 67 66 68 67 70 67 67 67 67 68 70 68 69 68 70 69 29 69 69 69 32 70 31 70 68 70 31 71 71 71 68 71 68 72 71 72 70 72 71 73 72 73 70 73 70 74 72 74 29 74 72 75 27 75 29 75 66 76 42 76 44 76 69 77 73 77 66 77 29 78 74 78 69 78 66 79 73 79 42 79 73 80 45 80 42 80 69 81 74 81 73 81 74 82 75 82 73 82 73 83 75 83 45 83 75 84 41 84 45 84 29 85 28 85 74 85 28 86 76 86 74 86 74 87 76 87 75 87 76 88 77 88 75 88 75 89 77 89 41 89 77 90 39 90 41 90 78 91 40 91 39 91 79 92 80 92 78 92 26 93 81 93 79 93 78 94 80 94 40 94 80 95 50 95 40 95 79 96 81 96 80 96 81 97 82 97 80 97 80 98 82 98 50 98 82 99 51 99 50 99 26 100 21 100 81 100 21 101 83 101 81 101 81 102 83 102 82 102 83 103 84 103 82 103 82 104 84 104 51 104 84 105 36 105 51 105 85 106 37 106 36 106 86 107 87 107 85 107 25 108 88 108 86 108 85 109 87 109 37 109 87 110 57 110 37 110 86 111 88 111 87 111 88 112 89 112 87 112 87 113 89 113 57 113 89 114 58 114 57 114 25 115 18 115 88 115 18 116 90 116 88 116 88 117 90 117 89 117 90 118 91 118 89 118 89 119 91 119 58 119 91 120 33 120 58 120 92 121 34 121 33 121 93 122 94 122 92 122 24 123 95 123 93 123 92 124 94 124 34 124 94 125 64 125 34 125 93 126 95 126 94 126 95 127 96 127 94 127 94 128 96 128 64 128 96 129 65 129 64 129 24 130 15 130 95 130 15 131 97 131 95 131 95 132 97 132 96 132 97 133 98 133 96 133 96 134 98 134 65 134 98 135 30 135 65 135 99 136 31 136 30 136 100 137 101 137 99 137 23 138 102 138 100 138 99 139 101 139 31 139 101 140 71 140 31 140 100 141 102 141 101 141 102 142 103 142 101 142 101 143 103 143 71 143 103 144 72 144 71 144 23 145 12 145 102 145 12 146 104 146 102 146 102 147 104 147 103 147 104 148 105 148 103 148 103 149 105 149 72 149 105 150 27 150 72 150 106 151 28 151 27 151 107 152 108 152 106 152 22 153 109 153 107 153 106 154 108 154 28 154 108 155 76 155 28 155 107 156 109 156 108 156 109 157 110 157 108 157 108 158 110 158 76 158 110 159 77 159 76 159 22 160 9 160 109 160 9 161 111 161 109 161 109 162 111 162 110 162 111 163 112 163 110 163 110 164 112 164 77 164 112 165 39 165 77 165 84 166 85 166 36 166 83 167 113 167 84 167 21 168 114 168 83 168 84 169 113 169 85 169 113 170 86 170 85 170 83 171 114 171 113 171 114 172 115 172 113 172 113 173 115 173 86 173 115 174 25 174 86 174 21 175 20 175 114 175 20 176 116 176 114 176 114 177 116 177 115 177 116 178 117 178 115 178 115 179 117 179 25 179 117 180 16 180 25 180 91 181 92 181 33 181 90 182 118 182 91 182 18 183 119 183 90 183 91 184 118 184 92 184 118 185 93 185 92 185 90 186 119 186 118 186 119 187 120 187 118 187 118 188 120 188 93 188 120 189 24 189 93 189 18 190 17 190 119 190 17 191 121 191 119 191 119 192 121 192 120 192 121 193 122 193 120 193 120 194 122 194 24 194 122 195 13 195 24 195 98 196 99 196 30 196 97 197 123 197 98 197 15 198 124 198 97 198 98 199 123 199 99 199 123 200 100 200 99 200 97 201 124 201 123 201 124 202 125 202 123 202 123 203 125 203 100 203 125 204 23 204 100 204 15 205 14 205 124 205 14 206 126 206 124 206 124 207 126 207 125 207 126 208 127 208 125 208 125 209 127 209 23 209 127 210 10 210 23 210 105 211 106 211 27 211 104 212 128 212 105 212 12 213 129 213 104 213 105 214 128 214 106 214 128 215 107 215 106 215 104 216 129 216 128 216 129 217 130 217 128 217 128 218 130 218 107 218 130 219 22 219 107 219 12 220 11 220 129 220 11 221 131 221 129 221 129 222 131 222 130 222 131 223 132 223 130 223 130 224 132 224 22 224 132 225 3 225 22 225 112 226 78 226 39 226 111 227 133 227 112 227 9 228 134 228 111 228 112 229 133 229 78 229 133 230 79 230 78 230 111 231 134 231 133 231 134 232 135 232 133 232 133 233 135 233 79 233 135 234 26 234 79 234 9 235 5 235 134 235 5 236 136 236 134 236 134 237 136 237 135 237 136 0 137 0 135 0 135 238 137 238 26 238 137 239 19 239 26 239 138 0 20 0 19 0 139 0 140 0 138 0 8 0 141 0 139 0 138 0 140 0 20 0 140 0 116 0 20 0 139 0 141 0 140 0 141 0 142 0 140 0 140 0 142 0 116 0 142 0 117 0 116 0 8 0 7 0 141 0 7 0 143 0 141 0 141 0 143 0 142 0 143 0 144 0 142 0 142 0 144 0 117 0 144 0 16 0 117 0 144 0 17 0 16 0 143 0 145 0 144 0 7 0 146 0 143 0 144 0 145 0 17 0 145 0 121 0 17 0 143 0 146 0 145 0 146 0 147 0 145 0 145 0 147 0 121 0 147 0 122 0 121 0 7 0 6 0 146 0 6 0 148 0 146 0 146 0 148 0 147 0 148 0 149 0 147 0 147 0 149 0 122 0 149 0 13 0 122 0 149 0 14 0 13 0 148 0 150 0 149 0 6 0 151 0 148 0 149 0 150 0 14 0 150 0 126 0 14 0 148 0 151 0 150 0 151 0 152 0 150 0 150 0 152 0 126 0 152 0 127 0 126 0 6 0 2 0 151 0 2 0 153 0 151 0 151 0 153 0 152 0 153 0 154 0 152 0 152 0 154 0 127 0 154 0 10 0 127 0 137 0 138 0 19 0 136 0 155 0 137 0 5 0 156 0 136 0 137 0 155 0 138 0 155 0 139 0 138 0 136 0 156 0 155 0 156 0 157 0 155 0 155 0 157 0 139 0 157 0 8 0 139 0 5 0 4 0 156 0 4 0 158 0 156 0 156 0 158 0 157 0 158 0 1 0 157 0 157 0 1 0 8 0 1 0 0 0 8 0 154 0 11 0 10 0 153 0 159 0 154 0 2 0 160 0 153 0 154 0 159 0 11 0 159 0 131 0 11 0 153 0 160 0 159 0 160 0 161 0 159 0 159 0 161 0 131 0 161 0 132 0 131 0 2 0 1 0 160 0 1 0 158 0 160 0 160 0 158 0 161 0 158 0 4 0 161 0 161 0 4 0 132 0 4 0 3 0 132 0</p></triangles>
      </mesh>
    </geometry>
  </library_geometries>
  <library_visual_scenes><visual_scene id="scene" name="scene">
    <node id="ROCK_M1" name="ROCK_M1" type="NODE"><instance_geometry url="#ROCK_M1-mesh"><bind_material><technique_common>
      <instance_material symbol="MAT_ROCK_1-mat" target="#MAT_ROCK_1"/>
    </technique_common></bind_material></instance_geometry></node>
  </visual_scene></library_visual_scenes>
  <scene><instance_visual_scene url="#scene"/></scene>
</COLLADA>
