<?xml version="1.0" encoding="utf-8"?>
<COLLADA xmlns="http://www.collada.org/2005/11/COLLADASchema" version="1.4.1">
  <asset>
    <contributor><authoring_tool>VIGIL SIH26126 farm generator</authoring_tool></contributor>
    <unit name="meter" meter="1"/>
    <up_axis>Z_UP</up_axis>
  </asset>
  <library_effects>
    <effect id="MAT_ROCK_4-fx"><profile_COMMON><technique sid="c"><lambert><diffuse><color>0.1320 0.1120 0.0880 1</color></diffuse></lambert></technique></profile_COMMON></effect>
  </library_effects>
  <library_materials>
    <material id="MAT_ROCK_4" name="MAT_ROCK_4"><instance_effect url="#MAT_ROCK_4-fx"/></material>
  </library_materials>
  <library_geometries>
    <geometry id="ROCK_L1-mesh" name="ROCK_L1">
      <mesh>
        <source id="ROCK_L1-pos"><float_array id="ROCK_L1-pos-a" count="486">-2.4 2.4 -1.3264e-09 -2.4265 2.2885 -1.3264e-09 -2.5138 2.385 -1.3264e-09 -2.4889 2.0264 0.027064 -2.4736 2.0906 -1.3264e-09 -2.3775 2.0008 0.0035863 -2.4446 2.4982 -1.3264e-09 -2.3196 2.4708 -1.3264e-09 -2.2975 2.346 -1.3264e-09 -2.4328 1.9692 0.069219 -2.774 2.3507 0.032438 -2.7958 2.2353 0.0020672 -2.8278 2.2791 0.070475 -2.5522 2.735 0.029007 -2.6374 2.6684 0.016371 -2.6145 2.7206 0.074996 -2.1442 2.6251 0.041848 -2.2068 2.6945 0.022748 -2.1582 2.6852 0.079329 -2.0223 2.2012 0.015634 -2.0185 2.3208 0.010886 -2.0168 2.2687 0.074072 -2.5554 2.0197 0.073271 -2.8227 2.4063 0.07276 -2.5044 2.7877 0.072765 -2.0843 2.6056 0.07951 -2.0495 2.138 0.068427 -2.6902 2.1446 0.22931 -2.5802 2.1253 0.22942 -2.6407 2.1882 0.27392 -2.7159 2.5663 0.22508 -2.7265 2.4678 0.23134 -2.6719 2.5431 0.27299 -2.3229 2.7241 0.21869 -2.4185 2.7274 0.2331 -2.329 2.6984 0.27272 -1.9489 2.4595 0.24694 -2.0383 2.5505 0.2463 -2.0983 2.4398 0.26655 -2.2369 2.041 0.23757 -2.1408 2.107 0.25339 -2.2603 2.0924 0.29104 -2.3592 2.3103 0.33756 -2.2859 2.415 0.35824 -2.4 2.4 0.36031 -2.3103 2.2025 0.32173 -2.2413 2.3165 0.32139 -2.1629 2.1878 0.31043 -2.2042 2.4258 0.29444 -2.1308 2.3323 0.28283 -2.0751 2.229 0.25097 -2.0325 2.3491 0.24232 -2.3757 2.5023 0.34632 -2.2461 2.5355 0.34111 -2.162 2.5294 0.27529 -2.3426 2.6414 0.34424 -2.2168 2.6558 0.30163 -2.1509 2.6192 0.23538 -2.2178 2.7232 0.2428 -2.4959 2.4505 0.3529 -2.4787 2.5733 0.33806 -2.4495 2.6828 0.29378 -2.6212 2.5165 0.34589 -2.5856 2.6297 0.29846 -2.5451 2.7194 0.24835 -2.6622 2.6564 0.24532 -2.4849 2.3253 0.35441 -2.615 2.3717 0.35324 -2.6908 2.4281 0.28934 -2.5653 2.2545 0.31333 -2.6954 2.2906 0.29898 -2.7664 2.3517 0.24742 -2.7856 2.2097 0.25769 -2.4414 2.2259 0.32099 -2.5098 2.1849 0.2629 -2.397 2.1484 0.27261 -2.4733 2.092 0.23426 -2.3568 2.066 0.23618 -2.1668 2.0516 0.18912 -2.1211 2.1068 0.12968 -2.1102 2.1754 0.18662 -2.0886 2.2361 0.12968 -1.9929 2.2681 0.19474 -1.9507 2.3224 0.12968 -1.8966 2.3925 0.19747 -1.9736 2.5205 0.18868 -1.9904 2.5861 0.12968 -2.0861 2.5975 0.18441 -2.1037 2.6608 0.12968 -2.1426 2.7138 0.19031 -2.1981 2.7315 0.12968 -2.2577 2.7483 0.18133 -2.3731 2.7528 0.1792 -2.4416 2.8493 0.12968 -2.4863 2.7447 0.1855 -2.5663 2.7662 0.12968 -2.5972 2.6836 0.18394 -2.6735 2.6875 0.12968 -2.7153 2.6357 0.18477 -2.7978 2.5363 0.18741 -2.8925 2.485 0.12968 -2.8434 2.4138 0.19595 -2.8615 2.3392 0.12968 -2.7953 2.2816 0.19057 -2.7928 2.2216 0.12968 -2.7253 2.1881 0.18138 -2.6434 2.1128 0.18037 -2.632 2.0191 0.12968 -2.5534 2.0418 0.1889 -2.5083 1.9446 0.12968 -2.4243 1.9863 0.19403 -2.3569 1.9349 0.12968 -2.2846 1.9714 0.19261 -1.8876 2.4675 0.12968 -1.9759 2.3868 0.066293 -1.9787 2.5263 0.064774 -2.0163 2.4506 0.0063661 -2.0742 2.5608 0.021532 -2.2972 2.8322 0.12968 -2.2363 2.7823 0.066465 -2.3765 2.7998 0.067495 -2.3169 2.7494 0.011057 -2.4463 2.758 0.015526 -2.7793 2.5996 0.12968 -2.7045 2.636 0.06987 -2.7746 2.5214 0.069819 -2.7112 2.5638 0.013499 -2.7523 2.4488 0.021716 -2.7265 2.1126 0.12968 -2.7758 2.1635 0.064156 -2.6765 2.0629 0.064544 -2.7058 2.1308 -1.3264e-09 -2.5988 2.0475 0.0063033 -2.2164 1.9958 0.12968 -2.2954 1.9822 0.062022 -2.1549 2.0475 0.062247 -2.2225 2.0093 -1.3264e-09 -2.0962 2.1028 -1.3264e-09 -2.1054 2.2449 -1.3264e-09 -2.1922 2.2906 -1.3264e-09 -2.0959 2.3706 -1.3264e-09 -2.2125 2.4247 -1.3264e-09 -2.1332 2.4988 -1.3264e-09 -2.2382 2.5424 -1.3264e-09 -2.1724 2.6003 -1.3264e-09 -2.2727 2.6494 -1.3264e-09 -2.356 2.5849 -1.3264e-09 -2.4035 2.6962 -1.3264e-09 -2.4943 2.6076 -1.3264e-09 -2.5366 2.7007 -1.3264e-09 -2.6358 2.611 -1.3264e-09 -2.5721 2.4906 -1.3264e-09 -2.6797 2.4703 -1.3264e-09 -2.6097 2.3724 -1.3264e-09 -2.703 2.3601 -1.3264e-09 -2.1898 2.1398 -1.3264e-09 -2.3445 2.083 -1.3264e-09 -2.3102 2.2022 -1.3264e-09 -2.4522 2.1807 -1.3264e-09 -2.6544 2.2617 -1.3264e-09 -2.5396 2.2771 -1.3264e-09 -2.5754 2.1551 -1.3264e-09</float_array><technique_common><accessor source="#ROCK_L1-pos-a" count="162" stride="3"><param name="X" type="float"/><param name="Y" type="float"/><param name="Z" type="float"/></accessor></technique_common></source>
        <source id="ROCK_L1-nrm"><float_array id="ROCK_L1-nrm-a" count="816">0 0 -1 -0.266 -0.32 -0.909 -0.298 -0.738 -0.605 -0.78 0.292 -0.553 -0.505 0.733 -0.455 0.7 0.488 -0.521 0.998 -0.034 -0.054 -0.326 -0.747 -0.579 -0.611 0.039 -0.791 -0.481 0.776 -0.409 0.569 0.527 -0.631 0.95 -0.245 0.194 -0.114 -0.645 0.756 -0.702 0.12 0.702 0.098 0.894 0.436 0.114 0.119 0.986 0.304 -0.617 0.726 0.047 -0.225 0.973 0.14 -0.082 0.987 0.049 -0.247 0.968 0.145 -0.288 0.947 0.616 -0.015 0.787 0.072 -0.041 0.997 0.313 0.111 0.943 0.311 0.127 0.942 0.245 0.072 0.967 0.316 -0.488 0.814 0.63 -0.325 0.705 0.548 0.038 0.836 0.391 -0.072 0.918 0.377 0.027 0.926 0.148 -0.153 0.977 0 0.135 0.991 0.62 -0.095 0.779 0.244 0.079 0.966 0.004 0.139 0.99 0.039 0.006 0.999 0.609 -0.102 0.787 0.618 0.106 0.779 0.288 0.235 0.928 0.127 0.764 0.633 0.218 0.06 0.974 0.148 0.387 0.91 0.747 0.191 0.637 0.746 0.444 0.497 0.056 0.657 0.752 -0.089 0.903 0.419 -0.005 0.137 0.991 -0.06 0.029 0.998 0.008 0.781 0.624 0.003 0.12 0.993 0.007 0.119 0.993 -0.249 0.42 0.873 -0.125 0.401 0.908 -0.116 0.414 0.903 -0.642 0.459 0.614 -0 0.806 0.592 0.022 0.8 0.6 -0.183 0.541 0.821 -0.326 0.569 0.755 -0.493 0.246 0.834 -0.658 0.231 0.716 -0.074 0.005 0.997 -0.03 0.049 0.998 -0.765 0.212 0.609 -0.005 0.012 1 -0.141 -0.372 0.917 -0.64 0.011 0.769 -0.609 0.076 0.789 -0.208 -0.393 0.896 -0.193 -0.329 0.924 -0.761 0.212 0.614 -0.689 0.326 0.647 -0.542 0.077 0.837 -0.507 0.13 0.852 -0.151 -0.31 0.939 -0.177 -0.6 0.781 0.107 -0.198 0.974 -0.143 -0.371 0.918 0.056 -0.556 0.829 0.095 -0.28 0.955 -0.034 -0.16 0.986 -0.2 -0.674 0.711 -0.263 -0.615 0.743 -0.106 -0.57 0.815 -0.272 -0.371 0.888 0.057 -0.54 0.84 -0.149 -0.344 0.927 -0.195 -0.358 0.913 -0.115 -0.448 0.887 -0.316 -0.508 0.801 -0.163 -0.746 0.646 0.443 -0.76 0.476 0.868 -0.391 0.305 0.682 -0.172 0.71 0.909 -0.416 -0.009 0.877 -0.474 -0.083 0.964 -0.243 0.107 0.559 -0.664 -0.496 0.575 -0.755 0.315 0.608 -0.16 0.778 0.655 -0.195 0.73 0.522 -0.833 0.184 0.499 -0.796 -0.342 0.791 -0.612 0.002 0.387 -0.319 0.865 0.389 -0.331 0.86 0.653 0.644 0.398 0.43 0.662 0.614 0.45 0.682 -0.577 0.549 0.813 0.193 0.484 0.835 0.261 0.432 0.656 0.619 0.885 0.42 0.201 0.649 0.28 0.707 0.57 0.312 0.76 0.665 0.616 -0.421 0.58 0.774 -0.252 0.572 0.763 -0.3 0.286 0.958 0.019 0.265 0.941 0.212 -0.09 0.9 0.426 0.105 0.863 0.494 0.016 0.466 0.885 -0.533 0.799 -0.278 -0.043 0.918 0.395 -0.015 0.933 0.361 -0.37 0.556 0.744 -0.342 0.602 0.722 -0.479 0.872 -0.098 -0.469 0.877 -0.108 -0.508 0.827 -0.241 -0.585 0.797 -0.149 -0.442 0.602 0.665 -0.321 0.799 0.509 -0.376 0.927 0.012 -0.763 0.33 0.556 -0.447 0.105 0.888 -0.605 0.277 0.746 -0.723 -0.153 -0.674 -0.367 0.2 0.908 -0.386 0.256 0.886 -0.875 -0.186 0.448 -0.775 -0.305 0.554 -0.677 -0.274 0.683 -0.944 0.149 0.295 -0.848 0.044 -0.527 -0.863 -0.504 0.02 -0.784 -0.458 0.42 -0.663 -0.546 0.512 -0.739 -0.51 -0.44 -0.595 -0.762 -0.255 -0.157 -0.89 0.428 -0.442 -0.468 0.766 -0.421 -0.699 -0.579 -0.466 -0.503 0.728 -0.188 -0.477 0.859 -0.363 -0.601 0.712 -0.284 -0.591 0.755 -0.222 -0.435 0.873 -0.103 -0.395 0.913 -0.304 -0.687 -0.66 -0.057 -0.897 -0.438 -0.051 -0.806 0.59 -0.082 -0.819 0.568 -0.038 -0.442 0.896 -0.111 -0.484 0.868 0.836 0.516 0.186 0.874 -0.379 -0.305 0.744 -0.297 -0.598 0.677 0.447 0.585 0.672 0.583 0.457 0.727 -0.316 -0.61 0.582 0.003 -0.813 0.685 0.593 -0.423 0.445 0.697 -0.562 0.896 -0.33 -0.296 0.812 -0.034 -0.583 0.835 0.011 -0.551 0.49 0.367 -0.791 0.482 0.732 -0.482 0.524 0.716 -0.462 0.022 0.821 0.57 0.613 0.603 0.511 0.776 0.629 0.036 0.005 0.526 0.851 0.058 0.488 0.871 0.707 0.695 0.131 0.099 0.825 -0.557 0.098 0.826 -0.555 -0.097 0.727 -0.68 0.698 0.493 -0.519 0.337 0.508 -0.792 0.094 0.79 -0.606 0.028 0.76 -0.649 -0.102 0.838 -0.537 -0.241 0.74 -0.628 -0.503 0.437 0.745 -0.622 0.748 0.233 -0.651 0.708 -0.274 -0.692 0.586 0.421 -0.625 0.617 0.477 -0.606 0.73 -0.316 -0.682 0.418 -0.6 -0.51 0.503 -0.698 -0.489 0.183 -0.853 -0.626 0.688 -0.368 -0.676 0.492 -0.549 -0.742 0.455 -0.492 -0.725 0.211 -0.656 -0.665 0.26 -0.701 -0.605 0.047 -0.795 -0.668 -0.725 -0.168 -0.674 -0.41 0.615 -0.901 -0.413 0.131 -0.45 -0.5 0.74 -0.46 -0.465 0.756 -0.831 -0.506 0.232 -0.712 -0.702 -0.01 -0.703 -0.711 0.003 -0.284 -0.874 -0.394 -0.902 -0.397 -0.169 -0.681 -0.578 -0.449 -0.656 -0.649 -0.385 -0.513 -0.697 -0.501 -0.319 -0.93 -0.18 -0.122 -0.942 -0.313 0.482 -0.684 0.548 0.396 -0.915 0.074 0.051 -0.84 -0.54 0.545 -0.788 0.285 0.758 -0.651 -0.021 0.383 -0.884 -0.269 0.403 -0.866 -0.297 0.745 -0.64 0.188 0.602 -0.725 0.335 0.066 -0.92 -0.386 0.043 -0.933 -0.357 0.42 -0.902 0.099 0.588 -0.795 -0.15 0.652 -0.756 -0.056 0.792 -0.554 -0.256 0.162 -0.044 -0.986 0.133 -0.01 -0.991 0.116 -0.037 -0.993 0.062 0.018 -0.998 0.137 0.206 -0.969 0.25 0.096 -0.963 0.402 0.643 -0.652 0.638 0.393 -0.663 0.137 0.28 -0.95 0.199 0.194 -0.961 0.047 0.13 -0.99 -0.018 0.232 -0.973 0.008 0.249 -0.968 -0.224 0.568 -0.792 -0.299 0.533 -0.791 -0.235 0.261 -0.936 -0.321 0.252 -0.913 -0.217 0.068 -0.974 -0.297 0.038 -0.954 -0.304 0.064 -0.951 -0.415 -0.007 -0.91 0.191 0.012 -0.981 -0.021 -0.035 -0.999 -0.002 -0.043 -0.999 -0.429 0.305 -0.851 -0.013 -0.007 -1 -0.016 0.006 -1 0.011 -0.061 -0.998 -0.033 -0.051 -0.998 0.094 -0.406 -0.909</float_array><technique_common><accessor source="#ROCK_L1-nrm-a" count="272" stride="3"><param name="X" type="float"/><param name="Y" type="float"/><param name="Z" type="float"/></accessor></technique_common></source>
        <vertices id="ROCK_L1-vtx"><input semantic="POSITION" source="#ROCK_L1-pos"/></vertices>
        <triangles count="320" material="MAT_ROCK_4-mat"><input semantic="VERTEX" source="#ROCK_L1-vtx" offset="0"/><input semantic="NORMAL" source="#ROCK_L1-nrm" offset="1"/><p>0 0 1 0 2 0 3 1 4 1 5 1 0 0 2 0 6 0 0 0 6 0 7 0 0 0 7 0 8 0 3 2 5 2 9 2 10 3 11 3 12 3 13 4 14 4 15 4 16 5 17 5 18 5 19 6 20 6 21 6 3 7 9 7 22 7 10 8 12 8 23 8 13 9 15 9 24 9 16 10 18 10 25 10 19 11 21 11 26 11 27 12 28 12 29 12 30 13 31 13 32 13 33 14 34 14 35 14 36 15 37 15 38 15 39 16 40 16 41 16 42 17 43 17 44 17 45 18 46 18 42 18 41 19 47 19 45 19 42 20 46 20 43 20 46 21 48 21 43 21 45 22 47 22 46 22 47 23 49 23 46 23 46 24 49 24 48 24 49 25 38 25 48 25 41 26 40 26 47 26 40 27 50 27 47 27 47 28 50 28 49 28 50 29 51 29 49 29 49 30 51 30 38 30 51 31 36 31 38 31 43 32 52 32 44 32 48 33 53 33 43 33 38 34 54 34 48 34 43 35 53 35 52 35 53 36 55 36 52 36 48 37 54 37 53 37 54 38 56 38 53 38 53 39 56 39 55 39 56 40 35 40 55 40 38 41 37 41 54 41 37 42 57 42 54 42 54 43 57 43 56 43 57 44 58 44 56 44 56 45 58 45 35 45 58 46 33 46 35 46 52 47 59 47 44 47 55 48 60 48 52 48 35 49 61 49 55 49 52 50 60 50 59 50 60 51 62 51 59 51 55 52 61 52 60 52 61 53 63 53 60 53 60 54 63 54 62 54 63 55 32 55 62 55 35 56 34 56 61 56 34 57 64 57 61 57 61 58 64 58 63 58 64 59 65 59 63 59 63 60 65 60 32 60 65 61 30 61 32 61 59 62 66 62 44 62 62 63 67 63 59 63 32 64 68 64 62 64 59 65 67 65 66 65 67 66 69 66 66 66 62 67 68 67 67 67 68 68 70 68 67 68 67 69 70 69 69 69 70 70 29 70 69 70 32 71 31 71 68 71 31 72 71 72 68 72 68 73 71 73 70 73 71 74 72 74 70 74 70 75 72 75 29 75 72 76 27 76 29 76 66 77 42 77 44 77 69 78 73 78 66 78 29 79 74 79 69 79 66 80 73 80 42 80 73 81 45 81 42 81 69 82 74 82 73 82 74 83 75 83 73 83 73 84 75 84 45 84 75 85 41 85 45 85 29 86 28 86 74 86 28 87 76 87 74 87 74 88 76 88 75 88 76 89 77 89 75 89 75 90 77 90 41 90 77 91 39 91 41 91 78 92 40 92 39 92 79 93 80 93 78 93 26 94 81 94 79 94 78 95 80 95 40 95 80 96 50 96 40 96 79 97 81 97 80 97 81 98 82 98 80 98 80 99 82 99 50 99 82 100 51 100 50 100 26 101 21 101 81 101 21 102 83 102 81 102 81 103 83 103 82 103 83 104 84 104 82 104 82 105 84 105 51 105 84 106 36 106 51 106 85 107 37 107 36 107 86 108 87 108 85 108 25 109 88 109 86 109 85 110 87 110 37 110 87 111 57 111 37 111 86 112 88 112 87 112 88 113 89 113 87 113 87 114 89 114 57 114 89 115 58 115 57 115 25 116 18 116 88 116 18 117 90 117 88 117 88 118 90 118 89 118 90 119 91 119 89 119 89 120 91 120 58 120 91 121 33 121 58 121 92 122 34 122 33 122 93 123 94 123 92 123 24 124 95 124 93 124 92 125 94 125 34 125 94 126 64 126 34 126 93 127 95 127 94 127 95 128 96 128 94 128 94 129 96 129 64 129 96 130 65 130 64 130 24 131 15 131 95 131 15 132 97 132 95 132 95 133 97 133 96 133 97 134 98 134 96 134 96 135 98 135 65 135 98 136 30 136 65 136 99 137 31 137 30 137 100 138 101 138 99 138 23 139 102 139 100 139 99 140 101 140 31 140 101 141 71 141 31 141 100 142 102 142 101 142 102 143 103 143 101 143 101 144 103 144 71 144 103 145 72 145 71 145 23 146 12 146 102 146 12 147 104 147 102 147 102 148 104 148 103 148 104 149 105 149 103 149 103 150 105 150 72 150 105 151 27 151 72 151 106 152 28 152 27 152 107 153 108 153 106 153 22 154 109 154 107 154 106 155 108 155 28 155 108 156 76 156 28 156 107 157 109 157 108 157 109 158 110 158 108 158 108 159 110 159 76 159 110 160 77 160 76 160 22 161 9 161 109 161 9 162 111 162 109 162 109 163 111 163 110 163 111 164 112 164 110 164 110 165 112 165 77 165 112 166 39 166 77 166 84 167 85 167 36 167 83 168 113 168 84 168 21 169 114 169 83 169 84 170 113 170 85 170 113 171 86 171 85 171 83 172 114 172 113 172 114 173 115 173 113 173 113 174 115 174 86 174 115 175 25 175 86 175 21 176 20 176 114 176 20 177 116 177 114 177 114 178 116 178 115 178 116 179 117 179 115 179 115 180 117 180 25 180 117 181 16 181 25 181 91 182 92 182 33 182 90 183 118 183 91 183 18 184 119 184 90 184 91 185 118 185 92 185 118 186 93 186 92 186 90 187 119 187 118 187 119 188 120 188 118 188 118 189 120 189 93 189 120 190 24 190 93 190 18 191 17 191 119 191 17 192 121 192 119 192 119 193 121 193 120 193 121 194 122 194 120 194 120 195 122 195 24 195 122 196 13 196 24 196 98 197 99 197 30 197 97 198 123 198 98 198 15 199 124 199 97 199 98 200 123 200 99 200 123 201 100 201 99 201 97 202 124 202 123 202 124 203 125 203 123 203 123 204 125 204 100 204 125 205 23 205 100 205 15 206 14 206 124 206 14 207 126 207 124 207 124 208 126 208 125 208 126 209 127 209 125 209 125 210 127 210 23 210 127 211 10 211 23 211 105 212 106 212 27 212 104 213 128 213 105 213 12 214 129 214 104 214 105 215 128 215 106 215 128 216 107 216 106 216 104 217 129 217 128 217 129 218 130 218 128 218 128 219 130 219 107 219 130 220 22 220 107 220 12 221 11 221 129 221 11 222 131 222 129 222 129 223 131 223 130 223 131 224 132 224 130 224 130 225 132 225 22 225 132 226 3 226 22 226 112 227 78 227 39 227 111 228 133 228 112 228 9 229 134 229 111 229 112 230 133 230 78 230 133 231 79 231 78 231 111 232 134 232 133 232 134 233 135 233 133 233 133 234 135 234 79 234 135 235 26 235 79 235 9 236 5 236 134 236 5 237 136 237 134 237 134 238 136 238 135 238 136 239 137 239 135 239 135 240 137 240 26 240 137 241 19 241 26 241 138 242 20 242 19 242 139 0 140 0 138 0 8 0 141 0 139 0 138 243 140 243 20 243 140 244 116 244 20 244 139 0 141 0 140 0 141 0 142 0 140 0 140 245 142 245 116 245 142 246 117 246 116 246 8 0 7 0 141 0 7 0 143 0 141 0 141 0 143 0 142 0 143 0 144 0 142 0 142 247 144 247 117 247 144 248 16 248 117 248 144 249 17 249 16 249 143 0 145 0 144 0 7 0 146 0 143 0 144 250 145 250 17 250 145 251 121 251 17 251 143 0 146 0 145 0 146 0 147 0 145 0 145 252 147 252 121 252 147 253 122 253 121 253 7 0 6 0 146 0 6 0 148 0 146 0 146 0 148 0 147 0 148 0 149 0 147 0 147 254 149 254 122 254 149 255 13 255 122 255 149 256 14 256 13 256 148 0 150 0 149 0 6 0 151 0 148 0 149 257 150 257 14 257 150 258 126 258 14 258 148 0 151 0 150 0 151 0 152 0 150 0 150 259 152 259 126 259 152 260 127 260 126 260 6 0 2 0 151 0 2 0 153 0 151 0 151 0 153 0 152 0 153 0 154 0 152 0 152 261 154 261 127 261 154 262 10 262 127 262 137 263 138 263 19 263 136 0 155 0 137 0 5 264 156 264 136 264 137 0 155 0 138 0 155 0 139 0 138 0 136 0 156 0 155 0 156 0 157 0 155 0 155 0 157 0 139 0 157 0 8 0 139 0 5 265 4 265 156 265 4 0 158 0 156 0 156 0 158 0 157 0 158 0 1 0 157 0 157 0 1 0 8 0 1 0 0 0 8 0 154 266 11 266 10 266 153 0 159 0 154 0 2 0 160 0 153 0 154 267 159 267 11 267 159 268 131 268 11 268 153 0 160 0 159 0 160 0 161 0 159 0 159 0 161 0 131 0 161 269 132 269 131 269 2 0 1 0 160 0 1 0 158 0 160 0 160 0 158 0 161 0 158 0 4 0 161 0 161 270 4 270 132 270 4 271 3 271 132 271</p></triangles>
      </mesh>
    </geometry>
  </library_geometries>
  <library_visual_scenes><visual_scene id="scene" name="scene">
    <node id="ROCK_L1" name="ROCK_L1" type="NODE"><instance_geometry url="#ROCK_L1-mesh"><bind_material><technique_common>
      <instance_material symbol="MAT_ROCK_4-mat" target="#MAT_ROCK_4"/>
    </technique_common></bind_material></instance_geometry></node>
  </visual_scene></library_visual_scenes>
  <scene><instance_visual_scene url="#scene"/></scene>
</COLLADA>
