<?xml version="1.0" encoding="utf-8"?>
<COLLADA xmlns="http://www.collada.org/2005/11/COLLADASchema" version="1.4.1">
  <asset>
    <contributor><authoring_tool>VIGIL SIH26126 farm generator</authoring_tool></contributor>
    <unit name="meter" meter="1"/>
    <up_axis>Z_UP</up_axis>
  </asset>
  <library_effects>
    <effect id="MAT_WEED_STEM-fx"><profile_COMMON><technique sid="c"><lambert><diffuse><color>0.0860 0.1040 0.0360 1</color></diffuse></lambert></technique></profile_COMMON></effect>
  </library_effects>
  <library_materials>
    <material id="MAT_WEED_STEM" name="MAT_WEED_STEM"><instance_effect url="#MAT_WEED_STEM-fx"/></material>
  </library_materials>
  <library_geometries>
    <geometry id="weeds_-01-03_solid-mesh" name="weeds_-01-03_solid">
      <mesh>
        <source id="weeds_-01-03_solid-pos"><float_array id="weeds_-01-03_solid-pos-a" count="78">0.3949 0.0061913 -0.028534 0.38783 -0.0008812 -0.029611 0.38025 -0.0019321 0.033058 0.38649 0.0042915 0.033927 0.39487 -0.0080185 -0.028782 0.38645 -0.008213 0.033814 0.40195 -0.00094604 -0.027706 0.39268 -0.0019894 0.034683 0.37321 -0.0018635 0.095846 0.37862 0.0035095 0.096462 0.37855 -0.0072899 0.096545 0.38396 -0.001915 0.097161 0.36671 -0.0006752 0.15872 0.37128 0.0038471 0.15913 0.37121 -0.0052452 0.15935 0.37578 -0.00072289 0.15976 0.36076 0.0016308 0.22169 0.36449 0.0053005 0.22193 0.36441 -0.0020828 0.22223 0.36813 0.0015869 0.22247 0.35536 0.0050545 0.28474 0.35822 0.0078754 0.28489 0.35816 0.0021973 0.28517 0.36103 0.0050182 0.28532 0.39489 -0.00091362 -0.028658 0.35819 0.0050354 0.28503</float_array><technique_common><accessor source="#weeds_-01-03_solid-pos-a" count="26" stride="3"><param name="X" type="float"/><param name="Y" type="float"/><param name="Z" type="float"/></accessor></technique_common></source>
        <source id="weeds_-01-03_solid-nrm"><float_array id="weeds_-01-03_solid-nrm-a" count="78">-0.078 0.793 0.604 -0.875 -0.007 0.484 -0.993 0 -0.116 -0 1 0.021 -0.081 -0.813 0.577 -0.007 -1 0.005 0.715 -0.014 0.699 0.99 -0.009 0.143 -0.994 0.001 -0.107 0.002 1 0.004 -0.009 -1 0.022 0.991 -0.009 0.134 -0.995 0.002 -0.098 0.005 1 -0.014 -0.012 -0.999 0.04 0.992 -0.009 0.126 -0.996 0.003 -0.09 0.007 0.999 -0.031 -0.014 -0.998 0.058 0.993 -0.009 0.117 -0.755 -0.024 -0.656 0.068 0.785 -0.615 0.049 -0.846 -0.531 0.869 -0.034 -0.493 -0.134 -0.017 0.991 0.101 -0.05 -0.994</float_array><technique_common><accessor source="#weeds_-01-03_solid-nrm-a" count="26" stride="3"><param name="X" type="float"/><param name="Y" type="float"/><param name="Z" type="float"/></accessor></technique_common></source>
        <vertices id="weeds_-01-03_solid-vtx"><input semantic="POSITION" source="#weeds_-01-03_solid-pos"/></vertices>
        <triangles count="48" material="MAT_WEED_STEM-mat"><input semantic="VERTEX" source="#weeds_-01-03_solid-vtx" offset="0"/><input semantic="NORMAL" source="#weeds_-01-03_solid-nrm" offset="1"/><p>0 0 1 1 2 2 0 0 2 2 3 3 1 1 4 4 5 5 1 1 5 5 2 2 4 4 6 6 7 7 4 4 7 7 5 5 6 6 0 0 3 3 6 6 3 3 7 7 3 3 2 2 8 8 3 3 8 8 9 9 2 2 5 5 10 10 2 2 10 10 8 8 5 5 7 7 11 11 5 5 11 11 10 10 7 7 3 3 9 9 7 7 9 9 11 11 9 9 8 8 12 12 9 9 12 12 13 13 8 8 10 10 14 14 8 8 14 14 12 12 10 10 11 11 15 15 10 10 15 15 14 14 11 11 9 9 13 13 11 11 13 13 15 15 13 13 12 12 16 16 13 13 16 16 17 17 12 12 14 14 18 18 12 12 18 18 16 16 14 14 15 15 19 19 14 14 19 19 18 18 15 15 13 13 17 17 15 15 17 17 19 19 17 17 16 16 20 20 17 17 20 20 21 21 16 16 18 18 22 22 16 16 22 22 20 20 18 18 19 19 23 23 18 18 23 23 22 22 19 19 17 17 21 21 19 19 21 21 23 23 0 0 1 1 24 24 1 1 4 4 24 24 4 4 6 6 24 24 6 6 0 0 24 24 20 20 21 21 25 25 22 22 20 20 25 25 23 23 22 22 25 25 21 21 23 23 25 25</p></triangles>
      </mesh>
    </geometry>
  </library_geometries>
  <library_visual_scenes><visual_scene id="scene" name="scene">
    <node id="weeds_-01-03_solid" name="weeds_-01-03_solid" type="NODE"><instance_geometry url="#weeds_-01-03_solid-mesh"><bind_material><technique_common>
      <instance_material symbol="MAT_WEED_STEM-mat" target="#MAT_WEED_STEM"/>
    </technique_common></bind_material></instance_geometry></node>
  </visual_scene></library_visual_scenes>
  <scene><instance_visual_scene url="#scene"/></scene>
</COLLADA>
