<?xml version="1.0" encoding="utf-8"?>
<COLLADA xmlns="http://www.collada.org/2005/11/COLLADASchema" version="1.4.1">
  <asset>
    <contributor><authoring_tool>VIGIL SIH26126 farm generator</authoring_tool></contributor>
    <unit name="meter" meter="1"/>
    <up_axis>Z_UP</up_axis>
  </asset>
  <library_effects>
    <effect id="MAT_WEED_STEM-fx"><profile_COMMON><technique sid="c"><lambert><diffuse><color>0.0860 0.1040 0.0360 1</color></diffuse></lambert></technique></profile_COMMON></effect>
  </library_effects>
  <library_materials>
    <material id="MAT_WEED_STEM" name="MAT_WEED_STEM"><instance_effect url="#MAT_WEED_STEM-fx"/></material>
  </library_materials>
  <library_geometries>
    <geometry id="weeds_+01-03_solid-mesh" name="weeds_+01-03_solid">
      <mesh>
        <source id="weeds_+01-03_solid-pos"><float_array id="weeds_+01-03_solid-pos-a" count="78">1.9748 -0.085588 -0.16886 1.9661 -0.094307 -0.16834 1.9636 -0.086618 -0.094969 1.9713 -0.078932 -0.095282 1.9749 -0.10283 -0.16703 1.9714 -0.094116 -0.093785 1.9836 -0.094112 -0.16755 1.979 -0.08643 -0.094098 1.9592 -0.080183 -0.021573 1.9658 -0.073526 -0.021595 1.9659 -0.086658 -0.020496 1.9724 -0.080002 -0.020518 1.9528 -0.074995 0.051946 1.9583 -0.069382 0.052135 1.9584 -0.08045 0.052897 1.9639 -0.074837 0.053087 1.9445 -0.071058 0.12559 1.949 -0.066492 0.12591 1.949 -0.075495 0.1264 1.9535 -0.070929 0.12672 1.9342 -0.068373 0.19939 1.9376 -0.064861 0.1997 1.9377 -0.071789 0.20002 1.9411 -0.068277 0.20034 1.9748 -0.09421 -0.16795 1.9377 -0.068325 0.19986</float_array><technique_common><accessor source="#weeds_+01-03_solid-pos-a" count="26" stride="3"><param name="X" type="float"/><param name="Y" type="float"/><param name="Z" type="float"/></accessor></technique_common></source>
        <source id="weeds_+01-03_solid-nrm"><float_array id="weeds_+01-03_solid-nrm-a" count="78">-0.033 0.851 0.525 -0.817 0.056 0.574 -0.999 -0.008 -0.046 -0.002 0.997 -0.082 -0.023 -0.723 0.69 0.011 -0.994 0.11 0.759 0.073 0.647 0.997 0.017 0.074 -0.997 -0.01 -0.073 -0.003 0.998 -0.065 0.012 -0.996 0.094 0.995 0.019 0.1 -0.995 -0.011 -0.099 -0.004 0.999 -0.048 0.012 -0.997 0.077 0.992 0.02 0.126 -0.992 -0.011 -0.125 -0.005 0.999 -0.031 0.012 -0.998 0.061 0.988 0.02 0.152 -0.708 -0.039 -0.705 0.074 0.782 -0.619 0.088 -0.828 -0.553 0.882 -0.014 -0.47 -0.046 0.105 0.993 0.136 -0.045 -0.99</float_array><technique_common><accessor source="#weeds_+01-03_solid-nrm-a" count="26" stride="3"><param name="X" type="float"/><param name="Y" type="float"/><param name="Z" type="float"/></accessor></technique_common></source>
        <vertices id="weeds_+01-03_solid-vtx"><input semantic="POSITION" source="#weeds_+01-03_solid-pos"/></vertices>
        <triangles count="48" material="MAT_WEED_STEM-mat"><input semantic="VERTEX" source="#weeds_+01-03_solid-vtx" offset="0"/><input semantic="NORMAL" source="#weeds_+01-03_solid-nrm" offset="1"/><p>0 0 1 1 2 2 0 0 2 2 3 3 1 1 4 4 5 5 1 1 5 5 2 2 4 4 6 6 7 7 4 4 7 7 5 5 6 6 0 0 3 3 6 6 3 3 7 7 3 3 2 2 8 8 3 3 8 8 9 9 2 2 5 5 10 10 2 2 10 10 8 8 5 5 7 7 11 11 5 5 11 11 10 10 7 7 3 3 9 9 7 7 9 9 11 11 9 9 8 8 12 12 9 9 12 12 13 13 8 8 10 10 14 14 8 8 14 14 12 12 10 10 11 11 15 15 10 10 15 15 14 14 11 11 9 9 13 13 11 11 13 13 15 15 13 13 12 12 16 16 13 13 16 16 17 17 12 12 14 14 18 18 12 12 18 18 16 16 14 14 15 15 19 19 14 14 19 19 18 18 15 15 13 13 17 17 15 15 17 17 19 19 17 17 16 16 20 20 17 17 20 20 21 21 16 16 18 18 22 22 16 16 22 22 20 20 18 18 19 19 23 23 18 18 23 23 22 22 19 19 17 17 21 21 19 19 21 21 23 23 0 0 1 1 24 24 1 1 4 4 24 24 4 4 6 6 24 24 6 6 0 0 24 24 20 20 21 21 25 25 22 22 20 20 25 25 23 23 22 22 25 25 21 21 23 23 25 25</p></triangles>
      </mesh>
    </geometry>
  </library_geometries>
  <library_visual_scenes><visual_scene id="scene" name="scene">
    <node id="weeds_+01-03_solid" name="weeds_+01-03_solid" type="NODE"><instance_geometry url="#weeds_+01-03_solid-mesh"><bind_material><technique_common>
      <instance_material symbol="MAT_WEED_STEM-mat" target="#MAT_WEED_STEM"/>
    </technique_common></bind_material></instance_geometry></node>
  </visual_scene></library_visual_scenes>
  <scene><instance_visual_scene url="#scene"/></scene>
</COLLADA>
