<?xml version="1.0" encoding="utf-8"?>
<COLLADA xmlns="http://www.collada.org/2005/11/COLLADASchema" version="1.4.1">
  <asset>
    <contributor><authoring_tool>VIGIL SIH26126 farm generator</authoring_tool></contributor>
    <unit name="meter" meter="1"/>
    <up_axis>Z_UP</up_axis>
  </asset>
  <library_effects>
    <effect id="MAT_WEED_GRASS-fx"><profile_COMMON><technique sid="c"><lambert><diffuse><color>0.0980 0.1280 0.0300 1</color></diffuse></lambert></technique></profile_COMMON></effect>
    <effect id="MAT_WEED_BROAD-fx"><profile_COMMON><technique sid="c"><lambert><diffuse><color>0.0720 0.1520 0.0340 1</color></diffuse></lambert></technique></profile_COMMON></effect>
  </library_effects>
  <library_materials>
    <material id="MAT_WEED_GRASS" name="MAT_WEED_GRASS"><instance_effect url="#MAT_WEED_GRASS-fx"/></material>
    <material id="MAT_WEED_BROAD" name="MAT_WEED_BROAD"><instance_effect url="#MAT_WEED_BROAD-fx"/></material>
  </library_materials>
  <library_geometries>
    <geometry id="weeds_-03-02_foliage-mesh" name="weeds_-03-02_foliage">
      <mesh>
        <source id="weeds_-03-02_foliage-pos"><float_array id="weeds_-03-02_foliage-pos-a" count="486">-0.0050983 0.0041122 -0.07243 -0.0038891 -0.0020561 -0.074557 -0.0064678 -0.0033264 -0.074804 -0.01059 -0.002408 -0.074178 -0.015337 0.00044632 -0.073111 -0.020823 0.0061455 -0.071848 -0.025692 0.014709 -0.071126 -0.028299 0.024694 -0.071383 -0.027763 0.032779 -0.07202 -0.024134 0.037936 -0.072181 -0.01766 0.03791 -0.071301 -0.010386 0.033793 -0.070108 -0.0031414 0.026162 -0.069521 0.0017166 0.017594 -0.070244 0.0037975 0.010165 -0.071749 0.0037842 0.0048933 -0.073155 0.0023823 0.0011692 -0.074174 -0.00016785 -0.00016594 -0.074292 -0.0083084 0.006937 -0.04728 -0.0012932 0.011255 -0.051304 0.0030937 0.0089998 -0.050738 0.0061493 0.0039902 -0.04814 0.0072765 -0.0027819 -0.044527 0.0054092 -0.01217 -0.040156 -0.00083733 -0.023015 -0.036638 -0.011257 -0.032707 -0.035358 -0.02243 -0.037744 -0.035998 -0.033016 -0.037067 -0.037361 -0.039827 -0.029202 -0.038689 -0.042103 -0.017563 -0.040129 -0.039667 -0.0039511 -0.042644 -0.033401 0.0068846 -0.046159 -0.025673 0.013394 -0.049623 -0.0186 0.016142 -0.051968 -0.012144 0.016481 -0.053095 -0.0077019 0.014401 -0.052296 -0.011652 0.01004 -0.022169 -0.019676 0.010953 -0.0324 -0.021687 0.016814 -0.033217 -0.020988 0.02459 -0.029871 -0.017645 0.032623 -0.023485 -0.010168 0.040748 -0.013177 0.0019627 0.04635 -0.00021952 0.016951 0.046871 0.012552 0.029558 0.042027 0.021412 0.037827 0.032269 0.026022 0.038103 0.019095 0.0243 0.032103 0.0062113 0.017672 0.021038 -0.0048323 0.0062262 0.0088959 -0.01041 -0.0067348 -0.0014591 -0.010808 -0.018016 -0.0088291 -0.0080347 -0.025762 -0.0142 -0.003273 -0.030687 -0.016527 0.0025043 -0.031336 -0.015144 0.013457 0.0028982 -0.0089645 0.0083122 -0.0017391 -0.010258 0.0045815 -0.0016423 -0.014736 0.0016222 0.00057944 -0.021488 4.1008e-05 0.0039942 -0.03163 0.00065517 0.0084488 -0.04425 0.0047569 0.012495 -0.056601 0.012438 0.014762 -0.064314 0.021155 0.015246 -0.066027 0.029827 0.015022 -0.059496 0.03593 0.014558 -0.048059 0.038634 0.013543 -0.033499 0.037733 0.010961 -0.020884 0.033615 0.0069148 -0.012365 0.028023 0.002692 -0.0078831 0.022641 -0.00039879 -0.0060387 0.017524 -0.0022446 -0.0071888 0.013756 -0.0019924 -0.018805 0.017223 0.027918 -0.018827 0.02513 0.019596 -0.013771 0.028362 0.019789 -0.0067139 0.02942 0.02371 0.00092316 0.028026 0.03013 0.0092945 0.022768 0.039647 0.016272 0.012626 0.050697 0.019321 -0.0012598 0.060589 0.017176 -0.014102 0.066545 0.0097294 -0.024028 0.068577 -0.0023766 -0.027319 0.065428 -0.015347 -0.024696 0.058608 -0.027369 -0.016875 0.048204 -0.034325 -0.0067186 0.037155 -0.036108 0.0029926 0.028015 -0.034531 0.010616 0.022121 -0.030897 0.016785 0.018811 -0.026031 0.020261 0.019185 -0.022581 0.021233 0.052904 -0.026834 0.013766 0.050329 -0.031992 0.014332 0.049544 -0.037329 0.018386 0.049596 -0.041691 0.024946 0.050116 -0.044338 0.035008 0.050833 -0.043188 0.047516 0.05112 -0.03717 0.059719 0.050698 -0.028284 0.067605 0.050293 -0.017639 0.07025 0.050829 -0.0078659 0.06558 0.052782 -0.00096893 0.056129 0.055112 0.0023823 0.042996 0.056676 0.0012093 0.030492 0.056386 -0.0030231 0.021111 0.054831 -0.0082817 0.015505 0.053137 -0.014109 0.012558 0.051724 -0.019312 0.01302 0.051246 -0.026558 0.025661 0.077832 -0.020184 0.025361 0.074618 -0.018351 0.022025 0.075016 -0.018579 0.017507 0.076988 -0.02079 0.012731 0.079851 -0.025974 0.0076876 0.083621 -0.034439 0.0038013 0.087302 -0.044933 0.0026255 0.089761 -0.053934 0.0046778 0.090561 -0.060268 0.0098906 0.090164 -0.061405 0.017642 0.088628 -0.058178 0.025612 0.086334 -0.051113 0.032738 0.082988 -0.042641 0.03661 0.07931 -0.034939 0.037284 0.076191 -0.029209 0.035951 0.074239 -0.024895 0.033381 0.073324 -0.022936 0.030138 0.073906 -0.030617 0.030262 0.10274 -0.034763 0.03225 0.10001 -0.034428 0.03439 0.099822 -0.032164 0.03651 0.10079 -0.028442 0.038148 0.10244 -0.022568 0.038946 0.10472 -0.014959 0.038042 0.10691 -0.0071907 0.03507 0.10832 -0.0019627 0.031034 0.1089 -0.00011063 0.026464 0.10923 -0.0031338 0.022568 0.10948 -0.0092678 0.02006 0.10934 -0.017574 0.019147 0.10819 -0.025181 0.02006 0.106 -0.030661 0.022114 0.10353 -0.033829 0.024467 0.1016 -0.035454 0.026975 0.10033 -0.035194 0.029131 0.10022 -0.034908 0.035352 0.12757 -0.032564 0.030771 0.12484 -0.034336 0.029107 0.12474 -0.037827 0.028781 0.12581 -0.042276 0.029844 0.1276 -0.04804 0.033018 0.13007 -0.054115 0.038699 0.13253 -0.058846 0.046156 0.13423 -0.060593 0.052882 0.135 -0.059032 0.057987 0.1353 -0.053722 0.059553 0.13522 -0.046665 0.057983 0.13463 -0.038782 0.053588 0.13303 -0.032715 0.0479 0.13057 -0.029264 0.042479 0.12802 -0.028051 0.038272 0.12613 -0.028318 0.03495 0.12494 -0.030033 0.033229 0.12493</float_array><technique_common><accessor source="#weeds_-03-02_foliage-pos-a" count="162" stride="3"><param name="X" type="float"/><param name="Y" type="float"/><param name="Z" type="float"/></accessor></technique_common></source>
        <source id="weeds_-03-02_foliage-nrm"><float_array id="weeds_-03-02_foliage-nrm-a" count="966">-0.031 0.198 -0.98 -0.064 0.314 -0.947 -0.07 0.315 -0.947 -0.054 0.301 -0.952 -0.02 0.235 -0.972 -0.024 0.102 -0.994 -0.076 -0.025 -0.997 -0.104 -0.066 -0.992 -0.052 -0.027 -0.998 0.052 0.037 -0.998 0.159 0.092 -0.983 0.218 0.115 -0.969 0.171 0.114 -0.979 0.042 0.139 -0.989 -0.067 0.209 -0.976 -0.102 0.274 -0.956 -0.105 0.295 -0.95 -0.108 0.29 -0.951 -0.061 -0.411 -0.91 -0.16 -0.521 -0.838 -0.158 -0.526 -0.835 -0.153 -0.5 -0.853 -0.11 -0.43 -0.896 0.002 -0.348 -0.937 0.128 -0.304 -0.944 0.18 -0.296 -0.938 0.132 -0.282 -0.95 0.033 -0.238 -0.971 -0.061 -0.18 -0.982 -0.101 -0.148 -0.984 -0.076 -0.196 -0.978 -0.042 -0.326 -0.945 -0.052 -0.46 -0.886 -0.091 -0.531 -0.842 -0.113 -0.55 -0.828 -0.108 -0.548 -0.829 0.725 0.186 -0.663 0.781 0.185 -0.596 0.781 0.186 -0.596 0.774 0.175 -0.608 0.747 0.161 -0.645 0.695 0.171 -0.699 0.641 0.206 -0.739 0.62 0.226 -0.751 0.633 0.203 -0.747 0.654 0.15 -0.741 0.67 0.095 -0.736 0.675 0.069 -0.735 0.678 0.1 -0.728 0.725 0.225 -0.651 0.751 0.24 -0.615 0.762 0.239 -0.601 0.762 0.239 -0.602 -0.402 0.089 -0.911 -0.508 0.154 -0.848 -0.513 0.15 -0.845 -0.491 0.151 -0.858 -0.421 0.125 -0.899 -0.331 0.017 -0.944 -0.278 -0.123 -0.953 -0.267 -0.176 -0.947 -0.258 -0.105 -0.96 -0.223 0.027 -0.974 -0.176 0.157 -0.972 -0.143 0.221 -0.965 -0.182 0.183 -0.966 -0.304 0.102 -0.947 -0.438 0.071 -0.896 -0.509 0.095 -0.856 -0.526 0.11 -0.844 -0.524 0.103 -0.846 0.431 -0.579 -0.692 0.439 -0.651 -0.619 0.441 -0.651 -0.619 0.429 -0.644 -0.634 0.411 -0.613 -0.675 0.412 -0.545 -0.73 0.436 -0.471 -0.767 0.451 -0.441 -0.776 0.431 -0.461 -0.776 0.383 -0.501 -0.776 0.33 -0.534 -0.778 0.305 -0.546 -0.78 0.337 -0.542 -0.769 0.41 -0.547 -0.73 0.467 -0.573 -0.673 0.486 -0.603 -0.632 0.487 -0.618 -0.617 0.488 -0.616 -0.618 0.131 0.105 -0.986 0.171 0.233 -0.957 0.17 0.234 -0.957 0.176 0.208 -0.962 0.169 0.138 -0.976 0.12 0.04 -0.992 0.046 -0.031 -0.998 0.01 -0.053 -0.999 0.042 -0.051 -0.998 0.116 -0.054 -0.992 0.188 -0.065 -0.98 0.218 -0.073 -0.973 0.187 -0.045 -0.981 0.13 0.039 -0.991 0.098 0.144 -0.985 0.102 0.215 -0.971 0.111 0.24 -0.964 0.11 0.238 -0.965 -0.333 -0.324 -0.885 -0.436 -0.339 -0.834 -0.437 -0.34 -0.833 -0.423 -0.326 -0.846 -0.374 -0.304 -0.876 -0.285 -0.302 -0.91 -0.2 -0.328 -0.923 -0.166 -0.345 -0.924 -0.184 -0.323 -0.928 -0.219 -0.266 -0.939 -0.246 -0.205 -0.947 -0.255 -0.177 -0.951 -0.26 -0.215 -0.942 -0.287 -0.299 -0.91 -0.34 -0.367 -0.866 -0.388 -0.391 -0.835 -0.408 -0.393 -0.824 -0.407 -0.394 -0.824 0.38 -0.115 -0.918 0.491 -0.152 -0.858 0.495 -0.147 -0.856 0.475 -0.153 -0.867 0.402 -0.145 -0.904 0.298 -0.059 -0.953 0.225 0.068 -0.972 0.207 0.119 -0.971 0.209 0.045 -0.977 0.196 -0.093 -0.976 0.171 -0.229 -0.958 0.149 -0.298 -0.943 0.18 -0.255 -0.95 0.285 -0.151 -0.947 0.41 -0.09 -0.908 0.483 -0.098 -0.87 0.501 -0.107 -0.859 0.498 -0.101 -0.861 -0.248 0.287 -0.925 -0.297 0.372 -0.879 -0.302 0.371 -0.878 -0.286 0.364 -0.886 -0.244 0.322 -0.915 -0.219 0.214 -0.952 -0.234 0.093 -0.968 -0.247 0.05 -0.968 -0.214 0.098 -0.972 -0.143 0.18 -0.973 -0.066 0.254 -0.965 -0.02 0.288 -0.957 -0.061 0.274 -0.96 -0.177 0.258 -0.95 -0.283 0.282 -0.917 -0.325 0.324 -0.889 -0.331 0.34 -0.88 -0.332 0.336 -0.881 0.031 -0.198 0.98 0.064 -0.314 0.947 0.07 -0.315 0.947 0.054 -0.301 0.952 0.02 -0.235 0.972 0.024 -0.102 0.994 0.076 0.025 0.997 0.104 0.066 0.992 0.052 0.027 0.998 -0.052 -0.037 0.998 -0.159 -0.092 0.983 -0.218 -0.115 0.969 -0.171 -0.114 0.979 -0.042 -0.139 0.989 0.067 -0.209 0.976 0.102 -0.274 0.956 0.105 -0.295 0.95 0.108 -0.29 0.951 0.061 0.411 0.91 0.16 0.521 0.838 0.158 0.526 0.835 0.153 0.5 0.853 0.11 0.43 0.896 -0.002 0.348 0.937 -0.128 0.304 0.944 -0.18 0.296 0.938 -0.132 0.282 0.95 -0.033 0.238 0.971 0.061 0.18 0.982 0.101 0.148 0.984 0.076 0.196 0.978 0.042 0.326 0.945 0.052 0.46 0.886 0.091 0.531 0.842 0.113 0.55 0.828 0.108 0.548 0.829 -0.725 -0.186 0.663 -0.781 -0.185 0.596 -0.781 -0.186 0.596 -0.774 -0.175 0.608 -0.747 -0.161 0.645 -0.695 -0.171 0.699 -0.641 -0.206 0.739 -0.62 -0.226 0.751 -0.633 -0.203 0.747 -0.654 -0.15 0.741 -0.67 -0.095 0.736 -0.675 -0.069 0.735 -0.678 -0.1 0.728 -0.725 -0.225 0.651 -0.751 -0.24 0.615 -0.762 -0.239 0.601 -0.762 -0.239 0.602 0.402 -0.089 0.911 0.508 -0.154 0.848 0.513 -0.15 0.845 0.491 -0.151 0.858 0.421 -0.125 0.899 0.331 -0.017 0.944 0.278 0.123 0.953 0.267 0.176 0.947 0.258 0.105 0.96 0.223 -0.027 0.974 0.176 -0.157 0.972 0.143 -0.221 0.965 0.182 -0.183 0.966 0.304 -0.102 0.947 0.438 -0.071 0.896 0.509 -0.095 0.856 0.526 -0.11 0.844 0.524 -0.103 0.846 -0.431 0.579 0.692 -0.439 0.651 0.619 -0.441 0.651 0.619 -0.429 0.644 0.634 -0.411 0.613 0.675 -0.412 0.545 0.73 -0.436 0.471 0.767 -0.451 0.441 0.776 -0.431 0.461 0.776 -0.383 0.501 0.776 -0.33 0.534 0.778 -0.305 0.546 0.78 -0.337 0.542 0.769 -0.41 0.547 0.73 -0.467 0.573 0.673 -0.486 0.603 0.632 -0.487 0.618 0.617 -0.488 0.616 0.618 -0.131 -0.105 0.986 -0.171 -0.233 0.957 -0.17 -0.234 0.957 -0.176 -0.208 0.962 -0.169 -0.138 0.976 -0.12 -0.04 0.992 -0.046 0.031 0.998 -0.01 0.053 0.999 -0.042 0.051 0.998 -0.116 0.054 0.992 -0.188 0.065 0.98 -0.218 0.073 0.973 -0.187 0.045 0.981 -0.13 -0.039 0.991 -0.098 -0.144 0.985 -0.102 -0.215 0.971 -0.111 -0.24 0.964 -0.11 -0.238 0.965 0.333 0.324 0.885 0.436 0.339 0.834 0.437 0.34 0.833 0.423 0.326 0.846 0.374 0.304 0.876 0.285 0.302 0.91 0.2 0.328 0.923 0.166 0.345 0.924 0.184 0.323 0.928 0.219 0.266 0.939 0.246 0.205 0.947 0.255 0.177 0.951 0.26 0.215 0.942 0.287 0.299 0.91 0.34 0.367 0.866 0.388 0.391 0.835 0.408 0.393 0.824 0.407 0.394 0.824 -0.38 0.115 0.918 -0.491 0.152 0.858 -0.495 0.147 0.856 -0.475 0.153 0.867 -0.402 0.145 0.904 -0.298 0.059 0.953 -0.225 -0.068 0.972 -0.207 -0.119 0.971 -0.209 -0.045 0.977 -0.196 0.093 0.976 -0.171 0.229 0.958 -0.149 0.298 0.943 -0.18 0.255 0.95 -0.285 0.151 0.947 -0.41 0.09 0.908 -0.483 0.098 0.87 -0.501 0.107 0.859 -0.498 0.101 0.861 0.248 -0.287 0.925 0.297 -0.372 0.879 0.302 -0.371 0.878 0.286 -0.364 0.886 0.244 -0.322 0.915 0.219 -0.214 0.952 0.234 -0.093 0.968 0.247 -0.05 0.968 0.214 -0.098 0.972 0.143 -0.18 0.973 0.066 -0.254 0.965 0.02 -0.288 0.957 0.061 -0.274 0.96 0.177 -0.258 0.95 0.283 -0.282 0.917 0.325 -0.324 0.889 0.331 -0.34 0.88 0.332 -0.336 0.881</float_array><technique_common><accessor source="#weeds_-03-02_foliage-nrm-a" count="322" stride="3"><param name="X" type="float"/><param name="Y" type="float"/><param name="Z" type="float"/></accessor></technique_common></source>
        <vertices id="weeds_-03-02_foliage-vtx"><input semantic="POSITION" source="#weeds_-03-02_foliage-pos"/></vertices>
        <triangles count="288" material="MAT_WEED_BROAD-mat"><input semantic="VERTEX" source="#weeds_-03-02_foliage-vtx" offset="0"/><input semantic="NORMAL" source="#weeds_-03-02_foliage-nrm" offset="1"/><p>0 0 1 1 2 2 0 0 2 2 3 3 0 0 3 3 4 4 0 0 4 4 5 5 0 0 5 5 6 6 0 0 6 6 7 7 0 0 7 7 8 8 0 0 8 8 9 9 0 0 9 9 10 10 0 0 10 10 11 11 0 0 11 11 12 12 0 0 12 12 13 13 0 0 13 13 14 14 0 0 14 14 15 15 0 0 15 15 16 16 0 0 16 16 17 17 18 18 19 19 20 20 18 18 20 20 21 21 18 18 21 21 22 22 18 18 22 22 23 23 18 18 23 23 24 24 18 18 24 24 25 25 18 18 25 25 26 26 18 18 26 26 27 27 18 18 27 27 28 28 18 18 28 28 29 29 18 18 29 29 30 30 18 18 30 30 31 31 18 18 31 31 32 32 18 18 32 32 33 33 18 18 33 33 34 34 18 18 34 34 35 35 36 36 37 37 38 38 36 36 38 38 39 39 36 36 39 39 40 40 36 36 40 40 41 41 36 36 41 41 42 42 36 36 42 42 43 43 36 36 43 43 44 44 36 36 44 44 45 45 36 36 45 45 46 46 36 36 46 46 47 47 36 36 47 47 48 48 36 36 48 48 49 41 36 36 49 41 50 49 36 36 50 49 51 50 36 36 51 50 52 51 36 36 52 51 53 52 54 53 55 54 56 55 54 53 56 55 57 56 54 53 57 56 58 57 54 53 58 57 59 58 54 53 59 58 60 59 54 53 60 59 61 60 54 53 61 60 62 61 54 53 62 61 63 62 54 53 63 62 64 63 54 53 64 63 65 64 54 53 65 64 66 65 54 53 66 65 67 66 54 53 67 66 68 67 54 53 68 67 69 68 54 53 69 68 70 69 54 53 70 69 71 70 72 71 73 72 74 73 72 71 74 73 75 74 72 71 75 74 76 75 72 71 76 75 77 76 72 71 77 76 78 77 72 71 78 77 79 78 72 71 79 78 80 79 72 71 80 79 81 80 72 71 81 80 82 81 72 71 82 81 83 82 72 71 83 82 84 83 72 71 84 83 85 84 72 71 85 84 86 85 72 71 86 85 87 86 72 71 87 86 88 87 72 71 88 87 89 88 90 89 91 90 92 91 90 89 92 91 93 92 90 89 93 92 94 93 90 89 94 93 95 94 90 89 95 94 96 95 90 89 96 95 97 96 90 89 97 96 98 97 90 89 98 97 99 98 90 89 99 98 100 99 90 89 100 99 101 100 90 89 101 100 102 101 90 89 102 101 103 102 90 89 103 102 104 103 90 89 104 103 105 104 90 89 105 104 106 105 90 89 106 105 107 106 108 107 109 108 110 109 108 107 110 109 111 110 108 107 111 110 112 111 108 107 112 111 113 112 108 107 113 112 114 113 108 107 114 113 115 114 108 107 115 114 116 115 108 107 116 115 117 116 108 107 117 116 118 117 108 107 118 117 119 118 108 107 119 118 120 119 108 107 120 119 121 120 108 107 121 120 122 121 108 107 122 121 123 122 108 107 123 122 124 123 108 107 124 123 125 124 126 125 127 126 128 127 126 125 128 127 129 128 126 125 129 128 130 129 126 125 130 129 131 130 126 125 131 130 132 131 126 125 132 131 133 132 126 125 133 132 134 133 126 125 134 133 135 134 126 125 135 134 136 135 126 125 136 135 137 136 126 125 137 136 138 137 126 125 138 137 139 138 126 125 139 138 140 139 126 125 140 139 141 140 126 125 141 140 142 141 126 125 142 141 143 142 144 143 145 144 146 145 144 143 146 145 147 146 144 143 147 146 148 147 144 143 148 147 149 148 144 143 149 148 150 149 144 143 150 149 151 150 144 143 151 150 152 151 144 143 152 151 153 152 144 143 153 152 154 153 144 143 154 153 155 154 144 143 155 154 156 155 144 143 156 155 157 156 144 143 157 156 158 157 144 143 158 157 159 158 144 143 159 158 160 159 144 143 160 159 161 160 0 161 2 163 1 162 0 161 3 164 2 163 0 161 4 165 3 164 0 161 5 166 4 165 0 161 6 167 5 166 0 161 7 168 6 167 0 161 8 169 7 168 0 161 9 170 8 169 0 161 10 171 9 170 0 161 11 172 10 171 0 161 12 173 11 172 0 161 13 174 12 173 0 161 14 175 13 174 0 161 15 176 14 175 0 161 16 177 15 176 0 161 17 178 16 177 18 179 20 181 19 180 18 179 21 182 20 181 18 179 22 183 21 182 18 179 23 184 22 183 18 179 24 185 23 184 18 179 25 186 24 185 18 179 26 187 25 186 18 179 27 188 26 187 18 179 28 189 27 188 18 179 29 190 28 189 18 179 30 191 29 190 18 179 31 192 30 191 18 179 32 193 31 192 18 179 33 194 32 193 18 179 34 195 33 194 18 179 35 196 34 195 36 197 38 199 37 198 36 197 39 200 38 199 36 197 40 201 39 200 36 197 41 202 40 201 36 197 42 203 41 202 36 197 43 204 42 203 36 197 44 205 43 204 36 197 45 206 44 205 36 197 46 207 45 206 36 197 47 208 46 207 36 197 48 209 47 208 36 197 49 202 48 209 36 197 50 210 49 202 36 197 51 211 50 210 36 197 52 212 51 211 36 197 53 213 52 212 54 214 56 216 55 215 54 214 57 217 56 216 54 214 58 218 57 217 54 214 59 219 58 218 54 214 60 220 59 219 54 214 61 221 60 220 54 214 62 222 61 221 54 214 63 223 62 222 54 214 64 224 63 223 54 214 65 225 64 224 54 214 66 226 65 225 54 214 67 227 66 226 54 214 68 228 67 227 54 214 69 229 68 228 54 214 70 230 69 229 54 214 71 231 70 230 72 232 74 234 73 233 72 232 75 235 74 234 72 232 76 236 75 235 72 232 77 237 76 236 72 232 78 238 77 237 72 232 79 239 78 238 72 232 80 240 79 239 72 232 81 241 80 240 72 232 82 242 81 241 72 232 83 243 82 242 72 232 84 244 83 243 72 232 85 245 84 244 72 232 86 246 85 245 72 232 87 247 86 246 72 232 88 248 87 247 72 232 89 249 88 248 90 250 92 252 91 251 90 250 93 253 92 252 90 250 94 254 93 253 90 250 95 255 94 254 90 250 96 256 95 255 90 250 97 257 96 256 90 250 98 258 97 257 90 250 99 259 98 258 90 250 100 260 99 259 90 250 101 261 100 260 90 250 102 262 101 261 90 250 103 263 102 262 90 250 104 264 103 263 90 250 105 265 104 264 90 250 106 266 105 265 90 250 107 267 106 266 108 268 110 270 109 269 108 268 111 271 110 270 108 268 112 272 111 271 108 268 113 273 112 272 108 268 114 274 113 273 108 268 115 275 114 274 108 268 116 276 115 275 108 268 117 277 116 276 108 268 118 278 117 277 108 268 119 279 118 278 108 268 120 280 119 279 108 268 121 281 120 280 108 268 122 282 121 281 108 268 123 283 122 282 108 268 124 284 123 283 108 268 125 285 124 284 126 286 128 288 127 287 126 286 129 289 128 288 126 286 130 290 129 289 126 286 131 291 130 290 126 286 132 292 131 291 126 286 133 293 132 292 126 286 134 294 133 293 126 286 135 295 134 294 126 286 136 296 135 295 126 286 137 297 136 296 126 286 138 298 137 297 126 286 139 299 138 298 126 286 140 300 139 299 126 286 141 301 140 300 126 286 142 302 141 301 126 286 143 303 142 302 144 304 146 306 145 305 144 304 147 307 146 306 144 304 148 308 147 307 144 304 149 309 148 308 144 304 150 310 149 309 144 304 151 311 150 310 144 304 152 312 151 311 144 304 153 313 152 312 144 304 154 314 153 313 144 304 155 315 154 314 144 304 156 316 155 315 144 304 157 317 156 316 144 304 158 318 157 317 144 304 159 319 158 318 144 304 160 320 159 319 144 304 161 321 160 320</p></triangles>
      </mesh>
    </geometry>
  </library_geometries>
  <library_visual_scenes><visual_scene id="scene" name="scene">
    <node id="weeds_-03-02_foliage" name="weeds_-03-02_foliage" type="NODE"><instance_geometry url="#weeds_-03-02_foliage-mesh"><bind_material><technique_common>
      <instance_material symbol="MAT_WEED_GRASS-mat" target="#MAT_WEED_GRASS"/>
      <instance_material symbol="MAT_WEED_BROAD-mat" target="#MAT_WEED_BROAD"/>
    </technique_common></bind_material></instance_geometry></node>
  </visual_scene></library_visual_scenes>
  <scene><instance_visual_scene url="#scene"/></scene>
<!-- vigil:double-sided -->
</COLLADA>
