<?xml version="1.0" encoding="utf-8"?>
<COLLADA xmlns="http://www.collada.org/2005/11/COLLADASchema" version="1.4.1">
  <asset>
    <contributor><authoring_tool>VIGIL SIH26126 farm generator</authoring_tool></contributor>
    <unit name="meter" meter="1"/>
    <up_axis>Z_UP</up_axis>
  </asset>
  <library_effects>
    <effect id="MAT_WEED_GRASS-fx"><profile_COMMON><technique sid="c"><lambert><diffuse><color>0.0980 0.1280 0.0300 1</color></diffuse></lambert></technique></profile_COMMON></effect>
    <effect id="MAT_WEED_BROAD-fx"><profile_COMMON><technique sid="c"><lambert><diffuse><color>0.0720 0.1520 0.0340 1</color></diffuse></lambert></technique></profile_COMMON></effect>
  </library_effects>
  <library_materials>
    <material id="MAT_WEED_GRASS" name="MAT_WEED_GRASS"><instance_effect url="#MAT_WEED_GRASS-fx"/></material>
    <material id="MAT_WEED_BROAD" name="MAT_WEED_BROAD"><instance_effect url="#MAT_WEED_BROAD-fx"/></material>
  </library_materials>
  <library_geometries>
    <geometry id="weeds_+02-01_foliage-mesh" name="weeds_+02-01_foliage">
      <mesh>
        <source id="weeds_+02-01_foliage-pos"><float_array id="weeds_+02-01_foliage-pos-a" count="1320">-0.0046825 3.8856 -0.089892 -0.0028019 3.8937 -0.089677 -0.031477 3.8958 -0.0036639 -0.033688 3.889 -0.0038211 -0.061832 3.8989 0.044102 -0.063858 3.8941 0.044008 -0.094582 3.9039 0.034723 -0.095881 3.9015 0.034685 -0.12932 3.9105 -0.020372 -0.12932 3.9105 -0.020372 -0.0033817 3.8842 -0.089988 -0.0041027 3.895 -0.089581 -0.034365 3.888 0.00021659 -0.034475 3.8787 -0.00010601 -0.066275 3.8819 0.050202 -0.066881 3.8752 0.049988 -0.10065 3.8776 0.040635 -0.10125 3.874 0.040532 -0.1371 3.8747 -0.016776 -0.1371 3.8747 -0.016776 -0.0021057 3.8939 -0.089695 -0.0053787 3.8853 -0.089874 0.02252 3.8752 -0.0087499 0.026072 3.8822 -0.0086343 0.049583 3.8666 0.040029 0.052679 3.8714 0.040085 0.075163 3.8598 0.039066 0.077074 3.8622 0.039081 0.099489 3.8545 -0.0053436 0.099489 3.8545 -0.0053436 0.0029545 3.8887 -0.090065 -0.010439 3.8905 -0.089504 -0.01314 3.8415 0.02931 -0.0015144 3.8413 0.028868 -0.017151 3.7948 0.093677 -0.0087204 3.7955 0.09339 -0.023785 3.7513 0.076759 -0.019344 3.7521 0.076624 -0.03261 3.7106 -0.00507 -0.03261 3.7106 -0.00507 -0.00012589 3.8909 -0.089872 -0.0073586 3.8883 -0.089697 0.0065098 3.8589 0.0030629 0.012766 3.861 0.0029042 0.019382 3.831 0.059547 0.02396 3.8324 0.059426 0.03039 3.805 0.060028 0.032854 3.8056 0.05996 0.039732 3.7807 0.011009 0.039732 3.7807 0.011009 -0.0037498 3.8864 -0.089897 -0.0037346 3.8928 -0.089672 -0.027802 3.8886 -0.0057599 -0.027214 3.8832 -0.005973 -0.052914 3.8853 0.045523 -0.052055 3.8814 0.045355 -0.079668 3.8836 0.04665 -0.078985 3.8816 0.046554 -0.1078 3.8833 0.0039879 -0.1078 3.8833 0.0039879 -0.0075798 3.8925 -0.089539 9.5367e-05 3.8867 -0.09003 0.028412 3.9121 0.021323 0.022312 3.9176 0.021745 0.054762 3.9396 0.086266 0.050716 3.9439 0.08657 0.078468 3.9699 0.08073 0.076523 3.9724 0.08089 0.10005 4.0026 0.015932 0.10005 4.0026 0.015932 -0.0016327 3.8845 -0.090043 -0.0058517 3.8947 -0.089526 -0.050257 3.8705 0.024805 -0.046782 3.8617 0.024365 -0.096706 3.8478 0.079929 -0.094286 3.8414 0.079613 -0.14629 3.8279 0.048925 -0.14506 3.8245 0.048757 -0.19819 3.81 -0.044952 -0.19819 3.81 -0.044952 -0.003334 3.886 -0.089927 -0.0041504 3.8932 -0.089642 -0.041935 3.8836 0.01384 -0.041351 3.8774 0.013599 -0.081511 3.8753 0.068951 -0.081173 3.8708 0.068779 -0.12377 3.8693 0.052433 -0.12364 3.8669 0.052343 -0.16813 3.8652 -0.019733 -0.16813 3.8652 -0.019733 -0.0074043 3.886 -0.089776 -8.0109e-05 3.8932 -0.089793 -0.020262 3.9105 -0.010394 -0.027229 3.905 -0.010328 -0.042385 3.9289 0.031884 -0.047873 3.9255 0.031968 -0.066994 3.9494 0.019257 -0.070114 3.9479 0.019321 -0.093557 3.9716 -0.035809 -0.093557 3.9716 -0.035809 -0.0037632 3.8849 -0.089948 -0.0037212 3.8943 -0.089621 -0.050066 3.8884 0.021713 -0.049644 3.8804 0.021417 -0.098396 3.8841 0.076351 -0.097757 3.8783 0.076125 -0.14963 3.8824 0.048366 -0.14911 3.8794 0.04824 -0.20292 3.8827 -0.040317 -0.20292 3.8827 -0.040317 0.0011406 3.8857 -0.090102 -0.008625 3.8935 -0.089467 -0.031704 3.8568 0.030715 -0.02322 3.8503 0.03017 -0.0562 3.8216 0.099783 -0.049963 3.817 0.099389 -0.083261 3.789 0.091553 -0.079887 3.7866 0.091343 -0.11246 3.7586 0.01902 -0.11246 3.7586 0.01902 -0.0056057 3.8938 -0.089566 -0.0018787 3.8854 -0.090003 0.033144 3.896 0.0073859 0.029392 3.903 0.0077709 0.066324 3.9084 0.064205 0.063213 3.9132 0.064491 0.096905 3.923 0.059306 0.095043 3.9255 0.059462 0.12524 3.9396 0.0022353 0.12524 3.9396 0.0022353 -0.006422 3.8852 -0.089839 -0.0010624 3.894 -0.08973 -0.028166 3.906 0.016427 -0.032225 3.8983 0.016306 -0.056953 3.919 0.080134 -0.0595 3.9133 0.080026 -0.088097 3.934 0.079036 -0.089237 3.9309 0.078968 -0.12117 3.9507 0.022507 -0.12117 3.9507 0.022507 -0.0036163 3.8849 -0.089954 -0.0038681 3.8943 -0.089615 -0.027588 3.889 -0.0017943 -0.02737 3.881 -0.0020843 -0.052528 3.8846 0.052908 -0.052368 3.8788 0.052698 -0.079365 3.8816 0.056353 -0.079279 3.8785 0.056241 -0.10789 3.8801 0.014154 -0.10789 3.8801 0.014154 0.26285 -2.8651 -0.12401 0.26556 -2.8695 -0.12397 0.28634 -2.8565 -0.056404 0.28399 -2.8528 -0.05644 0.30984 -2.8419 -0.021678 0.30812 -2.8392 -0.021707 0.33744 -2.8249 -0.034964 0.33651 -2.8235 -0.03498 0.36808 -2.8063 -0.083898 0.36808 -2.8063 -0.083898 0.26179 -2.8682 -0.12424 0.26662 -2.8664 -0.12374 0.2547 -2.8498 -0.077546 0.25047 -2.8512 -0.077974 0.24446 -2.8323 -0.053631 0.24134 -2.8331 -0.053939 0.23692 -2.8132 -0.062565 0.23523 -2.8135 -0.062726 0.23144 -2.7929 -0.096684 0.23144 -2.7929 -0.096684 0.26625 -2.8665 -0.12378 0.26216 -2.8682 -0.12421 0.26815 -2.8946 -0.069816 0.27178 -2.8935 -0.069451 0.27684 -2.9197 -0.043766 0.27954 -2.9192 -0.043507 0.28928 -2.9431 -0.059007 0.29075 -2.9429 -0.058873 0.30447 -2.9652 -0.10449 0.30447 -2.9652 -0.10449 0.26646 -2.8677 -0.12381 0.26195 -2.867 -0.12417 0.25448 -2.8902 -0.07765 0.25837 -2.8907 -0.077336 0.24926 -2.9123 -0.054392 0.25209 -2.9126 -0.054159 0.24715 -2.9329 -0.065415 0.24866 -2.933 -0.065288 0.24742 -2.9523 -0.10258 0.24742 -2.9523 -0.10258 0.26534 -2.8685 -0.12395 0.26307 -2.8661 -0.12404 0.24936 -2.8775 -0.083058 0.25134 -2.8795 -0.082976 0.23715 -2.8882 -0.058076 0.23862 -2.8897 -0.058013 0.22718 -2.8979 -0.057898 0.22798 -2.8986 -0.057863 0.21921 -2.9066 -0.079898 0.21921 -2.9066 -0.079898 0.26188 -2.8673 -0.12419 0.26654 -2.8673 -0.12379 0.26085 -2.8459 -0.063016 0.25686 -2.8461 -0.063371 0.25728 -2.8234 -0.029107 0.25439 -2.8236 -0.029369 0.25708 -2.7991 -0.035363 0.25555 -2.7992 -0.035505 0.2596 -2.7734 -0.073865 0.2596 -2.7734 -0.073865 0.26283 -2.8655 -0.12403 0.26559 -2.8692 -0.12395 0.27886 -2.8585 -0.063255 0.27669 -2.8552 -0.063295 0.29428 -2.8464 -0.027944 0.29285 -2.8439 -0.027957 0.31301 -2.8324 -0.030869 0.31233 -2.8311 -0.030867 0.33452 -2.817 -0.065165 0.33452 -2.817 -0.065165 0.26446 -2.8705 -0.12411 0.26396 -2.8642 -0.12387 0.23779 -2.8683 -0.079315 0.23873 -2.8737 -0.079472 0.21382 -2.8717 -0.058055 0.21487 -2.8755 -0.058134 0.19303 -2.8737 -0.070945 0.19378 -2.8757 -0.070968 0.17469 -2.8746 -0.10945 0.17469 -2.8746 -0.10945 0.26179 -2.866 -0.12414 0.26663 -2.8686 -0.12384 0.27261 -2.8512 -0.068706 0.26826 -2.8494 -0.069002 0.28044 -2.8327 -0.038202 0.27718 -2.8317 -0.03844 0.29126 -2.8126 -0.044335 0.28947 -2.8122 -0.044474 0.30445 -2.7914 -0.079396 0.30445 -2.7914 -0.079396 0.26571 -2.866 -0.1238 0.2627 -2.8686 -0.12418 0.26967 -2.8827 -0.075474 0.27199 -2.8802 -0.075161 0.27833 -2.8957 -0.045345 0.27981 -2.8937 -0.045128 0.28947 -2.9072 -0.043922 0.29014 -2.9061 -0.043813 0.30276 -2.9175 -0.067892 0.30276 -2.9175 -0.067892 -0.10678 -1.6178 -0.11445 -0.1086 -1.6225 -0.11471 -0.081858 -1.6363 -0.049756 -0.080328 -1.6323 -0.049528 -0.054529 -1.6481 -0.017887 -0.05344 -1.6452 -0.017722 -0.026413 -1.6574 -0.034397 -0.025841 -1.6559 -0.034309 0.0022869 -1.6647 -0.08683 0.0022869 -1.6647 -0.08683 -0.10981 -1.6189 -0.11455 -0.10557 -1.6214 -0.11461 -0.09642 -1.6067 -0.067177 -0.099922 -1.6043 -0.067109 -0.087088 -1.5907 -0.042167 -0.089523 -1.5889 -0.042109 -0.077307 -1.5729 -0.050245 -0.078548 -1.5718 -0.050209 -0.067156 -1.5536 -0.083693 -0.067156 -1.5536 -0.083693 -0.10585 -1.6212 -0.1146 -0.10953 -1.6191 -0.11455 -0.12272 -1.6442 -0.060928 -0.11976 -1.6463 -0.060989 -0.13534 -1.6681 -0.035893 -0.13335 -1.6698 -0.035951 -0.14729 -1.69 -0.052493 -0.14633 -1.691 -0.052531 -0.1588 -1.7105 -0.099584 -0.1588 -1.7105 -0.099584 -0.10667 -1.6221 -0.11466 -0.10871 -1.6182 -0.1145 -0.12774 -1.6307 -0.067161 -0.12589 -1.6339 -0.067299 -0.14628 -1.6421 -0.043297 -0.14487 -1.6445 -0.043394 -0.1642 -1.6519 -0.054 -0.1634 -1.6531 -0.05405 -0.18162 -1.6604 -0.091066 -0.18162 -1.6604 -0.091066 -0.10795 -1.6217 -0.11466 -0.10744 -1.6186 -0.11449 -0.12129 -1.6188 -0.071989 -0.12168 -1.6215 -0.072132 -0.1349 -1.6184 -0.045619 -0.13516 -1.6203 -0.045722 -0.14813 -1.6167 -0.044257 -0.14825 -1.6178 -0.044312 -0.161 -1.614 -0.065254 -0.161 -1.614 -0.065254 -0.10905 -1.6184 -0.11451 -0.10633 -1.6219 -0.11465 -0.088839 -1.6103 -0.053408 -0.091291 -1.6074 -0.053296 -0.071091 -1.5972 -0.019217 -0.07295 -1.5951 -0.019141 -0.052834 -1.5819 -0.025492 -0.053867 -1.5809 -0.025454 -0.034178 -1.565 -0.064256 -0.034178 -1.565 -0.064256 -0.10706 -1.618 -0.11446 -0.10833 -1.6223 -0.1147 -0.08814 -1.6312 -0.055716 -0.08684 -1.6276 -0.055511 -0.067442 -1.6387 -0.022314 -0.066345 -1.6361 -0.022166 -0.046034 -1.644 -0.027449 -0.04537 -1.6427 -0.02737 -0.024019 -1.6477 -0.064206 -0.024019 -1.6477 -0.064206 -0.10998 -1.6222 -0.11472 -0.1054 -1.6181 -0.11444 -0.12062 -1.605 -0.066928 -0.1242 -1.6089 -0.067182 -0.13561 -1.5911 -0.042917 -0.13793 -1.5941 -0.043109 -0.15005 -1.5756 -0.053349 -0.15114 -1.5773 -0.053454 -0.16402 -1.559 -0.089627 -0.16402 -1.559 -0.089627 -0.1081 -1.6175 -0.11445 -0.10728 -1.6227 -0.11471 -0.086538 -1.6217 -0.060442 -0.087656 -1.6174 -0.060236 -0.065567 -1.6192 -0.030967 -0.066673 -1.6162 -0.030827 -0.044201 -1.6147 -0.038394 -0.044945 -1.6132 -0.038324 -0.022573 -1.6087 -0.074958 -0.022573 -1.6087 -0.074958 -0.10581 -1.6205 -0.11457 -0.10957 -1.6198 -0.11459 -0.11303 -1.6377 -0.066778 -0.10976 -1.638 -0.066741 -0.116 -1.6547 -0.037698 -0.11362 -1.6546 -0.037659 -0.1184 -1.67 -0.037551 -0.11714 -1.6699 -0.037523 -0.12034 -1.684 -0.062988 -0.12034 -1.684 -0.062988 -0.15252 0.60467 -0.046426 -0.14913 0.59742 -0.049108 -0.15199 0.5941 -0.048787 -0.15746 0.59265 -0.047151 -0.16435 0.59329 -0.044845 -0.17314 0.59705 -0.042008 -0.1822 0.60474 -0.039641 -0.189 0.61557 -0.038636 -0.1912 0.62601 -0.038876 -0.18842 0.63486 -0.039657 -0.18015 0.6392 -0.040595 -0.16941 0.63896 -0.041684 -0.15755 0.63419 -0.043477 -0.14849 0.62648 -0.045843 -0.14343 0.61828 -0.048101 -0.14175 0.61142 -0.049597 -0.14231 0.60566 -0.050293 -0.14506 0.60228 -0.049742 -0.15297 0.61342 0.017318 -0.14856 0.62133 0.0062015 -0.14079 0.62199 0.0058938 -0.13189 0.61946 0.010327 -0.12372 0.61417 0.018121 -0.11698 0.60468 0.030258 -0.11485 0.59109 0.045128 -0.11965 0.57582 0.059364 -0.1299 0.56421 0.068755 -0.1445 0.5581 0.072888 -0.16041 0.56076 0.069537 -0.17374 0.5697 0.060751 -0.18294 0.58338 0.046873 -0.18504 0.59697 0.032002 -0.1815 0.60763 0.019601 -0.17529 0.61454 0.011439 -0.16751 0.61897 0.0065786 -0.1598 0.62005 0.0064895 -0.15429 0.62295 0.080979 -0.16344 0.6198 0.073782 -0.16832 0.62453 0.073129 -0.17112 0.63252 0.075368 -0.17126 0.64204 0.079623 -0.16723 0.65356 0.086315 -0.1575 0.66464 0.094364 -0.14279 0.6719 0.10188 -0.12803 0.67279 0.10691 -0.11515 0.66703 0.10959 -0.10836 0.65453 0.10887 -0.10791 0.63952 0.10536 -0.11359 0.62389 0.098737 -0.12334 0.61283 0.090686 -0.134 0.60746 0.083334 -0.14313 0.60654 0.078155 -0.15108 0.60854 0.074846 -0.15619 0.61307 0.074504 -0.15651 0.63326 0.14456 -0.14806 0.63179 0.14117 -0.14697 0.6276 0.14156 -0.14912 0.6224 0.14362 -0.15402 0.61725 0.14652 -0.16293 0.61233 0.15005 -0.17564 0.60933 0.1529 -0.18984 0.60983 0.15393 -0.20075 0.61381 0.15344 -0.20693 0.621 0.15243 -0.20532 0.63023 0.15152 -0.19793 0.63894 0.15053 -0.18583 0.64598 0.14861 -0.17311 0.64896 0.14577 -0.16266 0.64835 0.14289 -0.15562 0.64576 0.14089 -0.15096 0.64198 0.13987 -0.14974 0.63784 0.14046 -0.15962 0.64436 0.20805 -0.16312 0.64952 0.2056 -0.16108 0.6524 0.20513 -0.15671 0.65416 0.20555 -0.151 0.65445 0.20655 -0.14352 0.65248 0.20806 -0.13559 0.64737 0.20962 -0.12936 0.63944 0.21076 -0.1269 0.63132 0.21146 -0.12852 0.62402 0.21218 -0.13478 0.61984 0.21294 -0.14333 0.61907 0.21338 -0.15318 0.62173 0.21291 -0.1611 0.62686 0.21135 -0.16593 0.6327 0.20934 -0.16792 0.63782 0.20765 -0.16798 0.64234 0.20642 -0.16602 0.64529 0.20615</float_array><technique_common><accessor source="#weeds_+02-01_foliage-pos-a" count="440" stride="3"><param name="X" type="float"/><param name="Y" type="float"/><param name="Z" type="float"/></accessor></technique_common></source>
        <source id="weeds_+02-01_foliage-nrm"><float_array id="weeds_+02-01_foliage-nrm-a" count="2190">0.913 -0.259 0.315 0.863 -0.281 0.42 0.859 -0.282 0.426 0.417 -0.157 0.895 0.308 -0.115 0.944 -0.517 0.247 0.82 -0.579 0.283 0.764 -0.757 0.39 0.524 0.946 0.017 0.324 0.903 -0.018 0.429 0.901 -0.02 0.434 0.438 -0.038 0.898 0.337 -0.032 0.941 -0.563 0.062 0.824 -0.628 0.076 0.775 -0.84 0.127 0.527 -0.861 0.371 0.348 -0.816 0.395 0.423 -0.813 0.396 0.427 -0.497 0.266 0.826 -0.41 0.217 0.886 0.372 -0.299 0.879 0.485 -0.387 0.784 0.7 -0.555 0.449 0.092 0.922 0.377 0.047 0.873 0.486 0.05 0.877 0.478 0.054 0.233 0.971 0.042 0.404 0.914 0.153 -0.727 0.67 0.134 -0.639 0.757 0.188 -0.887 0.421 -0.307 0.893 0.329 -0.284 0.87 0.403 -0.284 0.87 0.404 -0.153 0.545 0.824 -0.145 0.519 0.843 0.153 -0.474 0.867 0.165 -0.518 0.839 0.246 -0.849 0.467 0.961 0.036 0.274 0.93 0.079 0.36 0.932 0.077 0.355 0.516 0.046 0.855 0.614 0.064 0.787 -0.512 -0.215 0.832 -0.364 -0.169 0.916 -0.796 -0.298 0.527 -0.591 -0.74 0.322 -0.59 -0.693 0.414 -0.59 -0.691 0.419 -0.317 -0.397 0.862 -0.246 -0.33 0.912 0.438 0.293 0.85 0.51 0.353 0.784 0.701 0.515 0.493 0.856 0.325 0.402 0.788 0.285 0.546 0.787 0.284 0.548 0.18 0.026 0.983 0.158 0.017 0.987 -0.649 -0.27 0.712 -0.656 -0.272 0.704 -0.805 -0.313 0.505 0.933 0.083 0.349 0.88 0.066 0.47 0.879 0.066 0.472 0.318 -0.005 0.948 0.292 -0.007 0.956 -0.631 -0.067 0.773 -0.644 -0.067 0.762 -0.848 -0.067 0.525 0.631 -0.706 0.321 0.569 -0.698 0.435 0.563 -0.696 0.445 0.268 -0.319 0.909 0.169 -0.167 0.971 -0.275 0.566 0.777 -0.305 0.64 0.705 -0.365 0.789 0.494 0.924 0.006 0.383 0.848 0.02 0.53 0.851 0.019 0.524 0.149 -0.044 0.988 0.235 -0.035 0.971 -0.699 -0.139 0.701 -0.672 -0.134 0.729 -0.846 -0.165 0.508 0.593 0.732 0.336 0.567 0.701 0.432 0.567 0.702 0.431 0.291 0.306 0.906 0.303 0.323 0.896 -0.313 -0.507 0.803 -0.303 -0.493 0.815 -0.483 -0.721 0.497 -0.837 -0.425 0.344 -0.786 -0.441 0.434 -0.788 -0.44 0.431 -0.336 -0.24 0.911 -0.41 -0.282 0.868 0.508 0.331 0.796 0.441 0.275 0.854 0.706 0.504 0.497 0.836 -0.481 0.265 0.823 -0.443 0.355 0.824 -0.444 0.352 0.45 -0.238 0.861 0.514 -0.268 0.815 -0.513 0.169 0.841 -0.431 0.138 0.892 -0.793 0.274 0.545 0.965 0.017 0.262 0.941 0.013 0.339 0.616 -0.012 0.787 0.617 -0.012 0.787 -0.407 -0.044 0.912 -0.827 -0.043 0.561 -0.799 -0.495 0.341 -0.741 -0.461 0.488 -0.742 -0.461 0.487 -0.221 -0.128 0.967 -0.229 -0.133 0.964 0.514 0.341 0.787 0.51 0.338 0.791 0.674 0.443 0.591 0.268 -0.882 0.388 0.217 -0.832 0.511 0.215 -0.83 0.515 0.007 -0.307 0.952 -0.017 -0.226 0.974 -0.201 0.601 0.774 -0.204 0.639 0.742 -0.212 0.825 0.524 -0.341 0.829 0.443 -0.296 0.758 0.582 -0.292 0.751 0.592 -0.163 0.16 0.974 -0.132 0.007 0.991 0.024 -0.72 0.694 0.029 -0.767 0.641 0.044 -0.893 0.449 0.1 0.884 0.456 0.067 0.812 0.58 0.068 0.813 0.578 -0.054 0.155 0.987 -0.048 0.201 0.978 -0.116 -0.711 0.694 -0.116 -0.692 0.712 -0.105 -0.882 0.459 0.649 0.649 0.396 0.617 0.63 0.471 0.323 0.364 0.874 0.334 0.374 0.865 -0.372 -0.356 0.857 -0.354 -0.336 0.873 -0.615 -0.631 0.473 -0.011 -0.944 0.33 -0.007 -0.895 0.445 -0.007 -0.897 0.442 -0.071 -0.348 0.935 -0.065 -0.399 0.915 -0.139 0.591 0.794 -0.137 0.557 0.819 -0.147 0.827 0.542 -0.789 -0.55 0.272 -0.773 -0.509 0.378 -0.772 -0.508 0.382 -0.423 -0.263 0.867 -0.363 -0.226 0.904 0.413 0.21 0.886 0.468 0.237 0.851 0.712 0.354 0.606 0.858 0.089 0.506 0.762 0.108 0.638 0.769 0.107 0.63 0.037 -0.045 0.998 0.173 -0.01 0.985 -0.728 -0.272 0.63 -0.683 -0.251 0.685 -0.849 -0.33 0.412 -0.428 -0.849 0.31 -0.38 -0.816 0.435 -0.383 -0.819 0.428 -0.182 -0.252 0.951 -0.221 -0.376 0.9 0.085 0.628 0.773 0.067 0.553 0.83 0.134 0.824 0.55 -0.679 0.675 0.288 -0.697 0.617 0.366 -0.696 0.62 0.362 -0.458 0.287 0.842 -0.523 0.351 0.777 0.382 -0.311 0.87 0.235 -0.229 0.944 0.677 -0.461 0.573 -0.855 0.308 0.417 -0.787 0.271 0.555 -0.787 0.271 0.554 -0.171 0.011 0.985 -0.181 0.015 0.983 0.652 -0.281 0.704 0.649 -0.28 0.708 0.809 -0.326 0.489 -0.501 -0.794 0.345 -0.486 -0.736 0.471 -0.486 -0.733 0.476 -0.171 -0.289 0.942 -0.12 -0.221 0.968 0.413 0.465 0.783 0.439 0.493 0.751 0.562 0.631 0.534 0.476 0.744 0.469 0.461 0.653 0.601 0.459 0.645 0.611 0.1 0.143 0.985 -0.003 0.019 1 -0.509 -0.531 0.677 -0.547 -0.559 0.624 -0.649 -0.627 0.431 0.799 0.42 0.431 0.732 0.391 0.557 0.734 0.392 0.555 0.167 0.047 0.985 0.208 0.072 0.976 -0.591 -0.412 0.694 -0.575 -0.402 0.713 -0.734 -0.501 0.459 0.938 -0.163 0.304 0.912 -0.156 0.381 0.912 -0.156 0.38 0.562 -0.121 0.818 0.577 -0.123 0.808 -0.458 0.003 0.889 -0.43 -0.001 0.903 -0.847 0.066 0.528 -0.731 -0.602 0.321 -0.683 -0.588 0.434 -0.684 -0.588 0.431 -0.255 -0.249 0.934 -0.295 -0.283 0.913 0.447 0.407 0.797 0.423 0.382 0.822 0.607 0.578 0.545 -0.896 0.273 0.35 -0.849 0.276 0.451 -0.847 0.276 0.454 -0.415 0.102 0.904 -0.345 0.073 0.936 0.497 -0.291 0.818 0.548 -0.315 0.775 0.763 -0.412 0.498 0.633 -0.673 0.382 0.603 -0.603 0.522 0.606 -0.608 0.513 0.063 -0.154 0.986 0.178 -0.243 0.954 -0.622 0.363 0.694 -0.577 0.336 0.745 -0.751 0.441 0.491 -0.915 -0.202 0.35 -0.853 -0.234 0.466 -0.857 -0.232 0.459 -0.248 -0.098 0.964 -0.377 -0.138 0.916 0.616 0.247 0.748 0.55 0.21 0.808 0.781 0.347 0.519 0.13 0.926 0.354 0.079 0.899 0.431 0.082 0.9 0.427 0.004 0.475 0.88 0.009 0.572 0.82 0.059 -0.587 0.807 0.037 -0.427 0.903 0.101 -0.876 0.471 -0.27 0.101 -0.957 -0.325 0.19 -0.926 -0.326 0.19 -0.926 -0.308 0.183 -0.934 -0.267 0.145 -0.953 -0.231 0.062 -0.971 -0.223 -0.028 -0.974 -0.227 -0.065 -0.972 -0.212 -0.039 -0.977 -0.172 0.016 -0.985 -0.127 0.066 -0.99 -0.104 0.086 -0.991 -0.139 0.075 -0.987 -0.226 0.068 -0.972 -0.311 0.092 -0.946 -0.353 0.128 -0.927 -0.363 0.146 -0.92 -0.363 0.144 -0.921 0.071 -0.771 -0.633 0.048 -0.823 -0.566 0.041 -0.813 -0.58 0.037 -0.787 -0.616 0.059 -0.744 -0.665 0.099 -0.705 -0.702 0.121 -0.69 -0.713 0.103 -0.695 -0.711 0.061 -0.703 -0.709 0.019 -0.705 -0.709 0.001 -0.705 -0.709 0.026 -0.714 -0.699 0.076 -0.742 -0.666 0.109 -0.778 -0.618 0.113 -0.805 -0.583 0.109 -0.816 -0.568 0.108 -0.816 -0.568 0.41 0.351 -0.842 0.483 0.389 -0.784 0.477 0.373 -0.796 0.45 0.341 -0.825 0.39 0.316 -0.865 0.323 0.312 -0.893 0.293 0.316 -0.902 0.309 0.306 -0.901 0.345 0.276 -0.897 0.377 0.241 -0.894 0.389 0.226 -0.893 0.382 0.257 -0.888 0.378 0.327 -0.866 0.396 0.393 -0.83 0.422 0.425 -0.801 0.437 0.433 -0.789 0.437 0.433 -0.788 -0.276 -0.187 -0.943 -0.393 -0.186 -0.901 -0.395 -0.189 -0.899 -0.377 -0.178 -0.909 -0.311 -0.163 -0.936 -0.198 -0.192 -0.961 -0.1 -0.256 -0.962 -0.067 -0.287 -0.956 -0.087 -0.243 -0.966 -0.117 -0.147 -0.982 -0.138 -0.049 -0.989 -0.142 0.001 -0.99 -0.155 -0.043 -0.987 -0.21 -0.147 -0.967 -0.295 -0.223 -0.929 -0.361 -0.239 -0.902 -0.383 -0.236 -0.893 -0.379 -0.239 -0.894 0.141 -0.221 -0.965 0.209 -0.3 -0.931 0.21 -0.3 -0.931 0.189 -0.295 -0.937 0.143 -0.264 -0.954 0.096 -0.19 -0.977 0.078 -0.105 -0.991 0.078 -0.068 -0.995 0.066 -0.094 -0.993 0.033 -0.15 -0.988 -0.006 -0.201 -0.98 -0.025 -0.221 -0.975 0.009 -0.208 -0.978 0.095 -0.192 -0.977 0.183 -0.205 -0.961 0.23 -0.235 -0.945 0.243 -0.251 -0.937 0.243 -0.249 -0.938 -0.913 0.259 -0.315 -0.863 0.281 -0.42 -0.859 0.282 -0.426 -0.417 0.157 -0.895 -0.308 0.115 -0.944 0.517 -0.247 -0.82 0.579 -0.283 -0.764 0.757 -0.39 -0.524 -0.946 -0.017 -0.324 -0.903 0.018 -0.429 -0.901 0.02 -0.434 -0.438 0.038 -0.898 -0.337 0.032 -0.941 0.563 -0.062 -0.824 0.628 -0.076 -0.775 0.84 -0.127 -0.527 0.861 -0.371 -0.348 0.816 -0.395 -0.423 0.813 -0.396 -0.427 0.497 -0.266 -0.826 0.41 -0.217 -0.886 -0.372 0.299 -0.879 -0.485 0.387 -0.784 -0.7 0.555 -0.449 -0.092 -0.922 -0.377 -0.047 -0.873 -0.486 -0.05 -0.877 -0.478 -0.054 -0.233 -0.971 -0.042 -0.404 -0.914 -0.153 0.727 -0.67 -0.134 0.639 -0.757 -0.188 0.887 -0.421 0.307 -0.893 -0.329 0.284 -0.87 -0.403 0.284 -0.87 -0.404 0.153 -0.545 -0.824 0.145 -0.519 -0.843 -0.153 0.474 -0.867 -0.165 0.518 -0.839 -0.246 0.849 -0.467 -0.961 -0.036 -0.274 -0.93 -0.079 -0.36 -0.932 -0.077 -0.355 -0.516 -0.046 -0.855 -0.614 -0.064 -0.787 0.512 0.215 -0.832 0.364 0.169 -0.916 0.796 0.298 -0.527 0.591 0.74 -0.322 0.59 0.693 -0.414 0.59 0.691 -0.419 0.317 0.397 -0.862 0.246 0.33 -0.912 -0.438 -0.293 -0.85 -0.51 -0.353 -0.784 -0.701 -0.515 -0.493 -0.856 -0.325 -0.402 -0.788 -0.285 -0.546 -0.787 -0.284 -0.548 -0.18 -0.026 -0.983 -0.158 -0.017 -0.987 0.649 0.27 -0.712 0.656 0.272 -0.704 0.805 0.313 -0.505 -0.933 -0.083 -0.349 -0.88 -0.066 -0.47 -0.879 -0.066 -0.472 -0.318 0.005 -0.948 -0.292 0.007 -0.956 0.631 0.067 -0.773 0.644 0.067 -0.762 0.848 0.067 -0.525 -0.631 0.706 -0.321 -0.569 0.698 -0.435 -0.563 0.696 -0.445 -0.268 0.319 -0.909 -0.169 0.167 -0.971 0.275 -0.566 -0.777 0.305 -0.64 -0.705 0.365 -0.789 -0.494 -0.924 -0.006 -0.383 -0.848 -0.02 -0.53 -0.851 -0.019 -0.524 -0.149 0.044 -0.988 -0.235 0.035 -0.971 0.699 0.139 -0.701 0.672 0.134 -0.729 0.846 0.165 -0.508 -0.593 -0.732 -0.336 -0.567 -0.701 -0.432 -0.567 -0.702 -0.431 -0.291 -0.306 -0.906 -0.303 -0.323 -0.896 0.313 0.507 -0.803 0.303 0.493 -0.815 0.483 0.721 -0.497 0.837 0.425 -0.344 0.786 0.441 -0.434 0.788 0.44 -0.431 0.336 0.24 -0.911 0.41 0.282 -0.868 -0.508 -0.331 -0.796 -0.441 -0.275 -0.854 -0.706 -0.504 -0.497 -0.836 0.481 -0.265 -0.823 0.443 -0.355 -0.824 0.444 -0.352 -0.45 0.238 -0.861 -0.514 0.268 -0.815 0.513 -0.169 -0.841 0.431 -0.138 -0.892 0.793 -0.274 -0.545 -0.965 -0.017 -0.262 -0.941 -0.013 -0.339 -0.616 0.012 -0.787 -0.617 0.012 -0.787 0.407 0.044 -0.912 0.827 0.043 -0.561 0.799 0.495 -0.341 0.741 0.461 -0.488 0.742 0.461 -0.487 0.221 0.128 -0.967 0.229 0.133 -0.964 -0.514 -0.341 -0.787 -0.51 -0.338 -0.791 -0.674 -0.443 -0.591 -0.268 0.882 -0.388 -0.217 0.832 -0.511 -0.215 0.83 -0.515 -0.007 0.307 -0.952 0.017 0.226 -0.974 0.201 -0.601 -0.774 0.204 -0.639 -0.742 0.212 -0.825 -0.524 0.341 -0.829 -0.443 0.296 -0.758 -0.582 0.292 -0.751 -0.592 0.163 -0.16 -0.974 0.132 -0.007 -0.991 -0.024 0.72 -0.694 -0.029 0.767 -0.641 -0.044 0.893 -0.449 -0.1 -0.884 -0.456 -0.067 -0.812 -0.58 -0.068 -0.813 -0.578 0.054 -0.155 -0.987 0.048 -0.201 -0.978 0.116 0.711 -0.694 0.116 0.692 -0.712 0.105 0.882 -0.459 -0.649 -0.649 -0.396 -0.617 -0.63 -0.471 -0.323 -0.364 -0.874 -0.334 -0.374 -0.865 0.372 0.356 -0.857 0.354 0.336 -0.873 0.615 0.631 -0.473 0.011 0.944 -0.33 0.007 0.895 -0.445 0.007 0.897 -0.442 0.071 0.348 -0.935 0.065 0.399 -0.915 0.139 -0.591 -0.794 0.137 -0.557 -0.819 0.147 -0.827 -0.542 0.789 0.55 -0.272 0.773 0.509 -0.378 0.772 0.508 -0.382 0.423 0.263 -0.867 0.363 0.226 -0.904 -0.413 -0.21 -0.886 -0.468 -0.237 -0.851 -0.712 -0.354 -0.606 -0.858 -0.089 -0.506 -0.762 -0.108 -0.638 -0.769 -0.107 -0.63 -0.037 0.045 -0.998 -0.173 0.01 -0.985 0.728 0.272 -0.63 0.683 0.251 -0.685 0.849 0.33 -0.412 0.428 0.849 -0.31 0.38 0.816 -0.435 0.383 0.819 -0.428 0.182 0.252 -0.951 0.221 0.376 -0.9 -0.085 -0.628 -0.773 -0.067 -0.553 -0.83 -0.134 -0.824 -0.55 0.679 -0.675 -0.288 0.697 -0.617 -0.366 0.696 -0.62 -0.362 0.458 -0.287 -0.842 0.523 -0.351 -0.777 -0.382 0.311 -0.87 -0.235 0.229 -0.944 -0.677 0.461 -0.573 0.855 -0.308 -0.417 0.787 -0.271 -0.555 0.787 -0.271 -0.554 0.171 -0.011 -0.985 0.181 -0.015 -0.983 -0.652 0.281 -0.704 -0.649 0.28 -0.708 -0.809 0.326 -0.489 0.501 0.794 -0.345 0.486 0.736 -0.471 0.486 0.733 -0.476 0.171 0.289 -0.942 0.12 0.221 -0.968 -0.413 -0.465 -0.783 -0.439 -0.493 -0.751 -0.562 -0.631 -0.534 -0.476 -0.744 -0.469 -0.461 -0.653 -0.601 -0.459 -0.645 -0.611 -0.1 -0.143 -0.985 0.003 -0.019 -1 0.509 0.531 -0.677 0.547 0.559 -0.624 0.649 0.627 -0.431 -0.799 -0.42 -0.431 -0.732 -0.391 -0.557 -0.734 -0.392 -0.555 -0.167 -0.047 -0.985 -0.208 -0.072 -0.976 0.591 0.412 -0.694 0.575 0.402 -0.713 0.734 0.501 -0.459 -0.938 0.163 -0.304 -0.912 0.156 -0.381 -0.912 0.156 -0.38 -0.562 0.121 -0.818 -0.577 0.123 -0.808 0.458 -0.003 -0.889 0.43 0.001 -0.903 0.847 -0.066 -0.528 0.731 0.602 -0.321 0.683 0.588 -0.434 0.684 0.588 -0.431 0.255 0.249 -0.934 0.295 0.283 -0.913 -0.447 -0.407 -0.797 -0.423 -0.382 -0.822 -0.607 -0.578 -0.545 0.896 -0.273 -0.35 0.849 -0.276 -0.451 0.847 -0.276 -0.454 0.415 -0.102 -0.904 0.345 -0.073 -0.936 -0.497 0.291 -0.818 -0.548 0.315 -0.775 -0.763 0.412 -0.498 -0.633 0.673 -0.382 -0.603 0.603 -0.522 -0.606 0.608 -0.513 -0.063 0.154 -0.986 -0.178 0.243 -0.954 0.622 -0.363 -0.694 0.577 -0.336 -0.745 0.751 -0.441 -0.491 0.915 0.202 -0.35 0.853 0.234 -0.466 0.857 0.232 -0.459 0.248 0.098 -0.964 0.377 0.138 -0.916 -0.616 -0.247 -0.748 -0.55 -0.21 -0.808 -0.781 -0.347 -0.519 -0.13 -0.926 -0.354 -0.079 -0.899 -0.431 -0.082 -0.9 -0.427 -0.004 -0.475 -0.88 -0.009 -0.572 -0.82 -0.059 0.587 -0.807 -0.037 0.427 -0.903 -0.101 0.876 -0.471 0.27 -0.101 0.957 0.325 -0.19 0.926 0.326 -0.19 0.926 0.308 -0.183 0.934 0.267 -0.145 0.953 0.231 -0.062 0.971 0.223 0.028 0.974 0.227 0.065 0.972 0.212 0.039 0.977 0.172 -0.016 0.985 0.127 -0.066 0.99 0.104 -0.086 0.991 0.139 -0.075 0.987 0.226 -0.068 0.972 0.311 -0.092 0.946 0.353 -0.128 0.927 0.363 -0.146 0.92 0.363 -0.144 0.921 -0.071 0.771 0.633 -0.048 0.823 0.566 -0.041 0.813 0.58 -0.037 0.787 0.616 -0.059 0.744 0.665 -0.099 0.705 0.702 -0.121 0.69 0.713 -0.103 0.695 0.711 -0.061 0.703 0.709 -0.019 0.705 0.709 -0.001 0.705 0.709 -0.026 0.714 0.699 -0.076 0.742 0.666 -0.109 0.778 0.618 -0.113 0.805 0.583 -0.109 0.816 0.568 -0.108 0.816 0.568 -0.41 -0.351 0.842 -0.483 -0.389 0.784 -0.477 -0.373 0.796 -0.45 -0.341 0.825 -0.39 -0.316 0.865 -0.323 -0.312 0.893 -0.293 -0.316 0.902 -0.309 -0.306 0.901 -0.345 -0.276 0.897 -0.377 -0.241 0.894 -0.389 -0.226 0.893 -0.382 -0.257 0.888 -0.378 -0.327 0.866 -0.396 -0.393 0.83 -0.422 -0.425 0.801 -0.437 -0.433 0.789 -0.437 -0.433 0.788 0.276 0.187 0.943 0.393 0.186 0.901 0.395 0.189 0.899 0.377 0.178 0.909 0.311 0.163 0.936 0.198 0.192 0.961 0.1 0.256 0.962 0.067 0.287 0.956 0.087 0.243 0.966 0.117 0.147 0.982 0.138 0.049 0.989 0.142 -0.001 0.99 0.155 0.043 0.987 0.21 0.147 0.967 0.295 0.223 0.929 0.361 0.239 0.902 0.383 0.236 0.893 0.379 0.239 0.894 -0.141 0.221 0.965 -0.209 0.3 0.931 -0.21 0.3 0.931 -0.189 0.295 0.937 -0.143 0.264 0.954 -0.096 0.19 0.977 -0.078 0.105 0.991 -0.078 0.068 0.995 -0.066 0.094 0.993 -0.033 0.15 0.988 0.006 0.201 0.98 0.025 0.221 0.975 -0.009 0.208 0.978 -0.095 0.192 0.977 -0.183 0.205 0.961 -0.23 0.235 0.945 -0.243 0.251 0.937 -0.243 0.249 0.938</float_array><technique_common><accessor source="#weeds_+02-01_foliage-nrm-a" count="730" stride="3"><param name="X" type="float"/><param name="Y" type="float"/><param name="Z" type="float"/></accessor></technique_common></source>
        <vertices id="weeds_+02-01_foliage-vtx"><input semantic="POSITION" source="#weeds_+02-01_foliage-pos"/></vertices>
        <triangles count="560" material="MAT_WEED_GRASS-mat"><input semantic="VERTEX" source="#weeds_+02-01_foliage-vtx" offset="0"/><input semantic="NORMAL" source="#weeds_+02-01_foliage-nrm" offset="1"/><p>0 0 1 0 2 1 0 0 2 1 3 2 3 2 2 1 4 3 3 2 4 3 5 4 5 4 4 3 6 5 5 4 6 5 7 6 7 6 6 5 8 7 7 6 8 7 9 7 10 8 11 8 12 9 10 8 12 9 13 10 13 10 12 9 14 11 13 10 14 11 15 12 15 12 14 11 16 13 15 12 16 13 17 14 17 14 16 13 18 15 17 14 18 15 19 15 20 16 21 16 22 17 20 16 22 17 23 18 23 18 22 17 24 19 23 18 24 19 25 20 25 20 24 19 26 21 25 20 26 21 27 22 27 22 26 21 28 23 27 22 28 23 29 23 30 24 31 24 32 25 30 24 32 25 33 26 33 26 32 25 34 27 33 26 34 27 35 28 35 28 34 27 36 29 35 28 36 29 37 30 37 30 36 29 38 31 37 30 38 31 39 31 40 32 41 32 42 33 40 32 42 33 43 34 43 34 42 33 44 35 43 34 44 35 45 36 45 36 44 35 46 37 45 36 46 37 47 38 47 38 46 37 48 39 47 38 48 39 49 39 50 40 51 40 52 41 50 40 52 41 53 42 53 42 52 41 54 43 53 42 54 43 55 44 55 44 54 43 56 45 55 44 56 45 57 46 57 46 56 45 58 47 57 46 58 47 59 47 60 48 61 48 62 49 60 48 62 49 63 50 63 50 62 49 64 51 63 50 64 51 65 52 65 52 64 51 66 53 65 52 66 53 67 54 67 54 66 53 68 55 67 54 68 55 69 55 70 56 71 56 72 57 70 56 72 57 73 58 73 58 72 57 74 59 73 58 74 59 75 60 75 60 74 59 76 61 75 60 76 61 77 62 77 62 76 61 78 63 77 62 78 63 79 63 80 64 81 64 82 65 80 64 82 65 83 66 83 66 82 65 84 67 83 66 84 67 85 68 85 68 84 67 86 69 85 68 86 69 87 70 87 70 86 69 88 71 87 70 88 71 89 71 90 72 91 72 92 73 90 72 92 73 93 74 93 74 92 73 94 75 93 74 94 75 95 76 95 76 94 75 96 77 95 76 96 77 97 78 97 78 96 77 98 79 97 78 98 79 99 79 100 80 101 80 102 81 100 80 102 81 103 82 103 82 102 81 104 83 103 82 104 83 105 84 105 84 104 83 106 85 105 84 106 85 107 86 107 86 106 85 108 87 107 86 108 87 109 87 110 88 111 88 112 89 110 88 112 89 113 90 113 90 112 89 114 91 113 90 114 91 115 92 115 92 114 91 116 93 115 92 116 93 117 94 117 94 116 93 118 95 117 94 118 95 119 95 120 96 121 96 122 97 120 96 122 97 123 98 123 98 122 97 124 99 123 98 124 99 125 100 125 100 124 99 126 101 125 100 126 101 127 102 127 102 126 101 128 103 127 102 128 103 129 103 130 104 131 104 132 105 130 104 132 105 133 106 133 106 132 105 134 107 133 106 134 107 135 108 135 108 134 107 136 109 135 108 136 109 137 110 137 110 136 109 138 111 137 110 138 111 139 111 140 112 141 112 142 113 140 112 142 113 143 113 143 113 142 113 144 114 143 113 144 114 145 115 145 115 144 114 146 116 145 115 146 116 147 116 147 116 146 116 148 117 147 116 148 117 149 117 150 118 151 118 152 119 150 118 152 119 153 120 153 120 152 119 154 121 153 120 154 121 155 122 155 122 154 121 156 123 155 122 156 123 157 124 157 124 156 123 158 125 157 124 158 125 159 125 160 126 161 126 162 127 160 126 162 127 163 128 163 128 162 127 164 129 163 128 164 129 165 130 165 130 164 129 166 131 165 130 166 131 167 132 167 132 166 131 168 133 167 132 168 133 169 133 170 134 171 134 172 135 170 134 172 135 173 136 173 136 172 135 174 137 173 136 174 137 175 138 175 138 174 137 176 139 175 138 176 139 177 140 177 140 176 139 178 141 177 140 178 141 179 141 180 142 181 142 182 143 180 142 182 143 183 144 183 144 182 143 184 145 183 144 184 145 185 146 185 146 184 145 186 147 185 146 186 147 187 148 187 148 186 147 188 149 187 148 188 149 189 149 190 150 191 150 192 151 190 150 192 151 193 151 193 151 192 151 194 152 193 151 194 152 195 153 195 153 194 152 196 154 195 153 196 154 197 155 197 155 196 154 198 156 197 155 198 156 199 156 200 157 201 157 202 158 200 157 202 158 203 159 203 159 202 158 204 160 203 159 204 160 205 161 205 161 204 160 206 162 205 161 206 162 207 163 207 163 206 162 208 164 207 163 208 164 209 164 210 165 211 165 212 166 210 165 212 166 213 167 213 167 212 166 214 168 213 167 214 168 215 169 215 169 214 168 216 170 215 169 216 170 217 171 217 171 216 170 218 172 217 171 218 172 219 172 220 173 221 173 222 174 220 173 222 174 223 175 223 175 222 174 224 176 223 175 224 176 225 177 225 177 224 176 226 178 225 177 226 178 227 179 227 179 226 178 228 180 227 179 228 180 229 180 230 181 231 181 232 182 230 181 232 182 233 183 233 183 232 182 234 184 233 183 234 184 235 185 235 185 234 184 236 186 235 185 236 186 237 187 237 187 236 186 238 188 237 187 238 188 239 188 240 189 241 189 242 190 240 189 242 190 243 191 243 191 242 190 244 192 243 191 244 192 245 193 245 193 244 192 246 194 245 193 246 194 247 195 247 195 246 194 248 196 247 195 248 196 249 196 250 197 251 197 252 198 250 197 252 198 253 199 253 199 252 198 254 200 253 199 254 200 255 201 255 201 254 200 256 202 255 201 256 202 257 203 257 203 256 202 258 204 257 203 258 204 259 204 260 205 261 205 262 206 260 205 262 206 263 207 263 207 262 206 264 208 263 207 264 208 265 209 265 209 264 208 266 210 265 209 266 210 267 211 267 211 266 210 268 212 267 211 268 212 269 212 270 213 271 213 272 214 270 213 272 214 273 215 273 215 272 214 274 216 273 215 274 216 275 217 275 217 274 216 276 218 275 217 276 218 277 219 277 219 276 218 278 220 277 219 278 220 279 220 280 221 281 221 282 222 280 221 282 222 283 223 283 223 282 222 284 224 283 223 284 224 285 225 285 225 284 224 286 226 285 225 286 226 287 227 287 227 286 226 288 228 287 227 288 228 289 228 290 229 291 229 292 230 290 229 292 230 293 231 293 231 292 230 294 232 293 231 294 232 295 233 295 233 294 232 296 234 295 233 296 234 297 235 297 235 296 234 298 236 297 235 298 236 299 236 300 237 301 237 302 238 300 237 302 238 303 239 303 239 302 238 304 240 303 239 304 240 305 241 305 241 304 240 306 242 305 241 306 242 307 243 307 243 306 242 308 244 307 243 308 244 309 244 310 245 311 245 312 246 310 245 312 246 313 247 313 247 312 246 314 248 313 247 314 248 315 249 315 249 314 248 316 250 315 249 316 250 317 251 317 251 316 250 318 252 317 251 318 252 319 252 320 253 321 253 322 254 320 253 322 254 323 255 323 255 322 254 324 256 323 255 324 256 325 257 325 257 324 256 326 258 325 257 326 258 327 259 327 259 326 258 328 260 327 259 328 260 329 260 330 261 331 261 332 262 330 261 332 262 333 263 333 263 332 262 334 264 333 263 334 264 335 265 335 265 334 264 336 266 335 265 336 266 337 267 337 267 336 266 338 268 337 267 338 268 339 268 340 269 341 269 342 270 340 269 342 270 343 271 343 271 342 270 344 272 343 271 344 272 345 273 345 273 344 272 346 274 345 273 346 274 347 275 347 275 346 274 348 276 347 275 348 276 349 276 0 365 2 366 1 365 0 365 3 367 2 366 3 367 4 368 2 366 3 367 5 369 4 368 5 369 6 370 4 368 5 369 7 371 6 370 7 371 8 372 6 370 7 371 9 372 8 372 10 373 12 374 11 373 10 373 13 375 12 374 13 375 14 376 12 374 13 375 15 377 14 376 15 377 16 378 14 376 15 377 17 379 16 378 17 379 18 380 16 378 17 379 19 380 18 380 20 381 22 382 21 381 20 381 23 383 22 382 23 383 24 384 22 382 23 383 25 385 24 384 25 385 26 386 24 384 25 385 27 387 26 386 27 387 28 388 26 386 27 387 29 388 28 388 30 389 32 390 31 389 30 389 33 391 32 390 33 391 34 392 32 390 33 391 35 393 34 392 35 393 36 394 34 392 35 393 37 395 36 394 37 395 38 396 36 394 37 395 39 396 38 396 40 397 42 398 41 397 40 397 43 399 42 398 43 399 44 400 42 398 43 399 45 401 44 400 45 401 46 402 44 400 45 401 47 403 46 402 47 403 48 404 46 402 47 403 49 404 48 404 50 405 52 406 51 405 50 405 53 407 52 406 53 407 54 408 52 406 53 407 55 409 54 408 55 409 56 410 54 408 55 409 57 411 56 410 57 411 58 412 56 410 57 411 59 412 58 412 60 413 62 414 61 413 60 413 63 415 62 414 63 415 64 416 62 414 63 415 65 417 64 416 65 417 66 418 64 416 65 417 67 419 66 418 67 419 68 420 66 418 67 419 69 420 68 420 70 421 72 422 71 421 70 421 73 423 72 422 73 423 74 424 72 422 73 423 75 425 74 424 75 425 76 426 74 424 75 425 77 427 76 426 77 427 78 428 76 426 77 427 79 428 78 428 80 429 82 430 81 429 80 429 83 431 82 430 83 431 84 432 82 430 83 431 85 433 84 432 85 433 86 434 84 432 85 433 87 435 86 434 87 435 88 436 86 434 87 435 89 436 88 436 90 437 92 438 91 437 90 437 93 439 92 438 93 439 94 440 92 438 93 439 95 441 94 440 95 441 96 442 94 440 95 441 97 443 96 442 97 443 98 444 96 442 97 443 99 444 98 444 100 445 102 446 101 445 100 445 103 447 102 446 103 447 104 448 102 446 103 447 105 449 104 448 105 449 106 450 104 448 105 449 107 451 106 450 107 451 108 452 106 450 107 451 109 452 108 452 110 453 112 454 111 453 110 453 113 455 112 454 113 455 114 456 112 454 113 455 115 457 114 456 115 457 116 458 114 456 115 457 117 459 116 458 117 459 118 460 116 458 117 459 119 460 118 460 120 461 122 462 121 461 120 461 123 463 122 462 123 463 124 464 122 462 123 463 125 465 124 464 125 465 126 466 124 464 125 465 127 467 126 466 127 467 128 468 126 466 127 467 129 468 128 468 130 469 132 470 131 469 130 469 133 471 132 470 133 471 134 472 132 470 133 471 135 473 134 472 135 473 136 474 134 472 135 473 137 475 136 474 137 475 138 476 136 474 137 475 139 476 138 476 140 477 142 478 141 477 140 477 143 478 142 478 143 478 144 479 142 478 143 478 145 480 144 479 145 480 146 481 144 479 145 480 147 481 146 481 147 481 148 482 146 481 147 481 149 482 148 482 150 483 152 484 151 483 150 483 153 485 152 484 153 485 154 486 152 484 153 485 155 487 154 486 155 487 156 488 154 486 155 487 157 489 156 488 157 489 158 490 156 488 157 489 159 490 158 490 160 491 162 492 161 491 160 491 163 493 162 492 163 493 164 494 162 492 163 493 165 495 164 494 165 495 166 496 164 494 165 495 167 497 166 496 167 497 168 498 166 496 167 497 169 498 168 498 170 499 172 500 171 499 170 499 173 501 172 500 173 501 174 502 172 500 173 501 175 503 174 502 175 503 176 504 174 502 175 503 177 505 176 504 177 505 178 506 176 504 177 505 179 506 178 506 180 507 182 508 181 507 180 507 183 509 182 508 183 509 184 510 182 508 183 509 185 511 184 510 185 511 186 512 184 510 185 511 187 513 186 512 187 513 188 514 186 512 187 513 189 514 188 514 190 515 192 516 191 515 190 515 193 516 192 516 193 516 194 517 192 516 193 516 195 518 194 517 195 518 196 519 194 517 195 518 197 520 196 519 197 520 198 521 196 519 197 520 199 521 198 521 200 522 202 523 201 522 200 522 203 524 202 523 203 524 204 525 202 523 203 524 205 526 204 525 205 526 206 527 204 525 205 526 207 528 206 527 207 528 208 529 206 527 207 528 209 529 208 529 210 530 212 531 211 530 210 530 213 532 212 531 213 532 214 533 212 531 213 532 215 534 214 533 215 534 216 535 214 533 215 534 217 536 216 535 217 536 218 537 216 535 217 536 219 537 218 537 220 538 222 539 221 538 220 538 223 540 222 539 223 540 224 541 222 539 223 540 225 542 224 541 225 542 226 543 224 541 225 542 227 544 226 543 227 544 228 545 226 543 227 544 229 545 228 545 230 546 232 547 231 546 230 546 233 548 232 547 233 548 234 549 232 547 233 548 235 550 234 549 235 550 236 551 234 549 235 550 237 552 236 551 237 552 238 553 236 551 237 552 239 553 238 553 240 554 242 555 241 554 240 554 243 556 242 555 243 556 244 557 242 555 243 556 245 558 244 557 245 558 246 559 244 557 245 558 247 560 246 559 247 560 248 561 246 559 247 560 249 561 248 561 250 562 252 563 251 562 250 562 253 564 252 563 253 564 254 565 252 563 253 564 255 566 254 565 255 566 256 567 254 565 255 566 257 568 256 567 257 568 258 569 256 567 257 568 259 569 258 569 260 570 262 571 261 570 260 570 263 572 262 571 263 572 264 573 262 571 263 572 265 574 264 573 265 574 266 575 264 573 265 574 267 576 266 575 267 576 268 577 266 575 267 576 269 577 268 577 270 578 272 579 271 578 270 578 273 580 272 579 273 580 274 581 272 579 273 580 275 582 274 581 275 582 276 583 274 581 275 582 277 584 276 583 277 584 278 585 276 583 277 584 279 585 278 585 280 586 282 587 281 586 280 586 283 588 282 587 283 588 284 589 282 587 283 588 285 590 284 589 285 590 286 591 284 589 285 590 287 592 286 591 287 592 288 593 286 591 287 592 289 593 288 593 290 594 292 595 291 594 290 594 293 596 292 595 293 596 294 597 292 595 293 596 295 598 294 597 295 598 296 599 294 597 295 598 297 600 296 599 297 600 298 601 296 599 297 600 299 601 298 601 300 602 302 603 301 602 300 602 303 604 302 603 303 604 304 605 302 603 303 604 305 606 304 605 305 606 306 607 304 605 305 606 307 608 306 607 307 608 308 609 306 607 307 608 309 609 308 609 310 610 312 611 311 610 310 610 313 612 312 611 313 612 314 613 312 611 313 612 315 614 314 613 315 614 316 615 314 613 315 614 317 616 316 615 317 616 318 617 316 615 317 616 319 617 318 617 320 618 322 619 321 618 320 618 323 620 322 619 323 620 324 621 322 619 323 620 325 622 324 621 325 622 326 623 324 621 325 622 327 624 326 623 327 624 328 625 326 623 327 624 329 625 328 625 330 626 332 627 331 626 330 626 333 628 332 627 333 628 334 629 332 627 333 628 335 630 334 629 335 630 336 631 334 629 335 630 337 632 336 631 337 632 338 633 336 631 337 632 339 633 338 633 340 634 342 635 341 634 340 634 343 636 342 635 343 636 344 637 342 635 343 636 345 638 344 637 345 638 346 639 344 637 345 638 347 640 346 639 347 640 348 641 346 639 347 640 349 641 348 641</p></triangles>
        <triangles count="160" material="MAT_WEED_BROAD-mat"><input semantic="VERTEX" source="#weeds_+02-01_foliage-vtx" offset="0"/><input semantic="NORMAL" source="#weeds_+02-01_foliage-nrm" offset="1"/><p>350 277 351 278 352 279 350 277 352 279 353 280 350 277 353 280 354 281 350 277 354 281 355 282 350 277 355 282 356 283 350 277 356 283 357 284 350 277 357 284 358 285 350 277 358 285 359 286 350 277 359 286 360 287 350 277 360 287 361 288 350 277 361 288 362 289 350 277 362 289 363 290 350 277 363 290 364 291 350 277 364 291 365 292 350 277 365 292 366 293 350 277 366 293 367 294 368 295 369 296 370 296 368 295 370 296 371 297 368 295 371 297 372 298 368 295 372 298 373 299 368 295 373 299 374 300 368 295 374 300 375 301 368 295 375 301 376 302 368 295 376 302 377 303 368 295 377 303 378 304 368 295 378 304 379 305 368 295 379 305 380 306 368 295 380 306 381 307 368 295 381 307 382 308 368 295 382 308 383 309 368 295 383 309 384 310 368 295 384 310 385 311 386 312 387 313 388 313 386 312 388 313 389 314 386 312 389 314 390 315 386 312 390 315 391 316 386 312 391 316 392 317 386 312 392 317 393 318 386 312 393 318 394 319 386 312 394 319 395 320 386 312 395 320 396 321 386 312 396 321 397 322 386 312 397 322 398 323 386 312 398 323 399 324 386 312 399 324 400 325 386 312 400 325 401 326 386 312 401 326 402 327 386 312 402 327 403 328 404 329 405 330 406 331 404 329 406 331 407 332 404 329 407 332 408 333 404 329 408 333 409 334 404 329 409 334 410 335 404 329 410 335 411 336 404 329 411 336 412 337 404 329 412 337 413 338 404 329 413 338 414 339 404 329 414 339 415 340 404 329 415 340 416 341 404 329 416 341 417 342 404 329 417 342 418 343 404 329 418 343 419 344 404 329 419 344 420 345 404 329 420 345 421 346 422 347 423 348 424 349 422 347 424 349 425 350 422 347 425 350 426 351 422 347 426 351 427 352 422 347 427 352 428 353 422 347 428 353 429 354 422 347 429 354 430 355 422 347 430 355 431 356 422 347 431 356 432 357 422 347 432 357 433 358 422 347 433 358 434 359 422 347 434 359 435 360 422 347 435 360 436 361 422 347 436 361 437 362 422 347 437 362 438 363 422 347 438 363 439 364 350 642 352 644 351 643 350 642 353 645 352 644 350 642 354 646 353 645 350 642 355 647 354 646 350 642 356 648 355 647 350 642 357 649 356 648 350 642 358 650 357 649 350 642 359 651 358 650 350 642 360 652 359 651 350 642 361 653 360 652 350 642 362 654 361 653 350 642 363 655 362 654 350 642 364 656 363 655 350 642 365 657 364 656 350 642 366 658 365 657 350 642 367 659 366 658 368 660 370 661 369 661 368 660 371 662 370 661 368 660 372 663 371 662 368 660 373 664 372 663 368 660 374 665 373 664 368 660 375 666 374 665 368 660 376 667 375 666 368 660 377 668 376 667 368 660 378 669 377 668 368 660 379 670 378 669 368 660 380 671 379 670 368 660 381 672 380 671 368 660 382 673 381 672 368 660 383 674 382 673 368 660 384 675 383 674 368 660 385 676 384 675 386 677 388 678 387 678 386 677 389 679 388 678 386 677 390 680 389 679 386 677 391 681 390 680 386 677 392 682 391 681 386 677 393 683 392 682 386 677 394 684 393 683 386 677 395 685 394 684 386 677 396 686 395 685 386 677 397 687 396 686 386 677 398 688 397 687 386 677 399 689 398 688 386 677 400 690 399 689 386 677 401 691 400 690 386 677 402 692 401 691 386 677 403 693 402 692 404 694 406 696 405 695 404 694 407 697 406 696 404 694 408 698 407 697 404 694 409 699 408 698 404 694 410 700 409 699 404 694 411 701 410 700 404 694 412 702 411 701 404 694 413 703 412 702 404 694 414 704 413 703 404 694 415 705 414 704 404 694 416 706 415 705 404 694 417 707 416 706 404 694 418 708 417 707 404 694 419 709 418 708 404 694 420 710 419 709 404 694 421 711 420 710 422 712 424 714 423 713 422 712 425 715 424 714 422 712 426 716 425 715 422 712 427 717 426 716 422 712 428 718 427 717 422 712 429 719 428 718 422 712 430 720 429 719 422 712 431 721 430 720 422 712 432 722 431 721 422 712 433 723 432 722 422 712 434 724 433 723 422 712 435 725 434 724 422 712 436 726 435 725 422 712 437 727 436 726 422 712 438 728 437 727 422 712 439 729 438 728</p></triangles>
      </mesh>
    </geometry>
  </library_geometries>
  <library_visual_scenes><visual_scene id="scene" name="scene">
    <node id="weeds_+02-01_foliage" name="weeds_+02-01_foliage" type="NODE"><instance_geometry url="#weeds_+02-01_foliage-mesh"><bind_material><technique_common>
      <instance_material symbol="MAT_WEED_GRASS-mat" target="#MAT_WEED_GRASS"/>
      <instance_material symbol="MAT_WEED_BROAD-mat" target="#MAT_WEED_BROAD"/>
    </technique_common></bind_material></instance_geometry></node>
  </visual_scene></library_visual_scenes>
  <scene><instance_visual_scene url="#scene"/></scene>
<!-- vigil:double-sided -->
</COLLADA>
