<?xml version="1.0" encoding="utf-8"?>
<COLLADA xmlns="http://www.collada.org/2005/11/COLLADASchema" version="1.4.1">
  <asset>
    <contributor><authoring_tool>VIGIL SIH26126 farm generator</authoring_tool></contributor>
    <unit name="meter" meter="1"/>
    <up_axis>Z_UP</up_axis>
  </asset>
  <library_effects>
    <effect id="MAT_WEED_GRASS-fx"><profile_COMMON><technique sid="c"><lambert><diffuse><color>0.0980 0.1280 0.0300 1</color></diffuse></lambert></technique></profile_COMMON></effect>
    <effect id="MAT_WEED_BROAD-fx"><profile_COMMON><technique sid="c"><lambert><diffuse><color>0.0720 0.1520 0.0340 1</color></diffuse></lambert></technique></profile_COMMON></effect>
  </library_effects>
  <library_materials>
    <material id="MAT_WEED_GRASS" name="MAT_WEED_GRASS"><instance_effect url="#MAT_WEED_GRASS-fx"/></material>
    <material id="MAT_WEED_BROAD" name="MAT_WEED_BROAD"><instance_effect url="#MAT_WEED_BROAD-fx"/></material>
  </library_materials>
  <library_geometries>
    <geometry id="weeds_-01-03_foliage-mesh" name="weeds_-01-03_foliage">
      <mesh>
        <source id="weeds_-01-03_foliage-pos"><float_array id="weeds_-01-03_foliage-pos-a" count="1350">-2.6357 0.028025 -0.051817 -2.6439 0.034811 -0.051662 -2.6634 0.0094662 0.047069 -2.6569 0.0031166 0.046992 -2.6851 -0.018377 0.10249 -2.6809 -0.02334 0.10247 -2.7106 -0.04962 0.093184 -2.7086 -0.052443 0.093197 -2.7392 -0.083624 0.032107 -2.7392 -0.083624 0.032107 -2.6334 0.028568 -0.051977 -2.6462 0.034267 -0.051503 -2.6562 0.0019627 0.051601 -2.6456 -0.0036945 0.051254 -2.6683 -0.032932 0.10961 -2.6609 -0.037577 0.10941 -2.6841 -0.071417 0.10018 -2.6803 -0.074171 0.10009 -2.703 -0.11286 0.036559 -2.703 -0.11286 0.036559 -2.6437 0.035662 -0.051712 -2.6359 0.027174 -0.051768 -2.6073 0.052876 0.039118 -2.6132 0.060751 0.039093 -2.5809 0.07745 0.093349 -2.5846 0.083546 0.093278 -2.5577 0.09984 0.091219 -2.5593 0.10326 0.091153 -2.5372 0.12031 0.039858 -2.5372 0.12031 0.039858 -2.6347 0.037796 -0.052331 -2.6449 0.02504 -0.051148 -2.5901 -0.0027637 0.0838 -2.5828 0.0090866 0.082822 -2.5387 -0.032549 0.15704 -2.5345 -0.023401 0.15637 -2.4929 -0.065968 0.13819 -2.4913 -0.060854 0.13786 -2.4519 -0.10228 0.045803 -2.4519 -0.10228 0.045803 -2.6392 0.035948 -0.051989 -2.6405 0.026888 -0.05149 -2.5982 0.027025 0.053198 -2.5969 0.034746 0.052758 -2.5583 0.025654 0.11678 -2.5571 0.031219 0.11645 -2.5219 0.021549 0.11691 -2.5211 0.0245 0.11673 -2.4886 0.014994 0.060968 -2.4886 0.014994 0.060968 -2.6362 0.029497 -0.051862 -2.6435 0.033339 -0.051618 -2.6529 0.0089149 0.044552 -2.6464 0.0062752 0.044295 -2.6641 -0.017242 0.10375 -2.6592 -0.018665 0.10353 -2.6783 -0.045912 0.10613 -2.6756 -0.046398 0.106 -2.6951 -0.076672 0.058896 -2.6951 -0.076672 0.058896 -2.6455 0.029203 -0.051308 -2.6341 0.033632 -0.052172 -2.6459 0.08205 0.072931 -2.6559 0.079058 0.073651 -2.6613 0.12802 0.14547 -2.6687 0.12644 0.14597 -2.6817 0.17044 0.13817 -2.6858 0.16992 0.13843 -2.7064 0.21 0.063741 -2.7064 0.21 0.063741 -2.6327 0.030537 -0.052112 -2.6469 0.032299 -0.051367 -2.6456 -0.024065 0.080169 -2.6334 -0.025749 0.07954 -2.6475 -0.083687 0.14463 -2.6387 -0.085037 0.14418 -2.6547 -0.14798 0.11153 -2.65 -0.14877 0.11129 -2.6657 -0.21571 0.0072043 -2.6657 -0.21571 0.0072043 -2.6354 0.029676 -0.051913 -2.6442 0.033159 -0.051567 -2.6556 -0.008028 0.06737 -2.6482 -0.011137 0.067083 -2.6698 -0.05197 0.13151 -2.6645 -0.054316 0.13131 -2.6885 -0.099838 0.11452 -2.6857 -0.10114 0.11442 -2.7107 -0.15078 0.034491 -2.7107 -0.15078 0.034491 -2.6379 0.025469 -0.051574 -2.6417 0.037367 -0.051905 -2.6735 0.029612 0.038954 -2.6714 0.019133 0.039322 -2.7078 0.019215 0.087785 -2.7072 0.011509 0.088111 -2.7461 0.0055027 0.074441 -2.7463 0.0013885 0.074644 -2.7877 -0.010715 0.013039 -2.7877 -0.010715 0.013039 -2.6345 0.028608 -0.051917 -2.6451 0.034227 -0.051562 -2.666 -0.013302 0.076626 -2.6566 -0.017624 0.076285 -2.69 -0.063957 0.14059 -2.6831 -0.066727 0.14031 -2.7191 -0.11895 0.11095 -2.7153 -0.12023 0.11079 -2.7518 -0.17705 0.012544 -2.7518 -0.17705 0.012544 -2.6324 0.034147 -0.052295 -2.6472 0.028688 -0.051185 -2.6188 -0.01281 0.086131 -2.6062 -0.0079269 0.085176 -2.593 -0.056704 0.16553 -2.584 -0.053013 0.16483 -2.572 -0.10446 0.15735 -2.5672 -0.10241 0.15698 -2.5549 -0.15541 0.076327 -2.5549 -0.15541 0.076327 -2.6458 0.032017 -0.051422 -2.6338 0.030819 -0.052057 -2.6246 0.076845 0.056953 -2.6349 0.077135 0.057533 -2.6186 0.12057 0.12002 -2.626 0.12025 0.12046 -2.617 0.1608 0.11319 -2.621 0.16035 0.11344 -2.6191 0.19797 0.047269 -2.6191 0.19797 0.047269 -2.6364 0.026037 -0.051685 -2.6432 0.036798 -0.051795 -2.673 0.019691 0.069706 -2.6666 0.010866 0.069746 -2.7051 -6.1035e-05 0.14313 -2.7 -0.0061493 0.14312 -2.7411 -0.023382 0.14313 -2.7381 -0.026451 0.14311 -2.7803 -0.04966 0.080347 -2.7803 -0.04966 0.080347 -2.6344 0.028753 -0.05193 -2.6452 0.034082 -0.05155 -2.6533 0.0095272 0.049041 -2.644 0.0049686 0.048715 -2.663 -0.017021 0.11212 -2.6563 -0.020327 0.11188 -2.6758 -0.046425 0.11713 -2.6722 -0.048187 0.117 -2.6914 -0.078352 0.070436 -2.6914 -0.078352 0.070436 5.2131 0.10553 -0.014546 5.2071 0.10818 -0.014251 5.1931 0.067638 0.073394 5.1979 0.064795 0.073127 5.178 0.028666 0.1173 5.1812 0.026205 0.1171 5.161 -0.0078583 0.096911 5.1626 -0.0093689 0.096799 5.1425 -0.042595 0.027827 5.1425 -0.042595 0.027827 5.2134 0.11285 -0.014246 5.2067 0.10086 -0.014551 5.2452 0.077818 0.090041 5.2506 0.088293 0.090323 5.2825 0.057442 0.14633 5.2861 0.065178 0.14655 5.3176 0.040531 0.13049 5.3194 0.044727 0.13062 5.351 0.026394 0.057125 5.351 0.026394 0.057125 5.213 0.10549 -0.014547 5.2071 0.10822 -0.014251 5.1919 0.066416 0.074704 5.1967 0.063515 0.074436 5.1756 0.026239 0.1184 5.1788 0.023754 0.1182 5.1573 -0.011396 0.095809 5.1588 -0.012913 0.095697 5.1374 -0.047199 0.023611 5.1374 -0.047199 0.023611 5.2152 0.10359 -0.014694 5.2049 0.11012 -0.014103 5.1876 0.071405 0.087293 5.1971 0.066814 0.086812 5.1697 0.03451 0.14488 5.1769 0.03194 0.14455 5.1503 0.00062561 0.13632 5.1542 -0.00032616 0.13616 5.1296 -0.0306 0.073052 5.1296 -0.0306 0.073052 5.2104 0.11203 -0.01419 5.2097 0.10168 -0.014607 5.2411 0.098602 0.085414 5.2412 0.10744 0.085786 5.2713 0.097532 0.14957 5.271 0.1039 0.14985 5.2997 0.099127 0.15733 5.2993 0.10249 0.15748 5.3262 0.10312 0.11267 5.3262 0.10312 0.11267 5.2101 0.10149 -0.014629 5.21 0.11222 -0.014168 5.1764 0.10184 0.11097 5.1763 0.09263 0.11058 5.1414 0.092955 0.18927 5.1411 0.08626 0.18899 5.1041 0.086853 0.19488 5.1038 0.083277 0.19474 5.0647 0.08329 0.13536 5.0647 0.08329 0.13536 5.2053 0.10404 -0.014373 5.2149 0.10967 -0.014424 5.1998 0.14254 0.090692 5.1914 0.13825 0.090765 5.1827 0.17736 0.147 5.1765 0.17465 0.14708 5.1632 0.21531 0.13104 5.1598 0.21408 0.13109 5.1416 0.25576 0.058976 5.1416 0.25576 0.058976 5.2107 0.1017 -0.014636 5.2095 0.11201 -0.014161 5.1851 0.10118 0.07993 5.1856 0.092249 0.079535 5.1596 0.091316 0.13919 5.1596 0.084791 0.13891 5.1323 0.083443 0.14427 5.1321 0.079947 0.14412 5.1033 0.077417 0.10038 5.1033 0.077417 0.10038 5.2078 0.11163 -0.014128 5.2123 0.10208 -0.014669 5.258 0.1224 0.1097 5.255 0.13099 0.11016 5.3021 0.14567 0.17817 5.3005 0.15215 0.1785 5.3438 0.1729 0.16299 5.3433 0.17646 0.16316 5.3837 0.2033 0.080602 5.3837 0.2033 0.080602 5.2062 0.11104 -0.014105 5.2139 0.10267 -0.014692 5.2405 0.12262 0.099296 5.2348 0.13052 0.099805 5.2658 0.14491 0.17253 5.2622 0.15111 0.1729 5.2892 0.17042 0.18177 5.2876 0.17394 0.18196 5.311 0.19886 0.13187 5.311 0.19886 0.13187 5.2048 0.10066 -0.014504 5.2153 0.11305 -0.014293 5.1862 0.13612 0.10416 5.1763 0.12652 0.10405 5.1548 0.1611 0.16964 5.147 0.15496 0.16961 5.1204 0.1895 0.15609 5.1159 0.1867 0.15611 5.0835 0.22085 0.079677 5.0835 0.22085 0.079677 -2.9671 -0.1396 -0.053252 -2.9631 -0.13512 -0.053751 -2.9934 -0.099566 0.024178 -2.9968 -0.10342 0.02461 -3.0221 -0.07045 0.060162 -3.0246 -0.073261 0.060479 -3.0484 -0.050577 0.034809 -3.0497 -0.052086 0.03498 -3.0729 -0.037571 -0.036088 -3.0729 -0.037571 -0.036088 -2.9633 -0.13968 -0.05308 -2.967 -0.13504 -0.053923 -2.9876 -0.1414 0.0064098 -2.9847 -0.14555 0.0071474 -3.007 -0.15224 0.038344 -3.0051 -0.15537 0.038889 -3.0246 -0.16951 0.028344 -3.0237 -0.17124 0.02864 -3.041 -0.19172 -0.01381 -3.041 -0.19172 -0.01381 -2.9668 -0.13542 -0.053857 -2.9635 -0.1393 -0.053145 -2.9432 -0.10895 0.014532 -2.9456 -0.10536 0.013898 -2.9214 -0.08371 0.045925 -2.9229 -0.080942 0.045452 -2.8974 -0.066114 0.024509 -2.8981 -0.064564 0.024251 -2.8717 -0.054092 -0.035579 -2.8717 -0.054092 -0.035579 -2.9655 -0.13477 -0.053901 -2.9648 -0.13995 -0.053102 -2.9425 -0.12721 0.0084025 -2.9433 -0.12279 0.0077158 -2.9191 -0.11865 0.040118 -2.9198 -0.11546 0.039619 -2.894 -0.11647 0.027985 -2.8944 -0.11478 0.027718 -2.8676 -0.11915 -0.017593 -2.8676 -0.11915 -0.017593 -2.9642 -0.13571 -0.053707 -2.9661 -0.13901 -0.053296 -2.9543 -0.13866 0.002452 -2.9527 -0.13581 0.0020933 -2.9415 -0.14119 0.03773 -2.9404 -0.1391 0.037465 -2.9275 -0.14833 0.041289 -2.9269 -0.1472 0.041146 -2.9122 -0.15959 0.01649 -2.9122 -0.15959 0.01649 -2.9643 -0.1399 -0.053091 -2.9659 -0.13482 -0.053912 -2.996 -0.13235 0.022631 -2.9944 -0.13665 0.023333 -3.0244 -0.1352 0.06491 -3.0232 -0.13827 0.065417 -3.0507 -0.14578 0.055896 -3.05 -0.1474 0.056166 -3.0751 -0.16256 0.0057048 -3.0751 -0.16256 0.0057048 -2.9667 -0.13951 -0.053249 -2.9635 -0.13521 -0.053754 -2.9879 -0.10868 0.017837 -2.9909 -0.1122 0.018236 -3.0111 -0.087132 0.056993 -3.0134 -0.08955 0.057257 -3.0325 -0.072889 0.047278 -3.0338 -0.074106 0.047405 -3.0524 -0.064611 -0.0025443 -3.0524 -0.064611 -0.0025443 -2.9617 -0.136 -0.053562 -2.9686 -0.13872 -0.053441 -2.9612 -0.1533 0.0099643 -2.9555 -0.15043 0.0097714 -2.9522 -0.17202 0.043564 -2.9484 -0.16957 0.043361 -2.9414 -0.19695 0.033471 -2.9395 -0.19546 0.033329 -2.9293 -0.22648 -0.0094235 -2.9293 -0.22648 -0.0094235 -2.9658 -0.14045 -0.053068 -2.9645 -0.13427 -0.053935 -2.9932 -0.11941 0.012432 -2.9937 -0.12478 0.013207 -3.0205 -0.10954 0.047407 -3.0205 -0.11346 0.047987 -3.0457 -0.10682 0.035623 -3.0455 -0.1089 0.035939 -3.0692 -0.1097 -0.01308 -3.0692 -0.1097 -0.01308 -2.9671 -0.13617 -0.05376 -2.9632 -0.13855 -0.053243 -2.9562 -0.11309 0.0064124 -2.9598 -0.11142 0.0060166 -2.9485 -0.091148 0.042296 -2.9512 -0.090214 0.042046 -2.9395 -0.074726 0.041489 -2.941 -0.074383 0.041377 -2.9293 -0.063248 0.0082445 -2.9293 -0.063248 0.0082445 0.38815 -0.0017509 0.021365 0.38321 -0.0065536 0.01727 0.37942 -0.0048141 0.016684 0.37631 -0.00029373 0.017671 0.37452 0.0060081 0.019733 0.3749 0.014801 0.022987 0.37883 0.024858 0.026767 0.38647 0.033718 0.030138 0.39527 0.038368 0.032405 0.40407 0.03813 0.03392 0.41034 0.03178 0.034333 0.4132 0.022036 0.033557 0.41247 0.010153 0.031071 0.40853 0.000103 0.027289 0.40307 -0.0064697 0.023385 0.39775 -0.0096664 0.020414 0.39263 -0.010586 0.018373 0.38876 -0.0089798 0.017981 0.38056 -0.0019073 0.080845 0.39143 -0.0034122 0.07287 0.39413 -0.010265 0.072944 0.39313 -0.019167 0.076533 0.38868 -0.02825 0.082461 0.37907 -0.037289 0.091241 0.36393 -0.04331 0.10137 0.34564 -0.043455 0.11036 0.33034 -0.037518 0.11573 0.32007 -0.026022 0.11761 0.31909 -0.01079 0.11486 0.32569 0.0039368 0.1088 0.33882 0.016346 0.099412 0.35397 0.022339 0.089283 0.36738 0.022371 0.080798 0.37713 0.018858 0.075284 0.38428 0.013147 0.072175 0.38729 0.0064354 0.072547 0.37345 -0.0010567 0.14042 0.36997 0.0067406 0.13295 0.37307 0.012388 0.1334 0.37893 0.016855 0.13729 0.38637 0.019209 0.14343 0.3961 0.01819 0.15235 0.40661 0.011835 0.16252 0.41513 1.9073e-05 0.17141 0.41858 -0.013342 0.17651 0.41616 -0.026587 0.17783 0.40696 -0.035879 0.17431 0.39452 -0.039942 0.16751 0.38067 -0.038467 0.15762 0.37018 -0.032085 0.14745 0.36437 -0.023474 0.13927 0.3624 -0.015207 0.13416 0.3629 -0.0073528 0.13147 0.36569 -0.0015621 0.13214 0.36683 0.00080109 0.20009 0.36854 -0.007082 0.19689 0.36499 -0.0091534 0.19624 0.35929 -0.0086079 0.19678 0.35272 -0.0056038 0.19802 0.34515 0.0010681 0.19979 0.33847 0.011696 0.20131 0.33495 0.024643 0.20202 0.33577 0.035564 0.20227 0.34081 0.043026 0.20296 0.34969 0.043945 0.20443 0.35963 0.039505 0.20583 0.36953 0.030405 0.20611 0.3762 0.019768 0.20459 0.37908 0.010271 0.2021 0.37909 0.0033188 0.19984 0.37718 -0.0018101 0.19813 0.37366 -0.003994 0.19768 0.36069 0.0036659 0.25985 0.36497 0.0082512 0.25882 0.36819 0.0071564 0.25914 0.3708 0.0036259 0.26005 0.37231 -0.0015144 0.26116 0.37215 -0.0088596 0.26222 0.36929 -0.017408 0.26258 0.36357 -0.025112 0.26182 0.3568 -0.029427 0.26054 0.34968 -0.029844 0.25937 0.34413 -0.025265 0.25889 0.34111 -0.017731 0.25889 0.34101 -0.0081177 0.25888 0.34389 0.00042725 0.25853 0.34832 0.0063686 0.25802 0.35278 0.0095463 0.2577 0.35709 0.010803 0.25769 0.3603 0.0097847 0.25821</float_array><technique_common><accessor source="#weeds_-01-03_foliage-pos-a" count="450" stride="3"><param name="X" type="float"/><param name="Y" type="float"/><param name="Z" type="float"/></accessor></technique_common></source>
        <source id="weeds_-01-03_foliage-nrm"><float_array id="weeds_-01-03_foliage-nrm-a" count="2256">0.639 0.704 0.311 0.632 0.649 0.423 0.632 0.646 0.429 0.319 0.312 0.895 0.238 0.239 0.941 -0.414 -0.309 0.856 -0.475 -0.351 0.807 -0.662 -0.479 0.576 0.425 0.85 0.312 0.433 0.797 0.422 0.433 0.794 0.427 0.236 0.383 0.893 0.187 0.299 0.936 -0.288 -0.429 0.856 -0.33 -0.482 0.812 -0.479 -0.664 0.575 -0.704 -0.591 0.394 -0.7 -0.535 0.473 -0.699 -0.532 0.478 -0.421 -0.283 0.862 -0.338 -0.226 0.914 0.41 0.211 0.887 0.535 0.269 0.801 0.793 0.385 0.471 -0.729 0.553 0.404 -0.701 0.486 0.522 -0.703 0.491 0.514 -0.141 0.18 0.974 -0.281 0.248 0.927 0.671 -0.183 0.718 0.583 -0.154 0.798 0.846 -0.245 0.473 -0.914 0.167 0.37 -0.876 0.178 0.449 -0.875 0.178 0.45 -0.491 0.144 0.859 -0.464 0.14 0.875 0.451 -0.055 0.891 0.494 -0.067 0.867 0.838 -0.17 0.519 0.416 0.872 0.259 0.367 0.863 0.347 0.37 0.864 0.343 0.206 0.486 0.849 0.236 0.577 0.782 -0.049 -0.507 0.861 -0.018 -0.355 0.935 -0.119 -0.812 0.571 0.329 -0.869 0.37 0.291 -0.836 0.464 0.289 -0.835 0.469 0.179 -0.422 0.889 0.158 -0.328 0.931 -0.019 0.532 0.847 -0.034 0.622 0.782 -0.08 0.869 0.488 0.139 0.911 0.389 0.141 0.831 0.538 0.141 0.83 0.539 0.074 0.193 0.978 0.071 0.171 0.983 -0.07 -0.658 0.75 -0.072 -0.665 0.743 -0.111 -0.828 0.549 0.365 0.868 0.336 0.355 0.813 0.462 0.355 0.812 0.464 0.158 0.295 0.942 0.148 0.273 0.951 -0.219 -0.548 0.808 -0.224 -0.559 0.798 -0.324 -0.755 0.57 0.904 0.252 0.344 0.86 0.201 0.468 0.856 0.196 0.478 0.379 0.114 0.918 0.216 0.099 0.971 -0.569 0.046 0.821 -0.653 0.052 0.756 -0.834 0.063 0.548 0.423 0.826 0.373 0.377 0.764 0.524 0.379 0.767 0.518 0.114 0.136 0.984 0.144 0.213 0.966 -0.195 -0.643 0.74 -0.186 -0.615 0.766 -0.246 -0.797 0.552 -0.312 0.89 0.333 -0.296 0.851 0.434 -0.297 0.851 0.433 -0.093 0.414 0.906 -0.101 0.432 0.896 0.267 -0.475 0.838 0.261 -0.458 0.85 0.364 -0.752 0.55 -0.04 -0.92 0.389 -0.003 -0.877 0.48 -0.004 -0.879 0.477 0.05 -0.363 0.93 0.048 -0.448 0.893 -0.018 0.609 0.793 -0.004 0.526 0.85 -0.069 0.868 0.492 0.798 0.54 0.269 0.755 0.546 0.363 0.757 0.546 0.36 0.397 0.305 0.866 0.451 0.347 0.822 -0.349 -0.339 0.874 -0.286 -0.278 0.917 -0.579 -0.558 0.595 0.434 0.867 0.246 0.425 0.844 0.327 0.295 0.547 0.783 0.296 0.547 0.783 -0.132 -0.337 0.932 -0.132 -0.336 0.932 -0.333 -0.723 0.605 0.424 0.793 0.438 0.431 0.707 0.561 0.432 0.7 0.569 0.161 0.208 0.965 0.072 0.081 0.994 -0.414 -0.517 0.749 -0.463 -0.557 0.69 -0.586 -0.65 0.484 -0.814 0.429 0.392 -0.775 0.388 0.499 -0.776 0.389 0.496 -0.253 0.107 0.962 -0.31 0.134 0.941 0.638 -0.293 0.713 0.606 -0.281 0.744 0.822 -0.358 0.443 0.436 0.782 0.445 0.439 0.693 0.572 0.438 0.685 0.582 0.15 0.185 0.971 0.06 0.061 0.996 -0.427 -0.523 0.738 -0.473 -0.558 0.682 -0.593 -0.645 0.483 0.469 0.798 0.379 0.41 0.774 0.482 0.414 0.776 0.477 0.175 0.266 0.948 0.219 0.38 0.899 -0.128 -0.636 0.761 -0.104 -0.539 0.836 -0.185 -0.856 0.483 -0.954 0.033 0.298 -0.932 0.002 0.362 -0.933 0.003 0.36 -0.642 -0.049 0.765 -0.682 -0.047 0.73 0.435 0.012 0.9 0.307 -0.002 0.952 0.855 0.069 0.514 0.966 -0.009 0.259 0.943 -0.025 0.332 0.943 -0.026 0.333 0.643 -0.051 0.764 0.618 -0.051 0.785 -0.383 -0.007 0.924 -0.438 -0.002 0.899 -0.834 0.04 0.55 0.457 -0.827 0.327 0.413 -0.793 0.447 0.411 -0.791 0.453 0.179 -0.327 0.928 0.141 -0.241 0.96 -0.205 0.575 0.792 -0.22 0.618 0.755 -0.28 0.799 0.532 0.963 0.073 0.26 0.943 0.044 0.329 0.942 0.043 0.331 0.671 -0.014 0.741 0.627 -0.018 0.779 -0.336 -0.016 0.942 -0.443 -0.009 0.896 -0.836 0.024 0.548 -0.849 -0.371 0.376 -0.815 -0.323 0.481 -0.812 -0.32 0.488 -0.355 -0.172 0.919 -0.23 -0.139 0.963 0.611 0.068 0.789 0.688 0.08 0.721 0.877 0.113 0.467 -0.731 -0.62 0.284 -0.741 -0.572 0.351 -0.741 -0.57 0.355 -0.56 -0.4 0.726 -0.506 -0.364 0.782 0.268 0.05 0.962 0.447 0.137 0.884 0.789 0.318 0.526 0.697 -0.65 0.303 0.64 -0.65 0.41 0.635 -0.65 0.418 0.321 -0.343 0.883 0.218 -0.221 0.951 -0.314 0.478 0.82 -0.36 0.559 0.747 -0.454 0.726 0.517 0.673 -0.539 0.507 0.616 -0.471 0.632 0.616 -0.471 0.631 0.092 0.029 0.995 0.101 0.021 0.995 -0.58 0.564 0.587 -0.578 0.563 0.591 -0.691 0.631 0.354 0.728 0.608 0.316 0.69 0.575 0.44 0.688 0.573 0.445 0.206 0.319 0.925 0.129 0.273 0.953 -0.626 -0.227 0.746 -0.656 -0.248 0.713 -0.795 -0.353 0.494 -0.747 -0.492 0.448 -0.715 -0.403 0.571 -0.712 -0.395 0.581 -0.226 -0.005 0.974 -0.08 0.081 0.993 0.633 0.4 0.663 0.68 0.406 0.611 0.805 0.412 0.427 -0.932 -0.084 0.353 -0.875 -0.067 0.48 -0.876 -0.068 0.478 -0.257 0.112 0.96 -0.306 0.101 0.947 0.668 0.26 0.697 0.649 0.258 0.716 0.84 0.268 0.472 -0.849 0.497 0.176 -0.835 0.49 0.252 -0.835 0.49 0.251 -0.565 0.394 0.725 -0.577 0.399 0.713 0.383 -0.074 0.921 0.357 -0.059 0.932 0.746 -0.299 0.595 0.877 0.348 0.331 0.824 0.364 0.435 0.825 0.363 0.433 0.275 0.249 0.929 0.328 0.266 0.907 -0.639 -0.158 0.753 -0.611 -0.14 0.779 -0.82 -0.287 0.495 0.727 -0.524 0.444 0.677 -0.504 0.537 0.675 -0.503 0.54 0.303 -0.154 0.94 0.245 -0.098 0.965 -0.44 0.537 0.72 -0.476 0.572 0.668 -0.617 0.698 0.362 -0.39 0.888 0.245 -0.399 0.83 0.388 -0.399 0.835 0.379 -0.08 0.275 0.958 -0.157 0.399 0.903 0.419 -0.494 0.762 0.383 -0.449 0.807 0.524 -0.625 0.579 0.909 -0.084 0.408 0.859 -0.023 0.512 0.862 -0.027 0.506 0.21 0.106 0.972 0.355 0.095 0.93 -0.738 0.049 0.673 -0.67 0.068 0.739 -0.9 -0.012 0.435 -0.475 -0.79 0.389 -0.424 -0.776 0.466 -0.427 -0.777 0.462 -0.243 -0.372 0.896 -0.278 -0.468 0.839 0.098 0.672 0.734 0.053 0.523 0.851 0.183 0.911 0.371 0.26 0.329 -0.908 0.318 0.404 -0.858 0.318 0.405 -0.857 0.318 0.386 -0.866 0.299 0.338 -0.892 0.238 0.282 -0.93 0.16 0.25 -0.955 0.125 0.244 -0.962 0.154 0.237 -0.959 0.215 0.214 -0.953 0.274 0.184 -0.944 0.298 0.168 -0.94 0.278 0.198 -0.94 0.245 0.279 -0.929 0.237 0.365 -0.9 0.254 0.414 -0.874 0.267 0.428 -0.864 0.265 0.427 -0.864 -0.523 -0.247 -0.816 -0.595 -0.243 -0.766 -0.595 -0.242 -0.766 -0.585 -0.232 -0.777 -0.552 -0.22 -0.805 -0.494 -0.226 -0.84 -0.438 -0.252 -0.863 -0.415 -0.269 -0.869 -0.424 -0.253 -0.869 -0.443 -0.215 -0.87 -0.457 -0.175 -0.872 -0.462 -0.158 -0.873 -0.466 -0.185 -0.865 -0.487 -0.242 -0.839 -0.524 -0.286 -0.802 -0.557 -0.299 -0.775 -0.571 -0.299 -0.764 -0.572 -0.299 -0.764 0.641 -0.26 -0.722 0.682 -0.323 -0.656 0.682 -0.324 -0.656 0.668 -0.322 -0.671 0.639 -0.302 -0.708 0.608 -0.249 -0.753 0.594 -0.185 -0.783 0.592 -0.154 -0.791 0.586 -0.172 -0.792 0.568 -0.215 -0.795 0.544 -0.255 -0.8 0.533 -0.27 -0.802 0.558 -0.255 -0.79 0.616 -0.235 -0.752 0.673 -0.236 -0.701 0.703 -0.254 -0.665 0.711 -0.267 -0.65 -0.005 0.256 -0.967 -0.046 0.367 -0.929 -0.05 0.368 -0.929 -0.032 0.354 -0.935 0.005 0.296 -0.955 0.016 0.182 -0.983 -0.016 0.071 -0.997 -0.037 0.032 -0.999 0 0.063 -0.998 0.082 0.118 -0.99 0.167 0.164 -0.972 0.211 0.182 -0.96 0.167 0.182 -0.969 0.054 0.205 -0.977 -0.047 0.265 -0.963 -0.085 0.322 -0.943 -0.09 0.343 -0.935 -0.092 0.339 -0.936 0.08 -0.148 -0.986 0.018 -0.236 -0.972 0.019 -0.237 -0.971 0.019 -0.216 -0.976 0.039 -0.163 -0.986 0.099 -0.097 -0.99 0.174 -0.056 -0.983 0.208 -0.046 -0.977 0.181 -0.042 -0.983 0.121 -0.026 -0.992 0.063 -0.003 -0.998 0.038 0.01 -0.999 0.06 -0.018 -0.998 0.096 -0.096 -0.991 0.104 -0.184 -0.977 0.086 -0.238 -0.967 0.073 -0.255 -0.964 0.074 -0.254 -0.964 -0.639 -0.704 -0.311 -0.632 -0.649 -0.423 -0.632 -0.646 -0.429 -0.319 -0.312 -0.895 -0.238 -0.239 -0.941 0.414 0.309 -0.856 0.475 0.351 -0.807 0.662 0.479 -0.576 -0.425 -0.85 -0.312 -0.433 -0.797 -0.422 -0.433 -0.794 -0.427 -0.236 -0.383 -0.893 -0.187 -0.299 -0.936 0.288 0.429 -0.856 0.33 0.482 -0.812 0.479 0.664 -0.575 0.704 0.591 -0.394 0.7 0.535 -0.473 0.699 0.532 -0.478 0.421 0.283 -0.862 0.338 0.226 -0.914 -0.41 -0.211 -0.887 -0.535 -0.269 -0.801 -0.793 -0.385 -0.471 0.729 -0.553 -0.404 0.701 -0.486 -0.522 0.703 -0.491 -0.514 0.141 -0.18 -0.974 0.281 -0.248 -0.927 -0.671 0.183 -0.718 -0.583 0.154 -0.798 -0.846 0.245 -0.473 0.914 -0.167 -0.37 0.876 -0.178 -0.449 0.875 -0.178 -0.45 0.491 -0.144 -0.859 0.464 -0.14 -0.875 -0.451 0.055 -0.891 -0.494 0.067 -0.867 -0.838 0.17 -0.519 -0.416 -0.872 -0.259 -0.367 -0.863 -0.347 -0.37 -0.864 -0.343 -0.206 -0.486 -0.849 -0.236 -0.577 -0.782 0.049 0.507 -0.861 0.018 0.355 -0.935 0.119 0.812 -0.571 -0.329 0.869 -0.37 -0.291 0.836 -0.464 -0.289 0.835 -0.469 -0.179 0.422 -0.889 -0.158 0.328 -0.931 0.019 -0.532 -0.847 0.034 -0.622 -0.782 0.08 -0.869 -0.488 -0.139 -0.911 -0.389 -0.141 -0.831 -0.538 -0.141 -0.83 -0.539 -0.074 -0.193 -0.978 -0.071 -0.171 -0.983 0.07 0.658 -0.75 0.072 0.665 -0.743 0.111 0.828 -0.549 -0.365 -0.868 -0.336 -0.355 -0.813 -0.462 -0.355 -0.812 -0.464 -0.158 -0.295 -0.942 -0.148 -0.273 -0.951 0.219 0.548 -0.808 0.224 0.559 -0.798 0.324 0.755 -0.57 -0.904 -0.252 -0.344 -0.86 -0.201 -0.468 -0.856 -0.196 -0.478 -0.379 -0.114 -0.918 -0.216 -0.099 -0.971 0.569 -0.046 -0.821 0.653 -0.052 -0.756 0.834 -0.063 -0.548 -0.423 -0.826 -0.373 -0.377 -0.764 -0.524 -0.379 -0.767 -0.518 -0.114 -0.136 -0.984 -0.144 -0.213 -0.966 0.195 0.643 -0.74 0.186 0.615 -0.766 0.246 0.797 -0.552 0.312 -0.89 -0.333 0.296 -0.851 -0.434 0.297 -0.851 -0.433 0.093 -0.414 -0.906 0.101 -0.432 -0.896 -0.267 0.475 -0.838 -0.261 0.458 -0.85 -0.364 0.752 -0.55 0.04 0.92 -0.389 0.003 0.877 -0.48 0.004 0.879 -0.477 -0.05 0.363 -0.93 -0.048 0.448 -0.893 0.018 -0.609 -0.793 0.004 -0.526 -0.85 0.069 -0.868 -0.492 -0.798 -0.54 -0.269 -0.755 -0.546 -0.363 -0.757 -0.546 -0.36 -0.397 -0.305 -0.866 -0.451 -0.347 -0.822 0.349 0.339 -0.874 0.286 0.278 -0.917 0.579 0.558 -0.595 -0.434 -0.867 -0.246 -0.425 -0.844 -0.327 -0.295 -0.547 -0.783 -0.296 -0.547 -0.783 0.132 0.337 -0.932 0.132 0.336 -0.932 0.333 0.723 -0.605 -0.424 -0.793 -0.438 -0.431 -0.707 -0.561 -0.432 -0.7 -0.569 -0.161 -0.208 -0.965 -0.072 -0.081 -0.994 0.414 0.517 -0.749 0.463 0.557 -0.69 0.586 0.65 -0.484 0.814 -0.429 -0.392 0.775 -0.388 -0.499 0.776 -0.389 -0.496 0.253 -0.107 -0.962 0.31 -0.134 -0.941 -0.638 0.293 -0.713 -0.606 0.281 -0.744 -0.822 0.358 -0.443 -0.436 -0.782 -0.445 -0.439 -0.693 -0.572 -0.438 -0.685 -0.582 -0.15 -0.185 -0.971 -0.06 -0.061 -0.996 0.427 0.523 -0.738 0.473 0.558 -0.682 0.593 0.645 -0.483 -0.469 -0.798 -0.379 -0.41 -0.774 -0.482 -0.414 -0.776 -0.477 -0.175 -0.266 -0.948 -0.219 -0.38 -0.899 0.128 0.636 -0.761 0.104 0.539 -0.836 0.185 0.856 -0.483 0.954 -0.033 -0.298 0.932 -0.002 -0.362 0.933 -0.003 -0.36 0.642 0.049 -0.765 0.682 0.047 -0.73 -0.435 -0.012 -0.9 -0.307 0.002 -0.952 -0.855 -0.069 -0.514 -0.966 0.009 -0.259 -0.943 0.025 -0.332 -0.943 0.026 -0.333 -0.643 0.051 -0.764 -0.618 0.051 -0.785 0.383 0.007 -0.924 0.438 0.002 -0.899 0.834 -0.04 -0.55 -0.457 0.827 -0.327 -0.413 0.793 -0.447 -0.411 0.791 -0.453 -0.179 0.327 -0.928 -0.141 0.241 -0.96 0.205 -0.575 -0.792 0.22 -0.618 -0.755 0.28 -0.799 -0.532 -0.963 -0.073 -0.26 -0.943 -0.044 -0.329 -0.942 -0.043 -0.331 -0.671 0.014 -0.741 -0.627 0.018 -0.779 0.336 0.016 -0.942 0.443 0.009 -0.896 0.836 -0.024 -0.548 0.849 0.371 -0.376 0.815 0.323 -0.481 0.812 0.32 -0.488 0.355 0.172 -0.919 0.23 0.139 -0.963 -0.611 -0.068 -0.789 -0.688 -0.08 -0.721 -0.877 -0.113 -0.467 0.731 0.62 -0.284 0.741 0.572 -0.351 0.741 0.57 -0.355 0.56 0.4 -0.726 0.506 0.364 -0.782 -0.268 -0.05 -0.962 -0.447 -0.137 -0.884 -0.789 -0.318 -0.526 -0.697 0.65 -0.303 -0.64 0.65 -0.41 -0.635 0.65 -0.418 -0.321 0.343 -0.883 -0.218 0.221 -0.951 0.314 -0.478 -0.82 0.36 -0.559 -0.747 0.454 -0.726 -0.517 -0.673 0.539 -0.507 -0.616 0.471 -0.632 -0.616 0.471 -0.631 -0.092 -0.029 -0.995 -0.101 -0.021 -0.995 0.58 -0.564 -0.587 0.578 -0.563 -0.591 0.691 -0.631 -0.354 -0.728 -0.608 -0.316 -0.69 -0.575 -0.44 -0.688 -0.573 -0.445 -0.206 -0.319 -0.925 -0.129 -0.273 -0.953 0.626 0.227 -0.746 0.656 0.248 -0.713 0.795 0.353 -0.494 0.747 0.492 -0.448 0.715 0.403 -0.571 0.712 0.395 -0.581 0.226 0.005 -0.974 0.08 -0.081 -0.993 -0.633 -0.4 -0.663 -0.68 -0.406 -0.611 -0.805 -0.412 -0.427 0.932 0.084 -0.353 0.875 0.067 -0.48 0.876 0.068 -0.478 0.257 -0.112 -0.96 0.306 -0.101 -0.947 -0.668 -0.26 -0.697 -0.649 -0.258 -0.716 -0.84 -0.268 -0.472 0.849 -0.497 -0.176 0.835 -0.49 -0.252 0.835 -0.49 -0.251 0.565 -0.394 -0.725 0.577 -0.399 -0.713 -0.383 0.074 -0.921 -0.357 0.059 -0.932 -0.746 0.299 -0.595 -0.877 -0.348 -0.331 -0.824 -0.364 -0.435 -0.825 -0.363 -0.433 -0.275 -0.249 -0.929 -0.328 -0.266 -0.907 0.639 0.158 -0.753 0.611 0.14 -0.779 0.82 0.287 -0.495 -0.727 0.524 -0.444 -0.677 0.504 -0.537 -0.675 0.503 -0.54 -0.303 0.154 -0.94 -0.245 0.098 -0.965 0.44 -0.537 -0.72 0.476 -0.572 -0.668 0.617 -0.698 -0.362 0.39 -0.888 -0.245 0.399 -0.83 -0.388 0.399 -0.835 -0.379 0.08 -0.275 -0.958 0.157 -0.399 -0.903 -0.419 0.494 -0.762 -0.383 0.449 -0.807 -0.524 0.625 -0.579 -0.909 0.084 -0.408 -0.859 0.023 -0.512 -0.862 0.027 -0.506 -0.21 -0.106 -0.972 -0.355 -0.095 -0.93 0.738 -0.049 -0.673 0.67 -0.068 -0.739 0.9 0.012 -0.435 0.475 0.79 -0.389 0.424 0.776 -0.466 0.427 0.777 -0.462 0.243 0.372 -0.896 0.278 0.468 -0.839 -0.098 -0.672 -0.734 -0.053 -0.523 -0.851 -0.183 -0.911 -0.371 -0.26 -0.329 0.908 -0.318 -0.404 0.858 -0.318 -0.405 0.857 -0.318 -0.386 0.866 -0.299 -0.338 0.892 -0.238 -0.282 0.93 -0.16 -0.25 0.955 -0.125 -0.244 0.962 -0.154 -0.237 0.959 -0.215 -0.214 0.953 -0.274 -0.184 0.944 -0.298 -0.168 0.94 -0.278 -0.198 0.94 -0.245 -0.279 0.929 -0.237 -0.365 0.9 -0.254 -0.414 0.874 -0.267 -0.428 0.864 -0.265 -0.427 0.864 0.523 0.247 0.816 0.595 0.243 0.766 0.595 0.242 0.766 0.585 0.232 0.777 0.552 0.22 0.805 0.494 0.226 0.84 0.438 0.252 0.863 0.415 0.269 0.869 0.424 0.253 0.869 0.443 0.215 0.87 0.457 0.175 0.872 0.462 0.158 0.873 0.466 0.185 0.865 0.487 0.242 0.839 0.524 0.286 0.802 0.557 0.299 0.775 0.571 0.299 0.764 0.572 0.299 0.764 -0.641 0.26 0.722 -0.682 0.323 0.656 -0.682 0.324 0.656 -0.668 0.322 0.671 -0.639 0.302 0.708 -0.608 0.249 0.753 -0.594 0.185 0.783 -0.592 0.154 0.791 -0.586 0.172 0.792 -0.568 0.215 0.795 -0.544 0.255 0.8 -0.533 0.27 0.802 -0.558 0.255 0.79 -0.616 0.235 0.752 -0.673 0.236 0.701 -0.703 0.254 0.665 -0.711 0.267 0.65 0.005 -0.256 0.967 0.046 -0.367 0.929 0.05 -0.368 0.929 0.032 -0.354 0.935 -0.005 -0.296 0.955 -0.016 -0.182 0.983 0.016 -0.071 0.997 0.037 -0.032 0.999 -0 -0.063 0.998 -0.082 -0.118 0.99 -0.167 -0.164 0.972 -0.211 -0.182 0.96 -0.167 -0.182 0.969 -0.054 -0.205 0.977 0.047 -0.265 0.963 0.085 -0.322 0.943 0.09 -0.343 0.935 0.092 -0.339 0.936 -0.08 0.148 0.986 -0.018 0.236 0.972 -0.019 0.237 0.971 -0.019 0.216 0.976 -0.039 0.163 0.986 -0.099 0.097 0.99 -0.174 0.056 0.983 -0.208 0.046 0.977 -0.181 0.042 0.983 -0.121 0.026 0.992 -0.063 0.003 0.998 -0.038 -0.01 0.999 -0.06 0.018 0.998 -0.096 0.096 0.991 -0.104 0.184 0.977 -0.086 0.238 0.967 -0.073 0.255 0.964 -0.074 0.254 0.964</float_array><technique_common><accessor source="#weeds_-01-03_foliage-nrm-a" count="752" stride="3"><param name="X" type="float"/><param name="Y" type="float"/><param name="Z" type="float"/></accessor></technique_common></source>
        <vertices id="weeds_-01-03_foliage-vtx"><input semantic="POSITION" source="#weeds_-01-03_foliage-pos"/></vertices>
        <triangles count="576" material="MAT_WEED_GRASS-mat"><input semantic="VERTEX" source="#weeds_-01-03_foliage-vtx" offset="0"/><input semantic="NORMAL" source="#weeds_-01-03_foliage-nrm" offset="1"/><p>0 0 1 0 2 1 0 0 2 1 3 2 3 2 2 1 4 3 3 2 4 3 5 4 5 4 4 3 6 5 5 4 6 5 7 6 7 6 6 5 8 7 7 6 8 7 9 7 10 8 11 8 12 9 10 8 12 9 13 10 13 10 12 9 14 11 13 10 14 11 15 12 15 12 14 11 16 13 15 12 16 13 17 14 17 14 16 13 18 15 17 14 18 15 19 15 20 16 21 16 22 17 20 16 22 17 23 18 23 18 22 17 24 19 23 18 24 19 25 20 25 20 24 19 26 21 25 20 26 21 27 22 27 22 26 21 28 23 27 22 28 23 29 23 30 24 31 24 32 25 30 24 32 25 33 26 33 26 32 25 34 27 33 26 34 27 35 28 35 28 34 27 36 29 35 28 36 29 37 30 37 30 36 29 38 31 37 30 38 31 39 31 40 32 41 32 42 33 40 32 42 33 43 34 43 34 42 33 44 35 43 34 44 35 45 36 45 36 44 35 46 37 45 36 46 37 47 38 47 38 46 37 48 39 47 38 48 39 49 39 50 40 51 40 52 41 50 40 52 41 53 42 53 42 52 41 54 43 53 42 54 43 55 44 55 44 54 43 56 45 55 44 56 45 57 46 57 46 56 45 58 47 57 46 58 47 59 47 60 48 61 48 62 49 60 48 62 49 63 50 63 50 62 49 64 51 63 50 64 51 65 52 65 52 64 51 66 53 65 52 66 53 67 54 67 54 66 53 68 55 67 54 68 55 69 55 70 56 71 56 72 57 70 56 72 57 73 58 73 58 72 57 74 59 73 58 74 59 75 60 75 60 74 59 76 61 75 60 76 61 77 62 77 62 76 61 78 63 77 62 78 63 79 63 80 64 81 64 82 65 80 64 82 65 83 66 83 66 82 65 84 67 83 66 84 67 85 68 85 68 84 67 86 69 85 68 86 69 87 70 87 70 86 69 88 71 87 70 88 71 89 71 90 72 91 72 92 73 90 72 92 73 93 74 93 74 92 73 94 75 93 74 94 75 95 76 95 76 94 75 96 77 95 76 96 77 97 78 97 78 96 77 98 79 97 78 98 79 99 79 100 80 101 80 102 81 100 80 102 81 103 82 103 82 102 81 104 83 103 82 104 83 105 84 105 84 104 83 106 85 105 84 106 85 107 86 107 86 106 85 108 87 107 86 108 87 109 87 110 88 111 88 112 89 110 88 112 89 113 90 113 90 112 89 114 91 113 90 114 91 115 92 115 92 114 91 116 93 115 92 116 93 117 94 117 94 116 93 118 95 117 94 118 95 119 95 120 96 121 96 122 97 120 96 122 97 123 98 123 98 122 97 124 99 123 98 124 99 125 100 125 100 124 99 126 101 125 100 126 101 127 102 127 102 126 101 128 103 127 102 128 103 129 103 130 104 131 104 132 105 130 104 132 105 133 106 133 106 132 105 134 107 133 106 134 107 135 108 135 108 134 107 136 109 135 108 136 109 137 110 137 110 136 109 138 111 137 110 138 111 139 111 140 112 141 112 142 113 140 112 142 113 143 113 143 113 142 113 144 114 143 113 144 114 145 115 145 115 144 114 146 116 145 115 146 116 147 117 147 117 146 116 148 118 147 117 148 118 149 118 150 119 151 119 152 120 150 119 152 120 153 121 153 121 152 120 154 122 153 121 154 122 155 123 155 123 154 122 156 124 155 123 156 124 157 125 157 125 156 124 158 126 157 125 158 126 159 126 160 127 161 127 162 128 160 127 162 128 163 129 163 129 162 128 164 130 163 129 164 130 165 131 165 131 164 130 166 132 165 131 166 132 167 133 167 133 166 132 168 134 167 133 168 134 169 134 170 135 171 135 172 136 170 135 172 136 173 137 173 137 172 136 174 138 173 137 174 138 175 139 175 139 174 138 176 140 175 139 176 140 177 141 177 141 176 140 178 142 177 141 178 142 179 142 180 143 181 143 182 144 180 143 182 144 183 145 183 145 182 144 184 146 183 145 184 146 185 147 185 147 184 146 186 148 185 147 186 148 187 149 187 149 186 148 188 150 187 149 188 150 189 150 190 151 191 151 192 152 190 151 192 152 193 153 193 153 192 152 194 154 193 153 194 154 195 155 195 155 194 154 196 156 195 155 196 156 197 157 197 157 196 156 198 158 197 157 198 158 199 158 200 159 201 159 202 160 200 159 202 160 203 161 203 161 202 160 204 162 203 161 204 162 205 163 205 163 204 162 206 164 205 163 206 164 207 165 207 165 206 164 208 166 207 165 208 166 209 166 210 167 211 167 212 168 210 167 212 168 213 169 213 169 212 168 214 170 213 169 214 170 215 171 215 171 214 170 216 172 215 171 216 172 217 173 217 173 216 172 218 174 217 173 218 174 219 174 220 175 221 175 222 176 220 175 222 176 223 177 223 177 222 176 224 178 223 177 224 178 225 179 225 179 224 178 226 180 225 179 226 180 227 181 227 181 226 180 228 182 227 181 228 182 229 182 230 183 231 183 232 184 230 183 232 184 233 185 233 185 232 184 234 186 233 185 234 186 235 187 235 187 234 186 236 188 235 187 236 188 237 189 237 189 236 188 238 190 237 189 238 190 239 190 240 191 241 191 242 192 240 191 242 192 243 193 243 193 242 192 244 194 243 193 244 194 245 195 245 195 244 194 246 196 245 195 246 196 247 197 247 197 246 196 248 198 247 197 248 198 249 198 250 199 251 199 252 200 250 199 252 200 253 201 253 201 252 200 254 202 253 201 254 202 255 203 255 203 254 202 256 204 255 203 256 204 257 205 257 205 256 204 258 206 257 205 258 206 259 206 260 207 261 207 262 208 260 207 262 208 263 209 263 209 262 208 264 210 263 209 264 210 265 211 265 211 264 210 266 212 265 211 266 212 267 213 267 213 266 212 268 214 267 213 268 214 269 214 270 215 271 215 272 216 270 215 272 216 273 217 273 217 272 216 274 218 273 217 274 218 275 219 275 219 274 218 276 220 275 219 276 220 277 221 277 221 276 220 278 222 277 221 278 222 279 222 280 223 281 223 282 224 280 223 282 224 283 225 283 225 282 224 284 226 283 225 284 226 285 227 285 227 284 226 286 228 285 227 286 228 287 229 287 229 286 228 288 230 287 229 288 230 289 230 290 231 291 231 292 232 290 231 292 232 293 233 293 233 292 232 294 234 293 233 294 234 295 235 295 235 294 234 296 236 295 235 296 236 297 237 297 237 296 236 298 238 297 237 298 238 299 238 300 239 301 239 302 240 300 239 302 240 303 241 303 241 302 240 304 242 303 241 304 242 305 243 305 243 304 242 306 244 305 243 306 244 307 245 307 245 306 244 308 246 307 245 308 246 309 246 310 247 311 247 312 248 310 247 312 248 313 249 313 249 312 248 314 250 313 249 314 250 315 251 315 251 314 250 316 252 315 251 316 252 317 253 317 253 316 252 318 254 317 253 318 254 319 254 320 255 321 255 322 256 320 255 322 256 323 257 323 257 322 256 324 258 323 257 324 258 325 259 325 259 324 258 326 260 325 259 326 260 327 261 327 261 326 260 328 262 327 261 328 262 329 262 330 263 331 263 332 264 330 263 332 264 333 265 333 265 332 264 334 266 333 265 334 266 335 267 335 267 334 266 336 268 335 267 336 268 337 269 337 269 336 268 338 270 337 269 338 270 339 270 340 271 341 271 342 272 340 271 342 272 343 273 343 273 342 272 344 274 343 273 344 274 345 275 345 275 344 274 346 276 345 275 346 276 347 277 347 277 346 276 348 278 347 277 348 278 349 278 350 279 351 279 352 280 350 279 352 280 353 281 353 281 352 280 354 282 353 281 354 282 355 283 355 283 354 282 356 284 355 283 356 284 357 285 357 285 356 284 358 286 357 285 358 286 359 286 0 376 2 377 1 376 0 376 3 378 2 377 3 378 4 379 2 377 3 378 5 380 4 379 5 380 6 381 4 379 5 380 7 382 6 381 7 382 8 383 6 381 7 382 9 383 8 383 10 384 12 385 11 384 10 384 13 386 12 385 13 386 14 387 12 385 13 386 15 388 14 387 15 388 16 389 14 387 15 388 17 390 16 389 17 390 18 391 16 389 17 390 19 391 18 391 20 392 22 393 21 392 20 392 23 394 22 393 23 394 24 395 22 393 23 394 25 396 24 395 25 396 26 397 24 395 25 396 27 398 26 397 27 398 28 399 26 397 27 398 29 399 28 399 30 400 32 401 31 400 30 400 33 402 32 401 33 402 34 403 32 401 33 402 35 404 34 403 35 404 36 405 34 403 35 404 37 406 36 405 37 406 38 407 36 405 37 406 39 407 38 407 40 408 42 409 41 408 40 408 43 410 42 409 43 410 44 411 42 409 43 410 45 412 44 411 45 412 46 413 44 411 45 412 47 414 46 413 47 414 48 415 46 413 47 414 49 415 48 415 50 416 52 417 51 416 50 416 53 418 52 417 53 418 54 419 52 417 53 418 55 420 54 419 55 420 56 421 54 419 55 420 57 422 56 421 57 422 58 423 56 421 57 422 59 423 58 423 60 424 62 425 61 424 60 424 63 426 62 425 63 426 64 427 62 425 63 426 65 428 64 427 65 428 66 429 64 427 65 428 67 430 66 429 67 430 68 431 66 429 67 430 69 431 68 431 70 432 72 433 71 432 70 432 73 434 72 433 73 434 74 435 72 433 73 434 75 436 74 435 75 436 76 437 74 435 75 436 77 438 76 437 77 438 78 439 76 437 77 438 79 439 78 439 80 440 82 441 81 440 80 440 83 442 82 441 83 442 84 443 82 441 83 442 85 444 84 443 85 444 86 445 84 443 85 444 87 446 86 445 87 446 88 447 86 445 87 446 89 447 88 447 90 448 92 449 91 448 90 448 93 450 92 449 93 450 94 451 92 449 93 450 95 452 94 451 95 452 96 453 94 451 95 452 97 454 96 453 97 454 98 455 96 453 97 454 99 455 98 455 100 456 102 457 101 456 100 456 103 458 102 457 103 458 104 459 102 457 103 458 105 460 104 459 105 460 106 461 104 459 105 460 107 462 106 461 107 462 108 463 106 461 107 462 109 463 108 463 110 464 112 465 111 464 110 464 113 466 112 465 113 466 114 467 112 465 113 466 115 468 114 467 115 468 116 469 114 467 115 468 117 470 116 469 117 470 118 471 116 469 117 470 119 471 118 471 120 472 122 473 121 472 120 472 123 474 122 473 123 474 124 475 122 473 123 474 125 476 124 475 125 476 126 477 124 475 125 476 127 478 126 477 127 478 128 479 126 477 127 478 129 479 128 479 130 480 132 481 131 480 130 480 133 482 132 481 133 482 134 483 132 481 133 482 135 484 134 483 135 484 136 485 134 483 135 484 137 486 136 485 137 486 138 487 136 485 137 486 139 487 138 487 140 488 142 489 141 488 140 488 143 489 142 489 143 489 144 490 142 489 143 489 145 491 144 490 145 491 146 492 144 490 145 491 147 493 146 492 147 493 148 494 146 492 147 493 149 494 148 494 150 495 152 496 151 495 150 495 153 497 152 496 153 497 154 498 152 496 153 497 155 499 154 498 155 499 156 500 154 498 155 499 157 501 156 500 157 501 158 502 156 500 157 501 159 502 158 502 160 503 162 504 161 503 160 503 163 505 162 504 163 505 164 506 162 504 163 505 165 507 164 506 165 507 166 508 164 506 165 507 167 509 166 508 167 509 168 510 166 508 167 509 169 510 168 510 170 511 172 512 171 511 170 511 173 513 172 512 173 513 174 514 172 512 173 513 175 515 174 514 175 515 176 516 174 514 175 515 177 517 176 516 177 517 178 518 176 516 177 517 179 518 178 518 180 519 182 520 181 519 180 519 183 521 182 520 183 521 184 522 182 520 183 521 185 523 184 522 185 523 186 524 184 522 185 523 187 525 186 524 187 525 188 526 186 524 187 525 189 526 188 526 190 527 192 528 191 527 190 527 193 529 192 528 193 529 194 530 192 528 193 529 195 531 194 530 195 531 196 532 194 530 195 531 197 533 196 532 197 533 198 534 196 532 197 533 199 534 198 534 200 535 202 536 201 535 200 535 203 537 202 536 203 537 204 538 202 536 203 537 205 539 204 538 205 539 206 540 204 538 205 539 207 541 206 540 207 541 208 542 206 540 207 541 209 542 208 542 210 543 212 544 211 543 210 543 213 545 212 544 213 545 214 546 212 544 213 545 215 547 214 546 215 547 216 548 214 546 215 547 217 549 216 548 217 549 218 550 216 548 217 549 219 550 218 550 220 551 222 552 221 551 220 551 223 553 222 552 223 553 224 554 222 552 223 553 225 555 224 554 225 555 226 556 224 554 225 555 227 557 226 556 227 557 228 558 226 556 227 557 229 558 228 558 230 559 232 560 231 559 230 559 233 561 232 560 233 561 234 562 232 560 233 561 235 563 234 562 235 563 236 564 234 562 235 563 237 565 236 564 237 565 238 566 236 564 237 565 239 566 238 566 240 567 242 568 241 567 240 567 243 569 242 568 243 569 244 570 242 568 243 569 245 571 244 570 245 571 246 572 244 570 245 571 247 573 246 572 247 573 248 574 246 572 247 573 249 574 248 574 250 575 252 576 251 575 250 575 253 577 252 576 253 577 254 578 252 576 253 577 255 579 254 578 255 579 256 580 254 578 255 579 257 581 256 580 257 581 258 582 256 580 257 581 259 582 258 582 260 583 262 584 261 583 260 583 263 585 262 584 263 585 264 586 262 584 263 585 265 587 264 586 265 587 266 588 264 586 265 587 267 589 266 588 267 589 268 590 266 588 267 589 269 590 268 590 270 591 272 592 271 591 270 591 273 593 272 592 273 593 274 594 272 592 273 593 275 595 274 594 275 595 276 596 274 594 275 595 277 597 276 596 277 597 278 598 276 596 277 597 279 598 278 598 280 599 282 600 281 599 280 599 283 601 282 600 283 601 284 602 282 600 283 601 285 603 284 602 285 603 286 604 284 602 285 603 287 605 286 604 287 605 288 606 286 604 287 605 289 606 288 606 290 607 292 608 291 607 290 607 293 609 292 608 293 609 294 610 292 608 293 609 295 611 294 610 295 611 296 612 294 610 295 611 297 613 296 612 297 613 298 614 296 612 297 613 299 614 298 614 300 615 302 616 301 615 300 615 303 617 302 616 303 617 304 618 302 616 303 617 305 619 304 618 305 619 306 620 304 618 305 619 307 621 306 620 307 621 308 622 306 620 307 621 309 622 308 622 310 623 312 624 311 623 310 623 313 625 312 624 313 625 314 626 312 624 313 625 315 627 314 626 315 627 316 628 314 626 315 627 317 629 316 628 317 629 318 630 316 628 317 629 319 630 318 630 320 631 322 632 321 631 320 631 323 633 322 632 323 633 324 634 322 632 323 633 325 635 324 634 325 635 326 636 324 634 325 635 327 637 326 636 327 637 328 638 326 636 327 637 329 638 328 638 330 639 332 640 331 639 330 639 333 641 332 640 333 641 334 642 332 640 333 641 335 643 334 642 335 643 336 644 334 642 335 643 337 645 336 644 337 645 338 646 336 644 337 645 339 646 338 646 340 647 342 648 341 647 340 647 343 649 342 648 343 649 344 650 342 648 343 649 345 651 344 650 345 651 346 652 344 650 345 651 347 653 346 652 347 653 348 654 346 652 347 653 349 654 348 654 350 655 352 656 351 655 350 655 353 657 352 656 353 657 354 658 352 656 353 657 355 659 354 658 355 659 356 660 354 658 355 659 357 661 356 660 357 661 358 662 356 660 357 661 359 662 358 662</p></triangles>
        <triangles count="160" material="MAT_WEED_BROAD-mat"><input semantic="VERTEX" source="#weeds_-01-03_foliage-vtx" offset="0"/><input semantic="NORMAL" source="#weeds_-01-03_foliage-nrm" offset="1"/><p>360 287 361 288 362 289 360 287 362 289 363 290 360 287 363 290 364 291 360 287 364 291 365 292 360 287 365 292 366 293 360 287 366 293 367 294 360 287 367 294 368 295 360 287 368 295 369 296 360 287 369 296 370 297 360 287 370 297 371 298 360 287 371 298 372 299 360 287 372 299 373 300 360 287 373 300 374 301 360 287 374 301 375 302 360 287 375 302 376 303 360 287 376 303 377 304 378 305 379 306 380 307 378 305 380 307 381 308 378 305 381 308 382 309 378 305 382 309 383 310 378 305 383 310 384 311 378 305 384 311 385 312 378 305 385 312 386 313 378 305 386 313 387 314 378 305 387 314 388 315 378 305 388 315 389 316 378 305 389 316 390 317 378 305 390 317 391 318 378 305 391 318 392 319 378 305 392 319 393 320 378 305 393 320 394 321 378 305 394 321 395 322 396 323 397 324 398 325 396 323 398 325 399 326 396 323 399 326 400 327 396 323 400 327 401 328 396 323 401 328 402 329 396 323 402 329 403 330 396 323 403 330 404 331 396 323 404 331 405 332 396 323 405 332 406 333 396 323 406 333 407 334 396 323 407 334 408 335 396 323 408 335 409 336 396 323 409 336 410 337 396 323 410 337 411 338 396 323 411 338 412 339 396 323 412 339 413 339 414 340 415 341 416 342 414 340 416 342 417 343 414 340 417 343 418 344 414 340 418 344 419 345 414 340 419 345 420 346 414 340 420 346 421 347 414 340 421 347 422 348 414 340 422 348 423 349 414 340 423 349 424 350 414 340 424 350 425 351 414 340 425 351 426 352 414 340 426 352 427 353 414 340 427 353 428 354 414 340 428 354 429 355 414 340 429 355 430 356 414 340 430 356 431 357 432 358 433 359 434 360 432 358 434 360 435 361 432 358 435 361 436 362 432 358 436 362 437 363 432 358 437 363 438 364 432 358 438 364 439 365 432 358 439 365 440 366 432 358 440 366 441 367 432 358 441 367 442 368 432 358 442 368 443 369 432 358 443 369 444 370 432 358 444 370 445 371 432 358 445 371 446 372 432 358 446 372 447 373 432 358 447 373 448 374 432 358 448 374 449 375 360 663 362 665 361 664 360 663 363 666 362 665 360 663 364 667 363 666 360 663 365 668 364 667 360 663 366 669 365 668 360 663 367 670 366 669 360 663 368 671 367 670 360 663 369 672 368 671 360 663 370 673 369 672 360 663 371 674 370 673 360 663 372 675 371 674 360 663 373 676 372 675 360 663 374 677 373 676 360 663 375 678 374 677 360 663 376 679 375 678 360 663 377 680 376 679 378 681 380 683 379 682 378 681 381 684 380 683 378 681 382 685 381 684 378 681 383 686 382 685 378 681 384 687 383 686 378 681 385 688 384 687 378 681 386 689 385 688 378 681 387 690 386 689 378 681 388 691 387 690 378 681 389 692 388 691 378 681 390 693 389 692 378 681 391 694 390 693 378 681 392 695 391 694 378 681 393 696 392 695 378 681 394 697 393 696 378 681 395 698 394 697 396 699 398 701 397 700 396 699 399 702 398 701 396 699 400 703 399 702 396 699 401 704 400 703 396 699 402 705 401 704 396 699 403 706 402 705 396 699 404 707 403 706 396 699 405 708 404 707 396 699 406 709 405 708 396 699 407 710 406 709 396 699 408 711 407 710 396 699 409 712 408 711 396 699 410 713 409 712 396 699 411 714 410 713 396 699 412 715 411 714 396 699 413 715 412 715 414 716 416 718 415 717 414 716 417 719 416 718 414 716 418 720 417 719 414 716 419 721 418 720 414 716 420 722 419 721 414 716 421 723 420 722 414 716 422 724 421 723 414 716 423 725 422 724 414 716 424 726 423 725 414 716 425 727 424 726 414 716 426 728 425 727 414 716 427 729 426 728 414 716 428 730 427 729 414 716 429 731 428 730 414 716 430 732 429 731 414 716 431 733 430 732 432 734 434 736 433 735 432 734 435 737 434 736 432 734 436 738 435 737 432 734 437 739 436 738 432 734 438 740 437 739 432 734 439 741 438 740 432 734 440 742 439 741 432 734 441 743 440 742 432 734 442 744 441 743 432 734 443 745 442 744 432 734 444 746 443 745 432 734 445 747 444 746 432 734 446 748 445 747 432 734 447 749 446 748 432 734 448 750 447 749 432 734 449 751 448 750</p></triangles>
      </mesh>
    </geometry>
  </library_geometries>
  <library_visual_scenes><visual_scene id="scene" name="scene">
    <node id="weeds_-01-03_foliage" name="weeds_-01-03_foliage" type="NODE"><instance_geometry url="#weeds_-01-03_foliage-mesh"><bind_material><technique_common>
      <instance_material symbol="MAT_WEED_GRASS-mat" target="#MAT_WEED_GRASS"/>
      <instance_material symbol="MAT_WEED_BROAD-mat" target="#MAT_WEED_BROAD"/>
    </technique_common></bind_material></instance_geometry></node>
  </visual_scene></library_visual_scenes>
  <scene><instance_visual_scene url="#scene"/></scene>
<!-- vigil:double-sided -->
</COLLADA>
