<?xml version="1.0" encoding="utf-8"?>
<COLLADA xmlns="http://www.collada.org/2005/11/COLLADASchema" version="1.4.1">
  <asset>
    <contributor><authoring_tool>VIGIL SIH26126 farm generator</authoring_tool></contributor>
    <unit name="meter" meter="1"/>
    <up_axis>Z_UP</up_axis>
  </asset>
  <library_effects>
    <effect id="MAT_WEED_GRASS-fx"><profile_COMMON><technique sid="c"><lambert><diffuse><color>0.0980 0.1280 0.0300 1</color></diffuse></lambert></technique></profile_COMMON></effect>
    <effect id="MAT_WEED_BROAD-fx"><profile_COMMON><technique sid="c"><lambert><diffuse><color>0.0720 0.1520 0.0340 1</color></diffuse></lambert></technique></profile_COMMON></effect>
  </library_effects>
  <library_materials>
    <material id="MAT_WEED_GRASS" name="MAT_WEED_GRASS"><instance_effect url="#MAT_WEED_GRASS-fx"/></material>
    <material id="MAT_WEED_BROAD" name="MAT_WEED_BROAD"><instance_effect url="#MAT_WEED_BROAD-fx"/></material>
  </library_materials>
  <library_geometries>
    <geometry id="weeds_-02-03_foliage-mesh" name="weeds_-02-03_foliage">
      <mesh>
        <source id="weeds_-02-03_foliage-pos"><float_array id="weeds_-02-03_foliage-pos-a" count="450">0.0013599 -0.0034733 -0.08203 -0.0013599 0.0034733 -0.082923 -0.024731 0.0030422 -0.0068728 -0.022913 -0.0030861 -0.0060636 -0.049374 -0.0025291 0.036031 -0.048433 -0.0070724 0.036646 -0.076015 -0.015459 0.029362 -0.07572 -0.01792 0.029704 -0.10434 -0.034266 -0.016968 -0.10434 -0.034266 -0.016968 0.0030079 -0.0038757 -0.082035 -0.0030079 0.0038757 -0.082918 -0.022959 -0.0036106 -0.0024051 -0.018326 -0.01062 -0.0015765 -0.044077 -0.01652 0.043618 -0.041113 -0.021843 0.044268 -0.06719 -0.037178 0.037993 -0.065828 -0.040133 0.038364 -0.091999 -0.064081 -0.0091248 -0.091999 -0.064081 -0.0091248 -0.0009594 0.0039654 -0.083008 0.0009594 -0.0039654 -0.081945 0.025724 0.012409 -0.012211 0.02478 0.019339 -0.013168 0.049526 0.025187 0.029379 0.049355 0.03026 0.028659 0.071899 0.032032 0.02775 0.072081 0.03474 0.027355 0.093109 0.033648 -0.011619 0.093109 0.033648 -0.011619 0.0054169 0.0024357 -0.083031 -0.0054169 -0.0024357 -0.081922 0.015966 -0.024393 0.026986 0.024712 -0.01919 0.025909 0.035952 -0.052588 0.088553 0.041822 -0.048119 0.08769 0.053337 -0.090389 0.079475 0.056177 -0.087664 0.078977 0.068489 -0.13577 0.013973 0.068489 -0.13577 0.013973 0.0020008 0.0026779 -0.082936 -0.0020008 -0.0026779 -0.082017 0.021992 -0.0056686 0.00095387 0.025555 -0.0011826 0.00017588 0.045012 -0.012953 0.052402 0.047691 -0.0097752 0.051845 0.066347 -0.027094 0.055216 0.067827 -0.02544 0.054923 0.086191 -0.047327 0.015051 0.086191 -0.047327 0.015051 0.0016193 -0.0024033 -0.082193 -0.0016193 0.0024033 -0.082759 -0.018343 -0.0008564 -0.0080665 -0.01515 -0.0046577 -0.0076431 -0.035864 -0.0083237 0.038325 -0.033268 -0.01082 0.038584 -0.054798 -0.022034 0.041178 -0.053278 -0.023212 0.041289 -0.074951 -0.041121 0.0060083 -0.074951 -0.041121 0.0060083 -0.0043316 0.00041389 -0.082371 0.0043316 -0.00041389 -0.082581 0.010979 0.046688 0.009092 0.0036526 0.048002 0.0091815 0.015707 0.088221 0.060439 0.010496 0.089609 0.060438 0.01792 0.12123 0.050562 0.015213 0.1222 0.050526 0.01808 0.14714 -0.010806 0.01808 0.14714 -0.010806 0.0041637 -0.0028591 -0.082225 -0.0041637 0.0028591 -0.082728 -0.026123 -0.020872 0.02197 -0.019066 -0.025877 0.022419 -0.049669 -0.052259 0.075316 -0.044607 -0.055964 0.075655 -0.075855 -0.094551 0.053923 -0.073183 -0.096569 0.054111 -0.10397 -0.14483 -0.022025 -0.10397 -0.14483 -0.022025 0.0021381 -0.0025234 -0.082196 -0.0021381 0.0025234 -0.082757 -0.026478 -0.0086575 0.010395 -0.022894 -0.013042 0.010888 -0.052235 -0.026104 0.061595 -0.049694 -0.029329 0.061961 -0.080265 -0.052618 0.050636 -0.078938 -0.054363 0.050836 -0.11007 -0.086187 -0.0086123 -0.11007 -0.086187 -0.0086123 -0.00086975 -0.0044212 -0.08181 0.00086975 0.0044212 -0.083143 -0.023821 0.018391 -0.015151 -0.02619 0.011032 -0.014007 -0.050068 0.027357 0.020668 -0.052401 0.022249 0.021488 -0.078493 0.029346 0.0088413 -0.08005 0.026779 0.0092682 -0.10871 0.026039 -0.039831 -0.10871 0.026039 -0.039831 0.0023518 -0.0035057 -0.082063 -0.0023518 0.0035057 -0.08289 -0.035028 -0.0078564 0.017155 -0.030672 -0.01363 0.017817 -0.06926 -0.026535 0.068023 -0.065872 -0.03054 0.068468 -0.10596 -0.05559 0.047181 -0.10404 -0.057625 0.047399 -0.14444 -0.092226 -0.026348 -0.14444 -0.092226 -0.026348 0.0055828 -0.00063324 -0.082597 -0.0055828 0.00063324 -0.082355 -0.005537 -0.021549 0.027551 0.0040436 -0.022476 0.02732 -0.0066547 -0.0501 0.093092 0.00030518 -0.050657 0.092908 -0.010008 -0.08824 0.091529 -0.0062885 -0.088476 0.091421 -0.015238 -0.13433 0.034136 -0.015238 -0.13433 0.034136 -0.0035248 0.0023003 -0.082672 0.0035248 -0.0023003 -0.082281 0.022829 0.035051 -0.0013656 0.01651 0.038536 -0.0016251 0.040382 0.067448 0.044311 0.03562 0.06963 0.044179 0.055613 0.092115 0.036413 0.052988 0.09309 0.036373 0.068882 0.11018 -0.016763 0.068882 0.11018 -0.016763 0.00023651 -0.0045242 -0.081837 -0.00023651 0.0045242 -0.083116 -0.027712 0.014881 0.0091135 -0.026781 0.0071831 0.010181 -0.056416 0.019545 0.064554 -0.055363 0.014023 0.065305 -0.087048 0.015926 0.063771 -0.086287 0.013027 0.064158 -0.11927 0.0052757 0.01489 -0.11927 0.0052757 0.01489 0.0024681 -0.0034466 -0.082076 -0.0024681 0.0034466 -0.082877 -0.018452 8.7738e-05 -0.0046949 -0.014223 -0.0058155 -0.0040095 -0.035297 -0.0077057 0.044786 -0.03223 -0.011986 0.045283 -0.053698 -0.022062 0.049798 -0.052059 -0.024345 0.050063 -0.073496 -0.042238 0.015207 -0.073496 -0.042238 0.015207</float_array><technique_common><accessor source="#weeds_-02-03_foliage-pos-a" count="150" stride="3"><param name="X" type="float"/><param name="Y" type="float"/><param name="Z" type="float"/></accessor></technique_common></source>
        <source id="weeds_-02-03_foliage-nrm"><float_array id="weeds_-02-03_foliage-nrm-a" count="708">0.895 0.347 0.281 0.863 0.317 0.393 0.861 0.315 0.399 0.417 0.239 0.877 0.305 0.219 0.927 -0.57 0.035 0.821 -0.641 0.021 0.767 -0.848 -0.028 0.53 0.771 0.585 0.25 0.753 0.549 0.361 0.752 0.547 0.367 0.372 0.346 0.861 0.285 0.301 0.91 -0.509 -0.138 0.849 -0.57 -0.17 0.804 -0.772 -0.285 0.569 -0.923 -0.128 0.363 -0.899 -0.072 0.433 -0.897 -0.069 0.436 -0.563 0.063 0.824 -0.464 0.081 0.882 0.455 0.098 0.885 0.599 0.076 0.797 0.88 0.01 0.475 -0.42 0.871 0.253 -0.433 0.821 0.373 -0.432 0.825 0.365 -0.088 0.362 0.928 -0.187 0.487 0.853 0.507 -0.405 0.761 0.441 -0.329 0.835 0.632 -0.561 0.535 -0.749 0.617 0.24 -0.717 0.621 0.316 -0.716 0.621 0.317 -0.426 0.482 0.766 -0.404 0.468 0.786 0.366 -0.166 0.916 0.4 -0.201 0.894 0.659 -0.489 0.572 0.775 0.601 0.196 0.724 0.631 0.277 0.727 0.63 0.273 0.394 0.45 0.802 0.466 0.507 0.725 -0.321 -0.33 0.888 -0.224 -0.199 0.954 -0.51 -0.599 0.617 -0.109 -0.879 0.463 -0.134 -0.826 0.548 -0.135 -0.823 0.552 -0.066 -0.364 0.929 -0.043 -0.264 0.964 0.2 0.604 0.771 0.231 0.683 0.693 0.308 0.876 0.371 0.535 0.793 0.292 0.498 0.744 0.445 0.497 0.744 0.447 0.124 0.267 0.956 0.11 0.248 0.962 -0.405 -0.467 0.786 -0.409 -0.474 0.78 -0.509 -0.619 0.598 0.726 0.635 0.266 0.689 0.609 0.392 0.688 0.609 0.394 0.255 0.313 0.915 0.235 0.298 0.925 -0.497 -0.287 0.819 -0.507 -0.295 0.81 -0.674 -0.444 0.591 0.911 -0.174 0.373 0.851 -0.184 0.492 0.845 -0.185 0.502 0.38 0.028 0.925 0.215 0.105 0.971 -0.54 0.425 0.727 -0.606 0.459 0.649 -0.741 0.52 0.425 0.758 0.573 0.311 0.686 0.564 0.46 0.689 0.564 0.454 0.135 0.194 0.972 0.202 0.247 0.948 -0.515 -0.392 0.762 -0.495 -0.369 0.787 -0.62 -0.523 0.585 0.108 0.975 0.196 0.1 0.949 0.298 0.1 0.95 0.297 0.071 0.543 0.837 0.073 0.562 0.824 -0.005 -0.462 0.887 -0.003 -0.442 0.897 -0.031 -0.778 0.628 -0.476 -0.751 0.457 -0.427 -0.722 0.545 -0.429 -0.723 0.541 -0.163 -0.242 0.957 -0.203 -0.322 0.925 0.24 0.665 0.707 0.212 0.592 0.777 0.318 0.871 0.375 0.956 0.118 0.269 0.922 0.156 0.354 0.923 0.154 0.351 0.488 0.187 0.853 0.558 0.192 0.807 -0.525 -0.022 0.851 -0.44 0.007 0.898 -0.813 -0.138 0.566 0.788 0.586 0.186 0.769 0.582 0.265 0.508 0.449 0.735 -0.325 -0.124 0.938 -0.324 -0.124 0.938 -0.669 -0.408 0.621 -0.895 -0.347 -0.281 -0.863 -0.317 -0.393 -0.861 -0.315 -0.399 -0.417 -0.239 -0.877 -0.305 -0.219 -0.927 0.57 -0.035 -0.821 0.641 -0.021 -0.767 0.848 0.028 -0.53 -0.771 -0.585 -0.25 -0.753 -0.549 -0.361 -0.752 -0.547 -0.367 -0.372 -0.346 -0.861 -0.285 -0.301 -0.91 0.509 0.138 -0.849 0.57 0.17 -0.804 0.772 0.285 -0.569 0.923 0.128 -0.363 0.899 0.072 -0.433 0.897 0.069 -0.436 0.563 -0.063 -0.824 0.464 -0.081 -0.882 -0.455 -0.098 -0.885 -0.599 -0.076 -0.797 -0.88 -0.01 -0.475 0.42 -0.871 -0.253 0.433 -0.821 -0.373 0.432 -0.825 -0.365 0.088 -0.362 -0.928 0.187 -0.487 -0.853 -0.507 0.405 -0.761 -0.441 0.329 -0.835 -0.632 0.561 -0.535 0.749 -0.617 -0.24 0.717 -0.621 -0.316 0.716 -0.621 -0.317 0.426 -0.482 -0.766 0.404 -0.468 -0.786 -0.366 0.166 -0.916 -0.4 0.201 -0.894 -0.659 0.489 -0.572 -0.775 -0.601 -0.196 -0.724 -0.631 -0.277 -0.727 -0.63 -0.273 -0.394 -0.45 -0.802 -0.466 -0.507 -0.725 0.321 0.33 -0.888 0.224 0.199 -0.954 0.51 0.599 -0.617 0.109 0.879 -0.463 0.134 0.826 -0.548 0.135 0.823 -0.552 0.066 0.364 -0.929 0.043 0.264 -0.964 -0.2 -0.604 -0.771 -0.231 -0.683 -0.693 -0.308 -0.876 -0.371 -0.535 -0.793 -0.292 -0.498 -0.744 -0.445 -0.497 -0.744 -0.447 -0.124 -0.267 -0.956 -0.11 -0.248 -0.962 0.405 0.467 -0.786 0.409 0.474 -0.78 0.509 0.619 -0.598 -0.726 -0.635 -0.266 -0.689 -0.609 -0.392 -0.688 -0.609 -0.394 -0.255 -0.313 -0.915 -0.235 -0.298 -0.925 0.497 0.287 -0.819 0.507 0.295 -0.81 0.674 0.444 -0.591 -0.911 0.174 -0.373 -0.851 0.184 -0.492 -0.845 0.185 -0.502 -0.38 -0.028 -0.925 -0.215 -0.105 -0.971 0.54 -0.425 -0.727 0.606 -0.459 -0.649 0.741 -0.52 -0.425 -0.758 -0.573 -0.311 -0.686 -0.564 -0.46 -0.689 -0.564 -0.454 -0.135 -0.194 -0.972 -0.202 -0.247 -0.948 0.515 0.392 -0.762 0.495 0.369 -0.787 0.62 0.523 -0.585 -0.108 -0.975 -0.196 -0.1 -0.949 -0.298 -0.1 -0.95 -0.297 -0.071 -0.543 -0.837 -0.073 -0.562 -0.824 0.005 0.462 -0.887 0.003 0.442 -0.897 0.031 0.778 -0.628 0.476 0.751 -0.457 0.427 0.722 -0.545 0.429 0.723 -0.541 0.163 0.242 -0.957 0.203 0.322 -0.925 -0.24 -0.665 -0.707 -0.212 -0.592 -0.777 -0.318 -0.871 -0.375 -0.956 -0.118 -0.269 -0.922 -0.156 -0.354 -0.923 -0.154 -0.351 -0.488 -0.187 -0.853 -0.558 -0.192 -0.807 0.525 0.022 -0.851 0.44 -0.007 -0.898 0.813 0.138 -0.566 -0.788 -0.586 -0.186 -0.769 -0.582 -0.265 -0.508 -0.449 -0.735 0.325 0.124 -0.938 0.324 0.124 -0.938 0.669 0.408 -0.621</float_array><technique_common><accessor source="#weeds_-02-03_foliage-nrm-a" count="236" stride="3"><param name="X" type="float"/><param name="Y" type="float"/><param name="Z" type="float"/></accessor></technique_common></source>
        <vertices id="weeds_-02-03_foliage-vtx"><input semantic="POSITION" source="#weeds_-02-03_foliage-pos"/></vertices>
        <triangles count="240" material="MAT_WEED_GRASS-mat"><input semantic="VERTEX" source="#weeds_-02-03_foliage-vtx" offset="0"/><input semantic="NORMAL" source="#weeds_-02-03_foliage-nrm" offset="1"/><p>0 0 1 0 2 1 0 0 2 1 3 2 3 2 2 1 4 3 3 2 4 3 5 4 5 4 4 3 6 5 5 4 6 5 7 6 7 6 6 5 8 7 7 6 8 7 9 7 10 8 11 8 12 9 10 8 12 9 13 10 13 10 12 9 14 11 13 10 14 11 15 12 15 12 14 11 16 13 15 12 16 13 17 14 17 14 16 13 18 15 17 14 18 15 19 15 20 16 21 16 22 17 20 16 22 17 23 18 23 18 22 17 24 19 23 18 24 19 25 20 25 20 24 19 26 21 25 20 26 21 27 22 27 22 26 21 28 23 27 22 28 23 29 23 30 24 31 24 32 25 30 24 32 25 33 26 33 26 32 25 34 27 33 26 34 27 35 28 35 28 34 27 36 29 35 28 36 29 37 30 37 30 36 29 38 31 37 30 38 31 39 31 40 32 41 32 42 33 40 32 42 33 43 34 43 34 42 33 44 35 43 34 44 35 45 36 45 36 44 35 46 37 45 36 46 37 47 38 47 38 46 37 48 39 47 38 48 39 49 39 50 40 51 40 52 41 50 40 52 41 53 42 53 42 52 41 54 43 53 42 54 43 55 44 55 44 54 43 56 45 55 44 56 45 57 46 57 46 56 45 58 47 57 46 58 47 59 47 60 48 61 48 62 49 60 48 62 49 63 50 63 50 62 49 64 51 63 50 64 51 65 52 65 52 64 51 66 53 65 52 66 53 67 54 67 54 66 53 68 55 67 54 68 55 69 55 70 56 71 56 72 57 70 56 72 57 73 58 73 58 72 57 74 59 73 58 74 59 75 60 75 60 74 59 76 61 75 60 76 61 77 62 77 62 76 61 78 63 77 62 78 63 79 63 80 64 81 64 82 65 80 64 82 65 83 66 83 66 82 65 84 67 83 66 84 67 85 68 85 68 84 67 86 69 85 68 86 69 87 70 87 70 86 69 88 71 87 70 88 71 89 71 90 72 91 72 92 73 90 72 92 73 93 74 93 74 92 73 94 75 93 74 94 75 95 76 95 76 94 75 96 77 95 76 96 77 97 78 97 78 96 77 98 79 97 78 98 79 99 79 100 80 101 80 102 81 100 80 102 81 103 82 103 82 102 81 104 83 103 82 104 83 105 84 105 84 104 83 106 85 105 84 106 85 107 86 107 86 106 85 108 87 107 86 108 87 109 87 110 88 111 88 112 89 110 88 112 89 113 90 113 90 112 89 114 91 113 90 114 91 115 92 115 92 114 91 116 93 115 92 116 93 117 94 117 94 116 93 118 95 117 94 118 95 119 95 120 96 121 96 122 97 120 96 122 97 123 98 123 98 122 97 124 99 123 98 124 99 125 100 125 100 124 99 126 101 125 100 126 101 127 102 127 102 126 101 128 103 127 102 128 103 129 103 130 104 131 104 132 105 130 104 132 105 133 106 133 106 132 105 134 107 133 106 134 107 135 108 135 108 134 107 136 109 135 108 136 109 137 110 137 110 136 109 138 111 137 110 138 111 139 111 140 112 141 112 142 113 140 112 142 113 143 113 143 113 142 113 144 114 143 113 144 114 145 114 145 114 144 114 146 115 145 114 146 115 147 116 147 116 146 115 148 117 147 116 148 117 149 117 0 118 2 119 1 118 0 118 3 120 2 119 3 120 4 121 2 119 3 120 5 122 4 121 5 122 6 123 4 121 5 122 7 124 6 123 7 124 8 125 6 123 7 124 9 125 8 125 10 126 12 127 11 126 10 126 13 128 12 127 13 128 14 129 12 127 13 128 15 130 14 129 15 130 16 131 14 129 15 130 17 132 16 131 17 132 18 133 16 131 17 132 19 133 18 133 20 134 22 135 21 134 20 134 23 136 22 135 23 136 24 137 22 135 23 136 25 138 24 137 25 138 26 139 24 137 25 138 27 140 26 139 27 140 28 141 26 139 27 140 29 141 28 141 30 142 32 143 31 142 30 142 33 144 32 143 33 144 34 145 32 143 33 144 35 146 34 145 35 146 36 147 34 145 35 146 37 148 36 147 37 148 38 149 36 147 37 148 39 149 38 149 40 150 42 151 41 150 40 150 43 152 42 151 43 152 44 153 42 151 43 152 45 154 44 153 45 154 46 155 44 153 45 154 47 156 46 155 47 156 48 157 46 155 47 156 49 157 48 157 50 158 52 159 51 158 50 158 53 160 52 159 53 160 54 161 52 159 53 160 55 162 54 161 55 162 56 163 54 161 55 162 57 164 56 163 57 164 58 165 56 163 57 164 59 165 58 165 60 166 62 167 61 166 60 166 63 168 62 167 63 168 64 169 62 167 63 168 65 170 64 169 65 170 66 171 64 169 65 170 67 172 66 171 67 172 68 173 66 171 67 172 69 173 68 173 70 174 72 175 71 174 70 174 73 176 72 175 73 176 74 177 72 175 73 176 75 178 74 177 75 178 76 179 74 177 75 178 77 180 76 179 77 180 78 181 76 179 77 180 79 181 78 181 80 182 82 183 81 182 80 182 83 184 82 183 83 184 84 185 82 183 83 184 85 186 84 185 85 186 86 187 84 185 85 186 87 188 86 187 87 188 88 189 86 187 87 188 89 189 88 189 90 190 92 191 91 190 90 190 93 192 92 191 93 192 94 193 92 191 93 192 95 194 94 193 95 194 96 195 94 193 95 194 97 196 96 195 97 196 98 197 96 195 97 196 99 197 98 197 100 198 102 199 101 198 100 198 103 200 102 199 103 200 104 201 102 199 103 200 105 202 104 201 105 202 106 203 104 201 105 202 107 204 106 203 107 204 108 205 106 203 107 204 109 205 108 205 110 206 112 207 111 206 110 206 113 208 112 207 113 208 114 209 112 207 113 208 115 210 114 209 115 210 116 211 114 209 115 210 117 212 116 211 117 212 118 213 116 211 117 212 119 213 118 213 120 214 122 215 121 214 120 214 123 216 122 215 123 216 124 217 122 215 123 216 125 218 124 217 125 218 126 219 124 217 125 218 127 220 126 219 127 220 128 221 126 219 127 220 129 221 128 221 130 222 132 223 131 222 130 222 133 224 132 223 133 224 134 225 132 223 133 224 135 226 134 225 135 226 136 227 134 225 135 226 137 228 136 227 137 228 138 229 136 227 137 228 139 229 138 229 140 230 142 231 141 230 140 230 143 231 142 231 143 231 144 232 142 231 143 231 145 232 144 232 145 232 146 233 144 232 145 232 147 234 146 233 147 234 148 235 146 233 147 234 149 235 148 235</p></triangles>
      </mesh>
    </geometry>
  </library_geometries>
  <library_visual_scenes><visual_scene id="scene" name="scene">
    <node id="weeds_-02-03_foliage" name="weeds_-02-03_foliage" type="NODE"><instance_geometry url="#weeds_-02-03_foliage-mesh"><bind_material><technique_common>
      <instance_material symbol="MAT_WEED_GRASS-mat" target="#MAT_WEED_GRASS"/>
      <instance_material symbol="MAT_WEED_BROAD-mat" target="#MAT_WEED_BROAD"/>
    </technique_common></bind_material></instance_geometry></node>
  </visual_scene></library_visual_scenes>
  <scene><instance_visual_scene url="#scene"/></scene>
<!-- vigil:double-sided -->
</COLLADA>
