<?xml version="1.0" encoding="utf-8"?>
<COLLADA xmlns="http://www.collada.org/2005/11/COLLADASchema" version="1.4.1">
  <asset>
    <contributor><authoring_tool>VIGIL SIH26126 farm generator</authoring_tool></contributor>
    <unit name="meter" meter="1"/>
    <up_axis>Z_UP</up_axis>
  </asset>
  <library_effects>
    <effect id="MAT_WEED_GRASS-fx"><profile_COMMON><technique sid="c"><lambert><diffuse><color>0.0980 0.1280 0.0300 1</color></diffuse></lambert></technique></profile_COMMON></effect>
    <effect id="MAT_WEED_BROAD-fx"><profile_COMMON><technique sid="c"><lambert><diffuse><color>0.0720 0.1520 0.0340 1</color></diffuse></lambert></technique></profile_COMMON></effect>
  </library_effects>
  <library_materials>
    <material id="MAT_WEED_GRASS" name="MAT_WEED_GRASS"><instance_effect url="#MAT_WEED_GRASS-fx"/></material>
    <material id="MAT_WEED_BROAD" name="MAT_WEED_BROAD"><instance_effect url="#MAT_WEED_BROAD-fx"/></material>
  </library_materials>
  <library_geometries>
    <geometry id="weeds_+01+02_foliage-mesh" name="weeds_+01+02_foliage">
      <mesh>
        <source id="weeds_+01+02_foliage-pos"><float_array id="weeds_+01+02_foliage-pos-a" count="780">-3.2762 -0.089333 -0.057533 -3.2736 -0.094349 -0.057653 -3.2521 -0.084518 0.010802 -3.2539 -0.080011 0.010969 -3.2273 -0.07192 0.047534 -3.2283 -0.068537 0.047701 -3.1977 -0.0555 0.037621 -3.198 -0.053652 0.037734 -3.1642 -0.036184 -0.0076132 -3.1642 -0.036184 -0.0076132 -3.2799 -0.093895 -0.058268 -3.2699 -0.089787 -0.056917 -3.2918 -0.064377 0.021374 -3.3002 -0.068253 0.020206 -3.3105 -0.036537 0.064513 -3.3164 -0.039602 0.063659 -3.3239 -0.0048809 0.055229 -3.3271 -0.006649 0.054771 -3.3333 0.029778 0.0041295 -3.3333 0.029778 0.0041295 -3.2762 -0.089325 -0.057527 -3.2737 -0.094357 -0.057658 -3.2509 -0.084494 0.011907 -3.2526 -0.07999 0.012082 -3.2247 -0.071785 0.048649 -3.2256 -0.068411 0.04882 -3.1935 -0.055145 0.037294 -3.1938 -0.053303 0.037407 -3.1584 -0.035559 -0.010043 -3.1584 -0.035559 -0.010043 -3.2767 -0.08688 -0.057391 -3.2731 -0.096802 -0.057794 -3.2514 -0.091316 0.020339 -3.2553 -0.083164 0.020571 -3.2268 -0.082977 0.066665 -3.2302 -0.077372 0.066749 -3.1977 -0.070787 0.064941 -3.1998 -0.067989 0.064941 -3.1649 -0.055523 0.023444 -3.1649 -0.055523 0.023444 -3.2776 -0.095001 -0.058116 -3.2722 -0.08868 -0.057069 -3.2986 -0.079603 0.015347 -3.3028 -0.085289 0.014466 -3.3224 -0.068878 0.061663 -3.3252 -0.073185 0.061037 -3.342 -0.05525 0.066988 -3.3433 -0.057638 0.066662 -3.3576 -0.038906 0.034238 -3.3576 -0.038906 0.034238 -3.2724 -0.088303 -0.057062 -3.2774 -0.095379 -0.058123 -3.2603 -0.11948 0.03347 -3.2559 -0.11355 0.034388 -3.2394 -0.14065 0.091114 -3.2361 -0.13645 0.091786 -3.2129 -0.15759 0.096029 -3.2111 -0.15541 0.09639 -3.1814 -0.17079 0.053673 -3.1814 -0.17079 0.053673 -3.2705 -0.092636 -0.057199 -3.2793 -0.091045 -0.057986 -3.293 -0.13105 0.013522 -3.2856 -0.13288 0.014149 -3.3027 -0.16851 0.049609 -3.2973 -0.17017 0.050027 -3.3067 -0.20211 0.033213 -3.3039 -0.20318 0.033416 -3.3064 -0.2328 -0.023932 -3.3064 -0.2328 -0.023932 -3.2728 -0.088156 -0.057094 -3.277 -0.095526 -0.058091 -3.2633 -0.11122 0.011169 -3.2593 -0.10512 0.012044 -3.2466 -0.12466 0.055206 -3.2435 -0.12041 0.055854 -3.2257 -0.13494 0.059939 -3.2239 -0.13276 0.060291 -3.2009 -0.14241 0.029151 -3.2009 -0.14241 0.029151 -3.2757 -0.09617 -0.058014 -3.2741 -0.087511 -0.057171 -3.3225 -0.088205 0.029725 -3.3246 -0.095463 0.028944 -3.367 -0.086128 0.075958 -3.3691 -0.091232 0.075353 -3.4056 -0.079512 0.061396 -3.4069 -0.082127 0.061055 -3.4394 -0.069176 -0.0020021 -3.4394 -0.069176 -0.0020021 -3.2744 -0.096655 -0.057918 -3.2754 -0.087027 -0.057267 -3.3105 -0.096853 0.022231 -3.3106 -0.10514 0.021584 -3.3428 -0.10487 0.072057 -3.3435 -0.11085 0.071526 -3.3706 -0.10955 0.075358 -3.3713 -0.11269 0.075045 -3.3943 -0.11105 0.035661 -3.3943 -0.11105 0.035661 -3.2686 -0.090662 -0.056853 -3.2812 -0.093019 -0.058332 -3.2823 -0.13562 0.024087 -3.2713 -0.1348 0.025277 -3.2787 -0.17546 0.068088 -3.2708 -0.17575 0.068884 -3.2688 -0.21124 0.054707 -3.2647 -0.21186 0.05509 -3.2541 -0.24395 -0.0043632 -3.2541 -0.24395 -0.0043632 3.2778 0.089109 -0.077922 3.272 0.094572 -0.078895 3.2469 0.079144 0.0058825 3.2516 0.07402 0.0067384 3.2245 0.059193 0.053064 3.2275 0.055182 0.053697 3.2056 0.032757 0.044021 3.207 0.030472 0.044363 3.1894 0.0010967 -0.010009 3.1894 0.0010967 -0.010009 3.2796 0.089575 -0.077862 3.2702 0.094107 -0.078955 3.2516 0.073347 0.010855 3.2593 0.068827 0.011841 3.2359 0.04789 0.06155 3.2412 0.044168 0.062297 3.224 0.01564 0.053669 3.2267 0.013428 0.054083 3.2151 -0.022137 -0.0012751 3.2151 -0.022137 -0.0012751 3.2721 0.095268 -0.078962 3.2777 0.088413 -0.077855 3.2907 0.11496 0.0023768 3.2865 0.12133 0.0014123 3.3055 0.13848 0.05071 3.303 0.14342 0.050006 3.3236 0.15699 0.050051 3.3225 0.15977 0.049676 3.3446 0.17112 0.0066115 3.3446 0.17112 0.0066115 3.2789 0.097095 -0.078731 3.2709 0.086586 -0.078086 3.2974 0.072138 0.045337 3.3033 0.081879 0.04464 3.3274 0.052536 0.11511 3.3309 0.060043 0.1145 3.3623 0.024689 0.10479 3.3637 0.028879 0.10442 3.401 -0.0097427 0.030488 3.401 -0.0097427 0.030488 3.2756 0.095545 -0.078775 3.2743 0.088137 -0.078042 3.2952 0.0947 0.016653 3.2965 0.10102 0.016041 3.3185 0.097677 0.075619 3.3196 0.10223 0.075186 3.3455 0.094788 0.079446 3.3461 0.097202 0.079221 3.3756 0.086685 0.034545 3.3756 0.086685 0.034545 3.2776 0.090307 -0.07807 3.2722 0.093374 -0.078747 3.2549 0.078682 0.0047373 3.2598 0.07659 0.005274 3.24 0.060461 0.056138 3.2436 0.059347 0.056492 3.2284 0.036938 0.058179 3.2304 0.036566 0.058347 3.2197 0.0088654 0.017115 3.2197 0.0088654 0.017115 3.2706 0.089979 -0.078478 3.2792 0.093702 -0.078339 3.2594 0.14027 0.02654 3.2518 0.13773 0.026336 3.2421 0.18181 0.085677 3.2365 0.18046 0.085469 3.2288 0.21588 0.075385 3.2258 0.21542 0.075243 3.2191 0.24376 0.0067076 3.2191 0.24376 0.0067076 3.2802 0.091188 -0.078 3.2696 0.092493 -0.078817 3.2559 0.05378 0.037831 3.265 0.052519 0.038546 3.2463 0.0085678 0.096259 3.2529 0.0075493 0.096787 3.2425 -0.046043 0.06994 3.246 -0.046642 0.070227 3.2427 -0.10754 -0.01824 3.2427 -0.10754 -0.01824 3.2781 0.090462 -0.078052 3.2717 0.09322 -0.078765 3.2502 0.066061 0.025029 3.2557 0.063595 0.025648 3.232 0.033518 0.081252 3.2359 0.031654 0.081707 3.2184 -0.0068836 0.06699 3.2205 -0.0079174 0.067236 3.2084 -0.053404 -0.00203 3.2084 -0.053404 -0.00203 3.2762 0.087002 -0.077797 3.2737 0.09668 -0.07902 3.2408 0.095055 -0.003069 3.242 0.086519 -0.0020547 3.2102 0.08886 0.036375 3.2103 0.082573 0.037077 3.1826 0.076387 0.02177 3.1824 0.073027 0.022122 3.1574 0.059107 -0.034634 3.1574 0.059107 -0.034634 3.2788 0.089598 -0.077915 3.271 0.094084 -0.078902 3.2414 0.062132 0.032287 3.2483 0.058693 0.033101 3.2157 0.023954 0.087721 3.2208 0.021759 0.088286 3.1955 -0.023127 0.061847 3.1983 -0.024136 0.062135 3.1793 -0.076679 -0.023762 3.1793 -0.076679 -0.023762 3.2805 0.094139 -0.078304 3.2693 0.089542 -0.078512 3.2756 0.063675 0.045057 3.2851 0.06778 0.045213 3.2855 0.032541 0.11834 3.2924 0.035639 0.11844 3.3006 -0.0067616 0.11555 3.3042 -0.005043 0.11559 3.3199 -0.052847 0.049458 3.3199 -0.052847 0.049458 3.2705 0.092272 -0.078738 3.2794 0.09141 -0.078079 3.2767 0.13537 0.015008 3.269 0.13551 0.014506 3.2761 0.17483 0.06812 3.2705 0.17449 0.067804 3.2791 0.2074 0.060466 3.2762 0.20699 0.060323 3.2852 0.23409 0.0014553 3.2852 0.23409 0.0014553 3.2773 0.087481 -0.07778 3.2726 0.096201 -0.079037 3.2378 0.088673 0.024066 3.2423 0.08153 0.025137 3.2061 0.076233 0.08545 3.2097 0.071312 0.086219 3.1787 0.056675 0.083083 3.1808 0.054199 0.083488 3.1551 0.031111 0.026182 3.1551 0.031111 0.026182 3.2789 0.089718 -0.077923 3.2709 0.093964 -0.078894 3.2542 0.079433 0.0085604 3.261 0.0758 0.0093918 3.24 0.061129 0.063472 3.2449 0.058495 0.064075 3.2291 0.03717 0.067959 3.2318 0.035765 0.068281 3.2213 0.0081882 0.027541 3.2213 0.0081882 0.027541</float_array><technique_common><accessor source="#weeds_+01+02_foliage-pos-a" count="260" stride="3"><param name="X" type="float"/><param name="Y" type="float"/><param name="Z" type="float"/></accessor></technique_common></source>
        <source id="weeds_+01+02_foliage-nrm"><float_array id="weeds_+01+02_foliage-nrm-a" count="1236">-0.854 -0.402 0.33 -0.812 -0.348 0.468 -0.808 -0.343 0.478 -0.337 -0.177 0.925 -0.202 -0.139 0.969 0.526 0.051 0.849 0.596 0.061 0.8 0.782 0.089 0.617 0.326 -0.87 0.371 0.304 -0.816 0.491 0.305 -0.818 0.488 0.015 -0.323 0.946 0.042 -0.372 0.927 -0.379 0.469 0.798 -0.363 0.436 0.823 -0.471 0.688 0.552 -0.857 -0.389 0.339 -0.81 -0.335 0.482 -0.805 -0.33 0.493 -0.316 -0.168 0.934 -0.182 -0.132 0.974 0.542 0.049 0.839 0.606 0.058 0.793 0.784 0.082 0.615 -0.888 -0.375 0.267 -0.835 -0.4 0.378 -0.838 -0.399 0.372 -0.379 -0.209 0.901 -0.475 -0.26 0.841 0.387 0.284 0.877 0.302 0.217 0.928 0.608 0.457 0.649 0.708 -0.624 0.332 0.697 -0.592 0.406 0.697 -0.593 0.404 0.422 -0.411 0.808 0.457 -0.432 0.777 -0.415 0.107 0.903 -0.317 0.043 0.947 -0.76 0.359 0.542 -0.795 0.533 0.29 -0.77 0.518 0.372 -0.77 0.518 0.373 -0.529 0.285 0.8 -0.51 0.268 0.817 0.179 -0.31 0.934 0.22 -0.341 0.914 0.559 -0.577 0.596 0.135 0.852 0.506 0.131 0.771 0.623 0.131 0.767 0.628 -0.036 0.204 0.978 -0.062 0.12 0.991 -0.284 -0.623 0.729 -0.297 -0.662 0.689 -0.35 -0.826 0.442 -0.842 0.464 0.275 -0.812 0.463 0.355 -0.811 0.463 0.358 -0.571 0.277 0.773 -0.537 0.249 0.806 0.149 -0.28 0.948 0.228 -0.339 0.913 0.57 -0.564 0.597 0.845 -0.249 0.473 0.77 -0.278 0.574 0.765 -0.279 0.58 0.255 -0.179 0.95 0.141 -0.141 0.98 -0.575 0.178 0.799 -0.639 0.222 0.736 -0.803 0.347 0.485 0.912 0.015 0.41 0.88 -0.034 0.474 0.878 -0.037 0.477 0.571 -0.107 0.814 0.499 -0.109 0.859 -0.321 -0.014 0.947 -0.496 0.029 0.868 -0.853 0.132 0.505 -0.17 0.873 0.457 -0.134 0.812 0.568 -0.131 0.807 0.576 -0.124 0.298 0.946 -0.128 0.148 0.981 -0.148 -0.616 0.774 -0.157 -0.701 0.696 -0.171 -0.879 0.444 0.645 0.694 0.32 0.628 0.65 0.429 0.627 0.647 0.434 0.247 0.371 0.895 0.15 0.302 0.941 -0.567 -0.253 0.784 -0.623 -0.294 0.725 -0.774 -0.417 0.476 0.42 0.86 0.29 0.418 0.816 0.399 0.418 0.814 0.404 0.152 0.449 0.88 0.092 0.367 0.926 -0.429 -0.384 0.817 -0.468 -0.437 0.768 -0.589 -0.618 0.52 -0.789 -0.532 0.308 -0.796 -0.474 0.378 -0.796 -0.47 0.381 -0.575 -0.225 0.787 -0.496 -0.168 0.852 0.351 0.26 0.9 0.494 0.305 0.814 0.78 0.377 0.499 -0.795 0.561 0.231 -0.788 0.509 0.346 -0.789 0.513 0.338 -0.288 0.253 0.924 -0.437 0.321 0.84 0.636 -0.16 0.755 0.542 -0.126 0.831 0.816 -0.23 0.531 -0.959 0.199 0.199 -0.938 0.214 0.273 -0.937 0.214 0.275 -0.646 0.21 0.734 -0.621 0.207 0.756 0.396 -0.018 0.918 0.443 -0.033 0.896 0.807 -0.157 0.57 0.416 0.878 0.237 0.354 0.88 0.316 0.357 0.88 0.312 0.123 0.554 0.823 0.163 0.641 0.75 -0.161 -0.475 0.865 -0.137 -0.316 0.939 -0.196 -0.79 0.581 0.316 -0.842 0.437 0.265 -0.812 0.521 0.263 -0.81 0.525 0.093 -0.391 0.915 0.064 -0.292 0.954 -0.134 0.606 0.784 -0.142 0.692 0.707 -0.156 0.907 0.39 0.097 0.941 0.324 0.083 0.877 0.474 0.082 0.876 0.476 -0.043 0.263 0.964 -0.047 0.239 0.97 -0.168 -0.632 0.757 -0.168 -0.64 0.75 -0.184 -0.806 0.562 0.353 0.884 0.305 0.329 0.842 0.428 0.328 0.841 0.43 0.057 0.365 0.929 0.046 0.342 0.939 -0.344 -0.511 0.787 -0.349 -0.523 0.777 -0.423 -0.722 0.548 0.889 0.23 0.396 0.839 0.192 0.508 0.835 0.189 0.518 0.314 0.162 0.936 0.122 0.157 0.98 -0.719 0.111 0.686 -0.788 0.113 0.605 -0.919 0.114 0.376 0.412 0.841 0.35 0.346 0.797 0.495 0.349 0.799 0.489 0.003 0.201 0.98 0.04 0.28 0.959 -0.306 -0.612 0.729 -0.3 -0.584 0.754 -0.334 -0.769 0.544 -0.381 0.901 0.207 -0.378 0.873 0.306 -0.379 0.874 0.305 -0.226 0.491 0.842 -0.233 0.508 0.829 0.199 -0.448 0.872 0.191 -0.431 0.882 0.333 -0.725 0.603 -0.084 -0.903 0.421 -0.055 -0.858 0.51 -0.056 -0.86 0.507 -0.059 -0.327 0.943 -0.055 -0.416 0.908 -0.126 0.68 0.722 -0.117 0.601 0.791 -0.145 0.907 0.395 0.803 0.512 0.305 0.754 0.529 0.388 0.756 0.529 0.385 0.338 0.357 0.871 0.401 0.393 0.827 -0.5 -0.286 0.817 -0.438 -0.225 0.87 -0.695 -0.503 0.514 0.437 0.87 0.228 0.419 0.855 0.305 0.231 0.607 0.761 -0.268 -0.293 0.918 -0.268 -0.292 0.918 -0.438 -0.688 0.578 0.854 0.402 -0.33 0.812 0.348 -0.468 0.808 0.343 -0.478 0.337 0.177 -0.925 0.202 0.139 -0.969 -0.526 -0.051 -0.849 -0.596 -0.061 -0.8 -0.782 -0.089 -0.617 -0.326 0.87 -0.371 -0.304 0.816 -0.491 -0.305 0.818 -0.488 -0.015 0.323 -0.946 -0.042 0.372 -0.927 0.379 -0.469 -0.798 0.363 -0.436 -0.823 0.471 -0.688 -0.552 0.857 0.389 -0.339 0.81 0.335 -0.482 0.805 0.33 -0.493 0.316 0.168 -0.934 0.182 0.132 -0.974 -0.542 -0.049 -0.839 -0.606 -0.058 -0.793 -0.784 -0.082 -0.615 0.888 0.375 -0.267 0.835 0.4 -0.378 0.838 0.399 -0.372 0.379 0.209 -0.901 0.475 0.26 -0.841 -0.387 -0.284 -0.877 -0.302 -0.217 -0.928 -0.608 -0.457 -0.649 -0.708 0.624 -0.332 -0.697 0.592 -0.406 -0.697 0.593 -0.404 -0.422 0.411 -0.808 -0.457 0.432 -0.777 0.415 -0.107 -0.903 0.317 -0.043 -0.947 0.76 -0.359 -0.542 0.795 -0.533 -0.29 0.77 -0.518 -0.372 0.77 -0.518 -0.373 0.529 -0.285 -0.8 0.51 -0.268 -0.817 -0.179 0.31 -0.934 -0.22 0.341 -0.914 -0.559 0.577 -0.596 -0.135 -0.852 -0.506 -0.131 -0.771 -0.623 -0.131 -0.767 -0.628 0.036 -0.204 -0.978 0.062 -0.12 -0.991 0.284 0.623 -0.729 0.297 0.662 -0.689 0.35 0.826 -0.442 0.842 -0.464 -0.275 0.812 -0.463 -0.355 0.811 -0.463 -0.358 0.571 -0.277 -0.773 0.537 -0.249 -0.806 -0.149 0.28 -0.948 -0.228 0.339 -0.913 -0.57 0.564 -0.597 -0.845 0.249 -0.473 -0.77 0.278 -0.574 -0.765 0.279 -0.58 -0.255 0.179 -0.95 -0.141 0.141 -0.98 0.575 -0.178 -0.799 0.639 -0.222 -0.736 0.803 -0.347 -0.485 -0.912 -0.015 -0.41 -0.88 0.034 -0.474 -0.878 0.037 -0.477 -0.571 0.107 -0.814 -0.499 0.109 -0.859 0.321 0.014 -0.947 0.496 -0.029 -0.868 0.853 -0.132 -0.505 0.17 -0.873 -0.457 0.134 -0.812 -0.568 0.131 -0.807 -0.576 0.124 -0.298 -0.946 0.128 -0.148 -0.981 0.148 0.616 -0.774 0.157 0.701 -0.696 0.171 0.879 -0.444 -0.645 -0.694 -0.32 -0.628 -0.65 -0.429 -0.627 -0.647 -0.434 -0.247 -0.371 -0.895 -0.15 -0.302 -0.941 0.567 0.253 -0.784 0.623 0.294 -0.725 0.774 0.417 -0.476 -0.42 -0.86 -0.29 -0.418 -0.816 -0.399 -0.418 -0.814 -0.404 -0.152 -0.449 -0.88 -0.092 -0.367 -0.926 0.429 0.384 -0.817 0.468 0.437 -0.768 0.589 0.618 -0.52 0.789 0.532 -0.308 0.796 0.474 -0.378 0.796 0.47 -0.381 0.575 0.225 -0.787 0.496 0.168 -0.852 -0.351 -0.26 -0.9 -0.494 -0.305 -0.814 -0.78 -0.377 -0.499 0.795 -0.561 -0.231 0.788 -0.509 -0.346 0.789 -0.513 -0.338 0.288 -0.253 -0.924 0.437 -0.321 -0.84 -0.636 0.16 -0.755 -0.542 0.126 -0.831 -0.816 0.23 -0.531 0.959 -0.199 -0.199 0.938 -0.214 -0.273 0.937 -0.214 -0.275 0.646 -0.21 -0.734 0.621 -0.207 -0.756 -0.396 0.018 -0.918 -0.443 0.033 -0.896 -0.807 0.157 -0.57 -0.416 -0.878 -0.237 -0.354 -0.88 -0.316 -0.357 -0.88 -0.312 -0.123 -0.554 -0.823 -0.163 -0.641 -0.75 0.161 0.475 -0.865 0.137 0.316 -0.939 0.196 0.79 -0.581 -0.316 0.842 -0.437 -0.265 0.812 -0.521 -0.263 0.81 -0.525 -0.093 0.391 -0.915 -0.064 0.292 -0.954 0.134 -0.606 -0.784 0.142 -0.692 -0.707 0.156 -0.907 -0.39 -0.097 -0.941 -0.324 -0.083 -0.877 -0.474 -0.082 -0.876 -0.476 0.043 -0.263 -0.964 0.047 -0.239 -0.97 0.168 0.632 -0.757 0.168 0.64 -0.75 0.184 0.806 -0.562 -0.353 -0.884 -0.305 -0.329 -0.842 -0.428 -0.328 -0.841 -0.43 -0.057 -0.365 -0.929 -0.046 -0.342 -0.939 0.344 0.511 -0.787 0.349 0.523 -0.777 0.423 0.722 -0.548 -0.889 -0.23 -0.396 -0.839 -0.192 -0.508 -0.835 -0.189 -0.518 -0.314 -0.162 -0.936 -0.122 -0.157 -0.98 0.719 -0.111 -0.686 0.788 -0.113 -0.605 0.919 -0.114 -0.376 -0.412 -0.841 -0.35 -0.346 -0.797 -0.495 -0.349 -0.799 -0.489 -0.003 -0.201 -0.98 -0.04 -0.28 -0.959 0.306 0.612 -0.729 0.3 0.584 -0.754 0.334 0.769 -0.544 0.381 -0.901 -0.207 0.378 -0.873 -0.306 0.379 -0.874 -0.305 0.226 -0.491 -0.842 0.233 -0.508 -0.829 -0.199 0.448 -0.872 -0.191 0.431 -0.882 -0.333 0.725 -0.603 0.084 0.903 -0.421 0.055 0.858 -0.51 0.056 0.86 -0.507 0.059 0.327 -0.943 0.055 0.416 -0.908 0.126 -0.68 -0.722 0.117 -0.601 -0.791 0.145 -0.907 -0.395 -0.803 -0.512 -0.305 -0.754 -0.529 -0.388 -0.756 -0.529 -0.385 -0.338 -0.357 -0.871 -0.401 -0.393 -0.827 0.5 0.286 -0.817 0.438 0.225 -0.87 0.695 0.503 -0.514 -0.437 -0.87 -0.228 -0.419 -0.855 -0.305 -0.231 -0.607 -0.761 0.268 0.293 -0.918 0.268 0.292 -0.918 0.438 0.688 -0.578</float_array><technique_common><accessor source="#weeds_+01+02_foliage-nrm-a" count="412" stride="3"><param name="X" type="float"/><param name="Y" type="float"/><param name="Z" type="float"/></accessor></technique_common></source>
        <vertices id="weeds_+01+02_foliage-vtx"><input semantic="POSITION" source="#weeds_+01+02_foliage-pos"/></vertices>
        <triangles count="416" material="MAT_WEED_GRASS-mat"><input semantic="VERTEX" source="#weeds_+01+02_foliage-vtx" offset="0"/><input semantic="NORMAL" source="#weeds_+01+02_foliage-nrm" offset="1"/><p>0 0 1 0 2 1 0 0 2 1 3 2 3 2 2 1 4 3 3 2 4 3 5 4 5 4 4 3 6 5 5 4 6 5 7 6 7 6 6 5 8 7 7 6 8 7 9 7 10 8 11 8 12 9 10 8 12 9 13 10 13 10 12 9 14 11 13 10 14 11 15 12 15 12 14 11 16 13 15 12 16 13 17 14 17 14 16 13 18 15 17 14 18 15 19 15 20 16 21 16 22 17 20 16 22 17 23 18 23 18 22 17 24 19 23 18 24 19 25 20 25 20 24 19 26 21 25 20 26 21 27 22 27 22 26 21 28 23 27 22 28 23 29 23 30 24 31 24 32 25 30 24 32 25 33 26 33 26 32 25 34 27 33 26 34 27 35 28 35 28 34 27 36 29 35 28 36 29 37 30 37 30 36 29 38 31 37 30 38 31 39 31 40 32 41 32 42 33 40 32 42 33 43 34 43 34 42 33 44 35 43 34 44 35 45 36 45 36 44 35 46 37 45 36 46 37 47 38 47 38 46 37 48 39 47 38 48 39 49 39 50 40 51 40 52 41 50 40 52 41 53 42 53 42 52 41 54 43 53 42 54 43 55 44 55 44 54 43 56 45 55 44 56 45 57 46 57 46 56 45 58 47 57 46 58 47 59 47 60 48 61 48 62 49 60 48 62 49 63 50 63 50 62 49 64 51 63 50 64 51 65 52 65 52 64 51 66 53 65 52 66 53 67 54 67 54 66 53 68 55 67 54 68 55 69 55 70 56 71 56 72 57 70 56 72 57 73 58 73 58 72 57 74 59 73 58 74 59 75 60 75 60 74 59 76 61 75 60 76 61 77 62 77 62 76 61 78 63 77 62 78 63 79 63 80 64 81 64 82 65 80 64 82 65 83 66 83 66 82 65 84 67 83 66 84 67 85 68 85 68 84 67 86 69 85 68 86 69 87 70 87 70 86 69 88 71 87 70 88 71 89 71 90 72 91 72 92 73 90 72 92 73 93 74 93 74 92 73 94 75 93 74 94 75 95 76 95 76 94 75 96 77 95 76 96 77 97 78 97 78 96 77 98 79 97 78 98 79 99 79 100 80 101 80 102 81 100 80 102 81 103 82 103 82 102 81 104 83 103 82 104 83 105 84 105 84 104 83 106 85 105 84 106 85 107 86 107 86 106 85 108 87 107 86 108 87 109 87 110 88 111 88 112 89 110 88 112 89 113 90 113 90 112 89 114 91 113 90 114 91 115 92 115 92 114 91 116 93 115 92 116 93 117 94 117 94 116 93 118 95 117 94 118 95 119 95 120 96 121 96 122 97 120 96 122 97 123 98 123 98 122 97 124 99 123 98 124 99 125 100 125 100 124 99 126 101 125 100 126 101 127 102 127 102 126 101 128 103 127 102 128 103 129 103 130 104 131 104 132 105 130 104 132 105 133 106 133 106 132 105 134 107 133 106 134 107 135 108 135 108 134 107 136 109 135 108 136 109 137 110 137 110 136 109 138 111 137 110 138 111 139 111 140 112 141 112 142 113 140 112 142 113 143 114 143 114 142 113 144 115 143 114 144 115 145 116 145 116 144 115 146 117 145 116 146 117 147 118 147 118 146 117 148 119 147 118 148 119 149 119 150 120 151 120 152 121 150 120 152 121 153 122 153 122 152 121 154 123 153 122 154 123 155 124 155 124 154 123 156 125 155 124 156 125 157 126 157 126 156 125 158 127 157 126 158 127 159 127 160 128 161 128 162 129 160 128 162 129 163 130 163 130 162 129 164 131 163 130 164 131 165 132 165 132 164 131 166 133 165 132 166 133 167 134 167 134 166 133 168 135 167 134 168 135 169 135 170 136 171 136 172 137 170 136 172 137 173 138 173 138 172 137 174 139 173 138 174 139 175 140 175 140 174 139 176 141 175 140 176 141 177 142 177 142 176 141 178 143 177 142 178 143 179 143 180 144 181 144 182 145 180 144 182 145 183 146 183 146 182 145 184 147 183 146 184 147 185 148 185 148 184 147 186 149 185 148 186 149 187 150 187 150 186 149 188 151 187 150 188 151 189 151 190 152 191 152 192 153 190 152 192 153 193 154 193 154 192 153 194 155 193 154 194 155 195 156 195 156 194 155 196 157 195 156 196 157 197 158 197 158 196 157 198 159 197 158 198 159 199 159 200 160 201 160 202 161 200 160 202 161 203 162 203 162 202 161 204 163 203 162 204 163 205 164 205 164 204 163 206 165 205 164 206 165 207 166 207 166 206 165 208 167 207 166 208 167 209 167 210 168 211 168 212 169 210 168 212 169 213 170 213 170 212 169 214 171 213 170 214 171 215 172 215 172 214 171 216 173 215 172 216 173 217 174 217 174 216 173 218 175 217 174 218 175 219 175 220 176 221 176 222 177 220 176 222 177 223 178 223 178 222 177 224 179 223 178 224 179 225 180 225 180 224 179 226 181 225 180 226 181 227 182 227 182 226 181 228 183 227 182 228 183 229 183 230 184 231 184 232 185 230 184 232 185 233 186 233 186 232 185 234 187 233 186 234 187 235 188 235 188 234 187 236 189 235 188 236 189 237 190 237 190 236 189 238 191 237 190 238 191 239 191 240 192 241 192 242 193 240 192 242 193 243 194 243 194 242 193 244 195 243 194 244 195 245 196 245 196 244 195 246 197 245 196 246 197 247 198 247 198 246 197 248 199 247 198 248 199 249 199 250 200 251 200 252 201 250 200 252 201 253 201 253 201 252 201 254 202 253 201 254 202 255 202 255 202 254 202 256 203 255 202 256 203 257 204 257 204 256 203 258 205 257 204 258 205 259 205 0 206 2 207 1 206 0 206 3 208 2 207 3 208 4 209 2 207 3 208 5 210 4 209 5 210 6 211 4 209 5 210 7 212 6 211 7 212 8 213 6 211 7 212 9 213 8 213 10 214 12 215 11 214 10 214 13 216 12 215 13 216 14 217 12 215 13 216 15 218 14 217 15 218 16 219 14 217 15 218 17 220 16 219 17 220 18 221 16 219 17 220 19 221 18 221 20 222 22 223 21 222 20 222 23 224 22 223 23 224 24 225 22 223 23 224 25 226 24 225 25 226 26 227 24 225 25 226 27 228 26 227 27 228 28 229 26 227 27 228 29 229 28 229 30 230 32 231 31 230 30 230 33 232 32 231 33 232 34 233 32 231 33 232 35 234 34 233 35 234 36 235 34 233 35 234 37 236 36 235 37 236 38 237 36 235 37 236 39 237 38 237 40 238 42 239 41 238 40 238 43 240 42 239 43 240 44 241 42 239 43 240 45 242 44 241 45 242 46 243 44 241 45 242 47 244 46 243 47 244 48 245 46 243 47 244 49 245 48 245 50 246 52 247 51 246 50 246 53 248 52 247 53 248 54 249 52 247 53 248 55 250 54 249 55 250 56 251 54 249 55 250 57 252 56 251 57 252 58 253 56 251 57 252 59 253 58 253 60 254 62 255 61 254 60 254 63 256 62 255 63 256 64 257 62 255 63 256 65 258 64 257 65 258 66 259 64 257 65 258 67 260 66 259 67 260 68 261 66 259 67 260 69 261 68 261 70 262 72 263 71 262 70 262 73 264 72 263 73 264 74 265 72 263 73 264 75 266 74 265 75 266 76 267 74 265 75 266 77 268 76 267 77 268 78 269 76 267 77 268 79 269 78 269 80 270 82 271 81 270 80 270 83 272 82 271 83 272 84 273 82 271 83 272 85 274 84 273 85 274 86 275 84 273 85 274 87 276 86 275 87 276 88 277 86 275 87 276 89 277 88 277 90 278 92 279 91 278 90 278 93 280 92 279 93 280 94 281 92 279 93 280 95 282 94 281 95 282 96 283 94 281 95 282 97 284 96 283 97 284 98 285 96 283 97 284 99 285 98 285 100 286 102 287 101 286 100 286 103 288 102 287 103 288 104 289 102 287 103 288 105 290 104 289 105 290 106 291 104 289 105 290 107 292 106 291 107 292 108 293 106 291 107 292 109 293 108 293 110 294 112 295 111 294 110 294 113 296 112 295 113 296 114 297 112 295 113 296 115 298 114 297 115 298 116 299 114 297 115 298 117 300 116 299 117 300 118 301 116 299 117 300 119 301 118 301 120 302 122 303 121 302 120 302 123 304 122 303 123 304 124 305 122 303 123 304 125 306 124 305 125 306 126 307 124 305 125 306 127 308 126 307 127 308 128 309 126 307 127 308 129 309 128 309 130 310 132 311 131 310 130 310 133 312 132 311 133 312 134 313 132 311 133 312 135 314 134 313 135 314 136 315 134 313 135 314 137 316 136 315 137 316 138 317 136 315 137 316 139 317 138 317 140 318 142 319 141 318 140 318 143 320 142 319 143 320 144 321 142 319 143 320 145 322 144 321 145 322 146 323 144 321 145 322 147 324 146 323 147 324 148 325 146 323 147 324 149 325 148 325 150 326 152 327 151 326 150 326 153 328 152 327 153 328 154 329 152 327 153 328 155 330 154 329 155 330 156 331 154 329 155 330 157 332 156 331 157 332 158 333 156 331 157 332 159 333 158 333 160 334 162 335 161 334 160 334 163 336 162 335 163 336 164 337 162 335 163 336 165 338 164 337 165 338 166 339 164 337 165 338 167 340 166 339 167 340 168 341 166 339 167 340 169 341 168 341 170 342 172 343 171 342 170 342 173 344 172 343 173 344 174 345 172 343 173 344 175 346 174 345 175 346 176 347 174 345 175 346 177 348 176 347 177 348 178 349 176 347 177 348 179 349 178 349 180 350 182 351 181 350 180 350 183 352 182 351 183 352 184 353 182 351 183 352 185 354 184 353 185 354 186 355 184 353 185 354 187 356 186 355 187 356 188 357 186 355 187 356 189 357 188 357 190 358 192 359 191 358 190 358 193 360 192 359 193 360 194 361 192 359 193 360 195 362 194 361 195 362 196 363 194 361 195 362 197 364 196 363 197 364 198 365 196 363 197 364 199 365 198 365 200 366 202 367 201 366 200 366 203 368 202 367 203 368 204 369 202 367 203 368 205 370 204 369 205 370 206 371 204 369 205 370 207 372 206 371 207 372 208 373 206 371 207 372 209 373 208 373 210 374 212 375 211 374 210 374 213 376 212 375 213 376 214 377 212 375 213 376 215 378 214 377 215 378 216 379 214 377 215 378 217 380 216 379 217 380 218 381 216 379 217 380 219 381 218 381 220 382 222 383 221 382 220 382 223 384 222 383 223 384 224 385 222 383 223 384 225 386 224 385 225 386 226 387 224 385 225 386 227 388 226 387 227 388 228 389 226 387 227 388 229 389 228 389 230 390 232 391 231 390 230 390 233 392 232 391 233 392 234 393 232 391 233 392 235 394 234 393 235 394 236 395 234 393 235 394 237 396 236 395 237 396 238 397 236 395 237 396 239 397 238 397 240 398 242 399 241 398 240 398 243 400 242 399 243 400 244 401 242 399 243 400 245 402 244 401 245 402 246 403 244 401 245 402 247 404 246 403 247 404 248 405 246 403 247 404 249 405 248 405 250 406 252 407 251 406 250 406 253 407 252 407 253 407 254 408 252 407 253 407 255 408 254 408 255 408 256 409 254 408 255 408 257 410 256 409 257 410 258 411 256 409 257 410 259 411 258 411</p></triangles>
      </mesh>
    </geometry>
  </library_geometries>
  <library_visual_scenes><visual_scene id="scene" name="scene">
    <node id="weeds_+01+02_foliage" name="weeds_+01+02_foliage" type="NODE"><instance_geometry url="#weeds_+01+02_foliage-mesh"><bind_material><technique_common>
      <instance_material symbol="MAT_WEED_GRASS-mat" target="#MAT_WEED_GRASS"/>
      <instance_material symbol="MAT_WEED_BROAD-mat" target="#MAT_WEED_BROAD"/>
    </technique_common></bind_material></instance_geometry></node>
  </visual_scene></library_visual_scenes>
  <scene><instance_visual_scene url="#scene"/></scene>
<!-- vigil:double-sided -->
</COLLADA>
