<?xml version="1.0" encoding="utf-8"?>
<COLLADA xmlns="http://www.collada.org/2005/11/COLLADASchema" version="1.4.1">
  <asset>
    <contributor><authoring_tool>VIGIL SIH26126 farm generator</authoring_tool></contributor>
    <unit name="meter" meter="1"/>
    <up_axis>Z_UP</up_axis>
  </asset>
  <library_effects>
    <effect id="MAT_WEED_STEM-fx"><profile_COMMON><technique sid="c"><lambert><diffuse><color>0.0860 0.1040 0.0360 1</color></diffuse></lambert></technique></profile_COMMON></effect>
  </library_effects>
  <library_materials>
    <material id="MAT_WEED_STEM" name="MAT_WEED_STEM"><instance_effect url="#MAT_WEED_STEM-fx"/></material>
  </library_materials>
  <library_geometries>
    <geometry id="weeds_+01+01_solid-mesh" name="weeds_+01+01_solid">
      <mesh>
        <source id="weeds_+01+01_solid-pos"><float_array id="weeds_+01+01_solid-pos-a" count="3360">-1.3979 -0.67099 0.0061688 -1.3989 -0.6746 0.011686 -1.3719 -0.6241 0.043654 -1.3708 -0.62207 0.038395 -1.3929 -0.67506 0.0082427 -1.3666 -0.62524 0.040958 -1.3488 -0.57297 0.0514 -1.3468 -0.57427 0.047107 -1.344 -0.57477 0.050989 -1.3301 -0.52314 0.027996 -1.328 -0.52517 0.025216 -1.3261 -0.52412 0.028534 -1.3975 -0.67035 0.010734 -1.3975 -0.67717 0.010069 -1.3342 -0.67838 0.036202 -1.3343 -0.67264 0.037629 -1.3948 -0.67313 0.005295 -1.3327 -0.67417 0.032348 -1.275 -0.67876 0.036921 -1.2738 -0.67702 0.041265 -1.2745 -0.6738 0.037656 -1.2211 -0.67873 0.008589 -1.2191 -0.67946 0.011945 -1.2196 -0.67559 0.01073 -1.3979 -0.67101 0.0061497 -1.3991 -0.67634 0.010187 -1.4136 -0.6411 0.048838 -1.4124 -0.63712 0.044708 -1.3927 -0.6733 0.0097614 -1.4081 -0.6383 0.048436 -1.4318 -0.60524 0.064225 -1.43 -0.60434 0.059757 -1.4273 -0.60266 0.063465 -1.4548 -0.56974 0.047659 -1.4528 -0.57027 0.044187 -1.4511 -0.56776 0.046827 -1.3978 -0.67144 0.0057725 -1.3993 -0.6758 0.010705 -1.4109 -0.62414 0.048808 -1.4094 -0.62109 0.044084 -1.3926 -0.67342 0.0096205 -1.4051 -0.62209 0.047879 -1.4263 -0.57204 0.063407 -1.4244 -0.57147 0.058947 -1.4214 -0.57033 0.06267 -1.4463 -0.52037 0.046366 -1.4444 -0.52084 0.042885 -1.4423 -0.51896 0.045788 0.18348 0.60558 0.030936 0.18299 0.5997 0.030667 0.18268 0.59834 0.066602 0.1831 0.60351 0.066964 0.18891 0.59961 0.030762 0.18788 0.59826 0.066729 0.18939 0.6055 0.031031 0.18831 0.60343 0.06709 0.18154 0.59509 0.10244 0.18191 0.59953 0.10297 0.18603 0.595 0.10262 0.18639 0.59945 0.10315 0.17958 0.58993 0.13829 0.17989 0.59365 0.1389 0.18335 0.58984 0.1385 0.18366 0.59355 0.13912 0.1768 0.58286 0.17413 0.17705 0.58585 0.17477 0.17986 0.58277 0.17434 0.18011 0.58576 0.17499 0.17319 0.57387 0.21 0.17338 0.57616 0.21055 0.17555 0.57378 0.21018 0.17574 0.57607 0.21073 0.18619 0.6026 0.030849 0.17447 0.57497 0.21037 -3.1616 -0.55948 0.0013243 -3.1588 -0.56795 0.0010675 -3.1553 -0.56798 0.061037 -3.1578 -0.56053 0.061381 -3.1502 -0.5654 0.00066198 -3.1478 -0.56575 0.060706 -3.1531 -0.55693 0.00091884 -3.1503 -0.5583 0.06105 -3.1517 -0.56968 0.12096 -3.1538 -0.56325 0.12146 -3.1452 -0.56775 0.12072 -3.1473 -0.56132 0.12122 -3.1479 -0.57303 0.18092 -3.1497 -0.56762 0.18151 -3.1425 -0.57141 0.18075 -3.1442 -0.56601 0.18134 -3.144 -0.57803 0.24091 -3.1454 -0.57365 0.24152 -3.1395 -0.57673 0.2408 -3.141 -0.57235 0.24142 -3.1398 -0.58471 0.30097 -3.1409 -0.58134 0.30149 -3.1364 -0.58371 0.30089 -3.1375 -0.58035 0.30142 -3.1559 -0.56244 0.00099315 -3.1387 -0.58253 0.30119 -2.0646 -0.53272 0.00908 -2.0764 -0.5336 0.0091726 -2.0748 -0.53622 0.078855 -2.0644 -0.53544 0.078686 -2.0754 -0.54542 0.008823 -2.0739 -0.54662 0.078577 -2.0636 -0.54454 0.0087305 -2.0635 -0.54584 0.078409 -2.0719 -0.53825 0.14857 -2.0629 -0.53758 0.14827 -2.0711 -0.54724 0.14838 -2.0622 -0.54656 0.14809 -2.0676 -0.5397 0.21829 -2.0601 -0.53913 0.21791 -2.067 -0.54727 0.21817 -2.0594 -0.5467 0.2178 -2.062 -0.54056 0.288 -2.0559 -0.54011 0.2876 -2.0615 -0.54671 0.28795 -2.0554 -0.54626 0.28754 -2.055 -0.54084 0.35771 -2.0503 -0.54049 0.35735 -2.0546 -0.54558 0.35768 -2.0499 -0.54523 0.35732 -2.07 -0.53907 0.0089515 -2.0525 -0.54303 0.35752 -1.2376 -1.7372 0.0047354 -1.2413 -1.7383 0.0049847 -1.2386 -1.7399 0.031063 -1.2354 -1.7389 0.030934 -1.2403 -1.742 0.0047069 -1.2378 -1.7432 0.030849 -1.2367 -1.7409 0.0044575 -1.2346 -1.7422 0.030721 -1.2373 -1.7415 0.057255 -1.2345 -1.7406 0.057299 -1.2366 -1.7443 0.057124 -1.2338 -1.7434 0.057169 -1.2372 -1.743 0.083631 -1.2349 -1.7423 0.083798 -1.2366 -1.7454 0.083565 -1.2343 -1.7447 0.083732 -1.2385 -1.7445 0.11019 -1.2366 -1.7439 0.11043 -1.238 -1.7464 0.11017 -1.2361 -1.7458 0.11041 -1.241 -1.7459 0.13696 -1.2395 -1.7455 0.13718 -1.2406 -1.7474 0.13696 -1.2392 -1.747 0.13718 -1.239 -1.7396 0.0047211 -1.2401 -1.7464 0.13707 -2.3267 -0.62137 0.0055623 -2.3339 -0.61394 0.0047588 -2.3312 -0.60495 0.072511 -2.3249 -0.61147 0.07335 -2.3408 -0.62155 0.0061399 -2.3373 -0.61165 0.073755 -2.3336 -0.62898 0.0069434 -2.3309 -0.61817 0.074595 -2.3295 -0.59431 0.14004 -2.324 -0.5999 0.14099 -2.3348 -0.60008 0.14117 -2.3293 -0.60567 0.14212 -2.3289 -0.58198 0.20744 -2.3243 -0.58665 0.20844 -2.3333 -0.58683 0.20843 -2.3287 -0.5915 0.20942 -2.3293 -0.56796 0.27471 -2.3255 -0.57174 0.27568 -2.3329 -0.57189 0.27555 -2.3291 -0.57566 0.27651 -2.3307 -0.55226 0.34189 -2.3278 -0.55515 0.34269 -2.3335 -0.55527 0.34254 -2.3306 -0.55817 0.34334 -2.3338 -0.62146 0.0058511 -2.3306 -0.55521 0.34262 -2.9094 -1.4197 -0.022115 -2.9119 -1.4174 -0.01726 -2.8595 -1.4289 0.015265 -2.8581 -1.4311 0.010795 -2.9124 -1.4232 -0.018394 -2.8602 -1.4339 0.014517 -2.8078 -1.4412 0.024335 -2.8088 -1.4435 0.020784 -2.8088 -1.4454 0.024714 -2.7585 -1.4549 0.0027542 -2.76 -1.457 0.00035177 -2.7591 -1.4583 0.0035188 -2.9094 -1.4197 -0.022087 -2.9125 -1.4174 -0.01764 -2.8651 -1.4147 0.014691 -2.8631 -1.4169 0.010489 -2.9118 -1.4233 -0.018042 -2.8647 -1.4198 0.014436 -2.8185 -1.4129 0.023763 -2.8188 -1.4153 0.020143 -2.8183 -1.4172 0.024003 -2.774 -1.4124 0.0019708 -2.7751 -1.4146 -0.00060014 -2.7737 -1.4159 0.0023689 -2.9082 -1.4193 -0.017991 -2.914 -1.4185 -0.018106 -2.919 -1.4549 0.018278 -2.914 -1.4553 0.01896 -2.9115 -1.4225 -0.021672 -2.9162 -1.4576 0.014979 -2.9246 -1.4922 0.029451 -2.9232 -1.4927 0.033521 -2.9205 -1.4931 0.03014 -2.9311 -1.5297 0.012066 -2.9321 -1.5309 0.01527 -2.9287 -1.5312 0.014209 -2.909 -1.4196 -0.021773 -2.9128 -1.4174 -0.017833 -2.8773 -1.4139 0.015164 -2.8747 -1.416 0.011237 -2.9119 -1.4233 -0.018163 -2.8766 -1.419 0.014915 -2.8423 -1.4112 0.024892 -2.8427 -1.4137 0.021288 -2.8419 -1.4156 0.025131 -2.8097 -1.41 0.0036172 -2.811 -1.4122 0.0012202 -2.8092 -1.4135 0.0040052 -2.9088 -1.4194 -0.016966 -2.9121 -1.4178 -0.021657 -2.9508 -1.3947 0.014557 -2.9489 -1.3962 0.019105 -2.9129 -1.4231 -0.019147 -2.9521 -1.3992 0.01652 -2.9901 -1.3723 0.028446 -2.9913 -1.3742 0.032195 -2.9921 -1.3762 0.028401 -3.0322 -1.3513 0.011315 -3.0341 -1.3532 0.013676 -3.0334 -1.3546 0.010449 0.33234 -0.23322 0.012434 0.33035 -0.23672 0.018023 0.33555 -0.17787 0.058601 0.33762 -0.17571 0.053395 0.33704 -0.23595 0.016452 0.34142 -0.1776 0.057492 0.34078 -0.11856 0.071802 0.34346 -0.11894 0.067523 0.34581 -0.11875 0.072024 0.34655 -0.059991 0.049147 0.34914 -0.061118 0.046177 0.35062 -0.059908 0.049872 0.33232 -0.23318 0.01247 0.3304 -0.23737 0.017545 0.32027 -0.18713 0.058133 0.32227 -0.18427 0.053278 0.33701 -0.23534 0.016894 0.32606 -0.18555 0.057666 0.31016 -0.1364 0.071577 0.31281 -0.13612 0.067251 0.31511 -0.13526 0.071702 0.30058 -0.086226 0.048921 0.30316 -0.086903 0.045777 0.3046 -0.08518 0.049267 0.33183 -0.23218 0.017323 0.33195 -0.23876 0.016869 0.37627 -0.23831 0.057517 0.37585 -0.23271 0.058598 0.33596 -0.23495 0.012718 0.37877 -0.23445 0.053742 0.42062 -0.23704 0.068755 0.42111 -0.23551 0.073561 0.42091 -0.23229 0.069774 0.46402 -0.23528 0.046699 0.46576 -0.23621 0.050324 0.4654 -0.2324 0.049281 0.33215 -0.23281 0.012863 0.33053 -0.23771 0.017299 0.32164 -0.20079 0.057977 0.32337 -0.1973 0.053484 0.33706 -0.23537 0.016748 0.32735 -0.19895 0.057533 0.31266 -0.16317 0.071512 0.31534 -0.16291 0.067202 0.31758 -0.16186 0.071647 0.30431 -0.12629 0.048776 0.30701 -0.1272 0.045818 0.30829 -0.12507 0.049119 0.33213 -0.23288 0.018475 0.33062 -0.23657 0.012883 0.31283 -0.28621 0.053565 0.31445 -0.28405 0.058912 0.33698 -0.23644 0.015552 0.31838 -0.28681 0.055595 0.29495 -0.33521 0.068206 0.29749 -0.33628 0.072427 0.29973 -0.33654 0.067887 0.27767 -0.38543 0.046529 0.28025 -0.38722 0.049094 0.28155 -0.38603 0.045326 -2.364 -0.87056 -0.014719 -2.3606 -0.86941 -0.010673 -2.3963 -0.88127 0.0247 -2.3988 -0.88157 0.020713 -2.3635 -0.86556 -0.012736 -2.3983 -0.87754 0.02308 -2.4346 -0.89507 0.03958 -2.4354 -0.89316 0.03616 -2.4357 -0.89135 0.039709 -2.4754 -0.90992 0.02796 -2.4756 -0.90754 0.025743 -2.4764 -0.90708 0.028855 -2.3638 -0.87076 -0.010818 -2.36 -0.86717 -0.012078 -2.3821 -0.83073 0.018058 -2.3852 -0.83387 0.019816 -2.3642 -0.8676 -0.015233 -2.3858 -0.832 0.015508 -2.4071 -0.79642 0.026706 -2.4079 -0.79681 0.03063 -2.4101 -0.79878 0.027892 -2.4348 -0.76458 0.010655 -2.4346 -0.76317 0.013619 -2.4369 -0.76545 0.012952 -2.364 -0.87055 -0.014736 -2.3597 -0.86856 -0.012119 -2.3677 -0.89652 0.021517 -2.3712 -0.89781 0.018678 -2.3643 -0.86642 -0.011274 -2.3718 -0.89481 0.022228 -2.3783 -0.92634 0.035471 -2.3803 -0.92566 0.032113 -2.3818 -0.92508 0.035725 -2.3918 -0.95781 0.022327 -2.3929 -0.95631 0.01967 -2.3946 -0.9567 0.022352 -2.3638 -0.87026 -0.015079 -2.3599 -0.86894 -0.011655 -2.3787 -0.9039 0.02362 -2.3819 -0.90453 0.020234 -2.3643 -0.86633 -0.011395 -2.3825 -0.90163 0.023854 -2.4001 -0.9406 0.039001 -2.4019 -0.93966 0.035639 -2.4033 -0.93866 0.03924 -2.4243 -0.97888 0.027549 -2.4254 -0.9774 0.024891 -2.4269 -0.97729 0.027766 -2.3494 -0.18229 -0.013188 -2.3439 -0.18212 -0.013358 -2.3431 -0.18465 0.024036 -2.348 -0.18481 0.024315 -2.344 -0.17654 -0.012923 -2.3432 -0.17975 0.024463 -2.3496 -0.17671 -0.012753 -2.3481 -0.1799 0.024743 -2.3404 -0.18776 0.06133 -2.3447 -0.1879 0.061793 -2.3405 -0.18353 0.061774 -2.3447 -0.18367 0.062238 -2.336 -0.19144 0.098622 -2.3395 -0.19157 0.099197 -2.336 -0.18789 0.099058 -2.3396 -0.18802 0.099633 -2.3297 -0.1957 0.13591 -2.3326 -0.19582 0.13653 -2.3297 -0.19282 0.13631 -2.3326 -0.19293 0.13693 -2.3216 -0.20054 0.17324 -2.3238 -0.20063 0.17376 -2.3216 -0.19833 0.17356 -2.3238 -0.19842 0.17409 -2.3467 -0.17942 -0.013056 -2.3227 -0.19948 0.17366 -2.0221 -2.3871 -0.025369 -2.0185 -2.3834 -0.025731 -2.0166 -2.3824 0.010719 -2.0197 -2.3856 0.011163 -2.0222 -2.3797 -0.025582 -2.0198 -2.3792 0.010893 -2.0258 -2.3835 -0.02522 -2.0229 -2.3824 0.011338 -2.013 -2.3806 0.047038 -2.0157 -2.3834 0.047638 -2.0158 -2.3778 0.047261 -2.0185 -2.3806 0.047862 -2.008 -2.3779 0.083323 -2.0102 -2.3803 0.084007 -2.0103 -2.3756 0.08357 -2.0125 -2.378 0.084255 -2.0013 -2.3745 0.11957 -2.0031 -2.3764 0.12027 -2.0032 -2.3726 0.11982 -2.005 -2.3745 0.12052 -1.993 -2.3703 0.15582 -1.9944 -2.3717 0.15641 -1.9945 -2.3688 0.15603 -1.9958 -2.3702 0.15662 -2.0221 -2.3834 -0.025475 -1.9944 -2.3703 0.15622 -1.6337 -2.7106 -0.017023 -1.6376 -2.7108 -0.010652 -1.5757 -2.6836 0.030027 -1.5729 -2.6842 0.024137 -1.6335 -2.7167 -0.012815 -1.5724 -2.689 0.028443 -1.5153 -2.6554 0.040967 -1.5146 -2.658 0.036175 -1.5128 -2.6602 0.040903 -1.4581 -2.627 0.01299 -1.4581 -2.63 0.0096632 -1.4559 -2.6308 0.013518 -1.6336 -2.7105 -0.016985 -1.6383 -2.7112 -0.01114 -1.5926 -2.6744 0.030953 -1.5892 -2.6745 0.02541 -1.6329 -2.7163 -0.012365 -1.5881 -2.6789 0.030003 -1.5485 -2.6364 0.043557 -1.5472 -2.6387 0.038681 -1.5448 -2.6405 0.043324 -1.5074 -2.5983 0.016971 -1.5069 -2.601 0.013433 -1.5043 -2.6015 0.017041 -1.6326 -2.7097 -0.011738 -1.6388 -2.7135 -0.011899 -1.6119 -2.7564 0.029431 -1.6067 -2.7529 0.030341 -1.6334 -2.715 -0.016852 -1.6072 -2.7565 0.024977 -1.5865 -2.798 0.038793 -1.5844 -2.7978 0.0439 -1.5817 -2.7956 0.039636 -1.5636 -2.8375 0.012052 -1.5633 -2.8398 0.015926 -1.5599 -2.8373 0.014619 -1.6333 -2.7102 -0.016568 -1.6385 -2.7116 -0.011398 -1.6049 -2.6834 0.031403 -1.601 -2.6829 0.026238 -1.6329 -2.7164 -0.012524 -1.6002 -2.6878 0.030469 -1.5727 -2.654 0.044713 -1.5714 -2.6562 0.039854 -1.5689 -2.6579 0.044484 -1.5437 -2.6245 0.018649 -1.5434 -2.6275 0.015318 -1.5404 -2.6276 0.018711 -1.633 -2.7104 -0.010471 -1.6377 -2.7109 -0.016256 -1.6914 -2.7233 0.031578 -1.6881 -2.7238 0.037168 -1.6341 -2.7169 -0.013762 -1.6889 -2.729 0.033465 -1.7464 -2.7346 0.051117 -1.7458 -2.7377 0.055595 -1.7452 -2.7398 0.050541 -1.8051 -2.746 0.031262 -1.8053 -2.7495 0.033976 -1.8037 -2.75 0.029745 -3.1509 -1.4628 -0.020009 -3.1595 -1.4562 -0.019736 -3.1561 -1.4556 0.044962 -3.1485 -1.4614 0.04464 -3.1659 -1.465 -0.019207 -3.1617 -1.4633 0.045455 -3.1573 -1.4715 -0.019481 -3.1541 -1.4691 0.045134 -3.1514 -1.4554 0.10963 -3.1448 -1.4604 0.10922 -3.1563 -1.4621 0.11011 -3.1497 -1.4671 0.10969 -3.1454 -1.4557 0.17425 -3.1399 -1.4599 0.17378 -3.1495 -1.4613 0.17469 -3.144 -1.4655 0.17422 -3.1381 -1.4563 0.23881 -3.1336 -1.4597 0.23833 -3.1415 -1.4609 0.2392 -3.137 -1.4643 0.23872 -3.1296 -1.4574 0.3033 -3.1261 -1.46 0.3029 -3.1321 -1.4609 0.30361 -3.1287 -1.4635 0.30321 -3.1584 -1.4639 -0.019608 -3.1291 -1.4605 0.30326 -0.7603 -2.3842 -0.014005 -0.75995 -2.3804 -0.014277 -0.75971 -2.3789 0.0099589 -0.76002 -2.3822 0.010283 -0.76373 -2.3801 -0.014226 -0.76304 -2.3786 0.010033 -0.76408 -2.3838 -0.013953 -0.76334 -2.3819 0.010357 -0.75893 -2.3762 0.034103 -0.7592 -2.379 0.034527 -0.76181 -2.3759 0.034216 -0.76207 -2.3788 0.03464 -0.75762 -2.3723 0.05822 -0.75784 -2.3747 0.058696 -0.76004 -2.3721 0.058354 -0.76025 -2.3745 0.05883 -0.75577 -2.3673 0.082309 -0.75595 -2.3692 0.08279 -0.75773 -2.367 0.082448 -0.75791 -2.369 0.082929 -0.75338 -2.361 0.10639 -0.75352 -2.3624 0.1068 -0.75489 -2.3608 0.10651 -0.75502 -2.3623 0.10691 -0.76202 -2.3821 -0.014115 -0.7542 -2.3616 0.10665 -2.8714 -2.5109 -0.025952 -2.8731 -2.5202 -0.026009 -2.8801 -2.5186 0.037924 -2.8786 -2.5105 0.038099 -2.8638 -2.5212 -0.024882 -2.8719 -2.5195 0.038943 -2.8621 -2.5119 -0.024825 -2.8704 -2.5113 0.039118 -2.8877 -2.5187 0.10178 -2.8865 -2.5117 0.10215 -2.8807 -2.5195 0.10271 -2.8794 -2.5124 0.10308 -2.8961 -2.5205 0.16566 -2.8951 -2.5145 0.16615 -2.8901 -2.5211 0.16648 -2.8891 -2.5152 0.16697 -2.9051 -2.5239 0.22954 -2.9043 -2.5191 0.23009 -2.9003 -2.5244 0.23024 -2.8995 -2.5196 0.23079 -2.9149 -2.529 0.29348 -2.9143 -2.5253 0.29395 -2.9112 -2.5294 0.29402 -2.9105 -2.5257 0.2945 -2.8676 -2.5161 -0.025417 -2.9127 -2.5273 0.29399 -0.035789 -1.4401 0.0014411 -0.032352 -1.442 0.0051063 -0.033273 -1.3906 0.03043 -0.035858 -1.3895 0.026742 -0.030587 -1.4395 0.00057515 -0.031286 -1.3893 0.026405 -0.031745 -1.3412 0.032166 -0.033702 -1.3407 0.035546 -0.035625 -1.3413 0.032157 -0.031904 -1.2955 0.010971 -0.033365 -1.2942 0.013571 -0.035075 -1.2955 0.011105 -0.034752 -1.44 0.0047989 -0.032239 -1.4436 0.0016115 0.0071669 -1.4412 0.032663 0.0055256 -1.4381 0.035847 -0.031737 -1.4381 0.00071215 0.0075035 -1.4364 0.031931 0.046562 -1.4408 0.043577 0.04685 -1.4385 0.046809 0.046741 -1.4367 0.043212 0.086736 -1.4431 0.027961 0.087817 -1.4414 0.030495 0.086939 -1.4398 0.027785 -0.035875 -1.4401 0.0018319 -0.031339 -1.4425 0.00056425 -0.044479 -1.4863 0.035591 -0.048585 -1.4844 0.036597 -0.031515 -1.439 0.0047264 -0.045082 -1.4838 0.039553 -0.057009 -1.5316 0.053281 -0.058778 -1.5312 0.049778 -0.060745 -1.5306 0.053138 -0.069715 -1.5808 0.040978 -0.071038 -1.5797 0.038227 -0.07278 -1.58 0.040936 -0.035832 -1.4401 0.0016104 -0.031269 -1.4427 0.00086286 -0.045219 -1.4783 0.035052 -0.049364 -1.4764 0.035494 -0.031627 -1.4388 0.0046492 -0.046127 -1.4755 0.038697 -0.058764 -1.5156 0.051616 -0.060482 -1.515 0.048112 -0.062414 -1.5143 0.051474 -0.072316 -1.5567 0.038427 -0.073585 -1.5553 0.035758 -0.075324 -1.5556 0.038463 -3.0377 1.3677 -0.013789 -3.0387 1.3711 -0.0085753 -3.0264 1.3227 0.025726 -3.0263 1.3204 0.020753 -3.0435 1.3684 -0.011309 -3.031 1.3209 0.023633 -3.0124 1.2745 0.036129 -3.0148 1.2744 0.032142 -3.0169 1.2736 0.036194 -2.9978 1.2279 0.015829 -3.0007 1.2283 0.013325 -3.0013 1.2268 0.016748 -3.0373 1.3672 -0.0093055 -3.0414 1.3722 -0.010026 -3.0854 1.3447 0.021715 -3.0819 1.3406 0.023149 -3.0412 1.3678 -0.014342 -3.0842 1.3407 0.018166 -3.1275 1.3173 0.028381 -3.127 1.3157 0.032728 -3.1249 1.3134 0.029195 -3.1673 1.2907 0.0063184 -3.169 1.2905 0.009764 -3.1664 1.2878 0.0085783 -3.0377 1.3677 -0.013807 -3.0397 1.3724 -0.010068 -3.0065 1.355 0.026367 -3.0053 1.3513 0.02252 -3.0425 1.3671 -0.0097981 -3.0088 1.3503 0.026562 -2.9717 1.3378 0.039848 -2.9727 1.3361 0.0357 -2.9734 1.3338 0.039592 -2.9356 1.3216 0.021835 -2.9375 1.3209 0.018657 -2.9371 1.3184 0.021423 -3.038 1.368 -0.014167 -3.0392 1.3721 -0.0095749 -2.9985 1.3413 0.02679 -2.998 1.3381 0.022387 -3.0426 1.3672 -0.0099311 -3.0014 1.337 0.026492 -2.9562 1.3107 0.03997 -2.9575 1.3092 0.035843 -2.9588 1.3071 0.039768 -2.9128 1.2812 0.021968 -2.9147 1.2805 0.018782 -2.9149 1.2782 0.021826 0.69971 -2.5926 -0.0028941 0.70133 -2.5902 0.00085843 0.69299 -2.6333 0.028742 0.69143 -2.6347 0.025239 0.69686 -2.5897 -0.00019125 0.68911 -2.6326 0.028 0.68452 -2.677 0.038111 0.68278 -2.6763 0.035217 0.68123 -2.676 0.038265 0.67565 -2.7202 0.02322 0.67403 -2.719 0.021206 0.67297 -2.7196 0.023715 0.69971 -2.5926 -0.0028696 0.70135 -2.5897 0.00053067 0.70381 -2.6289 0.028342 0.70224 -2.6307 0.025081 0.69683 -2.5902 0.00011196 0.69987 -2.6291 0.028044 0.70614 -2.6685 0.037796 0.70437 -2.6683 0.034874 0.70279 -2.6686 0.037894 0.70806 -2.7079 0.022828 0.70642 -2.707 0.020699 0.70534 -2.708 0.023073 0.69997 -2.5934 0.00041978 0.70045 -2.5884 6.4698e-05 0.67144 -2.5814 0.02761 0.67124 -2.5856 0.028381 0.69748 -2.5907 -0.0027114 0.66945 -2.5839 0.025087 0.64225 -2.5751 0.035267 0.64182 -2.5761 0.03853 0.64166 -2.5786 0.035991 0.61355 -2.5696 0.020406 0.6125 -2.5686 0.022853 0.6124 -2.5715 0.022175 0.6998 -2.5929 -0.0026016 0.70129 -2.5895 0.0003615 0.70409 -2.6184 0.028138 0.70263 -2.6207 0.025126 0.69681 -2.5902 1.3178e-05 0.70017 -2.6188 0.027857 0.70679 -2.648 0.037559 0.705 -2.6478 0.034649 0.70345 -2.6482 0.037665 0.70905 -2.6772 0.02244 0.70734 -2.6761 0.020436 0.70633 -2.6775 0.022686 0.69983 -2.5928 0.001194 0.70112 -2.5903 -0.0026172 0.71717 -2.5556 0.02452 0.71594 -2.557 0.028155 0.69694 -2.5894 -0.00080369 0.71359 -2.5543 0.025895 0.73315 -2.5216 0.034047 0.73159 -2.5204 0.036897 0.73012 -2.5198 0.033827 0.74873 -2.4868 0.018999 0.74719 -2.485 0.020723 0.74623 -2.4857 0.018185 0.42353 -1.6428 0.022016 0.4293 -1.6363 0.021659 0.42927 -1.6339 0.077663 0.42419 -1.6395 0.077908 0.42304 -1.6303 0.021468 0.42376 -1.6286 0.077519 0.41727 -1.6368 0.021825 0.41868 -1.6343 0.077764 0.42882 -1.6324 0.13374 0.42443 -1.6373 0.13383 0.42406 -1.6278 0.13366 0.41967 -1.6327 0.13375 0.42794 -1.6319 0.18987 0.42424 -1.636 0.18984 0.42394 -1.6281 0.18983 0.42024 -1.6322 0.18981 0.42664 -1.6324 0.24604 0.42364 -1.6358 0.24594 0.4234 -1.6293 0.24604 0.42039 -1.6327 0.24594 0.42492 -1.634 0.30225 0.42261 -1.6365 0.30214 0.42243 -1.6316 0.30226 0.42011 -1.6341 0.30215 0.42328 -1.6365 0.021742 0.42252 -1.6341 0.3022 -2.3528 1.7235 -0.018144 -2.3488 1.734 -0.016574 -2.353 1.7238 0.056827 -2.3565 1.7146 0.055589 -2.3591 1.7385 -0.016425 -2.3621 1.7278 0.056989 -2.3631 1.7281 -0.017996 -2.3656 1.7186 0.055751 -2.3561 1.7153 0.13049 -2.3591 1.7073 0.12967 -2.3639 1.7188 0.13068 -2.367 1.7108 0.12986 -2.358 1.7086 0.20451 -2.3606 1.7018 0.20403 -2.3646 1.7115 0.20473 -2.3672 1.7048 0.20424 -2.3587 1.7035 0.2789 -2.3609 1.6981 0.27868 -2.3641 1.7059 0.27911 -2.3662 1.7004 0.27889 -2.3584 1.7002 0.35369 -2.36 1.696 0.35359 -2.3625 1.7021 0.35386 -2.3641 1.6979 0.35376 -2.3559 1.731 -0.017285 -2.3612 1.699 0.35372 0.71234 2.4235 -0.059107 0.70984 2.4209 -0.054217 0.72931 2.4733 -0.019707 0.73154 2.4747 -0.024253 0.71575 2.4197 -0.055651 0.73439 2.4719 -0.020728 0.74856 2.5259 -0.008892 0.75072 2.5248 -0.012618 0.75283 2.5244 -0.0087488 0.76766 2.5776 -0.029106 0.76956 2.5758 -0.031691 0.77117 2.5765 -0.028521 0.71234 2.4236 -0.059076 0.70972 2.4203 -0.054625 0.71392 2.4691 -0.01987 0.71628 2.4712 -0.024119 0.71589 2.4203 -0.055274 0.71926 2.469 -0.020348 0.71791 2.5183 -0.0086103 0.72019 2.5177 -0.012384 0.72244 2.5179 -0.0085629 0.72177 2.5665 -0.028591 0.72378 2.5652 -0.031331 0.72548 2.5663 -0.028343 0.71222 2.4246 -0.054881 0.7107 2.4186 -0.055213 0.74932 2.4068 -0.020488 0.75035 2.4121 -0.019601 0.71502 2.4209 -0.058882 0.75237 2.4096 -0.023817 0.78781 2.3957 -0.011223 0.78866 2.397 -0.0070826 0.78924 2.3999 -0.010388 0.82518 2.385 -0.030764 0.82649 2.3837 -0.027635 0.82711 2.3873 -0.028571 0.71229 2.424 -0.058738 0.70974 2.42 -0.054837 0.71172 2.4563 -0.019891 0.71402 2.459 -0.02383 0.71591 2.4203 -0.055401 0.71707 2.4564 -0.02035 0.71346 2.4932 -0.0084402 0.71577 2.4926 -0.0122 0.71801 2.493 -0.0083857 0.7151 2.529 -0.028379 0.71716 2.5274 -0.030957 0.71881 2.529 -0.028133 0.71232 2.4239 -0.053881 0.71005 2.4209 -0.05867 0.68307 2.3809 -0.022818 0.68506 2.3825 -0.018228 0.71557 2.4193 -0.056425 0.6877 2.3788 -0.021112 0.65585 2.3414 -0.0095079 0.65781 2.3397 -0.0058706 0.65962 2.3388 -0.0098191 0.62839 2.3003 -0.02762 0.6302 2.298 -0.025411 0.63155 2.2987 -0.028695 1.5312 -1.4078 -0.040593 1.5207 -1.4109 -0.039112 1.5313 -1.4104 0.03237 1.5405 -1.4077 0.030978 1.5233 -1.4216 -0.039322 1.5336 -1.4198 0.032216 1.5338 -1.4186 -0.040803 1.5428 -1.4171 0.030824 1.543 -1.4091 0.10372 1.5509 -1.4067 0.10236 1.545 -1.4172 0.10364 1.5529 -1.4149 0.10228 1.5558 -1.407 0.1749 1.5625 -1.405 0.17363 1.5575 -1.4138 0.17487 1.5642 -1.4119 0.1736 1.5698 -1.4041 0.24591 1.5752 -1.4025 0.24477 1.5711 -1.4096 0.24593 1.5765 -1.4081 0.24479 1.5848 -1.4004 0.31674 1.589 -1.3992 0.31583 1.5859 -1.4047 0.31677 1.59 -1.4034 0.31585 1.5273 -1.4147 -0.039957 1.5874 -1.4019 0.3163 0.35268 -1.9569 0.015476 0.35003 -1.9645 0.015439 0.35425 -1.9658 0.071978 0.35657 -1.9592 0.07194 0.35747 -1.9673 0.014884 0.3608 -1.9683 0.071514 0.36012 -1.9597 0.014922 0.36313 -1.9617 0.071477 0.35848 -1.9662 0.12857 0.36048 -1.9605 0.12841 0.36414 -1.9684 0.12821 0.36614 -1.9626 0.12806 0.36271 -1.9656 0.18518 0.3644 -1.9608 0.18495 0.36748 -1.9674 0.18492 0.36916 -1.9626 0.18468 0.36696 -1.964 0.24182 0.36832 -1.9601 0.24155 0.37083 -1.9655 0.24164 0.3722 -1.9616 0.24136 0.37121 -1.9614 0.29848 0.37226 -1.9584 0.29824 0.37419 -1.9625 0.29834 0.37524 -1.9595 0.2981 0.35507 -1.9621 0.01518 0.37323 -1.9605 0.29829 0.94182 1.7502 -0.020879 0.94059 1.7422 -0.020431 0.93719 1.7462 0.033811 0.93828 1.7532 0.033349 0.94861 1.7415 -0.019792 0.94425 1.7456 0.034397 0.94983 1.7494 -0.02024 0.94533 1.7526 0.033936 0.93361 1.7512 0.087998 0.93456 1.7573 0.087483 0.9397 1.7507 0.088545 0.94065 1.7567 0.08803 0.92985 1.7572 0.1421 0.93065 1.7623 0.14157 0.93497 1.7567 0.1426 0.93578 1.7618 0.14207 0.9259 1.7641 0.19613 0.92656 1.7682 0.19562 0.93006 1.7637 0.19656 0.93072 1.7678 0.19605 0.92177 1.772 0.25007 0.92229 1.7752 0.24964 0.92497 1.7717 0.25041 0.92549 1.7749 0.24998 0.94521 1.7458 -0.020336 0.92363 1.7734 0.25003 -0.79582 3.1339 -0.096349 -0.79924 3.1339 -0.096678 -0.80111 3.1309 -0.074735 -0.79812 3.1309 -0.07437 -0.79918 3.1305 -0.097107 -0.80107 3.1279 -0.075087 -0.79577 3.1305 -0.096778 -0.79807 3.1279 -0.074721 -0.8041 3.1282 -0.052849 -0.80153 3.1282 -0.052404 -0.80407 3.1256 -0.053109 -0.8015 3.1256 -0.052663 -0.80821 3.126 -0.030961 -0.80606 3.1259 -0.030479 -0.8082 3.1238 -0.031144 -0.80606 3.1237 -0.030662 -0.81344 3.1241 -0.0090719 -0.81172 3.124 -0.0085953 -0.81344 3.1223 -0.0091937 -0.81172 3.1222 -0.0087171 -0.8198 3.1225 0.012838 -0.81849 3.1225 0.013236 -0.81981 3.1212 0.012754 -0.8185 3.1211 0.013152 -0.7975 3.1322 -0.096728 -0.81915 3.1218 0.012995 2.354 -1.9427 -0.093586 2.3559 -1.9443 -0.089841 2.3188 -1.9266 -0.064159 2.3178 -1.9252 -0.067652 2.3571 -1.9402 -0.091216 2.3201 -1.9231 -0.065187 2.2811 -1.9102 -0.056216 2.2819 -1.9089 -0.059127 2.2824 -1.9073 -0.056336 2.2435 -1.8956 -0.071528 2.2449 -1.8944 -0.073582 2.2445 -1.8931 -0.071273 2.354 -1.9427 -0.093562 2.3564 -1.9444 -0.09015 2.3211 -1.9376 -0.063605 2.3197 -1.9361 -0.066872 2.3567 -1.9401 -0.090931 2.3215 -1.9339 -0.064221 2.2852 -1.9321 -0.054649 2.2857 -1.9307 -0.057593 2.2857 -1.9289 -0.054835 2.2494 -1.9283 -0.069106 2.2505 -1.9271 -0.071275 2.2497 -1.9257 -0.0691 2.3533 -1.9425 -0.090398 2.3577 -1.9438 -0.090662 2.3689 -1.9154 -0.066662 2.3651 -1.9144 -0.065972 2.3561 -1.9409 -0.093584 2.3669 -1.9133 -0.069262 2.3792 -1.8884 -0.061724 2.3783 -1.8875 -0.058644 2.3761 -1.8871 -0.061106 2.3885 -1.8635 -0.078308 2.3896 -1.8625 -0.076045 2.387 -1.862 -0.076724 2.3537 -1.9427 -0.093301 2.3566 -1.9444 -0.090314 2.3305 -1.9397 -0.063701 2.3286 -1.9382 -0.066723 2.3567 -1.9401 -0.091028 2.3307 -1.936 -0.0643 2.3036 -1.9363 -0.054671 2.304 -1.9349 -0.057606 2.3039 -1.9331 -0.054851 2.2768 -1.9346 -0.069171 2.2781 -1.9334 -0.071224 2.277 -1.932 -0.069164 2.3538 -1.9424 -0.089664 2.3558 -1.9444 -0.093187 2.3847 -1.9633 -0.065612 2.3837 -1.9616 -0.062246 2.3574 -1.9404 -0.091792 2.3865 -1.96 -0.064586 2.4128 -1.9835 -0.05491 2.4142 -1.982 -0.052302 2.4149 -1.9809 -0.05536 2.4414 -2.0055 -0.06776 2.4433 -2.0042 -0.066224 2.4428 -2.0034 -0.06874 2.5612 1.3835 -0.10774 2.5693 1.3886 -0.10776 2.5704 1.3861 -0.049065 2.5632 1.3816 -0.048938 2.5644 1.3968 -0.10724 2.566 1.3933 -0.04858 2.5562 1.3917 -0.10722 2.5589 1.3888 -0.048453 2.5731 1.3843 0.0095897 2.567 1.3804 0.0098975 2.5694 1.3905 0.010051 2.5632 1.3866 0.010359 2.5776 1.383 0.068284 2.5724 1.3798 0.06871 2.5744 1.3883 0.068709 2.5692 1.385 0.069134 2.5837 1.3824 0.12702 2.5795 1.3798 0.1275 2.5811 1.3867 0.12739 2.5769 1.384 0.12787 2.5915 1.3824 0.18582 2.5883 1.3803 0.18624 2.5896 1.3857 0.18612 2.5863 1.3836 0.18654 2.5628 1.3901 -0.10749 2.5889 1.383 0.18618 6.6537 4.1372 -0.09002 6.6614 4.1368 -0.090172 6.6623 4.1431 -0.041066 6.6555 4.1435 -0.040836 6.6619 4.1444 -0.091096 6.6627 4.1498 -0.041858 6.6542 4.1448 -0.090944 6.6559 4.1502 -0.041628 6.6645 4.1491 0.0080364 6.6587 4.1494 0.0084005 6.6649 4.1549 0.0073885 6.659 4.1553 0.0077526 6.6681 4.1547 0.057201 6.6632 4.155 0.057647 6.6685 4.1596 0.056686 6.6636 4.1599 0.057131 6.6732 4.1599 0.10643 6.6692 4.1602 0.1069 6.6734 4.1639 0.10603 6.6695 4.1642 0.10651 6.6796 4.1648 0.15574 6.6765 4.165 0.15615 6.6798 4.1678 0.15545 6.6768 4.168 0.15586 6.6578 4.1408 -0.090558 6.6782 4.1664 0.1558 1.9962 0.93051 -0.069701 1.997 0.92476 -0.069897 1.992 0.92315 -0.033627 1.9913 0.9282 -0.033328 2.0027 0.9259 -0.069024 1.997 0.92415 -0.032815 2.0019 0.93165 -0.068828 1.9963 0.92919 -0.032517 1.9867 0.91955 0.002486 1.986 0.92388 0.0029593 1.9909 0.92039 0.0032595 1.9903 0.92473 0.0037328 1.9809 0.91395 0.038537 1.9804 0.91757 0.039115 1.9845 0.91464 0.039247 1.9839 0.91827 0.039825 1.9748 0.90635 0.074526 1.9743 0.90927 0.075138 1.9777 0.90689 0.075148 1.9772 0.90981 0.07576 1.9683 0.89673 0.11049 1.9679 0.89896 0.11101 1.9705 0.89714 0.11098 1.9702 0.89937 0.1115 1.9995 0.92821 -0.069363 1.9692 0.89805 0.111 1.9508 -0.25022 -0.070739 1.9489 -0.25436 -0.064784 1.9823 -0.20949 -0.020692 1.984 -0.20706 -0.026504 1.955 -0.25583 -0.068395 1.9876 -0.21158 -0.023559 2.0133 -0.16081 -0.0048818 2.0152 -0.16219 -0.0098537 2.0178 -0.16371 -0.0052039 2.0412 -0.10958 -0.025619 2.0432 -0.11193 -0.028896 2.0451 -0.11154 -0.024812 1.9511 -0.25007 -0.065352 1.95 -0.25725 -0.066818 2.0114 -0.27457 -0.032207 2.0121 -0.26857 -0.029977 1.9536 -0.25308 -0.071748 2.0137 -0.27004 -0.036142 2.0702 -0.2877 -0.027253 2.0713 -0.2865 -0.021964 2.0714 -0.2826 -0.025864 2.1253 -0.29651 -0.056299 2.1269 -0.29801 -0.052347 2.1271 -0.29368 -0.053394 1.9508 -0.25024 -0.070763 1.9485 -0.25603 -0.066712 1.9378 -0.21913 -0.019346 1.9398 -0.21477 -0.023644 1.9554 -0.25414 -0.066443 1.9438 -0.2173 -0.01914 1.9247 -0.17857 0.00085815 1.9269 -0.17757 -0.0041039 1.9296 -0.17672 0.00055534 1.9086 -0.13434 -0.016337 1.9106 -0.13499 -0.020277 1.9126 -0.13294 -0.016839 1.9508 -0.25068 -0.071236 1.9484 -0.25547 -0.066068 1.9432 -0.20167 -0.017465 1.9455 -0.19829 -0.022525 1.9554 -0.25426 -0.066614 1.9494 -0.20064 -0.017929 1.9357 -0.14438 0.00368 1.9379 -0.14376 -0.0012935 1.9409 -0.14353 0.0033453 1.9251 -0.083536 -0.012211 1.9272 -0.084123 -0.016155 1.9294 -0.082837 -0.012455 6.4318 6.717 -0.088964 6.4267 6.7073 -0.08925 6.4304 6.704 -0.018076 6.4349 6.7125 -0.017684 6.4364 6.7022 -0.089884 6.4389 6.6996 -0.018602 6.4415 6.7119 -0.089597 6.4434 6.7081 -0.018211 6.4327 6.6992 0.053053 6.4366 6.7065 0.053631 6.4401 6.6953 0.05265 6.444 6.7026 0.053228 6.4337 6.6927 0.12423 6.437 6.6989 0.12492 6.4399 6.6895 0.12394 6.4432 6.6956 0.12462 6.4334 6.6847 0.19546 6.4361 6.6897 0.19618 6.4385 6.6821 0.19525 6.4412 6.687 0.19598 6.4318 6.6752 0.26678 6.4339 6.679 0.26739 6.4357 6.6731 0.26663 6.4377 6.6769 0.26725 6.4341 6.7096 -0.089424 6.4348 6.676 0.26701</float_array><technique_common><accessor source="#weeds_+01+01_solid-pos-a" count="1120" stride="3"><param name="X" type="float"/><param name="Y" type="float"/><param name="Z" type="float"/></accessor></technique_common></source>
        <source id="weeds_+01+01_solid-nrm"><float_array id="weeds_+01+01_solid-nrm-a" count="3360">-0.302 0.635 -0.711 -0.562 -0.206 0.801 -0.554 -0.057 0.83 -0.294 0.472 -0.831 0.898 -0.435 -0.057 0.866 -0.465 0.181 -0.604 0.315 0.732 -0.154 -0.051 -0.987 0.826 -0.227 0.516 -0.755 0.487 0.438 -0.094 -0.374 -0.923 0.856 -0.075 0.512 -0.23 0.762 0.605 -0.149 -0.936 0.319 -0.1 -0.977 0.188 -0.15 0.518 0.842 0.396 0.152 -0.905 0.242 0.422 -0.874 -0.196 -0.895 -0.402 0.218 -0.012 0.976 0.055 0.932 -0.359 -0.384 -0.563 -0.732 0.418 -0.41 0.811 -0.018 0.995 -0.101 -0.354 0.632 -0.69 -0.582 -0.697 0.419 -0.51 -0.641 0.573 -0.302 0.467 -0.831 0.943 0.052 0.329 0.883 0.101 0.459 -0.571 -0.315 0.758 -0.125 -0.053 -0.991 0.712 0.421 0.562 -0.754 -0.198 0.626 0.036 -0.392 -0.919 0.702 0.632 0.328 -0.316 0.527 -0.789 -0.625 -0.549 0.554 -0.582 -0.477 0.659 -0.275 0.374 -0.886 0.955 0.013 0.296 0.906 0.047 0.421 -0.636 -0.206 0.744 -0.134 -0.046 -0.99 0.798 0.295 0.525 -0.782 -0.101 0.615 -0.03 -0.312 -0.95 0.805 0.453 0.383 -0.551 0.569 0.611 -0.592 -0.555 0.584 -0.744 -0.665 -0.058 -0.665 0.745 0.048 0.531 -0.622 0.575 0.679 -0.734 -0.02 0.569 0.498 0.654 0.736 0.672 0.087 -0.743 -0.66 -0.109 -0.665 0.744 0.072 0.678 -0.733 -0.043 0.734 0.665 0.138 -0.742 -0.651 -0.16 -0.664 0.741 0.096 0.677 -0.733 -0.067 0.733 0.654 0.188 -0.74 -0.639 -0.209 -0.664 0.738 0.12 0.676 -0.731 -0.09 0.73 0.641 0.237 -0.529 -0.366 -0.766 -0.502 0.731 -0.462 0.596 -0.47 -0.651 0.649 0.653 -0.39 -0.017 -0.044 0.999 0.083 0.225 -0.971 -0.695 0.37 0.616 -0.353 -0.74 0.572 -0.465 -0.885 0.015 -0.882 0.467 0.071 0.754 -0.386 0.532 0.888 -0.457 -0.046 0.411 0.726 0.551 0.46 0.888 0.01 -0.467 -0.884 -0.008 -0.88 0.466 0.087 0.887 -0.458 -0.061 0.462 0.886 0.033 -0.469 -0.883 -0.031 -0.879 0.465 0.102 0.886 -0.458 -0.076 0.464 0.884 0.056 -0.471 -0.88 -0.054 -0.878 0.465 0.117 0.884 -0.458 -0.091 0.467 0.881 0.079 -0.43 -0.668 -0.607 -0.763 0.457 -0.457 0.7 -0.308 -0.645 0.36 0.806 -0.47 0.051 -0.013 0.999 -0.06 0.135 -0.989 0.516 0.579 0.631 -0.588 0.489 0.644 -0.763 0.645 0.046 0.648 0.761 0.019 -0.503 -0.614 0.608 -0.65 -0.76 0.01 0.601 -0.526 0.602 0.758 -0.652 -0.017 -0.762 0.645 0.055 0.648 0.762 0 -0.65 -0.76 0.029 0.758 -0.652 -0.026 -0.761 0.645 0.065 0.647 0.762 -0.019 -0.649 -0.76 0.048 0.757 -0.652 -0.035 -0.76 0.646 0.074 0.647 0.762 -0.038 -0.648 -0.759 0.066 0.757 -0.652 -0.045 -0.651 0.519 -0.553 0.469 0.604 -0.644 -0.565 -0.612 -0.553 0.557 -0.516 -0.651 0.01 -0.029 1 -0.074 0 -0.997 0.45 0.686 0.572 -0.677 0.375 0.634 -0.866 0.491 0.095 0.501 0.865 0.027 -0.353 -0.746 0.564 -0.479 -0.878 -0.004 0.773 -0.436 0.461 0.872 -0.484 -0.071 -0.867 0.495 0.052 0.502 0.863 0.05 -0.482 -0.876 -0.025 0.873 -0.488 -0.028 -0.866 0.499 0.009 0.503 0.861 0.072 -0.485 -0.873 -0.047 0.87 -0.492 0.015 -0.863 0.504 -0.033 0.503 0.859 0.095 -0.487 -0.871 -0.069 0.866 -0.497 0.057 -0.664 0.452 -0.595 0.489 0.736 -0.469 -0.335 -0.702 -0.628 0.79 -0.399 -0.466 0.085 -0.053 0.995 0.141 0.035 -0.989 0.849 0.092 0.521 0.007 0.884 0.468 -0.015 0.99 -0.143 1 0.011 -0.022 -0.804 0.07 0.59 -0.999 -0.017 0.048 0.038 -0.713 0.7 0.023 -0.985 0.169 -0.015 0.986 -0.168 1 0.013 -0.007 -0.999 -0.019 0.033 0.023 -0.981 0.194 -0.014 0.981 -0.192 1 0.016 0.008 -1 -0.021 0.019 0.022 -0.976 0.218 -0.013 0.976 -0.216 1 0.018 0.022 -1 -0.022 0.004 0.02 -0.97 0.242 0.004 0.659 -0.752 0.852 -0.111 -0.511 -0.826 -0.148 -0.543 0.03 -0.933 -0.358 0.039 0.144 0.989 0.03 -0.238 -0.971 0.551 0.085 -0.83 -0.173 0.808 0.564 -0.065 0.789 0.611 0.384 0.065 -0.921 -0.358 -0.891 0.28 -0.342 -0.827 0.445 0.247 0.794 0.555 -0.104 -0.036 -0.994 -0.096 -0.766 0.636 0.38 0.867 0.321 -0.4 -0.063 -0.915 0.035 -0.815 0.578 0.568 0.107 -0.816 -0.362 0.808 0.464 -0.275 0.786 0.554 0.394 0.073 -0.916 -0.186 -0.911 0.367 -0.156 -0.848 0.507 0.043 0.816 0.576 -0.109 -0.047 -0.993 0.122 -0.762 0.636 0.171 0.913 0.37 -0.424 -0.101 -0.9 0.271 -0.814 0.513 0.877 0.268 0.398 -0.853 0.423 0.306 -0.912 0.34 0.23 0.647 0.303 0.7 -0.03 -0.719 -0.694 0.285 -0.585 -0.759 -0.886 0.315 -0.339 0.025 -0.054 0.998 0.9 -0.32 -0.297 -0.513 0.432 -0.742 -0.494 -0.28 0.823 0.981 -0.174 -0.086 0.678 0.141 -0.721 -0.46 0.786 0.413 -0.372 0.759 0.534 0.492 0.101 -0.865 -0.198 -0.922 0.331 -0.18 -0.852 0.492 0.028 0.797 0.603 -0.118 -0.052 -0.992 0.168 -0.733 0.659 0.183 0.923 0.339 -0.524 -0.125 -0.842 0.359 -0.801 0.479 0.711 0.164 0.684 -0.208 0.708 -0.675 0.026 0.766 -0.642 0.528 0.093 0.844 -0.52 -0.854 0.001 -0.5 -0.865 -0.034 0.393 0.831 -0.394 -0.018 0.081 0.997 -0.395 -0.866 -0.306 0.53 0.77 -0.356 -0.382 0.039 0.923 -0.176 -0.806 -0.565 -0.22 0.579 -0.785 -0.741 -0.336 0.582 -0.74 -0.225 0.634 -0.175 0.421 -0.89 0.946 -0.231 0.229 0.889 -0.233 0.395 -0.802 0.095 0.59 0.013 -0.053 -0.999 0.797 -0.004 0.603 -0.903 0.229 0.364 0.099 -0.352 -0.931 0.821 0.141 0.553 -0.244 0.591 -0.769 -0.709 -0.524 0.472 -0.7 -0.436 0.566 -0.184 0.43 -0.884 0.944 -0.058 0.326 0.882 -0.045 0.469 -0.788 -0.117 0.604 0.025 -0.056 -0.998 0.755 0.219 0.618 -0.913 0.008 0.407 0.141 -0.371 -0.918 0.775 0.386 0.501 -0.4 0.806 0.437 -0.236 -0.934 0.269 -0.148 -0.971 0.188 -0.384 0.567 0.729 0.685 0.119 -0.718 0.491 0.423 -0.762 -0.153 -0.918 -0.366 0.09 -0.014 0.996 0.129 0.959 -0.254 -0.358 -0.557 -0.75 0.398 -0.491 0.775 -0.018 0.999 -0.04 -0.291 0.688 -0.665 -0.669 -0.617 0.414 -0.655 -0.529 0.539 -0.227 0.52 -0.823 0.955 -0.068 0.289 0.89 -0.068 0.451 -0.765 -0.13 0.63 0.032 -0.065 -0.997 0.719 0.26 0.644 -0.926 0.02 0.377 0.185 -0.47 -0.863 0.743 0.475 0.472 -0.262 0.653 0.711 -0.688 -0.296 -0.663 -0.786 -0.068 -0.614 -0.155 0.479 0.864 0.922 -0.384 -0.053 0.928 -0.361 -0.087 -0.897 0.28 -0.341 -0.034 -0.079 0.996 0.904 -0.245 -0.35 -0.856 0.424 -0.297 0.072 -0.437 0.897 0.801 -0.021 -0.598 -0.456 -0.618 -0.64 0.713 -0.367 0.597 0.607 -0.456 0.651 -0.36 -0.506 -0.784 -0.291 0.956 0.037 -0.201 0.95 0.24 0.334 -0.721 0.607 -0.068 -0.04 -0.997 -0.289 0.768 0.571 0.239 -0.913 0.332 0.17 0.218 -0.961 -0.423 0.692 0.585 -0.313 -0.707 0.634 0.893 0.428 0.139 0.865 0.501 0.025 -0.124 -0.509 0.852 -0.6 0.283 -0.749 -0.7 -0.013 -0.714 0.751 0.411 -0.518 0.07 0.137 0.988 -0.842 -0.504 -0.193 0.564 0.077 -0.822 0.211 0.571 0.793 -0.786 -0.617 0.037 -0.41 -0.661 -0.629 0.981 -0.064 0.181 0.94 -0.051 0.338 -0.349 -0.509 -0.787 -0.598 0.672 0.437 -0.577 0.601 0.554 0.786 -0.303 0.538 -0.089 -0.013 -0.996 -0.69 0.279 0.668 0.773 -0.495 0.396 0.089 0.34 -0.936 -0.868 0.154 0.473 -0.377 -0.56 -0.738 0.932 -0.19 0.31 0.883 -0.207 0.422 -0.307 -0.425 -0.852 -0.583 0.705 0.404 -0.558 0.65 0.516 0.741 -0.417 0.526 -0.088 -0.025 -0.996 -0.655 0.421 0.628 0.719 -0.572 0.395 0.065 0.234 -0.97 -0.792 0.333 0.512 -0.548 -0.637 0.542 0.613 -0.608 0.505 0.718 -0.69 -0.085 -0.697 -0.717 -0.009 0.585 0.549 0.598 0.683 0.73 0.037 -0.577 0.522 0.629 -0.724 0.681 0.11 0.714 -0.688 -0.13 -0.696 -0.718 0.013 0.683 0.73 0.015 -0.719 0.678 0.155 0.707 -0.685 -0.174 -0.694 -0.719 0.036 0.683 0.731 -0.008 -0.711 0.675 0.199 0.698 -0.682 -0.218 -0.691 -0.72 0.059 0.682 0.731 -0.03 -0.7 0.672 0.242 0.451 -0.49 -0.746 -0.7 -0.524 -0.485 0.44 0.685 -0.581 -0.704 0.636 -0.318 0.033 -0.077 0.996 -0.238 0.141 -0.961 0.051 -0.817 0.575 0.87 0.027 0.492 0.997 0.007 -0.075 0.006 -0.999 0.05 0.026 0.848 0.529 -0.025 0.999 -0.025 -0.797 0.005 0.603 -0.995 -0.017 0.099 0.993 0.004 -0.118 0.008 -0.997 0.072 -0.025 0.999 -0.046 -0.99 -0.012 0.142 0.987 -0.002 -0.16 0.009 -0.996 0.094 -0.026 0.997 -0.067 -0.983 -0.006 0.184 0.98 -0.01 -0.201 0.012 -0.993 0.115 -0.026 0.996 -0.088 -0.974 0.002 0.225 0.69 -0.08 -0.719 -0.128 -0.901 -0.415 -0.164 0.774 -0.612 -0.95 -0.06 -0.307 0.07 0.03 0.997 -0.271 -0.131 -0.954 0.331 0.492 -0.805 -0.62 0.46 0.636 -0.522 0.511 0.683 0.21 0.378 -0.902 0.301 -0.936 0.184 0.282 -0.892 0.354 -0.285 0.721 0.631 -0.108 -0.009 -0.994 0.444 -0.704 0.554 -0.239 0.881 0.407 -0.317 -0.229 -0.92 0.574 -0.653 0.495 0.33 0.519 -0.789 -0.771 0.346 0.534 -0.685 0.377 0.623 0.213 0.39 -0.896 0.452 -0.849 0.272 0.443 -0.794 0.417 -0.457 0.605 0.652 -0.105 -0.021 -0.994 0.612 -0.56 0.559 -0.428 0.779 0.458 -0.31 -0.276 -0.91 0.754 -0.493 0.433 0.526 0.733 0.43 -0.909 -0.253 0.33 -0.905 -0.347 0.246 0.344 0.59 0.731 0.399 -0.513 -0.76 0.556 -0.2 -0.807 -0.899 -0.302 -0.317 0.104 -0.111 0.988 0.88 0.36 -0.311 -0.71 0.062 -0.701 -0.164 -0.605 0.78 0.859 0.505 -0.087 0.398 0.606 -0.688 -0.835 0.269 0.479 -0.745 0.296 0.598 0.274 0.47 -0.839 0.448 -0.863 0.235 0.425 -0.811 0.401 -0.455 0.578 0.677 -0.109 -0.031 -0.994 0.63 -0.51 0.585 -0.427 0.796 0.428 -0.37 -0.363 -0.855 0.812 -0.423 0.402 0.48 0.526 0.702 -0.646 0.467 -0.604 -0.499 0.66 -0.561 0.393 0.341 0.854 0.139 -0.986 -0.09 0.159 -0.979 -0.125 -0.242 0.922 -0.303 -0.015 -0.035 0.999 0.228 -0.891 -0.392 -0.095 0.959 -0.268 -0.275 -0.297 0.914 0.347 -0.684 -0.642 0.812 0.129 0.57 -0.083 0.791 0.606 -0.148 0.989 0.003 0.988 0.146 -0.049 -0.75 -0.099 0.654 -0.987 -0.142 0.077 0.145 -0.762 0.631 0.142 -0.99 0.026 -0.147 0.989 0.013 0.987 0.145 -0.067 -0.985 -0.141 0.096 0.141 -0.99 0.017 -0.145 0.989 0.022 0.986 0.145 -0.086 -0.983 -0.141 0.114 0.14 -0.99 0.008 -0.144 0.989 0.031 0.984 0.144 -0.104 -0.981 -0.14 0.132 0.139 -0.99 -0.001 -0.184 0.792 -0.582 0.716 0.112 -0.689 -0.864 -0.116 -0.489 0.042 -0.791 -0.611 0.05 0.024 0.998 -0.118 -0.003 -0.993 0.53 -0.579 0.619 0.633 0.557 0.538 0.771 0.633 -0.071 0.633 -0.772 0.067 -0.506 0.662 0.553 -0.648 0.76 -0.039 -0.609 -0.474 0.636 -0.764 -0.638 0.098 0.77 0.626 -0.118 0.633 -0.769 0.091 -0.648 0.759 -0.062 -0.762 -0.631 0.145 0.769 0.617 -0.165 0.632 -0.766 0.114 -0.647 0.758 -0.085 -0.761 -0.62 0.191 0.768 0.605 -0.21 0.632 -0.762 0.137 -0.646 0.756 -0.108 -0.759 -0.607 0.236 0.566 0.346 -0.748 0.466 -0.77 -0.436 -0.585 0.477 -0.657 -0.686 -0.64 -0.346 0.02 0.07 0.997 -0.104 -0.257 -0.961 -0.561 0.677 0.476 -0.718 -0.48 0.504 -0.799 -0.596 -0.084 -0.591 0.804 -0.065 0.43 -0.66 0.616 0.597 -0.798 0.09 0.582 0.498 0.643 0.791 0.602 0.109 -0.796 -0.595 -0.108 -0.593 0.804 -0.051 0.598 -0.798 0.076 0.788 0.601 0.133 -0.794 -0.594 -0.132 -0.594 0.803 -0.036 0.599 -0.798 0.061 0.786 0.599 0.157 -0.791 -0.592 -0.156 -0.596 0.803 -0.022 0.6 -0.798 0.047 0.783 0.596 0.181 -0.565 -0.436 -0.7 -0.421 0.726 -0.543 0.594 -0.629 -0.502 0.737 0.545 -0.4 -0.118 0.015 0.993 0.156 0.1 -0.983 -0.931 0.163 -0.327 0.151 -0.436 0.887 0.498 -0.272 0.823 -0.994 0.053 0.094 0.797 0.285 -0.533 0.577 0.21 -0.789 0.979 -0.128 0.159 -0.529 0.246 0.812 -0.602 -0.011 -0.798 0.865 -0.209 -0.457 0.015 0.429 0.903 -0.882 -0.188 -0.432 -0.607 0.175 0.776 0.256 -0.933 -0.253 0.147 -0.962 -0.231 -0.441 0.152 0.884 0.387 0.757 -0.526 0.253 0.829 -0.499 -0.046 -0.963 -0.267 0.062 0.098 0.993 0.025 0.893 -0.45 -0.213 -0.885 -0.413 0.374 0.047 0.926 -0.142 0.833 -0.534 -0.974 0.132 -0.186 0.555 -0.615 -0.56 0.81 -0.48 -0.338 -0.915 0.096 -0.392 0.437 0.466 0.769 0.078 0.445 0.892 0.888 -0.323 0.328 -0.329 0.084 -0.94 -0.541 0.214 0.813 0.804 -0.331 0.495 0.082 0.21 -0.974 -0.887 0.106 0.449 -0.959 0.115 -0.259 0.586 -0.669 -0.457 0.819 -0.526 -0.232 -0.888 0.094 -0.45 0.389 0.54 0.746 0.046 0.512 0.858 0.845 -0.38 0.376 -0.297 0.106 -0.949 -0.54 0.246 0.805 0.778 -0.409 0.476 0.103 0.259 -0.96 -0.883 0.135 0.45 0.568 -0.392 -0.724 0.419 0.594 0.687 0.498 0.477 0.724 0.46 -0.269 -0.846 -0.97 -0.242 0.018 -0.954 -0.182 0.236 0.742 0.204 0.639 0.023 0.072 -0.997 -0.771 -0.324 0.548 0.927 0.14 0.347 -0.21 0.312 -0.926 -0.705 -0.46 0.54 0.686 -0.441 0.579 -0.356 0.891 0.281 -0.433 0.887 0.163 0.501 -0.27 0.823 -0.329 -0.465 -0.822 -0.048 -0.584 -0.81 -0.356 0.842 -0.405 -0.117 -0.063 0.991 0.434 -0.838 -0.33 -0.041 0.673 -0.738 -0.535 0.126 0.835 0.557 -0.825 -0.092 0.614 -0.351 -0.707 0.14 0.937 0.321 0.125 0.873 0.471 0.464 -0.258 -0.847 -0.7 -0.612 0.367 -0.626 -0.611 0.485 0.362 0.677 0.641 -0.005 0.052 -0.999 -0.318 -0.754 0.574 0.548 0.675 0.494 -0.336 0.237 -0.912 -0.212 -0.911 0.353 0.514 -0.296 -0.805 0.26 0.86 0.438 0.275 0.794 0.542 0.383 -0.203 -0.901 -0.732 -0.591 0.338 -0.674 -0.585 0.451 0.469 0.629 0.62 0.007 0.053 -0.999 -0.454 -0.707 0.542 0.62 0.618 0.483 -0.234 0.212 -0.949 -0.381 -0.83 0.407 0.097 -0.566 -0.819 0.799 0.21 0.564 0.778 0.116 0.617 0.083 -0.408 -0.909 -0.918 0.32 0.235 -0.858 0.316 0.405 0.789 -0.17 0.591 -0.005 0.038 -0.999 -0.792 0.1 0.603 0.876 -0.307 0.372 -0.027 0.316 -0.948 -0.837 -0.024 0.547 0.12 -0.581 -0.805 0.808 0.374 0.455 0.781 0.301 0.548 0.09 -0.417 -0.904 -0.931 0.162 0.328 -0.871 0.144 0.47 0.806 0.017 0.592 -0.017 0.043 -0.999 -0.786 -0.098 0.61 0.91 -0.107 0.401 -0.067 0.339 -0.938 -0.836 -0.239 0.494 0.255 -0.832 0.493 0.465 0.841 0.275 0.387 0.902 0.193 0.282 -0.565 0.776 -0.707 -0.032 -0.706 -0.58 -0.318 -0.75 0.374 0.837 -0.4 -0.084 0.031 0.996 -0.363 -0.894 -0.264 0.477 0.442 -0.76 -0.305 0.505 0.808 -0.219 -0.975 -0.034 0.152 -0.689 -0.709 0.793 0.46 0.4 0.76 0.387 0.523 0.117 -0.509 -0.853 -0.941 0.171 0.291 -0.876 0.166 0.454 0.786 0.032 0.617 -0.022 0.051 -0.998 -0.759 -0.137 0.636 0.921 -0.119 0.372 -0.09 0.438 -0.894 -0.825 -0.319 0.467 0.133 -0.634 0.762 0.736 0.171 -0.655 0.791 -0.036 -0.61 0.057 -0.442 0.895 -0.884 0.463 -0.056 -0.893 0.441 -0.091 0.863 -0.362 -0.352 0.055 0.074 0.996 -0.876 0.322 -0.358 0.809 -0.498 -0.312 0.026 0.408 0.913 -0.798 0.104 -0.594 0.039 -0.78 0.625 0.823 0.057 0.566 0.999 0.043 0.003 0.041 -0.998 0.049 -0.024 0.832 0.554 -0.037 0.999 -0.022 -0.809 -0.006 0.588 -0.999 -0.034 0.023 0.999 0.042 0.011 0.04 -0.999 0.031 -0.036 0.999 -0.004 -0.999 -0.034 0.015 0.999 0.042 0.019 0.04 -0.999 0.014 -0.036 0.999 0.013 -0.999 -0.034 0.006 0.999 0.041 0.028 0.04 -0.999 -0.004 -0.036 0.999 0.03 -0.999 -0.034 -0.002 0.839 0.045 -0.542 0.042 -0.805 -0.592 -0.02 0.835 -0.55 -0.818 -0.017 -0.574 0.012 0.045 0.999 0.02 0.025 -0.999 0.287 -0.819 0.496 0.733 0.236 0.638 0.923 0.374 0.093 0.38 -0.921 -0.085 -0.339 0.664 0.666 -0.392 0.913 0.11 -0.784 -0.386 0.486 -0.921 -0.384 -0.069 0.924 0.377 0.07 0.379 -0.923 -0.069 -0.391 0.916 0.094 -0.922 -0.385 -0.046 0.924 0.378 0.047 0.379 -0.924 -0.053 -0.389 0.918 0.079 -0.922 -0.386 -0.022 0.925 0.379 0.024 0.378 -0.925 -0.037 -0.388 0.919 0.063 -0.922 -0.387 0.001 0.761 0.341 -0.551 0.3 -0.739 -0.603 -0.33 0.779 -0.533 -0.783 -0.299 -0.546 -0.044 -0.132 0.99 -0.027 0.035 -0.999 -0.052 0.575 -0.816 -0.789 -0.105 0.605 -0.755 -0.006 0.656 -0.055 0.414 -0.909 0.857 -0.461 0.231 0.799 -0.444 0.405 -0.729 0.297 0.616 -0.017 -0.056 -0.998 0.766 -0.205 0.609 -0.803 0.449 0.391 -0.022 -0.342 -0.939 0.828 -0.081 0.555 -0.071 0.594 -0.802 -0.82 -0.283 0.498 -0.781 -0.205 0.59 -0.061 0.424 -0.904 0.897 -0.297 0.328 0.839 -0.266 0.474 -0.772 0.102 0.628 -0.007 -0.062 -0.998 0.786 0.006 0.618 -0.867 0.247 0.432 0.013 -0.37 -0.929 0.854 0.149 0.499 -0.146 0.871 0.469 -0.513 -0.804 0.3 -0.443 -0.871 0.215 -0.193 0.622 0.759 0.67 -0.074 -0.739 0.572 0.244 -0.783 -0.436 -0.817 -0.379 0.094 -0.028 0.995 0.417 0.863 -0.285 -0.511 -0.41 -0.756 0.249 -0.542 0.803 0.291 0.955 -0.054 -0.088 0.705 -0.704 -0.814 -0.379 0.441 -0.769 -0.301 0.565 -0.076 0.521 -0.85 0.906 -0.309 0.289 0.841 -0.29 0.457 -0.753 0.084 0.653 -0.003 -0.071 -0.997 0.763 0.052 0.644 -0.878 0.261 0.401 0.026 -0.473 -0.881 0.851 0.237 0.469 -0.05 0.67 0.74 -0.744 -0.092 -0.662 -0.774 0.137 -0.618 0.005 0.473 0.881 0.794 -0.604 -0.064 0.806 -0.584 -0.1 -0.797 0.492 -0.351 -0.04 -0.054 0.998 0.802 -0.465 -0.376 -0.721 0.62 -0.309 -0.046 -0.4 0.915 0.748 -0.229 -0.623 0.481 0.706 0.519 -0.626 0.42 0.657 -0.857 0.5 0.127 0.495 0.865 -0.075 -0.321 -0.691 0.648 -0.495 -0.863 0.102 0.781 -0.405 0.476 0.857 -0.506 -0.101 -0.855 0.5 0.135 0.493 0.865 -0.092 -0.492 -0.862 0.119 0.856 -0.506 -0.109 -0.854 0.501 0.143 0.491 0.864 -0.109 -0.49 -0.861 0.136 0.854 -0.506 -0.117 -0.852 0.502 0.151 0.488 0.863 -0.127 -0.487 -0.86 0.153 0.853 -0.507 -0.125 -0.819 0.39 -0.422 0.285 0.676 -0.679 -0.513 -0.739 -0.436 0.6 -0.452 -0.66 0.136 0.013 0.991 -0.199 -0.055 -0.978 -0.315 0.739 0.595 -0.725 -0.37 0.581 -0.903 -0.426 0.061 -0.422 0.905 0.058 0.386 -0.771 0.507 0.42 -0.907 -0.033 0.794 0.339 0.504 0.907 0.419 -0.038 -0.902 -0.426 0.068 -0.422 0.905 0.042 0.421 -0.907 -0.018 0.907 0.419 -0.045 -0.902 -0.425 0.076 -0.423 0.906 0.026 0.421 -0.907 -0.002 0.907 0.419 -0.052 -0.902 -0.424 0.083 -0.424 0.906 0.01 0.422 -0.906 0.014 0.906 0.418 -0.06 -0.801 -0.387 -0.458 -0.396 0.74 -0.544 0.321 -0.791 -0.52 0.737 0.33 -0.59 0.064 -0.028 0.998 -0.066 -0.057 -0.996 -0.549 0.688 0.474 -0.684 -0.464 0.563 -0.786 -0.618 0.001 -0.614 0.784 -0.092 0.468 -0.614 0.635 0.61 -0.784 0.117 0.599 0.542 0.59 0.789 0.614 0.026 -0.787 -0.617 0.009 -0.613 0.783 -0.108 0.608 -0.783 0.133 0.79 0.613 0.018 -0.788 -0.616 0.017 -0.611 0.781 -0.124 0.607 -0.781 0.149 0.79 0.612 0.009 -0.789 -0.614 0.025 -0.61 0.78 -0.14 0.605 -0.779 0.164 0.791 0.611 0.001 -0.603 -0.589 -0.538 -0.464 0.58 -0.669 0.557 -0.731 -0.393 0.707 0.425 -0.565 -0.073 0.067 0.995 0.092 -0.147 -0.985 0.507 0.499 0.703 -0.637 0.494 0.592 -0.711 0.703 0.012 0.697 0.694 0.18 -0.617 -0.646 0.45 -0.685 -0.712 -0.154 0.527 -0.641 0.558 0.715 -0.699 0.016 -0.704 0.71 -0.034 0.694 0.691 0.203 -0.683 -0.708 -0.177 0.706 -0.705 0.062 -0.693 0.716 -0.079 0.691 0.687 0.226 -0.682 -0.704 -0.199 0.695 -0.711 0.107 -0.681 0.722 -0.123 0.686 0.683 0.249 -0.679 -0.7 -0.221 0.681 -0.717 0.15 -0.393 0.629 -0.671 0.726 0.6 -0.336 -0.397 -0.538 -0.744 0.719 -0.563 -0.408 -0.094 -0.126 0.988 0.291 0.056 -0.955 -0.602 -0.067 -0.796 0.07 -0.771 0.633 -0.023 -0.729 0.684 -0.442 -0.089 -0.892 0.501 0.851 0.153 0.488 0.81 0.325 -0.32 -0.687 0.652 0.032 -0.088 -0.996 0.259 0.808 0.53 -0.476 -0.762 0.439 0.323 -0.11 -0.94 0.14 0.871 0.472 -0.621 -0.085 -0.779 0.238 -0.817 0.526 0.167 -0.77 0.616 -0.453 -0.094 -0.887 0.346 0.906 0.244 0.318 0.864 0.39 -0.13 -0.74 0.659 0.039 -0.078 -0.996 0.054 0.841 0.539 -0.28 -0.834 0.476 0.353 -0.074 -0.933 -0.084 0.904 0.418 -0.87 -0.06 0.489 0.765 -0.563 0.311 0.835 -0.502 0.223 -0.619 -0.108 0.778 0.095 0.637 -0.765 -0.226 0.558 -0.798 0.771 -0.531 -0.352 0.057 0.163 0.985 -0.832 0.472 -0.29 0.358 -0.607 -0.709 0.579 0.276 0.767 -0.929 0.365 -0.056 -0.73 -0.088 -0.678 0.329 -0.82 0.469 0.26 -0.765 0.588 -0.549 -0.099 -0.83 0.357 0.911 0.207 0.341 0.863 0.374 -0.111 -0.722 0.683 0.048 -0.074 -0.996 0.008 0.823 0.567 -0.295 -0.844 0.448 0.458 -0.064 -0.887 -0.169 0.904 0.392 -0.66 0.045 0.75 0.031 -0.809 -0.587 -0.193 -0.821 -0.538 -0.456 0.097 0.884 0.633 0.763 -0.128 0.613 0.773 -0.163 -0.534 -0.8 -0.273 0.075 0.02 0.997 0.491 0.761 -0.425 -0.657 -0.715 -0.237 0.423 -0.017 0.906 0.254 0.709 -0.658 -0.166 -0.799 0.578 0.794 -0.211 0.569 0.971 -0.234 -0.04 -0.236 -0.972 -0.014 0.202 0.744 0.636 0.227 0.973 0.042 -0.757 0.156 0.634 -0.972 0.226 0.067 0.97 -0.233 -0.065 -0.236 -0.972 0.003 0.227 0.974 0.026 -0.97 0.226 0.093 0.968 -0.233 -0.091 -0.235 -0.972 0.02 0.227 0.974 0.009 -0.967 0.226 0.118 0.965 -0.234 -0.116 -0.234 -0.972 0.036 0.226 0.974 -0.007 -0.963 0.227 0.143 0.7 -0.181 -0.69 -0.266 -0.784 -0.561 0.106 0.789 -0.606 -0.864 0.193 -0.464 0.03 -0.045 0.999 -0.135 0.009 -0.991 -0.588 -0.462 0.664 0.555 -0.535 0.637 0.662 -0.746 0.073 -0.75 -0.651 0.119 0.619 0.601 0.505 0.744 0.662 -0.093 -0.524 0.673 0.521 -0.666 0.745 -0.046 0.66 -0.749 0.049 -0.749 -0.649 0.135 0.743 0.66 -0.109 -0.664 0.748 -0.022 0.658 -0.753 0.025 -0.748 -0.646 0.15 0.743 0.657 -0.124 -0.661 0.751 0.002 0.655 -0.756 0.001 -0.747 -0.644 0.166 0.743 0.655 -0.14 -0.657 0.754 0.026 0.462 -0.673 -0.578 -0.69 -0.582 -0.431 0.532 0.484 -0.694 -0.617 0.575 -0.537 0.026 0.118 0.993 -0.138 -0.085 -0.987 -0.743 0.442 0.504 -0.54 -0.68 0.496 -0.572 -0.808 -0.14 -0.807 0.587 -0.06 0.577 -0.504 0.643 0.815 -0.573 0.089 0.366 0.614 0.7 0.559 0.812 0.166 -0.566 -0.803 -0.189 -0.81 0.585 -0.037 0.817 -0.572 0.066 0.552 0.805 0.216 -0.56 -0.794 -0.237 -0.813 0.583 -0.014 0.819 -0.572 0.044 0.547 0.795 0.264 -0.555 -0.782 -0.284 -0.815 0.58 0.009 0.821 -0.57 0.021 0.541 0.782 0.31 -0.342 -0.477 -0.81 -0.584 0.615 -0.529 0.773 -0.334 -0.54 0.544 0.783 -0.301 -0.143 -0.054 0.988 0.166 0.252 -0.953 -0.135 0.758 -0.638 -0.695 -0.169 0.699 -0.665 -0.028 0.747 -0.153 0.607 -0.78 0.832 -0.552 -0.059 0.785 -0.6 0.153 -0.634 0.355 0.687 -0.099 0.054 -0.994 0.779 -0.397 0.485 -0.718 0.558 0.416 -0.106 -0.299 -0.948 0.834 -0.251 0.492 -0.139 0.758 0.637 -0.37 -0.907 0.204 -0.316 -0.945 0.082 -0.127 0.491 0.862 0.535 0.156 -0.83 0.424 0.452 -0.785 -0.356 -0.814 -0.459 0.158 -0.131 0.979 0.277 0.929 -0.246 -0.472 -0.444 -0.762 0.306 -0.562 0.769 0.191 0.981 -0.005 -0.195 0.761 -0.619 -0.753 -0.59 0.291 -0.693 -0.57 0.442 -0.164 0.603 -0.781 0.936 -0.125 0.328 0.888 -0.08 0.452 -0.716 -0.268 0.644 -0.066 0.047 -0.997 0.779 0.248 0.575 -0.85 -0.112 0.515 0.035 -0.34 -0.94 0.808 0.459 0.37 -0.169 0.661 -0.731 -0.782 -0.457 0.424 -0.742 -0.409 0.532 -0.149 0.51 -0.847 0.942 -0.161 0.295 0.901 -0.132 0.412 -0.757 -0.15 0.635 -0.075 0.056 -0.996 0.84 0.114 0.53 -0.858 -0.016 0.513 -0.019 -0.244 -0.97 0.873 0.27 0.406 -0.218 0.748 0.627 -0.753 -0.271 0.599 -0.956 -0.294 0.024 -0.289 0.954 0.08 0.263 -0.806 0.53 0.3 -0.952 -0.054 0.799 0.212 0.563 0.954 0.299 0.003 -0.957 -0.292 -0 -0.289 0.953 0.095 0.299 -0.952 -0.069 0.955 0.296 0.027 -0.957 -0.289 -0.024 -0.288 0.951 0.111 0.298 -0.951 -0.085 0.955 0.293 0.051 -0.957 -0.285 -0.048 -0.288 0.949 0.126 0.297 -0.95 -0.1 0.955 0.288 0.075 -0.77 -0.156 -0.619 -0.221 0.863 -0.455 0.263 -0.707 -0.656 0.809 0.314 -0.496 0.039 -0.05 0.998 0.037 0.14 -0.989</float_array><technique_common><accessor source="#weeds_+01+01_solid-nrm-a" count="1120" stride="3"><param name="X" type="float"/><param name="Y" type="float"/><param name="Z" type="float"/></accessor></technique_common></source>
        <vertices id="weeds_+01+01_solid-vtx"><input semantic="POSITION" source="#weeds_+01+01_solid-pos"/></vertices>
        <triangles count="1860" material="MAT_WEED_STEM-mat"><input semantic="VERTEX" source="#weeds_+01+01_solid-vtx" offset="0"/><input semantic="NORMAL" source="#weeds_+01+01_solid-nrm" offset="1"/><p>0 0 1 1 2 2 0 0 2 2 3 3 1 1 4 4 5 5 1 1 5 5 2 2 4 4 0 0 3 3 4 4 3 3 5 5 3 3 2 2 6 6 3 3 6 6 7 7 2 2 5 5 8 8 2 2 8 8 6 6 5 5 3 3 7 7 5 5 7 7 8 8 7 7 6 6 9 9 7 7 9 9 10 10 6 6 8 8 11 11 6 6 11 11 9 9 8 8 7 7 10 10 8 8 10 10 11 11 12 12 13 13 14 14 12 12 14 14 15 15 13 13 16 16 17 17 13 13 17 17 14 14 16 16 12 12 15 15 16 16 15 15 17 17 15 15 14 14 18 18 15 15 18 18 19 19 14 14 17 17 20 20 14 14 20 20 18 18 17 17 15 15 19 19 17 17 19 19 20 20 19 19 18 18 21 21 19 19 21 21 22 22 18 18 20 20 23 23 18 18 23 23 21 21 20 20 19 19 22 22 20 20 22 22 23 23 24 24 25 25 26 26 24 24 26 26 27 27 25 25 28 28 29 29 25 25 29 29 26 26 28 28 24 24 27 27 28 28 27 27 29 29 27 27 26 26 30 30 27 27 30 30 31 31 26 26 29 29 32 32 26 26 32 32 30 30 29 29 27 27 31 31 29 29 31 31 32 32 31 31 30 30 33 33 31 31 33 33 34 34 30 30 32 32 35 35 30 30 35 35 33 33 32 32 31 31 34 34 32 32 34 34 35 35 36 36 37 37 38 38 36 36 38 38 39 39 37 37 40 40 41 41 37 37 41 41 38 38 40 40 36 36 39 39 40 40 39 39 41 41 39 39 38 38 42 42 39 39 42 42 43 43 38 38 41 41 44 44 38 38 44 44 42 42 41 41 39 39 43 43 41 41 43 43 44 44 43 43 42 42 45 45 43 43 45 45 46 46 42 42 44 44 47 47 42 42 47 47 45 45 44 44 43 43 46 46 44 44 46 46 47 47 48 48 49 49 50 50 48 48 50 50 51 51 49 49 52 52 53 53 49 49 53 53 50 50 52 52 54 54 55 55 52 52 55 55 53 53 54 54 48 48 51 51 54 54 51 51 55 55 51 51 50 50 56 56 51 51 56 56 57 57 50 50 53 53 58 58 50 50 58 58 56 56 53 53 55 55 59 59 53 53 59 59 58 58 55 55 51 51 57 57 55 55 57 57 59 59 57 57 56 56 60 60 57 57 60 60 61 61 56 56 58 58 62 62 56 56 62 62 60 60 58 58 59 59 63 63 58 58 63 63 62 62 59 59 57 57 61 61 59 59 61 61 63 63 61 61 60 60 64 64 61 61 64 64 65 65 60 60 62 62 66 66 60 60 66 66 64 64 62 62 63 63 67 67 62 62 67 67 66 66 63 63 61 61 65 65 63 63 65 65 67 67 65 65 64 64 68 68 65 65 68 68 69 69 64 64 66 66 70 70 64 64 70 70 68 68 66 66 67 67 71 71 66 66 71 71 70 70 67 67 65 65 69 69 67 67 69 69 71 71 48 48 49 49 72 72 49 49 52 52 72 72 52 52 54 54 72 72 54 54 48 48 72 72 68 68 69 69 73 73 70 70 68 68 73 73 71 71 70 70 73 73 69 69 71 71 73 73 74 74 75 75 76 76 74 74 76 76 77 77 75 75 78 78 79 79 75 75 79 79 76 76 78 78 80 80 81 81 78 78 81 81 79 79 80 80 74 74 77 77 80 80 77 77 81 81 77 77 76 76 82 82 77 77 82 82 83 83 76 76 79 79 84 84 76 76 84 84 82 82 79 79 81 81 85 85 79 79 85 85 84 84 81 81 77 77 83 83 81 81 83 83 85 85 83 83 82 82 86 86 83 83 86 86 87 87 82 82 84 84 88 88 82 82 88 88 86 86 84 84 85 85 89 89 84 84 89 89 88 88 85 85 83 83 87 87 85 85 87 87 89 89 87 87 86 86 90 90 87 87 90 90 91 91 86 86 88 88 92 92 86 86 92 92 90 90 88 88 89 89 93 93 88 88 93 93 92 92 89 89 87 87 91 91 89 89 91 91 93 93 91 91 90 90 94 94 91 91 94 94 95 95 90 90 92 92 96 96 90 90 96 96 94 94 92 92 93 93 97 97 92 92 97 97 96 96 93 93 91 91 95 95 93 93 95 95 97 97 74 74 75 75 98 98 75 75 78 78 98 98 78 78 80 80 98 98 80 80 74 74 98 98 94 94 95 95 99 99 96 96 94 94 99 99 97 97 96 96 99 99 95 95 97 97 99 99 100 100 101 101 102 102 100 100 102 102 103 103 101 101 104 104 105 105 101 101 105 105 102 102 104 104 106 106 107 107 104 104 107 107 105 105 106 106 100 100 103 103 106 106 103 103 107 107 103 103 102 102 108 108 103 103 108 108 109 109 102 102 105 105 110 110 102 102 110 110 108 108 105 105 107 107 111 111 105 105 111 111 110 110 107 107 103 103 109 109 107 107 109 109 111 111 109 109 108 108 112 112 109 109 112 112 113 113 108 108 110 110 114 114 108 108 114 114 112 112 110 110 111 111 115 115 110 110 115 115 114 114 111 111 109 109 113 113 111 111 113 113 115 115 113 113 112 112 116 116 113 113 116 116 117 117 112 112 114 114 118 118 112 112 118 118 116 116 114 114 115 115 119 119 114 114 119 119 118 118 115 115 113 113 117 117 115 115 117 117 119 119 117 117 116 116 120 120 117 117 120 120 121 121 116 116 118 118 122 122 116 116 122 122 120 120 118 118 119 119 123 123 118 118 123 123 122 122 119 119 117 117 121 121 119 119 121 121 123 123 100 100 101 101 124 124 101 101 104 104 124 124 104 104 106 106 124 124 106 106 100 100 124 124 120 120 121 121 125 125 122 122 120 120 125 125 123 123 122 122 125 125 121 121 123 123 125 125 126 126 127 127 128 128 126 126 128 128 129 129 127 127 130 130 131 131 127 127 131 131 128 128 130 130 132 132 133 133 130 130 133 133 131 131 132 132 126 126 129 129 132 132 129 129 133 133 129 129 128 128 134 134 129 129 134 134 135 135 128 128 131 131 136 136 128 128 136 136 134 134 131 131 133 133 137 137 131 131 137 137 136 136 133 133 129 129 135 135 133 133 135 135 137 137 135 135 134 134 138 138 135 135 138 138 139 139 134 134 136 136 140 140 134 134 140 140 138 138 136 136 137 137 141 141 136 136 141 141 140 140 137 137 135 135 139 139 137 137 139 139 141 141 139 139 138 138 142 142 139 139 142 142 143 143 138 138 140 140 144 144 138 138 144 144 142 142 140 140 141 141 145 145 140 140 145 145 144 144 141 141 139 139 143 143 141 141 143 143 145 145 143 143 142 142 146 146 143 143 146 146 147 147 142 142 144 144 148 148 142 142 148 148 146 146 144 144 145 145 149 149 144 144 149 149 148 148 145 145 143 143 147 147 145 145 147 147 149 149 126 126 127 127 150 150 127 127 130 130 150 150 130 130 132 132 150 150 132 132 126 126 150 150 146 146 147 147 151 151 148 148 146 146 151 151 149 149 148 148 151 151 147 147 149 149 151 151 152 152 153 153 154 154 152 152 154 154 155 155 153 153 156 156 157 157 153 153 157 157 154 154 156 156 158 158 159 159 156 156 159 159 157 157 158 158 152 152 155 155 158 158 155 155 159 159 155 155 154 154 160 160 155 155 160 160 161 161 154 154 157 157 162 162 154 154 162 162 160 160 157 157 159 159 163 163 157 157 163 163 162 162 159 159 155 155 161 161 159 159 161 161 163 163 161 161 160 160 164 164 161 161 164 164 165 165 160 160 162 162 166 166 160 160 166 166 164 164 162 162 163 163 167 167 162 162 167 167 166 166 163 163 161 161 165 165 163 163 165 165 167 167 165 165 164 164 168 168 165 165 168 168 169 169 164 164 166 166 170 170 164 164 170 170 168 168 166 166 167 167 171 171 166 166 171 171 170 170 167 167 165 165 169 169 167 167 169 169 171 171 169 169 168 168 172 172 169 169 172 172 173 173 168 168 170 170 174 174 168 168 174 174 172 172 170 170 171 171 175 175 170 170 175 175 174 174 171 171 169 169 173 173 171 171 173 173 175 175 152 152 153 153 176 176 153 153 156 156 176 176 156 156 158 158 176 176 158 158 152 152 176 176 172 172 173 173 177 177 174 174 172 172 177 177 175 175 174 174 177 177 173 173 175 175 177 177 178 178 179 179 180 180 178 178 180 180 181 181 179 179 182 182 183 183 179 179 183 183 180 180 182 182 178 178 181 181 182 182 181 181 183 183 181 181 180 180 184 184 181 181 184 184 185 185 180 180 183 183 186 186 180 180 186 186 184 184 183 183 181 181 185 185 183 183 185 185 186 186 185 185 184 184 187 187 185 185 187 187 188 188 184 184 186 186 189 189 184 184 189 189 187 187 186 186 185 185 188 188 186 186 188 188 189 189 190 190 191 191 192 192 190 190 192 192 193 193 191 191 194 194 195 195 191 191 195 195 192 192 194 194 190 190 193 193 194 194 193 193 195 195 193 193 192 192 196 196 193 193 196 196 197 197 192 192 195 195 198 198 192 192 198 198 196 196 195 195 193 193 197 197 195 195 197 197 198 198 197 197 196 196 199 199 197 197 199 199 200 200 196 196 198 198 201 201 196 196 201 201 199 199 198 198 197 197 200 200 198 198 200 200 201 201 202 202 203 203 204 204 202 202 204 204 205 205 203 203 206 206 207 207 203 203 207 207 204 204 206 206 202 202 205 205 206 206 205 205 207 207 205 205 204 204 208 208 205 205 208 208 209 209 204 204 207 207 210 210 204 204 210 210 208 208 207 207 205 205 209 209 207 207 209 209 210 210 209 209 208 208 211 211 209 209 211 211 212 212 208 208 210 210 213 213 208 208 213 213 211 211 210 210 209 209 212 212 210 210 212 212 213 213 214 214 215 215 216 216 214 214 216 216 217 217 215 215 218 218 219 219 215 215 219 219 216 216 218 218 214 214 217 217 218 218 217 217 219 219 217 217 216 216 220 220 217 217 220 220 221 221 216 216 219 219 222 222 216 216 222 222 220 220 219 219 217 217 221 221 219 219 221 221 222 222 221 221 220 220 223 223 221 221 223 223 224 224 220 220 222 222 225 225 220 220 225 225 223 223 222 222 221 221 224 224 222 222 224 224 225 225 226 226 227 227 228 228 226 226 228 228 229 229 227 227 230 230 231 231 227 227 231 231 228 228 230 230 226 226 229 229 230 230 229 229 231 231 229 229 228 228 232 232 229 229 232 232 233 233 228 228 231 231 234 234 228 228 234 234 232 232 231 231 229 229 233 233 231 231 233 233 234 234 233 233 232 232 235 235 233 233 235 235 236 236 232 232 234 234 237 237 232 232 237 237 235 235 234 234 233 233 236 236 234 234 236 236 237 237 238 238 239 239 240 240 238 238 240 240 241 241 239 239 242 242 243 243 239 239 243 243 240 240 242 242 238 238 241 241 242 242 241 241 243 243 241 241 240 240 244 244 241 241 244 244 245 245 240 240 243 243 246 246 240 240 246 246 244 244 243 243 241 241 245 245 243 243 245 245 246 246 245 245 244 244 247 247 245 245 247 247 248 248 244 244 246 246 249 249 244 244 249 249 247 247 246 246 245 245 248 248 246 246 248 248 249 249 250 250 251 251 252 252 250 250 252 252 253 253 251 251 254 254 255 255 251 251 255 255 252 252 254 254 250 250 253 253 254 254 253 253 255 255 253 253 252 252 256 256 253 253 256 256 257 257 252 252 255 255 258 258 252 252 258 258 256 256 255 255 253 253 257 257 255 255 257 257 258 258 257 257 256 256 259 259 257 257 259 259 260 260 256 256 258 258 261 261 256 256 261 261 259 259 258 258 257 257 260 260 258 258 260 260 261 261 262 262 263 263 264 264 262 262 264 264 265 265 263 263 266 266 267 267 263 263 267 267 264 264 266 266 262 262 265 265 266 266 265 265 267 267 265 265 264 264 268 268 265 265 268 268 269 269 264 264 267 267 270 270 264 264 270 270 268 268 267 267 265 265 269 269 267 267 269 269 270 270 269 269 268 268 271 271 269 269 271 271 272 272 268 268 270 270 273 273 268 268 273 273 271 271 270 270 269 269 272 272 270 270 272 272 273 273 274 274 275 275 276 276 274 274 276 276 277 277 275 275 278 278 279 279 275 275 279 279 276 276 278 278 274 274 277 277 278 278 277 277 279 279 277 277 276 276 280 280 277 277 280 280 281 281 276 276 279 279 282 282 276 276 282 282 280 280 279 279 277 277 281 281 279 279 281 281 282 282 281 281 280 280 283 283 281 281 283 283 284 284 280 280 282 282 285 285 280 280 285 285 283 283 282 282 281 281 284 284 282 282 284 284 285 285 286 286 287 287 288 288 286 286 288 288 289 289 287 287 290 290 291 291 287 287 291 291 288 288 290 290 286 286 289 289 290 290 289 289 291 291 289 289 288 288 292 292 289 289 292 292 293 293 288 288 291 291 294 294 288 288 294 294 292 292 291 291 289 289 293 293 291 291 293 293 294 294 293 293 292 292 295 295 293 293 295 295 296 296 292 292 294 294 297 297 292 292 297 297 295 295 294 294 293 293 296 296 294 294 296 296 297 297 298 298 299 299 300 300 298 298 300 300 301 301 299 299 302 302 303 303 299 299 303 303 300 300 302 302 298 298 301 301 302 302 301 301 303 303 301 301 300 300 304 304 301 301 304 304 305 305 300 300 303 303 306 306 300 300 306 306 304 304 303 303 301 301 305 305 303 303 305 305 306 306 305 305 304 304 307 307 305 305 307 307 308 308 304 304 306 306 309 309 304 304 309 309 307 307 306 306 305 305 308 308 306 306 308 308 309 309 310 310 311 311 312 312 310 310 312 312 313 313 311 311 314 314 315 315 311 311 315 315 312 312 314 314 310 310 313 313 314 314 313 313 315 315 313 313 312 312 316 316 313 313 316 316 317 317 312 312 315 315 318 318 312 312 318 318 316 316 315 315 313 313 317 317 315 315 317 317 318 318 317 317 316 316 319 319 317 317 319 319 320 320 316 316 318 318 321 321 316 316 321 321 319 319 318 318 317 317 320 320 318 318 320 320 321 321 322 322 323 323 324 324 322 322 324 324 325 325 323 323 326 326 327 327 323 323 327 327 324 324 326 326 322 322 325 325 326 326 325 325 327 327 325 325 324 324 328 328 325 325 328 328 329 329 324 324 327 327 330 330 324 324 330 330 328 328 327 327 325 325 329 329 327 327 329 329 330 330 329 329 328 328 331 331 329 329 331 331 332 332 328 328 330 330 333 333 328 328 333 333 331 331 330 330 329 329 332 332 330 330 332 332 333 333 334 334 335 335 336 336 334 334 336 336 337 337 335 335 338 338 339 339 335 335 339 339 336 336 338 338 334 334 337 337 338 338 337 337 339 339 337 337 336 336 340 340 337 337 340 340 341 341 336 336 339 339 342 342 336 336 342 342 340 340 339 339 337 337 341 341 339 339 341 341 342 342 341 341 340 340 343 343 341 341 343 343 344 344 340 340 342 342 345 345 340 340 345 345 343 343 342 342 341 341 344 344 342 342 344 344 345 345 346 346 347 347 348 348 346 346 348 348 349 349 347 347 350 350 351 351 347 347 351 351 348 348 350 350 352 352 353 353 350 350 353 353 351 351 352 352 346 346 349 349 352 352 349 349 353 353 349 349 348 348 354 354 349 349 354 354 355 355 348 348 351 351 356 356 348 348 356 356 354 354 351 351 353 353 357 357 351 351 357 357 356 356 353 353 349 349 355 355 353 353 355 355 357 357 355 355 354 354 358 358 355 355 358 358 359 359 354 354 356 356 360 360 354 354 360 360 358 358 356 356 357 357 361 361 356 356 361 361 360 360 357 357 355 355 359 359 357 357 359 359 361 361 359 359 358 358 362 362 359 359 362 362 363 363 358 358 360 360 364 364 358 358 364 364 362 362 360 360 361 361 365 365 360 360 365 365 364 364 361 361 359 359 363 363 361 361 363 363 365 365 363 363 362 362 366 366 363 363 366 366 367 367 362 362 364 364 368 368 362 362 368 368 366 366 364 364 365 365 369 369 364 364 369 369 368 368 365 365 363 363 367 367 365 365 367 367 369 369 346 346 347 347 370 370 347 347 350 350 370 370 350 350 352 352 370 370 352 352 346 346 370 370 366 366 367 367 371 371 368 368 366 366 371 371 369 369 368 368 371 371 367 367 369 369 371 371 372 372 373 373 374 374 372 372 374 374 375 375 373 373 376 376 377 377 373 373 377 377 374 374 376 376 378 378 379 379 376 376 379 379 377 377 378 378 372 372 375 375 378 378 375 375 379 379 375 375 374 374 380 380 375 375 380 380 381 381 374 374 377 377 382 382 374 374 382 382 380 380 377 377 379 379 383 383 377 377 383 383 382 382 379 379 375 375 381 381 379 379 381 381 383 383 381 381 380 380 384 384 381 381 384 384 385 385 380 380 382 382 386 386 380 380 386 386 384 384 382 382 383 383 387 387 382 382 387 387 386 386 383 383 381 381 385 385 383 383 385 385 387 387 385 385 384 384 388 388 385 385 388 388 389 389 384 384 386 386 390 390 384 384 390 390 388 388 386 386 387 387 391 391 386 386 391 391 390 390 387 387 385 385 389 389 387 387 389 389 391 391 389 389 388 388 392 392 389 389 392 392 393 393 388 388 390 390 394 394 388 388 394 394 392 392 390 390 391 391 395 395 390 390 395 395 394 394 391 391 389 389 393 393 391 391 393 393 395 395 372 372 373 373 396 396 373 373 376 376 396 396 376 376 378 378 396 396 378 378 372 372 396 396 392 392 393 393 397 397 394 394 392 392 397 397 395 395 394 394 397 397 393 393 395 395 397 397 398 398 399 399 400 400 398 398 400 400 401 401 399 399 402 402 403 403 399 399 403 403 400 400 402 402 398 398 401 401 402 402 401 401 403 403 401 401 400 400 404 404 401 401 404 404 405 405 400 400 403 403 406 406 400 400 406 406 404 404 403 403 401 401 405 405 403 403 405 405 406 406 405 405 404 404 407 407 405 405 407 407 408 408 404 404 406 406 409 409 404 404 409 409 407 407 406 406 405 405 408 408 406 406 408 408 409 409 410 410 411 411 412 412 410 410 412 412 413 413 411 411 414 414 415 415 411 411 415 415 412 412 414 414 410 410 413 413 414 414 413 413 415 415 413 413 412 412 416 416 413 413 416 416 417 417 412 412 415 415 418 418 412 412 418 418 416 416 415 415 413 413 417 417 415 415 417 417 418 418 417 417 416 416 419 419 417 417 419 419 420 420 416 416 418 418 421 421 416 416 421 421 419 419 418 418 417 417 420 420 418 418 420 420 421 421 422 422 423 423 424 424 422 422 424 424 425 425 423 423 426 426 427 427 423 423 427 427 424 424 426 426 422 422 425 425 426 426 425 425 427 427 425 425 424 424 428 428 425 425 428 428 429 429 424 424 427 427 430 430 424 424 430 430 428 428 427 427 425 425 429 429 427 427 429 429 430 430 429 429 428 428 431 431 429 429 431 431 432 432 428 428 430 430 433 433 428 428 433 433 431 431 430 430 429 429 432 432 430 430 432 432 433 433 434 434 435 435 436 436 434 434 436 436 437 437 435 435 438 438 439 439 435 435 439 439 436 436 438 438 434 434 437 437 438 438 437 437 439 439 437 437 436 436 440 440 437 437 440 440 441 441 436 436 439 439 442 442 436 436 442 442 440 440 439 439 437 437 441 441 439 439 441 441 442 442 441 441 440 440 443 443 441 441 443 443 444 444 440 440 442 442 445 445 440 440 445 445 443 443 442 442 441 441 444 444 442 442 444 444 445 445 446 446 447 447 448 448 446 446 448 448 449 449 447 447 450 450 451 451 447 447 451 451 448 448 450 450 446 446 449 449 450 450 449 449 451 451 449 449 448 448 452 452 449 449 452 452 453 453 448 448 451 451 454 454 448 448 454 454 452 452 451 451 449 449 453 453 451 451 453 453 454 454 453 453 452 452 455 455 453 453 455 455 456 456 452 452 454 454 457 457 452 452 457 457 455 455 454 454 453 453 456 456 454 454 456 456 457 457 458 458 459 459 460 460 458 458 460 460 461 461 459 459 462 462 463 463 459 459 463 463 460 460 462 462 464 464 465 465 462 462 465 465 463 463 464 464 458 458 461 461 464 464 461 461 465 465 461 461 460 460 466 466 461 461 466 466 467 467 460 460 463 463 468 468 460 460 468 468 466 466 463 463 465 465 469 469 463 463 469 469 468 468 465 465 461 461 467 467 465 465 467 467 469 469 467 467 466 466 470 470 467 467 470 470 471 471 466 466 468 468 472 472 466 466 472 472 470 470 468 468 469 469 473 473 468 468 473 473 472 472 469 469 467 467 471 471 469 469 471 471 473 473 471 471 470 470 474 474 471 471 474 474 475 475 470 470 472 472 476 476 470 470 476 476 474 474 472 472 473 473 477 477 472 472 477 477 476 476 473 473 471 471 475 475 473 473 475 475 477 477 475 475 474 474 478 478 475 475 478 478 479 479 474 474 476 476 480 480 474 474 480 480 478 478 476 476 477 477 481 481 476 476 481 481 480 480 477 477 475 475 479 479 477 477 479 479 481 481 458 458 459 459 482 482 459 459 462 462 482 482 462 462 464 464 482 482 464 464 458 458 482 482 478 478 479 479 483 483 480 480 478 478 483 483 481 481 480 480 483 483 479 479 481 481 483 483 484 484 485 485 486 486 484 484 486 486 487 487 485 485 488 488 489 489 485 485 489 489 486 486 488 488 490 490 491 491 488 488 491 491 489 489 490 490 484 484 487 487 490 490 487 487 491 491 487 487 486 486 492 492 487 487 492 492 493 493 486 486 489 489 494 494 486 486 494 494 492 492 489 489 491 491 495 495 489 489 495 495 494 494 491 491 487 487 493 493 491 491 493 493 495 495 493 493 492 492 496 496 493 493 496 496 497 497 492 492 494 494 498 498 492 492 498 498 496 496 494 494 495 495 499 499 494 494 499 499 498 498 495 495 493 493 497 497 495 495 497 497 499 499 497 497 496 496 500 500 497 497 500 500 501 501 496 496 498 498 502 502 496 496 502 502 500 500 498 498 499 499 503 503 498 498 503 503 502 502 499 499 497 497 501 501 499 499 501 501 503 503 501 501 500 500 504 504 501 501 504 504 505 505 500 500 502 502 506 506 500 500 506 506 504 504 502 502 503 503 507 507 502 502 507 507 506 506 503 503 501 501 505 505 503 503 505 505 507 507 484 484 485 485 508 508 485 485 488 488 508 508 488 488 490 490 508 508 490 490 484 484 508 508 504 504 505 505 509 509 506 506 504 504 509 509 507 507 506 506 509 509 505 505 507 507 509 509 510 510 511 511 512 512 510 510 512 512 513 513 511 511 514 514 515 515 511 511 515 515 512 512 514 514 516 516 517 517 514 514 517 517 515 515 516 516 510 510 513 513 516 516 513 513 517 517 513 513 512 512 518 518 513 513 518 518 519 519 512 512 515 515 520 520 512 512 520 520 518 518 515 515 517 517 521 521 515 515 521 521 520 520 517 517 513 513 519 519 517 517 519 519 521 521 519 519 518 518 522 522 519 519 522 522 523 523 518 518 520 520 524 524 518 518 524 524 522 522 520 520 521 521 525 525 520 520 525 525 524 524 521 521 519 519 523 523 521 521 523 523 525 525 523 523 522 522 526 526 523 523 526 526 527 527 522 522 524 524 528 528 522 522 528 528 526 526 524 524 525 525 529 529 524 524 529 529 528 528 525 525 523 523 527 527 525 525 527 527 529 529 527 527 526 526 530 530 527 527 530 530 531 531 526 526 528 528 532 532 526 526 532 532 530 530 528 528 529 529 533 533 528 528 533 533 532 532 529 529 527 527 531 531 529 529 531 531 533 533 510 510 511 511 534 534 511 511 514 514 534 534 514 514 516 516 534 534 516 516 510 510 534 534 530 530 531 531 535 535 532 532 530 530 535 535 533 533 532 532 535 535 531 531 533 533 535 535 536 536 537 537 538 538 536 536 538 538 539 539 537 537 540 540 541 541 537 537 541 541 538 538 540 540 536 536 539 539 540 540 539 539 541 541 539 539 538 538 542 542 539 539 542 542 543 543 538 538 541 541 544 544 538 538 544 544 542 542 541 541 539 539 543 543 541 541 543 543 544 544 543 543 542 542 545 545 543 543 545 545 546 546 542 542 544 544 547 547 542 542 547 547 545 545 544 544 543 543 546 546 544 544 546 546 547 547 548 548 549 549 550 550 548 548 550 550 551 551 549 549 552 552 553 553 549 549 553 553 550 550 552 552 548 548 551 551 552 552 551 551 553 553 551 551 550 550 554 554 551 551 554 554 555 555 550 550 553 553 556 556 550 550 556 556 554 554 553 553 551 551 555 555 553 553 555 555 556 556 555 555 554 554 557 557 555 555 557 557 558 558 554 554 556 556 559 559 554 554 559 559 557 557 556 556 555 555 558 558 556 556 558 558 559 559 560 560 561 561 562 562 560 560 562 562 563 563 561 561 564 564 565 565 561 561 565 565 562 562 564 564 560 560 563 563 564 564 563 563 565 565 563 563 562 562 566 566 563 563 566 566 567 567 562 562 565 565 568 568 562 562 568 568 566 566 565 565 563 563 567 567 565 565 567 567 568 568 567 567 566 566 569 569 567 567 569 569 570 570 566 566 568 568 571 571 566 566 571 571 569 569 568 568 567 567 570 570 568 568 570 570 571 571 572 572 573 573 574 574 572 572 574 574 575 575 573 573 576 576 577 577 573 573 577 577 574 574 576 576 572 572 575 575 576 576 575 575 577 577 575 575 574 574 578 578 575 575 578 578 579 579 574 574 577 577 580 580 574 574 580 580 578 578 577 577 575 575 579 579 577 577 579 579 580 580 579 579 578 578 581 581 579 579 581 581 582 582 578 578 580 580 583 583 578 578 583 583 581 581 580 580 579 579 582 582 580 580 582 582 583 583 584 584 585 585 586 586 584 584 586 586 587 587 585 585 588 588 589 589 585 585 589 589 586 586 588 588 584 584 587 587 588 588 587 587 589 589 587 587 586 586 590 590 587 587 590 590 591 591 586 586 589 589 592 592 586 586 592 592 590 590 589 589 587 587 591 591 589 589 591 591 592 592 591 591 590 590 593 593 591 591 593 593 594 594 590 590 592 592 595 595 590 590 595 595 593 593 592 592 591 591 594 594 592 592 594 594 595 595 596 596 597 597 598 598 596 596 598 598 599 599 597 597 600 600 601 601 597 597 601 601 598 598 600 600 596 596 599 599 600 600 599 599 601 601 599 599 598 598 602 602 599 599 602 602 603 603 598 598 601 601 604 604 598 598 604 604 602 602 601 601 599 599 603 603 601 601 603 603 604 604 603 603 602 602 605 605 603 603 605 605 606 606 602 602 604 604 607 607 602 602 607 607 605 605 604 604 603 603 606 606 604 604 606 606 607 607 608 608 609 609 610 610 608 608 610 610 611 611 609 609 612 612 613 613 609 609 613 613 610 610 612 612 608 608 611 611 612 612 611 611 613 613 611 611 610 610 614 614 611 611 614 614 615 615 610 610 613 613 616 616 610 610 616 616 614 614 613 613 611 611 615 615 613 613 615 615 616 616 615 615 614 614 617 617 615 615 617 617 618 618 614 614 616 616 619 619 614 614 619 619 617 617 616 616 615 615 618 618 616 616 618 618 619 619 620 620 621 621 622 622 620 620 622 622 623 623 621 621 624 624 625 625 621 621 625 625 622 622 624 624 620 620 623 623 624 624 623 623 625 625 623 623 622 622 626 626 623 623 626 626 627 627 622 622 625 625 628 628 622 622 628 628 626 626 625 625 623 623 627 627 625 625 627 627 628 628 627 627 626 626 629 629 627 627 629 629 630 630 626 626 628 628 631 631 626 626 631 631 629 629 628 628 627 627 630 630 628 628 630 630 631 631 632 632 633 633 634 634 632 632 634 634 635 635 633 633 636 636 637 637 633 633 637 637 634 634 636 636 632 632 635 635 636 636 635 635 637 637 635 635 634 634 638 638 635 635 638 638 639 639 634 634 637 637 640 640 634 634 640 640 638 638 637 637 635 635 639 639 637 637 639 639 640 640 639 639 638 638 641 641 639 639 641 641 642 642 638 638 640 640 643 643 638 638 643 643 641 641 640 640 639 639 642 642 640 640 642 642 643 643 644 644 645 645 646 646 644 644 646 646 647 647 645 645 648 648 649 649 645 645 649 649 646 646 648 648 644 644 647 647 648 648 647 647 649 649 647 647 646 646 650 650 647 647 650 650 651 651 646 646 649 649 652 652 646 646 652 652 650 650 649 649 647 647 651 651 649 649 651 651 652 652 651 651 650 650 653 653 651 651 653 653 654 654 650 650 652 652 655 655 650 650 655 655 653 653 652 652 651 651 654 654 652 652 654 654 655 655 656 656 657 657 658 658 656 656 658 658 659 659 657 657 660 660 661 661 657 657 661 661 658 658 660 660 656 656 659 659 660 660 659 659 661 661 659 659 658 658 662 662 659 659 662 662 663 663 658 658 661 661 664 664 658 658 664 664 662 662 661 661 659 659 663 663 661 661 663 663 664 664 663 663 662 662 665 665 663 663 665 665 666 666 662 662 664 664 667 667 662 662 667 667 665 665 664 664 663 663 666 666 664 664 666 666 667 667 668 668 669 669 670 670 668 668 670 670 671 671 669 669 672 672 673 673 669 669 673 673 670 670 672 672 668 668 671 671 672 672 671 671 673 673 671 671 670 670 674 674 671 671 674 674 675 675 670 670 673 673 676 676 670 670 676 676 674 674 673 673 671 671 675 675 673 673 675 675 676 676 675 675 674 674 677 677 675 675 677 677 678 678 674 674 676 676 679 679 674 674 679 679 677 677 676 676 675 675 678 678 676 676 678 678 679 679 680 680 681 681 682 682 680 680 682 682 683 683 681 681 684 684 685 685 681 681 685 685 682 682 684 684 680 680 683 683 684 684 683 683 685 685 683 683 682 682 686 686 683 683 686 686 687 687 682 682 685 685 688 688 682 682 688 688 686 686 685 685 683 683 687 687 685 685 687 687 688 688 687 687 686 686 689 689 687 687 689 689 690 690 686 686 688 688 691 691 686 686 691 691 689 689 688 688 687 687 690 690 688 688 690 690 691 691 692 692 693 693 694 694 692 692 694 694 695 695 693 693 696 696 697 697 693 693 697 697 694 694 696 696 698 698 699 699 696 696 699 699 697 697 698 698 692 692 695 695 698 698 695 695 699 699 695 695 694 694 700 700 695 695 700 700 701 701 694 694 697 697 702 702 694 694 702 702 700 700 697 697 699 699 703 703 697 697 703 703 702 702 699 699 695 695 701 701 699 699 701 701 703 703 701 701 700 700 704 704 701 701 704 704 705 705 700 700 702 702 706 706 700 700 706 706 704 704 702 702 703 703 707 707 702 702 707 707 706 706 703 703 701 701 705 705 703 703 705 705 707 707 705 705 704 704 708 708 705 705 708 708 709 709 704 704 706 706 710 710 704 704 710 710 708 708 706 706 707 707 711 711 706 706 711 711 710 710 707 707 705 705 709 709 707 707 709 709 711 711 709 709 708 708 712 712 709 709 712 712 713 713 708 708 710 710 714 714 708 708 714 714 712 712 710 710 711 711 715 715 710 710 715 715 714 714 711 711 709 709 713 713 711 711 713 713 715 715 692 692 693 693 716 716 693 693 696 696 716 716 696 696 698 698 716 716 698 698 692 692 716 716 712 712 713 713 717 717 714 714 712 712 717 717 715 715 714 714 717 717 713 713 715 715 717 717 718 718 719 719 720 720 718 718 720 720 721 721 719 719 722 722 723 723 719 719 723 723 720 720 722 722 724 724 725 725 722 722 725 725 723 723 724 724 718 718 721 721 724 724 721 721 725 725 721 721 720 720 726 726 721 721 726 726 727 727 720 720 723 723 728 728 720 720 728 728 726 726 723 723 725 725 729 729 723 723 729 729 728 728 725 725 721 721 727 727 725 725 727 727 729 729 727 727 726 726 730 730 727 727 730 730 731 731 726 726 728 728 732 732 726 726 732 732 730 730 728 728 729 729 733 733 728 728 733 733 732 732 729 729 727 727 731 731 729 729 731 731 733 733 731 731 730 730 734 734 731 731 734 734 735 735 730 730 732 732 736 736 730 730 736 736 734 734 732 732 733 733 737 737 732 732 737 737 736 736 733 733 731 731 735 735 733 733 735 735 737 737 735 735 734 734 738 738 735 735 738 738 739 739 734 734 736 736 740 740 734 734 740 740 738 738 736 736 737 737 741 741 736 736 741 741 740 740 737 737 735 735 739 739 737 737 739 739 741 741 718 718 719 719 742 742 719 719 722 722 742 742 722 722 724 724 742 742 724 724 718 718 742 742 738 738 739 739 743 743 740 740 738 738 743 743 741 741 740 740 743 743 739 739 741 741 743 743 744 744 745 745 746 746 744 744 746 746 747 747 745 745 748 748 749 749 745 745 749 749 746 746 748 748 744 744 747 747 748 748 747 747 749 749 747 747 746 746 750 750 747 747 750 750 751 751 746 746 749 749 752 752 746 746 752 752 750 750 749 749 747 747 751 751 749 749 751 751 752 752 751 751 750 750 753 753 751 751 753 753 754 754 750 750 752 752 755 755 750 750 755 755 753 753 752 752 751 751 754 754 752 752 754 754 755 755 756 756 757 757 758 758 756 756 758 758 759 759 757 757 760 760 761 761 757 757 761 761 758 758 760 760 756 756 759 759 760 760 759 759 761 761 759 759 758 758 762 762 759 759 762 762 763 763 758 758 761 761 764 764 758 758 764 764 762 762 761 761 759 759 763 763 761 761 763 763 764 764 763 763 762 762 765 765 763 763 765 765 766 766 762 762 764 764 767 767 762 762 767 767 765 765 764 764 763 763 766 766 764 764 766 766 767 767 768 768 769 769 770 770 768 768 770 770 771 771 769 769 772 772 773 773 769 769 773 773 770 770 772 772 768 768 771 771 772 772 771 771 773 773 771 771 770 770 774 774 771 771 774 774 775 775 770 770 773 773 776 776 770 770 776 776 774 774 773 773 771 771 775 775 773 773 775 775 776 776 775 775 774 774 777 777 775 775 777 777 778 778 774 774 776 776 779 779 774 774 779 779 777 777 776 776 775 775 778 778 776 776 778 778 779 779 780 780 781 781 782 782 780 780 782 782 783 783 781 781 784 784 785 785 781 781 785 785 782 782 784 784 780 780 783 783 784 784 783 783 785 785 783 783 782 782 786 786 783 783 786 786 787 787 782 782 785 785 788 788 782 782 788 788 786 786 785 785 783 783 787 787 785 785 787 787 788 788 787 787 786 786 789 789 787 787 789 789 790 790 786 786 788 788 791 791 786 786 791 791 789 789 788 788 787 787 790 790 788 788 790 790 791 791 792 792 793 793 794 794 792 792 794 794 795 795 793 793 796 796 797 797 793 793 797 797 794 794 796 796 792 792 795 795 796 796 795 795 797 797 795 795 794 794 798 798 795 795 798 798 799 799 794 794 797 797 800 800 794 794 800 800 798 798 797 797 795 795 799 799 797 797 799 799 800 800 799 799 798 798 801 801 799 799 801 801 802 802 798 798 800 800 803 803 798 798 803 803 801 801 800 800 799 799 802 802 800 800 802 802 803 803 804 804 805 805 806 806 804 804 806 806 807 807 805 805 808 808 809 809 805 805 809 809 806 806 808 808 810 810 811 811 808 808 811 811 809 809 810 810 804 804 807 807 810 810 807 807 811 811 807 807 806 806 812 812 807 807 812 812 813 813 806 806 809 809 814 814 806 806 814 814 812 812 809 809 811 811 815 815 809 809 815 815 814 814 811 811 807 807 813 813 811 811 813 813 815 815 813 813 812 812 816 816 813 813 816 816 817 817 812 812 814 814 818 818 812 812 818 818 816 816 814 814 815 815 819 819 814 814 819 819 818 818 815 815 813 813 817 817 815 815 817 817 819 819 817 817 816 816 820 820 817 817 820 820 821 821 816 816 818 818 822 822 816 816 822 822 820 820 818 818 819 819 823 823 818 818 823 823 822 822 819 819 817 817 821 821 819 819 821 821 823 823 821 821 820 820 824 824 821 821 824 824 825 825 820 820 822 822 826 826 820 820 826 826 824 824 822 822 823 823 827 827 822 822 827 827 826 826 823 823 821 821 825 825 823 823 825 825 827 827 804 804 805 805 828 828 805 805 808 808 828 828 808 808 810 810 828 828 810 810 804 804 828 828 824 824 825 825 829 829 826 826 824 824 829 829 827 827 826 826 829 829 825 825 827 827 829 829 830 830 831 831 832 832 830 830 832 832 833 833 831 831 834 834 835 835 831 831 835 835 832 832 834 834 836 836 837 837 834 834 837 837 835 835 836 836 830 830 833 833 836 836 833 833 837 837 833 833 832 832 838 838 833 833 838 838 839 839 832 832 835 835 840 840 832 832 840 840 838 838 835 835 837 837 841 841 835 835 841 841 840 840 837 837 833 833 839 839 837 837 839 839 841 841 839 839 838 838 842 842 839 839 842 842 843 843 838 838 840 840 844 844 838 838 844 844 842 842 840 840 841 841 845 845 840 840 845 845 844 844 841 841 839 839 843 843 841 841 843 843 845 845 843 843 842 842 846 846 843 843 846 846 847 847 842 842 844 844 848 848 842 842 848 848 846 846 844 844 845 845 849 849 844 844 849 849 848 848 845 845 843 843 847 847 845 845 847 847 849 849 847 847 846 846 850 850 847 847 850 850 851 851 846 846 848 848 852 852 846 846 852 852 850 850 848 848 849 849 853 853 848 848 853 853 852 852 849 849 847 847 851 851 849 849 851 851 853 853 830 830 831 831 854 854 831 831 834 834 854 854 834 834 836 836 854 854 836 836 830 830 854 854 850 850 851 851 855 855 852 852 850 850 855 855 853 853 852 852 855 855 851 851 853 853 855 855 856 856 857 857 858 858 856 856 858 858 859 859 857 857 860 860 861 861 857 857 861 861 858 858 860 860 862 862 863 863 860 860 863 863 861 861 862 862 856 856 859 859 862 862 859 859 863 863 859 859 858 858 864 864 859 859 864 864 865 865 858 858 861 861 866 866 858 858 866 866 864 864 861 861 863 863 867 867 861 861 867 867 866 866 863 863 859 859 865 865 863 863 865 865 867 867 865 865 864 864 868 868 865 865 868 868 869 869 864 864 866 866 870 870 864 864 870 870 868 868 866 866 867 867 871 871 866 866 871 871 870 870 867 867 865 865 869 869 867 867 869 869 871 871 869 869 868 868 872 872 869 869 872 872 873 873 868 868 870 870 874 874 868 868 874 874 872 872 870 870 871 871 875 875 870 870 875 875 874 874 871 871 869 869 873 873 871 871 873 873 875 875 873 873 872 872 876 876 873 873 876 876 877 877 872 872 874 874 878 878 872 872 878 878 876 876 874 874 875 875 879 879 874 874 879 879 878 878 875 875 873 873 877 877 875 875 877 877 879 879 856 856 857 857 880 880 857 857 860 860 880 880 860 860 862 862 880 880 862 862 856 856 880 880 876 876 877 877 881 881 878 878 876 876 881 881 879 879 878 878 881 881 877 877 879 879 881 881 882 882 883 883 884 884 882 882 884 884 885 885 883 883 886 886 887 887 883 883 887 887 884 884 886 886 888 888 889 889 886 886 889 889 887 887 888 888 882 882 885 885 888 888 885 885 889 889 885 885 884 884 890 890 885 885 890 890 891 891 884 884 887 887 892 892 884 884 892 892 890 890 887 887 889 889 893 893 887 887 893 893 892 892 889 889 885 885 891 891 889 889 891 891 893 893 891 891 890 890 894 894 891 891 894 894 895 895 890 890 892 892 896 896 890 890 896 896 894 894 892 892 893 893 897 897 892 892 897 897 896 896 893 893 891 891 895 895 893 893 895 895 897 897 895 895 894 894 898 898 895 895 898 898 899 899 894 894 896 896 900 900 894 894 900 900 898 898 896 896 897 897 901 901 896 896 901 901 900 900 897 897 895 895 899 899 897 897 899 899 901 901 899 899 898 898 902 902 899 899 902 902 903 903 898 898 900 900 904 904 898 898 904 904 902 902 900 900 901 901 905 905 900 900 905 905 904 904 901 901 899 899 903 903 901 901 903 903 905 905 882 882 883 883 906 906 883 883 886 886 906 906 886 886 888 888 906 906 888 888 882 882 906 906 902 902 903 903 907 907 904 904 902 902 907 907 905 905 904 904 907 907 903 903 905 905 907 907 908 908 909 909 910 910 908 908 910 910 911 911 909 909 912 912 913 913 909 909 913 913 910 910 912 912 908 908 911 911 912 912 911 911 913 913 911 911 910 910 914 914 911 911 914 914 915 915 910 910 913 913 916 916 910 910 916 916 914 914 913 913 911 911 915 915 913 913 915 915 916 916 915 915 914 914 917 917 915 915 917 917 918 918 914 914 916 916 919 919 914 914 919 919 917 917 916 916 915 915 918 918 916 916 918 918 919 919 920 920 921 921 922 922 920 920 922 922 923 923 921 921 924 924 925 925 921 921 925 925 922 922 924 924 920 920 923 923 924 924 923 923 925 925 923 923 922 922 926 926 923 923 926 926 927 927 922 922 925 925 928 928 922 922 928 928 926 926 925 925 923 923 927 927 925 925 927 927 928 928 927 927 926 926 929 929 927 927 929 929 930 930 926 926 928 928 931 931 926 926 931 931 929 929 928 928 927 927 930 930 928 928 930 930 931 931 932 932 933 933 934 934 932 932 934 934 935 935 933 933 936 936 937 937 933 933 937 937 934 934 936 936 932 932 935 935 936 936 935 935 937 937 935 935 934 934 938 938 935 935 938 938 939 939 934 934 937 937 940 940 934 934 940 940 938 938 937 937 935 935 939 939 937 937 939 939 940 940 939 939 938 938 941 941 939 939 941 941 942 942 938 938 940 940 943 943 938 938 943 943 941 941 940 940 939 939 942 942 940 940 942 942 943 943 944 944 945 945 946 946 944 944 946 946 947 947 945 945 948 948 949 949 945 945 949 949 946 946 948 948 944 944 947 947 948 948 947 947 949 949 947 947 946 946 950 950 947 947 950 950 951 951 946 946 949 949 952 952 946 946 952 952 950 950 949 949 947 947 951 951 949 949 951 951 952 952 951 951 950 950 953 953 951 951 953 953 954 954 950 950 952 952 955 955 950 950 955 955 953 953 952 952 951 951 954 954 952 952 954 954 955 955 956 956 957 957 958 958 956 956 958 958 959 959 957 957 960 960 961 961 957 957 961 961 958 958 960 960 956 956 959 959 960 960 959 959 961 961 959 959 958 958 962 962 959 959 962 962 963 963 958 958 961 961 964 964 958 958 964 964 962 962 961 961 959 959 963 963 961 961 963 963 964 964 963 963 962 962 965 965 963 963 965 965 966 966 962 962 964 964 967 967 962 962 967 967 965 965 964 964 963 963 966 966 964 964 966 966 967 967 968 968 969 969 970 970 968 968 970 970 971 971 969 969 972 972 973 973 969 969 973 973 970 970 972 972 974 974 975 975 972 972 975 975 973 973 974 974 968 968 971 971 974 974 971 971 975 975 971 971 970 970 976 976 971 971 976 976 977 977 970 970 973 973 978 978 970 970 978 978 976 976 973 973 975 975 979 979 973 973 979 979 978 978 975 975 971 971 977 977 975 975 977 977 979 979 977 977 976 976 980 980 977 977 980 980 981 981 976 976 978 978 982 982 976 976 982 982 980 980 978 978 979 979 983 983 978 978 983 983 982 982 979 979 977 977 981 981 979 979 981 981 983 983 981 981 980 980 984 984 981 981 984 984 985 985 980 980 982 982 986 986 980 980 986 986 984 984 982 982 983 983 987 987 982 982 987 987 986 986 983 983 981 981 985 985 983 983 985 985 987 987 985 985 984 984 988 988 985 985 988 988 989 989 984 984 986 986 990 990 984 984 990 990 988 988 986 986 987 987 991 991 986 986 991 991 990 990 987 987 985 985 989 989 987 987 989 989 991 991 968 968 969 969 992 992 969 969 972 972 992 992 972 972 974 974 992 992 974 974 968 968 992 992 988 988 989 989 993 993 990 990 988 988 993 993 991 991 990 990 993 993 989 989 991 991 993 993 994 994 995 995 996 996 994 994 996 996 997 997 995 995 998 998 999 999 995 995 999 999 996 996 998 998 1000 1000 1001 1001 998 998 1001 1001 999 999 1000 1000 994 994 997 997 1000 1000 997 997 1001 1001 997 997 996 996 1002 1002 997 997 1002 1002 1003 1003 996 996 999 999 1004 1004 996 996 1004 1004 1002 1002 999 999 1001 1001 1005 1005 999 999 1005 1005 1004 1004 1001 1001 997 997 1003 1003 1001 1001 1003 1003 1005 1005 1003 1003 1002 1002 1006 1006 1003 1003 1006 1006 1007 1007 1002 1002 1004 1004 1008 1008 1002 1002 1008 1008 1006 1006 1004 1004 1005 1005 1009 1009 1004 1004 1009 1009 1008 1008 1005 1005 1003 1003 1007 1007 1005 1005 1007 1007 1009 1009 1007 1007 1006 1006 1010 1010 1007 1007 1010 1010 1011 1011 1006 1006 1008 1008 1012 1012 1006 1006 1012 1012 1010 1010 1008 1008 1009 1009 1013 1013 1008 1008 1013 1013 1012 1012 1009 1009 1007 1007 1011 1011 1009 1009 1011 1011 1013 1013 1011 1011 1010 1010 1014 1014 1011 1011 1014 1014 1015 1015 1010 1010 1012 1012 1016 1016 1010 1010 1016 1016 1014 1014 1012 1012 1013 1013 1017 1017 1012 1012 1017 1017 1016 1016 1013 1013 1011 1011 1015 1015 1013 1013 1015 1015 1017 1017 994 994 995 995 1018 1018 995 995 998 998 1018 1018 998 998 1000 1000 1018 1018 1000 1000 994 994 1018 1018 1014 1014 1015 1015 1019 1019 1016 1016 1014 1014 1019 1019 1017 1017 1016 1016 1019 1019 1015 1015 1017 1017 1019 1019 1020 1020 1021 1021 1022 1022 1020 1020 1022 1022 1023 1023 1021 1021 1024 1024 1025 1025 1021 1021 1025 1025 1022 1022 1024 1024 1026 1026 1027 1027 1024 1024 1027 1027 1025 1025 1026 1026 1020 1020 1023 1023 1026 1026 1023 1023 1027 1027 1023 1023 1022 1022 1028 1028 1023 1023 1028 1028 1029 1029 1022 1022 1025 1025 1030 1030 1022 1022 1030 1030 1028 1028 1025 1025 1027 1027 1031 1031 1025 1025 1031 1031 1030 1030 1027 1027 1023 1023 1029 1029 1027 1027 1029 1029 1031 1031 1029 1029 1028 1028 1032 1032 1029 1029 1032 1032 1033 1033 1028 1028 1030 1030 1034 1034 1028 1028 1034 1034 1032 1032 1030 1030 1031 1031 1035 1035 1030 1030 1035 1035 1034 1034 1031 1031 1029 1029 1033 1033 1031 1031 1033 1033 1035 1035 1033 1033 1032 1032 1036 1036 1033 1033 1036 1036 1037 1037 1032 1032 1034 1034 1038 1038 1032 1032 1038 1038 1036 1036 1034 1034 1035 1035 1039 1039 1034 1034 1039 1039 1038 1038 1035 1035 1033 1033 1037 1037 1035 1035 1037 1037 1039 1039 1037 1037 1036 1036 1040 1040 1037 1037 1040 1040 1041 1041 1036 1036 1038 1038 1042 1042 1036 1036 1042 1042 1040 1040 1038 1038 1039 1039 1043 1043 1038 1038 1043 1043 1042 1042 1039 1039 1037 1037 1041 1041 1039 1039 1041 1041 1043 1043 1020 1020 1021 1021 1044 1044 1021 1021 1024 1024 1044 1044 1024 1024 1026 1026 1044 1044 1026 1026 1020 1020 1044 1044 1040 1040 1041 1041 1045 1045 1042 1042 1040 1040 1045 1045 1043 1043 1042 1042 1045 1045 1041 1041 1043 1043 1045 1045 1046 1046 1047 1047 1048 1048 1046 1046 1048 1048 1049 1049 1047 1047 1050 1050 1051 1051 1047 1047 1051 1051 1048 1048 1050 1050 1046 1046 1049 1049 1050 1050 1049 1049 1051 1051 1049 1049 1048 1048 1052 1052 1049 1049 1052 1052 1053 1053 1048 1048 1051 1051 1054 1054 1048 1048 1054 1054 1052 1052 1051 1051 1049 1049 1053 1053 1051 1051 1053 1053 1054 1054 1053 1053 1052 1052 1055 1055 1053 1053 1055 1055 1056 1056 1052 1052 1054 1054 1057 1057 1052 1052 1057 1057 1055 1055 1054 1054 1053 1053 1056 1056 1054 1054 1056 1056 1057 1057 1058 1058 1059 1059 1060 1060 1058 1058 1060 1060 1061 1061 1059 1059 1062 1062 1063 1063 1059 1059 1063 1063 1060 1060 1062 1062 1058 1058 1061 1061 1062 1062 1061 1061 1063 1063 1061 1061 1060 1060 1064 1064 1061 1061 1064 1064 1065 1065 1060 1060 1063 1063 1066 1066 1060 1060 1066 1066 1064 1064 1063 1063 1061 1061 1065 1065 1063 1063 1065 1065 1066 1066 1065 1065 1064 1064 1067 1067 1065 1065 1067 1067 1068 1068 1064 1064 1066 1066 1069 1069 1064 1064 1069 1069 1067 1067 1066 1066 1065 1065 1068 1068 1066 1066 1068 1068 1069 1069 1070 1070 1071 1071 1072 1072 1070 1070 1072 1072 1073 1073 1071 1071 1074 1074 1075 1075 1071 1071 1075 1075 1072 1072 1074 1074 1070 1070 1073 1073 1074 1074 1073 1073 1075 1075 1073 1073 1072 1072 1076 1076 1073 1073 1076 1076 1077 1077 1072 1072 1075 1075 1078 1078 1072 1072 1078 1078 1076 1076 1075 1075 1073 1073 1077 1077 1075 1075 1077 1077 1078 1078 1077 1077 1076 1076 1079 1079 1077 1077 1079 1079 1080 1080 1076 1076 1078 1078 1081 1081 1076 1076 1081 1081 1079 1079 1078 1078 1077 1077 1080 1080 1078 1078 1080 1080 1081 1081 1082 1082 1083 1083 1084 1084 1082 1082 1084 1084 1085 1085 1083 1083 1086 1086 1087 1087 1083 1083 1087 1087 1084 1084 1086 1086 1082 1082 1085 1085 1086 1086 1085 1085 1087 1087 1085 1085 1084 1084 1088 1088 1085 1085 1088 1088 1089 1089 1084 1084 1087 1087 1090 1090 1084 1084 1090 1090 1088 1088 1087 1087 1085 1085 1089 1089 1087 1087 1089 1089 1090 1090 1089 1089 1088 1088 1091 1091 1089 1089 1091 1091 1092 1092 1088 1088 1090 1090 1093 1093 1088 1088 1093 1093 1091 1091 1090 1090 1089 1089 1092 1092 1090 1090 1092 1092 1093 1093 1094 1094 1095 1095 1096 1096 1094 1094 1096 1096 1097 1097 1095 1095 1098 1098 1099 1099 1095 1095 1099 1099 1096 1096 1098 1098 1100 1100 1101 1101 1098 1098 1101 1101 1099 1099 1100 1100 1094 1094 1097 1097 1100 1100 1097 1097 1101 1101 1097 1097 1096 1096 1102 1102 1097 1097 1102 1102 1103 1103 1096 1096 1099 1099 1104 1104 1096 1096 1104 1104 1102 1102 1099 1099 1101 1101 1105 1105 1099 1099 1105 1105 1104 1104 1101 1101 1097 1097 1103 1103 1101 1101 1103 1103 1105 1105 1103 1103 1102 1102 1106 1106 1103 1103 1106 1106 1107 1107 1102 1102 1104 1104 1108 1108 1102 1102 1108 1108 1106 1106 1104 1104 1105 1105 1109 1109 1104 1104 1109 1109 1108 1108 1105 1105 1103 1103 1107 1107 1105 1105 1107 1107 1109 1109 1107 1107 1106 1106 1110 1110 1107 1107 1110 1110 1111 1111 1106 1106 1108 1108 1112 1112 1106 1106 1112 1112 1110 1110 1108 1108 1109 1109 1113 1113 1108 1108 1113 1113 1112 1112 1109 1109 1107 1107 1111 1111 1109 1109 1111 1111 1113 1113 1111 1111 1110 1110 1114 1114 1111 1111 1114 1114 1115 1115 1110 1110 1112 1112 1116 1116 1110 1110 1116 1116 1114 1114 1112 1112 1113 1113 1117 1117 1112 1112 1117 1117 1116 1116 1113 1113 1111 1111 1115 1115 1113 1113 1115 1115 1117 1117 1094 1094 1095 1095 1118 1118 1095 1095 1098 1098 1118 1118 1098 1098 1100 1100 1118 1118 1100 1100 1094 1094 1118 1118 1114 1114 1115 1115 1119 1119 1116 1116 1114 1114 1119 1119 1117 1117 1116 1116 1119 1119 1115 1115 1117 1117 1119 1119</p></triangles>
      </mesh>
    </geometry>
  </library_geometries>
  <library_visual_scenes><visual_scene id="scene" name="scene">
    <node id="weeds_+01+01_solid" name="weeds_+01+01_solid" type="NODE"><instance_geometry url="#weeds_+01+01_solid-mesh"><bind_material><technique_common>
      <instance_material symbol="MAT_WEED_STEM-mat" target="#MAT_WEED_STEM"/>
    </technique_common></bind_material></instance_geometry></node>
  </visual_scene></library_visual_scenes>
  <scene><instance_visual_scene url="#scene"/></scene>
</COLLADA>
