<?xml version="1.0" encoding="utf-8"?>
<COLLADA xmlns="http://www.collada.org/2005/11/COLLADASchema" version="1.4.1">
  <asset>
    <contributor><authoring_tool>VIGIL SIH26126 farm generator</authoring_tool></contributor>
    <unit name="meter" meter="1"/>
    <up_axis>Z_UP</up_axis>
  </asset>
  <library_effects>
    <effect id="MAT_WEED_GRASS-fx"><profile_COMMON><technique sid="c"><lambert><diffuse><color>0.0980 0.1280 0.0300 1</color></diffuse></lambert></technique></profile_COMMON></effect>
    <effect id="MAT_WEED_BROAD-fx"><profile_COMMON><technique sid="c"><lambert><diffuse><color>0.0720 0.1520 0.0340 1</color></diffuse></lambert></technique></profile_COMMON></effect>
  </library_effects>
  <library_materials>
    <material id="MAT_WEED_GRASS" name="MAT_WEED_GRASS"><instance_effect url="#MAT_WEED_GRASS-fx"/></material>
    <material id="MAT_WEED_BROAD" name="MAT_WEED_BROAD"><instance_effect url="#MAT_WEED_BROAD-fx"/></material>
  </library_materials>
  <library_geometries>
    <geometry id="weeds_-04+00_foliage-mesh" name="weeds_-04+00_foliage">
      <mesh>
        <source id="weeds_-04+00_foliage-pos"><float_array id="weeds_-04+00_foliage-pos-a" count="1842">-0.97968 0.19525 -0.07007 -0.98803 0.19056 -0.069917 -0.97062 0.16024 0.01408 -0.96319 0.16365 0.013948 -0.95331 0.12978 0.060077 -0.94777 0.13179 0.059981 -0.93657 0.098936 0.049297 -0.93354 0.09976 0.049246 -0.92027 0.06768 -0.0069093 -0.92027 0.06768 -0.0069093 -0.97934 0.19739 -0.070086 -0.98837 0.18842 -0.069901 -0.96184 0.16363 0.017939 -0.95359 0.17073 0.017776 -0.93535 0.13891 0.066231 -0.92903 0.14361 0.066109 -0.90934 0.11391 0.055357 -0.90582 0.11616 0.055291 -0.88371 0.088578 -0.003056 -0.88371 0.088578 -0.003056 -0.98868 0.19097 -0.069909 -0.97903 0.19484 -0.070078 -0.9875 0.22175 0.0117 -0.996 0.21928 0.011844 -0.99701 0.24854 0.061356 -1.0033 0.24739 0.061458 -1.0076 0.2753 0.06161 -1.011 0.27503 0.061664 -1.0191 0.30214 0.018719 -1.0191 0.30214 0.018719 -0.9874 0.19924 -0.06997 -0.98031 0.18657 -0.070016 -0.93439 0.21581 0.048489 -0.94168 0.22581 0.048552 -0.89 0.24518 0.11293 -0.89611 0.2517 0.113 -0.8475 0.27414 0.096636 -0.85115 0.27719 0.096678 -0.80659 0.30257 0.015858 -0.80659 0.30257 0.015858 -0.98737 0.19492 -0.069949 -0.98034 0.19089 -0.070037 -0.96269 0.22025 0.023009 -0.9686 0.22388 0.023082 -0.94589 0.24966 0.080032 -0.95009 0.25243 0.080083 -0.9301 0.27897 0.08143 -0.93229 0.28052 0.081456 -0.91516 0.3082 0.033662 -0.91516 0.3082 0.033662 -0.98103 0.19538 -0.070049 -0.98668 0.19043 -0.069937 -0.96669 0.16898 0.012284 -0.96228 0.17368 0.012192 -0.94704 0.14774 0.062103 -0.9442 0.15146 0.06204 -0.92818 0.12655 0.062109 -0.92687 0.12867 0.062078 -0.91011 0.10541 0.018626 -0.91011 0.10541 0.018626 -0.98395 0.1874 -0.069964 -0.98376 0.19841 -0.070022 -1.0236 0.19656 0.041119 -1.0245 0.18714 0.041181 -1.0644 0.19396 0.10614 -1.0656 0.18717 0.10619 -1.1065 0.19071 0.10113 -1.1074 0.18714 0.10117 -1.1499 0.18699 0.037257 -1.1499 0.18699 0.037257 -0.98071 0.19865 -0.070071 -0.987 0.18716 -0.069916 -0.93589 0.16253 0.041938 -0.93036 0.17229 0.041804 -0.88536 0.13811 0.09499 -0.88125 0.14513 0.094892 -0.83593 0.11354 0.062489 -0.83368 0.11726 0.062436 -0.78727 0.088862 -0.032465 -0.78727 0.088862 -0.032465 -0.98093 0.19605 -0.070054 -0.98677 0.18976 -0.069932 -0.95292 0.15998 0.031196 -0.94782 0.16528 0.031091 -0.9195 0.13021 0.084279 -0.91575 0.13399 0.084202 -0.887 0.10023 0.066207 -0.88497 0.10222 0.066166 -0.8552 0.07007 -0.0071455 -0.8552 0.07007 -0.0071455 -0.97829 0.19263 -0.070078 -0.98942 0.19318 -0.069908 -0.99091 0.15863 0.0076322 -0.98156 0.15703 0.0074956 -0.99247 0.12356 0.048274 -0.98591 0.12158 0.048183 -0.99465 0.087773 0.034353 -0.99132 0.086299 0.034309 -0.99743 0.05129 -0.021747 -0.99743 0.05129 -0.021747 -0.97973 0.1965 -0.070075 -0.98797 0.18931 -0.069911 -0.95181 0.14902 0.03857 -0.94507 0.15554 0.038433 -0.91621 0.10888 0.090742 -0.91157 0.11387 0.090645 -0.88179 0.068663 0.060846 -0.87945 0.071449 0.060796 -0.84827 0.028434 -0.029336 -0.84827 0.028434 -0.029336 -0.9836 0.20001 -0.070033 -0.9841 0.18579 -0.069954 -0.93581 0.18835 0.048825 -0.93559 0.20052 0.04876 -0.88834 0.1913 0.11685 -0.88832 0.20012 0.11681 -0.84211 0.19424 0.10811 -0.84218 0.19895 0.10809 -0.79696 0.19716 0.035496 -0.79696 0.19716 0.035496 -0.98637 0.18806 -0.06993 -0.98134 0.19775 -0.070056 -1.0126 0.21373 0.027786 -1.0163 0.20517 0.027886 -1.0445 0.22897 0.085306 -1.0468 0.22261 0.085373 -1.0773 0.24356 0.0815 -1.0783 0.24009 0.081532 -1.1107 0.25759 0.025851 -1.1107 0.25759 0.025851 -0.97826 0.19404 -0.070085 -0.98944 0.19177 -0.069901 -0.98159 0.15406 0.033959 -0.97213 0.15664 0.0338 -0.97388 0.11641 0.095652 -0.96714 0.11875 0.095536 -0.96693 0.078746 0.092975 -0.9634 0.080234 0.092913 -0.96067 0.041122 0.035241 -0.96067 0.041122 0.035241 -0.97982 0.19663 -0.070074 -0.98789 0.18918 -0.069912 -0.96717 0.16862 0.016217 -0.96025 0.17501 0.016078 -0.94658 0.14824 0.069453 -0.94157 0.15287 0.069352 -0.92657 0.12781 0.071774 -0.9239 0.13028 0.07172 -0.90709 0.1073 0.028755 -0.90709 0.1073 0.028755 0.91244 -0.27094 -0.075435 0.91739 -0.2716 -0.07553 0.91961 -0.24993 -0.0089932 0.91537 -0.2494 -0.0089149 0.92145 -0.2247 0.025299 0.91837 -0.22433 0.025354 0.92295 -0.19426 0.012448 0.9213 -0.19407 0.012476 0.92418 -0.15997 -0.035407 0.92418 -0.15997 -0.035407 0.91431 -0.27357 -0.075733 0.91552 -0.26897 -0.075232 0.89661 -0.26851 -0.029332 0.89535 -0.27237 -0.029752 0.87749 -0.26584 -0.0053076 0.87641 -0.26858 -0.0056038 0.8581 -0.25972 -0.013537 0.85744 -0.26114 -0.013691 0.83847 -0.25092 -0.046497 0.83847 -0.25092 -0.046497 0.91537 -0.26929 -0.075267 0.91445 -0.27325 -0.075699 0.93954 -0.28571 -0.022984 0.94069 -0.28243 -0.022628 0.96466 -0.29495 0.0018981 0.96572 -0.29268 0.0021434 0.98973 -0.29966 -0.013771 0.99043 -0.29851 -0.013648 1.0148 -0.30109 -0.05914 1.0148 -0.30109 -0.05914 0.91645 -0.26986 -0.075335 0.91337 -0.27268 -0.075631 0.92843 -0.29285 -0.030456 0.93098 -0.29035 -0.030193 0.9435 -0.31035 -0.0081252 0.9453 -0.30848 -0.0079277 0.95848 -0.32403 -0.01946 0.9594 -0.323 -0.019351 0.97336 -0.3348 -0.056469 0.97336 -0.3348 -0.056469 0.91647 -0.27115 -0.075477 0.91335 -0.27138 -0.075488 0.91551 -0.28888 -0.035405 0.91817 -0.28864 -0.035391 0.91774 -0.30463 -0.011033 0.91967 -0.30442 -0.011019 0.91994 -0.31767 -0.011022 0.92096 -0.31754 -0.011012 0.9221 -0.32829 -0.03279 0.9221 -0.32829 -0.03279 0.91364 -0.27296 -0.075663 0.91619 -0.26958 -0.075302 0.89713 -0.26197 -0.01501 0.89507 -0.26495 -0.015329 0.87787 -0.25163 0.018905 0.87646 -0.25386 0.018666 0.85841 -0.23708 0.013377 0.8577 -0.2383 0.013246 0.8388 -0.21915 -0.023816 0.8388 -0.21915 -0.023816 0.91269 -0.27116 -0.07546 0.91714 -0.27138 -0.075505 0.91693 -0.25639 -0.015711 0.91312 -0.25598 -0.015649 0.91639 -0.23859 0.019158 0.91364 -0.23814 0.01922 0.91557 -0.21657 0.016483 0.91411 -0.21624 0.016525 0.91452 -0.19105 -0.016995 0.91452 -0.19105 -0.016995 0.91753 -0.27297 -0.075682 0.91229 -0.26957 -0.075284 0.90197 -0.29185 -0.031399 0.9067 -0.29436 -0.031696 0.89187 -0.31167 -0.010401 0.89544 -0.31318 -0.010583 0.88184 -0.32773 -0.022943 0.8838 -0.32836 -0.023021 0.87188 -0.3409 -0.060646 0.87188 -0.3409 -0.060646 0.91256 -0.27225 -0.07558 0.91727 -0.27029 -0.075386 0.90768 -0.2565 -0.020831 0.90385 -0.25855 -0.02104 0.8978 -0.24025 0.0095416 0.8952 -0.242 0.0093608 0.88772 -0.22023 0.0039366 0.88644 -0.2213 0.0038252 0.87753 -0.19728 -0.030078 0.87753 -0.19728 -0.030078 0.91471 -0.2694 -0.075277 0.91511 -0.27313 -0.075689 0.93086 -0.27737 -0.028254 0.93018 -0.27421 -0.027903 0.94641 -0.27942 0.00094444 0.94567 -0.27718 0.0011945 0.96169 -0.27829 0.0019565 0.96118 -0.27713 0.0020862 0.97672 -0.27437 -0.021962 0.97672 -0.27437 -0.021962 -0.39105 -0.40118 -0.082443 -0.38678 -0.39941 -0.082934 -0.39139 -0.37323 -0.026687 -0.39504 -0.37477 -0.026267 -0.39929 -0.34749 0.0014025 -0.40192 -0.34863 0.0017063 -0.41182 -0.32233 -0.011691 -0.41322 -0.32295 -0.011529 -0.4278 -0.2976 -0.055363 -0.4278 -0.2976 -0.055363 -0.38842 -0.40255 -0.082714 -0.38941 -0.39804 -0.082662 -0.40279 -0.40187 -0.041152 -0.40216 -0.40578 -0.041173 -0.41828 -0.40617 -0.018736 -0.41798 -0.40902 -0.018732 -0.43692 -0.41096 -0.024487 -0.43685 -0.41249 -0.024476 -0.45801 -0.41612 -0.051835 -0.45801 -0.41612 -0.051835 -0.38939 -0.39838 -0.08266 -0.38844 -0.40221 -0.082716 -0.36048 -0.39556 -0.038504 -0.36096 -0.39221 -0.038493 -0.33514 -0.38901 -0.018636 -0.33525 -0.38656 -0.018655 -0.3136 -0.38279 -0.03422 -0.31353 -0.38148 -0.034244 -0.29478 -0.37681 -0.075771 -0.29478 -0.37681 -0.075771 -0.38828 -0.39836 -0.082783 -0.38955 -0.40223 -0.082594 -0.36668 -0.4076 -0.043559 -0.36569 -0.40426 -0.04371 -0.34597 -0.41304 -0.024506 -0.34533 -0.41059 -0.024608 -0.3285 -0.41873 -0.034882 -0.32819 -0.41742 -0.034932 -0.3135 -0.42461 -0.067701 -0.3135 -0.42461 -0.067701 -0.38771 -0.39947 -0.082831 -0.39012 -0.40113 -0.082545 -0.37903 -0.41084 -0.046921 -0.37698 -0.40938 -0.047163 -0.36934 -0.42063 -0.02504 -0.36787 -0.41955 -0.025214 -0.36192 -0.43064 -0.024453 -0.36115 -0.43005 -0.024546 -0.35656 -0.44083 -0.042906 -0.35656 -0.44083 -0.042906 -0.38922 -0.40235 -0.082629 -0.38861 -0.39824 -0.082748 -0.40456 -0.39462 -0.029161 -0.40495 -0.39816 -0.029074 -0.42304 -0.39149 0.0013951 -0.42322 -0.39406 0.0014473 -0.44526 -0.3889 -0.0025054 -0.4453 -0.39028 -0.0024833 -0.47048 -0.38675 -0.03407 -0.47048 -0.38675 -0.03407 -0.39076 -0.40125 -0.082474 -0.38707 -0.39934 -0.082902 -0.39106 -0.38065 -0.03189 -0.3943 -0.38209 -0.031516 -0.39763 -0.36227 -0.0026434 -0.40004 -0.36318 -0.0023675 -0.40794 -0.34428 -0.006198 -0.40925 -0.34469 -0.0060489 -0.42131 -0.32659 -0.036668 -0.42131 -0.32659 -0.036668 -0.38608 -0.40052 -0.082997 -0.39175 -0.40007 -0.082379 -0.38847 -0.41932 -0.042044 -0.38359 -0.41925 -0.042581 -0.3871 -0.43872 -0.021734 -0.38358 -0.43833 -0.022124 -0.3888 -0.45832 -0.030755 -0.38695 -0.45794 -0.030963 -0.39281 -0.47801 -0.061787 -0.39281 -0.47801 -0.061787 -0.3904 -0.40224 -0.082501 -0.38744 -0.39835 -0.082875 -0.39869 -0.38562 -0.03549 -0.4009 -0.38919 -0.035203 -0.41232 -0.37341 -0.0092081 -0.41367 -0.37614 -0.0090255 -0.42935 -0.36179 -0.014349 -0.42993 -0.36331 -0.014266 -0.44901 -0.35063 -0.044304 -0.44901 -0.35063 -0.044304 -0.38987 -0.39879 -0.082602 -0.38796 -0.4018 -0.082774 -0.37132 -0.39313 -0.042787 -0.37322 -0.39074 -0.042609 -0.3566 -0.38456 -0.018736 -0.35815 -0.38299 -0.018585 -0.34473 -0.3763 -0.019307 -0.34564 -0.37555 -0.019217 -0.33539 -0.36835 -0.041652 -0.33539 -0.36835 -0.041652 -0.94055 0.22526 -0.034405 -0.93223 0.23313 -0.035996 -0.92427 0.2277 -0.034345 -0.92249 0.21594 -0.031994 -0.93008 0.20467 -0.031069 -0.94315 0.20094 -0.031766 -0.9552 0.20676 -0.033538 -0.96022 0.21908 -0.035701 -0.95581 0.23033 -0.037444 -0.94678 0.23434 -0.037425 -0.92543 0.19265 -0.019591 -0.93386 0.19995 -0.023421 -0.92958 0.20904 -0.021375 -0.91845 0.21275 -0.016877 -0.90656 0.20666 -0.013127 -0.90133 0.19372 -0.012009 -0.90555 0.18035 -0.013908 -0.91693 0.17325 -0.01805 -0.92831 0.17602 -0.022355 -0.93327 0.18472 -0.023873 -0.90888 0.16052 -0.018997 -0.89911 0.16484 -0.022102 -0.89335 0.1577 -0.019842 -0.89504 0.14683 -0.015649 -0.90522 0.13911 -0.012614 -0.91827 0.13967 -0.012247 -0.92763 0.14841 -0.014567 -0.9287 0.1608 -0.018581 -0.92149 0.16938 -0.022294 -0.91208 0.17023 -0.023233 -0.93354 0.23789 -0.033273 -0.93709 0.24518 -0.035766 -0.9318 0.25 -0.034093 -0.92347 0.24929 -0.030852 -0.91732 0.24185 -0.028409 -0.9174 0.23176 -0.027984 -0.92382 0.22407 -0.029663 -0.93324 0.22259 -0.032736 -0.93996 0.22768 -0.035667 -0.94086 0.23489 -0.036492 -0.91336 0.2144 -0.017641 -0.91334 0.22339 -0.019629 -0.90591 0.22537 -0.017912 -0.89817 0.22039 -0.01506 -0.89577 0.21002 -0.013319 -0.90069 0.20023 -0.013468 -0.91058 0.19602 -0.015285 -0.92041 0.19937 -0.018013 -0.92449 0.2078 -0.020381 -0.92191 0.21528 -0.020768 -0.99475 0.25119 -0.039012 -0.9893 0.25737 -0.040262 -0.98321 0.25404 -0.038981 -0.98115 0.24576 -0.037113 -0.98585 0.23718 -0.036293 -0.995 0.23361 -0.036761 -1.0041 0.23694 -0.03814 -1.0085 0.2454 -0.039886 -1.0061 0.25374 -0.0413 -0.99983 0.25723 -0.041331 -1.0188 0.2373 -0.027527 -1.0102 0.24626 -0.031948 -1.0006 0.24178 -0.028528 -0.99734 0.22995 -0.02219 -1.0047 0.21718 -0.017409 -1.0191 0.21146 -0.016739 -1.0333 0.21587 -0.020348 -1.0403 0.22799 -0.026603 -1.0366 0.24013 -0.032217 -1.0268 0.2455 -0.033649 -1.0414 0.22388 -0.03026 -1.0295 0.21786 -0.034786 -1.0322 0.20613 -0.032937 -1.0444 0.19868 -0.02822 -1.0599 0.20241 -0.023985 -1.0694 0.21593 -0.022296 -1.0679 0.23258 -0.023782 -1.0564 0.24399 -0.027915 -1.0422 0.244 -0.032682 -1.0341 0.23533 -0.034668 -0.94054 0.24706 -0.033673 -0.94687 0.25638 -0.037969 -0.94066 0.26438 -0.035353 -0.92913 0.26538 -0.029904 -0.9191 0.25643 -0.025418 -0.91705 0.24228 -0.024251 -0.92422 0.23001 -0.026823 -0.93682 0.22569 -0.032014 -0.94709 0.23121 -0.037117 -0.94984 0.24108 -0.038782 -0.92542 0.23018 -0.01833 -0.92572 0.24453 -0.020505 -0.91387 0.24765 -0.018337 -0.90133 0.23971 -0.015152 -0.89721 0.22325 -0.013755 -0.90481 0.20774 -0.014535 -0.9205 0.20105 -0.016854 -0.93631 0.20638 -0.019806 -0.94311 0.21979 -0.022227 -0.93921 0.23168 -0.022299 -0.97381 0.31362 -0.0348 -0.96576 0.30169 -0.040507 -0.97457 0.2917 -0.03894 -0.99007 0.29077 -0.033659 -1.0029 0.30249 -0.02824 -1.0047 0.32056 -0.025375 -0.9944 0.33592 -0.026262 -0.97736 0.34097 -0.030689 -0.96394 0.33366 -0.036458 -0.96086 0.32104 -0.039362 -0.98271 0.34481 -0.020272 -0.99304 0.34578 -0.023165 -0.99409 0.35497 -0.022361 -0.98708 0.36372 -0.019834 -0.97469 0.36535 -0.017492 -0.96421 0.35826 -0.016335 -0.96099 0.34588 -0.016761 -0.96651 0.33448 -0.018737 -0.9769 0.33053 -0.021443 -0.98511 0.3345 -0.022742 1.417 0.20691 -0.049724 1.4188 0.20899 -0.050981 1.4201 0.20844 -0.050984 1.4212 0.20675 -0.050426 1.4218 0.20431 -0.04955 1.4217 0.20082 -0.048387 1.4204 0.19674 -0.047308 1.4178 0.19302 -0.046668 1.4149 0.19092 -0.046487 1.4119 0.19075 -0.046497 1.4096 0.19305 -0.046604 1.4085 0.19679 -0.046876 1.4087 0.20148 -0.04757 1.41 0.20557 -0.048649 1.4119 0.20834 -0.049772 1.4138 0.20977 -0.050593 1.4155 0.2103 -0.051087 1.4169 0.20978 -0.051024 1.4164 0.20595 -0.035935 1.4124 0.20571 -0.037477 1.4111 0.20783 -0.037553 1.411 0.21089 -0.036973 1.412 0.21423 -0.036042 1.4149 0.21786 -0.034857 1.4198 0.22079 -0.033897 1.426 0.22189 -0.033544 1.4316 0.22076 -0.033632 1.4358 0.2175 -0.033726 1.437 0.21248 -0.033614 1.4355 0.2072 -0.033512 1.4317 0.2023 -0.033857 1.4268 0.19938 -0.034817 1.4222 0.19854 -0.036008 1.4186 0.1991 -0.036947 1.4158 0.20057 -0.037537 1.4144 0.20266 -0.037471 1.4156 0.20475 -0.022152 1.4191 0.20127 -0.025564 1.4183 0.19836 -0.025708 1.4156 0.19583 -0.024414 1.4117 0.1942 -0.022157 1.4059 0.19404 -0.018763 1.3989 0.19639 -0.014846 1.3924 0.20152 -0.011377 1.3886 0.20772 -0.0092358 1.388 0.21423 -0.008291 1.3916 0.21927 -0.0089555 1.3978 0.222 -0.01088 1.4057 0.22218 -0.01422 1.4126 0.21981 -0.018137 1.4174 0.21608 -0.021626 1.4199 0.21227 -0.024015 1.421 0.20848 -0.025463 1.4202 0.20553 -0.025461 1.4147 0.20303 -0.008383 1.4146 0.20736 -0.0099845 1.4166 0.20801 -0.0099707 1.4194 0.20704 -0.0092175 1.4225 0.20468 -0.008136 1.4258 0.20027 -0.0069636 1.4285 0.19389 -0.0064077 1.4295 0.18665 -0.0068816 1.4285 0.181 -0.0077973 1.4254 0.1777 -0.0083882 1.4207 0.17832 -0.008068 1.4157 0.18189 -0.0073616 1.4111 0.1879 -0.0070119 1.4085 0.19429 -0.0075675 1.4078 0.1996 -0.0086487 1.4084 0.20322 -0.0096026 1.4098 0.20566 -0.010208 1.4117 0.20637 -0.010084 1.4138 0.20118 0.0053823 1.4113 0.19718 0.002672 1.4086 0.19788 0.0025421 1.406 0.20058 0.0035747 1.404 0.20472 0.0052811 1.4031 0.21094 0.0075745 1.4041 0.21863 0.0097008 1.4077 0.2261 0.010953 1.4126 0.23076 0.011349 1.4181 0.2319 0.011496 1.423 0.2282 0.011611 1.4262 0.22156 0.011416 1.4275 0.21292 0.010285 1.4264 0.20523 0.0081581 1.4238 0.19987 0.0057765 1.4209 0.19694 0.0039468 1.4178 0.19563 0.0027712 1.4151 0.19624 0.0027684 1.4126 0.19872 0.019131 1.4154 0.19978 0.017739 1.4165 0.19858 0.017716 1.4169 0.19644 0.018302 1.4164 0.19384 0.019242 1.4146 0.19062 0.020509 1.4113 0.18745 0.021716 1.4069 0.18526 0.022477 1.4029 0.1848 0.022743 1.3996 0.18618 0.022788 1.3984 0.18947 0.022689 1.399 0.19354 0.022382 1.4013 0.19787 0.021597 1.4046 0.20104 0.02039 1.4079 0.20268 0.019142 1.4105 0.20309 0.018226 1.4126 0.20267 0.017669 1.4138 0.2015 0.01772 1.4114 0.19615 0.032877 1.4093 0.19731 0.0313 1.4093 0.19851 0.031298 1.4103 0.19968 0.031996 1.412 0.20057 0.033128 1.4148 0.20101 0.03472 1.4185 0.20054 0.036392 1.4223 0.19897 0.037674 1.4251 0.1968 0.038321 1.4262 0.19429 0.038522 1.425 0.19207 0.038239 1.4222 0.19057 0.03753 1.4183 0.18998 0.036211 1.4146 0.19045 0.034539 1.4118 0.1916 0.032973 1.4102 0.19294 0.03188 1.4093 0.19436 0.031227 1.4093 0.19556 0.031271 1.41 0.19301 0.046608 1.4106 0.19089 0.045621 1.4096 0.19022 0.045549 1.408 0.19021 0.045882 1.4061 0.19084 0.046471 1.4039 0.19243 0.047329 1.4019 0.19508 0.048249 1.4006 0.19841 0.048978 1.4006 0.20133 0.049385 1.4019 0.20348 0.049586 1.4044 0.20405 0.049539 1.4072 0.20322 0.04925 1.4102 0.20113 0.048592 1.4122 0.19848 0.047671 1.4132 0.19598 0.046762 1.4133 0.19407 0.0461 1.4129 0.1926 0.045684 1.4119 0.19189 0.045678</float_array><technique_common><accessor source="#weeds_-04+00_foliage-pos-a" count="614" stride="3"><param name="X" type="float"/><param name="Y" type="float"/><param name="Z" type="float"/></accessor></technique_common></source>
        <source id="weeds_-04+00_foliage-nrm"><float_array id="weeds_-04+00_foliage-nrm-a" count="3252">-0.415 0.823 0.387 -0.362 0.789 0.497 -0.359 0.787 0.503 -0.141 0.344 0.928 -0.1 0.241 0.965 0.172 -0.544 0.821 0.188 -0.612 0.768 0.232 -0.82 0.523 -0.624 0.68 0.385 -0.567 0.66 0.492 -0.564 0.659 0.497 -0.234 0.295 0.926 -0.173 0.218 0.961 0.327 -0.473 0.818 0.359 -0.528 0.77 0.467 -0.718 0.516 0.316 -0.889 0.331 0.268 -0.87 0.414 0.265 -0.868 0.419 0.146 -0.54 0.829 0.124 -0.447 0.886 -0.016 0.39 0.921 -0.029 0.531 0.847 -0.059 0.839 0.541 -0.768 -0.489 0.412 -0.689 -0.495 0.53 -0.695 -0.495 0.522 -0.177 -0.122 0.977 -0.292 -0.221 0.931 0.437 0.496 0.75 0.38 0.42 0.825 0.555 0.656 0.512 -0.475 -0.809 0.347 -0.467 -0.773 0.43 -0.467 -0.772 0.431 -0.274 -0.447 0.852 -0.26 -0.425 0.867 0.244 0.329 0.912 0.269 0.365 0.891 0.482 0.672 0.562 -0.649 0.684 0.332 -0.655 0.63 0.418 -0.654 0.633 0.414 -0.342 0.31 0.887 -0.418 0.375 0.827 0.481 -0.286 0.828 0.355 -0.207 0.912 0.729 -0.445 0.52 0.939 -0.049 0.339 0.898 -0.078 0.434 0.895 -0.079 0.438 0.484 -0.052 0.873 0.392 -0.039 0.919 -0.463 0.125 0.878 -0.555 0.15 0.819 -0.813 0.219 0.539 -0.777 0.438 0.452 -0.696 0.4 0.596 -0.695 0.4 0.597 -0.114 0.075 0.991 -0.094 0.063 0.994 0.61 -0.355 0.709 0.616 -0.359 0.702 0.746 -0.443 0.497 -0.66 0.631 0.407 -0.607 0.592 0.53 -0.607 0.592 0.531 -0.18 0.19 0.965 -0.162 0.172 0.972 0.458 -0.451 0.766 0.466 -0.46 0.756 0.604 -0.61 0.513 0.102 0.905 0.413 0.138 0.835 0.533 0.141 0.828 0.542 0.063 0.324 0.944 0.022 0.167 0.986 -0.213 -0.553 0.805 -0.252 -0.626 0.738 -0.339 -0.781 0.525 -0.6 0.665 0.445 -0.552 0.589 0.59 -0.554 0.593 0.584 -0.047 0.089 0.995 -0.108 0.146 0.983 0.552 -0.461 0.694 0.53 -0.444 0.722 0.67 -0.553 0.496 -0.927 0.027 0.375 -0.879 0.02 0.476 -0.88 0.02 0.475 -0.378 0.011 0.926 -0.398 0.011 0.917 0.564 0.011 0.826 0.547 0.011 0.837 0.849 0.015 0.528 0.852 -0.404 0.334 0.828 -0.359 0.431 0.829 -0.361 0.427 0.386 -0.149 0.91 0.462 -0.179 0.868 -0.536 0.158 0.829 -0.452 0.136 0.881 -0.808 0.228 0.543 -0.209 0.915 0.345 -0.226 0.87 0.438 -0.225 0.872 0.435 -0.108 0.414 0.904 -0.129 0.482 0.867 0.223 -0.496 0.839 0.19 -0.418 0.888 0.336 -0.772 0.54 -0.639 0.699 0.321 -0.618 0.677 0.4 -0.369 0.417 0.831 -0.369 0.417 0.83 0.298 -0.303 0.905 0.298 -0.302 0.905 0.573 -0.608 0.549 -0.116 -0.943 0.311 -0.104 -0.884 0.456 -0.104 -0.884 0.455 -0.018 -0.274 0.961 -0.02 -0.284 0.958 0.085 0.623 0.778 0.084 0.619 0.781 0.101 0.807 0.581 0.881 -0.297 0.368 0.812 -0.313 0.492 0.809 -0.314 0.497 0.271 -0.185 0.945 0.193 -0.158 0.968 -0.587 0.179 0.79 -0.62 0.199 0.759 -0.78 0.306 0.546 -0.865 0.196 0.462 -0.777 0.192 0.6 -0.769 0.192 0.61 -0.207 -0.053 0.977 -0.066 -0.118 0.991 0.604 -0.416 0.68 0.644 -0.44 0.626 0.75 -0.502 0.431 -0.626 0.614 0.481 -0.586 0.54 0.604 -0.587 0.542 0.602 -0.131 0.038 0.991 -0.165 0.071 0.984 0.506 -0.532 0.679 0.491 -0.521 0.698 0.645 -0.625 0.441 -0.075 0.913 0.402 -0.08 0.876 0.475 -0.08 0.877 0.474 -0.053 0.482 0.874 -0.055 0.498 0.866 0.06 -0.536 0.842 0.057 -0.509 0.859 0.107 -0.889 0.444 0.754 -0.58 0.31 0.72 -0.547 0.427 0.721 -0.548 0.424 0.253 -0.276 0.927 0.296 -0.302 0.906 -0.539 0.227 0.811 -0.509 0.208 0.835 -0.74 0.365 0.566 -0.071 -0.967 0.244 -0.089 -0.933 0.348 -0.09 -0.932 0.351 -0.046 -0.523 0.851 -0.035 -0.452 0.891 0.124 0.465 0.876 0.137 0.525 0.84 0.192 0.783 0.591 0.471 0.739 0.481 0.407 0.679 0.611 0.411 0.684 0.603 0.086 -0.004 0.996 0.146 0.134 0.98 -0.236 -0.766 0.598 -0.223 -0.721 0.656 -0.269 -0.885 0.38 0.396 -0.872 0.286 0.406 -0.815 0.413 0.406 -0.819 0.405 0.104 -0.315 0.944 0.176 -0.422 0.889 -0.422 0.442 0.792 -0.372 0.382 0.846 -0.551 0.605 0.574 -0.939 -0.179 0.292 -0.902 -0.228 0.366 -0.904 -0.226 0.362 -0.498 -0.228 0.837 -0.589 -0.243 0.771 0.508 0.135 0.851 0.356 0.058 0.933 0.788 0.292 0.542 0.391 -0.822 0.414 0.376 -0.741 0.557 0.376 -0.741 0.556 0.166 -0.13 0.977 0.17 -0.139 0.976 -0.187 0.629 0.754 -0.185 0.626 0.758 -0.281 0.787 0.549 0.931 0.177 0.319 0.88 0.146 0.452 0.878 0.144 0.457 0.365 0.06 0.929 0.287 0.051 0.957 -0.538 -0.027 0.842 -0.579 -0.028 0.815 -0.789 -0.032 0.614 -0.82 -0.169 0.547 -0.727 -0.119 0.677 -0.719 -0.115 0.686 -0.094 -0.033 0.995 0.054 -0.024 0.998 0.749 -0.009 0.662 0.794 -0.017 0.608 0.912 -0.042 0.407 -0.812 0.28 0.513 -0.73 0.248 0.637 -0.732 0.249 0.635 -0.073 0.072 0.995 -0.117 0.083 0.99 0.721 -0.144 0.678 0.703 -0.14 0.697 0.881 -0.186 0.436 -0.503 0.781 0.369 -0.483 0.752 0.448 -0.483 0.753 0.447 -0.228 0.454 0.861 -0.238 0.466 0.852 0.352 -0.32 0.88 0.336 -0.298 0.893 0.559 -0.646 0.52 0.95 -0.116 0.289 0.908 -0.092 0.409 0.909 -0.093 0.406 0.391 -0.022 0.92 0.439 -0.026 0.898 -0.519 0.034 0.854 -0.482 0.033 0.875 -0.78 0.035 0.625 0.441 -0.83 0.341 0.411 -0.794 0.448 0.409 -0.792 0.452 0.257 -0.354 0.899 0.234 -0.287 0.929 -0.069 0.519 0.852 -0.09 0.574 0.814 -0.188 0.811 0.554 0.078 0.904 0.42 0.057 0.824 0.563 0.058 0.83 0.555 0.127 0.13 0.983 0.112 0.264 0.958 0.206 -0.679 0.705 0.198 -0.626 0.755 0.229 -0.835 0.5 0.791 -0.519 0.323 0.773 -0.451 0.446 0.775 -0.455 0.439 0.286 -0.113 0.952 0.395 -0.174 0.902 -0.525 0.255 0.812 -0.449 0.232 0.863 -0.736 0.314 0.6 -0.73 -0.542 0.417 -0.666 -0.558 0.495 -0.67 -0.557 0.491 -0.267 -0.312 0.912 -0.343 -0.374 0.862 0.417 0.412 0.81 0.323 0.289 0.901 0.585 0.655 0.478 0.082 -0.172 -0.982 0.039 -0.238 -0.971 0.034 -0.206 -0.978 0.053 -0.152 -0.987 0.078 -0.121 -0.99 0.088 -0.117 -0.989 0.096 -0.123 -0.988 0.114 -0.157 -0.981 0.122 -0.215 -0.969 0.111 -0.245 -0.963 0.352 0.041 -0.935 0.419 0.007 -0.908 0.39 -0.002 -0.921 0.336 0.01 -0.942 0.304 0.03 -0.952 0.298 0.04 -0.954 0.303 0.049 -0.952 0.333 0.071 -0.94 0.386 0.086 -0.919 0.415 0.079 -0.906 -0.06 -0.341 -0.938 -0.12 -0.386 -0.915 -0.115 -0.356 -0.927 -0.081 -0.313 -0.946 -0.049 -0.293 -0.955 -0.038 -0.292 -0.956 -0.031 -0.3 -0.953 -0.025 -0.337 -0.941 -0.034 -0.391 -0.92 -0.053 -0.414 -0.909 0.347 -0.061 -0.936 0.396 -0.119 -0.911 0.366 -0.115 -0.923 0.321 -0.083 -0.944 0.298 -0.052 -0.953 0.297 -0.041 -0.954 0.305 -0.034 -0.952 0.341 -0.026 -0.94 0.396 -0.033 -0.918 0.42 -0.052 -0.906 0.254 -0.134 -0.958 0.273 -0.209 -0.939 0.247 -0.191 -0.95 0.22 -0.141 -0.965 0.213 -0.103 -0.972 0.217 -0.093 -0.972 0.227 -0.09 -0.97 0.264 -0.1 -0.959 0.31 -0.132 -0.941 0.324 -0.16 -0.932 0.102 -0.184 -0.978 0.065 -0.253 -0.965 0.057 -0.222 -0.973 0.071 -0.166 -0.984 0.092 -0.133 -0.987 0.102 -0.128 -0.987 0.111 -0.133 -0.985 0.132 -0.166 -0.977 0.145 -0.222 -0.964 0.137 -0.253 -0.958 0.112 -0.435 -0.893 0.075 -0.498 -0.864 0.068 -0.471 -0.88 0.081 -0.42 -0.904 0.102 -0.389 -0.916 0.112 -0.384 -0.917 0.121 -0.388 -0.914 0.142 -0.418 -0.897 0.155 -0.468 -0.87 0.147 -0.495 -0.856 -0.308 -0.075 -0.948 -0.381 -0.058 -0.923 -0.355 -0.043 -0.934 -0.3 -0.042 -0.953 -0.264 -0.054 -0.963 -0.256 -0.062 -0.965 -0.258 -0.072 -0.963 -0.283 -0.1 -0.954 -0.331 -0.127 -0.935 -0.362 -0.127 -0.924 0.419 -0.033 -0.907 0.474 -0.082 -0.877 0.445 -0.083 -0.891 0.397 -0.059 -0.916 0.371 -0.032 -0.928 0.368 -0.022 -0.929 0.375 -0.014 -0.927 0.408 0 -0.913 0.461 0.002 -0.887 0.487 -0.012 -0.873 0.193 -0.066 -0.979 0.214 -0.142 -0.966 0.188 -0.124 -0.974 0.159 -0.073 -0.985 0.152 -0.035 -0.988 0.155 -0.025 -0.988 0.165 -0.022 -0.986 0.203 -0.032 -0.979 0.251 -0.065 -0.966 0.266 -0.093 -0.959 -0.316 0.136 -0.939 -0.372 0.185 -0.91 -0.341 0.186 -0.921 -0.292 0.161 -0.943 -0.267 0.134 -0.954 -0.264 0.123 -0.957 -0.271 0.116 -0.956 -0.307 0.102 -0.946 -0.362 0.102 -0.927 -0.388 0.116 -0.914 0.201 0.105 -0.974 0.278 0.115 -0.954 0.258 0.091 -0.962 0.205 0.07 -0.976 0.166 0.068 -0.984 0.156 0.073 -0.985 0.155 0.084 -0.984 0.169 0.12 -0.978 0.206 0.163 -0.965 0.236 0.174 -0.956 -0.107 -0.317 -0.942 -0.17 -0.399 -0.901 -0.169 -0.402 -0.9 -0.168 -0.384 -0.908 -0.145 -0.329 -0.933 -0.064 -0.26 -0.964 0.041 -0.218 -0.975 0.083 -0.209 -0.974 0.036 -0.203 -0.979 -0.051 -0.18 -0.982 -0.135 -0.148 -0.98 -0.175 -0.127 -0.976 -0.149 -0.158 -0.976 -0.1 -0.248 -0.964 -0.088 -0.348 -0.933 -0.11 -0.403 -0.909 -0.123 -0.417 -0.901 -0.12 -0.416 -0.902 0.222 0.142 -0.965 0.348 0.185 -0.919 0.348 0.188 -0.918 0.331 0.167 -0.929 0.271 0.13 -0.954 0.163 0.109 -0.981 0.059 0.122 -0.991 0.019 0.137 -0.99 0.04 0.113 -0.993 0.083 0.051 -0.995 0.117 -0.016 -0.993 0.128 -0.047 -0.991 0.134 -0.002 -0.991 0.168 0.1 -0.981 0.234 0.192 -0.953 0.293 0.232 -0.928 0.318 0.239 -0.918 0.315 0.239 -0.918 -0.508 0.154 -0.847 -0.573 0.204 -0.793 -0.574 0.204 -0.793 -0.556 0.206 -0.805 -0.515 0.196 -0.834 -0.466 0.149 -0.872 -0.434 0.084 -0.897 -0.426 0.053 -0.903 -0.423 0.076 -0.903 -0.408 0.129 -0.904 -0.387 0.181 -0.904 -0.376 0.202 -0.904 -0.402 0.179 -0.898 -0.469 0.139 -0.872 -0.539 0.122 -0.833 -0.581 0.131 -0.804 -0.594 0.141 -0.792 0.1 -0.189 -0.977 0.119 -0.342 -0.932 0.126 -0.344 -0.93 0.109 -0.323 -0.94 0.081 -0.238 -0.968 0.107 -0.079 -0.991 0.183 0.064 -0.981 0.221 0.11 -0.969 0.16 0.074 -0.984 0.03 0.013 -0.999 -0.104 -0.038 -0.994 -0.172 -0.056 -0.984 -0.115 -0.062 -0.991 0.028 -0.113 -0.993 0.141 -0.212 -0.967 0.171 -0.297 -0.939 0.17 -0.326 -0.93 0.174 -0.319 -0.932 0.112 0.363 -0.925 0.168 0.478 -0.862 0.165 0.482 -0.861 0.168 0.459 -0.872 0.151 0.388 -0.909 0.066 0.288 -0.955 -0.049 0.214 -0.976 -0.098 0.194 -0.976 -0.042 0.196 -0.98 0.07 0.185 -0.98 0.178 0.163 -0.97 0.229 0.145 -0.963 0.193 0.177 -0.965 0.12 0.279 -0.953 0.088 0.399 -0.913 0.104 0.47 -0.876 0.117 0.49 -0.864 0.112 0.488 -0.866 -0.243 -0.244 -0.939 -0.332 -0.293 -0.897 -0.332 -0.296 -0.896 -0.323 -0.279 -0.904 -0.281 -0.239 -0.929 -0.185 -0.21 -0.96 -0.082 -0.214 -0.973 -0.044 -0.224 -0.974 -0.077 -0.2 -0.977 -0.138 -0.144 -0.98 -0.192 -0.082 -0.978 -0.215 -0.047 -0.975 -0.207 -0.086 -0.975 -0.206 -0.188 -0.96 -0.239 -0.283 -0.929 -0.281 -0.323 -0.904 -0.298 -0.331 -0.895 -0.295 -0.331 -0.896 0.503 0.005 -0.864 0.592 -0.025 -0.806 0.595 -0.021 -0.804 0.578 -0.028 -0.815 0.522 -0.026 -0.853 0.438 0.034 -0.898 0.376 0.127 -0.918 0.359 0.167 -0.918 0.363 0.113 -0.925 0.357 0.009 -0.934 0.34 -0.096 -0.935 0.325 -0.15 -0.934 0.351 -0.111 -0.93 0.433 -0.02 -0.901 0.527 0.034 -0.849 0.583 0.033 -0.811 0.599 0.025 -0.801 0.597 0.029 -0.802 -0.169 0.285 -0.944 -0.192 0.371 -0.909 -0.193 0.371 -0.908 -0.177 0.362 -0.915 -0.15 0.325 -0.934 -0.138 0.25 -0.958 -0.153 0.173 -0.973 -0.166 0.141 -0.976 -0.148 0.16 -0.976 -0.104 0.197 -0.975 -0.056 0.23 -0.972 -0.033 0.242 -0.97 -0.067 0.238 -0.969 -0.144 0.246 -0.959 -0.212 0.278 -0.937 -0.24 0.314 -0.918 -0.245 0.332 -0.911 -0.245 0.331 -0.911 0.415 -0.823 -0.387 0.362 -0.789 -0.497 0.359 -0.787 -0.503 0.141 -0.344 -0.928 0.1 -0.241 -0.965 -0.172 0.544 -0.821 -0.188 0.612 -0.768 -0.232 0.82 -0.523 0.624 -0.68 -0.385 0.567 -0.66 -0.492 0.564 -0.659 -0.497 0.234 -0.295 -0.926 0.173 -0.218 -0.961 -0.327 0.473 -0.818 -0.359 0.528 -0.77 -0.467 0.718 -0.516 -0.316 0.889 -0.331 -0.268 0.87 -0.414 -0.265 0.868 -0.419 -0.146 0.54 -0.829 -0.124 0.447 -0.886 0.016 -0.39 -0.921 0.029 -0.531 -0.847 0.059 -0.839 -0.541 0.768 0.489 -0.412 0.689 0.495 -0.53 0.695 0.495 -0.522 0.177 0.122 -0.977 0.292 0.221 -0.931 -0.437 -0.496 -0.75 -0.38 -0.42 -0.825 -0.555 -0.656 -0.512 0.475 0.809 -0.347 0.467 0.773 -0.43 0.467 0.772 -0.431 0.274 0.447 -0.852 0.26 0.425 -0.867 -0.244 -0.329 -0.912 -0.269 -0.365 -0.891 -0.482 -0.672 -0.562 0.649 -0.684 -0.332 0.655 -0.63 -0.418 0.654 -0.633 -0.414 0.342 -0.31 -0.887 0.418 -0.375 -0.827 -0.481 0.286 -0.828 -0.355 0.207 -0.912 -0.729 0.445 -0.52 -0.939 0.049 -0.339 -0.898 0.078 -0.434 -0.895 0.079 -0.438 -0.484 0.052 -0.873 -0.392 0.039 -0.919 0.463 -0.125 -0.878 0.555 -0.15 -0.819 0.813 -0.219 -0.539 0.777 -0.438 -0.452 0.696 -0.4 -0.596 0.695 -0.4 -0.597 0.114 -0.075 -0.991 0.094 -0.063 -0.994 -0.61 0.355 -0.709 -0.616 0.359 -0.702 -0.746 0.443 -0.497 0.66 -0.631 -0.407 0.607 -0.592 -0.53 0.607 -0.592 -0.531 0.18 -0.19 -0.965 0.162 -0.172 -0.972 -0.458 0.451 -0.766 -0.466 0.46 -0.756 -0.604 0.61 -0.513 -0.102 -0.905 -0.413 -0.138 -0.835 -0.533 -0.141 -0.828 -0.542 -0.063 -0.324 -0.944 -0.022 -0.167 -0.986 0.213 0.553 -0.805 0.252 0.626 -0.738 0.339 0.781 -0.525 0.6 -0.665 -0.445 0.552 -0.589 -0.59 0.554 -0.593 -0.584 0.047 -0.089 -0.995 0.108 -0.146 -0.983 -0.552 0.461 -0.694 -0.53 0.444 -0.722 -0.67 0.553 -0.496 0.927 -0.027 -0.375 0.879 -0.02 -0.476 0.88 -0.02 -0.475 0.378 -0.011 -0.926 0.398 -0.011 -0.917 -0.564 -0.011 -0.826 -0.547 -0.011 -0.837 -0.849 -0.015 -0.528 -0.852 0.404 -0.334 -0.828 0.359 -0.431 -0.829 0.361 -0.427 -0.386 0.149 -0.91 -0.462 0.179 -0.868 0.536 -0.158 -0.829 0.452 -0.136 -0.881 0.808 -0.228 -0.543 0.209 -0.915 -0.345 0.226 -0.87 -0.438 0.225 -0.872 -0.435 0.108 -0.414 -0.904 0.129 -0.482 -0.867 -0.223 0.496 -0.839 -0.19 0.418 -0.888 -0.336 0.772 -0.54 0.639 -0.699 -0.321 0.618 -0.677 -0.4 0.369 -0.417 -0.831 0.369 -0.417 -0.83 -0.298 0.303 -0.905 -0.298 0.302 -0.905 -0.573 0.608 -0.549 0.116 0.943 -0.311 0.104 0.884 -0.456 0.104 0.884 -0.455 0.018 0.274 -0.961 0.02 0.284 -0.958 -0.085 -0.623 -0.778 -0.084 -0.619 -0.781 -0.101 -0.807 -0.581 -0.881 0.297 -0.368 -0.812 0.313 -0.492 -0.809 0.314 -0.497 -0.271 0.185 -0.945 -0.193 0.158 -0.968 0.587 -0.179 -0.79 0.62 -0.199 -0.759 0.78 -0.306 -0.546 0.865 -0.196 -0.462 0.777 -0.192 -0.6 0.769 -0.192 -0.61 0.207 0.053 -0.977 0.066 0.118 -0.991 -0.604 0.416 -0.68 -0.644 0.44 -0.626 -0.75 0.502 -0.431 0.626 -0.614 -0.481 0.586 -0.54 -0.604 0.587 -0.542 -0.602 0.131 -0.038 -0.991 0.165 -0.071 -0.984 -0.506 0.532 -0.679 -0.491 0.521 -0.698 -0.645 0.625 -0.441 0.075 -0.913 -0.402 0.08 -0.876 -0.475 0.08 -0.877 -0.474 0.053 -0.482 -0.874 0.055 -0.498 -0.866 -0.06 0.536 -0.842 -0.057 0.509 -0.859 -0.107 0.889 -0.444 -0.754 0.58 -0.31 -0.72 0.547 -0.427 -0.721 0.548 -0.424 -0.253 0.276 -0.927 -0.296 0.302 -0.906 0.539 -0.227 -0.811 0.509 -0.208 -0.835 0.74 -0.365 -0.566 0.071 0.967 -0.244 0.089 0.933 -0.348 0.09 0.932 -0.351 0.046 0.523 -0.851 0.035 0.452 -0.891 -0.124 -0.465 -0.876 -0.137 -0.525 -0.84 -0.192 -0.783 -0.591 -0.471 -0.739 -0.481 -0.407 -0.679 -0.611 -0.411 -0.684 -0.603 -0.086 0.004 -0.996 -0.146 -0.134 -0.98 0.236 0.766 -0.598 0.223 0.721 -0.656 0.269 0.885 -0.38 -0.396 0.872 -0.286 -0.406 0.815 -0.413 -0.406 0.819 -0.405 -0.104 0.315 -0.944 -0.176 0.422 -0.889 0.422 -0.442 -0.792 0.372 -0.382 -0.846 0.551 -0.605 -0.574 0.939 0.179 -0.292 0.902 0.228 -0.366 0.904 0.226 -0.362 0.498 0.228 -0.837 0.589 0.243 -0.771 -0.508 -0.135 -0.851 -0.356 -0.058 -0.933 -0.788 -0.292 -0.542 -0.391 0.822 -0.414 -0.376 0.741 -0.557 -0.376 0.741 -0.556 -0.166 0.13 -0.977 -0.17 0.139 -0.976 0.187 -0.629 -0.754 0.185 -0.626 -0.758 0.281 -0.787 -0.549 -0.931 -0.177 -0.319 -0.88 -0.146 -0.452 -0.878 -0.144 -0.457 -0.365 -0.06 -0.929 -0.287 -0.051 -0.957 0.538 0.027 -0.842 0.579 0.028 -0.815 0.789 0.032 -0.614 0.82 0.169 -0.547 0.727 0.119 -0.677 0.719 0.115 -0.686 0.094 0.033 -0.995 -0.054 0.024 -0.998 -0.749 0.009 -0.662 -0.794 0.017 -0.608 -0.912 0.042 -0.407 0.812 -0.28 -0.513 0.73 -0.248 -0.637 0.732 -0.249 -0.635 0.073 -0.072 -0.995 0.117 -0.083 -0.99 -0.721 0.144 -0.678 -0.703 0.14 -0.697 -0.881 0.186 -0.436 0.503 -0.781 -0.369 0.483 -0.752 -0.448 0.483 -0.753 -0.447 0.228 -0.454 -0.861 0.238 -0.466 -0.852 -0.352 0.32 -0.88 -0.336 0.298 -0.893 -0.559 0.646 -0.52 -0.95 0.116 -0.289 -0.908 0.092 -0.409 -0.909 0.093 -0.406 -0.391 0.022 -0.92 -0.439 0.026 -0.898 0.519 -0.034 -0.854 0.482 -0.033 -0.875 0.78 -0.035 -0.625 -0.441 0.83 -0.341 -0.411 0.794 -0.448 -0.409 0.792 -0.452 -0.257 0.354 -0.899 -0.234 0.287 -0.929 0.069 -0.519 -0.852 0.09 -0.574 -0.814 0.188 -0.811 -0.554 -0.078 -0.904 -0.42 -0.057 -0.824 -0.563 -0.058 -0.83 -0.555 -0.127 -0.13 -0.983 -0.112 -0.264 -0.958 -0.206 0.679 -0.705 -0.198 0.626 -0.755 -0.229 0.835 -0.5 -0.791 0.519 -0.323 -0.773 0.451 -0.446 -0.775 0.455 -0.439 -0.286 0.113 -0.952 -0.395 0.174 -0.902 0.525 -0.255 -0.812 0.449 -0.232 -0.863 0.736 -0.314 -0.6 0.73 0.542 -0.417 0.666 0.558 -0.495 0.67 0.557 -0.491 0.267 0.312 -0.912 0.343 0.374 -0.862 -0.417 -0.412 -0.81 -0.323 -0.289 -0.901 -0.585 -0.655 -0.478 -0.082 0.172 0.982 -0.039 0.238 0.971 -0.034 0.206 0.978 -0.053 0.152 0.987 -0.078 0.121 0.99 -0.088 0.117 0.989 -0.096 0.123 0.988 -0.114 0.157 0.981 -0.122 0.215 0.969 -0.111 0.245 0.963 -0.352 -0.041 0.935 -0.419 -0.007 0.908 -0.39 0.002 0.921 -0.336 -0.01 0.942 -0.304 -0.03 0.952 -0.298 -0.04 0.954 -0.303 -0.049 0.952 -0.333 -0.071 0.94 -0.386 -0.086 0.919 -0.415 -0.079 0.906 0.06 0.341 0.938 0.12 0.386 0.915 0.115 0.356 0.927 0.081 0.313 0.946 0.049 0.293 0.955 0.038 0.292 0.956 0.031 0.3 0.953 0.025 0.337 0.941 0.034 0.391 0.92 0.053 0.414 0.909 -0.347 0.061 0.936 -0.396 0.119 0.911 -0.366 0.115 0.923 -0.321 0.083 0.944 -0.298 0.052 0.953 -0.297 0.041 0.954 -0.305 0.034 0.952 -0.341 0.026 0.94 -0.396 0.033 0.918 -0.42 0.052 0.906 -0.254 0.134 0.958 -0.273 0.209 0.939 -0.247 0.191 0.95 -0.22 0.141 0.965 -0.213 0.103 0.972 -0.217 0.093 0.972 -0.227 0.09 0.97 -0.264 0.1 0.959 -0.31 0.132 0.941 -0.324 0.16 0.932 -0.102 0.184 0.978 -0.065 0.253 0.965 -0.057 0.222 0.973 -0.071 0.166 0.984 -0.092 0.133 0.987 -0.102 0.128 0.987 -0.111 0.133 0.985 -0.132 0.166 0.977 -0.145 0.222 0.964 -0.137 0.253 0.958 -0.112 0.435 0.893 -0.075 0.498 0.864 -0.068 0.471 0.88 -0.081 0.42 0.904 -0.102 0.389 0.916 -0.112 0.384 0.917 -0.121 0.388 0.914 -0.142 0.418 0.897 -0.155 0.468 0.87 -0.147 0.495 0.856 0.308 0.075 0.948 0.381 0.058 0.923 0.355 0.043 0.934 0.3 0.042 0.953 0.264 0.054 0.963 0.256 0.062 0.965 0.258 0.072 0.963 0.283 0.1 0.954 0.331 0.127 0.935 0.362 0.127 0.924 -0.419 0.033 0.907 -0.474 0.082 0.877 -0.445 0.083 0.891 -0.397 0.059 0.916 -0.371 0.032 0.928 -0.368 0.022 0.929 -0.375 0.014 0.927 -0.408 -0 0.913 -0.461 -0.002 0.887 -0.487 0.012 0.873 -0.193 0.066 0.979 -0.214 0.142 0.966 -0.188 0.124 0.974 -0.159 0.073 0.985 -0.152 0.035 0.988 -0.155 0.025 0.988 -0.165 0.022 0.986 -0.203 0.032 0.979 -0.251 0.065 0.966 -0.266 0.093 0.959 0.316 -0.136 0.939 0.372 -0.185 0.91 0.341 -0.186 0.921 0.292 -0.161 0.943 0.267 -0.134 0.954 0.264 -0.123 0.957 0.271 -0.116 0.956 0.307 -0.102 0.946 0.362 -0.102 0.927 0.388 -0.116 0.914 -0.201 -0.105 0.974 -0.278 -0.115 0.954 -0.258 -0.091 0.962 -0.205 -0.07 0.976 -0.166 -0.068 0.984 -0.156 -0.073 0.985 -0.155 -0.084 0.984 -0.169 -0.12 0.978 -0.206 -0.163 0.965 -0.236 -0.174 0.956 0.107 0.317 0.942 0.17 0.399 0.901 0.169 0.402 0.9 0.168 0.384 0.908 0.145 0.329 0.933 0.064 0.26 0.964 -0.041 0.218 0.975 -0.083 0.209 0.974 -0.036 0.203 0.979 0.051 0.18 0.982 0.135 0.148 0.98 0.175 0.127 0.976 0.149 0.158 0.976 0.1 0.248 0.964 0.088 0.348 0.933 0.11 0.403 0.909 0.123 0.417 0.901 0.12 0.416 0.902 -0.222 -0.142 0.965 -0.348 -0.185 0.919 -0.348 -0.188 0.918 -0.331 -0.167 0.929 -0.271 -0.13 0.954 -0.163 -0.109 0.981 -0.059 -0.122 0.991 -0.019 -0.137 0.99 -0.04 -0.113 0.993 -0.083 -0.051 0.995 -0.117 0.016 0.993 -0.128 0.047 0.991 -0.134 0.002 0.991 -0.168 -0.1 0.981 -0.234 -0.192 0.953 -0.293 -0.232 0.928 -0.318 -0.239 0.918 -0.315 -0.239 0.918 0.508 -0.154 0.847 0.573 -0.204 0.793 0.574 -0.204 0.793 0.556 -0.206 0.805 0.515 -0.196 0.834 0.466 -0.149 0.872 0.434 -0.084 0.897 0.426 -0.053 0.903 0.423 -0.076 0.903 0.408 -0.129 0.904 0.387 -0.181 0.904 0.376 -0.202 0.904 0.402 -0.179 0.898 0.469 -0.139 0.872 0.539 -0.122 0.833 0.581 -0.131 0.804 0.594 -0.141 0.792 -0.1 0.189 0.977 -0.119 0.342 0.932 -0.126 0.344 0.93 -0.109 0.323 0.94 -0.081 0.238 0.968 -0.107 0.079 0.991 -0.183 -0.064 0.981 -0.221 -0.11 0.969 -0.16 -0.074 0.984 -0.03 -0.013 0.999 0.104 0.038 0.994 0.172 0.056 0.984 0.115 0.062 0.991 -0.028 0.113 0.993 -0.141 0.212 0.967 -0.171 0.297 0.939 -0.17 0.326 0.93 -0.174 0.319 0.932 -0.112 -0.363 0.925 -0.168 -0.478 0.862 -0.165 -0.482 0.861 -0.168 -0.459 0.872 -0.151 -0.388 0.909 -0.066 -0.288 0.955 0.049 -0.214 0.976 0.098 -0.194 0.976 0.042 -0.196 0.98 -0.07 -0.185 0.98 -0.178 -0.163 0.97 -0.229 -0.145 0.963 -0.193 -0.177 0.965 -0.12 -0.279 0.953 -0.088 -0.399 0.913 -0.104 -0.47 0.876 -0.117 -0.49 0.864 -0.112 -0.488 0.866 0.243 0.244 0.939 0.332 0.293 0.897 0.332 0.296 0.896 0.323 0.279 0.904 0.281 0.239 0.929 0.185 0.21 0.96 0.082 0.214 0.973 0.044 0.224 0.974 0.077 0.2 0.977 0.138 0.144 0.98 0.192 0.082 0.978 0.215 0.047 0.975 0.207 0.086 0.975 0.206 0.188 0.96 0.239 0.283 0.929 0.281 0.323 0.904 0.298 0.331 0.895 0.295 0.331 0.896 -0.503 -0.005 0.864 -0.592 0.025 0.806 -0.595 0.021 0.804 -0.578 0.028 0.815 -0.522 0.026 0.853 -0.438 -0.034 0.898 -0.376 -0.127 0.918 -0.359 -0.167 0.918 -0.363 -0.113 0.925 -0.357 -0.009 0.934 -0.34 0.096 0.935 -0.325 0.15 0.934 -0.351 0.111 0.93 -0.433 0.02 0.901 -0.527 -0.034 0.849 -0.583 -0.033 0.811 -0.599 -0.025 0.801 -0.597 -0.029 0.802 0.169 -0.285 0.944 0.192 -0.371 0.909 0.193 -0.371 0.908 0.177 -0.362 0.915 0.15 -0.325 0.934 0.138 -0.25 0.958 0.153 -0.173 0.973 0.166 -0.141 0.976 0.148 -0.16 0.976 0.104 -0.197 0.975 0.056 -0.23 0.972 0.033 -0.242 0.97 0.067 -0.238 0.969 0.144 -0.246 0.959 0.212 -0.278 0.937 0.24 -0.314 0.918 0.245 -0.332 0.911 0.245 -0.331 0.911</float_array><technique_common><accessor source="#weeds_-04+00_foliage-nrm-a" count="1084" stride="3"><param name="X" type="float"/><param name="Y" type="float"/><param name="Z" type="float"/></accessor></technique_common></source>
        <vertices id="weeds_-04+00_foliage-vtx"><input semantic="POSITION" source="#weeds_-04+00_foliage-pos"/></vertices>
        <triangles count="560" material="MAT_WEED_GRASS-mat"><input semantic="VERTEX" source="#weeds_-04+00_foliage-vtx" offset="0"/><input semantic="NORMAL" source="#weeds_-04+00_foliage-nrm" offset="1"/><p>0 0 1 0 2 1 0 0 2 1 3 2 3 2 2 1 4 3 3 2 4 3 5 4 5 4 4 3 6 5 5 4 6 5 7 6 7 6 6 5 8 7 7 6 8 7 9 7 10 8 11 8 12 9 10 8 12 9 13 10 13 10 12 9 14 11 13 10 14 11 15 12 15 12 14 11 16 13 15 12 16 13 17 14 17 14 16 13 18 15 17 14 18 15 19 15 20 16 21 16 22 17 20 16 22 17 23 18 23 18 22 17 24 19 23 18 24 19 25 20 25 20 24 19 26 21 25 20 26 21 27 22 27 22 26 21 28 23 27 22 28 23 29 23 30 24 31 24 32 25 30 24 32 25 33 26 33 26 32 25 34 27 33 26 34 27 35 28 35 28 34 27 36 29 35 28 36 29 37 30 37 30 36 29 38 31 37 30 38 31 39 31 40 32 41 32 42 33 40 32 42 33 43 34 43 34 42 33 44 35 43 34 44 35 45 36 45 36 44 35 46 37 45 36 46 37 47 38 47 38 46 37 48 39 47 38 48 39 49 39 50 40 51 40 52 41 50 40 52 41 53 42 53 42 52 41 54 43 53 42 54 43 55 44 55 44 54 43 56 45 55 44 56 45 57 46 57 46 56 45 58 47 57 46 58 47 59 47 60 48 61 48 62 49 60 48 62 49 63 50 63 50 62 49 64 51 63 50 64 51 65 52 65 52 64 51 66 53 65 52 66 53 67 54 67 54 66 53 68 55 67 54 68 55 69 55 70 56 71 56 72 57 70 56 72 57 73 58 73 58 72 57 74 59 73 58 74 59 75 60 75 60 74 59 76 61 75 60 76 61 77 62 77 62 76 61 78 63 77 62 78 63 79 63 80 64 81 64 82 65 80 64 82 65 83 66 83 66 82 65 84 67 83 66 84 67 85 68 85 68 84 67 86 69 85 68 86 69 87 70 87 70 86 69 88 71 87 70 88 71 89 71 90 72 91 72 92 73 90 72 92 73 93 74 93 74 92 73 94 75 93 74 94 75 95 76 95 76 94 75 96 77 95 76 96 77 97 78 97 78 96 77 98 79 97 78 98 79 99 79 100 80 101 80 102 81 100 80 102 81 103 82 103 82 102 81 104 83 103 82 104 83 105 84 105 84 104 83 106 85 105 84 106 85 107 86 107 86 106 85 108 87 107 86 108 87 109 87 110 88 111 88 112 89 110 88 112 89 113 90 113 90 112 89 114 91 113 90 114 91 115 92 115 92 114 91 116 93 115 92 116 93 117 94 117 94 116 93 118 95 117 94 118 95 119 95 120 96 121 96 122 97 120 96 122 97 123 98 123 98 122 97 124 99 123 98 124 99 125 100 125 100 124 99 126 101 125 100 126 101 127 102 127 102 126 101 128 103 127 102 128 103 129 103 130 104 131 104 132 105 130 104 132 105 133 106 133 106 132 105 134 107 133 106 134 107 135 108 135 108 134 107 136 109 135 108 136 109 137 110 137 110 136 109 138 111 137 110 138 111 139 111 140 112 141 112 142 113 140 112 142 113 143 113 143 113 142 113 144 114 143 113 144 114 145 115 145 115 144 114 146 116 145 115 146 116 147 117 147 117 146 116 148 118 147 117 148 118 149 118 150 119 151 119 152 120 150 119 152 120 153 121 153 121 152 120 154 122 153 121 154 122 155 123 155 123 154 122 156 124 155 123 156 124 157 125 157 125 156 124 158 126 157 125 158 126 159 126 160 127 161 127 162 128 160 127 162 128 163 129 163 129 162 128 164 130 163 129 164 130 165 131 165 131 164 130 166 132 165 131 166 132 167 133 167 133 166 132 168 134 167 133 168 134 169 134 170 135 171 135 172 136 170 135 172 136 173 137 173 137 172 136 174 138 173 137 174 138 175 139 175 139 174 138 176 140 175 139 176 140 177 141 177 141 176 140 178 142 177 141 178 142 179 142 180 143 181 143 182 144 180 143 182 144 183 145 183 145 182 144 184 146 183 145 184 146 185 147 185 147 184 146 186 148 185 147 186 148 187 149 187 149 186 148 188 150 187 149 188 150 189 150 190 151 191 151 192 152 190 151 192 152 193 153 193 153 192 152 194 154 193 153 194 154 195 155 195 155 194 154 196 156 195 155 196 156 197 157 197 157 196 156 198 158 197 157 198 158 199 158 200 159 201 159 202 160 200 159 202 160 203 161 203 161 202 160 204 162 203 161 204 162 205 163 205 163 204 162 206 164 205 163 206 164 207 165 207 165 206 164 208 166 207 165 208 166 209 166 210 167 211 167 212 168 210 167 212 168 213 169 213 169 212 168 214 170 213 169 214 170 215 171 215 171 214 170 216 172 215 171 216 172 217 173 217 173 216 172 218 174 217 173 218 174 219 174 220 175 221 175 222 176 220 175 222 176 223 177 223 177 222 176 224 178 223 177 224 178 225 179 225 179 224 178 226 180 225 179 226 180 227 181 227 181 226 180 228 182 227 181 228 182 229 182 230 183 231 183 232 184 230 183 232 184 233 185 233 185 232 184 234 186 233 185 234 186 235 187 235 187 234 186 236 188 235 187 236 188 237 189 237 189 236 188 238 190 237 189 238 190 239 190 240 191 241 191 242 192 240 191 242 192 243 193 243 193 242 192 244 194 243 193 244 194 245 195 245 195 244 194 246 196 245 195 246 196 247 197 247 197 246 196 248 198 247 197 248 198 249 198 250 199 251 199 252 200 250 199 252 200 253 201 253 201 252 200 254 202 253 201 254 202 255 203 255 203 254 202 256 204 255 203 256 204 257 205 257 205 256 204 258 206 257 205 258 206 259 206 260 207 261 207 262 208 260 207 262 208 263 209 263 209 262 208 264 210 263 209 264 210 265 211 265 211 264 210 266 212 265 211 266 212 267 213 267 213 266 212 268 214 267 213 268 214 269 214 270 215 271 215 272 216 270 215 272 216 273 217 273 217 272 216 274 218 273 217 274 218 275 219 275 219 274 218 276 220 275 219 276 220 277 221 277 221 276 220 278 222 277 221 278 222 279 222 280 223 281 223 282 224 280 223 282 224 283 225 283 225 282 224 284 226 283 225 284 226 285 227 285 227 284 226 286 228 285 227 286 228 287 229 287 229 286 228 288 230 287 229 288 230 289 230 290 231 291 231 292 232 290 231 292 232 293 233 293 233 292 232 294 234 293 233 294 234 295 235 295 235 294 234 296 236 295 235 296 236 297 237 297 237 296 236 298 238 297 237 298 238 299 238 300 239 301 239 302 240 300 239 302 240 303 241 303 241 302 240 304 242 303 241 304 242 305 243 305 243 304 242 306 244 305 243 306 244 307 245 307 245 306 244 308 246 307 245 308 246 309 246 310 247 311 247 312 248 310 247 312 248 313 249 313 249 312 248 314 250 313 249 314 250 315 251 315 251 314 250 316 252 315 251 316 252 317 253 317 253 316 252 318 254 317 253 318 254 319 254 320 255 321 255 322 256 320 255 322 256 323 257 323 257 322 256 324 258 323 257 324 258 325 259 325 259 324 258 326 260 325 259 326 260 327 261 327 261 326 260 328 262 327 261 328 262 329 262 330 263 331 263 332 264 330 263 332 264 333 265 333 265 332 264 334 266 333 265 334 266 335 267 335 267 334 266 336 268 335 267 336 268 337 269 337 269 336 268 338 270 337 269 338 270 339 270 340 271 341 271 342 272 340 271 342 272 343 273 343 273 342 272 344 274 343 273 344 274 345 275 345 275 344 274 346 276 345 275 346 276 347 277 347 277 346 276 348 278 347 277 348 278 349 278 0 542 2 543 1 542 0 542 3 544 2 543 3 544 4 545 2 543 3 544 5 546 4 545 5 546 6 547 4 545 5 546 7 548 6 547 7 548 8 549 6 547 7 548 9 549 8 549 10 550 12 551 11 550 10 550 13 552 12 551 13 552 14 553 12 551 13 552 15 554 14 553 15 554 16 555 14 553 15 554 17 556 16 555 17 556 18 557 16 555 17 556 19 557 18 557 20 558 22 559 21 558 20 558 23 560 22 559 23 560 24 561 22 559 23 560 25 562 24 561 25 562 26 563 24 561 25 562 27 564 26 563 27 564 28 565 26 563 27 564 29 565 28 565 30 566 32 567 31 566 30 566 33 568 32 567 33 568 34 569 32 567 33 568 35 570 34 569 35 570 36 571 34 569 35 570 37 572 36 571 37 572 38 573 36 571 37 572 39 573 38 573 40 574 42 575 41 574 40 574 43 576 42 575 43 576 44 577 42 575 43 576 45 578 44 577 45 578 46 579 44 577 45 578 47 580 46 579 47 580 48 581 46 579 47 580 49 581 48 581 50 582 52 583 51 582 50 582 53 584 52 583 53 584 54 585 52 583 53 584 55 586 54 585 55 586 56 587 54 585 55 586 57 588 56 587 57 588 58 589 56 587 57 588 59 589 58 589 60 590 62 591 61 590 60 590 63 592 62 591 63 592 64 593 62 591 63 592 65 594 64 593 65 594 66 595 64 593 65 594 67 596 66 595 67 596 68 597 66 595 67 596 69 597 68 597 70 598 72 599 71 598 70 598 73 600 72 599 73 600 74 601 72 599 73 600 75 602 74 601 75 602 76 603 74 601 75 602 77 604 76 603 77 604 78 605 76 603 77 604 79 605 78 605 80 606 82 607 81 606 80 606 83 608 82 607 83 608 84 609 82 607 83 608 85 610 84 609 85 610 86 611 84 609 85 610 87 612 86 611 87 612 88 613 86 611 87 612 89 613 88 613 90 614 92 615 91 614 90 614 93 616 92 615 93 616 94 617 92 615 93 616 95 618 94 617 95 618 96 619 94 617 95 618 97 620 96 619 97 620 98 621 96 619 97 620 99 621 98 621 100 622 102 623 101 622 100 622 103 624 102 623 103 624 104 625 102 623 103 624 105 626 104 625 105 626 106 627 104 625 105 626 107 628 106 627 107 628 108 629 106 627 107 628 109 629 108 629 110 630 112 631 111 630 110 630 113 632 112 631 113 632 114 633 112 631 113 632 115 634 114 633 115 634 116 635 114 633 115 634 117 636 116 635 117 636 118 637 116 635 117 636 119 637 118 637 120 638 122 639 121 638 120 638 123 640 122 639 123 640 124 641 122 639 123 640 125 642 124 641 125 642 126 643 124 641 125 642 127 644 126 643 127 644 128 645 126 643 127 644 129 645 128 645 130 646 132 647 131 646 130 646 133 648 132 647 133 648 134 649 132 647 133 648 135 650 134 649 135 650 136 651 134 649 135 650 137 652 136 651 137 652 138 653 136 651 137 652 139 653 138 653 140 654 142 655 141 654 140 654 143 655 142 655 143 655 144 656 142 655 143 655 145 657 144 656 145 657 146 658 144 656 145 657 147 659 146 658 147 659 148 660 146 658 147 659 149 660 148 660 150 661 152 662 151 661 150 661 153 663 152 662 153 663 154 664 152 662 153 663 155 665 154 664 155 665 156 666 154 664 155 665 157 667 156 666 157 667 158 668 156 666 157 667 159 668 158 668 160 669 162 670 161 669 160 669 163 671 162 670 163 671 164 672 162 670 163 671 165 673 164 672 165 673 166 674 164 672 165 673 167 675 166 674 167 675 168 676 166 674 167 675 169 676 168 676 170 677 172 678 171 677 170 677 173 679 172 678 173 679 174 680 172 678 173 679 175 681 174 680 175 681 176 682 174 680 175 681 177 683 176 682 177 683 178 684 176 682 177 683 179 684 178 684 180 685 182 686 181 685 180 685 183 687 182 686 183 687 184 688 182 686 183 687 185 689 184 688 185 689 186 690 184 688 185 689 187 691 186 690 187 691 188 692 186 690 187 691 189 692 188 692 190 693 192 694 191 693 190 693 193 695 192 694 193 695 194 696 192 694 193 695 195 697 194 696 195 697 196 698 194 696 195 697 197 699 196 698 197 699 198 700 196 698 197 699 199 700 198 700 200 701 202 702 201 701 200 701 203 703 202 702 203 703 204 704 202 702 203 703 205 705 204 704 205 705 206 706 204 704 205 705 207 707 206 706 207 707 208 708 206 706 207 707 209 708 208 708 210 709 212 710 211 709 210 709 213 711 212 710 213 711 214 712 212 710 213 711 215 713 214 712 215 713 216 714 214 712 215 713 217 715 216 714 217 715 218 716 216 714 217 715 219 716 218 716 220 717 222 718 221 717 220 717 223 719 222 718 223 719 224 720 222 718 223 719 225 721 224 720 225 721 226 722 224 720 225 721 227 723 226 722 227 723 228 724 226 722 227 723 229 724 228 724 230 725 232 726 231 725 230 725 233 727 232 726 233 727 234 728 232 726 233 727 235 729 234 728 235 729 236 730 234 728 235 729 237 731 236 730 237 731 238 732 236 730 237 731 239 732 238 732 240 733 242 734 241 733 240 733 243 735 242 734 243 735 244 736 242 734 243 735 245 737 244 736 245 737 246 738 244 736 245 737 247 739 246 738 247 739 248 740 246 738 247 739 249 740 248 740 250 741 252 742 251 741 250 741 253 743 252 742 253 743 254 744 252 742 253 743 255 745 254 744 255 745 256 746 254 744 255 745 257 747 256 746 257 747 258 748 256 746 257 747 259 748 258 748 260 749 262 750 261 749 260 749 263 751 262 750 263 751 264 752 262 750 263 751 265 753 264 752 265 753 266 754 264 752 265 753 267 755 266 754 267 755 268 756 266 754 267 755 269 756 268 756 270 757 272 758 271 757 270 757 273 759 272 758 273 759 274 760 272 758 273 759 275 761 274 760 275 761 276 762 274 760 275 761 277 763 276 762 277 763 278 764 276 762 277 763 279 764 278 764 280 765 282 766 281 765 280 765 283 767 282 766 283 767 284 768 282 766 283 767 285 769 284 768 285 769 286 770 284 768 285 769 287 771 286 770 287 771 288 772 286 770 287 771 289 772 288 772 290 773 292 774 291 773 290 773 293 775 292 774 293 775 294 776 292 774 293 775 295 777 294 776 295 777 296 778 294 776 295 777 297 779 296 778 297 779 298 780 296 778 297 779 299 780 298 780 300 781 302 782 301 781 300 781 303 783 302 782 303 783 304 784 302 782 303 783 305 785 304 784 305 785 306 786 304 784 305 785 307 787 306 786 307 787 308 788 306 786 307 787 309 788 308 788 310 789 312 790 311 789 310 789 313 791 312 790 313 791 314 792 312 790 313 791 315 793 314 792 315 793 316 794 314 792 315 793 317 795 316 794 317 795 318 796 316 794 317 795 319 796 318 796 320 797 322 798 321 797 320 797 323 799 322 798 323 799 324 800 322 798 323 799 325 801 324 800 325 801 326 802 324 800 325 801 327 803 326 802 327 803 328 804 326 802 327 803 329 804 328 804 330 805 332 806 331 805 330 805 333 807 332 806 333 807 334 808 332 806 333 807 335 809 334 808 335 809 336 810 334 808 335 809 337 811 336 810 337 811 338 812 336 810 337 811 339 812 338 812 340 813 342 814 341 813 340 813 343 815 342 814 343 815 344 816 342 814 343 815 345 817 344 816 345 817 346 818 344 816 345 817 347 819 346 818 347 819 348 820 346 818 347 819 349 820 348 820</p></triangles>
        <triangles count="448" material="MAT_WEED_BROAD-mat"><input semantic="VERTEX" source="#weeds_-04+00_foliage-vtx" offset="0"/><input semantic="NORMAL" source="#weeds_-04+00_foliage-nrm" offset="1"/><p>350 279 351 280 352 281 350 279 352 281 353 282 350 279 353 282 354 283 350 279 354 283 355 284 350 279 355 284 356 285 350 279 356 285 357 286 350 279 357 286 358 287 350 279 358 287 359 288 360 289 361 290 362 291 360 289 362 291 363 292 360 289 363 292 364 293 360 289 364 293 365 294 360 289 365 294 366 295 360 289 366 295 367 296 360 289 367 296 368 297 360 289 368 297 369 298 370 299 371 300 372 301 370 299 372 301 373 302 370 299 373 302 374 303 370 299 374 303 375 304 370 299 375 304 376 305 370 299 376 305 377 306 370 299 377 306 378 307 370 299 378 307 379 308 380 309 381 310 382 311 380 309 382 311 383 312 380 309 383 312 384 313 380 309 384 313 385 314 380 309 385 314 386 315 380 309 386 315 387 316 380 309 387 316 388 317 380 309 388 317 389 318 390 319 391 320 392 321 390 319 392 321 393 322 390 319 393 322 394 323 390 319 394 323 395 324 390 319 395 324 396 325 390 319 396 325 397 326 390 319 397 326 398 327 390 319 398 327 399 328 400 329 401 330 402 331 400 329 402 331 403 332 400 329 403 332 404 333 400 329 404 333 405 334 400 329 405 334 406 335 400 329 406 335 407 336 400 329 407 336 408 337 400 329 408 337 409 338 410 339 411 340 412 341 410 339 412 341 413 342 410 339 413 342 414 343 410 339 414 343 415 344 410 339 415 344 416 345 410 339 416 345 417 346 410 339 417 346 418 347 410 339 418 347 419 348 420 349 421 350 422 351 420 349 422 351 423 352 420 349 423 352 424 353 420 349 424 353 425 354 420 349 425 354 426 355 420 349 426 355 427 356 420 349 427 356 428 357 420 349 428 357 429 358 430 359 431 360 432 361 430 359 432 361 433 362 430 359 433 362 434 363 430 359 434 363 435 364 430 359 435 364 436 365 430 359 436 365 437 366 430 359 437 366 438 367 430 359 438 367 439 368 440 369 441 370 442 371 440 369 442 371 443 372 440 369 443 372 444 373 440 369 444 373 445 374 440 369 445 374 446 375 440 369 446 375 447 376 440 369 447 376 448 377 440 369 448 377 449 378 450 379 451 380 452 381 450 379 452 381 453 382 450 379 453 382 454 383 450 379 454 383 455 384 450 379 455 384 456 385 450 379 456 385 457 386 450 379 457 386 458 387 450 379 458 387 459 388 460 389 461 390 462 391 460 389 462 391 463 392 460 389 463 392 464 393 460 389 464 393 465 394 460 389 465 394 466 395 460 389 466 395 467 396 460 389 467 396 468 397 460 389 468 397 469 398 470 399 471 400 472 401 470 399 472 401 473 402 470 399 473 402 474 403 470 399 474 403 475 404 470 399 475 404 476 405 470 399 476 405 477 406 470 399 477 406 478 407 470 399 478 407 479 408 470 399 479 408 480 409 470 399 480 409 481 410 470 399 481 410 482 411 470 399 482 411 483 412 470 399 483 412 484 413 470 399 484 413 485 414 470 399 485 414 486 415 470 399 486 415 487 416 488 417 489 418 490 419 488 417 490 419 491 420 488 417 491 420 492 421 488 417 492 421 493 422 488 417 493 422 494 423 488 417 494 423 495 424 488 417 495 424 496 425 488 417 496 425 497 426 488 417 497 426 498 427 488 417 498 427 499 428 488 417 499 428 500 429 488 417 500 429 501 430 488 417 501 430 502 431 488 417 502 431 503 432 488 417 503 432 504 433 488 417 504 433 505 434 506 435 507 436 508 437 506 435 508 437 509 438 506 435 509 438 510 439 506 435 510 439 511 440 506 435 511 440 512 441 506 435 512 441 513 442 506 435 513 442 514 443 506 435 514 443 515 444 506 435 515 444 516 445 506 435 516 445 517 446 506 435 517 446 518 447 506 435 518 447 519 448 506 435 519 448 520 449 506 435 520 449 521 450 506 435 521 450 522 451 506 435 522 451 523 451 524 452 525 453 526 454 524 452 526 454 527 455 524 452 527 455 528 456 524 452 528 456 529 457 524 452 529 457 530 458 524 452 530 458 531 459 524 452 531 459 532 460 524 452 532 460 533 461 524 452 533 461 534 462 524 452 534 462 535 463 524 452 535 463 536 464 524 452 536 464 537 465 524 452 537 465 538 466 524 452 538 466 539 467 524 452 539 467 540 468 524 452 540 468 541 469 542 470 543 471 544 472 542 470 544 472 545 473 542 470 545 473 546 474 542 470 546 474 547 475 542 470 547 475 548 476 542 470 548 476 549 477 542 470 549 477 550 478 542 470 550 478 551 479 542 470 551 479 552 480 542 470 552 480 553 481 542 470 553 481 554 482 542 470 554 482 555 483 542 470 555 483 556 484 542 470 556 484 557 485 542 470 557 485 558 486 542 470 558 486 559 487 560 488 561 489 562 490 560 488 562 490 563 491 560 488 563 491 564 492 560 488 564 492 565 493 560 488 565 493 566 494 560 488 566 494 567 495 560 488 567 495 568 496 560 488 568 496 569 497 560 488 569 497 570 498 560 488 570 498 571 499 560 488 571 499 572 500 560 488 572 500 573 501 560 488 573 501 574 502 560 488 574 502 575 503 560 488 575 503 576 504 560 488 576 504 577 505 578 506 579 507 580 508 578 506 580 508 581 509 578 506 581 509 582 510 578 506 582 510 583 511 578 506 583 511 584 512 578 506 584 512 585 513 578 506 585 513 586 514 578 506 586 514 587 515 578 506 587 515 588 516 578 506 588 516 589 517 578 506 589 517 590 518 578 506 590 518 591 519 578 506 591 519 592 520 578 506 592 520 593 521 578 506 593 521 594 522 578 506 594 522 595 523 596 524 597 525 598 526 596 524 598 526 599 527 596 524 599 527 600 528 596 524 600 528 601 529 596 524 601 529 602 530 596 524 602 530 603 531 596 524 603 531 604 532 596 524 604 532 605 533 596 524 605 533 606 534 596 524 606 534 607 535 596 524 607 535 608 536 596 524 608 536 609 537 596 524 609 537 610 538 596 524 610 538 611 539 596 524 611 539 612 540 596 524 612 540 613 541 350 821 352 823 351 822 350 821 353 824 352 823 350 821 354 825 353 824 350 821 355 826 354 825 350 821 356 827 355 826 350 821 357 828 356 827 350 821 358 829 357 828 350 821 359 830 358 829 360 831 362 833 361 832 360 831 363 834 362 833 360 831 364 835 363 834 360 831 365 836 364 835 360 831 366 837 365 836 360 831 367 838 366 837 360 831 368 839 367 838 360 831 369 840 368 839 370 841 372 843 371 842 370 841 373 844 372 843 370 841 374 845 373 844 370 841 375 846 374 845 370 841 376 847 375 846 370 841 377 848 376 847 370 841 378 849 377 848 370 841 379 850 378 849 380 851 382 853 381 852 380 851 383 854 382 853 380 851 384 855 383 854 380 851 385 856 384 855 380 851 386 857 385 856 380 851 387 858 386 857 380 851 388 859 387 858 380 851 389 860 388 859 390 861 392 863 391 862 390 861 393 864 392 863 390 861 394 865 393 864 390 861 395 866 394 865 390 861 396 867 395 866 390 861 397 868 396 867 390 861 398 869 397 868 390 861 399 870 398 869 400 871 402 873 401 872 400 871 403 874 402 873 400 871 404 875 403 874 400 871 405 876 404 875 400 871 406 877 405 876 400 871 407 878 406 877 400 871 408 879 407 878 400 871 409 880 408 879 410 881 412 883 411 882 410 881 413 884 412 883 410 881 414 885 413 884 410 881 415 886 414 885 410 881 416 887 415 886 410 881 417 888 416 887 410 881 418 889 417 888 410 881 419 890 418 889 420 891 422 893 421 892 420 891 423 894 422 893 420 891 424 895 423 894 420 891 425 896 424 895 420 891 426 897 425 896 420 891 427 898 426 897 420 891 428 899 427 898 420 891 429 900 428 899 430 901 432 903 431 902 430 901 433 904 432 903 430 901 434 905 433 904 430 901 435 906 434 905 430 901 436 907 435 906 430 901 437 908 436 907 430 901 438 909 437 908 430 901 439 910 438 909 440 911 442 913 441 912 440 911 443 914 442 913 440 911 444 915 443 914 440 911 445 916 444 915 440 911 446 917 445 916 440 911 447 918 446 917 440 911 448 919 447 918 440 911 449 920 448 919 450 921 452 923 451 922 450 921 453 924 452 923 450 921 454 925 453 924 450 921 455 926 454 925 450 921 456 927 455 926 450 921 457 928 456 927 450 921 458 929 457 928 450 921 459 930 458 929 460 931 462 933 461 932 460 931 463 934 462 933 460 931 464 935 463 934 460 931 465 936 464 935 460 931 466 937 465 936 460 931 467 938 466 937 460 931 468 939 467 938 460 931 469 940 468 939 470 941 472 943 471 942 470 941 473 944 472 943 470 941 474 945 473 944 470 941 475 946 474 945 470 941 476 947 475 946 470 941 477 948 476 947 470 941 478 949 477 948 470 941 479 950 478 949 470 941 480 951 479 950 470 941 481 952 480 951 470 941 482 953 481 952 470 941 483 954 482 953 470 941 484 955 483 954 470 941 485 956 484 955 470 941 486 957 485 956 470 941 487 958 486 957 488 959 490 961 489 960 488 959 491 962 490 961 488 959 492 963 491 962 488 959 493 964 492 963 488 959 494 965 493 964 488 959 495 966 494 965 488 959 496 967 495 966 488 959 497 968 496 967 488 959 498 969 497 968 488 959 499 970 498 969 488 959 500 971 499 970 488 959 501 972 500 971 488 959 502 973 501 972 488 959 503 974 502 973 488 959 504 975 503 974 488 959 505 976 504 975 506 977 508 979 507 978 506 977 509 980 508 979 506 977 510 981 509 980 506 977 511 982 510 981 506 977 512 983 511 982 506 977 513 984 512 983 506 977 514 985 513 984 506 977 515 986 514 985 506 977 516 987 515 986 506 977 517 988 516 987 506 977 518 989 517 988 506 977 519 990 518 989 506 977 520 991 519 990 506 977 521 992 520 991 506 977 522 993 521 992 506 977 523 993 522 993 524 994 526 996 525 995 524 994 527 997 526 996 524 994 528 998 527 997 524 994 529 999 528 998 524 994 530 1000 529 999 524 994 531 1001 530 1000 524 994 532 1002 531 1001 524 994 533 1003 532 1002 524 994 534 1004 533 1003 524 994 535 1005 534 1004 524 994 536 1006 535 1005 524 994 537 1007 536 1006 524 994 538 1008 537 1007 524 994 539 1009 538 1008 524 994 540 1010 539 1009 524 994 541 1011 540 1010 542 1012 544 1014 543 1013 542 1012 545 1015 544 1014 542 1012 546 1016 545 1015 542 1012 547 1017 546 1016 542 1012 548 1018 547 1017 542 1012 549 1019 548 1018 542 1012 550 1020 549 1019 542 1012 551 1021 550 1020 542 1012 552 1022 551 1021 542 1012 553 1023 552 1022 542 1012 554 1024 553 1023 542 1012 555 1025 554 1024 542 1012 556 1026 555 1025 542 1012 557 1027 556 1026 542 1012 558 1028 557 1027 542 1012 559 1029 558 1028 560 1030 562 1032 561 1031 560 1030 563 1033 562 1032 560 1030 564 1034 563 1033 560 1030 565 1035 564 1034 560 1030 566 1036 565 1035 560 1030 567 1037 566 1036 560 1030 568 1038 567 1037 560 1030 569 1039 568 1038 560 1030 570 1040 569 1039 560 1030 571 1041 570 1040 560 1030 572 1042 571 1041 560 1030 573 1043 572 1042 560 1030 574 1044 573 1043 560 1030 575 1045 574 1044 560 1030 576 1046 575 1045 560 1030 577 1047 576 1046 578 1048 580 1050 579 1049 578 1048 581 1051 580 1050 578 1048 582 1052 581 1051 578 1048 583 1053 582 1052 578 1048 584 1054 583 1053 578 1048 585 1055 584 1054 578 1048 586 1056 585 1055 578 1048 587 1057 586 1056 578 1048 588 1058 587 1057 578 1048 589 1059 588 1058 578 1048 590 1060 589 1059 578 1048 591 1061 590 1060 578 1048 592 1062 591 1061 578 1048 593 1063 592 1062 578 1048 594 1064 593 1063 578 1048 595 1065 594 1064 596 1066 598 1068 597 1067 596 1066 599 1069 598 1068 596 1066 600 1070 599 1069 596 1066 601 1071 600 1070 596 1066 602 1072 601 1071 596 1066 603 1073 602 1072 596 1066 604 1074 603 1073 596 1066 605 1075 604 1074 596 1066 606 1076 605 1075 596 1066 607 1077 606 1076 596 1066 608 1078 607 1077 596 1066 609 1079 608 1078 596 1066 610 1080 609 1079 596 1066 611 1081 610 1080 596 1066 612 1082 611 1081 596 1066 613 1083 612 1082</p></triangles>
      </mesh>
    </geometry>
  </library_geometries>
  <library_visual_scenes><visual_scene id="scene" name="scene">
    <node id="weeds_-04+00_foliage" name="weeds_-04+00_foliage" type="NODE"><instance_geometry url="#weeds_-04+00_foliage-mesh"><bind_material><technique_common>
      <instance_material symbol="MAT_WEED_GRASS-mat" target="#MAT_WEED_GRASS"/>
      <instance_material symbol="MAT_WEED_BROAD-mat" target="#MAT_WEED_BROAD"/>
    </technique_common></bind_material></instance_geometry></node>
  </visual_scene></library_visual_scenes>
  <scene><instance_visual_scene url="#scene"/></scene>
<!-- vigil:double-sided -->
</COLLADA>
