<?xml version="1.0" encoding="utf-8"?>
<COLLADA xmlns="http://www.collada.org/2005/11/COLLADASchema" version="1.4.1">
  <asset>
    <contributor><authoring_tool>VIGIL SIH26126 farm generator</authoring_tool></contributor>
    <unit name="meter" meter="1"/>
    <up_axis>Z_UP</up_axis>
  </asset>
  <library_effects>
    <effect id="MAT_WEED_STEM-fx"><profile_COMMON><technique sid="c"><lambert><diffuse><color>0.0860 0.1040 0.0360 1</color></diffuse></lambert></technique></profile_COMMON></effect>
  </library_effects>
  <library_materials>
    <material id="MAT_WEED_STEM" name="MAT_WEED_STEM"><instance_effect url="#MAT_WEED_STEM-fx"/></material>
  </library_materials>
  <library_geometries>
    <geometry id="weeds_-03-02_solid-mesh" name="weeds_-03-02_solid">
      <mesh>
        <source id="weeds_-03-02_solid-pos"><float_array id="weeds_-03-02_solid-pos-a" count="78">0.0059338 -0.00080681 -0.11409 0.00083542 0.0056963 -0.11533 -0.0056286 0.010146 -0.062282 -0.0011578 0.0044327 -0.061084 -0.0059338 0.00080681 -0.11566 -0.011589 0.005847 -0.062553 -0.00083542 -0.0056963 -0.11442 -0.0071163 0.00013351 -0.061355 -0.012753 0.015984 -0.0094614 -0.0089169 0.011069 -0.0082491 -0.017906 0.012278 -0.0096573 -0.014071 0.0073643 -0.008445 -0.020544 0.023216 0.043202 -0.01734 0.019097 0.044371 -0.024893 0.020105 0.043068 -0.021688 0.015986 0.044238 -0.029007 0.031846 0.095708 -0.026426 0.028518 0.096777 -0.032547 0.029327 0.095624 -0.029968 0.025999 0.096693 -0.038147 0.041882 0.14808 -0.036173 0.039328 0.14895 -0.040874 0.039948 0.14803 -0.0389 0.037395 0.1489 0 0 -0.11488 -0.038525 0.039638 0.14849</float_array><technique_common><accessor source="#weeds_-03-02_solid-pos-a" count="26" stride="3"><param name="X" type="float"/><param name="Y" type="float"/><param name="Z" type="float"/></accessor></technique_common></source>
        <source id="weeds_-03-02_solid-nrm"><float_array id="weeds_-03-02_solid-nrm-a" count="78">0.719 -0.05 0.694 0.05 0.86 0.508 0.148 0.986 -0.077 0.979 -0.137 0.153 -0.86 0.165 0.483 -0.984 0.129 -0.125 -0.186 -0.749 0.635 -0.145 -0.984 0.103 0.151 0.983 -0.1 0.976 -0.135 0.169 -0.982 0.128 -0.141 -0.148 -0.981 0.127 0.156 0.98 -0.124 0.974 -0.134 0.184 -0.979 0.127 -0.157 -0.153 -0.977 0.15 0.16 0.976 -0.147 0.971 -0.131 0.2 -0.977 0.125 -0.172 -0.158 -0.972 0.173 0.225 0.694 -0.684 0.89 -0.221 -0.399 -0.7 -0.012 -0.714 -0.042 -0.917 -0.397 -0.118 0.096 0.988 0.163 -0.202 -0.966</float_array><technique_common><accessor source="#weeds_-03-02_solid-nrm-a" count="26" stride="3"><param name="X" type="float"/><param name="Y" type="float"/><param name="Z" type="float"/></accessor></technique_common></source>
        <vertices id="weeds_-03-02_solid-vtx"><input semantic="POSITION" source="#weeds_-03-02_solid-pos"/></vertices>
        <triangles count="48" material="MAT_WEED_STEM-mat"><input semantic="VERTEX" source="#weeds_-03-02_solid-vtx" offset="0"/><input semantic="NORMAL" source="#weeds_-03-02_solid-nrm" offset="1"/><p>0 0 1 1 2 2 0 0 2 2 3 3 1 1 4 4 5 5 1 1 5 5 2 2 4 4 6 6 7 7 4 4 7 7 5 5 6 6 0 0 3 3 6 6 3 3 7 7 3 3 2 2 8 8 3 3 8 8 9 9 2 2 5 5 10 10 2 2 10 10 8 8 5 5 7 7 11 11 5 5 11 11 10 10 7 7 3 3 9 9 7 7 9 9 11 11 9 9 8 8 12 12 9 9 12 12 13 13 8 8 10 10 14 14 8 8 14 14 12 12 10 10 11 11 15 15 10 10 15 15 14 14 11 11 9 9 13 13 11 11 13 13 15 15 13 13 12 12 16 16 13 13 16 16 17 17 12 12 14 14 18 18 12 12 18 18 16 16 14 14 15 15 19 19 14 14 19 19 18 18 15 15 13 13 17 17 15 15 17 17 19 19 17 17 16 16 20 20 17 17 20 20 21 21 16 16 18 18 22 22 16 16 22 22 20 20 18 18 19 19 23 23 18 18 23 23 22 22 19 19 17 17 21 21 19 19 21 21 23 23 0 0 1 1 24 24 1 1 4 4 24 24 4 4 6 6 24 24 6 6 0 0 24 24 20 20 21 21 25 25 22 22 20 20 25 25 23 23 22 22 25 25 21 21 23 23 25 25</p></triangles>
      </mesh>
    </geometry>
  </library_geometries>
  <library_visual_scenes><visual_scene id="scene" name="scene">
    <node id="weeds_-03-02_solid" name="weeds_-03-02_solid" type="NODE"><instance_geometry url="#weeds_-03-02_solid-mesh"><bind_material><technique_common>
      <instance_material symbol="MAT_WEED_STEM-mat" target="#MAT_WEED_STEM"/>
    </technique_common></bind_material></instance_geometry></node>
  </visual_scene></library_visual_scenes>
  <scene><instance_visual_scene url="#scene"/></scene>
</COLLADA>
