<?xml version="1.0" encoding="utf-8"?>
<COLLADA xmlns="http://www.collada.org/2005/11/COLLADASchema" version="1.4.1">
  <asset>
    <contributor><authoring_tool>VIGIL SIH26126 farm generator</authoring_tool></contributor>
    <unit name="meter" meter="1"/>
    <up_axis>Z_UP</up_axis>
  </asset>
  <library_effects>
    <effect id="MAT_WEED_STEM-fx"><profile_COMMON><technique sid="c"><lambert><diffuse><color>0.0860 0.1040 0.0360 1</color></diffuse></lambert></technique></profile_COMMON></effect>
  </library_effects>
  <library_materials>
    <material id="MAT_WEED_STEM" name="MAT_WEED_STEM"><instance_effect url="#MAT_WEED_STEM-fx"/></material>
  </library_materials>
  <library_geometries>
    <geometry id="weeds_-04-01_solid-mesh" name="weeds_-04-01_solid">
      <mesh>
        <source id="weeds_-04-01_solid-pos"><float_array id="weeds_-04-01_solid-pos-a" count="456">-0.80865 -0.045003 -0.065759 -0.80429 -0.042916 -0.065867 -0.80481 -0.041008 -0.033544 -0.80864 -0.042836 -0.033337 -0.80646 -0.038605 -0.06611 -0.80671 -0.037211 -0.03372 -0.81081 -0.040692 -0.066003 -0.81055 -0.03904 -0.033513 -0.80368 -0.038907 -0.0012256 -0.80698 -0.040469 -0.00085496 -0.80531 -0.035622 -0.001312 -0.80861 -0.037183 -0.00094136 -0.80089 -0.036607 0.031174 -0.80366 -0.037904 0.031645 -0.80225 -0.033833 0.031154 -0.80502 -0.03513 0.031626 -0.79644 -0.034105 0.063655 -0.79868 -0.035141 0.064164 -0.79753 -0.031844 0.06368 -0.79977 -0.03288 0.064189 -0.79032 -0.031396 0.096246 -0.79203 -0.032185 0.096685 -0.79116 -0.029653 0.09628 -0.79287 -0.030442 0.09672 -0.80755 -0.041804 -0.065935 -0.7916 -0.030919 0.096483 -5.317 -0.42792 -0.065831 -5.3075 -0.42728 -0.065716 -5.3092 -0.42241 -0.0014503 -5.3175 -0.42298 -0.0016316 -5.3087 -0.41789 -0.06636 -5.3102 -0.41415 -0.0019895 -5.3181 -0.41853 -0.066475 -5.3185 -0.41471 -0.0021709 -5.3119 -0.418 0.062855 -5.319 -0.4185 0.06256 -5.3127 -0.41086 0.062438 -5.3199 -0.41136 0.062143 -5.3156 -0.41405 0.12717 -5.3217 -0.41447 0.12681 -5.3164 -0.40803 0.12686 -5.3224 -0.40845 0.1265 -5.3204 -0.41055 0.1915 -5.3254 -0.41089 0.19111 -5.321 -0.40566 0.19128 -5.326 -0.406 0.19089 -5.3263 -0.4075 0.25582 -5.3301 -0.40777 0.25549 -5.3268 -0.40374 0.25567 -5.3306 -0.40401 0.25533 -5.3128 -0.42291 -0.066095 -5.3284 -0.40575 0.25558 0.5242 -0.04688 -0.067939 0.52544 -0.059995 -0.067156 0.53049 -0.053904 0.011638 0.52939 -0.04237 0.010851 0.53854 -0.058548 -0.067975 0.54202 -0.052629 0.010952 0.53729 -0.045433 -0.068758 0.54092 -0.041095 0.010164 0.53487 -0.046331 0.090408 0.53391 -0.036384 0.089558 0.54482 -0.045227 0.089874 0.54387 -0.03528 0.089024 0.53856 -0.037279 0.16912 0.53775 -0.028917 0.16826 0.54695 -0.036347 0.16872 0.54614 -0.027985 0.16786 0.54158 -0.026749 0.24776 0.54092 -0.019968 0.24695 0.54839 -0.02599 0.24748 0.54774 -0.019209 0.24667 0.54392 -0.014744 0.32633 0.54342 -0.0095336 0.32566 0.54916 -0.01416 0.32613 0.54866 -0.0089495 0.32546 0.53137 -0.052714 -0.067957 0.54629 -0.011847 0.3259 3.3937 0.090782 -0.097497 3.39 0.088425 -0.092801 3.4399 0.069964 -0.057637 3.4425 0.071723 -0.062328 3.3914 0.084892 -0.097938 3.4402 0.066735 -0.062223 3.4869 0.046763 -0.051191 3.4885 0.049023 -0.047228 3.489 0.050903 -0.051631 3.5315 0.024053 -0.073256 3.5335 0.025381 -0.070134 3.5333 0.027419 -0.073435 3.3932 0.090045 -0.093269 3.3884 0.088556 -0.097191 3.3688 0.049712 -0.054761 3.3727 0.050514 -0.050792 3.3935 0.085499 -0.097775 3.3733 0.047167 -0.055218 3.3476 0.0091925 -0.037103 3.3496 0.0082705 -0.032926 3.3514 0.0071673 -0.037188 3.3235 -0.034312 -0.052007 3.3245 -0.035907 -0.048646 3.3266 -0.036016 -0.051921 3.3938 0.090899 -0.097025 3.3889 0.087018 -0.098287 3.3534 0.12467 -0.060596 3.3574 0.12835 -0.059663 3.3924 0.086181 -0.092924 3.3561 0.12473 -0.055614 3.3162 0.1602 -0.044162 3.3176 0.16146 -0.048601 3.3192 0.16369 -0.044657 3.2757 0.19379 -0.064716 3.2775 0.19437 -0.068131 3.2781 0.19668 -0.065033 3.3937 0.090839 -0.097293 3.3887 0.087065 -0.09793 3.3615 0.12189 -0.060669 3.3657 0.12549 -0.060417 3.3927 0.086195 -0.093012 3.3647 0.12206 -0.056075 3.3327 0.15478 -0.045038 3.3342 0.1559 -0.049458 3.336 0.15805 -0.0455 3.3005 0.18558 -0.066086 3.3025 0.186 -0.069373 3.3031 0.18833 -0.066284 -1.3532 0.16678 -0.071783 -1.3475 0.1679 -0.071286 -1.3506 0.16605 -0.035656 -1.3556 0.16506 -0.03597 -1.3487 0.17354 -0.071045 -1.3516 0.17102 -0.035402 -1.3544 0.17242 -0.071542 -1.3566 0.17003 -0.035716 -1.3517 0.16394 0.00011017 -1.356 0.16307 5.2438e-05 -1.3526 0.16822 0.00040338 -1.3569 0.16736 0.00034565 -1.3508 0.16155 0.036109 -1.3545 0.16082 0.036239 -1.3516 0.16515 0.036416 -1.3552 0.16442 0.036546 -1.348 0.15889 0.072341 -1.351 0.15829 0.072589 -1.3486 0.16182 0.072638 -1.3516 0.16122 0.072885 -1.3432 0.15595 0.10884 -1.3455 0.1555 0.10908 -1.3437 0.15821 0.10908 -1.3459 0.15775 0.10933 -1.3509 0.17016 -0.071414 -1.3446 0.15685 0.10908</float_array><technique_common><accessor source="#weeds_-04-01_solid-pos-a" count="152" stride="3"><param name="X" type="float"/><param name="Y" type="float"/><param name="Z" type="float"/></accessor></technique_common></source>
        <source id="weeds_-04-01_solid-nrm"><float_array id="weeds_-04-01_solid-nrm-a" count="456">-0.268 -0.748 0.608 0.774 -0.233 0.589 0.944 -0.329 0.012 -0.333 -0.94 0.074 0.265 0.81 0.524 0.314 0.948 -0.049 -0.777 0.297 0.555 -0.947 0.32 0.015 0.942 -0.333 -0.034 -0.333 -0.938 0.097 0.315 0.946 -0.071 -0.944 0.325 0.06 0.937 -0.339 -0.079 -0.332 -0.936 0.119 0.316 0.944 -0.093 -0.938 0.331 0.105 0.93 -0.346 -0.123 -0.331 -0.933 0.141 0.317 0.942 -0.114 -0.929 0.338 0.149 0.655 -0.335 -0.677 -0.385 -0.824 -0.417 0.154 0.741 -0.654 -0.881 0.239 -0.408 -0.002 0.055 0.998 -0.212 -0.082 -0.974 -0.539 -0.603 0.588 0.62 -0.481 0.619 0.772 -0.631 0.072 -0.636 -0.77 0.046 0.522 0.678 0.519 0.638 0.769 -0.022 -0.639 0.557 0.53 -0.768 0.639 -0.046 0.772 -0.631 0.08 -0.636 -0.771 0.03 0.638 0.77 -0.006 -0.768 0.639 -0.054 0.771 -0.631 0.088 -0.636 -0.772 0.015 0.637 0.771 0.01 -0.767 0.638 -0.062 0.77 -0.631 0.096 -0.635 -0.772 -0.001 0.636 0.771 0.026 -0.767 0.638 -0.071 0.688 -0.543 -0.482 -0.49 -0.672 -0.555 0.582 0.632 -0.512 -0.587 0.511 -0.628 -0.017 0.066 0.998 0.091 -0.03 -0.995 -0.581 0.54 0.609 -0.461 -0.568 0.682 -0.625 -0.774 0.104 -0.776 0.63 0.006 0.648 -0.461 0.606 0.776 -0.631 0.022 0.529 0.648 0.548 0.632 0.771 -0.076 -0.625 -0.773 0.114 -0.777 0.629 -0.012 0.776 -0.629 0.041 0.632 0.77 -0.085 -0.625 -0.771 0.123 -0.778 0.628 -0.031 0.776 -0.627 0.059 0.632 0.769 -0.094 -0.625 -0.77 0.132 -0.778 0.626 -0.049 0.777 -0.625 0.077 0.632 0.768 -0.103 -0.519 -0.695 -0.497 -0.639 0.426 -0.641 0.616 -0.583 -0.529 0.488 0.537 -0.688 0.055 0.065 0.996 -0.024 -0.13 -0.991 0.566 0.724 -0.393 -0.519 0.186 0.834 -0.511 -0.218 0.832 0.468 0.884 0.004 -0.032 -0.908 -0.417 -0.008 -0.718 -0.696 -0.545 -0.804 0.236 0.451 0.455 0.768 0.272 0.466 -0.842 -0.563 -0.734 -0.38 0.397 -0.128 0.909 0.195 0.84 -0.507 0.412 0.559 0.719 -0.946 0.197 -0.256 -0.922 0.3 -0.245 0.316 0.434 0.844 0.56 -0.73 -0.392 0.67 -0.643 -0.371 -0.843 0.453 -0.29 0.042 0.009 0.999 0.809 -0.479 -0.342 -0.716 0.546 -0.434 -0.143 -0.261 0.955 0.836 -0.329 -0.44 0.549 0.794 -0.261 -0.817 -0.249 -0.521 -0.804 -0.524 -0.281 0.496 0.737 -0.459 0.255 -0.538 0.803 0.386 -0.195 0.902 -0.706 -0.599 0.378 0.257 0.149 -0.955 0.423 0.484 0.766 -0.683 -0.501 0.531 0.208 -0.297 -0.932 0.467 0.806 0.363 0.528 0.782 -0.332 -0.877 -0.236 -0.419 -0.851 -0.493 -0.18 0.484 0.708 -0.514 0.345 -0.53 0.775 0.463 -0.203 0.863 -0.743 -0.524 0.415 0.266 0.107 -0.958 0.456 0.465 0.759 -0.745 -0.437 0.503 0.247 -0.338 -0.908 0.495 0.788 0.367 -0.484 -0.702 0.523 0.621 -0.476 0.623 0.831 -0.556 0.018 -0.558 -0.827 -0.065 0.393 0.632 0.668 0.539 0.837 0.092 -0.711 0.405 0.575 -0.838 0.545 0.009 0.832 -0.554 -0.032 -0.559 -0.828 -0.04 0.541 0.838 0.068 -0.838 0.543 0.058 0.83 -0.552 -0.08 -0.56 -0.828 -0.016 0.544 0.838 0.044 -0.834 0.541 0.107 0.825 -0.551 -0.128 -0.56 -0.829 0.008 0.545 0.838 0.021 -0.827 0.54 0.155 0.592 -0.392 -0.704 -0.524 -0.633 -0.569 0.378 0.726 -0.575 -0.747 0.495 -0.444 -0.076 -0.059 0.995 -0.124 0.083 -0.989</float_array><technique_common><accessor source="#weeds_-04-01_solid-nrm-a" count="152" stride="3"><param name="X" type="float"/><param name="Y" type="float"/><param name="Z" type="float"/></accessor></technique_common></source>
        <vertices id="weeds_-04-01_solid-vtx"><input semantic="POSITION" source="#weeds_-04-01_solid-pos"/></vertices>
        <triangles count="264" material="MAT_WEED_STEM-mat"><input semantic="VERTEX" source="#weeds_-04-01_solid-vtx" offset="0"/><input semantic="NORMAL" source="#weeds_-04-01_solid-nrm" offset="1"/><p>0 0 1 1 2 2 0 0 2 2 3 3 1 1 4 4 5 5 1 1 5 5 2 2 4 4 6 6 7 7 4 4 7 7 5 5 6 6 0 0 3 3 6 6 3 3 7 7 3 3 2 2 8 8 3 3 8 8 9 9 2 2 5 5 10 10 2 2 10 10 8 8 5 5 7 7 11 11 5 5 11 11 10 10 7 7 3 3 9 9 7 7 9 9 11 11 9 9 8 8 12 12 9 9 12 12 13 13 8 8 10 10 14 14 8 8 14 14 12 12 10 10 11 11 15 15 10 10 15 15 14 14 11 11 9 9 13 13 11 11 13 13 15 15 13 13 12 12 16 16 13 13 16 16 17 17 12 12 14 14 18 18 12 12 18 18 16 16 14 14 15 15 19 19 14 14 19 19 18 18 15 15 13 13 17 17 15 15 17 17 19 19 17 17 16 16 20 20 17 17 20 20 21 21 16 16 18 18 22 22 16 16 22 22 20 20 18 18 19 19 23 23 18 18 23 23 22 22 19 19 17 17 21 21 19 19 21 21 23 23 0 0 1 1 24 24 1 1 4 4 24 24 4 4 6 6 24 24 6 6 0 0 24 24 20 20 21 21 25 25 22 22 20 20 25 25 23 23 22 22 25 25 21 21 23 23 25 25 26 26 27 27 28 28 26 26 28 28 29 29 27 27 30 30 31 31 27 27 31 31 28 28 30 30 32 32 33 33 30 30 33 33 31 31 32 32 26 26 29 29 32 32 29 29 33 33 29 29 28 28 34 34 29 29 34 34 35 35 28 28 31 31 36 36 28 28 36 36 34 34 31 31 33 33 37 37 31 31 37 37 36 36 33 33 29 29 35 35 33 33 35 35 37 37 35 35 34 34 38 38 35 35 38 38 39 39 34 34 36 36 40 40 34 34 40 40 38 38 36 36 37 37 41 41 36 36 41 41 40 40 37 37 35 35 39 39 37 37 39 39 41 41 39 39 38 38 42 42 39 39 42 42 43 43 38 38 40 40 44 44 38 38 44 44 42 42 40 40 41 41 45 45 40 40 45 45 44 44 41 41 39 39 43 43 41 41 43 43 45 45 43 43 42 42 46 46 43 43 46 46 47 47 42 42 44 44 48 48 42 42 48 48 46 46 44 44 45 45 49 49 44 44 49 49 48 48 45 45 43 43 47 47 45 45 47 47 49 49 26 26 27 27 50 50 27 27 30 30 50 50 30 30 32 32 50 50 32 32 26 26 50 50 46 46 47 47 51 51 48 48 46 46 51 51 49 49 48 48 51 51 47 47 49 49 51 51 52 52 53 53 54 54 52 52 54 54 55 55 53 53 56 56 57 57 53 53 57 57 54 54 56 56 58 58 59 59 56 56 59 59 57 57 58 58 52 52 55 55 58 58 55 55 59 59 55 55 54 54 60 60 55 55 60 60 61 61 54 54 57 57 62 62 54 54 62 62 60 60 57 57 59 59 63 63 57 57 63 63 62 62 59 59 55 55 61 61 59 59 61 61 63 63 61 61 60 60 64 64 61 61 64 64 65 65 60 60 62 62 66 66 60 60 66 66 64 64 62 62 63 63 67 67 62 62 67 67 66 66 63 63 61 61 65 65 63 63 65 65 67 67 65 65 64 64 68 68 65 65 68 68 69 69 64 64 66 66 70 70 64 64 70 70 68 68 66 66 67 67 71 71 66 66 71 71 70 70 67 67 65 65 69 69 67 67 69 69 71 71 69 69 68 68 72 72 69 69 72 72 73 73 68 68 70 70 74 74 68 68 74 74 72 72 70 70 71 71 75 75 70 70 75 75 74 74 71 71 69 69 73 73 71 71 73 73 75 75 52 52 53 53 76 76 53 53 56 56 76 76 56 56 58 58 76 76 58 58 52 52 76 76 72 72 73 73 77 77 74 74 72 72 77 77 75 75 74 74 77 77 73 73 75 75 77 77 78 78 79 79 80 80 78 78 80 80 81 81 79 79 82 82 83 83 79 79 83 83 80 80 82 82 78 78 81 81 82 82 81 81 83 83 81 81 80 80 84 84 81 81 84 84 85 85 80 80 83 83 86 86 80 80 86 86 84 84 83 83 81 81 85 85 83 83 85 85 86 86 85 85 84 84 87 87 85 85 87 87 88 88 84 84 86 86 89 89 84 84 89 89 87 87 86 86 85 85 88 88 86 86 88 88 89 89 90 90 91 91 92 92 90 90 92 92 93 93 91 91 94 94 95 95 91 91 95 95 92 92 94 94 90 90 93 93 94 94 93 93 95 95 93 93 92 92 96 96 93 93 96 96 97 97 92 92 95 95 98 98 92 92 98 98 96 96 95 95 93 93 97 97 95 95 97 97 98 98 97 97 96 96 99 99 97 97 99 99 100 100 96 96 98 98 101 101 96 96 101 101 99 99 98 98 97 97 100 100 98 98 100 100 101 101 102 102 103 103 104 104 102 102 104 104 105 105 103 103 106 106 107 107 103 103 107 107 104 104 106 106 102 102 105 105 106 106 105 105 107 107 105 105 104 104 108 108 105 105 108 108 109 109 104 104 107 107 110 110 104 104 110 110 108 108 107 107 105 105 109 109 107 107 109 109 110 110 109 109 108 108 111 111 109 109 111 111 112 112 108 108 110 110 113 113 108 108 113 113 111 111 110 110 109 109 112 112 110 110 112 112 113 113 114 114 115 115 116 116 114 114 116 116 117 117 115 115 118 118 119 119 115 115 119 119 116 116 118 118 114 114 117 117 118 118 117 117 119 119 117 117 116 116 120 120 117 117 120 120 121 121 116 116 119 119 122 122 116 116 122 122 120 120 119 119 117 117 121 121 119 119 121 121 122 122 121 121 120 120 123 123 121 121 123 123 124 124 120 120 122 122 125 125 120 120 125 125 123 123 122 122 121 121 124 124 122 122 124 124 125 125 126 126 127 127 128 128 126 126 128 128 129 129 127 127 130 130 131 131 127 127 131 131 128 128 130 130 132 132 133 133 130 130 133 133 131 131 132 132 126 126 129 129 132 132 129 129 133 133 129 129 128 128 134 134 129 129 134 134 135 135 128 128 131 131 136 136 128 128 136 136 134 134 131 131 133 133 137 137 131 131 137 137 136 136 133 133 129 129 135 135 133 133 135 135 137 137 135 135 134 134 138 138 135 135 138 138 139 139 134 134 136 136 140 140 134 134 140 140 138 138 136 136 137 137 141 141 136 136 141 141 140 140 137 137 135 135 139 139 137 137 139 139 141 141 139 139 138 138 142 142 139 139 142 142 143 143 138 138 140 140 144 144 138 138 144 144 142 142 140 140 141 141 145 145 140 140 145 145 144 144 141 141 139 139 143 143 141 141 143 143 145 145 143 143 142 142 146 146 143 143 146 146 147 147 142 142 144 144 148 148 142 142 148 148 146 146 144 144 145 145 149 149 144 144 149 149 148 148 145 145 143 143 147 147 145 145 147 147 149 149 126 126 127 127 150 150 127 127 130 130 150 150 130 130 132 132 150 150 132 132 126 126 150 150 146 146 147 147 151 151 148 148 146 146 151 151 149 149 148 148 151 151 147 147 149 149 151 151</p></triangles>
      </mesh>
    </geometry>
  </library_geometries>
  <library_visual_scenes><visual_scene id="scene" name="scene">
    <node id="weeds_-04-01_solid" name="weeds_-04-01_solid" type="NODE"><instance_geometry url="#weeds_-04-01_solid-mesh"><bind_material><technique_common>
      <instance_material symbol="MAT_WEED_STEM-mat" target="#MAT_WEED_STEM"/>
    </technique_common></bind_material></instance_geometry></node>
  </visual_scene></library_visual_scenes>
  <scene><instance_visual_scene url="#scene"/></scene>
</COLLADA>
