<?xml version="1.0" encoding="utf-8"?>
<COLLADA xmlns="http://www.collada.org/2005/11/COLLADASchema" version="1.4.1">
  <asset>
    <contributor><authoring_tool>VIGIL SIH26126 farm generator</authoring_tool></contributor>
    <unit name="meter" meter="1"/>
    <up_axis>Z_UP</up_axis>
  </asset>
  <library_effects>
    <effect id="MAT_WEED_GRASS-fx"><profile_COMMON><technique sid="c"><lambert><diffuse><color>0.0980 0.1280 0.0300 1</color></diffuse></lambert></technique></profile_COMMON></effect>
    <effect id="MAT_WEED_BROAD-fx"><profile_COMMON><technique sid="c"><lambert><diffuse><color>0.0720 0.1520 0.0340 1</color></diffuse></lambert></technique></profile_COMMON></effect>
  </library_effects>
  <library_materials>
    <material id="MAT_WEED_GRASS" name="MAT_WEED_GRASS"><instance_effect url="#MAT_WEED_GRASS-fx"/></material>
    <material id="MAT_WEED_BROAD" name="MAT_WEED_BROAD"><instance_effect url="#MAT_WEED_BROAD-fx"/></material>
  </library_materials>
  <library_geometries>
    <geometry id="weeds_+02+00_foliage-mesh" name="weeds_+02+00_foliage">
      <mesh>
        <source id="weeds_+02+00_foliage-pos"><float_array id="weeds_+02+00_foliage-pos-a" count="1980">0.21659 0.92655 -0.077095 0.21185 0.9188 -0.077108 0.25285 0.89493 0.031078 0.25755 0.90113 0.031091 0.29439 0.87133 0.085989 0.29822 0.87546 0.085999 0.33647 0.84777 0.062577 0.33872 0.84976 0.062582 0.37904 0.82414 -0.020159 0.37904 0.82414 -0.020159 0.20766 0.92743 -0.077117 0.22079 0.91792 -0.077086 0.25197 0.96322 0.052704 0.24037 0.97084 0.052676 0.28258 1.0088 0.12361 0.27393 1.014 0.12359 0.31293 1.0545 0.10661 0.30819 1.057 0.1066 0.34304 1.1001 0.019487 0.34304 1.1001 0.019487 0.21664 0.92649 -0.077095 0.21181 0.91886 -0.077108 0.25399 0.89328 0.032693 0.25874 0.89939 0.032705 0.29671 0.86796 0.087371 0.30056 0.87204 0.087381 0.33998 0.84269 0.06129 0.34223 0.84465 0.061296 0.38373 0.81735 -0.025221 0.38373 0.81735 -0.025221 0.21952 0.92928 -0.077088 0.20893 0.91607 -0.077115 0.24602 0.88748 0.047556 0.25399 0.8996 0.047576 0.28345 0.85977 0.11887 0.28838 0.86905 0.11888 0.32095 0.8327 0.1096 0.3231 0.83787 0.1096 0.3583 0.80617 0.03365 0.3583 0.80617 0.03365 0.20793 0.92346 -0.077117 0.22051 0.92188 -0.077086 0.22568 0.95916 0.045792 0.21481 0.95981 0.045765 0.23033 0.99632 0.12494 0.22241 0.99628 0.12492 0.23478 1.0333 0.13534 0.23055 1.033 0.13533 0.23912 1.0699 0.081858 0.23912 1.0699 0.081858 0.22086 0.92249 -0.077085 0.20759 0.92286 -0.077118 0.20436 0.87364 0.074243 0.21568 0.87296 0.074271 0.20186 0.82431 0.16855 0.21005 0.82355 0.16857 0.19994 0.77484 0.17431 0.20428 0.77429 0.17432 0.19846 0.72521 0.1007 0.19846 0.72521 0.1007 0.21652 0.91623 -0.077096 0.21193 0.92912 -0.077107 0.16123 0.90731 0.048254 0.16445 0.896 0.048261 0.1107 0.88482 0.11413 0.11251 0.87646 0.11413 0.060249 0.8619 0.091924 0.060928 0.85737 0.091925 0.0097408 0.83863 0.0013453 0.0097408 0.83863 0.0013453 0.22073 0.92317 -0.077085 0.20772 0.92218 -0.077118 0.20922 0.88613 0.036887 0.22037 0.88631 0.036914 0.21144 0.84994 0.10848 0.21949 0.84959 0.1085 0.21418 0.81354 0.11405 0.21844 0.8131 0.11406 0.21729 0.77688 0.059963 0.21729 0.77688 0.059963 0.20779 0.92001 -0.077118 0.22066 0.92533 -0.077085 0.199 0.98179 0.074637 0.18766 0.97828 0.074609 0.17679 1.0383 0.15821 0.16841 1.0365 0.15819 0.15438 1.095 0.13984 0.14986 1.0945 0.13983 0.13185 1.1522 0.039571 0.13185 1.1522 0.039571 0.20813 0.9179 -0.077117 0.22032 0.92744 -0.077086 0.19511 0.95922 0.061323 0.18396 0.95211 0.061295 0.16923 0.99082 0.15003 0.16072 0.9865 0.15001 0.14297 1.0226 0.16074 0.13824 1.0207 0.16073 0.11641 1.0547 0.099377 0.11641 1.0547 0.099377 0.22059 0.91549 -0.077086 0.20786 0.92986 -0.077116 0.165 0.88869 0.064459 0.1744 0.87515 0.064481 0.12251 0.84646 0.14147 0.12816 0.83587 0.14149 0.080025 0.80342 0.12218 0.082378 0.79742 0.12218 0.03726 0.75969 0.026227 0.03726 0.75969 0.026227 -0.18857 1.6223 -0.083708 -0.1842 1.6294 -0.08371 -0.21652 1.6487 -0.00082691 -0.22075 1.643 -0.00087015 -0.2467 1.6662 0.043531 -0.2501 1.6623 0.043467 -0.27347 1.6814 0.030322 -0.27545 1.6794 0.03027 -0.29755 1.6947 -0.028953 -0.29755 1.6947 -0.028953 -0.18785 1.6206 -0.083592 -0.18492 1.6312 -0.083826 -0.22204 1.6426 0.0031505 -0.22521 1.6337 0.0032993 -0.2569 1.6519 0.050044 -0.25967 1.6457 0.050114 -0.28821 1.6587 0.036956 -0.28993 1.6555 0.036972 -0.31676 1.6634 -0.024336 -0.31676 1.6634 -0.024336 -0.1835 1.6294 -0.083664 -0.18927 1.6223 -0.083754 -0.17474 1.6101 0.0010237 -0.16923 1.6157 0.0011589 -0.15767 1.5968 0.053251 -0.1533 1.6004 0.053391 -0.13702 1.5815 0.055421 -0.1345 1.5832 0.055517 -0.11321 1.5643 0.013877 -0.11321 1.5643 0.013877 -0.18068 1.6227 -0.083215 -0.19209 1.6291 -0.084203 -0.22113 1.5933 0.037006 -0.21081 1.589 0.037842 -0.24592 1.5554 0.10345 -0.23813 1.5532 0.10404 -0.26494 1.5145 0.088059 -0.26067 1.5138 0.088362 -0.27937 1.4714 0.0072991 -0.27937 1.4714 0.0072991 -0.1827 1.6259 -0.083473 -0.19007 1.6258 -0.083945 -0.1955 1.601 0.011958 -0.1892 1.6009 0.012369 -0.19824 1.5747 0.071364 -0.19367 1.5745 0.071668 -0.19715 1.5461 0.074397 -0.19471 1.5459 0.074562 -0.19269 1.5154 0.027603 -0.19269 1.5154 0.027603 -0.18745 1.6228 -0.083656 -0.18532 1.629 -0.083762 -0.21545 1.6404 -0.0021516 -0.21673 1.635 -0.002018 -0.24342 1.6502 0.046634 -0.24393 1.6462 0.046761 -0.26799 1.6578 0.044944 -0.26804 1.6557 0.045027 -0.2895 1.6635 -0.00081182 -0.2895 1.6635 -0.00081182 -0.18885 1.63 -0.084033 -0.18392 1.6217 -0.083385 -0.15974 1.6461 0.029848 -0.16337 1.6535 0.029319 -0.13261 1.6691 0.096297 -0.1348 1.6746 0.095934 -0.10082 1.6895 0.091751 -0.10174 1.6926 0.09157 -0.065014 1.7079 0.027518 -0.065014 1.7079 0.027518 -0.18619 1.6202 -0.083472 -0.18658 1.6315 -0.083946 -0.24422 1.6333 0.026954 -0.24402 1.6236 0.027351 -0.29803 1.6322 0.078273 -0.298 1.6252 0.078555 -0.3463 1.6274 0.042881 -0.34634 1.6236 0.043028 -0.39054 1.6198 -0.055809 -0.39054 1.6198 -0.055809 -0.18722 1.6223 -0.083619 -0.18555 1.6295 -0.083799 -0.23145 1.6421 0.016197 -0.23299 1.6359 0.016344 -0.27433 1.6524 0.067502 -0.27552 1.648 0.067602 -0.31264 1.6597 0.046682 -0.31331 1.6573 0.046732 -0.34741 1.6646 -0.030173 -0.34741 1.6646 -0.030173 -0.19087 1.6237 -0.08391 -0.1819 1.6281 -0.083509 -0.201 1.6584 -0.0071125 -0.20906 1.6555 -0.0075178 -0.21824 1.6873 0.031848 -0.22429 1.6859 0.031513 -0.23229 1.7142 0.015466 -0.23558 1.7138 0.015268 -0.24384 1.7397 -0.043706 -0.24384 1.7397 -0.043706 -0.18795 1.6214 -0.083632 -0.18482 1.6304 -0.083786 -0.23779 1.6501 0.022945 -0.24005 1.6424 0.02311 -0.28712 1.6672 0.072619 -0.28845 1.6615 0.072762 -0.33101 1.6807 0.03912 -0.33155 1.6776 0.039208 -0.37084 1.6915 -0.055474 -0.37084 1.6915 -0.055474 -0.18329 1.6205 -0.083295 -0.18948 1.6313 -0.084123 -0.23273 1.6144 0.035599 -0.22728 1.6052 0.036315 -0.27234 1.595 0.10392 -0.26827 1.5884 0.10444 -0.3067 1.5723 0.094438 -0.30448 1.5688 0.09472 -0.3367 1.5468 0.020236 -0.3367 1.5468 0.020236 -0.18666 1.6306 -0.083914 -0.18611 1.6212 -0.083505 -0.15969 1.6278 0.017249 -0.16075 1.6358 0.016863 -0.13083 1.6333 0.077095 -0.13201 1.639 0.076791 -0.098185 1.6365 0.074749 -0.099039 1.6395 0.074575 -0.062418 1.6377 0.01983 -0.062418 1.6377 0.01983 -0.19023 1.6226 -0.083827 -0.18254 1.6292 -0.083591 -0.21188 1.6591 0.019116 -0.21809 1.6531 0.018956 -0.23873 1.6869 0.079087 -0.24293 1.6823 0.079003 -0.26143 1.7118 0.073822 -0.2635 1.7092 0.073794 -0.28051 1.7342 0.012764 -0.28051 1.7342 0.012764 -0.18782 1.6213 -0.083621 -0.18495 1.6304 -0.083797 -0.21546 1.6411 0.0018194 -0.21792 1.6333 0.0019701 -0.24396 1.65 0.054108 -0.24574 1.6444 0.054218 -0.26921 1.6567 0.054793 -0.27016 1.6537 0.054852 -0.29156 1.6613 0.0095251 -0.29156 1.6613 0.0095251 0.17393 2.2777 -0.086644 0.17154 2.2856 -0.085915 0.12691 2.2621 0.018358 0.12823 2.2551 0.017716 0.08231 2.2429 0.070517 0.082724 2.2378 0.070044 0.037664 2.2305 0.046097 0.037594 2.2278 0.045843 -0.0071335 2.2234 -0.036324 -0.0071335 2.2234 -0.036324 0.18048 2.2833 -0.086113 0.16499 2.28 -0.086445 0.17618 2.2193 0.035824 0.18932 2.2227 0.036159 0.18818 2.1643 0.10057 0.1976 2.1671 0.10085 0.20074 2.1175 0.079429 0.2057 2.1192 0.079598 0.21369 2.0773 -0.010223 0.21369 2.0773 -0.010223 0.17385 2.2777 -0.086643 0.17161 2.2856 -0.085915 0.12497 2.2621 0.019949 0.12618 2.2552 0.019309 0.078363 2.2432 0.071895 0.078718 2.2381 0.071424 0.031719 2.2313 0.044881 0.031626 2.2286 0.044629 -0.015068 2.2247 -0.041215 -0.015068 2.2247 -0.041215 0.17394 2.274 -0.086982 0.17153 2.2893 -0.085576 0.12606 2.2697 0.035325 0.12943 2.2569 0.034149 0.081186 2.2543 0.10401 0.084543 2.2453 0.10319 0.037024 2.2459 0.093912 0.039289 2.2413 0.093491 -0.0064106 2.2435 0.018634 -0.0064106 2.2435 0.018634 0.17747 2.2855 -0.085915 0.168 2.2778 -0.086643 0.19074 2.2404 0.031056 0.19842 2.2475 0.031724 0.2139 2.2074 0.10606 0.21913 2.2129 0.10658 0.2373 2.1811 0.11391 0.2399 2.1842 0.1142 0.26081 2.1609 0.059353 0.26081 2.1609 0.059353 0.1682 2.2772 -0.086699 0.17726 2.2861 -0.08586 0.1437 2.3041 0.064957 0.1357 2.2968 0.064261 0.10978 2.327 0.15997 0.10381 2.3218 0.15948 0.075706 2.3577 0.16843 0.072435 2.355 0.16818 0.041515 2.3955 0.099306 0.041515 2.3955 0.099306 0.16661 2.284 -0.086077 0.17886 2.2793 -0.086482 0.19644 2.3156 0.040618 0.18623 2.3203 0.041026 0.21364 2.3577 0.10961 0.20647 2.3615 0.10995 0.23081 2.4081 0.092553 0.22712 2.4104 0.092756 0.24802 2.465 0.0086981 0.24802 2.465 0.0086981 0.16877 2.2769 -0.086728 0.17669 2.2864 -0.085831 0.14953 2.2967 0.027444 0.14227 2.2889 0.026712 0.12195 2.3104 0.099228 0.11637 2.3052 0.098725 0.094128 2.3301 0.10648 0.090982 2.3274 0.10622 0.066078 2.3551 0.055414 0.066078 2.3551 0.055414 0.1751 2.2877 -0.085718 0.17036 2.2756 -0.086841 0.22449 2.2423 0.0598 0.2295 2.2522 0.060726 0.27925 2.2156 0.13988 0.28354 2.2224 0.14052 0.3347 2.1982 0.12033 0.33733 2.2017 0.12065 0.39081 2.1883 0.020745 0.39081 2.1883 0.020745 0.17337 2.2887 -0.085625 0.1721 2.2746 -0.086934 0.21099 2.2598 0.048283 0.21331 2.2718 0.049392 0.2504 2.2502 0.13498 0.25296 2.2587 0.13577 0.29046 2.248 0.14548 0.29228 2.2523 0.14589 0.33121 2.2524 0.085546 0.33121 2.2524 0.085546 0.16339 2.2816 -0.0863 0.18208 2.2817 -0.086259 0.18058 2.3228 0.057218 0.16468 2.3246 0.057347 0.17832 2.3703 0.13764 0.16701 2.3729 0.13785 0.17582 2.4272 0.12398 0.16998 2.4292 0.12415 0.1733 2.4917 0.035473 0.1733 2.4917 0.035473 -0.24609 2.5755 -0.089396 -0.2431 2.5802 -0.089269 -0.27173 2.5976 -0.012026 -0.27427 2.5936 -0.012135 -0.30017 2.6157 0.026005 -0.30199 2.6128 0.025926 -0.32818 2.6349 0.0067171 -0.32915 2.6333 0.0066748 -0.35589 2.6549 -0.05513 -0.35589 2.6549 -0.05513 -0.24256 2.5758 -0.089358 -0.24663 2.5798 -0.089307 -0.26159 2.5622 -0.034815 -0.25829 2.5586 -0.034865 -0.27617 2.5449 -0.0068964 -0.27393 2.5422 -0.0069366 -0.29039 2.5283 -0.018182 -0.28927 2.5268 -0.018206 -0.30436 2.5122 -0.059531 -0.30436 2.5122 -0.059531 -0.24637 2.5795 -0.089312 -0.24282 2.5762 -0.089353 -0.22503 2.5964 -0.023626 -0.2278 2.5996 -0.023582 -0.20706 2.6177 0.008247 -0.20885 2.6201 0.0082848 -0.18866 2.6402 -0.0091828 -0.18948 2.6416 -0.0091596 -0.16988 2.6636 -0.062715 -0.16988 2.6636 -0.062715 -0.24529 2.5803 -0.089286 -0.2439 2.5754 -0.089379 -0.22225 2.5805 -0.032043 -0.22356 2.5846 -0.031965 -0.20047 2.5864 -0.0024954 -0.20151 2.5893 -0.0024404 -0.17842 2.5933 -0.013888 -0.17902 2.5949 -0.01386 -0.15618 2.6009 -0.056506 -0.15618 2.6009 -0.056506 -0.24397 2.5795 -0.089291 -0.24521 2.5762 -0.089374 -0.23168 2.5694 -0.038906 -0.23066 2.5723 -0.038835 -0.21793 2.5631 -0.0075376 -0.21723 2.5652 -0.0074862 -0.20392 2.5577 -0.0057848 -0.20356 2.5588 -0.0057574 -0.18968 2.5528 -0.030512 -0.18968 2.5528 -0.030512 -0.24349 2.5755 -0.089373 -0.2457 2.5802 -0.089292 -0.2696 2.5671 -0.018427 -0.26756 2.5632 -0.018494 -0.29309 2.5546 0.020389 -0.29151 2.5518 0.020342 -0.31606 2.543 0.011269 -0.31516 2.5416 0.011245 -0.33859 2.5322 -0.036334 -0.33859 2.5322 -0.036334 -0.24576 2.5756 -0.08939 -0.24343 2.5801 -0.089275 -0.26575 2.5908 -0.019357 -0.26795 2.5871 -0.019455 -0.28797 2.602 0.020243 -0.28972 2.5995 0.020173 -0.30995 2.6142 0.014185 -0.31097 2.6129 0.014148 -0.33175 2.6271 -0.029338 -0.33175 2.6271 -0.029338 -0.24165 2.5795 -0.089271 -0.24754 2.5761 -0.089394 -0.23558 2.5538 -0.034141 -0.23083 2.5572 -0.034028 -0.22317 2.5323 -0.0066954 -0.21997 2.5351 -0.0066085 -0.21038 2.512 -0.020027 -0.20882 2.5137 -0.019979 -0.19736 2.4926 -0.063958 -0.19736 2.4926 -0.063958 -0.24472 2.5748 -0.089398 -0.24447 2.5808 -0.089266 -0.26937 2.581 -0.025787 -0.2691 2.5759 -0.025896 -0.29389 2.5816 0.0083134 -0.29336 2.5778 0.0082377 -0.31788 2.5829 -0.0013021 -0.31741 2.5809 -0.0013404 -0.34137 2.5849 -0.045431 -0.34137 2.5849 -0.045431 -0.24657 2.5787 -0.089329 -0.24262 2.5769 -0.089335 -0.23678 2.5923 -0.0313 -0.24029 2.5934 -0.031305 -0.23098 2.6081 0.0045365 -0.23359 2.6087 0.0045269 -0.22504 2.6245 0.0060914 -0.22645 2.6247 0.0060829 -0.21895 2.6415 -0.022672 -0.21895 2.6415 -0.022672 -0.12228 -0.68484 -0.010913 -0.13093 -0.68793 -0.014026 -0.13481 -0.6845 -0.013609 -0.13644 -0.67836 -0.01165 -0.13557 -0.67085 -0.0088985 -0.13094 -0.66152 -0.0054929 -0.12162 -0.65221 -0.0025879 -0.1086 -0.64564 -0.0012494 -0.096128 -0.64409 -0.0014188 -0.085653 -0.64789 -0.0023244 -0.080666 -0.65737 -0.0035607 -0.081186 -0.66919 -0.0050472 -0.087111 -0.68185 -0.0073686 -0.096445 -0.69115 -0.010271 -0.10628 -0.696 -0.012955 -0.11444 -0.69725 -0.014697 -0.12126 -0.69613 -0.015486 -0.12523 -0.69282 -0.014815 -0.11337 -0.68625 0.060362 -0.10381 -0.69158 0.047863 -0.1032 -0.70021 0.047328 -0.10654 -0.7099 0.052048 -0.11321 -0.71861 0.06053 -0.12495 -0.72547 0.073884 -0.14152 -0.72694 0.090389 -0.1599 -0.72061 0.10635 -0.17368 -0.70848 0.11705 -0.1807 -0.69192 0.12201 -0.17706 -0.67452 0.11868 -0.1659 -0.6604 0.10923 -0.14907 -0.65115 0.094011 -0.13249 -0.64972 0.077504 -0.11961 -0.65431 0.063603 -0.11135 -0.66159 0.054357 -0.10616 -0.67046 0.048749 -0.10505 -0.67907 0.048461 -0.1035 -0.68674 0.13157 -0.10686 -0.67625 0.12374 -0.10109 -0.67125 0.12316 -0.091574 -0.66888 0.12576 -0.080343 -0.66961 0.13056 -0.066896 -0.67515 0.13798 -0.054142 -0.68698 0.14678 -0.046051 -0.70397 0.15485 -0.045471 -0.72042 0.16009 -0.0527 -0.7342 0.16274 -0.067719 -0.74063 0.16172 -0.085501 -0.73979 0.15772 -0.1038 -0.73208 0.1504 -0.11653 -0.72023 0.1416 -0.12248 -0.70788 0.13363 -0.12323 -0.69762 0.12807 -0.12058 -0.68895 0.12458 -0.11506 -0.6837 0.12434 -0.09268 -0.68632 0.20271 -0.094559 -0.69546 0.19871 -0.099585 -0.69632 0.19909 -0.10577 -0.69354 0.20143 -0.11183 -0.68775 0.20478 -0.11755 -0.67756 0.20892 -0.12088 -0.66333 0.21241 -0.11996 -0.64772 0.21392 -0.11495 -0.63599 0.21366 -0.10622 -0.62977 0.21271 -0.095259 -0.63231 0.2117 -0.085052 -0.64118 0.21044 -0.076935 -0.65511 0.20803 -0.073629 -0.66934 0.20455 -0.074543 -0.68078 0.20106 -0.077755 -0.6883 0.19864 -0.082338 -0.69309 0.19738 -0.087305 -0.6941 0.19799 -0.080902 -0.68498 0.27378 -0.074621 -0.68151 0.27116 -0.071236 -0.68399 0.27059 -0.06926 -0.68897 0.27096 -0.069073 -0.69532 0.27193 -0.071636 -0.70344 0.27343 -0.077951 -0.71179 0.27495 -0.087563 -0.71801 0.27603 -0.097296 -0.72005 0.27672 -0.10596 -0.71766 0.27753 -0.1108 -0.71041 0.27852 -0.11151 -0.70091 0.27922 -0.1081 -0.69026 0.27896 -0.10177 -0.68192 0.27744 -0.094654 -0.67705 0.27534 -0.088476 -0.67525 0.27352 -0.083067 -0.67554 0.27217 -0.079597 -0.67796 0.27182 0.2012 -6.6912 -0.05245 0.19239 -6.6995 -0.054909 0.18365 -6.6934 -0.054063 0.18148 -6.6806 -0.051957 0.18957 -6.6686 -0.050447 0.20374 -6.665 -0.04995 0.21691 -6.6716 -0.050478 0.22253 -6.685 -0.052003 0.21796 -6.6971 -0.054101 0.20822 -6.7012 -0.054926 0.22148 -6.6666 -0.03882 0.215 -6.665 -0.042055 0.21444 -6.6589 -0.040447 0.21903 -6.6538 -0.036643 0.22702 -6.6538 -0.033185 0.23365 -6.6593 -0.031929 0.23551 -6.6677 -0.033403 0.23178 -6.6747 -0.03697 0.2251 -6.6763 -0.04072 0.21991 -6.673 -0.042181 0.20238 -6.752 -0.053425 0.19191 -6.7486 -0.056356 0.19265 -6.739 -0.055033 0.20163 -6.7317 -0.052002 0.21471 -6.7329 -0.049613 0.2241 -6.7425 -0.048883 0.22495 -6.7559 -0.049976 0.21701 -6.7663 -0.052547 0.20551 -6.7679 -0.055488 0.19784 -6.7619 -0.056566 0.22351 -6.7713 -0.040498 0.22385 -6.7626 -0.043422 0.23137 -6.7611 -0.042077 0.23892 -6.7663 -0.038901 0.24091 -6.7766 -0.036191 0.2356 -6.7858 -0.035253 0.22554 -6.7894 -0.036407 0.21585 -6.7856 -0.039225 0.21208 -6.7772 -0.042347 0.21495 -6.7701 -0.043547 0.13579 -6.7515 -0.053457 0.14702 -6.7501 -0.057247 0.15074 -6.7596 -0.05578 0.14576 -6.7705 -0.051957 0.13305 -6.7752 -0.048546 0.1199 -6.7703 -0.047156 0.11299 -6.758 -0.048282 0.11563 -6.7446 -0.051561 0.12556 -6.7379 -0.055449 0.1354 -6.7401 -0.057094 0.10883 -6.7705 -0.040555 0.11657 -6.7764 -0.04294 0.11306 -6.7841 -0.042218 0.10337 -6.7875 -0.040158 0.092819 -6.7826 -0.038425 0.087898 -6.7719 -0.037664 0.091198 -6.7607 -0.038073 0.10093 -6.7545 -0.039631 0.11103 -6.7565 -0.041777 0.11564 -6.7637 -0.042737 0.081879 -6.7893 -0.040872 0.09358 -6.7863 -0.044693 0.09869 -6.7958 -0.043228 0.094784 -6.8081 -0.039427 0.081944 -6.8148 -0.036088 0.067434 -6.8112 -0.034744 0.058596 -6.7991 -0.035851 0.059723 -6.7846 -0.039072 0.069382 -6.7762 -0.042931 0.080061 -6.7773 -0.044555 0.13993 -6.7452 -0.053353 0.14682 -6.7501 -0.057061 0.1443 -6.7574 -0.055541 0.1362 -6.761 -0.051564 0.12675 -6.7572 -0.047825 0.12178 -6.7477 -0.046255 0.12393 -6.7371 -0.047505 0.13198 -6.7309 -0.051083 0.14076 -6.7322 -0.055139 0.14519 -6.7385 -0.056876 0.11595 -6.7596 -0.040374 0.12335 -6.7609 -0.042156 0.12365 -6.7675 -0.041613 0.11816 -6.7732 -0.040087 0.1092 -6.7736 -0.038831 0.10204 -6.7679 -0.038294 0.10035 -6.759 -0.038601 0.10487 -6.7512 -0.039742 0.11253 -6.7491 -0.041324 0.11823 -6.7524 -0.042023 0.091988 -6.7737 -0.040616 0.10043 -6.7693 -0.044266 0.1063 -6.7757 -0.042722 0.10572 -6.7858 -0.038828 0.097111 -6.7933 -0.03531 0.085163 -6.7933 -0.033924 0.075895 -6.7857 -0.035201 0.073868 -6.7743 -0.038663 0.079666 -6.7661 -0.042584 0.088148 -6.7649 -0.044202</float_array><technique_common><accessor source="#weeds_+02+00_foliage-pos-a" count="660" stride="3"><param name="X" type="float"/><param name="Y" type="float"/><param name="Z" type="float"/></accessor></technique_common></source>
        <source id="weeds_+02+00_foliage-nrm"><float_array id="weeds_+02+00_foliage-nrm-a" count="3366">-0.758 0.512 0.404 -0.683 0.503 0.529 -0.677 0.502 0.538 -0.24 0.167 0.956 -0.121 0.061 0.991 0.45 -0.485 0.75 0.488 -0.534 0.69 0.579 -0.656 0.485 -0.526 -0.757 0.388 -0.478 -0.719 0.504 -0.48 -0.72 0.501 -0.16 -0.235 0.959 -0.19 -0.284 0.94 0.295 0.546 0.784 0.279 0.515 0.811 0.399 0.748 0.53 -0.748 0.521 0.412 -0.671 0.507 0.541 -0.664 0.506 0.551 -0.219 0.152 0.964 -0.102 0.046 0.994 0.455 -0.498 0.738 0.489 -0.543 0.682 0.574 -0.661 0.484 -0.757 0.554 0.347 -0.744 0.496 0.448 -0.745 0.5 0.442 -0.295 0.19 0.936 -0.401 0.251 0.881 0.578 -0.248 0.778 0.483 -0.21 0.85 0.796 -0.332 0.507 -0.091 -0.953 0.29 -0.061 -0.932 0.358 -0.062 -0.932 0.356 -0.014 -0.636 0.772 -0.016 -0.675 0.737 -0.035 0.388 0.921 -0.028 0.264 0.964 -0.058 0.825 0.561 0.04 0.95 0.311 0.052 0.92 0.388 0.052 0.92 0.389 0.043 0.585 0.81 0.041 0.559 0.828 -0.051 -0.378 0.924 -0.057 -0.429 0.901 -0.105 -0.824 0.557 0.871 0.281 0.404 0.818 0.239 0.524 0.815 0.238 0.529 0.287 0.087 0.954 0.199 0.066 0.978 -0.621 -0.102 0.777 -0.665 -0.107 0.739 -0.852 -0.128 0.508 -0.047 0.951 0.304 -0.021 0.925 0.379 -0.02 0.924 0.381 0.008 0.619 0.786 0.008 0.573 0.819 -0.041 -0.335 0.941 -0.051 -0.435 0.899 -0.087 -0.827 0.556 0.317 -0.872 0.373 0.267 -0.836 0.48 0.264 -0.833 0.487 0.113 -0.378 0.919 0.083 -0.257 0.963 -0.079 0.569 0.818 -0.085 0.649 0.756 -0.1 0.855 0.509 0.556 -0.781 0.285 0.509 -0.786 0.351 0.507 -0.786 0.354 0.335 -0.602 0.725 0.3 -0.547 0.781 -0.082 0.237 0.968 -0.156 0.42 0.894 -0.306 0.783 0.542 0.721 0.572 0.391 0.704 0.504 0.5 0.702 0.499 0.508 0.315 0.219 0.923 0.183 0.142 0.973 -0.535 -0.225 0.814 -0.621 -0.255 0.741 -0.805 -0.316 0.503 0.756 -0.505 0.416 0.694 -0.502 0.516 0.69 -0.502 0.521 0.274 -0.209 0.939 0.179 -0.13 0.975 -0.489 0.468 0.736 -0.532 0.517 0.671 -0.642 0.649 0.407 0.872 -0.265 0.411 0.815 -0.275 0.51 0.812 -0.275 0.515 0.337 -0.106 0.936 0.236 -0.064 0.97 -0.597 0.313 0.739 -0.648 0.342 0.681 -0.804 0.432 0.408 -0.729 0.647 0.223 -0.686 0.663 0.301 -0.683 0.663 0.305 -0.464 0.481 0.744 -0.402 0.412 0.818 0.181 -0.327 0.928 0.269 -0.454 0.85 0.448 -0.706 0.549 0.39 0.856 0.34 0.319 0.836 0.447 0.324 0.838 0.439 0.051 0.28 0.959 0.106 0.437 0.893 -0.17 -0.671 0.722 -0.165 -0.574 0.802 -0.172 -0.856 0.487 -0.011 0.968 0.251 -0.003 0.945 0.328 -0.003 0.944 0.329 -0.029 0.628 0.778 -0.031 0.602 0.798 -0.096 -0.417 0.904 -0.098 -0.465 0.88 -0.105 -0.836 0.539 0.896 -0.256 0.363 0.875 -0.201 0.44 0.876 -0.204 0.436 0.444 -0.059 0.894 0.548 -0.08 0.833 -0.644 0.044 0.764 -0.496 0.044 0.867 -0.903 0.037 0.429 -0.851 -0.443 0.28 -0.843 -0.394 0.367 -0.842 -0.392 0.371 -0.526 -0.185 0.83 -0.439 -0.143 0.887 0.456 0.193 0.869 0.551 0.216 0.806 0.805 0.271 0.527 0.887 0.043 0.461 0.802 0.042 0.596 0.801 0.042 0.598 0.099 0.046 0.994 0.074 0.046 0.996 -0.778 0.03 0.628 -0.784 0.029 0.62 -0.913 0.025 0.407 0.88 -0.2 0.43 0.818 -0.189 0.543 0.817 -0.189 0.544 0.227 -0.032 0.973 0.2 -0.024 0.979 -0.699 0.212 0.683 -0.71 0.215 0.671 -0.874 0.259 0.412 0.34 -0.839 0.425 0.273 -0.802 0.532 0.267 -0.798 0.541 0.07 -0.309 0.949 0.021 -0.129 0.991 -0.137 0.685 0.715 -0.134 0.759 0.637 -0.122 0.902 0.413 0.845 -0.263 0.466 0.77 -0.216 0.601 0.773 -0.218 0.596 0.043 -0.007 0.999 0.133 -0.029 0.991 -0.779 0.163 0.606 -0.755 0.161 0.636 -0.901 0.169 0.399 0.795 0.491 0.356 0.753 0.481 0.448 0.754 0.481 0.447 0.315 0.26 0.913 0.334 0.271 0.903 -0.557 -0.292 0.778 -0.543 -0.282 0.791 -0.763 -0.451 0.463 -0.964 -0.077 0.255 -0.932 -0.101 0.348 -0.934 -0.1 0.344 -0.493 -0.031 0.869 -0.574 -0.048 0.817 0.54 0.198 0.818 0.453 0.176 0.874 0.806 0.26 0.531 0.617 -0.692 0.375 0.61 -0.645 0.46 0.611 -0.647 0.456 0.281 -0.297 0.913 0.336 -0.35 0.874 -0.515 0.397 0.76 -0.45 0.347 0.823 -0.714 0.555 0.427 0.894 -0.276 0.353 0.866 -0.265 0.425 0.525 -0.15 0.838 -0.493 0.172 0.853 -0.85 0.277 0.448 0.887 0.181 0.424 0.831 0.118 0.543 0.826 0.113 0.552 0.282 -0.023 0.959 0.123 -0.043 0.991 -0.667 -0.07 0.742 -0.729 -0.059 0.682 -0.878 -0.022 0.479 -0.209 0.869 0.448 -0.214 0.804 0.555 -0.214 0.806 0.552 -0.074 0.204 0.976 -0.09 0.263 0.96 0.206 -0.682 0.702 0.194 -0.651 0.733 0.282 -0.86 0.426 0.887 0.166 0.431 0.825 0.104 0.555 0.82 0.099 0.564 0.257 -0.03 0.966 0.099 -0.047 0.994 -0.68 -0.064 0.73 -0.736 -0.052 0.675 -0.878 -0.015 0.478 0.918 0.156 0.365 0.866 0.178 0.468 0.869 0.176 0.462 0.337 0.005 0.942 0.453 0.048 0.89 -0.573 -0.344 0.744 -0.483 -0.304 0.821 -0.778 -0.426 0.463 -0.627 0.7 0.341 -0.634 0.659 0.404 -0.634 0.661 0.402 -0.464 0.391 0.795 -0.49 0.423 0.762 0.311 -0.338 0.888 0.214 -0.259 0.942 0.64 -0.588 0.494 0.658 -0.716 0.233 0.63 -0.713 0.308 0.63 -0.713 0.309 0.402 -0.524 0.751 0.385 -0.507 0.771 -0.252 0.225 0.941 -0.286 0.268 0.92 -0.533 0.603 0.594 -0.355 -0.884 0.304 -0.354 -0.832 0.428 -0.354 -0.829 0.433 -0.129 -0.376 0.918 -0.086 -0.295 0.952 0.329 0.478 0.814 0.354 0.518 0.779 0.457 0.69 0.562 0.718 -0.655 0.235 0.683 -0.663 0.305 0.682 -0.664 0.307 0.45 -0.519 0.727 0.418 -0.491 0.765 -0.228 0.186 0.956 -0.295 0.268 0.917 -0.547 0.593 0.591 -0.852 0.342 0.396 -0.793 0.345 0.502 -0.789 0.345 0.508 -0.363 0.099 0.927 -0.253 0.03 0.967 0.473 -0.423 0.773 0.535 -0.468 0.704 0.689 -0.573 0.445 -0.951 0.105 0.29 -0.924 0.138 0.358 -0.922 0.14 0.361 -0.675 0.106 0.73 -0.612 0.088 0.786 0.23 -0.199 0.953 0.416 -0.265 0.87 0.78 -0.373 0.503 -0.048 -0.959 0.281 -0.087 -0.916 0.391 -0.09 -0.912 0.4 -0.048 -0.487 0.872 -0.018 -0.337 0.941 0.181 0.495 0.85 0.214 0.586 0.782 0.286 0.778 0.559 0.771 -0.498 0.398 0.709 -0.46 0.535 0.709 -0.46 0.534 0.138 -0.115 0.984 0.147 -0.12 0.982 -0.62 0.36 0.697 -0.617 0.358 0.701 -0.754 0.446 0.482 0.664 0.638 0.391 0.635 0.581 0.509 0.634 0.578 0.513 0.212 0.189 0.959 0.142 0.13 0.981 -0.554 -0.426 0.715 -0.583 -0.445 0.679 -0.718 -0.531 0.45 -0.658 -0.65 0.381 -0.63 -0.58 0.516 -0.628 -0.573 0.527 -0.174 -0.192 0.966 -0.039 -0.09 0.995 0.61 0.371 0.7 0.653 0.392 0.648 0.766 0.445 0.464 -0.892 -0.275 0.36 -0.831 -0.271 0.486 -0.833 -0.271 0.483 -0.22 -0.083 0.972 -0.268 -0.099 0.958 0.664 0.238 0.709 0.646 0.231 0.728 0.82 0.307 0.483 -0.904 0.32 0.285 -0.883 0.302 0.359 -0.883 0.303 0.358 -0.573 0.176 0.8 -0.586 0.181 0.79 0.436 -0.157 0.886 0.408 -0.148 0.901 0.812 -0.266 0.52 0.839 0.41 0.357 0.79 0.4 0.464 0.792 0.401 0.461 0.289 0.132 0.948 0.338 0.16 0.928 -0.575 -0.364 0.732 -0.548 -0.347 0.761 -0.75 -0.472 0.463 0.819 -0.465 0.335 0.771 -0.468 0.433 0.769 -0.468 0.436 0.368 -0.249 0.896 0.303 -0.208 0.93 -0.468 0.333 0.819 -0.512 0.37 0.775 -0.69 0.522 0.501 -0.494 0.766 0.412 -0.487 0.683 0.545 -0.488 0.689 0.537 -0.064 0.099 0.993 -0.159 0.214 0.964 0.521 -0.533 0.667 0.48 -0.502 0.72 0.636 -0.618 0.461 0.932 -0.006 0.362 0.879 0.028 0.476 0.883 0.026 0.469 0.244 -0.019 0.97 0.386 -0.002 0.922 -0.702 -0.171 0.691 -0.634 -0.153 0.758 -0.866 -0.216 0.451 -0.361 -0.893 0.269 -0.308 -0.886 0.347 -0.311 -0.886 0.343 -0.152 -0.533 0.832 -0.178 -0.622 0.763 0.053 0.542 0.839 0.033 0.373 0.927 0.092 0.849 0.52 0.119 0.292 -0.949 0.207 0.344 -0.916 0.206 0.346 -0.915 0.198 0.328 -0.924 0.16 0.288 -0.944 0.08 0.254 -0.964 -0.005 0.247 -0.969 -0.04 0.252 -0.967 -0.016 0.237 -0.971 0.032 0.196 -0.98 0.076 0.149 -0.986 0.093 0.125 -0.988 0.085 0.161 -0.983 0.085 0.249 -0.965 0.113 0.333 -0.936 0.15 0.374 -0.915 0.167 0.383 -0.908 0.166 0.383 -0.909 -0.744 -0.042 -0.667 -0.798 -0.019 -0.602 -0.798 -0.019 -0.603 -0.788 -0.011 -0.616 -0.759 -0.007 -0.651 -0.716 -0.029 -0.697 -0.678 -0.07 -0.731 -0.664 -0.093 -0.742 -0.668 -0.075 -0.74 -0.674 -0.032 -0.738 -0.674 0.012 -0.739 -0.673 0.031 -0.739 -0.683 0.005 -0.73 -0.715 -0.047 -0.698 -0.754 -0.081 -0.652 -0.782 -0.086 -0.617 -0.793 -0.082 -0.604 -0.793 -0.082 -0.603 0.31 -0.41 -0.858 0.342 -0.489 -0.802 0.326 -0.482 -0.813 0.297 -0.452 -0.841 0.277 -0.388 -0.879 0.278 -0.318 -0.906 0.284 -0.287 -0.915 0.273 -0.303 -0.913 0.241 -0.339 -0.909 0.206 -0.37 -0.906 0.19 -0.381 -0.905 0.22 -0.375 -0.9 0.288 -0.376 -0.881 0.352 -0.398 -0.847 0.382 -0.428 -0.82 0.388 -0.444 -0.808 -0.151 0.304 -0.941 -0.141 0.421 -0.896 -0.145 0.423 -0.894 -0.135 0.405 -0.904 -0.126 0.339 -0.932 -0.16 0.226 -0.961 -0.228 0.128 -0.965 -0.26 0.096 -0.961 -0.216 0.115 -0.97 -0.125 0.144 -0.982 -0.031 0.163 -0.986 0.016 0.166 -0.986 -0.024 0.18 -0.983 -0.118 0.237 -0.964 -0.184 0.324 -0.928 -0.194 0.39 -0.9 -0.19 0.412 -0.891 -0.192 0.409 -0.892 -0.212 -0.116 -0.97 -0.291 -0.183 -0.939 -0.291 -0.185 -0.939 -0.285 -0.164 -0.944 -0.253 -0.117 -0.96 -0.18 -0.071 -0.981 -0.099 -0.054 -0.994 -0.064 -0.055 -0.996 -0.088 -0.042 -0.995 -0.138 -0.008 -0.99 -0.183 0.032 -0.983 -0.201 0.052 -0.978 -0.19 0.018 -0.982 -0.182 -0.07 -0.981 -0.2 -0.158 -0.967 -0.231 -0.206 -0.951 -0.247 -0.218 -0.944 -0.246 -0.218 -0.944 0.015 0.153 -0.988 0.061 0.223 -0.973 0.066 0.189 -0.98 0.045 0.131 -0.99 0.02 0.098 -0.995 0.009 0.094 -0.996 -0 0.1 -0.995 -0.019 0.137 -0.99 -0.027 0.198 -0.98 -0.015 0.23 -0.973 0.411 0.265 -0.872 0.483 0.265 -0.835 0.464 0.244 -0.852 0.413 0.229 -0.881 0.376 0.232 -0.897 0.367 0.238 -0.899 0.366 0.249 -0.897 0.38 0.283 -0.88 0.417 0.321 -0.85 0.444 0.328 -0.834 0.22 0.113 -0.969 0.301 0.107 -0.948 0.275 0.087 -0.958 0.216 0.076 -0.974 0.175 0.083 -0.981 0.166 0.09 -0.982 0.167 0.101 -0.981 0.19 0.135 -0.973 0.238 0.171 -0.956 0.27 0.177 -0.946 0.216 -0.242 -0.946 0.23 -0.319 -0.919 0.204 -0.301 -0.932 0.179 -0.249 -0.952 0.175 -0.209 -0.962 0.18 -0.198 -0.964 0.191 -0.196 -0.962 0.229 -0.207 -0.951 0.275 -0.241 -0.931 0.288 -0.27 -0.919 -0.206 -0.226 -0.952 -0.28 -0.254 -0.926 -0.266 -0.225 -0.937 -0.219 -0.191 -0.957 -0.18 -0.18 -0.967 -0.169 -0.182 -0.969 -0.165 -0.193 -0.967 -0.17 -0.233 -0.958 -0.196 -0.285 -0.938 -0.223 -0.303 -0.927 -0.196 0.001 -0.981 -0.271 0.033 -0.962 -0.239 0.044 -0.97 -0.179 0.035 -0.983 -0.143 0.015 -0.99 -0.137 0.006 -0.991 -0.142 -0.005 -0.99 -0.175 -0.03 -0.984 -0.233 -0.048 -0.971 -0.266 -0.042 -0.963 -0.165 -0.232 -0.959 -0.236 -0.27 -0.934 -0.225 -0.239 -0.944 -0.182 -0.199 -0.963 -0.145 -0.183 -0.972 -0.133 -0.184 -0.974 -0.128 -0.194 -0.973 -0.128 -0.235 -0.964 -0.148 -0.29 -0.945 -0.173 -0.312 -0.934 -0.413 -0.043 -0.91 -0.483 -0.016 -0.876 -0.455 -0.003 -0.89 -0.4 -0.009 -0.916 -0.366 -0.027 -0.93 -0.36 -0.036 -0.932 -0.363 -0.046 -0.93 -0.392 -0.073 -0.917 -0.443 -0.094 -0.892 -0.473 -0.09 -0.877 -0.166 -0.085 -0.982 -0.248 -0.091 -0.964 -0.225 -0.066 -0.972 -0.167 -0.048 -0.985 -0.125 -0.049 -0.991 -0.116 -0.054 -0.992 -0.115 -0.066 -0.991 -0.134 -0.103 -0.986 -0.177 -0.146 -0.973 -0.209 -0.156 -0.965 -0.127 -0.34 -0.932 -0.185 -0.391 -0.902 -0.183 -0.36 -0.915 -0.151 -0.312 -0.938 -0.12 -0.289 -0.95 -0.108 -0.287 -0.952 -0.101 -0.296 -0.95 -0.091 -0.334 -0.938 -0.096 -0.39 -0.916 -0.114 -0.416 -0.902 0.758 -0.512 -0.404 0.683 -0.503 -0.529 0.677 -0.502 -0.538 0.24 -0.167 -0.956 0.121 -0.061 -0.991 -0.45 0.485 -0.75 -0.488 0.534 -0.69 -0.579 0.656 -0.485 0.526 0.757 -0.388 0.478 0.719 -0.504 0.48 0.72 -0.501 0.16 0.235 -0.959 0.19 0.284 -0.94 -0.295 -0.546 -0.784 -0.279 -0.515 -0.811 -0.399 -0.748 -0.53 0.748 -0.521 -0.412 0.671 -0.507 -0.541 0.664 -0.506 -0.551 0.219 -0.152 -0.964 0.102 -0.046 -0.994 -0.455 0.498 -0.738 -0.489 0.543 -0.682 -0.574 0.661 -0.484 0.757 -0.554 -0.347 0.744 -0.496 -0.448 0.745 -0.5 -0.442 0.295 -0.19 -0.936 0.401 -0.251 -0.881 -0.578 0.248 -0.778 -0.483 0.21 -0.85 -0.796 0.332 -0.507 0.091 0.953 -0.29 0.061 0.932 -0.358 0.062 0.932 -0.356 0.014 0.636 -0.772 0.016 0.675 -0.737 0.035 -0.388 -0.921 0.028 -0.264 -0.964 0.058 -0.825 -0.561 -0.04 -0.95 -0.311 -0.052 -0.92 -0.388 -0.052 -0.92 -0.389 -0.043 -0.585 -0.81 -0.041 -0.559 -0.828 0.051 0.378 -0.924 0.057 0.429 -0.901 0.105 0.824 -0.557 -0.871 -0.281 -0.404 -0.818 -0.239 -0.524 -0.815 -0.238 -0.529 -0.287 -0.087 -0.954 -0.199 -0.066 -0.978 0.621 0.102 -0.777 0.665 0.107 -0.739 0.852 0.128 -0.508 0.047 -0.951 -0.304 0.021 -0.925 -0.379 0.02 -0.924 -0.381 -0.008 -0.619 -0.786 -0.008 -0.573 -0.819 0.041 0.335 -0.941 0.051 0.435 -0.899 0.087 0.827 -0.556 -0.317 0.872 -0.373 -0.267 0.836 -0.48 -0.264 0.833 -0.487 -0.113 0.378 -0.919 -0.083 0.257 -0.963 0.079 -0.569 -0.818 0.085 -0.649 -0.756 0.1 -0.855 -0.509 -0.556 0.781 -0.285 -0.509 0.786 -0.351 -0.507 0.786 -0.354 -0.335 0.602 -0.725 -0.3 0.547 -0.781 0.082 -0.237 -0.968 0.156 -0.42 -0.894 0.306 -0.783 -0.542 -0.721 -0.572 -0.391 -0.704 -0.504 -0.5 -0.702 -0.499 -0.508 -0.315 -0.219 -0.923 -0.183 -0.142 -0.973 0.535 0.225 -0.814 0.621 0.255 -0.741 0.805 0.316 -0.503 -0.756 0.505 -0.416 -0.694 0.502 -0.516 -0.69 0.502 -0.521 -0.274 0.209 -0.939 -0.179 0.13 -0.975 0.489 -0.468 -0.736 0.532 -0.517 -0.671 0.642 -0.649 -0.407 -0.872 0.265 -0.411 -0.815 0.275 -0.51 -0.812 0.275 -0.515 -0.337 0.106 -0.936 -0.236 0.064 -0.97 0.597 -0.313 -0.739 0.648 -0.342 -0.681 0.804 -0.432 -0.408 0.729 -0.647 -0.223 0.686 -0.663 -0.301 0.683 -0.663 -0.305 0.464 -0.481 -0.744 0.402 -0.412 -0.818 -0.181 0.327 -0.928 -0.269 0.454 -0.85 -0.448 0.706 -0.549 -0.39 -0.856 -0.34 -0.319 -0.836 -0.447 -0.324 -0.838 -0.439 -0.051 -0.28 -0.959 -0.106 -0.437 -0.893 0.17 0.671 -0.722 0.165 0.574 -0.802 0.172 0.856 -0.487 0.011 -0.968 -0.251 0.003 -0.945 -0.328 0.003 -0.944 -0.329 0.029 -0.628 -0.778 0.031 -0.602 -0.798 0.096 0.417 -0.904 0.098 0.465 -0.88 0.105 0.836 -0.539 -0.896 0.256 -0.363 -0.875 0.201 -0.44 -0.876 0.204 -0.436 -0.444 0.059 -0.894 -0.548 0.08 -0.833 0.644 -0.044 -0.764 0.496 -0.044 -0.867 0.903 -0.037 -0.429 0.851 0.443 -0.28 0.843 0.394 -0.367 0.842 0.392 -0.371 0.526 0.185 -0.83 0.439 0.143 -0.887 -0.456 -0.193 -0.869 -0.551 -0.216 -0.806 -0.805 -0.271 -0.527 -0.887 -0.043 -0.461 -0.802 -0.042 -0.596 -0.801 -0.042 -0.598 -0.099 -0.046 -0.994 -0.074 -0.046 -0.996 0.778 -0.03 -0.628 0.784 -0.029 -0.62 0.913 -0.025 -0.407 -0.88 0.2 -0.43 -0.818 0.189 -0.543 -0.817 0.189 -0.544 -0.227 0.032 -0.973 -0.2 0.024 -0.979 0.699 -0.212 -0.683 0.71 -0.215 -0.671 0.874 -0.259 -0.412 -0.34 0.839 -0.425 -0.273 0.802 -0.532 -0.267 0.798 -0.541 -0.07 0.309 -0.949 -0.021 0.129 -0.991 0.137 -0.685 -0.715 0.134 -0.759 -0.637 0.122 -0.902 -0.413 -0.845 0.263 -0.466 -0.77 0.216 -0.601 -0.773 0.218 -0.596 -0.043 0.007 -0.999 -0.133 0.029 -0.991 0.779 -0.163 -0.606 0.755 -0.161 -0.636 0.901 -0.169 -0.399 -0.795 -0.491 -0.356 -0.753 -0.481 -0.448 -0.754 -0.481 -0.447 -0.315 -0.26 -0.913 -0.334 -0.271 -0.903 0.557 0.292 -0.778 0.543 0.282 -0.791 0.763 0.451 -0.463 0.964 0.077 -0.255 0.932 0.101 -0.348 0.934 0.1 -0.344 0.493 0.031 -0.869 0.574 0.048 -0.817 -0.54 -0.198 -0.818 -0.453 -0.176 -0.874 -0.806 -0.26 -0.531 -0.617 0.692 -0.375 -0.61 0.645 -0.46 -0.611 0.647 -0.456 -0.281 0.297 -0.913 -0.336 0.35 -0.874 0.515 -0.397 -0.76 0.45 -0.347 -0.823 0.714 -0.555 -0.427 -0.894 0.276 -0.353 -0.866 0.265 -0.425 -0.525 0.15 -0.838 0.493 -0.172 -0.853 0.85 -0.277 -0.448 -0.887 -0.181 -0.424 -0.831 -0.118 -0.543 -0.826 -0.113 -0.552 -0.282 0.023 -0.959 -0.123 0.043 -0.991 0.667 0.07 -0.742 0.729 0.059 -0.682 0.878 0.022 -0.479 0.209 -0.869 -0.448 0.214 -0.804 -0.555 0.214 -0.806 -0.552 0.074 -0.204 -0.976 0.09 -0.263 -0.96 -0.206 0.682 -0.702 -0.194 0.651 -0.733 -0.282 0.86 -0.426 -0.887 -0.166 -0.431 -0.825 -0.104 -0.555 -0.82 -0.099 -0.564 -0.257 0.03 -0.966 -0.099 0.047 -0.994 0.68 0.064 -0.73 0.736 0.052 -0.675 0.878 0.015 -0.478 -0.918 -0.156 -0.365 -0.866 -0.178 -0.468 -0.869 -0.176 -0.462 -0.337 -0.005 -0.942 -0.453 -0.048 -0.89 0.573 0.344 -0.744 0.483 0.304 -0.821 0.778 0.426 -0.463 0.627 -0.7 -0.341 0.634 -0.659 -0.404 0.634 -0.661 -0.402 0.464 -0.391 -0.795 0.49 -0.423 -0.762 -0.311 0.338 -0.888 -0.214 0.259 -0.942 -0.64 0.588 -0.494 -0.658 0.716 -0.233 -0.63 0.713 -0.308 -0.63 0.713 -0.309 -0.402 0.524 -0.751 -0.385 0.507 -0.771 0.252 -0.225 -0.941 0.286 -0.268 -0.92 0.533 -0.603 -0.594 0.355 0.884 -0.304 0.354 0.832 -0.428 0.354 0.829 -0.433 0.129 0.376 -0.918 0.086 0.295 -0.952 -0.329 -0.478 -0.814 -0.354 -0.518 -0.779 -0.457 -0.69 -0.562 -0.718 0.655 -0.235 -0.683 0.663 -0.305 -0.682 0.664 -0.307 -0.45 0.519 -0.727 -0.418 0.491 -0.765 0.228 -0.186 -0.956 0.295 -0.268 -0.917 0.547 -0.593 -0.591 0.852 -0.342 -0.396 0.793 -0.345 -0.502 0.789 -0.345 -0.508 0.363 -0.099 -0.927 0.253 -0.03 -0.967 -0.473 0.423 -0.773 -0.535 0.468 -0.704 -0.689 0.573 -0.445 0.951 -0.105 -0.29 0.924 -0.138 -0.358 0.922 -0.14 -0.361 0.675 -0.106 -0.73 0.612 -0.088 -0.786 -0.23 0.199 -0.953 -0.416 0.265 -0.87 -0.78 0.373 -0.503 0.048 0.959 -0.281 0.087 0.916 -0.391 0.09 0.912 -0.4 0.048 0.487 -0.872 0.018 0.337 -0.941 -0.181 -0.495 -0.85 -0.214 -0.586 -0.782 -0.286 -0.778 -0.559 -0.771 0.498 -0.398 -0.709 0.46 -0.535 -0.709 0.46 -0.534 -0.138 0.115 -0.984 -0.147 0.12 -0.982 0.62 -0.36 -0.697 0.617 -0.358 -0.701 0.754 -0.446 -0.482 -0.664 -0.638 -0.391 -0.635 -0.581 -0.509 -0.634 -0.578 -0.513 -0.212 -0.189 -0.959 -0.142 -0.13 -0.981 0.554 0.426 -0.715 0.583 0.445 -0.679 0.718 0.531 -0.45 0.658 0.65 -0.381 0.63 0.58 -0.516 0.628 0.573 -0.527 0.174 0.192 -0.966 0.039 0.09 -0.995 -0.61 -0.371 -0.7 -0.653 -0.392 -0.648 -0.766 -0.445 -0.464 0.892 0.275 -0.36 0.831 0.271 -0.486 0.833 0.271 -0.483 0.22 0.083 -0.972 0.268 0.099 -0.958 -0.664 -0.238 -0.709 -0.646 -0.231 -0.728 -0.82 -0.307 -0.483 0.904 -0.32 -0.285 0.883 -0.302 -0.359 0.883 -0.303 -0.358 0.573 -0.176 -0.8 0.586 -0.181 -0.79 -0.436 0.157 -0.886 -0.408 0.148 -0.901 -0.812 0.266 -0.52 -0.839 -0.41 -0.357 -0.79 -0.4 -0.464 -0.792 -0.401 -0.461 -0.289 -0.132 -0.948 -0.338 -0.16 -0.928 0.575 0.364 -0.732 0.548 0.347 -0.761 0.75 0.472 -0.463 -0.819 0.465 -0.335 -0.771 0.468 -0.433 -0.769 0.468 -0.436 -0.368 0.249 -0.896 -0.303 0.208 -0.93 0.468 -0.333 -0.819 0.512 -0.37 -0.775 0.69 -0.522 -0.501 0.494 -0.766 -0.412 0.487 -0.683 -0.545 0.488 -0.689 -0.537 0.064 -0.099 -0.993 0.159 -0.214 -0.964 -0.521 0.533 -0.667 -0.48 0.502 -0.72 -0.636 0.618 -0.461 -0.932 0.006 -0.362 -0.879 -0.028 -0.476 -0.883 -0.026 -0.469 -0.244 0.019 -0.97 -0.386 0.002 -0.922 0.702 0.171 -0.691 0.634 0.153 -0.758 0.866 0.216 -0.451 0.361 0.893 -0.269 0.308 0.886 -0.347 0.311 0.886 -0.343 0.152 0.533 -0.832 0.178 0.622 -0.763 -0.053 -0.542 -0.839 -0.033 -0.373 -0.927 -0.092 -0.849 -0.52 -0.119 -0.292 0.949 -0.207 -0.344 0.916 -0.206 -0.346 0.915 -0.198 -0.328 0.924 -0.16 -0.288 0.944 -0.08 -0.254 0.964 0.005 -0.247 0.969 0.04 -0.252 0.967 0.016 -0.237 0.971 -0.032 -0.196 0.98 -0.076 -0.149 0.986 -0.093 -0.125 0.988 -0.085 -0.161 0.983 -0.085 -0.249 0.965 -0.113 -0.333 0.936 -0.15 -0.374 0.915 -0.167 -0.383 0.908 -0.166 -0.383 0.909 0.744 0.042 0.667 0.798 0.019 0.602 0.798 0.019 0.603 0.788 0.011 0.616 0.759 0.007 0.651 0.716 0.029 0.697 0.678 0.07 0.731 0.664 0.093 0.742 0.668 0.075 0.74 0.674 0.032 0.738 0.674 -0.012 0.739 0.673 -0.031 0.739 0.683 -0.005 0.73 0.715 0.047 0.698 0.754 0.081 0.652 0.782 0.086 0.617 0.793 0.082 0.604 0.793 0.082 0.603 -0.31 0.41 0.858 -0.342 0.489 0.802 -0.326 0.482 0.813 -0.297 0.452 0.841 -0.277 0.388 0.879 -0.278 0.318 0.906 -0.284 0.287 0.915 -0.273 0.303 0.913 -0.241 0.339 0.909 -0.206 0.37 0.906 -0.19 0.381 0.905 -0.22 0.375 0.9 -0.288 0.376 0.881 -0.352 0.398 0.847 -0.382 0.428 0.82 -0.388 0.444 0.808 0.151 -0.304 0.941 0.141 -0.421 0.896 0.145 -0.423 0.894 0.135 -0.405 0.904 0.126 -0.339 0.932 0.16 -0.226 0.961 0.228 -0.128 0.965 0.26 -0.096 0.961 0.216 -0.115 0.97 0.125 -0.144 0.982 0.031 -0.163 0.986 -0.016 -0.166 0.986 0.024 -0.18 0.983 0.118 -0.237 0.964 0.184 -0.324 0.928 0.194 -0.39 0.9 0.19 -0.412 0.891 0.192 -0.409 0.892 0.212 0.116 0.97 0.291 0.183 0.939 0.291 0.185 0.939 0.285 0.164 0.944 0.253 0.117 0.96 0.18 0.071 0.981 0.099 0.054 0.994 0.064 0.055 0.996 0.088 0.042 0.995 0.138 0.008 0.99 0.183 -0.032 0.983 0.201 -0.052 0.978 0.19 -0.018 0.982 0.182 0.07 0.981 0.2 0.158 0.967 0.231 0.206 0.951 0.247 0.218 0.944 0.246 0.218 0.944 -0.015 -0.153 0.988 -0.061 -0.223 0.973 -0.066 -0.189 0.98 -0.045 -0.131 0.99 -0.02 -0.098 0.995 -0.009 -0.094 0.996 0 -0.1 0.995 0.019 -0.137 0.99 0.027 -0.198 0.98 0.015 -0.23 0.973 -0.411 -0.265 0.872 -0.483 -0.265 0.835 -0.464 -0.244 0.852 -0.413 -0.229 0.881 -0.376 -0.232 0.897 -0.367 -0.238 0.899 -0.366 -0.249 0.897 -0.38 -0.283 0.88 -0.417 -0.321 0.85 -0.444 -0.328 0.834 -0.22 -0.113 0.969 -0.301 -0.107 0.948 -0.275 -0.087 0.958 -0.216 -0.076 0.974 -0.175 -0.083 0.981 -0.166 -0.09 0.982 -0.167 -0.101 0.981 -0.19 -0.135 0.973 -0.238 -0.171 0.956 -0.27 -0.177 0.946 -0.216 0.242 0.946 -0.23 0.319 0.919 -0.204 0.301 0.932 -0.179 0.249 0.952 -0.175 0.209 0.962 -0.18 0.198 0.964 -0.191 0.196 0.962 -0.229 0.207 0.951 -0.275 0.241 0.931 -0.288 0.27 0.919 0.206 0.226 0.952 0.28 0.254 0.926 0.266 0.225 0.937 0.219 0.191 0.957 0.18 0.18 0.967 0.169 0.182 0.969 0.165 0.193 0.967 0.17 0.233 0.958 0.196 0.285 0.938 0.223 0.303 0.927 0.196 -0.001 0.981 0.271 -0.033 0.962 0.239 -0.044 0.97 0.179 -0.035 0.983 0.143 -0.015 0.99 0.137 -0.006 0.991 0.142 0.005 0.99 0.175 0.03 0.984 0.233 0.048 0.971 0.266 0.042 0.963 0.165 0.232 0.959 0.236 0.27 0.934 0.225 0.239 0.944 0.182 0.199 0.963 0.145 0.183 0.972 0.133 0.184 0.974 0.128 0.194 0.973 0.128 0.235 0.964 0.148 0.29 0.945 0.173 0.312 0.934 0.413 0.043 0.91 0.483 0.016 0.876 0.455 0.003 0.89 0.4 0.009 0.916 0.366 0.027 0.93 0.36 0.036 0.932 0.363 0.046 0.93 0.392 0.073 0.917 0.443 0.094 0.892 0.473 0.09 0.877 0.166 0.085 0.982 0.248 0.091 0.964 0.225 0.066 0.972 0.167 0.048 0.985 0.125 0.049 0.991 0.116 0.054 0.992 0.115 0.066 0.991 0.134 0.103 0.986 0.177 0.146 0.973 0.209 0.156 0.965 0.127 0.34 0.932 0.185 0.391 0.902 0.183 0.36 0.915 0.151 0.312 0.938 0.12 0.289 0.95 0.108 0.287 0.952 0.101 0.296 0.95 0.091 0.334 0.938 0.096 0.39 0.916 0.114 0.416 0.902</float_array><technique_common><accessor source="#weeds_+02+00_foliage-nrm-a" count="1122" stride="3"><param name="X" type="float"/><param name="Y" type="float"/><param name="Z" type="float"/></accessor></technique_common></source>
        <vertices id="weeds_+02+00_foliage-vtx"><input semantic="POSITION" source="#weeds_+02+00_foliage-pos"/></vertices>
        <triangles count="752" material="MAT_WEED_GRASS-mat"><input semantic="VERTEX" source="#weeds_+02+00_foliage-vtx" offset="0"/><input semantic="NORMAL" source="#weeds_+02+00_foliage-nrm" offset="1"/><p>0 0 1 0 2 1 0 0 2 1 3 2 3 2 2 1 4 3 3 2 4 3 5 4 5 4 4 3 6 5 5 4 6 5 7 6 7 6 6 5 8 7 7 6 8 7 9 7 10 8 11 8 12 9 10 8 12 9 13 10 13 10 12 9 14 11 13 10 14 11 15 12 15 12 14 11 16 13 15 12 16 13 17 14 17 14 16 13 18 15 17 14 18 15 19 15 20 16 21 16 22 17 20 16 22 17 23 18 23 18 22 17 24 19 23 18 24 19 25 20 25 20 24 19 26 21 25 20 26 21 27 22 27 22 26 21 28 23 27 22 28 23 29 23 30 24 31 24 32 25 30 24 32 25 33 26 33 26 32 25 34 27 33 26 34 27 35 28 35 28 34 27 36 29 35 28 36 29 37 30 37 30 36 29 38 31 37 30 38 31 39 31 40 32 41 32 42 33 40 32 42 33 43 34 43 34 42 33 44 35 43 34 44 35 45 36 45 36 44 35 46 37 45 36 46 37 47 38 47 38 46 37 48 39 47 38 48 39 49 39 50 40 51 40 52 41 50 40 52 41 53 42 53 42 52 41 54 43 53 42 54 43 55 44 55 44 54 43 56 45 55 44 56 45 57 46 57 46 56 45 58 47 57 46 58 47 59 47 60 48 61 48 62 49 60 48 62 49 63 50 63 50 62 49 64 51 63 50 64 51 65 52 65 52 64 51 66 53 65 52 66 53 67 54 67 54 66 53 68 55 67 54 68 55 69 55 70 56 71 56 72 57 70 56 72 57 73 58 73 58 72 57 74 59 73 58 74 59 75 60 75 60 74 59 76 61 75 60 76 61 77 62 77 62 76 61 78 63 77 62 78 63 79 63 80 64 81 64 82 65 80 64 82 65 83 66 83 66 82 65 84 67 83 66 84 67 85 68 85 68 84 67 86 69 85 68 86 69 87 70 87 70 86 69 88 71 87 70 88 71 89 71 90 72 91 72 92 73 90 72 92 73 93 74 93 74 92 73 94 75 93 74 94 75 95 76 95 76 94 75 96 77 95 76 96 77 97 78 97 78 96 77 98 79 97 78 98 79 99 79 100 80 101 80 102 81 100 80 102 81 103 82 103 82 102 81 104 83 103 82 104 83 105 84 105 84 104 83 106 85 105 84 106 85 107 86 107 86 106 85 108 87 107 86 108 87 109 87 110 88 111 88 112 89 110 88 112 89 113 90 113 90 112 89 114 91 113 90 114 91 115 92 115 92 114 91 116 93 115 92 116 93 117 94 117 94 116 93 118 95 117 94 118 95 119 95 120 96 121 96 122 97 120 96 122 97 123 98 123 98 122 97 124 99 123 98 124 99 125 100 125 100 124 99 126 101 125 100 126 101 127 102 127 102 126 101 128 103 127 102 128 103 129 103 130 104 131 104 132 105 130 104 132 105 133 106 133 106 132 105 134 107 133 106 134 107 135 108 135 108 134 107 136 109 135 108 136 109 137 110 137 110 136 109 138 111 137 110 138 111 139 111 140 112 141 112 142 113 140 112 142 113 143 114 143 114 142 113 144 115 143 114 144 115 145 116 145 116 144 115 146 117 145 116 146 117 147 118 147 118 146 117 148 119 147 118 148 119 149 119 150 120 151 120 152 121 150 120 152 121 153 122 153 122 152 121 154 123 153 122 154 123 155 124 155 124 154 123 156 125 155 124 156 125 157 126 157 126 156 125 158 127 157 126 158 127 159 127 160 128 161 128 162 129 160 128 162 129 163 130 163 130 162 129 164 131 163 130 164 131 165 132 165 132 164 131 166 133 165 132 166 133 167 134 167 134 166 133 168 135 167 134 168 135 169 135 170 136 171 136 172 137 170 136 172 137 173 138 173 138 172 137 174 139 173 138 174 139 175 140 175 140 174 139 176 141 175 140 176 141 177 142 177 142 176 141 178 143 177 142 178 143 179 143 180 144 181 144 182 145 180 144 182 145 183 146 183 146 182 145 184 147 183 146 184 147 185 148 185 148 184 147 186 149 185 148 186 149 187 150 187 150 186 149 188 151 187 150 188 151 189 151 190 152 191 152 192 153 190 152 192 153 193 154 193 154 192 153 194 155 193 154 194 155 195 156 195 156 194 155 196 157 195 156 196 157 197 158 197 158 196 157 198 159 197 158 198 159 199 159 200 160 201 160 202 161 200 160 202 161 203 162 203 162 202 161 204 163 203 162 204 163 205 164 205 164 204 163 206 165 205 164 206 165 207 166 207 166 206 165 208 167 207 166 208 167 209 167 210 168 211 168 212 169 210 168 212 169 213 170 213 170 212 169 214 171 213 170 214 171 215 172 215 172 214 171 216 173 215 172 216 173 217 174 217 174 216 173 218 175 217 174 218 175 219 175 220 176 221 176 222 177 220 176 222 177 223 178 223 178 222 177 224 179 223 178 224 179 225 180 225 180 224 179 226 181 225 180 226 181 227 182 227 182 226 181 228 183 227 182 228 183 229 183 230 184 231 184 232 185 230 184 232 185 233 186 233 186 232 185 234 187 233 186 234 187 235 188 235 188 234 187 236 189 235 188 236 189 237 190 237 190 236 189 238 191 237 190 238 191 239 191 240 192 241 192 242 193 240 192 242 193 243 194 243 194 242 193 244 195 243 194 244 195 245 196 245 196 244 195 246 197 245 196 246 197 247 198 247 198 246 197 248 199 247 198 248 199 249 199 250 200 251 200 252 201 250 200 252 201 253 201 253 201 252 201 254 202 253 201 254 202 255 202 255 202 254 202 256 203 255 202 256 203 257 203 257 203 256 203 258 204 257 203 258 204 259 204 260 205 261 205 262 206 260 205 262 206 263 207 263 207 262 206 264 208 263 207 264 208 265 209 265 209 264 208 266 210 265 209 266 210 267 211 267 211 266 210 268 212 267 211 268 212 269 212 270 213 271 213 272 214 270 213 272 214 273 215 273 215 272 214 274 216 273 215 274 216 275 217 275 217 274 216 276 218 275 217 276 218 277 219 277 219 276 218 278 220 277 219 278 220 279 220 280 221 281 221 282 222 280 221 282 222 283 223 283 223 282 222 284 224 283 223 284 224 285 225 285 225 284 224 286 226 285 225 286 226 287 227 287 227 286 226 288 228 287 227 288 228 289 228 290 229 291 229 292 230 290 229 292 230 293 231 293 231 292 230 294 232 293 231 294 232 295 233 295 233 294 232 296 234 295 233 296 234 297 235 297 235 296 234 298 236 297 235 298 236 299 236 300 237 301 237 302 238 300 237 302 238 303 239 303 239 302 238 304 240 303 239 304 240 305 241 305 241 304 240 306 242 305 241 306 242 307 243 307 243 306 242 308 244 307 243 308 244 309 244 310 245 311 245 312 246 310 245 312 246 313 247 313 247 312 246 314 248 313 247 314 248 315 249 315 249 314 248 316 250 315 249 316 250 317 251 317 251 316 250 318 252 317 251 318 252 319 252 320 253 321 253 322 254 320 253 322 254 323 255 323 255 322 254 324 256 323 255 324 256 325 257 325 257 324 256 326 258 325 257 326 258 327 259 327 259 326 258 328 260 327 259 328 260 329 260 330 261 331 261 332 262 330 261 332 262 333 263 333 263 332 262 334 264 333 263 334 264 335 265 335 265 334 264 336 266 335 265 336 266 337 267 337 267 336 266 338 268 337 267 338 268 339 268 340 269 341 269 342 270 340 269 342 270 343 271 343 271 342 270 344 272 343 271 344 272 345 273 345 273 344 272 346 274 345 273 346 274 347 275 347 275 346 274 348 276 347 275 348 276 349 276 350 277 351 277 352 278 350 277 352 278 353 279 353 279 352 278 354 280 353 279 354 280 355 281 355 281 354 280 356 282 355 281 356 282 357 283 357 283 356 282 358 284 357 283 358 284 359 284 360 285 361 285 362 286 360 285 362 286 363 287 363 287 362 286 364 288 363 287 364 288 365 289 365 289 364 288 366 290 365 289 366 290 367 291 367 291 366 290 368 292 367 291 368 292 369 292 370 293 371 293 372 294 370 293 372 294 373 295 373 295 372 294 374 296 373 295 374 296 375 297 375 297 374 296 376 298 375 297 376 298 377 299 377 299 376 298 378 300 377 299 378 300 379 300 380 301 381 301 382 302 380 301 382 302 383 303 383 303 382 302 384 304 383 303 384 304 385 305 385 305 384 304 386 306 385 305 386 306 387 307 387 307 386 306 388 308 387 307 388 308 389 308 390 309 391 309 392 310 390 309 392 310 393 311 393 311 392 310 394 312 393 311 394 312 395 313 395 313 394 312 396 314 395 313 396 314 397 315 397 315 396 314 398 316 397 315 398 316 399 316 400 317 401 317 402 318 400 317 402 318 403 319 403 319 402 318 404 320 403 319 404 320 405 321 405 321 404 320 406 322 405 321 406 322 407 323 407 323 406 322 408 324 407 323 408 324 409 324 410 325 411 325 412 326 410 325 412 326 413 327 413 327 412 326 414 328 413 327 414 328 415 329 415 329 414 328 416 330 415 329 416 330 417 331 417 331 416 330 418 332 417 331 418 332 419 332 420 333 421 333 422 334 420 333 422 334 423 335 423 335 422 334 424 336 423 335 424 336 425 337 425 337 424 336 426 338 425 337 426 338 427 339 427 339 426 338 428 340 427 339 428 340 429 340 430 341 431 341 432 342 430 341 432 342 433 343 433 343 432 342 434 344 433 343 434 344 435 345 435 345 434 344 436 346 435 345 436 346 437 347 437 347 436 346 438 348 437 347 438 348 439 348 440 349 441 349 442 350 440 349 442 350 443 351 443 351 442 350 444 352 443 351 444 352 445 353 445 353 444 352 446 354 445 353 446 354 447 355 447 355 446 354 448 356 447 355 448 356 449 356 450 357 451 357 452 358 450 357 452 358 453 359 453 359 452 358 454 360 453 359 454 360 455 361 455 361 454 360 456 362 455 361 456 362 457 363 457 363 456 362 458 364 457 363 458 364 459 364 460 365 461 365 462 366 460 365 462 366 463 367 463 367 462 366 464 368 463 367 464 368 465 369 465 369 464 368 466 370 465 369 466 370 467 371 467 371 466 370 468 372 467 371 468 372 469 372 0 561 2 562 1 561 0 561 3 563 2 562 3 563 4 564 2 562 3 563 5 565 4 564 5 565 6 566 4 564 5 565 7 567 6 566 7 567 8 568 6 566 7 567 9 568 8 568 10 569 12 570 11 569 10 569 13 571 12 570 13 571 14 572 12 570 13 571 15 573 14 572 15 573 16 574 14 572 15 573 17 575 16 574 17 575 18 576 16 574 17 575 19 576 18 576 20 577 22 578 21 577 20 577 23 579 22 578 23 579 24 580 22 578 23 579 25 581 24 580 25 581 26 582 24 580 25 581 27 583 26 582 27 583 28 584 26 582 27 583 29 584 28 584 30 585 32 586 31 585 30 585 33 587 32 586 33 587 34 588 32 586 33 587 35 589 34 588 35 589 36 590 34 588 35 589 37 591 36 590 37 591 38 592 36 590 37 591 39 592 38 592 40 593 42 594 41 593 40 593 43 595 42 594 43 595 44 596 42 594 43 595 45 597 44 596 45 597 46 598 44 596 45 597 47 599 46 598 47 599 48 600 46 598 47 599 49 600 48 600 50 601 52 602 51 601 50 601 53 603 52 602 53 603 54 604 52 602 53 603 55 605 54 604 55 605 56 606 54 604 55 605 57 607 56 606 57 607 58 608 56 606 57 607 59 608 58 608 60 609 62 610 61 609 60 609 63 611 62 610 63 611 64 612 62 610 63 611 65 613 64 612 65 613 66 614 64 612 65 613 67 615 66 614 67 615 68 616 66 614 67 615 69 616 68 616 70 617 72 618 71 617 70 617 73 619 72 618 73 619 74 620 72 618 73 619 75 621 74 620 75 621 76 622 74 620 75 621 77 623 76 622 77 623 78 624 76 622 77 623 79 624 78 624 80 625 82 626 81 625 80 625 83 627 82 626 83 627 84 628 82 626 83 627 85 629 84 628 85 629 86 630 84 628 85 629 87 631 86 630 87 631 88 632 86 630 87 631 89 632 88 632 90 633 92 634 91 633 90 633 93 635 92 634 93 635 94 636 92 634 93 635 95 637 94 636 95 637 96 638 94 636 95 637 97 639 96 638 97 639 98 640 96 638 97 639 99 640 98 640 100 641 102 642 101 641 100 641 103 643 102 642 103 643 104 644 102 642 103 643 105 645 104 644 105 645 106 646 104 644 105 645 107 647 106 646 107 647 108 648 106 646 107 647 109 648 108 648 110 649 112 650 111 649 110 649 113 651 112 650 113 651 114 652 112 650 113 651 115 653 114 652 115 653 116 654 114 652 115 653 117 655 116 654 117 655 118 656 116 654 117 655 119 656 118 656 120 657 122 658 121 657 120 657 123 659 122 658 123 659 124 660 122 658 123 659 125 661 124 660 125 661 126 662 124 660 125 661 127 663 126 662 127 663 128 664 126 662 127 663 129 664 128 664 130 665 132 666 131 665 130 665 133 667 132 666 133 667 134 668 132 666 133 667 135 669 134 668 135 669 136 670 134 668 135 669 137 671 136 670 137 671 138 672 136 670 137 671 139 672 138 672 140 673 142 674 141 673 140 673 143 675 142 674 143 675 144 676 142 674 143 675 145 677 144 676 145 677 146 678 144 676 145 677 147 679 146 678 147 679 148 680 146 678 147 679 149 680 148 680 150 681 152 682 151 681 150 681 153 683 152 682 153 683 154 684 152 682 153 683 155 685 154 684 155 685 156 686 154 684 155 685 157 687 156 686 157 687 158 688 156 686 157 687 159 688 158 688 160 689 162 690 161 689 160 689 163 691 162 690 163 691 164 692 162 690 163 691 165 693 164 692 165 693 166 694 164 692 165 693 167 695 166 694 167 695 168 696 166 694 167 695 169 696 168 696 170 697 172 698 171 697 170 697 173 699 172 698 173 699 174 700 172 698 173 699 175 701 174 700 175 701 176 702 174 700 175 701 177 703 176 702 177 703 178 704 176 702 177 703 179 704 178 704 180 705 182 706 181 705 180 705 183 707 182 706 183 707 184 708 182 706 183 707 185 709 184 708 185 709 186 710 184 708 185 709 187 711 186 710 187 711 188 712 186 710 187 711 189 712 188 712 190 713 192 714 191 713 190 713 193 715 192 714 193 715 194 716 192 714 193 715 195 717 194 716 195 717 196 718 194 716 195 717 197 719 196 718 197 719 198 720 196 718 197 719 199 720 198 720 200 721 202 722 201 721 200 721 203 723 202 722 203 723 204 724 202 722 203 723 205 725 204 724 205 725 206 726 204 724 205 725 207 727 206 726 207 727 208 728 206 726 207 727 209 728 208 728 210 729 212 730 211 729 210 729 213 731 212 730 213 731 214 732 212 730 213 731 215 733 214 732 215 733 216 734 214 732 215 733 217 735 216 734 217 735 218 736 216 734 217 735 219 736 218 736 220 737 222 738 221 737 220 737 223 739 222 738 223 739 224 740 222 738 223 739 225 741 224 740 225 741 226 742 224 740 225 741 227 743 226 742 227 743 228 744 226 742 227 743 229 744 228 744 230 745 232 746 231 745 230 745 233 747 232 746 233 747 234 748 232 746 233 747 235 749 234 748 235 749 236 750 234 748 235 749 237 751 236 750 237 751 238 752 236 750 237 751 239 752 238 752 240 753 242 754 241 753 240 753 243 755 242 754 243 755 244 756 242 754 243 755 245 757 244 756 245 757 246 758 244 756 245 757 247 759 246 758 247 759 248 760 246 758 247 759 249 760 248 760 250 761 252 762 251 761 250 761 253 762 252 762 253 762 254 763 252 762 253 762 255 763 254 763 255 763 256 764 254 763 255 763 257 764 256 764 257 764 258 765 256 764 257 764 259 765 258 765 260 766 262 767 261 766 260 766 263 768 262 767 263 768 264 769 262 767 263 768 265 770 264 769 265 770 266 771 264 769 265 770 267 772 266 771 267 772 268 773 266 771 267 772 269 773 268 773 270 774 272 775 271 774 270 774 273 776 272 775 273 776 274 777 272 775 273 776 275 778 274 777 275 778 276 779 274 777 275 778 277 780 276 779 277 780 278 781 276 779 277 780 279 781 278 781 280 782 282 783 281 782 280 782 283 784 282 783 283 784 284 785 282 783 283 784 285 786 284 785 285 786 286 787 284 785 285 786 287 788 286 787 287 788 288 789 286 787 287 788 289 789 288 789 290 790 292 791 291 790 290 790 293 792 292 791 293 792 294 793 292 791 293 792 295 794 294 793 295 794 296 795 294 793 295 794 297 796 296 795 297 796 298 797 296 795 297 796 299 797 298 797 300 798 302 799 301 798 300 798 303 800 302 799 303 800 304 801 302 799 303 800 305 802 304 801 305 802 306 803 304 801 305 802 307 804 306 803 307 804 308 805 306 803 307 804 309 805 308 805 310 806 312 807 311 806 310 806 313 808 312 807 313 808 314 809 312 807 313 808 315 810 314 809 315 810 316 811 314 809 315 810 317 812 316 811 317 812 318 813 316 811 317 812 319 813 318 813 320 814 322 815 321 814 320 814 323 816 322 815 323 816 324 817 322 815 323 816 325 818 324 817 325 818 326 819 324 817 325 818 327 820 326 819 327 820 328 821 326 819 327 820 329 821 328 821 330 822 332 823 331 822 330 822 333 824 332 823 333 824 334 825 332 823 333 824 335 826 334 825 335 826 336 827 334 825 335 826 337 828 336 827 337 828 338 829 336 827 337 828 339 829 338 829 340 830 342 831 341 830 340 830 343 832 342 831 343 832 344 833 342 831 343 832 345 834 344 833 345 834 346 835 344 833 345 834 347 836 346 835 347 836 348 837 346 835 347 836 349 837 348 837 350 838 352 839 351 838 350 838 353 840 352 839 353 840 354 841 352 839 353 840 355 842 354 841 355 842 356 843 354 841 355 842 357 844 356 843 357 844 358 845 356 843 357 844 359 845 358 845 360 846 362 847 361 846 360 846 363 848 362 847 363 848 364 849 362 847 363 848 365 850 364 849 365 850 366 851 364 849 365 850 367 852 366 851 367 852 368 853 366 851 367 852 369 853 368 853 370 854 372 855 371 854 370 854 373 856 372 855 373 856 374 857 372 855 373 856 375 858 374 857 375 858 376 859 374 857 375 858 377 860 376 859 377 860 378 861 376 859 377 860 379 861 378 861 380 862 382 863 381 862 380 862 383 864 382 863 383 864 384 865 382 863 383 864 385 866 384 865 385 866 386 867 384 865 385 866 387 868 386 867 387 868 388 869 386 867 387 868 389 869 388 869 390 870 392 871 391 870 390 870 393 872 392 871 393 872 394 873 392 871 393 872 395 874 394 873 395 874 396 875 394 873 395 874 397 876 396 875 397 876 398 877 396 875 397 876 399 877 398 877 400 878 402 879 401 878 400 878 403 880 402 879 403 880 404 881 402 879 403 880 405 882 404 881 405 882 406 883 404 881 405 882 407 884 406 883 407 884 408 885 406 883 407 884 409 885 408 885 410 886 412 887 411 886 410 886 413 888 412 887 413 888 414 889 412 887 413 888 415 890 414 889 415 890 416 891 414 889 415 890 417 892 416 891 417 892 418 893 416 891 417 892 419 893 418 893 420 894 422 895 421 894 420 894 423 896 422 895 423 896 424 897 422 895 423 896 425 898 424 897 425 898 426 899 424 897 425 898 427 900 426 899 427 900 428 901 426 899 427 900 429 901 428 901 430 902 432 903 431 902 430 902 433 904 432 903 433 904 434 905 432 903 433 904 435 906 434 905 435 906 436 907 434 905 435 906 437 908 436 907 437 908 438 909 436 907 437 908 439 909 438 909 440 910 442 911 441 910 440 910 443 912 442 911 443 912 444 913 442 911 443 912 445 914 444 913 445 914 446 915 444 913 445 914 447 916 446 915 447 916 448 917 446 915 447 916 449 917 448 917 450 918 452 919 451 918 450 918 453 920 452 919 453 920 454 921 452 919 453 920 455 922 454 921 455 922 456 923 454 921 455 922 457 924 456 923 457 924 458 925 456 923 457 924 459 925 458 925 460 926 462 927 461 926 460 926 463 928 462 927 463 928 464 929 462 927 463 928 465 930 464 929 465 930 466 931 464 929 465 930 467 932 466 931 467 932 468 933 466 931 467 932 469 933 468 933</p></triangles>
        <triangles count="320" material="MAT_WEED_BROAD-mat"><input semantic="VERTEX" source="#weeds_+02+00_foliage-vtx" offset="0"/><input semantic="NORMAL" source="#weeds_+02+00_foliage-nrm" offset="1"/><p>470 373 471 374 472 375 470 373 472 375 473 376 470 373 473 376 474 377 470 373 474 377 475 378 470 373 475 378 476 379 470 373 476 379 477 380 470 373 477 380 478 381 470 373 478 381 479 382 470 373 479 382 480 383 470 373 480 383 481 384 470 373 481 384 482 385 470 373 482 385 483 386 470 373 483 386 484 387 470 373 484 387 485 388 470 373 485 388 486 389 470 373 486 389 487 390 488 391 489 392 490 393 488 391 490 393 491 394 488 391 491 394 492 395 488 391 492 395 493 396 488 391 493 396 494 397 488 391 494 397 495 398 488 391 495 398 496 399 488 391 496 399 497 400 488 391 497 400 498 401 488 391 498 401 499 402 488 391 499 402 500 403 488 391 500 403 501 404 488 391 501 404 502 405 488 391 502 405 503 406 488 391 503 406 504 407 488 391 504 407 505 408 506 409 507 410 508 410 506 409 508 410 509 411 506 409 509 411 510 412 506 409 510 412 511 413 506 409 511 413 512 414 506 409 512 414 513 415 506 409 513 415 514 416 506 409 514 416 515 417 506 409 515 417 516 418 506 409 516 418 517 419 506 409 517 419 518 420 506 409 518 420 519 421 506 409 519 421 520 422 506 409 520 422 521 423 506 409 521 423 522 424 506 409 522 424 523 424 524 425 525 426 526 427 524 425 526 427 527 428 524 425 527 428 528 429 524 425 528 429 529 430 524 425 529 430 530 431 524 425 530 431 531 432 524 425 531 432 532 433 524 425 532 433 533 434 524 425 533 434 534 435 524 425 534 435 535 436 524 425 535 436 536 437 524 425 536 437 537 438 524 425 537 438 538 439 524 425 538 439 539 440 524 425 539 440 540 441 524 425 540 441 541 442 542 443 543 444 544 445 542 443 544 445 545 446 542 443 545 446 546 447 542 443 546 447 547 448 542 443 547 448 548 449 542 443 548 449 549 450 542 443 549 450 550 451 542 443 550 451 551 452 542 443 551 452 552 453 542 443 552 453 553 454 542 443 553 454 554 455 542 443 554 455 555 456 542 443 555 456 556 457 542 443 556 457 557 458 542 443 557 458 558 459 542 443 558 459 559 460 560 461 561 462 562 463 560 461 562 463 563 464 560 461 563 464 564 465 560 461 564 465 565 466 560 461 565 466 566 467 560 461 566 467 567 468 560 461 567 468 568 469 560 461 568 469 569 470 570 471 571 472 572 473 570 471 572 473 573 474 570 471 573 474 574 475 570 471 574 475 575 476 570 471 575 476 576 477 570 471 576 477 577 478 570 471 577 478 578 479 570 471 578 479 579 480 580 481 581 482 582 483 580 481 582 483 583 484 580 481 583 484 584 485 580 481 584 485 585 486 580 481 585 486 586 487 580 481 586 487 587 488 580 481 587 488 588 489 580 481 588 489 589 490 590 491 591 492 592 493 590 491 592 493 593 494 590 491 593 494 594 495 590 491 594 495 595 496 590 491 595 496 596 497 590 491 596 497 597 498 590 491 597 498 598 499 590 491 598 499 599 500 600 501 601 502 602 503 600 501 602 503 603 504 600 501 603 504 604 505 600 501 604 505 605 506 600 501 605 506 606 507 600 501 606 507 607 508 600 501 607 508 608 509 600 501 608 509 609 510 610 511 611 512 612 513 610 511 612 513 613 514 610 511 613 514 614 515 610 511 614 515 615 516 610 511 615 516 616 517 610 511 616 517 617 518 610 511 617 518 618 519 610 511 618 519 619 520 620 521 621 522 622 523 620 521 622 523 623 524 620 521 623 524 624 525 620 521 624 525 625 526 620 521 625 526 626 527 620 521 626 527 627 528 620 521 627 528 628 529 620 521 628 529 629 530 630 531 631 532 632 533 630 531 632 533 633 534 630 531 633 534 634 535 630 531 634 535 635 536 630 531 635 536 636 537 630 531 636 537 637 538 630 531 637 538 638 539 630 531 638 539 639 540 640 541 641 542 642 543 640 541 642 543 643 544 640 541 643 544 644 545 640 541 644 545 645 546 640 541 645 546 646 547 640 541 646 547 647 548 640 541 647 548 648 549 640 541 648 549 649 550 650 551 651 552 652 553 650 551 652 553 653 554 650 551 653 554 654 555 650 551 654 555 655 556 650 551 655 556 656 557 650 551 656 557 657 558 650 551 657 558 658 559 650 551 658 559 659 560 470 934 472 936 471 935 470 934 473 937 472 936 470 934 474 938 473 937 470 934 475 939 474 938 470 934 476 940 475 939 470 934 477 941 476 940 470 934 478 942 477 941 470 934 479 943 478 942 470 934 480 944 479 943 470 934 481 945 480 944 470 934 482 946 481 945 470 934 483 947 482 946 470 934 484 948 483 947 470 934 485 949 484 948 470 934 486 950 485 949 470 934 487 951 486 950 488 952 490 954 489 953 488 952 491 955 490 954 488 952 492 956 491 955 488 952 493 957 492 956 488 952 494 958 493 957 488 952 495 959 494 958 488 952 496 960 495 959 488 952 497 961 496 960 488 952 498 962 497 961 488 952 499 963 498 962 488 952 500 964 499 963 488 952 501 965 500 964 488 952 502 966 501 965 488 952 503 967 502 966 488 952 504 968 503 967 488 952 505 969 504 968 506 970 508 971 507 971 506 970 509 972 508 971 506 970 510 973 509 972 506 970 511 974 510 973 506 970 512 975 511 974 506 970 513 976 512 975 506 970 514 977 513 976 506 970 515 978 514 977 506 970 516 979 515 978 506 970 517 980 516 979 506 970 518 981 517 980 506 970 519 982 518 981 506 970 520 983 519 982 506 970 521 984 520 983 506 970 522 985 521 984 506 970 523 985 522 985 524 986 526 988 525 987 524 986 527 989 526 988 524 986 528 990 527 989 524 986 529 991 528 990 524 986 530 992 529 991 524 986 531 993 530 992 524 986 532 994 531 993 524 986 533 995 532 994 524 986 534 996 533 995 524 986 535 997 534 996 524 986 536 998 535 997 524 986 537 999 536 998 524 986 538 1000 537 999 524 986 539 1001 538 1000 524 986 540 1002 539 1001 524 986 541 1003 540 1002 542 1004 544 1006 543 1005 542 1004 545 1007 544 1006 542 1004 546 1008 545 1007 542 1004 547 1009 546 1008 542 1004 548 1010 547 1009 542 1004 549 1011 548 1010 542 1004 550 1012 549 1011 542 1004 551 1013 550 1012 542 1004 552 1014 551 1013 542 1004 553 1015 552 1014 542 1004 554 1016 553 1015 542 1004 555 1017 554 1016 542 1004 556 1018 555 1017 542 1004 557 1019 556 1018 542 1004 558 1020 557 1019 542 1004 559 1021 558 1020 560 1022 562 1024 561 1023 560 1022 563 1025 562 1024 560 1022 564 1026 563 1025 560 1022 565 1027 564 1026 560 1022 566 1028 565 1027 560 1022 567 1029 566 1028 560 1022 568 1030 567 1029 560 1022 569 1031 568 1030 570 1032 572 1034 571 1033 570 1032 573 1035 572 1034 570 1032 574 1036 573 1035 570 1032 575 1037 574 1036 570 1032 576 1038 575 1037 570 1032 577 1039 576 1038 570 1032 578 1040 577 1039 570 1032 579 1041 578 1040 580 1042 582 1044 581 1043 580 1042 583 1045 582 1044 580 1042 584 1046 583 1045 580 1042 585 1047 584 1046 580 1042 586 1048 585 1047 580 1042 587 1049 586 1048 580 1042 588 1050 587 1049 580 1042 589 1051 588 1050 590 1052 592 1054 591 1053 590 1052 593 1055 592 1054 590 1052 594 1056 593 1055 590 1052 595 1057 594 1056 590 1052 596 1058 595 1057 590 1052 597 1059 596 1058 590 1052 598 1060 597 1059 590 1052 599 1061 598 1060 600 1062 602 1064 601 1063 600 1062 603 1065 602 1064 600 1062 604 1066 603 1065 600 1062 605 1067 604 1066 600 1062 606 1068 605 1067 600 1062 607 1069 606 1068 600 1062 608 1070 607 1069 600 1062 609 1071 608 1070 610 1072 612 1074 611 1073 610 1072 613 1075 612 1074 610 1072 614 1076 613 1075 610 1072 615 1077 614 1076 610 1072 616 1078 615 1077 610 1072 617 1079 616 1078 610 1072 618 1080 617 1079 610 1072 619 1081 618 1080 620 1082 622 1084 621 1083 620 1082 623 1085 622 1084 620 1082 624 1086 623 1085 620 1082 625 1087 624 1086 620 1082 626 1088 625 1087 620 1082 627 1089 626 1088 620 1082 628 1090 627 1089 620 1082 629 1091 628 1090 630 1092 632 1094 631 1093 630 1092 633 1095 632 1094 630 1092 634 1096 633 1095 630 1092 635 1097 634 1096 630 1092 636 1098 635 1097 630 1092 637 1099 636 1098 630 1092 638 1100 637 1099 630 1092 639 1101 638 1100 640 1102 642 1104 641 1103 640 1102 643 1105 642 1104 640 1102 644 1106 643 1105 640 1102 645 1107 644 1106 640 1102 646 1108 645 1107 640 1102 647 1109 646 1108 640 1102 648 1110 647 1109 640 1102 649 1111 648 1110 650 1112 652 1114 651 1113 650 1112 653 1115 652 1114 650 1112 654 1116 653 1115 650 1112 655 1117 654 1116 650 1112 656 1118 655 1117 650 1112 657 1119 656 1118 650 1112 658 1120 657 1119 650 1112 659 1121 658 1120</p></triangles>
      </mesh>
    </geometry>
  </library_geometries>
  <library_visual_scenes><visual_scene id="scene" name="scene">
    <node id="weeds_+02+00_foliage" name="weeds_+02+00_foliage" type="NODE"><instance_geometry url="#weeds_+02+00_foliage-mesh"><bind_material><technique_common>
      <instance_material symbol="MAT_WEED_GRASS-mat" target="#MAT_WEED_GRASS"/>
      <instance_material symbol="MAT_WEED_BROAD-mat" target="#MAT_WEED_BROAD"/>
    </technique_common></bind_material></instance_geometry></node>
  </visual_scene></library_visual_scenes>
  <scene><instance_visual_scene url="#scene"/></scene>
<!-- vigil:double-sided -->
</COLLADA>
