<?xml version="1.0" encoding="utf-8"?>
<COLLADA xmlns="http://www.collada.org/2005/11/COLLADASchema" version="1.4.1">
  <asset>
    <contributor><authoring_tool>VIGIL SIH26126 farm generator</authoring_tool></contributor>
    <unit name="meter" meter="1"/>
    <up_axis>Z_UP</up_axis>
  </asset>
  <library_effects>
    <effect id="MAT_WEED_STEM-fx"><profile_COMMON><technique sid="c"><lambert><diffuse><color>0.0860 0.1040 0.0360 1</color></diffuse></lambert></technique></profile_COMMON></effect>
  </library_effects>
  <library_materials>
    <material id="MAT_WEED_STEM" name="MAT_WEED_STEM"><instance_effect url="#MAT_WEED_STEM-fx"/></material>
  </library_materials>
  <library_geometries>
    <geometry id="weeds_+00+02_solid-mesh" name="weeds_+00+02_solid">
      <mesh>
        <source id="weeds_+00+02_solid-pos"><float_array id="weeds_+00+02_solid-pos-a" count="156">-4.0616 0.032393 0.01349 -4.06 0.029472 0.012933 -4.0577 0.026897 0.034048 -4.0592 0.029457 0.034612 -4.0571 0.031195 0.012865 -4.0552 0.02841 0.034014 -4.0587 0.034115 0.013423 -4.0566 0.030968 0.034577 -4.0553 0.023186 0.054993 -4.0565 0.025373 0.055604 -4.0531 0.024479 0.055005 -4.0543 0.026667 0.055616 -4.0527 0.018326 0.075822 -4.0537 0.020145 0.076439 -4.0508 0.019402 0.075866 -4.0518 0.021221 0.076483 -4.0498 0.012316 0.096536 -4.0506 0.013773 0.097118 -4.0483 0.013176 0.096596 -4.0491 0.014633 0.097178 -4.0468 0.0051441 0.11715 -4.0474 0.006258 0.11763 -4.0456 0.0058002 0.11721 -4.0462 0.0069122 0.11769 -4.0593 0.031794 0.013178 -4.0465 0.0060291 0.11742 4.0602 -0.038721 -0.051556 4.0661 -0.031006 -0.052753 4.0708 -0.025389 0.011704 4.0656 -0.032167 0.012883 4.0585 -0.024862 -0.052643 4.0641 -0.019979 0.011829 4.0526 -0.032578 -0.051446 4.0589 -0.026756 0.013008 4.0768 -0.018608 0.07592 4.0724 -0.024437 0.077155 4.0711 -0.013927 0.076074 4.0667 -0.019756 0.077309 4.0843 -0.010654 0.13998 4.0806 -0.015535 0.1412 4.0795 -0.0067024 0.14015 4.0758 -0.011583 0.14137 4.0932 -0.0015259 0.20389 4.0902 -0.0054646 0.20503 4.0892 0.0016956 0.20406 4.0862 -0.0022449 0.20519 4.1034 0.008791 0.26768 4.1011 0.0057697 0.26861 4.1004 0.011272 0.26781 4.0981 0.0082512 0.26875 4.0593 -0.031792 -0.052099 4.1008 0.008522 0.26821</float_array><technique_common><accessor source="#weeds_+00+02_solid-pos-a" count="52" stride="3"><param name="X" type="float"/><param name="Y" type="float"/><param name="Z" type="float"/></accessor></technique_common></source>
        <source id="weeds_+00+02_solid-nrm"><float_array id="weeds_+00+02_solid-nrm-a" count="156">-0.716 0.127 0.687 -0.154 -0.848 0.507 -0.274 -0.955 -0.112 -0.953 0.26 0.158 0.835 -0.282 0.473 0.961 -0.244 -0.129 0.274 0.689 0.671 0.267 0.954 0.14 -0.281 -0.946 -0.16 -0.949 0.256 0.181 0.958 -0.242 -0.152 0.274 0.943 0.188 -0.289 -0.935 -0.206 -0.946 0.252 0.205 0.955 -0.24 -0.175 0.282 0.93 0.234 -0.298 -0.921 -0.251 -0.942 0.248 0.227 0.951 -0.237 -0.198 0.291 0.915 0.278 -0.322 -0.551 -0.77 -0.855 0.384 -0.348 0.698 -0.012 -0.716 0.166 0.937 -0.308 0.101 -0.132 0.986 -0.138 0.327 -0.935 0.15 -0.755 0.638 0.862 0.145 0.485 0.989 0.112 -0.094 0.119 -0.988 0.098 -0.05 0.858 0.512 -0.128 0.989 -0.071 -0.765 -0.045 0.642 -0.986 -0.117 0.119 0.987 0.109 -0.117 0.121 -0.986 0.114 -0.129 0.988 -0.087 -0.983 -0.113 0.142 0.985 0.106 -0.14 0.122 -0.984 0.129 -0.13 0.986 -0.102 -0.98 -0.109 0.165 0.981 0.102 -0.162 0.124 -0.982 0.144 -0.131 0.984 -0.117 -0.977 -0.105 0.188 0.722 -0.005 -0.692 0.006 -0.903 -0.429 -0.207 0.723 -0.659 -0.91 -0.173 -0.376 0.086 0.089 0.992 -0.179 -0.163 -0.97</float_array><technique_common><accessor source="#weeds_+00+02_solid-nrm-a" count="52" stride="3"><param name="X" type="float"/><param name="Y" type="float"/><param name="Z" type="float"/></accessor></technique_common></source>
        <vertices id="weeds_+00+02_solid-vtx"><input semantic="POSITION" source="#weeds_+00+02_solid-pos"/></vertices>
        <triangles count="96" material="MAT_WEED_STEM-mat"><input semantic="VERTEX" source="#weeds_+00+02_solid-vtx" offset="0"/><input semantic="NORMAL" source="#weeds_+00+02_solid-nrm" offset="1"/><p>0 0 1 1 2 2 0 0 2 2 3 3 1 1 4 4 5 5 1 1 5 5 2 2 4 4 6 6 7 7 4 4 7 7 5 5 6 6 0 0 3 3 6 6 3 3 7 7 3 3 2 2 8 8 3 3 8 8 9 9 2 2 5 5 10 10 2 2 10 10 8 8 5 5 7 7 11 11 5 5 11 11 10 10 7 7 3 3 9 9 7 7 9 9 11 11 9 9 8 8 12 12 9 9 12 12 13 13 8 8 10 10 14 14 8 8 14 14 12 12 10 10 11 11 15 15 10 10 15 15 14 14 11 11 9 9 13 13 11 11 13 13 15 15 13 13 12 12 16 16 13 13 16 16 17 17 12 12 14 14 18 18 12 12 18 18 16 16 14 14 15 15 19 19 14 14 19 19 18 18 15 15 13 13 17 17 15 15 17 17 19 19 17 17 16 16 20 20 17 17 20 20 21 21 16 16 18 18 22 22 16 16 22 22 20 20 18 18 19 19 23 23 18 18 23 23 22 22 19 19 17 17 21 21 19 19 21 21 23 23 0 0 1 1 24 24 1 1 4 4 24 24 4 4 6 6 24 24 6 6 0 0 24 24 20 20 21 21 25 25 22 22 20 20 25 25 23 23 22 22 25 25 21 21 23 23 25 25 26 26 27 27 28 28 26 26 28 28 29 29 27 27 30 30 31 31 27 27 31 31 28 28 30 30 32 32 33 33 30 30 33 33 31 31 32 32 26 26 29 29 32 32 29 29 33 33 29 29 28 28 34 34 29 29 34 34 35 35 28 28 31 31 36 36 28 28 36 36 34 34 31 31 33 33 37 37 31 31 37 37 36 36 33 33 29 29 35 35 33 33 35 35 37 37 35 35 34 34 38 38 35 35 38 38 39 39 34 34 36 36 40 40 34 34 40 40 38 38 36 36 37 37 41 41 36 36 41 41 40 40 37 37 35 35 39 39 37 37 39 39 41 41 39 39 38 38 42 42 39 39 42 42 43 43 38 38 40 40 44 44 38 38 44 44 42 42 40 40 41 41 45 45 40 40 45 45 44 44 41 41 39 39 43 43 41 41 43 43 45 45 43 43 42 42 46 46 43 43 46 46 47 47 42 42 44 44 48 48 42 42 48 48 46 46 44 44 45 45 49 49 44 44 49 49 48 48 45 45 43 43 47 47 45 45 47 47 49 49 26 26 27 27 50 50 27 27 30 30 50 50 30 30 32 32 50 50 32 32 26 26 50 50 46 46 47 47 51 51 48 48 46 46 51 51 49 49 48 48 51 51 47 47 49 49 51 51</p></triangles>
      </mesh>
    </geometry>
  </library_geometries>
  <library_visual_scenes><visual_scene id="scene" name="scene">
    <node id="weeds_+00+02_solid" name="weeds_+00+02_solid" type="NODE"><instance_geometry url="#weeds_+00+02_solid-mesh"><bind_material><technique_common>
      <instance_material symbol="MAT_WEED_STEM-mat" target="#MAT_WEED_STEM"/>
    </technique_common></bind_material></instance_geometry></node>
  </visual_scene></library_visual_scenes>
  <scene><instance_visual_scene url="#scene"/></scene>
</COLLADA>
