<?xml version="1.0" encoding="utf-8"?>
<COLLADA xmlns="http://www.collada.org/2005/11/COLLADASchema" version="1.4.1">
  <asset>
    <contributor><authoring_tool>VIGIL SIH26126 farm generator</authoring_tool></contributor>
    <unit name="meter" meter="1"/>
    <up_axis>Z_UP</up_axis>
  </asset>
  <library_effects>
    <effect id="MAT_WEED_GRASS-fx"><profile_COMMON><technique sid="c"><lambert><diffuse><color>0.0980 0.1280 0.0300 1</color></diffuse></lambert></technique></profile_COMMON></effect>
    <effect id="MAT_WEED_BROAD-fx"><profile_COMMON><technique sid="c"><lambert><diffuse><color>0.0720 0.1520 0.0340 1</color></diffuse></lambert></technique></profile_COMMON></effect>
  </library_effects>
  <library_materials>
    <material id="MAT_WEED_GRASS" name="MAT_WEED_GRASS"><instance_effect url="#MAT_WEED_GRASS-fx"/></material>
    <material id="MAT_WEED_BROAD" name="MAT_WEED_BROAD"><instance_effect url="#MAT_WEED_BROAD-fx"/></material>
  </library_materials>
  <library_geometries>
    <geometry id="weeds_-04-01_foliage-mesh" name="weeds_-04-01_foliage">
      <mesh>
        <source id="weeds_-04-01_foliage-pos"><float_array id="weeds_-04-01_foliage-pos-a" count="2004">3.5512 0.2575 -0.10523 3.5453 0.26097 -0.10529 3.5255 0.2292 -0.020694 3.5305 0.22625 -0.020646 3.5054 0.19571 0.021648 3.509 0.1936 0.021683 3.4847 0.15986 0.0022257 3.4867 0.15875 0.0022435 3.4636 0.12225 -0.063059 3.4636 0.12225 -0.063059 3.5505 0.26179 -0.10538 3.546 0.25668 -0.10513 3.5674 0.24182 -0.045513 3.5715 0.24598 -0.045716 3.5887 0.22608 -0.014535 3.5918 0.22893 -0.014677 3.6097 0.20884 -0.025806 3.6115 0.21026 -0.02588 3.6305 0.19039 -0.069474 3.6305 0.19039 -0.069474 3.5464 0.257 -0.10515 3.5501 0.26147 -0.10536 3.5237 0.2856 -0.035672 3.5202 0.28211 -0.0355 3.4967 0.30826 -0.0024622 3.4939 0.30599 -0.0023445 3.4687 0.32896 -0.022387 3.4671 0.3279 -0.022328 3.4401 0.3483 -0.081222 3.4401 0.3483 -0.081222 3.5454 0.2583 -0.10519 3.5511 0.26017 -0.10532 3.5427 0.2892 -0.044765 3.5379 0.28744 -0.044642 3.5337 0.31698 -0.014148 3.5303 0.3156 -0.014056 3.5241 0.34304 -0.027648 3.5222 0.34224 -0.027597 3.5139 0.36774 -0.074794 3.5139 0.36774 -0.074794 3.5462 0.25993 -0.10526 3.5503 0.25854 -0.10525 3.5568 0.2778 -0.05157 3.5532 0.27893 -0.05157 3.5628 0.29635 -0.018472 3.5602 0.29712 -0.018469 3.5683 0.31373 -0.01729 3.567 0.31412 -0.017288 3.5734 0.33006 -0.044646 3.5734 0.33006 -0.044646 3.5509 0.26067 -0.10534 3.5455 0.2578 -0.10517 3.5619 0.23266 -0.027472 3.5664 0.2353 -0.027624 3.578 0.20643 0.015683 3.5812 0.20846 0.015569 3.5936 0.17843 0.0071736 3.5953 0.17958 0.0071111 3.6088 0.14903 -0.042813 3.6088 0.14903 -0.042813 3.551 0.2579 -0.10524 3.5455 0.26057 -0.10527 3.5333 0.2364 -0.028857 3.5379 0.23385 -0.028817 3.5209 0.21082 0.014895 3.5241 0.20878 0.014933 3.5081 0.18326 0.0094519 3.5097 0.18207 0.0094763 3.4948 0.15403 -0.036358 3.4948 0.15403 -0.036358 3.546 0.26277 -0.10536 3.5505 0.2557 -0.10515 3.5756 0.27388 -0.046113 3.5712 0.27955 -0.04627 3.6 0.29119 -0.017052 3.5964 0.29499 -0.01715 3.6235 0.30692 -0.031941 3.6214 0.30876 -0.031985 3.6463 0.32137 -0.079805 3.6463 0.32137 -0.079805 3.5519 0.2592 -0.1053 3.5446 0.25927 -0.10521 3.5453 0.23205 -0.035517 3.5515 0.23257 -0.03561 3.546 0.20381 0.0025167 3.5504 0.20461 0.0024345 3.5462 0.17404 -0.0065693 3.5485 0.17469 -0.0066208 3.5461 0.14315 -0.052859 3.5461 0.14315 -0.052859 3.5473 0.25679 -0.10515 3.5492 0.26167 -0.10536 3.5297 0.27106 -0.043279 3.5285 0.26674 -0.043105 3.5099 0.27929 -0.0051092 3.5094 0.27609 -0.0049848 3.4898 0.28597 -0.0038756 3.4897 0.28424 -0.0038108 3.4695 0.29132 -0.035309 3.4695 0.29132 -0.035309 -0.80765 -0.04038 -0.04001 -0.81116 -0.039692 -0.041864 -0.81141 -0.037943 -0.042003 -0.81023 -0.035804 -0.041372 -0.8079 -0.033736 -0.040262 -0.80388 -0.031872 -0.038678 -0.79836 -0.030974 -0.037049 -0.7924 -0.031661 -0.035848 -0.78801 -0.033719 -0.035227 -0.78577 -0.036908 -0.034892 -0.78691 -0.040605 -0.034837 -0.79045 -0.04387 -0.035156 -0.7959 -0.046343 -0.036179 -0.80142 -0.047234 -0.037808 -0.80581 -0.046778 -0.039523 -0.80866 -0.0456 -0.040817 -0.81044 -0.043975 -0.041661 -0.81075 -0.042229 -0.04172 -0.80715 -0.039346 -0.022404 -0.80408 -0.043654 -0.023908 -0.80563 -0.046265 -0.02391 -0.80911 -0.048022 -0.023241 -0.81376 -0.048598 -0.02227 -0.81997 -0.047365 -0.021188 -0.82672 -0.043541 -0.020604 -0.83225 -0.037287 -0.020897 -0.8347 -0.030631 -0.021609 -0.83374 -0.024336 -0.022113 -0.82877 -0.020279 -0.021971 -0.82174 -0.018933 -0.02154 -0.81349 -0.020437 -0.021414 -0.80674 -0.024272 -0.021997 -0.80252 -0.028993 -0.022957 -0.80067 -0.033295 -0.023757 -0.80043 -0.037197 -0.024227 -0.8019 -0.03984 -0.024041 -0.80632 -0.038271 -0.0047915 -0.80441 -0.03288 -0.0094258 -0.80048 -0.032217 -0.0094357 -0.79584 -0.033651 -0.0074193 -0.79145 -0.036878 -0.0040604 -0.78762 -0.042787 0.00091037 -0.78594 -0.051288 0.0066078 -0.78771 -0.060868 0.011614 -0.79242 -0.068255 0.014603 -0.79959 -0.072395 0.015697 -0.80782 -0.071222 0.014303 -0.81501 -0.066128 0.011083 -0.8203 -0.05791 0.0059391 -0.82196 -0.049406 0.00024195 -0.82061 -0.042498 -0.0046278 -0.81774 -0.037872 -0.0078456 -0.81396 -0.034816 -0.0096982 -0.81008 -0.033973 -0.0095362 -0.80478 -0.037112 0.012838 -0.80955 -0.039749 0.010703 -0.81165 -0.03794 0.010478 -0.81249 -0.034272 0.011139 -0.81192 -0.029557 0.012228 -0.80918 -0.02343 0.013457 -0.80368 -0.016973 0.01403 -0.796 -0.011947 0.013505 -0.78872 -0.010064 0.012611 -0.78281 -0.011624 0.012295 -0.78035 -0.017092 0.013222 -0.78115 -0.024408 0.014589 -0.785 -0.032659 0.015394 -0.79051 -0.039108 0.014821 -0.79607 -0.042867 0.013386 -0.80059 -0.04427 0.012009 -0.80432 -0.044096 0.011013 -0.80647 -0.042338 0.010929 -0.80304 -0.03593 0.030472 -0.79652 -0.03673 0.027425 -0.79552 -0.040001 0.027541 -0.79697 -0.044207 0.029074 -0.80053 -0.048477 0.031355 -0.80722 -0.052718 0.034209 -0.81698 -0.055551 0.036579 -0.82809 -0.055635 0.037563 -0.83679 -0.05284 0.037388 -0.84189 -0.047364 0.03691 -0.84093 -0.040033 0.036602 -0.83542 -0.032928 0.036169 -0.82621 -0.026967 0.034823 -0.81645 -0.024147 0.032454 -0.80836 -0.024222 0.029865 -0.80286 -0.025987 0.027955 -0.79914 -0.028783 0.026852 -0.79805 -0.032012 0.027135 -0.80046 -0.034647 0.048126 -0.80349 -0.032272 0.046009 -0.80286 -0.030393 0.045883 -0.80067 -0.028809 0.046647 -0.7974 -0.027851 0.047968 -0.79259 -0.027901 0.049862 -0.78681 -0.029634 0.051852 -0.78137 -0.033165 0.053376 -0.77812 -0.037326 0.054188 -0.77752 -0.041599 0.054577 -0.78046 -0.044777 0.054506 -0.78552 -0.046377 0.05394 -0.79204 -0.046265 0.052562 -0.79782 -0.044524 0.050571 -0.80183 -0.041963 0.04857 -0.804 -0.03941 0.047099 -0.80491 -0.03692 0.046162 -0.80435 -0.035017 0.046126 -0.79773 -0.033346 0.065783 -0.79752 -0.036401 0.063988 -0.79894 -0.037004 0.063947 -0.801 -0.036515 0.064691 -0.80326 -0.035048 0.06591 -0.80577 -0.03212 0.067605 -0.80786 -0.027695 0.06932 -0.80876 -0.022508 0.07055 -0.80814 -0.018317 0.071122 -0.80602 -0.0157 0.071316 -0.80261 -0.015845 0.071156 -0.79895 -0.018126 0.070612 -0.79552 -0.022179 0.069398 -0.79344 -0.026607 0.067682 -0.7928 -0.030368 0.065976 -0.79313 -0.032999 0.06474 -0.79409 -0.034839 0.063978 -0.79549 -0.035491 0.064001 -0.7942 -0.031949 0.083458 -0.79208 -0.030248 0.082196 -0.79065 -0.03093 0.082231 -0.78959 -0.032625 0.082835 -0.7891 -0.034955 0.083778 -0.78949 -0.038161 0.085077 -0.79123 -0.041767 0.086408 -0.79429 -0.044872 0.087384 -0.79769 -0.046426 0.087822 -0.80103 -0.046212 0.087877 -0.80334 -0.043836 0.087521 -0.80432 -0.04028 0.08685 -0.80385 -0.035988 0.085736 -0.80211 -0.032384 0.084405 -0.79981 -0.030051 0.083208 -0.79764 -0.028941 0.082406 -0.79561 -0.028661 0.081968 -0.79416 -0.029294 0.082085 -5.3136 -0.41943 -0.014668 -5.3067 -0.41955 -0.017937 -5.3048 -0.42312 -0.017775 -5.3053 -0.42806 -0.016105 -5.3079 -0.43332 -0.013572 -5.3137 -0.43888 -0.010203 -5.3229 -0.44315 -0.0069506 -5.3341 -0.4444 -0.0048353 -5.3436 -0.44213 -0.0041292 -5.3501 -0.43648 -0.0042792 -5.3511 -0.42817 -0.005176 -5.3474 -0.41966 -0.0066914 -5.3397 -0.412 -0.009287 -5.3305 -0.40775 -0.012538 -5.3221 -0.40689 -0.015555 -5.316 -0.40821 -0.017595 -5.3114 -0.4109 -0.018692 -5.3095 -0.4144 -0.018323 -5.3154 -0.41565 0.046422 -5.3215 -0.40918 0.036338 -5.3195 -0.40269 0.035764 -5.3141 -0.39648 0.039373 -5.3063 -0.39187 0.045976 -5.295 -0.38999 0.056416 -5.2816 -0.39337 0.069315 -5.2692 -0.40297 0.081779 -5.262 -0.41558 0.090183 -5.2614 -0.42962 0.094238 -5.2691 -0.4414 0.091967 -5.2818 -0.44874 0.084941 -5.2975 -0.45099 0.073296 -5.3109 -0.44759 0.060395 -5.3198 -0.44077 0.049354 -5.3242 -0.43321 0.041911 -5.3258 -0.42531 0.037326 -5.3241 -0.41869 0.036995 -5.3181 -0.41228 0.10753 -5.3191 -0.42092 0.10086 -5.3247 -0.42301 0.10083 -5.3321 -0.42214 0.10372 -5.3398 -0.41852 0.10852 -5.3475 -0.41074 0.1156 -5.3528 -0.39855 0.1237 -5.3533 -0.38384 0.13076 -5.3487 -0.37159 0.13495 -5.3394 -0.36345 0.13647 -5.3268 -0.36285 0.13449 -5.3144 -0.36834 0.12994 -5.3038 -0.37903 0.12266 -5.2985 -0.39124 0.11457 -5.2982 -0.40196 0.10764 -5.3009 -0.4097 0.10306 -5.3055 -0.41535 0.10043 -5.311 -0.4177 0.10069 -5.3217 -0.40931 0.16867 -5.318 -0.40314 0.16497 -5.3141 -0.40388 0.16496 -5.3103 -0.4076 0.16658 -5.3074 -0.41349 0.16913 -5.3059 -0.42251 0.17247 -5.3073 -0.43384 0.17547 -5.3123 -0.44503 0.1771 -5.3193 -0.45226 0.17743 -5.3274 -0.45444 0.17732 -5.3347 -0.44958 0.17713 -5.3396 -0.44029 0.17657 -5.3417 -0.42787 0.1748 -5.3402 -0.41655 0.1718 -5.3365 -0.40843 0.16856 -5.3322 -0.4038 0.16615 -5.3276 -0.40154 0.16469 -5.3237 -0.40216 0.16486 -5.3263 -0.40676 0.22982 -5.332 -0.4076 0.22807 -5.3338 -0.40486 0.22777 -5.3338 -0.40067 0.22812 -5.3321 -0.39596 0.22884 -5.3278 -0.3907 0.22979 -5.3208 -0.38629 0.23051 -5.312 -0.38435 0.23068 -5.3043 -0.38551 0.23059 -5.2987 -0.38963 0.23075 -5.2972 -0.39627 0.23141 -5.2994 -0.40342 0.23213 -5.3049 -0.4103 0.23233 -5.3119 -0.41469 0.23161 -5.3186 -0.41633 0.23038 -5.3237 -0.41597 0.22928 -5.3276 -0.41428 0.22848 -5.3294 -0.41156 0.22837 0.53484 -0.048542 -0.0048704 0.53503 -0.058365 -0.0084156 0.5301 -0.060881 -0.0081107 0.52314 -0.060097 -0.0061174 0.51564 -0.056274 -0.0032116 0.50756 -0.047973 0.0005034 0.50117 -0.034958 0.0038515 0.49894 -0.019287 0.0056853 0.50174 -0.0061445 0.0059248 0.50938 0.0028512 0.0053289 0.52097 0.0040596 0.0042056 0.53305 -0.0011945 0.0026369 0.5441 -0.012183 1.4265e-05 0.55047 -0.025209 -0.003332 0.55207 -0.036949 -0.0064677 0.55051 -0.045581 -0.0085633 0.54695 -0.051943 -0.0096166 0.54211 -0.054606 -0.009049 0.53845 -0.042479 0.070012 0.54752 -0.034645 0.057255 0.55667 -0.037505 0.056718 0.56546 -0.044927 0.061549 0.57202 -0.055415 0.070205 0.57479 -0.070391 0.083788 0.57023 -0.088136 0.10051 0.55697 -0.10452 0.11659 0.5394 -0.11378 0.12733 0.51971 -0.11428 0.13227 0.50303 -0.10349 0.1289 0.49248 -0.086275 0.11938 0.48905 -0.065167 0.10402 0.49364 -0.047433 0.087296 0.50313 -0.035925 0.073183 0.51372 -0.030287 0.063786 0.52481 -0.02849 0.058096 0.53412 -0.030854 0.057834 0.54145 -0.035084 0.14486 0.52952 -0.033955 0.13655 0.52639 -0.026131 0.13613 0.52725 -0.01571 0.13917 0.5319 -0.0048995 0.14457 0.54228 0.0061054 0.15279 0.5589 0.013827 0.16242 0.57924 0.014808 0.17114 0.59641 0.0085659 0.17666 0.60809 -0.0043421 0.17919 0.60946 -0.021969 0.17762 0.60238 -0.039334 0.17284 0.58803 -0.054327 0.16456 0.57139 -0.062015 0.15493 0.55661 -0.062731 0.14638 0.54581 -0.059151 0.14053 0.53782 -0.052878 0.13697 0.53432 -0.045205 0.1369 0.54385 -0.026357 0.21966 0.55271 -0.03181 0.21541 0.55182 -0.03721 0.21565 0.54673 -0.042357 0.21788 0.53855 -0.04621 0.22118 0.52592 -0.047959 0.22533 0.50996 -0.045651 0.22885 0.4941 -0.038464 0.23046 0.48373 -0.028684 0.23035 0.48038 -0.017388 0.22965 0.4869 -0.0073872 0.22896 0.4997 -0.0007019 0.22799 0.51702 0.0018845 0.22574 0.53297 -0.00044703 0.22221 0.54453 -0.0058739 0.21854 0.55122 -0.012058 0.2159 0.55459 -0.018555 0.21443 0.55387 -0.023963 0.2149 0.54564 -0.016299 0.29442 0.5443 -0.0085115 0.29189 0.54807 -0.0061028 0.29141 0.55392 -0.0061483 0.29186 0.56054 -0.008558 0.29288 0.56802 -0.014462 0.29437 0.57442 -0.024221 0.29575 0.57746 -0.036411 0.29656 0.57612 -0.047019 0.29696 0.57058 -0.054768 0.29752 0.56135 -0.05672 0.29839 0.55125 -0.053612 0.29909 0.54144 -0.045874 0.29893 0.53505 -0.036104 0.29755 0.53255 -0.026932 0.29559 0.53289 -0.01995 0.29389 0.53512 -0.014601 0.29266 0.53885 -0.012086 0.29241 3.436 0.071394 -0.063477 3.4253 0.077964 -0.065645 3.4297 0.088809 -0.066076 3.4426 0.094818 -0.065552 3.4568 0.089929 -0.064876 3.4638 0.076328 -0.063854 3.4599 0.060785 -0.06273 3.4472 0.051057 -0.062331 3.4335 0.052227 -0.063383 3.427 0.06109 -0.064402 3.4672 0.058492 -0.050741 3.4671 0.065372 -0.05478 3.4734 0.067789 -0.053859 3.48 0.064795 -0.050159 3.4822 0.056837 -0.045985 3.4781 0.048538 -0.043549 3.4697 0.044141 -0.043964 3.4614 0.045731 -0.047125 3.4578 0.051852 -0.051323 3.4599 0.05802 -0.05361 3.3737 0.053086 -0.057052 3.3746 0.064619 -0.061254 3.3847 0.066658 -0.060975 3.3945 0.059669 -0.058064 3.3964 0.045995 -0.054529 3.3887 0.033637 -0.051963 3.375 0.028914 -0.051437 3.3623 0.03402 -0.053422 3.3578 0.045218 -0.057094 3.3622 0.054729 -0.059464 3.3598 0.02696 -0.039676 3.3685 0.028769 -0.043787 3.3719 0.021533 -0.042056 3.3685 0.012534 -0.037571 3.3587 0.0078571 -0.03334 3.348 0.010848 -0.03158 3.342 0.02016 -0.033032 3.3435 0.031009 -0.037109 3.351 0.036978 -0.041669 3.3588 0.035893 -0.043609 3.3593 0.12219 -0.061582 3.3629 0.11062 -0.065 3.3542 0.10426 -0.062062 3.3422 0.10671 -0.057041 3.3349 0.11886 -0.053718 3.3372 0.13399 -0.053728 3.3481 0.14448 -0.056866 3.3622 0.14518 -0.061767 3.3709 0.13642 -0.066013 3.3706 0.12546 -0.066823 3.3351 0.14598 -0.047478 3.3306 0.1361 -0.048766 3.3219 0.13766 -0.047306 3.3165 0.14694 -0.045373 3.3193 0.15938 -0.044835 3.3293 0.16754 -0.04566 3.3416 0.16723 -0.047236 3.3499 0.15873 -0.048978 3.3499 0.14751 -0.050319 3.3434 0.14065 -0.050156 3.3098 0.16862 -0.047333 3.3151 0.15699 -0.050943 3.3066 0.14917 -0.047905 3.2935 0.15014 -0.042676 3.2841 0.16187 -0.039202 3.2846 0.17801 -0.039179 3.295 0.19046 -0.042405 3.3099 0.19306 -0.047486 3.3203 0.18505 -0.051926 3.3214 0.17354 -0.052798 3.3668 0.1197 -0.061969 3.3629 0.11084 -0.064817 3.355 0.11155 -0.062501 3.3499 0.11928 -0.058408 3.3521 0.13049 -0.055562 3.3609 0.13844 -0.055396 3.3721 0.13904 -0.057845 3.3799 0.13213 -0.061837 3.3802 0.12229 -0.065367 3.3745 0.11579 -0.066139 3.348 0.14168 -0.048144 3.3481 0.13349 -0.049368 3.3414 0.13139 -0.047977 3.3344 0.1356 -0.046035 3.3322 0.14489 -0.045263 3.3365 0.15394 -0.045864 3.3453 0.15818 -0.047389 3.3542 0.15556 -0.049228 3.3579 0.14808 -0.050646 3.3557 0.14119 -0.050599 3.328 0.16253 -0.048277 3.3341 0.15468 -0.052097 3.329 0.14697 -0.049309 3.3189 0.14509 -0.044019 3.3096 0.15223 -0.039972 3.3071 0.16472 -0.039304 3.3127 0.17635 -0.042197 3.3237 0.18132 -0.047361 3.333 0.17726 -0.052102 3.3359 0.16865 -0.053385 -1.3531 0.16846 -0.042832 -1.3567 0.17054 -0.044996 -1.3565 0.17265 -0.0449 -1.3546 0.17468 -0.043803 -1.3514 0.17622 -0.042114 -1.3463 0.17697 -0.039823 -1.3399 0.17615 -0.037526 -1.3333 0.17342 -0.035909 -1.3289 0.16966 -0.035241 -1.3273 0.16528 -0.035207 -1.3297 0.16135 -0.035786 -1.3347 0.15868 -0.036875 -1.3417 0.15759 -0.038742 -1.3481 0.15842 -0.041038 -1.3529 0.16048 -0.043146 -1.3557 0.16285 -0.044578 -1.3572 0.16537 -0.045377 -1.357 0.16748 -0.045197 -1.3538 0.16722 -0.023373 -1.3514 0.16154 -0.025463 -1.354 0.15899 -0.025968 -1.3586 0.15791 -0.025742 -1.3642 0.15851 -0.025084 -1.3711 0.16164 -0.024137 -1.3778 0.16798 -0.023379 -1.3823 0.17688 -0.023126 -1.3831 0.18537 -0.02306 -1.38 0.1924 -0.022589 -1.3731 0.19557 -0.021478 -1.3647 0.19497 -0.02032 -1.3556 0.19077 -0.019846 -1.3489 0.18441 -0.020607 -1.3454 0.17784 -0.022087 -1.3445 0.17244 -0.02349 -1.3453 0.16793 -0.024581 -1.3478 0.1653 -0.02488 -1.3542 0.16592 -0.0038765 -1.35 0.17216 -0.0079977 -1.3453 0.17176 -0.0076393 -1.3405 0.16846 -0.0053333 -1.3368 0.163 -0.001848 -1.3345 0.1544 0.0029561 -1.3357 0.14337 0.0080132 -1.341 0.13221 0.011914 -1.3489 0.12471 0.01374 -1.3585 0.12194 0.013818 -1.3675 0.12592 0.011908 -1.374 0.13435 0.0086664 -1.3771 0.14607 0.0039246 -1.376 0.1571 -0.0011306 -1.3719 0.16529 -0.0053174 -1.367 0.17018 -0.0079393 -1.3615 0.17282 -0.0092439 -1.3568 0.17261 -0.0086726 -1.3538 0.16451 0.015699 -1.3598 0.16317 0.012636 -1.3617 0.16591 0.01252 -1.3616 0.1703 0.013744 -1.3597 0.17542 0.015692 -1.3548 0.1815 0.018156 -1.3466 0.18723 0.020141 -1.3363 0.1908 0.020857 -1.3272 0.19091 0.020662 -1.3209 0.1874 0.020483 -1.3197 0.18024 0.020835 -1.323 0.17188 0.021163 -1.3299 0.16341 0.020527 -1.3381 0.1577 0.018542 -1.3455 0.15521 0.016019 -1.351 0.15512 0.01399 -1.3551 0.15656 0.012671 -1.3571 0.15924 0.012699 -1.3531 0.16306 0.035296 -1.3455 0.16059 0.032286 -1.3453 0.15651 0.031984 -1.3484 0.1519 0.032923 -1.354 0.14774 0.034526 -1.3632 0.14448 0.036547 -1.3755 0.14382 0.038044 -1.3884 0.1469 0.038348 -1.3976 0.15274 0.037986 -1.4018 0.16063 0.037947 -1.3985 0.16883 0.03879 -1.39 0.17543 0.039774 -1.3775 0.17973 0.039838 -1.3652 0.18038 0.038341 -1.3557 0.17822 0.036049 -1.3497 0.17479 0.034066 -1.3461 0.17061 0.032688 -1.3458 0.16652 0.032582 -1.3514 0.16148 0.054989 -1.354 0.16539 0.052827 -1.3527 0.16739 0.053017 -1.3497 0.16846 0.054244 -1.3458 0.16842 0.056059 -1.3405 0.16668 0.058453 -1.3345 0.1627 0.060763 -1.3294 0.15681 0.062266 -1.327 0.15095 0.062744 -1.3276 0.14579 0.06256 -1.3319 0.14302 0.061799 -1.3382 0.14276 0.060589 -1.3455 0.14501 0.058653 -1.3515 0.14899 0.056344 -1.3551 0.1534 0.054269 -1.3568 0.15718 0.052899 -1.357 0.16044 0.052189 -1.3558 0.16247 0.052478 -1.3495 0.15987 0.074697 -1.35 0.15652 0.072283 -1.3518 0.15625 0.07205 -1.3541 0.15734 0.072797 -1.3564 0.15954 0.074199 -1.3586 0.16344 0.076328 -1.3598 0.16894 0.078736 -1.3594 0.17503 0.080809 -1.3575 0.1796 0.082114 -1.3543 0.18196 0.08287 -1.3504 0.18079 0.082906 -1.3469 0.17715 0.082213 -1.344 0.17161 0.080503 -1.3427 0.16611 0.078094 -1.3429 0.16181 0.075699 -1.344 0.15904 0.073923 -1.3456 0.1573 0.072743 -1.3474 0.15696 0.072574 -1.3467 0.15813 0.094496 -1.3436 0.15963 0.093518 -1.3422 0.15841 0.09355 -1.3415 0.15606 0.094025 -1.3417 0.15311 0.094737 -1.3432 0.14936 0.095644 -1.3464 0.14555 0.096434 -1.351 0.14276 0.09682 -1.3554 0.14193 0.096831 -1.3592 0.14316 0.096696 -1.3611 0.14664 0.096509 -1.3611 0.15111 0.096248 -1.3592 0.15606 0.095714 -1.356 0.15987 0.094925 -1.3526 0.16203 0.094126 -1.3496 0.16276 0.093566 -1.3472 0.16253 0.093268 -1.3457 0.16136 0.093399</float_array><technique_common><accessor source="#weeds_-04-01_foliage-pos-a" count="668" stride="3"><param name="X" type="float"/><param name="Y" type="float"/><param name="Z" type="float"/></accessor></technique_common></source>
        <source id="weeds_-04-01_foliage-nrm"><float_array id="weeds_-04-01_foliage-nrm-a" count="3840">0.462 0.789 0.405 0.419 0.723 0.548 0.42 0.724 0.548 0.092 0.171 0.981 0.097 0.179 0.979 -0.329 -0.564 0.758 -0.327 -0.561 0.761 -0.416 -0.723 0.551 -0.664 0.632 0.398 -0.599 0.605 0.524 -0.596 0.604 0.529 -0.186 0.221 0.957 -0.129 0.162 0.978 0.417 -0.46 0.784 0.439 -0.491 0.752 0.546 -0.646 0.533 0.667 -0.587 0.459 0.585 -0.549 0.597 0.578 -0.545 0.607 0.171 -0.102 0.98 0.075 0.014 0.997 -0.381 0.585 0.716 -0.406 0.628 0.664 -0.472 0.744 0.474 0.302 -0.843 0.445 0.29 -0.766 0.574 0.29 -0.768 0.571 0.074 -0.148 0.986 0.09 -0.191 0.978 -0.254 0.642 0.723 -0.246 0.625 0.741 -0.335 0.803 0.493 -0.293 -0.888 0.353 -0.276 -0.859 0.432 -0.276 -0.859 0.431 -0.154 -0.498 0.853 -0.158 -0.512 0.844 0.125 0.441 0.889 0.118 0.414 0.902 0.231 0.816 0.53 -0.444 0.822 0.358 -0.428 0.77 0.473 -0.429 0.771 0.47 -0.136 0.292 0.947 -0.164 0.335 0.928 0.357 -0.481 0.8 0.338 -0.453 0.825 0.489 -0.679 0.548 0.432 0.837 0.336 0.431 0.787 0.441 0.431 0.785 0.445 0.211 0.383 0.899 0.174 0.323 0.93 -0.303 -0.407 0.862 -0.338 -0.455 0.824 -0.491 -0.663 0.565 -0.736 -0.496 0.46 -0.648 -0.472 0.598 -0.654 -0.474 0.589 -0.095 -0.019 0.995 -0.197 -0.11 0.974 0.485 0.544 0.685 0.453 0.503 0.736 0.578 0.663 0.476 -0.027 0.932 0.36 -0.06 0.873 0.483 -0.058 0.878 0.476 0.003 0.26 0.966 -0.017 0.387 0.922 0.179 -0.617 0.767 0.157 -0.544 0.824 0.238 -0.808 0.539 0.902 -0.287 0.323 0.885 -0.23 0.405 0.886 -0.233 0.4 0.492 -0.072 0.867 0.583 -0.095 0.807 -0.512 0.057 0.857 -0.349 0.05 0.936 -0.833 0.064 0.55 0.37 0.007 -0.929 0.467 -0.003 -0.884 0.469 -0 -0.883 0.453 -0.01 -0.891 0.397 -0.02 -0.918 0.303 0.015 -0.953 0.223 0.085 -0.971 0.198 0.118 -0.973 0.213 0.073 -0.974 0.23 -0.018 -0.973 0.239 -0.11 -0.965 0.238 -0.158 -0.958 0.253 -0.118 -0.96 0.309 -0.024 -0.951 0.388 0.042 -0.921 0.444 0.053 -0.895 0.461 0.049 -0.886 0.459 0.051 -0.887 -0.161 0.058 -0.985 -0.256 0.151 -0.955 -0.258 0.151 -0.954 -0.232 0.145 -0.962 -0.173 0.109 -0.979 -0.107 0.02 -0.994 -0.074 -0.081 -0.994 -0.07 -0.125 -0.99 -0.058 -0.093 -0.994 -0.023 -0.022 -0.999 0.02 0.045 -0.999 0.041 0.071 -0.997 0.001 0.053 -0.999 -0.102 0.03 -0.994 -0.21 0.042 -0.977 -0.271 0.076 -0.959 -0.289 0.096 -0.953 -0.288 0.093 -0.953 0.13 -0.592 -0.795 0.111 -0.67 -0.734 0.103 -0.657 -0.747 0.096 -0.618 -0.78 0.118 -0.554 -0.824 0.161 -0.495 -0.854 0.185 -0.473 -0.861 0.164 -0.481 -0.861 0.112 -0.495 -0.862 0.059 -0.503 -0.863 0.037 -0.503 -0.863 0.067 -0.515 -0.855 0.128 -0.552 -0.824 0.169 -0.603 -0.779 0.177 -0.642 -0.746 0.173 -0.658 -0.733 0.174 0.122 -0.977 0.293 0.223 -0.93 0.291 0.23 -0.928 0.281 0.203 -0.938 0.222 0.132 -0.966 0.078 0.07 -0.995 -0.077 0.063 -0.995 -0.134 0.073 -0.988 -0.076 0.037 -0.996 0.032 -0.049 -0.998 0.132 -0.142 -0.981 0.175 -0.193 -0.965 0.158 -0.139 -0.978 0.14 0.017 -0.99 0.175 0.173 -0.969 0.233 0.245 -0.941 0.257 0.26 -0.931 0.249 0.26 -0.933 -0.306 -0.157 -0.939 -0.434 -0.164 -0.886 -0.436 -0.169 -0.884 -0.417 -0.155 -0.896 -0.346 -0.135 -0.928 -0.22 -0.159 -0.962 -0.107 -0.225 -0.968 -0.07 -0.258 -0.964 -0.095 -0.209 -0.973 -0.133 -0.103 -0.986 -0.16 0.007 -0.987 -0.167 0.062 -0.984 -0.18 0.013 -0.984 -0.237 -0.107 -0.966 -0.327 -0.197 -0.924 -0.397 -0.218 -0.891 -0.421 -0.216 -0.881 -0.417 -0.219 -0.882 0.367 -0.154 -0.917 0.446 -0.207 -0.871 0.449 -0.205 -0.87 0.431 -0.207 -0.878 0.378 -0.192 -0.906 0.313 -0.122 -0.942 0.273 -0.027 -0.962 0.264 0.012 -0.964 0.258 -0.031 -0.966 0.236 -0.115 -0.965 0.206 -0.197 -0.959 0.186 -0.236 -0.954 0.216 -0.208 -0.954 0.303 -0.152 -0.941 0.398 -0.13 -0.908 0.45 -0.145 -0.881 0.464 -0.156 -0.872 0.463 -0.153 -0.873 -0.169 0.39 -0.905 -0.184 0.488 -0.853 -0.188 0.489 -0.852 -0.175 0.477 -0.861 -0.151 0.423 -0.894 -0.164 0.314 -0.935 -0.217 0.208 -0.954 -0.245 0.171 -0.954 -0.199 0.203 -0.959 -0.106 0.252 -0.962 -0.009 0.291 -0.957 0.043 0.305 -0.951 -0.001 0.308 -0.951 -0.115 0.337 -0.934 -0.205 0.398 -0.894 -0.23 0.452 -0.862 -0.23 0.47 -0.852 -0.232 0.466 -0.854 -0.118 -0.366 -0.923 -0.183 -0.428 -0.885 -0.183 -0.429 -0.885 -0.181 -0.411 -0.893 -0.161 -0.369 -0.915 -0.101 -0.322 -0.941 -0.029 -0.295 -0.955 0.004 -0.291 -0.957 -0.019 -0.284 -0.959 -0.07 -0.264 -0.962 -0.118 -0.239 -0.964 -0.138 -0.225 -0.965 -0.121 -0.253 -0.96 -0.095 -0.325 -0.941 -0.094 -0.4 -0.912 -0.114 -0.442 -0.89 -0.128 -0.454 -0.882 -0.127 -0.454 -0.882 -0.313 -0.238 -0.92 -0.415 -0.255 -0.873 -0.416 -0.256 -0.873 -0.402 -0.242 -0.883 -0.352 -0.217 -0.911 -0.26 -0.215 -0.941 -0.173 -0.243 -0.954 -0.139 -0.262 -0.955 -0.158 -0.237 -0.959 -0.193 -0.176 -0.965 -0.22 -0.112 -0.969 -0.228 -0.081 -0.97 -0.233 -0.12 -0.965 -0.264 -0.209 -0.942 -0.32 -0.281 -0.905 -0.369 -0.306 -0.877 -0.39 -0.309 -0.868 -0.388 -0.309 -0.868 0.686 -0.237 -0.688 0.73 -0.278 -0.624 0.73 -0.279 -0.624 0.717 -0.283 -0.637 0.689 -0.276 -0.67 0.654 -0.24 -0.717 0.633 -0.186 -0.752 0.627 -0.158 -0.763 0.624 -0.177 -0.761 0.614 -0.222 -0.758 0.598 -0.265 -0.757 0.59 -0.283 -0.757 0.61 -0.261 -0.748 0.66 -0.222 -0.718 0.71 -0.203 -0.674 0.739 -0.208 -0.64 0.748 -0.216 -0.627 0.749 -0.216 -0.627 -0.228 0.528 -0.818 -0.224 0.612 -0.758 -0.224 0.612 -0.759 -0.212 0.6 -0.771 -0.198 0.563 -0.803 -0.206 0.496 -0.844 -0.236 0.43 -0.872 -0.255 0.402 -0.879 -0.238 0.413 -0.879 -0.193 0.437 -0.879 -0.145 0.454 -0.879 -0.126 0.459 -0.88 -0.157 0.464 -0.872 -0.222 0.489 -0.844 -0.272 0.531 -0.803 -0.287 0.568 -0.771 -0.286 0.586 -0.759 -0.044 -0.357 -0.933 -0.093 -0.469 -0.878 -0.09 -0.472 -0.877 -0.094 -0.451 -0.888 -0.081 -0.382 -0.921 -0.006 -0.284 -0.959 0.099 -0.211 -0.972 0.144 -0.191 -0.971 0.092 -0.194 -0.977 -0.013 -0.187 -0.982 -0.117 -0.168 -0.979 -0.166 -0.153 -0.974 -0.129 -0.183 -0.975 -0.054 -0.278 -0.959 -0.017 -0.391 -0.92 -0.029 -0.459 -0.888 -0.04 -0.479 -0.877 -0.036 -0.477 -0.878 0.175 0.041 -0.984 0.283 0.077 -0.956 0.283 0.079 -0.956 0.269 0.06 -0.961 0.218 0.027 -0.976 0.125 0.009 -0.992 0.034 0.024 -0.999 -0.001 0.039 -0.999 0.019 0.017 -1 0.057 -0.038 -0.998 0.089 -0.097 -0.991 0.1 -0.124 -0.987 0.102 -0.085 -0.991 0.126 0.007 -0.992 0.18 0.089 -0.98 0.23 0.124 -0.965 0.251 0.13 -0.959 0.25 0.131 -0.959 -0.207 0.23 -0.951 -0.224 0.327 -0.918 -0.225 0.328 -0.918 -0.211 0.314 -0.926 -0.189 0.266 -0.945 -0.186 0.181 -0.966 -0.211 0.101 -0.972 -0.228 0.071 -0.971 -0.205 0.088 -0.975 -0.151 0.12 -0.981 -0.094 0.145 -0.985 -0.066 0.154 -0.986 -0.101 0.158 -0.982 -0.18 0.185 -0.966 -0.246 0.237 -0.94 -0.27 0.284 -0.92 -0.273 0.303 -0.913 -0.273 0.301 -0.913 -0.223 -0.682 -0.697 -0.264 -0.727 -0.634 -0.264 -0.726 -0.634 -0.267 -0.714 -0.647 -0.26 -0.685 -0.681 -0.224 -0.65 -0.726 -0.173 -0.628 -0.759 -0.148 -0.622 -0.769 -0.165 -0.619 -0.768 -0.206 -0.61 -0.765 -0.245 -0.596 -0.765 -0.261 -0.589 -0.765 -0.242 -0.607 -0.757 -0.208 -0.655 -0.727 -0.192 -0.705 -0.683 -0.198 -0.734 -0.65 -0.206 -0.743 -0.636 -0.207 -0.743 -0.636 0.49 0.182 -0.853 0.573 0.186 -0.798 0.561 0.174 -0.81 0.523 0.157 -0.838 0.457 0.159 -0.875 0.395 0.183 -0.9 0.369 0.199 -0.908 0.379 0.183 -0.907 0.401 0.143 -0.905 0.416 0.1 -0.904 0.421 0.082 -0.903 0.426 0.112 -0.898 0.451 0.174 -0.876 0.493 0.224 -0.84 0.531 0.242 -0.812 0.548 0.243 -0.801 0.548 0.243 -0.8 -0.314 -0.016 -0.949 -0.418 0.029 -0.908 -0.421 0.026 -0.907 -0.4 0.03 -0.916 -0.337 0.018 -0.941 -0.248 -0.048 -0.968 -0.184 -0.141 -0.973 -0.167 -0.18 -0.969 -0.169 -0.134 -0.977 -0.161 -0.041 -0.986 -0.144 0.052 -0.988 -0.13 0.096 -0.987 -0.157 0.063 -0.986 -0.242 -0.006 -0.97 -0.345 -0.04 -0.938 -0.408 -0.03 -0.912 -0.427 -0.019 -0.904 -0.425 -0.023 -0.905 0.039 -0.203 -0.978 0.07 -0.298 -0.952 0.071 -0.299 -0.952 0.055 -0.286 -0.957 0.025 -0.241 -0.97 0.011 -0.159 -0.987 0.024 -0.078 -0.997 0.037 -0.047 -0.998 0.018 -0.065 -0.998 -0.03 -0.1 -0.995 -0.082 -0.129 -0.988 -0.107 -0.139 -0.985 -0.072 -0.14 -0.987 0.008 -0.16 -0.987 0.081 -0.206 -0.975 0.112 -0.25 -0.962 0.117 -0.269 -0.956 0.118 -0.268 -0.956 0.059 -0.067 -0.996 0.14 -0.096 -0.986 0.108 -0.108 -0.988 0.046 -0.101 -0.994 0.007 -0.083 -0.997 -0.001 -0.073 -0.997 0.003 -0.063 -0.998 0.034 -0.037 -0.999 0.092 -0.017 -0.996 0.127 -0.021 -0.992 0.282 -0.414 -0.865 0.305 -0.479 -0.823 0.278 -0.467 -0.839 0.248 -0.424 -0.871 0.24 -0.389 -0.889 0.243 -0.38 -0.893 0.253 -0.376 -0.891 0.291 -0.382 -0.877 0.34 -0.406 -0.848 0.355 -0.429 -0.83 0.077 -0.27 -0.96 0.095 -0.347 -0.933 0.068 -0.328 -0.942 0.04 -0.274 -0.961 0.035 -0.235 -0.971 0.039 -0.225 -0.974 0.05 -0.223 -0.973 0.09 -0.237 -0.967 0.139 -0.275 -0.951 0.154 -0.304 -0.94 -0.265 -0.337 -0.903 -0.334 -0.365 -0.869 -0.325 -0.337 -0.884 -0.282 -0.304 -0.91 -0.246 -0.292 -0.924 -0.235 -0.295 -0.926 -0.229 -0.305 -0.924 -0.229 -0.343 -0.911 -0.248 -0.394 -0.885 -0.271 -0.412 -0.87 -0.362 0.074 -0.929 -0.406 0.141 -0.903 -0.376 0.132 -0.917 -0.333 0.092 -0.939 -0.313 0.056 -0.948 -0.312 0.045 -0.949 -0.321 0.039 -0.946 -0.36 0.037 -0.932 -0.415 0.053 -0.908 -0.438 0.076 -0.896 -0.144 0.107 -0.984 -0.131 0.187 -0.974 -0.113 0.158 -0.981 -0.107 0.097 -0.989 -0.117 0.058 -0.991 -0.125 0.05 -0.991 -0.136 0.053 -0.989 -0.168 0.08 -0.983 -0.2 0.133 -0.971 -0.203 0.167 -0.965 -0.358 0.032 -0.933 -0.411 0.094 -0.907 -0.379 0.09 -0.921 -0.331 0.054 -0.942 -0.307 0.021 -0.952 -0.305 0.01 -0.952 -0.313 0.003 -0.95 -0.351 -0.004 -0.936 -0.408 0.006 -0.913 -0.434 0.026 -0.9 -0.238 0.313 -0.919 -0.227 0.388 -0.893 -0.209 0.363 -0.908 -0.203 0.307 -0.93 -0.211 0.269 -0.94 -0.219 0.261 -0.94 -0.229 0.263 -0.937 -0.261 0.286 -0.922 -0.293 0.332 -0.897 -0.296 0.363 -0.884 -0.219 0.061 -0.974 -0.245 0.14 -0.959 -0.216 0.122 -0.969 -0.183 0.068 -0.981 -0.174 0.028 -0.984 -0.177 0.017 -0.984 -0.188 0.015 -0.982 -0.228 0.025 -0.973 -0.28 0.06 -0.958 -0.297 0.089 -0.951 -0.449 -0.024 -0.893 -0.51 0.025 -0.86 -0.481 0.027 -0.876 -0.43 0.005 -0.903 -0.4 -0.022 -0.916 -0.396 -0.033 -0.918 -0.401 -0.042 -0.915 -0.434 -0.058 -0.899 -0.488 -0.062 -0.87 -0.516 -0.049 -0.855 0.418 0.019 -0.908 0.501 -0.018 -0.865 0.504 -0.015 -0.864 0.487 -0.02 -0.873 0.435 -0.012 -0.9 0.36 0.045 -0.932 0.305 0.128 -0.944 0.289 0.164 -0.943 0.292 0.12 -0.949 0.288 0.035 -0.957 0.275 -0.05 -0.96 0.263 -0.093 -0.96 0.285 -0.061 -0.957 0.356 0.009 -0.934 0.441 0.046 -0.896 0.494 0.039 -0.869 0.508 0.031 -0.861 0.507 0.034 -0.861 -0.046 0.197 -0.979 -0.113 0.301 -0.947 -0.116 0.301 -0.947 -0.093 0.29 -0.953 -0.046 0.245 -0.969 -0.005 0.151 -0.988 0.002 0.054 -0.999 -0.004 0.013 -1 0.014 0.039 -0.999 0.061 0.095 -0.994 0.114 0.144 -0.983 0.139 0.162 -0.977 0.1 0.155 -0.983 0.002 0.158 -0.987 -0.095 0.194 -0.976 -0.144 0.237 -0.961 -0.156 0.259 -0.953 -0.156 0.256 -0.954 0.055 -0.481 -0.875 0.015 -0.558 -0.83 0.011 -0.542 -0.84 0.017 -0.499 -0.867 0.055 -0.438 -0.897 0.11 -0.391 -0.914 0.138 -0.375 -0.917 0.117 -0.378 -0.919 0.066 -0.378 -0.923 0.017 -0.372 -0.928 -0.004 -0.367 -0.93 0.02 -0.386 -0.922 0.065 -0.439 -0.896 0.088 -0.503 -0.86 0.083 -0.546 -0.834 0.075 -0.562 -0.824 0.269 0.174 -0.947 0.397 0.232 -0.888 0.397 0.239 -0.886 0.382 0.218 -0.898 0.314 0.17 -0.934 0.172 0.152 -0.973 0.031 0.182 -0.983 -0.018 0.204 -0.979 0.027 0.159 -0.987 0.104 0.057 -0.993 0.172 -0.051 -0.984 0.199 -0.108 -0.974 0.196 -0.055 -0.979 0.215 0.089 -0.972 0.281 0.218 -0.935 0.348 0.267 -0.899 0.373 0.274 -0.887 0.366 0.276 -0.889 -0.23 0.036 -0.973 -0.354 0.054 -0.934 -0.357 0.05 -0.933 -0.335 0.06 -0.94 -0.262 0.064 -0.963 -0.15 0.015 -0.989 -0.062 -0.07 -0.996 -0.036 -0.108 -0.993 -0.047 -0.058 -0.997 -0.057 0.047 -0.997 -0.057 0.151 -0.987 -0.051 0.202 -0.978 -0.073 0.161 -0.984 -0.153 0.066 -0.986 -0.259 0.003 -0.966 -0.332 -0.003 -0.943 -0.355 0.003 -0.935 -0.351 -0 -0.936 0.377 -0.125 -0.918 0.436 -0.197 -0.878 0.438 -0.196 -0.877 0.422 -0.193 -0.886 0.379 -0.163 -0.911 0.337 -0.08 -0.938 0.323 0.015 -0.946 0.325 0.053 -0.944 0.31 0.016 -0.951 0.271 -0.054 -0.961 0.225 -0.12 -0.967 0.198 -0.15 -0.969 0.231 -0.132 -0.964 0.322 -0.105 -0.941 0.411 -0.112 -0.905 0.454 -0.141 -0.88 0.014 0.491 -0.871 0.018 0.583 -0.812 0.014 0.585 -0.811 0.025 0.571 -0.821 0.037 0.517 -0.855 0.004 0.424 -0.906 -0.067 0.342 -0.937 -0.099 0.316 -0.944 -0.051 0.333 -0.941 0.044 0.355 -0.934 0.14 0.367 -0.919 0.191 0.367 -0.91 0.151 0.38 -0.912 0.053 0.432 -0.9 -0.018 0.507 -0.862 -0.031 0.561 -0.827 -0.028 0.577 -0.816 -0.031 0.574 -0.818 -0.108 -0.198 -0.974 -0.185 -0.244 -0.952 -0.185 -0.245 -0.952 -0.179 -0.228 -0.957 -0.148 -0.192 -0.97 -0.081 -0.16 -0.984 -0.008 -0.152 -0.988 0.022 -0.156 -0.988 0.003 -0.144 -0.99 -0.038 -0.114 -0.993 -0.075 -0.079 -0.994 -0.09 -0.063 -0.994 -0.081 -0.092 -0.992 -0.076 -0.165 -0.983 -0.095 -0.236 -0.967 -0.125 -0.272 -0.954 -0.141 -0.281 -0.949 -0.14 -0.281 -0.949 -0.462 -0.789 -0.405 -0.419 -0.723 -0.548 -0.42 -0.724 -0.548 -0.092 -0.171 -0.981 -0.097 -0.179 -0.979 0.329 0.564 -0.758 0.327 0.561 -0.761 0.416 0.723 -0.551 0.664 -0.632 -0.398 0.599 -0.605 -0.524 0.596 -0.604 -0.529 0.186 -0.221 -0.957 0.129 -0.162 -0.978 -0.417 0.46 -0.784 -0.439 0.491 -0.752 -0.546 0.646 -0.533 -0.667 0.587 -0.459 -0.585 0.549 -0.597 -0.578 0.545 -0.607 -0.171 0.102 -0.98 -0.075 -0.014 -0.997 0.381 -0.585 -0.716 0.406 -0.628 -0.664 0.472 -0.744 -0.474 -0.302 0.843 -0.445 -0.29 0.766 -0.574 -0.29 0.768 -0.571 -0.074 0.148 -0.986 -0.09 0.191 -0.978 0.254 -0.642 -0.723 0.246 -0.625 -0.741 0.335 -0.803 -0.493 0.293 0.888 -0.353 0.276 0.859 -0.432 0.276 0.859 -0.431 0.154 0.498 -0.853 0.158 0.512 -0.844 -0.125 -0.441 -0.889 -0.118 -0.414 -0.902 -0.231 -0.816 -0.53 0.444 -0.822 -0.358 0.428 -0.77 -0.473 0.429 -0.771 -0.47 0.136 -0.292 -0.947 0.164 -0.335 -0.928 -0.357 0.481 -0.8 -0.338 0.453 -0.825 -0.489 0.679 -0.548 -0.432 -0.837 -0.336 -0.431 -0.787 -0.441 -0.431 -0.785 -0.445 -0.211 -0.383 -0.899 -0.174 -0.323 -0.93 0.303 0.407 -0.862 0.338 0.455 -0.824 0.491 0.663 -0.565 0.736 0.496 -0.46 0.648 0.472 -0.598 0.654 0.474 -0.589 0.095 0.019 -0.995 0.197 0.11 -0.974 -0.485 -0.544 -0.685 -0.453 -0.503 -0.736 -0.578 -0.663 -0.476 0.027 -0.932 -0.36 0.06 -0.873 -0.483 0.058 -0.878 -0.476 -0.003 -0.26 -0.966 0.017 -0.387 -0.922 -0.179 0.617 -0.767 -0.157 0.544 -0.824 -0.238 0.808 -0.539 -0.902 0.287 -0.323 -0.885 0.23 -0.405 -0.886 0.233 -0.4 -0.492 0.072 -0.867 -0.583 0.095 -0.807 0.512 -0.057 -0.857 0.349 -0.05 -0.936 0.833 -0.064 -0.55 -0.37 -0.007 0.929 -0.467 0.003 0.884 -0.469 0 0.883 -0.453 0.01 0.891 -0.397 0.02 0.918 -0.303 -0.015 0.953 -0.223 -0.085 0.971 -0.198 -0.118 0.973 -0.213 -0.073 0.974 -0.23 0.018 0.973 -0.239 0.11 0.965 -0.238 0.158 0.958 -0.253 0.118 0.96 -0.309 0.024 0.951 -0.388 -0.042 0.921 -0.444 -0.053 0.895 -0.461 -0.049 0.886 -0.459 -0.051 0.887 0.161 -0.058 0.985 0.256 -0.151 0.955 0.258 -0.151 0.954 0.232 -0.145 0.962 0.173 -0.109 0.979 0.107 -0.02 0.994 0.074 0.081 0.994 0.07 0.125 0.99 0.058 0.093 0.994 0.023 0.022 0.999 -0.02 -0.045 0.999 -0.041 -0.071 0.997 -0.001 -0.053 0.999 0.102 -0.03 0.994 0.21 -0.042 0.977 0.271 -0.076 0.959 0.289 -0.096 0.953 0.288 -0.093 0.953 -0.13 0.592 0.795 -0.111 0.67 0.734 -0.103 0.657 0.747 -0.096 0.618 0.78 -0.118 0.554 0.824 -0.161 0.495 0.854 -0.185 0.473 0.861 -0.164 0.481 0.861 -0.112 0.495 0.862 -0.059 0.503 0.863 -0.037 0.503 0.863 -0.067 0.515 0.855 -0.128 0.552 0.824 -0.169 0.603 0.779 -0.177 0.642 0.746 -0.173 0.658 0.733 -0.174 -0.122 0.977 -0.293 -0.223 0.93 -0.291 -0.23 0.928 -0.281 -0.203 0.938 -0.222 -0.132 0.966 -0.078 -0.07 0.995 0.077 -0.063 0.995 0.134 -0.073 0.988 0.076 -0.037 0.996 -0.032 0.049 0.998 -0.132 0.142 0.981 -0.175 0.193 0.965 -0.158 0.139 0.978 -0.14 -0.017 0.99 -0.175 -0.173 0.969 -0.233 -0.245 0.941 -0.257 -0.26 0.931 -0.249 -0.26 0.933 0.306 0.157 0.939 0.434 0.164 0.886 0.436 0.169 0.884 0.417 0.155 0.896 0.346 0.135 0.928 0.22 0.159 0.962 0.107 0.225 0.968 0.07 0.258 0.964 0.095 0.209 0.973 0.133 0.103 0.986 0.16 -0.007 0.987 0.167 -0.062 0.984 0.18 -0.013 0.984 0.237 0.107 0.966 0.327 0.197 0.924 0.397 0.218 0.891 0.421 0.216 0.881 0.417 0.219 0.882 -0.367 0.154 0.917 -0.446 0.207 0.871 -0.449 0.205 0.87 -0.431 0.207 0.878 -0.378 0.192 0.906 -0.313 0.122 0.942 -0.273 0.027 0.962 -0.264 -0.012 0.964 -0.258 0.031 0.966 -0.236 0.115 0.965 -0.206 0.197 0.959 -0.186 0.236 0.954 -0.216 0.208 0.954 -0.303 0.152 0.941 -0.398 0.13 0.908 -0.45 0.145 0.881 -0.464 0.156 0.872 -0.463 0.153 0.873 0.169 -0.39 0.905 0.184 -0.488 0.853 0.188 -0.489 0.852 0.175 -0.477 0.861 0.151 -0.423 0.894 0.164 -0.314 0.935 0.217 -0.208 0.954 0.245 -0.171 0.954 0.199 -0.203 0.959 0.106 -0.252 0.962 0.009 -0.291 0.957 -0.043 -0.305 0.951 0.001 -0.308 0.951 0.115 -0.337 0.934 0.205 -0.398 0.894 0.23 -0.452 0.862 0.23 -0.47 0.852 0.232 -0.466 0.854 0.118 0.366 0.923 0.183 0.428 0.885 0.183 0.429 0.885 0.181 0.411 0.893 0.161 0.369 0.915 0.101 0.322 0.941 0.029 0.295 0.955 -0.004 0.291 0.957 0.019 0.284 0.959 0.07 0.264 0.962 0.118 0.239 0.964 0.138 0.225 0.965 0.121 0.253 0.96 0.095 0.325 0.941 0.094 0.4 0.912 0.114 0.442 0.89 0.128 0.454 0.882 0.127 0.454 0.882 0.313 0.238 0.92 0.415 0.255 0.873 0.416 0.256 0.873 0.402 0.242 0.883 0.352 0.217 0.911 0.26 0.215 0.941 0.173 0.243 0.954 0.139 0.262 0.955 0.158 0.237 0.959 0.193 0.176 0.965 0.22 0.112 0.969 0.228 0.081 0.97 0.233 0.12 0.965 0.264 0.209 0.942 0.32 0.281 0.905 0.369 0.306 0.877 0.39 0.309 0.868 0.388 0.309 0.868 -0.686 0.237 0.688 -0.73 0.278 0.624 -0.73 0.279 0.624 -0.717 0.283 0.637 -0.689 0.276 0.67 -0.654 0.24 0.717 -0.633 0.186 0.752 -0.627 0.158 0.763 -0.624 0.177 0.761 -0.614 0.222 0.758 -0.598 0.265 0.757 -0.59 0.283 0.757 -0.61 0.261 0.748 -0.66 0.222 0.718 -0.71 0.203 0.674 -0.739 0.208 0.64 -0.748 0.216 0.627 -0.749 0.216 0.627 0.228 -0.528 0.818 0.224 -0.612 0.758 0.224 -0.612 0.759 0.212 -0.6 0.771 0.198 -0.563 0.803 0.206 -0.496 0.844 0.236 -0.43 0.872 0.255 -0.402 0.879 0.238 -0.413 0.879 0.193 -0.437 0.879 0.145 -0.454 0.879 0.126 -0.459 0.88 0.157 -0.464 0.872 0.222 -0.489 0.844 0.272 -0.531 0.803 0.287 -0.568 0.771 0.286 -0.586 0.759 0.044 0.357 0.933 0.093 0.469 0.878 0.09 0.472 0.877 0.094 0.451 0.888 0.081 0.382 0.921 0.006 0.284 0.959 -0.099 0.211 0.972 -0.144 0.191 0.971 -0.092 0.194 0.977 0.013 0.187 0.982 0.117 0.168 0.979 0.166 0.153 0.974 0.129 0.183 0.975 0.054 0.278 0.959 0.017 0.391 0.92 0.029 0.459 0.888 0.04 0.479 0.877 0.036 0.477 0.878 -0.175 -0.041 0.984 -0.283 -0.077 0.956 -0.283 -0.079 0.956 -0.269 -0.06 0.961 -0.218 -0.027 0.976 -0.125 -0.009 0.992 -0.034 -0.024 0.999 0.001 -0.039 0.999 -0.019 -0.017 1 -0.057 0.038 0.998 -0.089 0.097 0.991 -0.1 0.124 0.987 -0.102 0.085 0.991 -0.126 -0.007 0.992 -0.18 -0.089 0.98 -0.23 -0.124 0.965 -0.251 -0.13 0.959 -0.25 -0.131 0.959 0.207 -0.23 0.951 0.224 -0.327 0.918 0.225 -0.328 0.918 0.211 -0.314 0.926 0.189 -0.266 0.945 0.186 -0.181 0.966 0.211 -0.101 0.972 0.228 -0.071 0.971 0.205 -0.088 0.975 0.151 -0.12 0.981 0.094 -0.145 0.985 0.066 -0.154 0.986 0.101 -0.158 0.982 0.18 -0.185 0.966 0.246 -0.237 0.94 0.27 -0.284 0.92 0.273 -0.303 0.913 0.273 -0.301 0.913 0.223 0.682 0.697 0.264 0.727 0.634 0.264 0.726 0.634 0.267 0.714 0.647 0.26 0.685 0.681 0.224 0.65 0.726 0.173 0.628 0.759 0.148 0.622 0.769 0.165 0.619 0.768 0.206 0.61 0.765 0.245 0.596 0.765 0.261 0.589 0.765 0.242 0.607 0.757 0.208 0.655 0.727 0.192 0.705 0.683 0.198 0.734 0.65 0.206 0.743 0.636 0.207 0.743 0.636 -0.49 -0.182 0.853 -0.573 -0.186 0.798 -0.561 -0.174 0.81 -0.523 -0.157 0.838 -0.457 -0.159 0.875 -0.395 -0.183 0.9 -0.369 -0.199 0.908 -0.379 -0.183 0.907 -0.401 -0.143 0.905 -0.416 -0.1 0.904 -0.421 -0.082 0.903 -0.426 -0.112 0.898 -0.451 -0.174 0.876 -0.493 -0.224 0.84 -0.531 -0.242 0.812 -0.548 -0.243 0.801 -0.548 -0.243 0.8 0.314 0.016 0.949 0.418 -0.029 0.908 0.421 -0.026 0.907 0.4 -0.03 0.916 0.337 -0.018 0.941 0.248 0.048 0.968 0.184 0.141 0.973 0.167 0.18 0.969 0.169 0.134 0.977 0.161 0.041 0.986 0.144 -0.052 0.988 0.13 -0.096 0.987 0.157 -0.063 0.986 0.242 0.006 0.97 0.345 0.04 0.938 0.408 0.03 0.912 0.427 0.019 0.904 0.425 0.023 0.905 -0.039 0.203 0.978 -0.07 0.298 0.952 -0.071 0.299 0.952 -0.055 0.286 0.957 -0.025 0.241 0.97 -0.011 0.159 0.987 -0.024 0.078 0.997 -0.037 0.047 0.998 -0.018 0.065 0.998 0.03 0.1 0.995 0.082 0.129 0.988 0.107 0.139 0.985 0.072 0.14 0.987 -0.008 0.16 0.987 -0.081 0.206 0.975 -0.112 0.25 0.962 -0.117 0.269 0.956 -0.118 0.268 0.956 -0.059 0.067 0.996 -0.14 0.096 0.986 -0.108 0.108 0.988 -0.046 0.101 0.994 -0.007 0.083 0.997 0.001 0.073 0.997 -0.003 0.063 0.998 -0.034 0.037 0.999 -0.092 0.017 0.996 -0.127 0.021 0.992 -0.282 0.414 0.865 -0.305 0.479 0.823 -0.278 0.467 0.839 -0.248 0.424 0.871 -0.24 0.389 0.889 -0.243 0.38 0.893 -0.253 0.376 0.891 -0.291 0.382 0.877 -0.34 0.406 0.848 -0.355 0.429 0.83 -0.077 0.27 0.96 -0.095 0.347 0.933 -0.068 0.328 0.942 -0.04 0.274 0.961 -0.035 0.235 0.971 -0.039 0.225 0.974 -0.05 0.223 0.973 -0.09 0.237 0.967 -0.139 0.275 0.951 -0.154 0.304 0.94 0.265 0.337 0.903 0.334 0.365 0.869 0.325 0.337 0.884 0.282 0.304 0.91 0.246 0.292 0.924 0.235 0.295 0.926 0.229 0.305 0.924 0.229 0.343 0.911 0.248 0.394 0.885 0.271 0.412 0.87 0.362 -0.074 0.929 0.406 -0.141 0.903 0.376 -0.132 0.917 0.333 -0.092 0.939 0.313 -0.056 0.948 0.312 -0.045 0.949 0.321 -0.039 0.946 0.36 -0.037 0.932 0.415 -0.053 0.908 0.438 -0.076 0.896 0.144 -0.107 0.984 0.131 -0.187 0.974 0.113 -0.158 0.981 0.107 -0.097 0.989 0.117 -0.058 0.991 0.125 -0.05 0.991 0.136 -0.053 0.989 0.168 -0.08 0.983 0.2 -0.133 0.971 0.203 -0.167 0.965 0.358 -0.032 0.933 0.411 -0.094 0.907 0.379 -0.09 0.921 0.331 -0.054 0.942 0.307 -0.021 0.952 0.305 -0.01 0.952 0.313 -0.003 0.95 0.351 0.004 0.936 0.408 -0.006 0.913 0.434 -0.026 0.9 0.238 -0.313 0.919 0.227 -0.388 0.893 0.209 -0.363 0.908 0.203 -0.307 0.93 0.211 -0.269 0.94 0.219 -0.261 0.94 0.229 -0.263 0.937 0.261 -0.286 0.922 0.293 -0.332 0.897 0.296 -0.363 0.884 0.219 -0.061 0.974 0.245 -0.14 0.959 0.216 -0.122 0.969 0.183 -0.068 0.981 0.174 -0.028 0.984 0.177 -0.017 0.984 0.188 -0.015 0.982 0.228 -0.025 0.973 0.28 -0.06 0.958 0.297 -0.089 0.951 0.449 0.024 0.893 0.51 -0.025 0.86 0.481 -0.027 0.876 0.43 -0.005 0.903 0.4 0.022 0.916 0.396 0.033 0.918 0.401 0.042 0.915 0.434 0.058 0.899 0.488 0.062 0.87 0.516 0.049 0.855 -0.418 -0.019 0.908 -0.501 0.018 0.865 -0.504 0.015 0.864 -0.487 0.02 0.873 -0.435 0.012 0.9 -0.36 -0.045 0.932 -0.305 -0.128 0.944 -0.289 -0.164 0.943 -0.292 -0.12 0.949 -0.288 -0.035 0.957 -0.275 0.05 0.96 -0.263 0.093 0.96 -0.285 0.061 0.957 -0.356 -0.009 0.934 -0.441 -0.046 0.896 -0.494 -0.039 0.869 -0.508 -0.031 0.861 -0.507 -0.034 0.861 0.046 -0.197 0.979 0.113 -0.301 0.947 0.116 -0.301 0.947 0.093 -0.29 0.953 0.046 -0.245 0.969 0.005 -0.151 0.988 -0.002 -0.054 0.999 0.004 -0.013 1 -0.014 -0.039 0.999 -0.061 -0.095 0.994 -0.114 -0.144 0.983 -0.139 -0.162 0.977 -0.1 -0.155 0.983 -0.002 -0.158 0.987 0.095 -0.194 0.976 0.144 -0.237 0.961 0.156 -0.259 0.953 0.156 -0.256 0.954 -0.055 0.481 0.875 -0.015 0.558 0.83 -0.011 0.542 0.84 -0.017 0.499 0.867 -0.055 0.438 0.897 -0.11 0.391 0.914 -0.138 0.375 0.917 -0.117 0.378 0.919 -0.066 0.378 0.923 -0.017 0.372 0.928 0.004 0.367 0.93 -0.02 0.386 0.922 -0.065 0.439 0.896 -0.088 0.503 0.86 -0.083 0.546 0.834 -0.075 0.562 0.824 -0.269 -0.174 0.947 -0.397 -0.232 0.888 -0.397 -0.239 0.886 -0.382 -0.218 0.898 -0.314 -0.17 0.934 -0.172 -0.152 0.973 -0.031 -0.182 0.983 0.018 -0.204 0.979 -0.027 -0.159 0.987 -0.104 -0.057 0.993 -0.172 0.051 0.984 -0.199 0.108 0.974 -0.196 0.055 0.979 -0.215 -0.089 0.972 -0.281 -0.218 0.935 -0.348 -0.267 0.899 -0.373 -0.274 0.887 -0.366 -0.276 0.889 0.23 -0.036 0.973 0.354 -0.054 0.934 0.357 -0.05 0.933 0.335 -0.06 0.94 0.262 -0.064 0.963 0.15 -0.015 0.989 0.062 0.07 0.996 0.036 0.108 0.993 0.047 0.058 0.997 0.057 -0.047 0.997 0.057 -0.151 0.987 0.051 -0.202 0.978 0.073 -0.161 0.984 0.153 -0.066 0.986 0.259 -0.003 0.966 0.332 0.003 0.943 0.355 -0.003 0.935 0.351 0 0.936 -0.377 0.125 0.918 -0.436 0.197 0.878 -0.438 0.196 0.877 -0.422 0.193 0.886 -0.379 0.163 0.911 -0.337 0.08 0.938 -0.323 -0.015 0.946 -0.325 -0.053 0.944 -0.31 -0.016 0.951 -0.271 0.054 0.961 -0.225 0.12 0.967 -0.198 0.15 0.969 -0.231 0.132 0.964 -0.322 0.105 0.941 -0.411 0.112 0.905 -0.454 0.141 0.88 -0.014 -0.491 0.871 -0.018 -0.583 0.812 -0.014 -0.585 0.811 -0.025 -0.571 0.821 -0.037 -0.517 0.855 -0.004 -0.424 0.906 0.067 -0.342 0.937 0.099 -0.316 0.944 0.051 -0.333 0.941 -0.044 -0.355 0.934 -0.14 -0.367 0.919 -0.191 -0.367 0.91 -0.151 -0.38 0.912 -0.053 -0.432 0.9 0.018 -0.507 0.862 0.031 -0.561 0.827 0.028 -0.577 0.816 0.031 -0.574 0.818 0.108 0.198 0.974 0.185 0.244 0.952 0.185 0.245 0.952 0.179 0.228 0.957 0.148 0.192 0.97 0.081 0.16 0.984 0.008 0.152 0.988 -0.022 0.156 0.988 -0.003 0.144 0.99 0.038 0.114 0.993 0.075 0.079 0.994 0.09 0.063 0.994 0.081 0.092 0.992 0.076 0.165 0.983 0.095 0.236 0.967 0.125 0.272 0.954 0.141 0.281 0.949 0.14 0.281 0.949</float_array><technique_common><accessor source="#weeds_-04-01_foliage-nrm-a" count="1280" stride="3"><param name="X" type="float"/><param name="Y" type="float"/><param name="Z" type="float"/></accessor></technique_common></source>
        <vertices id="weeds_-04-01_foliage-vtx"><input semantic="POSITION" source="#weeds_-04-01_foliage-pos"/></vertices>
        <triangles count="160" material="MAT_WEED_GRASS-mat"><input semantic="VERTEX" source="#weeds_-04-01_foliage-vtx" offset="0"/><input semantic="NORMAL" source="#weeds_-04-01_foliage-nrm" offset="1"/><p>0 0 1 0 2 1 0 0 2 1 3 2 3 2 2 1 4 3 3 2 4 3 5 4 5 4 4 3 6 5 5 4 6 5 7 6 7 6 6 5 8 7 7 6 8 7 9 7 10 8 11 8 12 9 10 8 12 9 13 10 13 10 12 9 14 11 13 10 14 11 15 12 15 12 14 11 16 13 15 12 16 13 17 14 17 14 16 13 18 15 17 14 18 15 19 15 20 16 21 16 22 17 20 16 22 17 23 18 23 18 22 17 24 19 23 18 24 19 25 20 25 20 24 19 26 21 25 20 26 21 27 22 27 22 26 21 28 23 27 22 28 23 29 23 30 24 31 24 32 25 30 24 32 25 33 26 33 26 32 25 34 27 33 26 34 27 35 28 35 28 34 27 36 29 35 28 36 29 37 30 37 30 36 29 38 31 37 30 38 31 39 31 40 32 41 32 42 33 40 32 42 33 43 34 43 34 42 33 44 35 43 34 44 35 45 36 45 36 44 35 46 37 45 36 46 37 47 38 47 38 46 37 48 39 47 38 48 39 49 39 50 40 51 40 52 41 50 40 52 41 53 42 53 42 52 41 54 43 53 42 54 43 55 44 55 44 54 43 56 45 55 44 56 45 57 46 57 46 56 45 58 47 57 46 58 47 59 47 60 48 61 48 62 49 60 48 62 49 63 50 63 50 62 49 64 51 63 50 64 51 65 52 65 52 64 51 66 53 65 52 66 53 67 54 67 54 66 53 68 55 67 54 68 55 69 55 70 56 71 56 72 57 70 56 72 57 73 58 73 58 72 57 74 59 73 58 74 59 75 60 75 60 74 59 76 61 75 60 76 61 77 62 77 62 76 61 78 63 77 62 78 63 79 63 80 64 81 64 82 65 80 64 82 65 83 66 83 66 82 65 84 67 83 66 84 67 85 68 85 68 84 67 86 69 85 68 86 69 87 70 87 70 86 69 88 71 87 70 88 71 89 71 90 72 91 72 92 73 90 72 92 73 93 74 93 74 92 73 94 75 93 74 94 75 95 76 95 76 94 75 96 77 95 76 96 77 97 78 97 78 96 77 98 79 97 78 98 79 99 79 0 640 2 641 1 640 0 640 3 642 2 641 3 642 4 643 2 641 3 642 5 644 4 643 5 644 6 645 4 643 5 644 7 646 6 645 7 646 8 647 6 645 7 646 9 647 8 647 10 648 12 649 11 648 10 648 13 650 12 649 13 650 14 651 12 649 13 650 15 652 14 651 15 652 16 653 14 651 15 652 17 654 16 653 17 654 18 655 16 653 17 654 19 655 18 655 20 656 22 657 21 656 20 656 23 658 22 657 23 658 24 659 22 657 23 658 25 660 24 659 25 660 26 661 24 659 25 660 27 662 26 661 27 662 28 663 26 661 27 662 29 663 28 663 30 664 32 665 31 664 30 664 33 666 32 665 33 666 34 667 32 665 33 666 35 668 34 667 35 668 36 669 34 667 35 668 37 670 36 669 37 670 38 671 36 669 37 670 39 671 38 671 40 672 42 673 41 672 40 672 43 674 42 673 43 674 44 675 42 673 43 674 45 676 44 675 45 676 46 677 44 675 45 676 47 678 46 677 47 678 48 679 46 677 47 678 49 679 48 679 50 680 52 681 51 680 50 680 53 682 52 681 53 682 54 683 52 681 53 682 55 684 54 683 55 684 56 685 54 683 55 684 57 686 56 685 57 686 58 687 56 685 57 686 59 687 58 687 60 688 62 689 61 688 60 688 63 690 62 689 63 690 64 691 62 689 63 690 65 692 64 691 65 692 66 693 64 691 65 692 67 694 66 693 67 694 68 695 66 693 67 694 69 695 68 695 70 696 72 697 71 696 70 696 73 698 72 697 73 698 74 699 72 697 73 698 75 700 74 699 75 700 76 701 74 699 75 700 77 702 76 701 77 702 78 703 76 701 77 702 79 703 78 703 80 704 82 705 81 704 80 704 83 706 82 705 83 706 84 707 82 705 83 706 85 708 84 707 85 708 86 709 84 707 85 708 87 710 86 709 87 710 88 711 86 709 87 710 89 711 88 711 90 712 92 713 91 712 90 712 93 714 92 713 93 714 94 715 92 713 93 714 95 716 94 715 95 716 96 717 94 715 95 716 97 718 96 717 97 718 98 719 96 717 97 718 99 719 98 719</p></triangles>
        <triangles count="992" material="MAT_WEED_BROAD-mat"><input semantic="VERTEX" source="#weeds_-04-01_foliage-vtx" offset="0"/><input semantic="NORMAL" source="#weeds_-04-01_foliage-nrm" offset="1"/><p>100 80 101 81 102 82 100 80 102 82 103 83 100 80 103 83 104 84 100 80 104 84 105 85 100 80 105 85 106 86 100 80 106 86 107 87 100 80 107 87 108 88 100 80 108 88 109 89 100 80 109 89 110 90 100 80 110 90 111 91 100 80 111 91 112 92 100 80 112 92 113 93 100 80 113 93 114 94 100 80 114 94 115 95 100 80 115 95 116 96 100 80 116 96 117 97 118 98 119 99 120 100 118 98 120 100 121 101 118 98 121 101 122 102 118 98 122 102 123 103 118 98 123 103 124 104 118 98 124 104 125 105 118 98 125 105 126 106 118 98 126 106 127 107 118 98 127 107 128 108 118 98 128 108 129 109 118 98 129 109 130 110 118 98 130 110 131 111 118 98 131 111 132 112 118 98 132 112 133 113 118 98 133 113 134 114 118 98 134 114 135 115 136 116 137 117 138 117 136 116 138 117 139 118 136 116 139 118 140 119 136 116 140 119 141 120 136 116 141 120 142 121 136 116 142 121 143 122 136 116 143 122 144 123 136 116 144 123 145 124 136 116 145 124 146 125 136 116 146 125 147 126 136 116 147 126 148 127 136 116 148 127 149 128 136 116 149 128 150 129 136 116 150 129 151 130 136 116 151 130 152 131 136 116 152 131 153 131 154 132 155 133 156 134 154 132 156 134 157 135 154 132 157 135 158 136 154 132 158 136 159 137 154 132 159 137 160 138 154 132 160 138 161 139 154 132 161 139 162 140 154 132 162 140 163 141 154 132 163 141 164 142 154 132 164 142 165 143 154 132 165 143 166 144 154 132 166 144 167 145 154 132 167 145 168 146 154 132 168 146 169 147 154 132 169 147 170 148 154 132 170 148 171 149 172 150 173 151 174 152 172 150 174 152 175 153 172 150 175 153 176 154 172 150 176 154 177 155 172 150 177 155 178 156 172 150 178 156 179 157 172 150 179 157 180 158 172 150 180 158 181 159 172 150 181 159 182 160 172 150 182 160 183 161 172 150 183 161 184 162 172 150 184 162 185 163 172 150 185 163 186 164 172 150 186 164 187 165 172 150 187 165 188 166 172 150 188 166 189 167 190 168 191 169 192 170 190 168 192 170 193 171 190 168 193 171 194 172 190 168 194 172 195 173 190 168 195 173 196 174 190 168 196 174 197 175 190 168 197 175 198 176 190 168 198 176 199 177 190 168 199 177 200 178 190 168 200 178 201 179 190 168 201 179 202 180 190 168 202 180 203 181 190 168 203 181 204 182 190 168 204 182 205 183 190 168 205 183 206 184 190 168 206 184 207 185 208 186 209 187 210 188 208 186 210 188 211 189 208 186 211 189 212 190 208 186 212 190 213 191 208 186 213 191 214 192 208 186 214 192 215 193 208 186 215 193 216 194 208 186 216 194 217 195 208 186 217 195 218 196 208 186 218 196 219 197 208 186 219 197 220 198 208 186 220 198 221 199 208 186 221 199 222 200 208 186 222 200 223 201 208 186 223 201 224 202 208 186 224 202 225 203 226 204 227 205 228 206 226 204 228 206 229 207 226 204 229 207 230 208 226 204 230 208 231 209 226 204 231 209 232 210 226 204 232 210 233 211 226 204 233 211 234 212 226 204 234 212 235 213 226 204 235 213 236 214 226 204 236 214 237 215 226 204 237 215 238 216 226 204 238 216 239 217 226 204 239 217 240 218 226 204 240 218 241 219 226 204 241 219 242 220 226 204 242 220 243 221 244 222 245 223 246 224 244 222 246 224 247 225 244 222 247 225 248 226 244 222 248 226 249 227 244 222 249 227 250 228 244 222 250 228 251 229 244 222 251 229 252 230 244 222 252 230 253 231 244 222 253 231 254 232 244 222 254 232 255 233 244 222 255 233 256 234 244 222 256 234 257 235 244 222 257 235 258 236 244 222 258 236 259 237 244 222 259 237 260 238 244 222 260 238 261 239 262 240 263 241 264 242 262 240 264 242 265 243 262 240 265 243 266 244 262 240 266 244 267 245 262 240 267 245 268 246 262 240 268 246 269 247 262 240 269 247 270 248 262 240 270 248 271 249 262 240 271 249 272 250 262 240 272 250 273 251 262 240 273 251 274 252 262 240 274 252 275 253 262 240 275 253 276 254 262 240 276 254 277 255 262 240 277 255 278 256 262 240 278 256 279 257 280 258 281 259 282 260 280 258 282 260 283 261 280 258 283 261 284 262 280 258 284 262 285 263 280 258 285 263 286 264 280 258 286 264 287 265 280 258 287 265 288 266 280 258 288 266 289 267 280 258 289 267 290 268 280 258 290 268 291 269 280 258 291 269 292 270 280 258 292 270 293 271 280 258 293 271 294 272 280 258 294 272 295 273 280 258 295 273 296 274 280 258 296 274 297 274 298 275 299 276 300 277 298 275 300 277 301 278 298 275 301 278 302 279 298 275 302 279 303 280 298 275 303 280 304 281 298 275 304 281 305 282 298 275 305 282 306 283 298 275 306 283 307 284 298 275 307 284 308 285 298 275 308 285 309 286 298 275 309 286 310 287 298 275 310 287 311 288 298 275 311 288 312 289 298 275 312 289 313 290 298 275 313 290 314 291 298 275 314 291 315 292 316 293 317 294 318 295 316 293 318 295 319 296 316 293 319 296 320 297 316 293 320 297 321 298 316 293 321 298 322 299 316 293 322 299 323 300 316 293 323 300 324 301 316 293 324 301 325 302 316 293 325 302 326 303 316 293 326 303 327 304 316 293 327 304 328 305 316 293 328 305 329 306 316 293 329 306 330 307 316 293 330 307 331 308 316 293 331 308 332 309 316 293 332 309 333 310 334 311 335 312 336 313 334 311 336 313 337 314 334 311 337 314 338 315 334 311 338 315 339 316 334 311 339 316 340 317 334 311 340 317 341 318 334 311 341 318 342 319 334 311 342 319 343 320 334 311 343 320 344 321 334 311 344 321 345 322 334 311 345 322 346 323 334 311 346 323 347 324 334 311 347 324 348 325 334 311 348 325 349 326 334 311 349 326 350 327 334 311 350 327 351 328 352 329 353 330 354 331 352 329 354 331 355 332 352 329 355 332 356 333 352 329 356 333 357 334 352 329 357 334 358 335 352 329 358 335 359 336 352 329 359 336 360 337 352 329 360 337 361 338 352 329 361 338 362 339 352 329 362 339 363 340 352 329 363 340 364 341 352 329 364 341 365 342 352 329 365 342 366 343 352 329 366 343 367 344 352 329 367 344 368 345 352 329 368 345 369 346 370 347 371 348 372 348 370 347 372 348 373 349 370 347 373 349 374 350 370 347 374 350 375 351 370 347 375 351 376 352 370 347 376 352 377 353 370 347 377 353 378 354 370 347 378 354 379 355 370 347 379 355 380 356 370 347 380 356 381 357 370 347 381 357 382 358 370 347 382 358 383 359 370 347 383 359 384 360 370 347 384 360 385 361 370 347 385 361 386 362 370 347 386 362 387 363 388 364 389 365 390 366 388 364 390 366 391 367 388 364 391 367 392 368 388 364 392 368 393 369 388 364 393 369 394 370 388 364 394 370 395 371 388 364 395 371 396 372 388 364 396 372 397 373 388 364 397 373 398 374 388 364 398 374 399 375 388 364 399 375 400 376 388 364 400 376 401 377 388 364 401 377 402 378 388 364 402 378 403 379 388 364 403 379 404 380 388 364 404 380 405 381 406 382 407 383 408 384 406 382 408 384 409 385 406 382 409 385 410 386 406 382 410 386 411 387 406 382 411 387 412 388 406 382 412 388 413 389 406 382 413 389 414 390 406 382 414 390 415 391 406 382 415 391 416 392 406 382 416 392 417 393 406 382 417 393 418 394 406 382 418 394 419 395 406 382 419 395 420 396 406 382 420 396 421 397 406 382 421 397 422 398 406 382 422 398 423 399 424 400 425 401 426 402 424 400 426 402 427 403 424 400 427 403 428 404 424 400 428 404 429 405 424 400 429 405 430 406 424 400 430 406 431 407 424 400 431 407 432 408 424 400 432 408 433 409 434 410 435 411 436 412 434 410 436 412 437 413 434 410 437 413 438 414 434 410 438 414 439 415 434 410 439 415 440 416 434 410 440 416 441 417 434 410 441 417 442 418 434 410 442 418 443 419 444 420 445 421 446 422 444 420 446 422 447 423 444 420 447 423 448 424 444 420 448 424 449 425 444 420 449 425 450 426 444 420 450 426 451 427 444 420 451 427 452 428 444 420 452 428 453 429 454 430 455 431 456 432 454 430 456 432 457 433 454 430 457 433 458 434 454 430 458 434 459 435 454 430 459 435 460 436 454 430 460 436 461 437 454 430 461 437 462 438 454 430 462 438 463 439 464 440 465 441 466 442 464 440 466 442 467 443 464 440 467 443 468 444 464 440 468 444 469 445 464 440 469 445 470 446 464 440 470 446 471 447 464 440 471 447 472 448 464 440 472 448 473 449 474 450 475 451 476 452 474 450 476 452 477 453 474 450 477 453 478 454 474 450 478 454 479 455 474 450 479 455 480 456 474 450 480 456 481 457 474 450 481 457 482 458 474 450 482 458 483 459 484 460 485 461 486 462 484 460 486 462 487 463 484 460 487 463 488 464 484 460 488 464 489 465 484 460 489 465 490 466 484 460 490 466 491 467 484 460 491 467 492 468 484 460 492 468 493 469 494 470 495 471 496 472 494 470 496 472 497 473 494 470 497 473 498 474 494 470 498 474 499 475 494 470 499 475 500 476 494 470 500 476 501 477 494 470 501 477 502 478 494 470 502 478 503 479 504 480 505 481 506 482 504 480 506 482 507 483 504 480 507 483 508 484 504 480 508 484 509 485 504 480 509 485 510 486 504 480 510 486 511 487 504 480 511 487 512 488 504 480 512 488 513 489 514 490 515 491 516 492 514 490 516 492 517 493 514 490 517 493 518 494 514 490 518 494 519 495 514 490 519 495 520 496 514 490 520 496 521 497 514 490 521 497 522 498 514 490 522 498 523 499 524 500 525 501 526 502 524 500 526 502 527 503 524 500 527 503 528 504 524 500 528 504 529 505 524 500 529 505 530 506 524 500 530 506 531 507 524 500 531 507 532 508 524 500 532 508 533 509 524 500 533 509 534 510 524 500 534 510 535 511 524 500 535 511 536 512 524 500 536 512 537 513 524 500 537 513 538 514 524 500 538 514 539 515 524 500 539 515 540 516 524 500 540 516 541 517 542 518 543 519 544 520 542 518 544 520 545 521 542 518 545 521 546 522 542 518 546 522 547 523 542 518 547 523 548 524 542 518 548 524 549 525 542 518 549 525 550 526 542 518 550 526 551 527 542 518 551 527 552 528 542 518 552 528 553 529 542 518 553 529 554 530 542 518 554 530 555 531 542 518 555 531 556 532 542 518 556 532 557 533 542 518 557 533 558 534 542 518 558 534 559 535 560 536 561 537 562 537 560 536 562 537 563 538 560 536 563 538 564 539 560 536 564 539 565 540 560 536 565 540 566 541 560 536 566 541 567 542 560 536 567 542 568 543 560 536 568 543 569 544 560 536 569 544 570 545 560 536 570 545 571 546 560 536 571 546 572 547 560 536 572 547 573 548 560 536 573 548 574 549 560 536 574 549 575 550 560 536 575 550 576 551 560 536 576 551 577 551 578 552 579 553 580 554 578 552 580 554 581 555 578 552 581 555 582 556 578 552 582 556 583 557 578 552 583 557 584 558 578 552 584 558 585 559 578 552 585 559 586 560 578 552 586 560 587 561 578 552 587 561 588 562 578 552 588 562 589 563 578 552 589 563 590 564 578 552 590 564 591 565 578 552 591 565 592 566 578 552 592 566 593 567 578 552 593 567 594 568 578 552 594 568 595 569 596 570 597 571 598 572 596 570 598 572 599 573 596 570 599 573 600 574 596 570 600 574 601 575 596 570 601 575 602 576 596 570 602 576 603 577 596 570 603 577 604 578 596 570 604 578 605 579 596 570 605 579 606 580 596 570 606 580 607 581 596 570 607 581 608 582 596 570 608 582 609 583 596 570 609 583 610 584 596 570 610 584 611 585 596 570 611 585 612 586 596 570 612 586 613 587 614 588 615 589 616 590 614 588 616 590 617 591 614 588 617 591 618 592 614 588 618 592 619 593 614 588 619 593 620 594 614 588 620 594 621 595 614 588 621 595 622 596 614 588 622 596 623 597 614 588 623 597 624 598 614 588 624 598 625 599 614 588 625 599 626 600 614 588 626 600 627 601 614 588 627 601 628 602 614 588 628 602 629 603 614 588 629 603 630 184 614 588 630 184 631 185 632 604 633 605 634 606 632 604 634 606 635 607 632 604 635 607 636 608 632 604 636 608 637 609 632 604 637 609 638 610 632 604 638 610 639 611 632 604 639 611 640 612 632 604 640 612 641 613 632 604 641 613 642 614 632 604 642 614 643 615 632 604 643 615 644 616 632 604 644 616 645 617 632 604 645 617 646 618 632 604 646 618 647 619 632 604 647 619 648 620 632 604 648 620 649 621 650 622 651 623 652 624 650 622 652 624 653 625 650 622 653 625 654 626 650 622 654 626 655 627 650 622 655 627 656 628 650 622 656 628 657 629 650 622 657 629 658 630 650 622 658 630 659 631 650 622 659 631 660 632 650 622 660 632 661 633 650 622 661 633 662 634 650 622 662 634 663 635 650 622 663 635 664 636 650 622 664 636 665 637 650 622 665 637 666 638 650 622 666 638 667 639 100 720 102 722 101 721 100 720 103 723 102 722 100 720 104 724 103 723 100 720 105 725 104 724 100 720 106 726 105 725 100 720 107 727 106 726 100 720 108 728 107 727 100 720 109 729 108 728 100 720 110 730 109 729 100 720 111 731 110 730 100 720 112 732 111 731 100 720 113 733 112 732 100 720 114 734 113 733 100 720 115 735 114 734 100 720 116 736 115 735 100 720 117 737 116 736 118 738 120 740 119 739 118 738 121 741 120 740 118 738 122 742 121 741 118 738 123 743 122 742 118 738 124 744 123 743 118 738 125 745 124 744 118 738 126 746 125 745 118 738 127 747 126 746 118 738 128 748 127 747 118 738 129 749 128 748 118 738 130 750 129 749 118 738 131 751 130 750 118 738 132 752 131 751 118 738 133 753 132 752 118 738 134 754 133 753 118 738 135 755 134 754 136 756 138 757 137 757 136 756 139 758 138 757 136 756 140 759 139 758 136 756 141 760 140 759 136 756 142 761 141 760 136 756 143 762 142 761 136 756 144 763 143 762 136 756 145 764 144 763 136 756 146 765 145 764 136 756 147 766 146 765 136 756 148 767 147 766 136 756 149 768 148 767 136 756 150 769 149 768 136 756 151 770 150 769 136 756 152 771 151 770 136 756 153 771 152 771 154 772 156 774 155 773 154 772 157 775 156 774 154 772 158 776 157 775 154 772 159 777 158 776 154 772 160 778 159 777 154 772 161 779 160 778 154 772 162 780 161 779 154 772 163 781 162 780 154 772 164 782 163 781 154 772 165 783 164 782 154 772 166 784 165 783 154 772 167 785 166 784 154 772 168 786 167 785 154 772 169 787 168 786 154 772 170 788 169 787 154 772 171 789 170 788 172 790 174 792 173 791 172 790 175 793 174 792 172 790 176 794 175 793 172 790 177 795 176 794 172 790 178 796 177 795 172 790 179 797 178 796 172 790 180 798 179 797 172 790 181 799 180 798 172 790 182 800 181 799 172 790 183 801 182 800 172 790 184 802 183 801 172 790 185 803 184 802 172 790 186 804 185 803 172 790 187 805 186 804 172 790 188 806 187 805 172 790 189 807 188 806 190 808 192 810 191 809 190 808 193 811 192 810 190 808 194 812 193 811 190 808 195 813 194 812 190 808 196 814 195 813 190 808 197 815 196 814 190 808 198 816 197 815 190 808 199 817 198 816 190 808 200 818 199 817 190 808 201 819 200 818 190 808 202 820 201 819 190 808 203 821 202 820 190 808 204 822 203 821 190 808 205 823 204 822 190 808 206 824 205 823 190 808 207 825 206 824 208 826 210 828 209 827 208 826 211 829 210 828 208 826 212 830 211 829 208 826 213 831 212 830 208 826 214 832 213 831 208 826 215 833 214 832 208 826 216 834 215 833 208 826 217 835 216 834 208 826 218 836 217 835 208 826 219 837 218 836 208 826 220 838 219 837 208 826 221 839 220 838 208 826 222 840 221 839 208 826 223 841 222 840 208 826 224 842 223 841 208 826 225 843 224 842 226 844 228 846 227 845 226 844 229 847 228 846 226 844 230 848 229 847 226 844 231 849 230 848 226 844 232 850 231 849 226 844 233 851 232 850 226 844 234 852 233 851 226 844 235 853 234 852 226 844 236 854 235 853 226 844 237 855 236 854 226 844 238 856 237 855 226 844 239 857 238 856 226 844 240 858 239 857 226 844 241 859 240 858 226 844 242 860 241 859 226 844 243 861 242 860 244 862 246 864 245 863 244 862 247 865 246 864 244 862 248 866 247 865 244 862 249 867 248 866 244 862 250 868 249 867 244 862 251 869 250 868 244 862 252 870 251 869 244 862 253 871 252 870 244 862 254 872 253 871 244 862 255 873 254 872 244 862 256 874 255 873 244 862 257 875 256 874 244 862 258 876 257 875 244 862 259 877 258 876 244 862 260 878 259 877 244 862 261 879 260 878 262 880 264 882 263 881 262 880 265 883 264 882 262 880 266 884 265 883 262 880 267 885 266 884 262 880 268 886 267 885 262 880 269 887 268 886 262 880 270 888 269 887 262 880 271 889 270 888 262 880 272 890 271 889 262 880 273 891 272 890 262 880 274 892 273 891 262 880 275 893 274 892 262 880 276 894 275 893 262 880 277 895 276 894 262 880 278 896 277 895 262 880 279 897 278 896 280 898 282 900 281 899 280 898 283 901 282 900 280 898 284 902 283 901 280 898 285 903 284 902 280 898 286 904 285 903 280 898 287 905 286 904 280 898 288 906 287 905 280 898 289 907 288 906 280 898 290 908 289 907 280 898 291 909 290 908 280 898 292 910 291 909 280 898 293 911 292 910 280 898 294 912 293 911 280 898 295 913 294 912 280 898 296 914 295 913 280 898 297 914 296 914 298 915 300 917 299 916 298 915 301 918 300 917 298 915 302 919 301 918 298 915 303 920 302 919 298 915 304 921 303 920 298 915 305 922 304 921 298 915 306 923 305 922 298 915 307 924 306 923 298 915 308 925 307 924 298 915 309 926 308 925 298 915 310 927 309 926 298 915 311 928 310 927 298 915 312 929 311 928 298 915 313 930 312 929 298 915 314 931 313 930 298 915 315 932 314 931 316 933 318 935 317 934 316 933 319 936 318 935 316 933 320 937 319 936 316 933 321 938 320 937 316 933 322 939 321 938 316 933 323 940 322 939 316 933 324 941 323 940 316 933 325 942 324 941 316 933 326 943 325 942 316 933 327 944 326 943 316 933 328 945 327 944 316 933 329 946 328 945 316 933 330 947 329 946 316 933 331 948 330 947 316 933 332 949 331 948 316 933 333 950 332 949 334 951 336 953 335 952 334 951 337 954 336 953 334 951 338 955 337 954 334 951 339 956 338 955 334 951 340 957 339 956 334 951 341 958 340 957 334 951 342 959 341 958 334 951 343 960 342 959 334 951 344 961 343 960 334 951 345 962 344 961 334 951 346 963 345 962 334 951 347 964 346 963 334 951 348 965 347 964 334 951 349 966 348 965 334 951 350 967 349 966 334 951 351 968 350 967 352 969 354 971 353 970 352 969 355 972 354 971 352 969 356 973 355 972 352 969 357 974 356 973 352 969 358 975 357 974 352 969 359 976 358 975 352 969 360 977 359 976 352 969 361 978 360 977 352 969 362 979 361 978 352 969 363 980 362 979 352 969 364 981 363 980 352 969 365 982 364 981 352 969 366 983 365 982 352 969 367 984 366 983 352 969 368 985 367 984 352 969 369 986 368 985 370 987 372 988 371 988 370 987 373 989 372 988 370 987 374 990 373 989 370 987 375 991 374 990 370 987 376 992 375 991 370 987 377 993 376 992 370 987 378 994 377 993 370 987 379 995 378 994 370 987 380 996 379 995 370 987 381 997 380 996 370 987 382 998 381 997 370 987 383 999 382 998 370 987 384 1000 383 999 370 987 385 1001 384 1000 370 987 386 1002 385 1001 370 987 387 1003 386 1002 388 1004 390 1006 389 1005 388 1004 391 1007 390 1006 388 1004 392 1008 391 1007 388 1004 393 1009 392 1008 388 1004 394 1010 393 1009 388 1004 395 1011 394 1010 388 1004 396 1012 395 1011 388 1004 397 1013 396 1012 388 1004 398 1014 397 1013 388 1004 399 1015 398 1014 388 1004 400 1016 399 1015 388 1004 401 1017 400 1016 388 1004 402 1018 401 1017 388 1004 403 1019 402 1018 388 1004 404 1020 403 1019 388 1004 405 1021 404 1020 406 1022 408 1024 407 1023 406 1022 409 1025 408 1024 406 1022 410 1026 409 1025 406 1022 411 1027 410 1026 406 1022 412 1028 411 1027 406 1022 413 1029 412 1028 406 1022 414 1030 413 1029 406 1022 415 1031 414 1030 406 1022 416 1032 415 1031 406 1022 417 1033 416 1032 406 1022 418 1034 417 1033 406 1022 419 1035 418 1034 406 1022 420 1036 419 1035 406 1022 421 1037 420 1036 406 1022 422 1038 421 1037 406 1022 423 1039 422 1038 424 1040 426 1042 425 1041 424 1040 427 1043 426 1042 424 1040 428 1044 427 1043 424 1040 429 1045 428 1044 424 1040 430 1046 429 1045 424 1040 431 1047 430 1046 424 1040 432 1048 431 1047 424 1040 433 1049 432 1048 434 1050 436 1052 435 1051 434 1050 437 1053 436 1052 434 1050 438 1054 437 1053 434 1050 439 1055 438 1054 434 1050 440 1056 439 1055 434 1050 441 1057 440 1056 434 1050 442 1058 441 1057 434 1050 443 1059 442 1058 444 1060 446 1062 445 1061 444 1060 447 1063 446 1062 444 1060 448 1064 447 1063 444 1060 449 1065 448 1064 444 1060 450 1066 449 1065 444 1060 451 1067 450 1066 444 1060 452 1068 451 1067 444 1060 453 1069 452 1068 454 1070 456 1072 455 1071 454 1070 457 1073 456 1072 454 1070 458 1074 457 1073 454 1070 459 1075 458 1074 454 1070 460 1076 459 1075 454 1070 461 1077 460 1076 454 1070 462 1078 461 1077 454 1070 463 1079 462 1078 464 1080 466 1082 465 1081 464 1080 467 1083 466 1082 464 1080 468 1084 467 1083 464 1080 469 1085 468 1084 464 1080 470 1086 469 1085 464 1080 471 1087 470 1086 464 1080 472 1088 471 1087 464 1080 473 1089 472 1088 474 1090 476 1092 475 1091 474 1090 477 1093 476 1092 474 1090 478 1094 477 1093 474 1090 479 1095 478 1094 474 1090 480 1096 479 1095 474 1090 481 1097 480 1096 474 1090 482 1098 481 1097 474 1090 483 1099 482 1098 484 1100 486 1102 485 1101 484 1100 487 1103 486 1102 484 1100 488 1104 487 1103 484 1100 489 1105 488 1104 484 1100 490 1106 489 1105 484 1100 491 1107 490 1106 484 1100 492 1108 491 1107 484 1100 493 1109 492 1108 494 1110 496 1112 495 1111 494 1110 497 1113 496 1112 494 1110 498 1114 497 1113 494 1110 499 1115 498 1114 494 1110 500 1116 499 1115 494 1110 501 1117 500 1116 494 1110 502 1118 501 1117 494 1110 503 1119 502 1118 504 1120 506 1122 505 1121 504 1120 507 1123 506 1122 504 1120 508 1124 507 1123 504 1120 509 1125 508 1124 504 1120 510 1126 509 1125 504 1120 511 1127 510 1126 504 1120 512 1128 511 1127 504 1120 513 1129 512 1128 514 1130 516 1132 515 1131 514 1130 517 1133 516 1132 514 1130 518 1134 517 1133 514 1130 519 1135 518 1134 514 1130 520 1136 519 1135 514 1130 521 1137 520 1136 514 1130 522 1138 521 1137 514 1130 523 1139 522 1138 524 1140 526 1142 525 1141 524 1140 527 1143 526 1142 524 1140 528 1144 527 1143 524 1140 529 1145 528 1144 524 1140 530 1146 529 1145 524 1140 531 1147 530 1146 524 1140 532 1148 531 1147 524 1140 533 1149 532 1148 524 1140 534 1150 533 1149 524 1140 535 1151 534 1150 524 1140 536 1152 535 1151 524 1140 537 1153 536 1152 524 1140 538 1154 537 1153 524 1140 539 1155 538 1154 524 1140 540 1156 539 1155 524 1140 541 1157 540 1156 542 1158 544 1160 543 1159 542 1158 545 1161 544 1160 542 1158 546 1162 545 1161 542 1158 547 1163 546 1162 542 1158 548 1164 547 1163 542 1158 549 1165 548 1164 542 1158 550 1166 549 1165 542 1158 551 1167 550 1166 542 1158 552 1168 551 1167 542 1158 553 1169 552 1168 542 1158 554 1170 553 1169 542 1158 555 1171 554 1170 542 1158 556 1172 555 1171 542 1158 557 1173 556 1172 542 1158 558 1174 557 1173 542 1158 559 1175 558 1174 560 1176 562 1177 561 1177 560 1176 563 1178 562 1177 560 1176 564 1179 563 1178 560 1176 565 1180 564 1179 560 1176 566 1181 565 1180 560 1176 567 1182 566 1181 560 1176 568 1183 567 1182 560 1176 569 1184 568 1183 560 1176 570 1185 569 1184 560 1176 571 1186 570 1185 560 1176 572 1187 571 1186 560 1176 573 1188 572 1187 560 1176 574 1189 573 1188 560 1176 575 1190 574 1189 560 1176 576 1191 575 1190 560 1176 577 1191 576 1191 578 1192 580 1194 579 1193 578 1192 581 1195 580 1194 578 1192 582 1196 581 1195 578 1192 583 1197 582 1196 578 1192 584 1198 583 1197 578 1192 585 1199 584 1198 578 1192 586 1200 585 1199 578 1192 587 1201 586 1200 578 1192 588 1202 587 1201 578 1192 589 1203 588 1202 578 1192 590 1204 589 1203 578 1192 591 1205 590 1204 578 1192 592 1206 591 1205 578 1192 593 1207 592 1206 578 1192 594 1208 593 1207 578 1192 595 1209 594 1208 596 1210 598 1212 597 1211 596 1210 599 1213 598 1212 596 1210 600 1214 599 1213 596 1210 601 1215 600 1214 596 1210 602 1216 601 1215 596 1210 603 1217 602 1216 596 1210 604 1218 603 1217 596 1210 605 1219 604 1218 596 1210 606 1220 605 1219 596 1210 607 1221 606 1220 596 1210 608 1222 607 1221 596 1210 609 1223 608 1222 596 1210 610 1224 609 1223 596 1210 611 1225 610 1224 596 1210 612 1226 611 1225 596 1210 613 1227 612 1226 614 1228 616 1230 615 1229 614 1228 617 1231 616 1230 614 1228 618 1232 617 1231 614 1228 619 1233 618 1232 614 1228 620 1234 619 1233 614 1228 621 1235 620 1234 614 1228 622 1236 621 1235 614 1228 623 1237 622 1236 614 1228 624 1238 623 1237 614 1228 625 1239 624 1238 614 1228 626 1240 625 1239 614 1228 627 1241 626 1240 614 1228 628 1242 627 1241 614 1228 629 1243 628 1242 614 1228 630 824 629 1243 614 1228 631 825 630 824 632 1244 634 1246 633 1245 632 1244 635 1247 634 1246 632 1244 636 1248 635 1247 632 1244 637 1249 636 1248 632 1244 638 1250 637 1249 632 1244 639 1251 638 1250 632 1244 640 1252 639 1251 632 1244 641 1253 640 1252 632 1244 642 1254 641 1253 632 1244 643 1255 642 1254 632 1244 644 1256 643 1255 632 1244 645 1257 644 1256 632 1244 646 1258 645 1257 632 1244 647 1259 646 1258 632 1244 648 1260 647 1259 632 1244 649 1261 648 1260 650 1262 652 1264 651 1263 650 1262 653 1265 652 1264 650 1262 654 1266 653 1265 650 1262 655 1267 654 1266 650 1262 656 1268 655 1267 650 1262 657 1269 656 1268 650 1262 658 1270 657 1269 650 1262 659 1271 658 1270 650 1262 660 1272 659 1271 650 1262 661 1273 660 1272 650 1262 662 1274 661 1273 650 1262 663 1275 662 1274 650 1262 664 1276 663 1275 650 1262 665 1277 664 1276 650 1262 666 1278 665 1277 650 1262 667 1279 666 1278</p></triangles>
      </mesh>
    </geometry>
  </library_geometries>
  <library_visual_scenes><visual_scene id="scene" name="scene">
    <node id="weeds_-04-01_foliage" name="weeds_-04-01_foliage" type="NODE"><instance_geometry url="#weeds_-04-01_foliage-mesh"><bind_material><technique_common>
      <instance_material symbol="MAT_WEED_GRASS-mat" target="#MAT_WEED_GRASS"/>
      <instance_material symbol="MAT_WEED_BROAD-mat" target="#MAT_WEED_BROAD"/>
    </technique_common></bind_material></instance_geometry></node>
  </visual_scene></library_visual_scenes>
  <scene><instance_visual_scene url="#scene"/></scene>
<!-- vigil:double-sided -->
</COLLADA>
