<?xml version="1.0" encoding="utf-8"?>
<COLLADA xmlns="http://www.collada.org/2005/11/COLLADASchema" version="1.4.1">
  <asset>
    <contributor><authoring_tool>VIGIL SIH26126 farm generator</authoring_tool></contributor>
    <unit name="meter" meter="1"/>
    <up_axis>Z_UP</up_axis>
  </asset>
  <library_effects>
    <effect id="MAT_WEED_STEM-fx"><profile_COMMON><technique sid="c"><lambert><diffuse><color>0.0860 0.1040 0.0360 1</color></diffuse></lambert></technique></profile_COMMON></effect>
  </library_effects>
  <library_materials>
    <material id="MAT_WEED_STEM" name="MAT_WEED_STEM"><instance_effect url="#MAT_WEED_STEM-fx"/></material>
  </library_materials>
  <library_geometries>
    <geometry id="weeds_+02-02_solid-mesh" name="weeds_+02-02_solid">
      <mesh>
        <source id="weeds_+02-02_solid-pos"><float_array id="weeds_+02-02_solid-pos-a" count="144">-0.030546 1.6086 -0.15377 -0.029001 1.6054 -0.14891 -0.052521 1.6479 -0.11626 -0.052919 1.6502 -0.12088 -0.02491 1.6091 -0.15121 -0.048449 1.6506 -0.11799 -0.076693 1.6905 -0.1061 -0.074305 1.6912 -0.10974 -0.072636 1.6923 -0.10583 -0.099892 1.7323 -0.1248 -0.096981 1.7327 -0.12704 -0.096926 1.7341 -0.12377 -0.031128 1.6089 -0.14957 -0.02619 1.605 -0.15018 0.0086174 1.6396 -0.11797 0.004303 1.6427 -0.11669 -0.02714 1.6093 -0.15414 0.0067482 1.6432 -0.12126 0.042606 1.6744 -0.10935 0.041624 1.6757 -0.10526 0.039249 1.6775 -0.10862 0.07571 1.7088 -0.1278 0.077055 1.7093 -0.1245 0.074106 1.7113 -0.12566 -0.030529 1.6086 -0.15379 -0.027731 1.6045 -0.15029 -0.064548 1.6129 -0.11717 -0.066378 1.6162 -0.12076 -0.026197 1.6101 -0.14981 -0.063383 1.6178 -0.1168 -0.102 1.6214 -0.10566 -0.10126 1.6234 -0.10947 -0.10122 1.6256 -0.10574 -0.1392 1.6297 -0.12375 -0.13741 1.6309 -0.12664 -0.13844 1.6332 -0.12401 -0.03013 1.6085 -0.15412 -0.02825 1.6046 -0.14985 -0.075195 1.6242 -0.11683 -0.076151 1.6273 -0.12092 -0.026077 1.6101 -0.14993 -0.073296 1.6289 -0.1169 -0.12261 1.6439 -0.10564 -0.12154 1.6458 -0.10942 -0.12099 1.6479 -0.10565 -0.16971 1.6634 -0.12376 -0.16796 1.6646 -0.12666 -0.16839 1.6667 -0.12375</float_array><technique_common><accessor source="#weeds_+02-02_solid-pos-a" count="48" stride="3"><param name="X" type="float"/><param name="Y" type="float"/><param name="Z" type="float"/></accessor></technique_common></source>
        <source id="weeds_+02-02_solid-nrm"><float_array id="weeds_+02-02_solid-nrm-a" count="144">-0.597 0.275 -0.754 -0.3 -0.681 0.668 -0.402 -0.586 0.703 -0.459 0.183 -0.869 0.891 0.449 0.071 0.877 0.379 0.294 -0.693 -0.377 0.615 0.031 -0.042 -0.999 0.649 0.462 0.605 -0.883 -0.351 0.313 0.299 -0.222 -0.928 0.556 0.579 0.597 -0.778 0.258 0.573 0.528 -0.799 0.288 0.608 -0.775 0.169 -0.564 0.124 0.816 0.245 0.538 -0.807 -0.047 0.591 -0.805 0.543 -0.726 -0.421 0.059 0.054 0.997 -0.591 0.73 -0.343 0.211 -0.611 -0.763 0.501 -0.03 0.865 -0.719 0.687 -0.103 -0.633 0.225 -0.741 0.055 -0.951 0.304 0.05 -0.887 0.459 -0.461 0.171 -0.871 0.529 0.734 0.426 0.451 0.71 0.541 -0.226 -0.749 0.623 0.053 -0.018 -0.998 0.121 0.776 0.619 -0.402 -0.788 0.467 0.402 -0.125 -0.907 -0.006 0.919 0.395 -0.519 0.196 -0.832 -0.082 -0.904 0.42 -0.114 -0.843 0.526 -0.369 0.137 -0.919 0.566 0.722 0.397 0.505 0.697 0.508 -0.339 -0.726 0.599 0.042 -0.021 -0.999 0.263 0.761 0.593 -0.483 -0.748 0.455 0.3 -0.122 -0.946 0.172 0.873 0.456</float_array><technique_common><accessor source="#weeds_+02-02_solid-nrm-a" count="48" stride="3"><param name="X" type="float"/><param name="Y" type="float"/><param name="Z" type="float"/></accessor></technique_common></source>
        <vertices id="weeds_+02-02_solid-vtx"><input semantic="POSITION" source="#weeds_+02-02_solid-pos"/></vertices>
        <triangles count="72" material="MAT_WEED_STEM-mat"><input semantic="VERTEX" source="#weeds_+02-02_solid-vtx" offset="0"/><input semantic="NORMAL" source="#weeds_+02-02_solid-nrm" offset="1"/><p>0 0 1 1 2 2 0 0 2 2 3 3 1 1 4 4 5 5 1 1 5 5 2 2 4 4 0 0 3 3 4 4 3 3 5 5 3 3 2 2 6 6 3 3 6 6 7 7 2 2 5 5 8 8 2 2 8 8 6 6 5 5 3 3 7 7 5 5 7 7 8 8 7 7 6 6 9 9 7 7 9 9 10 10 6 6 8 8 11 11 6 6 11 11 9 9 8 8 7 7 10 10 8 8 10 10 11 11 12 12 13 13 14 14 12 12 14 14 15 15 13 13 16 16 17 17 13 13 17 17 14 14 16 16 12 12 15 15 16 16 15 15 17 17 15 15 14 14 18 18 15 15 18 18 19 19 14 14 17 17 20 20 14 14 20 20 18 18 17 17 15 15 19 19 17 17 19 19 20 20 19 19 18 18 21 21 19 19 21 21 22 22 18 18 20 20 23 23 18 18 23 23 21 21 20 20 19 19 22 22 20 20 22 22 23 23 24 24 25 25 26 26 24 24 26 26 27 27 25 25 28 28 29 29 25 25 29 29 26 26 28 28 24 24 27 27 28 28 27 27 29 29 27 27 26 26 30 30 27 27 30 30 31 31 26 26 29 29 32 32 26 26 32 32 30 30 29 29 27 27 31 31 29 29 31 31 32 32 31 31 30 30 33 33 31 31 33 33 34 34 30 30 32 32 35 35 30 30 35 35 33 33 32 32 31 31 34 34 32 32 34 34 35 35 36 36 37 37 38 38 36 36 38 38 39 39 37 37 40 40 41 41 37 37 41 41 38 38 40 40 36 36 39 39 40 40 39 39 41 41 39 39 38 38 42 42 39 39 42 42 43 43 38 38 41 41 44 44 38 38 44 44 42 42 41 41 39 39 43 43 41 41 43 43 44 44 43 43 42 42 45 45 43 43 45 45 46 46 42 42 44 44 47 47 42 42 47 47 45 45 44 44 43 43 46 46 44 44 46 46 47 47</p></triangles>
      </mesh>
    </geometry>
  </library_geometries>
  <library_visual_scenes><visual_scene id="scene" name="scene">
    <node id="weeds_+02-02_solid" name="weeds_+02-02_solid" type="NODE"><instance_geometry url="#weeds_+02-02_solid-mesh"><bind_material><technique_common>
      <instance_material symbol="MAT_WEED_STEM-mat" target="#MAT_WEED_STEM"/>
    </technique_common></bind_material></instance_geometry></node>
  </visual_scene></library_visual_scenes>
  <scene><instance_visual_scene url="#scene"/></scene>
</COLLADA>
