<?xml version="1.0" encoding="utf-8"?>
<COLLADA xmlns="http://www.collada.org/2005/11/COLLADASchema" version="1.4.1">
  <asset>
    <contributor><authoring_tool>VIGIL SIH26126 farm generator</authoring_tool></contributor>
    <unit name="meter" meter="1"/>
    <up_axis>Z_UP</up_axis>
  </asset>
  <library_effects>
    <effect id="MAT_WEED_GRASS-fx"><profile_COMMON><technique sid="c"><lambert><diffuse><color>0.0980 0.1280 0.0300 1</color></diffuse></lambert></technique></profile_COMMON></effect>
    <effect id="MAT_WEED_BROAD-fx"><profile_COMMON><technique sid="c"><lambert><diffuse><color>0.0720 0.1520 0.0340 1</color></diffuse></lambert></technique></profile_COMMON></effect>
  </library_effects>
  <library_materials>
    <material id="MAT_WEED_GRASS" name="MAT_WEED_GRASS"><instance_effect url="#MAT_WEED_GRASS-fx"/></material>
    <material id="MAT_WEED_BROAD" name="MAT_WEED_BROAD"><instance_effect url="#MAT_WEED_BROAD-fx"/></material>
  </library_materials>
  <library_geometries>
    <geometry id="weeds_-02+02_foliage-mesh" name="weeds_-02+02_foliage">
      <mesh>
        <source id="weeds_-02+02_foliage-pos"><float_array id="weeds_-02+02_foliage-pos-a" count="270">-0.00046349 0.0034485 -0.012577 -0.0083809 0.0049934 -0.016789 -0.0093746 0.0095882 -0.017182 -0.0073013 0.015322 -0.01587 -0.0026608 0.020956 -0.013482 0.0057354 0.026192 -0.010006 0.017641 0.029003 -0.00634 0.030884 0.027674 -0.0035196 0.041029 0.022608 -0.0019545 0.046751 0.01438 -0.0010558 0.04525 0.0045376 -0.0009059 0.038366 -0.004364 -0.0016604 0.02706 -0.011328 -0.0039996 0.015148 -0.01412 -0.0076665 0.005331 -0.013266 -0.011496 -0.001297 -0.010386 -0.014378 -0.0056782 -0.0062408 -0.016263 -0.0068264 -0.0016651 -0.016403 9.5367e-06 0.0077171 0.060944 0.0050678 -0.0028057 0.050087 0.00073814 -0.0097198 0.050238 -0.0075169 -0.014755 0.055197 -0.017981 -0.016872 0.063401 -0.031536 -0.014385 0.075653 -0.045906 -0.0049744 0.090003 -0.057217 0.011177 0.10299 -0.061472 0.028711 0.11093 -0.057798 0.045443 0.11375 -0.04512 0.05636 0.1097 -0.028223 0.0602 0.10081 -0.009409 0.056734 0.087251 0.0049438 0.047293 0.072903 0.012989 0.03549 0.061066 0.015747 0.024578 0.053443 0.015062 0.014498 0.049158 0.011093 0.0073795 0.049633 0.001709 0.012194 0.13447 0.0056705 0.020746 0.12533 0.012791 0.021578 0.12524 0.020992 0.018991 0.12911 0.028563 0.013496 0.13568 0.034895 0.0036106 0.14557 0.037094 -0.010506 0.15718 0.032997 -0.026312 0.16772 0.023832 -0.038355 0.17427 0.010561 -0.044832 0.17684 -0.0041103 -0.042358 0.17403 -0.016548 -0.033409 0.1673 -0.025274 -0.01944 0.15665 -0.027443 -0.0053196 0.14504 -0.024359 0.0059166 0.13523 -0.018761 0.013298 0.12877 -0.011686 0.018072 0.12503 -0.0046253 0.019272 0.12524 0.0046368 0.016878 0.20801 -0.0015697 0.010334 0.20433 -0.0058136 0.012241 0.20403 -0.0090218 0.017754 0.20529 -0.010546 0.025621 0.20737 -0.009407 0.036768 0.21001 -0.0041828 0.049692 0.21205 0.0051155 0.061277 0.21262 0.015415 0.067629 0.21228 0.025446 0.067873 0.21218 0.032246 0.060337 0.21295 0.034958 0.048349 0.21381 0.033382 0.033417 0.21354 0.028139 0.020502 0.2115 0.02133 0.011812 0.20864 0.014921 0.0073795 0.20624 0.0089302 0.0058537 0.20462 0.004631 0.0076466 0.20457 0.008791 0.02177 0.28156 0.015594 0.020908 0.27959 0.016762 0.017262 0.27969 0.015417 0.012552 0.28071 0.011936 0.0077839 0.28216 0.0053787 0.0031109 0.28386 -0.0040951 0.00013733 0.28505 -0.014793 0.00035858 0.28516 -0.023214 0.0037594 0.28456 -0.028376 0.010004 0.28393 -0.027988 0.018051 0.28371 -0.023258 0.025698 0.28365 -0.01475 0.032036 0.28315 -0.00527 0.034992 0.28196 0.0028954 0.034851 0.28054 0.0086269 0.032885 0.2795 0.012581 0.029781 0.27895 0.013836 0.026175 0.27928</float_array><technique_common><accessor source="#weeds_-02+02_foliage-pos-a" count="90" stride="3"><param name="X" type="float"/><param name="Y" type="float"/><param name="Z" type="float"/></accessor></technique_common></source>
        <source id="weeds_-02+02_foliage-nrm"><float_array id="weeds_-02+02_foliage-nrm-a" count="528">0.37 0.032 -0.929 0.474 0.027 -0.88 0.474 0.029 -0.88 0.457 0.017 -0.889 0.403 0.003 -0.915 0.313 0.022 -0.949 0.234 0.071 -0.97 0.205 0.098 -0.974 0.218 0.068 -0.974 0.237 -0.001 -0.971 0.248 -0.072 -0.966 0.25 -0.104 -0.963 0.264 -0.067 -0.962 0.315 0.014 -0.949 0.387 0.075 -0.919 0.441 0.09 -0.893 0.462 0.087 -0.883 0.46 0.089 -0.883 -0.605 0.326 -0.726 -0.637 0.384 -0.669 -0.636 0.384 -0.669 -0.623 0.383 -0.682 -0.598 0.366 -0.714 -0.574 0.316 -0.755 -0.566 0.255 -0.784 -0.568 0.226 -0.792 -0.56 0.243 -0.792 -0.539 0.284 -0.793 -0.514 0.321 -0.796 -0.501 0.336 -0.797 -0.526 0.321 -0.787 -0.583 0.301 -0.755 -0.637 0.301 -0.71 -0.663 0.317 -0.678 -0.67 0.329 -0.666 0.103 -0.674 -0.732 0.079 -0.745 -0.662 0.078 -0.745 -0.663 0.07 -0.732 -0.677 0.066 -0.697 -0.714 0.089 -0.64 -0.763 0.134 -0.588 -0.798 0.16 -0.568 -0.808 0.14 -0.574 -0.807 0.091 -0.585 -0.806 0.041 -0.589 -0.807 0.02 -0.589 -0.808 0.05 -0.601 -0.797 0.107 -0.638 -0.763 0.144 -0.685 -0.714 0.15 -0.72 -0.677 0.145 -0.735 -0.663 0.134 0.22 -0.966 0.208 0.323 -0.923 0.206 0.327 -0.922 0.205 0.303 -0.931 0.176 0.236 -0.956 0.08 0.155 -0.985 -0.041 0.111 -0.993 -0.09 0.104 -0.991 -0.038 0.092 -0.995 0.064 0.055 -0.996 0.161 0.01 -0.987 0.205 -0.018 -0.979 0.177 0.021 -0.984 0.125 0.136 -0.983 0.115 0.261 -0.958 0.143 0.329 -0.933 0.159 0.346 -0.925 0.154 0.345 -0.926 -0.175 -0.117 -0.978 -0.29 -0.119 -0.95 -0.291 -0.121 -0.949 -0.272 -0.107 -0.956 -0.214 -0.09 -0.973 -0.118 -0.1 -0.988 -0.033 -0.14 -0.99 -0.002 -0.164 -0.987 -0.016 -0.137 -0.99 -0.04 -0.073 -0.997 -0.058 -0.006 -0.998 -0.062 0.024 -0.998 -0.073 -0.014 -0.997 -0.119 -0.097 -0.988 -0.191 -0.162 -0.968 -0.249 -0.181 -0.952 -0.272 -0.18 -0.945 -0.27 -0.181 -0.946 -0.37 -0.032 0.929 -0.474 -0.027 0.88 -0.474 -0.029 0.88 -0.457 -0.017 0.889 -0.403 -0.003 0.915 -0.313 -0.022 0.949 -0.234 -0.071 0.97 -0.205 -0.098 0.974 -0.218 -0.068 0.974 -0.237 0.001 0.971 -0.248 0.072 0.966 -0.25 0.104 0.963 -0.264 0.067 0.962 -0.315 -0.014 0.949 -0.387 -0.075 0.919 -0.441 -0.09 0.893 -0.462 -0.087 0.883 -0.46 -0.089 0.883 0.605 -0.326 0.726 0.637 -0.384 0.669 0.636 -0.384 0.669 0.623 -0.383 0.682 0.598 -0.366 0.714 0.574 -0.316 0.755 0.566 -0.255 0.784 0.568 -0.226 0.792 0.56 -0.243 0.792 0.539 -0.284 0.793 0.514 -0.321 0.796 0.501 -0.336 0.797 0.526 -0.321 0.787 0.583 -0.301 0.755 0.637 -0.301 0.71 0.663 -0.317 0.678 0.67 -0.329 0.666 -0.103 0.674 0.732 -0.079 0.745 0.662 -0.078 0.745 0.663 -0.07 0.732 0.677 -0.066 0.697 0.714 -0.089 0.64 0.763 -0.134 0.588 0.798 -0.16 0.568 0.808 -0.14 0.574 0.807 -0.091 0.585 0.806 -0.041 0.589 0.807 -0.02 0.589 0.808 -0.05 0.601 0.797 -0.107 0.638 0.763 -0.144 0.685 0.714 -0.15 0.72 0.677 -0.145 0.735 0.663 -0.134 -0.22 0.966 -0.208 -0.323 0.923 -0.206 -0.327 0.922 -0.205 -0.303 0.931 -0.176 -0.236 0.956 -0.08 -0.155 0.985 0.041 -0.111 0.993 0.09 -0.104 0.991 0.038 -0.092 0.995 -0.064 -0.055 0.996 -0.161 -0.01 0.987 -0.205 0.018 0.979 -0.177 -0.021 0.984 -0.125 -0.136 0.983 -0.115 -0.261 0.958 -0.143 -0.329 0.933 -0.159 -0.346 0.925 -0.154 -0.345 0.926 0.175 0.117 0.978 0.29 0.119 0.95 0.291 0.121 0.949 0.272 0.107 0.956 0.214 0.09 0.973 0.118 0.1 0.988 0.033 0.14 0.99 0.002 0.164 0.987 0.016 0.137 0.99 0.04 0.073 0.997 0.058 0.006 0.998 0.062 -0.024 0.998 0.073 0.014 0.997 0.119 0.097 0.988 0.191 0.162 0.968 0.249 0.181 0.952 0.272 0.18 0.945 0.27 0.181 0.946</float_array><technique_common><accessor source="#weeds_-02+02_foliage-nrm-a" count="176" stride="3"><param name="X" type="float"/><param name="Y" type="float"/><param name="Z" type="float"/></accessor></technique_common></source>
        <vertices id="weeds_-02+02_foliage-vtx"><input semantic="POSITION" source="#weeds_-02+02_foliage-pos"/></vertices>
        <triangles count="160" material="MAT_WEED_BROAD-mat"><input semantic="VERTEX" source="#weeds_-02+02_foliage-vtx" offset="0"/><input semantic="NORMAL" source="#weeds_-02+02_foliage-nrm" offset="1"/><p>0 0 1 1 2 2 0 0 2 2 3 3 0 0 3 3 4 4 0 0 4 4 5 5 0 0 5 5 6 6 0 0 6 6 7 7 0 0 7 7 8 8 0 0 8 8 9 9 0 0 9 9 10 10 0 0 10 10 11 11 0 0 11 11 12 12 0 0 12 12 13 13 0 0 13 13 14 14 0 0 14 14 15 15 0 0 15 15 16 16 0 0 16 16 17 17 18 18 19 19 20 20 18 18 20 20 21 21 18 18 21 21 22 22 18 18 22 22 23 23 18 18 23 23 24 24 18 18 24 24 25 25 18 18 25 25 26 26 18 18 26 26 27 27 18 18 27 27 28 28 18 18 28 28 29 29 18 18 29 29 30 30 18 18 30 30 31 31 18 18 31 31 32 32 18 18 32 32 33 33 18 18 33 33 34 34 18 18 34 34 35 34 36 35 37 36 38 37 36 35 38 37 39 38 36 35 39 38 40 39 36 35 40 39 41 40 36 35 41 40 42 41 36 35 42 41 43 42 36 35 43 42 44 43 36 35 44 43 45 44 36 35 45 44 46 45 36 35 46 45 47 46 36 35 47 46 48 47 36 35 48 47 49 48 36 35 49 48 50 49 36 35 50 49 51 50 36 35 51 50 52 51 36 35 52 51 53 51 54 52 55 53 56 54 54 52 56 54 57 55 54 52 57 55 58 56 54 52 58 56 59 57 54 52 59 57 60 58 54 52 60 58 61 59 54 52 61 59 62 60 54 52 62 60 63 61 54 52 63 61 64 62 54 52 64 62 65 63 54 52 65 63 66 64 54 52 66 64 67 65 54 52 67 65 68 66 54 52 68 66 69 67 54 52 69 67 70 68 54 52 70 68 71 69 72 70 73 71 74 72 72 70 74 72 75 73 72 70 75 73 76 74 72 70 76 74 77 75 72 70 77 75 78 76 72 70 78 76 79 77 72 70 79 77 80 78 72 70 80 78 81 79 72 70 81 79 82 80 72 70 82 80 83 81 72 70 83 81 84 82 72 70 84 82 85 83 72 70 85 83 86 84 72 70 86 84 87 85 72 70 87 85 88 86 72 70 88 86 89 87 0 88 2 90 1 89 0 88 3 91 2 90 0 88 4 92 3 91 0 88 5 93 4 92 0 88 6 94 5 93 0 88 7 95 6 94 0 88 8 96 7 95 0 88 9 97 8 96 0 88 10 98 9 97 0 88 11 99 10 98 0 88 12 100 11 99 0 88 13 101 12 100 0 88 14 102 13 101 0 88 15 103 14 102 0 88 16 104 15 103 0 88 17 105 16 104 18 106 20 108 19 107 18 106 21 109 20 108 18 106 22 110 21 109 18 106 23 111 22 110 18 106 24 112 23 111 18 106 25 113 24 112 18 106 26 114 25 113 18 106 27 115 26 114 18 106 28 116 27 115 18 106 29 117 28 116 18 106 30 118 29 117 18 106 31 119 30 118 18 106 32 120 31 119 18 106 33 121 32 120 18 106 34 122 33 121 18 106 35 122 34 122 36 123 38 125 37 124 36 123 39 126 38 125 36 123 40 127 39 126 36 123 41 128 40 127 36 123 42 129 41 128 36 123 43 130 42 129 36 123 44 131 43 130 36 123 45 132 44 131 36 123 46 133 45 132 36 123 47 134 46 133 36 123 48 135 47 134 36 123 49 136 48 135 36 123 50 137 49 136 36 123 51 138 50 137 36 123 52 139 51 138 36 123 53 139 52 139 54 140 56 142 55 141 54 140 57 143 56 142 54 140 58 144 57 143 54 140 59 145 58 144 54 140 60 146 59 145 54 140 61 147 60 146 54 140 62 148 61 147 54 140 63 149 62 148 54 140 64 150 63 149 54 140 65 151 64 150 54 140 66 152 65 151 54 140 67 153 66 152 54 140 68 154 67 153 54 140 69 155 68 154 54 140 70 156 69 155 54 140 71 157 70 156 72 158 74 160 73 159 72 158 75 161 74 160 72 158 76 162 75 161 72 158 77 163 76 162 72 158 78 164 77 163 72 158 79 165 78 164 72 158 80 166 79 165 72 158 81 167 80 166 72 158 82 168 81 167 72 158 83 169 82 168 72 158 84 170 83 169 72 158 85 171 84 170 72 158 86 172 85 171 72 158 87 173 86 172 72 158 88 174 87 173 72 158 89 175 88 174</p></triangles>
      </mesh>
    </geometry>
  </library_geometries>
  <library_visual_scenes><visual_scene id="scene" name="scene">
    <node id="weeds_-02+02_foliage" name="weeds_-02+02_foliage" type="NODE"><instance_geometry url="#weeds_-02+02_foliage-mesh"><bind_material><technique_common>
      <instance_material symbol="MAT_WEED_GRASS-mat" target="#MAT_WEED_GRASS"/>
      <instance_material symbol="MAT_WEED_BROAD-mat" target="#MAT_WEED_BROAD"/>
    </technique_common></bind_material></instance_geometry></node>
  </visual_scene></library_visual_scenes>
  <scene><instance_visual_scene url="#scene"/></scene>
<!-- vigil:double-sided -->
</COLLADA>
