<?xml version="1.0" encoding="utf-8"?>
<COLLADA xmlns="http://www.collada.org/2005/11/COLLADASchema" version="1.4.1">
  <asset>
    <contributor><authoring_tool>VIGIL SIH26126 farm generator</authoring_tool></contributor>
    <unit name="meter" meter="1"/>
    <up_axis>Z_UP</up_axis>
  </asset>
  <library_effects>
    <effect id="MAT_WEED_GRASS-fx"><profile_COMMON><technique sid="c"><lambert><diffuse><color>0.0980 0.1280 0.0300 1</color></diffuse></lambert></technique></profile_COMMON></effect>
    <effect id="MAT_WEED_BROAD-fx"><profile_COMMON><technique sid="c"><lambert><diffuse><color>0.0720 0.1520 0.0340 1</color></diffuse></lambert></technique></profile_COMMON></effect>
  </library_effects>
  <library_materials>
    <material id="MAT_WEED_GRASS" name="MAT_WEED_GRASS"><instance_effect url="#MAT_WEED_GRASS-fx"/></material>
    <material id="MAT_WEED_BROAD" name="MAT_WEED_BROAD"><instance_effect url="#MAT_WEED_BROAD-fx"/></material>
  </library_materials>
  <library_geometries>
    <geometry id="weeds_-03+01_foliage-mesh" name="weeds_-03+01_foliage">
      <mesh>
        <source id="weeds_-03+01_foliage-pos"><float_array id="weeds_-03+01_foliage-pos-a" count="1170">0.3003 -2.4882 -0.092287 0.30598 -2.4911 -0.092281 0.31582 -2.4686 -0.032986 0.31118 -2.4657 -0.032992 0.32546 -2.4458 -0.00049436 0.32227 -2.4434 -0.00049883 0.33504 -2.4229 -0.0080547 0.33344 -2.4214 -0.0080573 0.34463 -2.3997 -0.047661 0.34463 -2.3997 -0.047661 0.29906 -2.4889 -0.092286 0.30723 -2.4904 -0.092281 0.3107 -2.4649 -0.030164 0.3038 -2.4631 -0.030168 0.31381 -2.4392 0.0040608 0.30892 -2.4375 0.0040568 0.31676 -2.4134 -0.0034504 0.31422 -2.4122 -0.0034528 0.31963 -2.3873 -0.044496 0.31963 -2.3873 -0.044496 0.30602 -2.4917 -0.09228 0.30027 -2.4877 -0.092288 0.29015 -2.5045 -0.034586 0.29472 -2.5085 -0.034579 0.28022 -2.5218 0.00044905 0.28325 -2.5249 0.00045462 0.27032 -2.5393 0.00063032 0.27177 -2.5412 0.00063348 0.26037 -2.5572 -0.029628 0.26037 -2.5572 -0.029628 0.3012 -2.4944 -0.092277 0.30509 -2.4849 -0.09229 0.27308 -2.4712 -0.0081345 0.27066 -2.4797 -0.0081228 0.24113 -2.4581 0.037877 0.24008 -2.4645 0.037886 0.20946 -2.4455 0.026921 0.20927 -2.4489 0.026926 0.17813 -2.4332 -0.029532 0.17813 -2.4332 -0.029532 0.30345 -2.4926 -0.092279 0.30284 -2.4868 -0.092288 0.28146 -2.4895 -0.026369 0.28184 -2.4945 -0.026362 0.26007 -2.4925 0.014134 0.26024 -2.4961 0.014139 0.23866 -2.4957 0.015394 0.2387 -2.4977 0.015397 0.21722 -2.4991 -0.018031 0.21722 -2.4991 -0.018031 0.30076 -2.4891 -0.092285 0.30552 -2.4903 -0.092282 0.30972 -2.47 -0.034179 0.30556 -2.4694 -0.034181 0.31367 -2.4498 0.0010687 0.31063 -2.4497 0.0010677 0.31747 -2.4298 0.0011753 0.31586 -2.4299 0.001175 0.32119 -2.41 -0.029398 0.32119 -2.41 -0.029398 0.30606 -2.4874 -0.092286 0.30023 -2.492 -0.092281 0.31749 -2.5151 -0.014296 0.32277 -2.5116 -0.0143 0.33512 -2.5382 0.031146 0.33914 -2.536 0.031144 0.35303 -2.5614 0.027186 0.35526 -2.5604 0.027185 0.37117 -2.5848 -0.018313 0.37117 -2.5848 -0.018313 0.29893 -2.4903 -0.092284 0.30736 -2.4891 -0.092283 0.30146 -2.4494 -0.012983 0.29422 -2.4503 -0.012984 0.29519 -2.4098 0.024839 0.28993 -2.4104 0.024838 0.28869 -2.3704 0.0023082 0.28588 -2.3706 0.0023078 0.28203 -2.3309 -0.064279 0.28203 -2.3309 -0.064279 0.30037 -2.4893 -0.092285 0.30591 -2.4901 -0.092282 0.30928 -2.4582 -0.020739 0.30454 -2.4575 -0.020742 0.3124 -2.4264 0.016913 0.30897 -2.4258 0.016911 0.31539 -2.3946 0.0043696 0.31356 -2.3942 0.0043685 0.31828 -2.3627 -0.047171 0.31828 -2.3627 -0.047171 0.30114 -2.4863 -0.092289 0.30515 -2.493 -0.092278 0.32444 -2.4797 -0.037742 0.32167 -2.4736 -0.037752 0.34372 -2.466 -0.009233 0.34223 -2.4613 -0.0092403 0.36316 -2.452 -0.019217 0.36265 -2.4494 -0.01922 0.38284 -2.4378 -0.058958 0.38284 -2.4378 -0.058958 0.29967 -2.4888 -0.092286 0.30661 -2.4906 -0.092281 0.31464 -2.453 -0.015571 0.30863 -2.4518 -0.015575 0.32234 -2.4154 0.021419 0.31794 -2.4148 0.021416 0.32984 -2.3781 0.0005139 0.32748 -2.3779 0.00051291 0.33719 -2.3409 -0.06292 0.33719 -2.3409 -0.06292 0.29933 -2.4926 -0.092281 0.30696 -2.4868 -0.092287 0.28799 -2.4604 -0.0080223 0.28154 -2.4654 -0.0080169 0.2687 -2.4343 0.040442 0.26408 -2.438 0.040446 0.24926 -2.4085 0.034745 0.24682 -2.4105 0.034747 0.2297 -2.3829 -0.016008 0.2297 -2.3829 -0.016008 0.30664 -2.4891 -0.092284 0.29964 -2.4903 -0.092284 0.30415 -2.5159 -0.023522 0.31006 -2.5144 -0.023522 0.30898 -2.5413 0.016791 0.31318 -2.5399 0.01679 0.31397 -2.5667 0.013839 0.31616 -2.5657 0.013838 0.31906 -2.5918 -0.025686 0.31906 -2.5918 -0.025686 0.30039 -2.4869 -0.092289 0.30589 -2.4925 -0.092279 0.32346 -2.4725 -0.019099 0.31845 -2.468 -0.019107 0.34069 -2.4523 0.024339 0.33686 -2.4494 0.024333 0.35768 -2.4323 0.022368 0.35554 -2.4308 0.022366 0.37446 -2.4123 -0.018439 0.37446 -2.4123 -0.018439 0.29963 -2.4889 -0.092286 0.30665 -2.4905 -0.092282 0.31013 -2.4701 -0.031411 0.30412 -2.4688 -0.031415 0.31329 -2.4498 0.0062592 0.30894 -2.4488 0.0062565 0.31628 -2.4294 0.008013 0.31395 -2.4289 0.0080116 0.31912 -2.4091 -0.022217 0.31912 -2.4091 -0.022217 -0.11818 1.5952 -0.070615 -0.12493 1.599 -0.070405 -0.13465 1.5724 0.010141 -0.12914 1.5686 0.0099763 -0.14547 1.545 0.054635 -0.1417 1.5419 0.054527 -0.1582 1.5167 0.045264 -0.15632 1.5149 0.045214 -0.17254 1.4878 -0.0071994 -0.17254 1.4878 -0.0071994 -0.11664 1.5961 -0.070681 -0.12646 1.5982 -0.070339 -0.12845 1.5677 0.013771 -0.12019 1.5652 0.013491 -0.1314 1.5365 0.060356 -0.12555 1.5342 0.060163 -0.13623 1.5043 0.050808 -0.1332 1.5029 0.050711 -0.14263 1.4714 -0.0038385 -0.14263 1.4714 -0.0038385 -0.12495 1.5997 -0.070411 -0.11815 1.5945 -0.070609 -0.1025 1.616 0.0062707 -0.10788 1.621 0.006417 -0.088179 1.6376 0.052669 -0.091719 1.6416 0.052758 -0.075609 1.659 0.05219 -0.07729 1.6614 0.052227 -0.064468 1.6803 0.010766 -0.064468 1.6803 0.010766 -0.11904 1.603 -0.070665 -0.12407 1.5913 -0.070355 -0.08172 1.5745 0.041639 -0.078512 1.5849 0.04141 -0.04133 1.5578 0.10233 -0.039833 1.5657 0.10219 -0.0040607 1.5408 0.086408 -0.0037155 1.5451 0.08635 0.030535 1.5235 0.0093099 0.030535 1.5235 0.0093099 -0.12182 1.6007 -0.070538 -0.12129 1.5935 -0.070482 -0.092113 1.5971 0.017185 -0.092398 1.6034 0.01713 -0.064184 1.6008 0.070667 -0.064264 1.6053 0.070622 -0.038162 1.604 0.071367 -0.038139 1.6064 0.071341 -0.013807 1.6069 0.025416 -0.013807 1.6069 0.025416 -0.1187 1.5963 -0.070607 -0.12441 1.598 -0.070413 -0.1273 1.5739 0.0082455 -0.1223 1.573 0.0080692 -0.13102 1.5495 0.056153 -0.12735 1.5493 0.056019 -0.1363 1.5248 0.056792 -0.13434 1.5249 0.056718 -0.14298 1.4999 0.016162 -0.14298 1.4999 0.016162 -0.12515 1.5944 -0.070348 -0.11796 1.5999 -0.070672 -0.13413 1.6304 0.034587 -0.14063 1.6263 0.034871 -0.15237 1.6605 0.096098 -0.1573 1.6579 0.096307 -0.17339 1.6898 0.091179 -0.17611 1.6887 0.091292 -0.19674 1.7188 0.030404 -0.19674 1.7188 0.030404 -0.11644 1.5977 -0.070706 -0.12667 1.5965 -0.070314 -0.11699 1.5484 0.036724 -0.10822 1.5493 0.036389 -0.1089 1.4997 0.087962 -0.10253 1.5002 0.08772 -0.10355 1.4501 0.058023 -0.10014 1.4503 0.057895 -0.10017 1.3998 -0.031173 -0.10017 1.3998 -0.031173 -0.11822 1.5966 -0.070628 -0.12489 1.5977 -0.070392 -0.1265 1.5595 0.026493 -0.12081 1.5584 0.026293 -0.1295 1.5207 0.077789 -0.12539 1.5198 0.077645 -0.13483 1.4811 0.061573 -0.13264 1.4806 0.061497 -0.14198 1.4409 -0.0070937 -0.14198 1.4409 -0.0070937 -0.11925 1.5929 -0.07055 -0.12386 1.6014 -0.07047 -0.14491 1.5864 0.0039412 -0.14178 1.5787 0.003907 -0.16725 1.5705 0.043355 -0.16561 1.5647 0.043356 -0.1917 1.5537 0.031013 -0.19117 1.5505 0.031027 -0.21792 1.5361 -0.021336 -0.21792 1.5361 -0.021336 -0.1174 1.5959 -0.070651 -0.12571 1.5984 -0.070369 -0.1329 1.5532 0.033765 -0.12568 1.5516 0.033515 -0.14166 1.5075 0.084465 -0.13637 1.5066 0.084278 -0.15304 1.4611 0.057293 -0.1502 1.4608 0.057191 -0.16635 1.4142 -0.027084 -0.16635 1.4142 -0.027084 -0.11685 1.6006 -0.070721 -0.12626 1.5937 -0.070299 -0.1001 1.5616 0.042624 -0.092131 1.5676 0.042265 -0.075312 1.5293 0.10738 -0.069603 1.5338 0.10712 -0.053007 1.4965 0.099287 -0.049997 1.4989 0.099149 -0.032797 1.4632 0.03059 -0.032797 1.4632 0.03059 -0.1258 1.5965 -0.070346 -0.11731 1.5977 -0.070674 -0.11846 1.6308 0.02158 -0.12564 1.6292 0.021864 -0.12141 1.6632 0.075591 -0.12653 1.6616 0.075797 -0.12671 1.6947 0.071425 -0.12938 1.6937 0.071535 -0.13394 1.7255 0.018081 -0.13394 1.7255 0.018081 -0.11833 1.5936 -0.070592 -0.12477 1.6007 -0.070428 -0.14305 1.5777 0.029088 -0.13716 1.572 0.02893 -0.16239 1.5541 0.088594 -0.15788 1.5503 0.088466 -0.1837 1.5297 0.08702 -0.18117 1.5279 0.086946 -0.20667 1.5049 0.033205 -0.20667 1.5049 0.033205 -0.11735 1.596 -0.070654 -0.12576 1.5982 -0.070365 -0.12765 1.5741 0.011983 -0.12044 1.5722 0.011735 -0.1303 1.5496 0.063117 -0.12508 1.5482 0.062938 -0.13452 1.5244 0.065941 -0.13173 1.5237 0.065845 -0.14016 1.4988 0.025744 -0.14016 1.4988 0.025744 -0.18209 0.89274 -0.027862 -0.17581 0.8906 -0.030848 -0.17556 0.88684 -0.030926 -0.17796 0.88253 -0.029716 -0.18245 0.87857 -0.027738 -0.18994 0.87532 -0.025011 -0.19999 0.87431 -0.022296 -0.21062 0.87668 -0.020416 -0.21825 0.88169 -0.019602 -0.2219 0.88878 -0.019368 -0.21947 0.89649 -0.01967 -0.21277 0.90292 -0.020537 -0.20271 0.90735 -0.022449 -0.19265 0.90833 -0.025163 -0.18475 0.9066 -0.027867 -0.1797 0.90358 -0.029813 -0.17663 0.89981 -0.030986 -0.17626 0.89606 -0.030873 -0.18353 0.89291 0.02748 -0.18627 0.90121 0.018801 -0.1819 0.90633 0.018667 -0.17461 0.90985 0.022276 -0.1659 0.91099 0.028478 -0.15528 0.9084 0.037962 -0.14486 0.90033 0.049336 -0.13774 0.8871 0.059945 -0.1365 0.87315 0.066734 -0.14156 0.8603 0.069539 -0.15318 0.85255 0.066811 -0.16732 0.85057 0.060083 -0.18209 0.85434 0.049508 -0.1925 0.86244 0.038134 -0.1975 0.87197 0.028624 -0.19834 0.88054 0.022386 -0.19652 0.88829 0.018735 -0.19242 0.89362 0.01883 -0.186 0.89303 0.082821 -0.1902 0.88614 0.076283 -0.1961 0.8861 0.076156 -0.20247 0.88908 0.07884 -0.208 0.89443 0.083422 -0.212 0.90334 0.090319 -0.21214 0.91532 0.098378 -0.20694 0.92804 0.10564 -0.19806 0.93712 0.11015 -0.18649 0.94122 0.11197 -0.17485 0.93781 0.11017 -0.16579 0.92926 0.10568 -0.16034 0.91686 0.09842 -0.16022 0.90488 0.090361 -0.16404 0.89575 0.083458 -0.16945 0.89006 0.078867 -0.17576 0.88671 0.076173 -0.18165 0.88639 0.07629 -0.18949 0.89309 0.13816 -0.18361 0.89757 0.13519 -0.1804 0.89566 0.13511 -0.17848 0.89105 0.13634 -0.17822 0.88476 0.13827 -0.18053 0.87612 0.14073 -0.18639 0.8664 0.14275 -0.19537 0.85803 0.14357 -0.20452 0.85388 0.14346 -0.21271 0.85457 0.14326 -0.21732 0.86121 0.14341 -0.21805 0.87103 0.14349 -0.21494 0.88275 0.14265 -0.20907 0.89246 0.14063 -0.20245 0.89863 0.13818 -0.19667 0.90148 0.13627 -0.1916 0.90208 0.13507 -0.18833 0.90027 0.13517 -0.19401 0.8931 0.1935 -0.19942 0.89429 0.19189 -0.19992 0.8973 0.19179 -0.19826 0.90098 0.19237 -0.19485 0.90453 0.19329 -0.18896 0.90775 0.19445 -0.1809 0.90933 0.19534 -0.17223 0.90821 0.19557 -0.1658 0.90473 0.19539 -0.16236 0.89927 0.19526 -0.16367 0.8929 0.19544 -0.16845 0.88723 0.19567 -0.17615 0.88292 0.19546 -0.1842 0.88135 0.19457 -0.19081 0.88212 0.1934 -0.19522 0.88414 0.19244 -0.19806 0.88694 0.19184 -0.19863 0.88993 0.19192</float_array><technique_common><accessor source="#weeds_-03+01_foliage-pos-a" count="390" stride="3"><param name="X" type="float"/><param name="Y" type="float"/><param name="Z" type="float"/></accessor></technique_common></source>
        <source id="weeds_-03+01_foliage-nrm"><float_array id="weeds_-03+01_foliage-nrm-a" count="1950">-0.451 -0.805 0.385 -0.453 -0.743 0.494 -0.452 -0.739 0.5 -0.199 -0.317 0.927 -0.135 -0.226 0.965 0.376 0.441 0.815 0.425 0.492 0.76 0.569 0.643 0.513 -0.196 -0.902 0.386 -0.213 -0.843 0.494 -0.214 -0.84 0.499 -0.097 -0.364 0.927 -0.067 -0.27 0.96 0.219 0.526 0.822 0.246 0.584 0.774 0.34 0.783 0.521 0.575 0.75 0.325 0.588 0.699 0.406 0.589 0.696 0.411 0.39 0.418 0.821 0.324 0.347 0.88 -0.317 -0.245 0.916 -0.431 -0.333 0.839 -0.671 -0.521 0.528 0.875 -0.305 0.377 0.836 -0.245 0.49 0.84 -0.249 0.483 0.233 -0.076 0.969 0.389 -0.107 0.915 -0.679 0.049 0.732 -0.584 0.047 0.811 -0.869 0.048 0.493 0.946 0.087 0.312 0.917 0.072 0.391 0.917 0.072 0.392 0.565 0.036 0.824 0.538 0.035 0.842 -0.426 -0.006 0.905 -0.472 -0.007 0.882 -0.841 -0.015 0.541 -0.184 -0.925 0.332 -0.132 -0.898 0.42 -0.134 -0.9 0.415 -0.042 -0.457 0.888 -0.051 -0.556 0.829 -0.045 0.542 0.839 -0.033 0.393 0.919 -0.069 0.841 0.536 -0.548 0.76 0.35 -0.497 0.745 0.444 -0.494 0.744 0.449 -0.251 0.404 0.88 -0.203 0.323 0.924 0.198 -0.444 0.874 0.235 -0.531 0.814 0.337 -0.776 0.533 0.12 -0.884 0.452 0.102 -0.796 0.597 0.102 -0.795 0.598 0.021 -0.14 0.99 0.019 -0.119 0.993 -0.068 0.687 0.724 -0.069 0.694 0.716 -0.082 0.854 0.514 -0.129 -0.903 0.409 -0.127 -0.837 0.532 -0.127 -0.836 0.533 -0.038 -0.259 0.965 -0.034 -0.235 0.971 0.115 0.62 0.776 0.118 0.633 0.766 0.159 0.836 0.525 -0.812 -0.426 0.398 -0.777 -0.362 0.515 -0.773 -0.357 0.524 -0.31 -0.145 0.94 -0.147 -0.087 0.985 0.615 0.143 0.776 0.693 0.153 0.704 0.857 0.172 0.486 -0.198 -0.873 0.446 -0.159 -0.79 0.593 -0.161 -0.793 0.587 -0.034 -0.097 0.995 -0.046 -0.177 0.983 0.063 0.704 0.707 0.062 0.676 0.735 0.066 0.857 0.51 0.568 -0.741 0.359 0.546 -0.701 0.46 0.546 -0.701 0.459 0.244 -0.31 0.919 0.257 -0.326 0.91 -0.356 0.429 0.83 -0.345 0.415 0.842 -0.542 0.648 0.535 -0.188 0.918 0.351 -0.21 0.869 0.447 -0.209 0.871 0.444 -0.103 0.384 0.917 -0.126 0.463 0.878 0.216 -0.522 0.825 0.182 -0.443 0.878 0.326 -0.778 0.537 -0.649 -0.681 0.339 -0.602 -0.672 0.431 -0.604 -0.673 0.428 -0.281 -0.331 0.901 -0.327 -0.386 0.863 0.305 0.455 0.837 0.258 0.384 0.886 0.468 0.702 0.536 -0.205 -0.925 0.321 -0.198 -0.895 0.401 -0.12 -0.541 0.832 -0.12 -0.542 0.832 0.088 0.404 0.91 0.088 0.404 0.911 0.178 0.809 0.561 0.502 0.8 0.329 0.509 0.743 0.434 0.509 0.74 0.439 0.262 0.344 0.902 0.191 0.25 0.949 -0.39 -0.441 0.808 -0.441 -0.49 0.752 -0.591 -0.627 0.508 0.243 0.909 0.34 0.265 0.856 0.444 0.266 0.853 0.449 0.152 0.397 0.905 0.118 0.3 0.947 -0.223 -0.537 0.814 -0.254 -0.594 0.763 -0.361 -0.78 0.512 -0.6 -0.728 0.331 -0.612 -0.679 0.406 -0.612 -0.676 0.411 -0.403 -0.416 0.815 -0.331 -0.347 0.877 0.387 0.262 0.884 0.505 0.347 0.791 0.727 0.511 0.459 -0.867 0.332 0.372 -0.833 0.274 0.48 -0.836 0.278 0.472 -0.22 0.1 0.97 -0.388 0.137 0.911 0.741 -0.062 0.669 0.651 -0.058 0.757 0.904 -0.068 0.421 -0.946 -0.055 0.318 -0.919 -0.041 0.391 -0.919 -0.04 0.392 -0.577 -0.011 0.817 -0.55 -0.01 0.835 0.497 0.004 0.868 0.543 0.003 0.84 0.884 -0.004 0.468 0.229 0.929 0.289 0.178 0.91 0.375 0.181 0.911 0.37 0.092 0.496 0.864 0.102 0.595 0.797 0.061 -0.564 0.824 0.057 -0.411 0.91 0.065 -0.855 0.514 0.553 -0.773 0.313 0.507 -0.761 0.404 0.505 -0.76 0.409 0.292 -0.426 0.856 0.246 -0.341 0.907 -0.171 0.488 0.856 -0.208 0.575 0.791 -0.311 0.806 0.503 -0.082 0.906 0.416 -0.063 0.827 0.559 -0.063 0.826 0.56 0.017 0.165 0.986 0.02 0.141 0.99 0.077 -0.709 0.701 0.078 -0.716 0.694 0.077 -0.867 0.492 0.175 0.915 0.364 0.176 0.857 0.485 0.176 0.856 0.486 0.086 0.29 0.953 0.081 0.264 0.961 -0.116 -0.637 0.762 -0.119 -0.649 0.752 -0.174 -0.842 0.511 0.853 0.404 0.329 0.828 0.346 0.442 0.825 0.341 0.451 0.379 0.156 0.912 0.202 0.102 0.974 -0.631 -0.12 0.767 -0.709 -0.128 0.693 -0.865 -0.141 0.481 0.247 0.883 0.398 0.212 0.812 0.544 0.214 0.815 0.538 0.077 0.116 0.99 0.092 0.202 0.975 -0.064 -0.721 0.69 -0.062 -0.694 0.718 -0.078 -0.866 0.494 -0.549 0.762 0.343 -0.528 0.727 0.439 -0.528 0.728 0.438 -0.225 0.35 0.91 -0.238 0.366 0.9 0.401 -0.452 0.797 0.39 -0.438 0.81 0.563 -0.667 0.488 0.179 -0.927 0.331 0.208 -0.882 0.422 0.207 -0.884 0.418 0.134 -0.403 0.905 0.154 -0.485 0.861 -0.187 0.566 0.803 -0.152 0.486 0.861 -0.299 0.809 0.507 0.695 0.663 0.278 0.654 0.661 0.368 0.656 0.661 0.364 0.35 0.354 0.868 0.397 0.407 0.822 -0.313 -0.46 0.831 -0.261 -0.39 0.883 -0.49 -0.693 0.529 0.25 0.928 0.277 0.246 0.902 0.354 0.177 0.577 0.797 -0.077 -0.418 0.905 -0.077 -0.417 0.905 -0.192 -0.815 0.546 -0.334 -0.032 -0.942 -0.432 -0.009 -0.902 -0.433 -0.011 -0.901 -0.415 -0.002 -0.91 -0.362 0.001 -0.932 -0.279 -0.031 -0.96 -0.211 -0.089 -0.973 -0.188 -0.118 -0.975 -0.196 -0.089 -0.977 -0.207 -0.021 -0.978 -0.209 0.046 -0.977 -0.207 0.077 -0.975 -0.224 0.044 -0.974 -0.28 -0.024 -0.96 -0.355 -0.069 -0.932 -0.408 -0.074 -0.91 -0.428 -0.068 -0.901 -0.426 -0.069 -0.902 0.541 -0.44 -0.717 0.566 -0.499 -0.656 0.565 -0.5 -0.656 0.553 -0.497 -0.669 0.529 -0.477 -0.702 0.511 -0.428 -0.746 0.51 -0.369 -0.777 0.514 -0.342 -0.787 0.505 -0.358 -0.785 0.481 -0.392 -0.784 0.453 -0.424 -0.784 0.439 -0.436 -0.785 0.465 -0.426 -0.776 0.522 -0.414 -0.746 0.574 -0.421 -0.702 0.598 -0.44 -0.67 0.603 -0.452 -0.657 -0.018 0.611 -0.791 0.012 0.684 -0.729 0.019 0.67 -0.742 0.019 0.631 -0.776 -0.008 0.574 -0.819 -0.055 0.527 -0.848 -0.08 0.51 -0.856 -0.061 0.514 -0.856 -0.015 0.517 -0.856 0.032 0.515 -0.857 0.051 0.512 -0.857 0.025 0.529 -0.849 -0.025 0.574 -0.818 -0.055 0.63 -0.775 -0.057 0.668 -0.742 -0.052 0.683 -0.728 -0.051 0.683 -0.728 -0.135 -0.242 -0.961 -0.216 -0.327 -0.92 -0.215 -0.331 -0.919 -0.211 -0.309 -0.927 -0.176 -0.251 -0.952 -0.078 -0.189 -0.979 0.036 -0.165 -0.986 0.081 -0.165 -0.983 0.035 -0.147 -0.988 -0.053 -0.099 -0.994 -0.137 -0.043 -0.99 -0.175 -0.011 -0.984 -0.153 -0.051 -0.987 -0.118 -0.166 -0.979 -0.123 -0.283 -0.951 -0.156 -0.342 -0.927 -0.173 -0.356 -0.918 -0.168 -0.356 -0.919 0.182 0.028 -0.983 0.288 0.016 -0.958 0.289 0.017 -0.957 0.27 0.007 -0.963 0.215 -0.002 -0.977 0.128 0.02 -0.992 0.054 0.069 -0.996 0.029 0.095 -0.995 0.038 0.068 -0.997 0.054 0.005 -0.999 0.063 -0.059 -0.996 0.064 -0.088 -0.994 0.078 -0.054 -0.995 0.129 0.017 -0.992 0.201 0.068 -0.977 0.256 0.079 -0.963 0.277 0.076 -0.958 0.276 0.076 -0.958 0.451 0.805 -0.385 0.453 0.743 -0.494 0.452 0.739 -0.5 0.199 0.317 -0.927 0.135 0.226 -0.965 -0.376 -0.441 -0.815 -0.425 -0.492 -0.76 -0.569 -0.643 -0.513 0.196 0.902 -0.386 0.213 0.843 -0.494 0.214 0.84 -0.499 0.097 0.364 -0.927 0.067 0.27 -0.96 -0.219 -0.526 -0.822 -0.246 -0.584 -0.774 -0.34 -0.783 -0.521 -0.575 -0.75 -0.325 -0.588 -0.699 -0.406 -0.589 -0.696 -0.411 -0.39 -0.418 -0.821 -0.324 -0.347 -0.88 0.317 0.245 -0.916 0.431 0.333 -0.839 0.671 0.521 -0.528 -0.875 0.305 -0.377 -0.836 0.245 -0.49 -0.84 0.249 -0.483 -0.233 0.076 -0.969 -0.389 0.107 -0.915 0.679 -0.049 -0.732 0.584 -0.047 -0.811 0.869 -0.048 -0.493 -0.946 -0.087 -0.312 -0.917 -0.072 -0.391 -0.917 -0.072 -0.392 -0.565 -0.036 -0.824 -0.538 -0.035 -0.842 0.426 0.006 -0.905 0.472 0.007 -0.882 0.841 0.015 -0.541 0.184 0.925 -0.332 0.132 0.898 -0.42 0.134 0.9 -0.415 0.042 0.457 -0.888 0.051 0.556 -0.829 0.045 -0.542 -0.839 0.033 -0.393 -0.919 0.069 -0.841 -0.536 0.548 -0.76 -0.35 0.497 -0.745 -0.444 0.494 -0.744 -0.449 0.251 -0.404 -0.88 0.203 -0.323 -0.924 -0.198 0.444 -0.874 -0.235 0.531 -0.814 -0.337 0.776 -0.533 -0.12 0.884 -0.452 -0.102 0.796 -0.597 -0.102 0.795 -0.598 -0.021 0.14 -0.99 -0.019 0.119 -0.993 0.068 -0.687 -0.724 0.069 -0.694 -0.716 0.082 -0.854 -0.514 0.129 0.903 -0.409 0.127 0.837 -0.532 0.127 0.836 -0.533 0.038 0.259 -0.965 0.034 0.235 -0.971 -0.115 -0.62 -0.776 -0.118 -0.633 -0.766 -0.159 -0.836 -0.525 0.812 0.426 -0.398 0.777 0.362 -0.515 0.773 0.357 -0.524 0.31 0.145 -0.94 0.147 0.087 -0.985 -0.615 -0.143 -0.776 -0.693 -0.153 -0.704 -0.857 -0.172 -0.486 0.198 0.873 -0.446 0.159 0.79 -0.593 0.161 0.793 -0.587 0.034 0.097 -0.995 0.046 0.177 -0.983 -0.063 -0.704 -0.707 -0.062 -0.676 -0.735 -0.066 -0.857 -0.51 -0.568 0.741 -0.359 -0.546 0.701 -0.46 -0.546 0.701 -0.459 -0.244 0.31 -0.919 -0.257 0.326 -0.91 0.356 -0.429 -0.83 0.345 -0.415 -0.842 0.542 -0.648 -0.535 0.188 -0.918 -0.351 0.21 -0.869 -0.447 0.209 -0.871 -0.444 0.103 -0.384 -0.917 0.126 -0.463 -0.878 -0.216 0.522 -0.825 -0.182 0.443 -0.878 -0.326 0.778 -0.537 0.649 0.681 -0.339 0.602 0.672 -0.431 0.604 0.673 -0.428 0.281 0.331 -0.901 0.327 0.386 -0.863 -0.305 -0.455 -0.837 -0.258 -0.384 -0.886 -0.468 -0.702 -0.536 0.205 0.925 -0.321 0.198 0.895 -0.401 0.12 0.541 -0.832 0.12 0.542 -0.832 -0.088 -0.404 -0.91 -0.088 -0.404 -0.911 -0.178 -0.809 -0.561 -0.502 -0.8 -0.329 -0.509 -0.743 -0.434 -0.509 -0.74 -0.439 -0.262 -0.344 -0.902 -0.191 -0.25 -0.949 0.39 0.441 -0.808 0.441 0.49 -0.752 0.591 0.627 -0.508 -0.243 -0.909 -0.34 -0.265 -0.856 -0.444 -0.266 -0.853 -0.449 -0.152 -0.397 -0.905 -0.118 -0.3 -0.947 0.223 0.537 -0.814 0.254 0.594 -0.763 0.361 0.78 -0.512 0.6 0.728 -0.331 0.612 0.679 -0.406 0.612 0.676 -0.411 0.403 0.416 -0.815 0.331 0.347 -0.877 -0.387 -0.262 -0.884 -0.505 -0.347 -0.791 -0.727 -0.511 -0.459 0.867 -0.332 -0.372 0.833 -0.274 -0.48 0.836 -0.278 -0.472 0.22 -0.1 -0.97 0.388 -0.137 -0.911 -0.741 0.062 -0.669 -0.651 0.058 -0.757 -0.904 0.068 -0.421 0.946 0.055 -0.318 0.919 0.041 -0.391 0.919 0.04 -0.392 0.577 0.011 -0.817 0.55 0.01 -0.835 -0.497 -0.004 -0.868 -0.543 -0.003 -0.84 -0.884 0.004 -0.468 -0.229 -0.929 -0.289 -0.178 -0.91 -0.375 -0.181 -0.911 -0.37 -0.092 -0.496 -0.864 -0.102 -0.595 -0.797 -0.061 0.564 -0.824 -0.057 0.411 -0.91 -0.065 0.855 -0.514 -0.553 0.773 -0.313 -0.507 0.761 -0.404 -0.505 0.76 -0.409 -0.292 0.426 -0.856 -0.246 0.341 -0.907 0.171 -0.488 -0.856 0.208 -0.575 -0.791 0.311 -0.806 -0.503 0.082 -0.906 -0.416 0.063 -0.827 -0.559 0.063 -0.826 -0.56 -0.017 -0.165 -0.986 -0.02 -0.141 -0.99 -0.077 0.709 -0.701 -0.078 0.716 -0.694 -0.077 0.867 -0.492 -0.175 -0.915 -0.364 -0.176 -0.857 -0.485 -0.176 -0.856 -0.486 -0.086 -0.29 -0.953 -0.081 -0.264 -0.961 0.116 0.637 -0.762 0.119 0.649 -0.752 0.174 0.842 -0.511 -0.853 -0.404 -0.329 -0.828 -0.346 -0.442 -0.825 -0.341 -0.451 -0.379 -0.156 -0.912 -0.202 -0.102 -0.974 0.631 0.12 -0.767 0.709 0.128 -0.693 0.865 0.141 -0.481 -0.247 -0.883 -0.398 -0.212 -0.812 -0.544 -0.214 -0.815 -0.538 -0.077 -0.116 -0.99 -0.092 -0.202 -0.975 0.064 0.721 -0.69 0.062 0.694 -0.718 0.078 0.866 -0.494 0.549 -0.762 -0.343 0.528 -0.727 -0.439 0.528 -0.728 -0.438 0.225 -0.35 -0.91 0.238 -0.366 -0.9 -0.401 0.452 -0.797 -0.39 0.438 -0.81 -0.563 0.667 -0.488 -0.179 0.927 -0.331 -0.208 0.882 -0.422 -0.207 0.884 -0.418 -0.134 0.403 -0.905 -0.154 0.485 -0.861 0.187 -0.566 -0.803 0.152 -0.486 -0.861 0.299 -0.809 -0.507 -0.695 -0.663 -0.278 -0.654 -0.661 -0.368 -0.656 -0.661 -0.364 -0.35 -0.354 -0.868 -0.397 -0.407 -0.822 0.313 0.46 -0.831 0.261 0.39 -0.883 0.49 0.693 -0.529 -0.25 -0.928 -0.277 -0.246 -0.902 -0.354 -0.177 -0.577 -0.797 0.077 0.418 -0.905 0.077 0.417 -0.905 0.192 0.815 -0.546 0.334 0.032 0.942 0.432 0.009 0.902 0.433 0.011 0.901 0.415 0.002 0.91 0.362 -0.001 0.932 0.279 0.031 0.96 0.211 0.089 0.973 0.188 0.118 0.975 0.196 0.089 0.977 0.207 0.021 0.978 0.209 -0.046 0.977 0.207 -0.077 0.975 0.224 -0.044 0.974 0.28 0.024 0.96 0.355 0.069 0.932 0.408 0.074 0.91 0.428 0.068 0.901 0.426 0.069 0.902 -0.541 0.44 0.717 -0.566 0.499 0.656 -0.565 0.5 0.656 -0.553 0.497 0.669 -0.529 0.477 0.702 -0.511 0.428 0.746 -0.51 0.369 0.777 -0.514 0.342 0.787 -0.505 0.358 0.785 -0.481 0.392 0.784 -0.453 0.424 0.784 -0.439 0.436 0.785 -0.465 0.426 0.776 -0.522 0.414 0.746 -0.574 0.421 0.702 -0.598 0.44 0.67 -0.603 0.452 0.657 0.018 -0.611 0.791 -0.012 -0.684 0.729 -0.019 -0.67 0.742 -0.019 -0.631 0.776 0.008 -0.574 0.819 0.055 -0.527 0.848 0.08 -0.51 0.856 0.061 -0.514 0.856 0.015 -0.517 0.856 -0.032 -0.515 0.857 -0.051 -0.512 0.857 -0.025 -0.529 0.849 0.025 -0.574 0.818 0.055 -0.63 0.775 0.057 -0.668 0.742 0.052 -0.683 0.728 0.051 -0.683 0.728 0.135 0.242 0.961 0.216 0.327 0.92 0.215 0.331 0.919 0.211 0.309 0.927 0.176 0.251 0.952 0.078 0.189 0.979 -0.036 0.165 0.986 -0.081 0.165 0.983 -0.035 0.147 0.988 0.053 0.099 0.994 0.137 0.043 0.99 0.175 0.011 0.984 0.153 0.051 0.987 0.118 0.166 0.979 0.123 0.283 0.951 0.156 0.342 0.927 0.173 0.356 0.918 0.168 0.356 0.919 -0.182 -0.028 0.983 -0.288 -0.016 0.958 -0.289 -0.017 0.957 -0.27 -0.007 0.963 -0.215 0.002 0.977 -0.128 -0.02 0.992 -0.054 -0.069 0.996 -0.029 -0.095 0.995 -0.038 -0.068 0.997 -0.054 -0.005 0.999 -0.063 0.059 0.996 -0.064 0.088 0.994 -0.078 0.054 0.995 -0.129 -0.017 0.992 -0.201 -0.068 0.977 -0.256 -0.079 0.963 -0.277 -0.076 0.958 -0.276 -0.076 0.958</float_array><technique_common><accessor source="#weeds_-03+01_foliage-nrm-a" count="650" stride="3"><param name="X" type="float"/><param name="Y" type="float"/><param name="Z" type="float"/></accessor></technique_common></source>
        <vertices id="weeds_-03+01_foliage-vtx"><input semantic="POSITION" source="#weeds_-03+01_foliage-pos"/></vertices>
        <triangles count="480" material="MAT_WEED_GRASS-mat"><input semantic="VERTEX" source="#weeds_-03+01_foliage-vtx" offset="0"/><input semantic="NORMAL" source="#weeds_-03+01_foliage-nrm" offset="1"/><p>0 0 1 0 2 1 0 0 2 1 3 2 3 2 2 1 4 3 3 2 4 3 5 4 5 4 4 3 6 5 5 4 6 5 7 6 7 6 6 5 8 7 7 6 8 7 9 7 10 8 11 8 12 9 10 8 12 9 13 10 13 10 12 9 14 11 13 10 14 11 15 12 15 12 14 11 16 13 15 12 16 13 17 14 17 14 16 13 18 15 17 14 18 15 19 15 20 16 21 16 22 17 20 16 22 17 23 18 23 18 22 17 24 19 23 18 24 19 25 20 25 20 24 19 26 21 25 20 26 21 27 22 27 22 26 21 28 23 27 22 28 23 29 23 30 24 31 24 32 25 30 24 32 25 33 26 33 26 32 25 34 27 33 26 34 27 35 28 35 28 34 27 36 29 35 28 36 29 37 30 37 30 36 29 38 31 37 30 38 31 39 31 40 32 41 32 42 33 40 32 42 33 43 34 43 34 42 33 44 35 43 34 44 35 45 36 45 36 44 35 46 37 45 36 46 37 47 38 47 38 46 37 48 39 47 38 48 39 49 39 50 40 51 40 52 41 50 40 52 41 53 42 53 42 52 41 54 43 53 42 54 43 55 44 55 44 54 43 56 45 55 44 56 45 57 46 57 46 56 45 58 47 57 46 58 47 59 47 60 48 61 48 62 49 60 48 62 49 63 50 63 50 62 49 64 51 63 50 64 51 65 52 65 52 64 51 66 53 65 52 66 53 67 54 67 54 66 53 68 55 67 54 68 55 69 55 70 56 71 56 72 57 70 56 72 57 73 58 73 58 72 57 74 59 73 58 74 59 75 60 75 60 74 59 76 61 75 60 76 61 77 62 77 62 76 61 78 63 77 62 78 63 79 63 80 64 81 64 82 65 80 64 82 65 83 66 83 66 82 65 84 67 83 66 84 67 85 68 85 68 84 67 86 69 85 68 86 69 87 70 87 70 86 69 88 71 87 70 88 71 89 71 90 72 91 72 92 73 90 72 92 73 93 74 93 74 92 73 94 75 93 74 94 75 95 76 95 76 94 75 96 77 95 76 96 77 97 78 97 78 96 77 98 79 97 78 98 79 99 79 100 80 101 80 102 81 100 80 102 81 103 82 103 82 102 81 104 83 103 82 104 83 105 84 105 84 104 83 106 85 105 84 106 85 107 86 107 86 106 85 108 87 107 86 108 87 109 87 110 88 111 88 112 89 110 88 112 89 113 90 113 90 112 89 114 91 113 90 114 91 115 92 115 92 114 91 116 93 115 92 116 93 117 94 117 94 116 93 118 95 117 94 118 95 119 95 120 96 121 96 122 97 120 96 122 97 123 98 123 98 122 97 124 99 123 98 124 99 125 100 125 100 124 99 126 101 125 100 126 101 127 102 127 102 126 101 128 103 127 102 128 103 129 103 130 104 131 104 132 105 130 104 132 105 133 106 133 106 132 105 134 107 133 106 134 107 135 108 135 108 134 107 136 109 135 108 136 109 137 110 137 110 136 109 138 111 137 110 138 111 139 111 140 112 141 112 142 113 140 112 142 113 143 113 143 113 142 113 144 114 143 113 144 114 145 115 145 115 144 114 146 116 145 115 146 116 147 117 147 117 146 116 148 118 147 117 148 118 149 118 150 119 151 119 152 120 150 119 152 120 153 121 153 121 152 120 154 122 153 121 154 122 155 123 155 123 154 122 156 124 155 123 156 124 157 125 157 125 156 124 158 126 157 125 158 126 159 126 160 127 161 127 162 128 160 127 162 128 163 129 163 129 162 128 164 130 163 129 164 130 165 131 165 131 164 130 166 132 165 131 166 132 167 133 167 133 166 132 168 134 167 133 168 134 169 134 170 135 171 135 172 136 170 135 172 136 173 137 173 137 172 136 174 138 173 137 174 138 175 139 175 139 174 138 176 140 175 139 176 140 177 141 177 141 176 140 178 142 177 141 178 142 179 142 180 143 181 143 182 144 180 143 182 144 183 145 183 145 182 144 184 146 183 145 184 146 185 147 185 147 184 146 186 148 185 147 186 148 187 149 187 149 186 148 188 150 187 149 188 150 189 150 190 151 191 151 192 152 190 151 192 152 193 153 193 153 192 152 194 154 193 153 194 154 195 155 195 155 194 154 196 156 195 155 196 156 197 157 197 157 196 156 198 158 197 157 198 158 199 158 200 159 201 159 202 160 200 159 202 160 203 161 203 161 202 160 204 162 203 161 204 162 205 163 205 163 204 162 206 164 205 163 206 164 207 165 207 165 206 164 208 166 207 165 208 166 209 166 210 167 211 167 212 168 210 167 212 168 213 169 213 169 212 168 214 170 213 169 214 170 215 171 215 171 214 170 216 172 215 171 216 172 217 173 217 173 216 172 218 174 217 173 218 174 219 174 220 175 221 175 222 176 220 175 222 176 223 177 223 177 222 176 224 178 223 177 224 178 225 179 225 179 224 178 226 180 225 179 226 180 227 181 227 181 226 180 228 182 227 181 228 182 229 182 230 183 231 183 232 184 230 183 232 184 233 185 233 185 232 184 234 186 233 185 234 186 235 187 235 187 234 186 236 188 235 187 236 188 237 189 237 189 236 188 238 190 237 189 238 190 239 190 240 191 241 191 242 192 240 191 242 192 243 193 243 193 242 192 244 194 243 193 244 194 245 195 245 195 244 194 246 196 245 195 246 196 247 197 247 197 246 196 248 198 247 197 248 198 249 198 250 199 251 199 252 200 250 199 252 200 253 201 253 201 252 200 254 202 253 201 254 202 255 203 255 203 254 202 256 204 255 203 256 204 257 205 257 205 256 204 258 206 257 205 258 206 259 206 260 207 261 207 262 208 260 207 262 208 263 209 263 209 262 208 264 210 263 209 264 210 265 211 265 211 264 210 266 212 265 211 266 212 267 213 267 213 266 212 268 214 267 213 268 214 269 214 270 215 271 215 272 216 270 215 272 216 273 217 273 217 272 216 274 218 273 217 274 218 275 219 275 219 274 218 276 220 275 219 276 220 277 221 277 221 276 220 278 222 277 221 278 222 279 222 280 223 281 223 282 224 280 223 282 224 283 225 283 225 282 224 284 226 283 225 284 226 285 227 285 227 284 226 286 228 285 227 286 228 287 229 287 229 286 228 288 230 287 229 288 230 289 230 290 231 291 231 292 232 290 231 292 232 293 232 293 232 292 232 294 233 293 232 294 233 295 233 295 233 294 233 296 234 295 233 296 234 297 235 297 235 296 234 298 236 297 235 298 236 299 236 0 325 2 326 1 325 0 325 3 327 2 326 3 327 4 328 2 326 3 327 5 329 4 328 5 329 6 330 4 328 5 329 7 331 6 330 7 331 8 332 6 330 7 331 9 332 8 332 10 333 12 334 11 333 10 333 13 335 12 334 13 335 14 336 12 334 13 335 15 337 14 336 15 337 16 338 14 336 15 337 17 339 16 338 17 339 18 340 16 338 17 339 19 340 18 340 20 341 22 342 21 341 20 341 23 343 22 342 23 343 24 344 22 342 23 343 25 345 24 344 25 345 26 346 24 344 25 345 27 347 26 346 27 347 28 348 26 346 27 347 29 348 28 348 30 349 32 350 31 349 30 349 33 351 32 350 33 351 34 352 32 350 33 351 35 353 34 352 35 353 36 354 34 352 35 353 37 355 36 354 37 355 38 356 36 354 37 355 39 356 38 356 40 357 42 358 41 357 40 357 43 359 42 358 43 359 44 360 42 358 43 359 45 361 44 360 45 361 46 362 44 360 45 361 47 363 46 362 47 363 48 364 46 362 47 363 49 364 48 364 50 365 52 366 51 365 50 365 53 367 52 366 53 367 54 368 52 366 53 367 55 369 54 368 55 369 56 370 54 368 55 369 57 371 56 370 57 371 58 372 56 370 57 371 59 372 58 372 60 373 62 374 61 373 60 373 63 375 62 374 63 375 64 376 62 374 63 375 65 377 64 376 65 377 66 378 64 376 65 377 67 379 66 378 67 379 68 380 66 378 67 379 69 380 68 380 70 381 72 382 71 381 70 381 73 383 72 382 73 383 74 384 72 382 73 383 75 385 74 384 75 385 76 386 74 384 75 385 77 387 76 386 77 387 78 388 76 386 77 387 79 388 78 388 80 389 82 390 81 389 80 389 83 391 82 390 83 391 84 392 82 390 83 391 85 393 84 392 85 393 86 394 84 392 85 393 87 395 86 394 87 395 88 396 86 394 87 395 89 396 88 396 90 397 92 398 91 397 90 397 93 399 92 398 93 399 94 400 92 398 93 399 95 401 94 400 95 401 96 402 94 400 95 401 97 403 96 402 97 403 98 404 96 402 97 403 99 404 98 404 100 405 102 406 101 405 100 405 103 407 102 406 103 407 104 408 102 406 103 407 105 409 104 408 105 409 106 410 104 408 105 409 107 411 106 410 107 411 108 412 106 410 107 411 109 412 108 412 110 413 112 414 111 413 110 413 113 415 112 414 113 415 114 416 112 414 113 415 115 417 114 416 115 417 116 418 114 416 115 417 117 419 116 418 117 419 118 420 116 418 117 419 119 420 118 420 120 421 122 422 121 421 120 421 123 423 122 422 123 423 124 424 122 422 123 423 125 425 124 424 125 425 126 426 124 424 125 425 127 427 126 426 127 427 128 428 126 426 127 427 129 428 128 428 130 429 132 430 131 429 130 429 133 431 132 430 133 431 134 432 132 430 133 431 135 433 134 432 135 433 136 434 134 432 135 433 137 435 136 434 137 435 138 436 136 434 137 435 139 436 138 436 140 437 142 438 141 437 140 437 143 438 142 438 143 438 144 439 142 438 143 438 145 440 144 439 145 440 146 441 144 439 145 440 147 442 146 441 147 442 148 443 146 441 147 442 149 443 148 443 150 444 152 445 151 444 150 444 153 446 152 445 153 446 154 447 152 445 153 446 155 448 154 447 155 448 156 449 154 447 155 448 157 450 156 449 157 450 158 451 156 449 157 450 159 451 158 451 160 452 162 453 161 452 160 452 163 454 162 453 163 454 164 455 162 453 163 454 165 456 164 455 165 456 166 457 164 455 165 456 167 458 166 457 167 458 168 459 166 457 167 458 169 459 168 459 170 460 172 461 171 460 170 460 173 462 172 461 173 462 174 463 172 461 173 462 175 464 174 463 175 464 176 465 174 463 175 464 177 466 176 465 177 466 178 467 176 465 177 466 179 467 178 467 180 468 182 469 181 468 180 468 183 470 182 469 183 470 184 471 182 469 183 470 185 472 184 471 185 472 186 473 184 471 185 472 187 474 186 473 187 474 188 475 186 473 187 474 189 475 188 475 190 476 192 477 191 476 190 476 193 478 192 477 193 478 194 479 192 477 193 478 195 480 194 479 195 480 196 481 194 479 195 480 197 482 196 481 197 482 198 483 196 481 197 482 199 483 198 483 200 484 202 485 201 484 200 484 203 486 202 485 203 486 204 487 202 485 203 486 205 488 204 487 205 488 206 489 204 487 205 488 207 490 206 489 207 490 208 491 206 489 207 490 209 491 208 491 210 492 212 493 211 492 210 492 213 494 212 493 213 494 214 495 212 493 213 494 215 496 214 495 215 496 216 497 214 495 215 496 217 498 216 497 217 498 218 499 216 497 217 498 219 499 218 499 220 500 222 501 221 500 220 500 223 502 222 501 223 502 224 503 222 501 223 502 225 504 224 503 225 504 226 505 224 503 225 504 227 506 226 505 227 506 228 507 226 505 227 506 229 507 228 507 230 508 232 509 231 508 230 508 233 510 232 509 233 510 234 511 232 509 233 510 235 512 234 511 235 512 236 513 234 511 235 512 237 514 236 513 237 514 238 515 236 513 237 514 239 515 238 515 240 516 242 517 241 516 240 516 243 518 242 517 243 518 244 519 242 517 243 518 245 520 244 519 245 520 246 521 244 519 245 520 247 522 246 521 247 522 248 523 246 521 247 522 249 523 248 523 250 524 252 525 251 524 250 524 253 526 252 525 253 526 254 527 252 525 253 526 255 528 254 527 255 528 256 529 254 527 255 528 257 530 256 529 257 530 258 531 256 529 257 530 259 531 258 531 260 532 262 533 261 532 260 532 263 534 262 533 263 534 264 535 262 533 263 534 265 536 264 535 265 536 266 537 264 535 265 536 267 538 266 537 267 538 268 539 266 537 267 538 269 539 268 539 270 540 272 541 271 540 270 540 273 542 272 541 273 542 274 543 272 541 273 542 275 544 274 543 275 544 276 545 274 543 275 544 277 546 276 545 277 546 278 547 276 545 277 546 279 547 278 547 280 548 282 549 281 548 280 548 283 550 282 549 283 550 284 551 282 549 283 550 285 552 284 551 285 552 286 553 284 551 285 552 287 554 286 553 287 554 288 555 286 553 287 554 289 555 288 555 290 556 292 557 291 556 290 556 293 557 292 557 293 557 294 558 292 557 293 557 295 558 294 558 295 558 296 559 294 558 295 558 297 560 296 559 297 560 298 561 296 559 297 560 299 561 298 561</p></triangles>
        <triangles count="160" material="MAT_WEED_BROAD-mat"><input semantic="VERTEX" source="#weeds_-03+01_foliage-vtx" offset="0"/><input semantic="NORMAL" source="#weeds_-03+01_foliage-nrm" offset="1"/><p>300 237 301 238 302 239 300 237 302 239 303 240 300 237 303 240 304 241 300 237 304 241 305 242 300 237 305 242 306 243 300 237 306 243 307 244 300 237 307 244 308 245 300 237 308 245 309 246 300 237 309 246 310 247 300 237 310 247 311 248 300 237 311 248 312 249 300 237 312 249 313 250 300 237 313 250 314 251 300 237 314 251 315 252 300 237 315 252 316 253 300 237 316 253 317 254 318 255 319 256 320 257 318 255 320 257 321 258 318 255 321 258 322 259 318 255 322 259 323 260 318 255 323 260 324 261 318 255 324 261 325 262 318 255 325 262 326 263 318 255 326 263 327 264 318 255 327 264 328 265 318 255 328 265 329 266 318 255 329 266 330 267 318 255 330 267 331 268 318 255 331 268 332 269 318 255 332 269 333 270 318 255 333 270 334 271 318 255 334 271 335 271 336 272 337 273 338 273 336 272 338 273 339 274 336 272 339 274 340 275 336 272 340 275 341 276 336 272 341 276 342 277 336 272 342 277 343 278 336 272 343 278 344 279 336 272 344 279 345 280 336 272 345 280 346 281 336 272 346 281 347 282 336 272 347 282 348 283 336 272 348 283 349 284 336 272 349 284 350 285 336 272 350 285 351 286 336 272 351 286 352 287 336 272 352 287 353 288 354 289 355 290 356 291 354 289 356 291 357 292 354 289 357 292 358 293 354 289 358 293 359 294 354 289 359 294 360 295 354 289 360 295 361 296 354 289 361 296 362 297 354 289 362 297 363 298 354 289 363 298 364 299 354 289 364 299 365 300 354 289 365 300 366 301 354 289 366 301 367 302 354 289 367 302 368 303 354 289 368 303 369 304 354 289 369 304 370 305 354 289 370 305 371 306 372 307 373 308 374 309 372 307 374 309 375 310 372 307 375 310 376 311 372 307 376 311 377 312 372 307 377 312 378 313 372 307 378 313 379 314 372 307 379 314 380 315 372 307 380 315 381 316 372 307 381 316 382 317 372 307 382 317 383 318 372 307 383 318 384 319 372 307 384 319 385 320 372 307 385 320 386 321 372 307 386 321 387 322 372 307 387 322 388 323 372 307 388 323 389 324 300 562 302 564 301 563 300 562 303 565 302 564 300 562 304 566 303 565 300 562 305 567 304 566 300 562 306 568 305 567 300 562 307 569 306 568 300 562 308 570 307 569 300 562 309 571 308 570 300 562 310 572 309 571 300 562 311 573 310 572 300 562 312 574 311 573 300 562 313 575 312 574 300 562 314 576 313 575 300 562 315 577 314 576 300 562 316 578 315 577 300 562 317 579 316 578 318 580 320 582 319 581 318 580 321 583 320 582 318 580 322 584 321 583 318 580 323 585 322 584 318 580 324 586 323 585 318 580 325 587 324 586 318 580 326 588 325 587 318 580 327 589 326 588 318 580 328 590 327 589 318 580 329 591 328 590 318 580 330 592 329 591 318 580 331 593 330 592 318 580 332 594 331 593 318 580 333 595 332 594 318 580 334 596 333 595 318 580 335 596 334 596 336 597 338 598 337 598 336 597 339 599 338 598 336 597 340 600 339 599 336 597 341 601 340 600 336 597 342 602 341 601 336 597 343 603 342 602 336 597 344 604 343 603 336 597 345 605 344 604 336 597 346 606 345 605 336 597 347 607 346 606 336 597 348 608 347 607 336 597 349 609 348 608 336 597 350 610 349 609 336 597 351 611 350 610 336 597 352 612 351 611 336 597 353 613 352 612 354 614 356 616 355 615 354 614 357 617 356 616 354 614 358 618 357 617 354 614 359 619 358 618 354 614 360 620 359 619 354 614 361 621 360 620 354 614 362 622 361 621 354 614 363 623 362 622 354 614 364 624 363 623 354 614 365 625 364 624 354 614 366 626 365 625 354 614 367 627 366 626 354 614 368 628 367 627 354 614 369 629 368 628 354 614 370 630 369 629 354 614 371 631 370 630 372 632 374 634 373 633 372 632 375 635 374 634 372 632 376 636 375 635 372 632 377 637 376 636 372 632 378 638 377 637 372 632 379 639 378 638 372 632 380 640 379 639 372 632 381 641 380 640 372 632 382 642 381 641 372 632 383 643 382 642 372 632 384 644 383 643 372 632 385 645 384 644 372 632 386 646 385 645 372 632 387 647 386 646 372 632 388 648 387 647 372 632 389 649 388 648</p></triangles>
      </mesh>
    </geometry>
  </library_geometries>
  <library_visual_scenes><visual_scene id="scene" name="scene">
    <node id="weeds_-03+01_foliage" name="weeds_-03+01_foliage" type="NODE"><instance_geometry url="#weeds_-03+01_foliage-mesh"><bind_material><technique_common>
      <instance_material symbol="MAT_WEED_GRASS-mat" target="#MAT_WEED_GRASS"/>
      <instance_material symbol="MAT_WEED_BROAD-mat" target="#MAT_WEED_BROAD"/>
    </technique_common></bind_material></instance_geometry></node>
  </visual_scene></library_visual_scenes>
  <scene><instance_visual_scene url="#scene"/></scene>
<!-- vigil:double-sided -->
</COLLADA>
