<?xml version="1.0" encoding="utf-8"?>
<COLLADA xmlns="http://www.collada.org/2005/11/COLLADASchema" version="1.4.1">
  <asset>
    <contributor><authoring_tool>VIGIL SIH26126 farm generator</authoring_tool></contributor>
    <unit name="meter" meter="1"/>
    <up_axis>Z_UP</up_axis>
  </asset>
  <library_effects>
    <effect id="MAT_WEED_GRASS-fx"><profile_COMMON><technique sid="c"><lambert><diffuse><color>0.0980 0.1280 0.0300 1</color></diffuse></lambert></technique></profile_COMMON></effect>
    <effect id="MAT_WEED_BROAD-fx"><profile_COMMON><technique sid="c"><lambert><diffuse><color>0.0720 0.1520 0.0340 1</color></diffuse></lambert></technique></profile_COMMON></effect>
  </library_effects>
  <library_materials>
    <material id="MAT_WEED_GRASS" name="MAT_WEED_GRASS"><instance_effect url="#MAT_WEED_GRASS-fx"/></material>
    <material id="MAT_WEED_BROAD" name="MAT_WEED_BROAD"><instance_effect url="#MAT_WEED_BROAD-fx"/></material>
  </library_materials>
  <library_geometries>
    <geometry id="weeds_-06-01_foliage-mesh" name="weeds_-06-01_foliage">
      <mesh>
        <source id="weeds_-06-01_foliage-pos"><float_array id="weeds_-06-01_foliage-pos-a" count="1920">-0.44792 0.08662 -0.041178 -0.45376 0.096024 -0.041566 -0.48436 0.08226 0.053438 -0.48005 0.073864 0.053824 -0.51671 0.065098 0.10686 -0.5141 0.058804 0.10718 -0.55189 0.043301 0.098136 -0.55079 0.039855 0.098323 -0.58945 0.017796 0.039686 -0.58945 0.017796 0.039686 -0.44544 0.086331 -0.041267 -0.45624 0.096313 -0.041476 -0.47983 0.072676 0.058317 -0.47123 0.063514 0.058567 -0.50499 0.045427 0.11484 -0.49926 0.038374 0.11507 -0.53296 0.013247 0.10659 -0.53018 0.0092852 0.10674 -0.5633 -0.022937 0.046315 -0.5633 -0.022937 0.046315 -0.45332 0.096791 -0.041638 -0.44836 0.085853 -0.041106 -0.41435 0.1045 0.046264 -0.41762 0.11419 0.045745 -0.38186 0.12137 0.098399 -0.38351 0.12855 0.097979 -0.35152 0.13492 0.096384 -0.352 0.1388 0.096139 -0.32291 0.14552 0.047075 -0.32291 0.14552 0.047075 -0.44371 0.095716 -0.041987 -0.45797 0.086928 -0.040757 -0.41694 0.046456 0.09178 -0.40578 0.055352 0.090679 -0.37811 0.002748 0.16502 -0.37088 0.010108 0.1642 -0.34318 -0.04629 0.14977 -0.33984 -0.041929 0.14932 -0.31163 -0.099488 0.063842 -0.31163 -0.099488 0.063842 -0.4487 0.095473 -0.041751 -0.45298 0.087171 -0.040993 -0.41434 0.076906 0.061035 -0.41044 0.083894 0.060384 -0.37716 0.064286 0.12357 -0.37418 0.069261 0.1231 -0.34247 0.04767 0.12515 -0.34079 0.050274 0.1249 -0.30996 0.02748 0.072873 -0.30996 0.02748 0.072873 -0.44785 0.088186 -0.041289 -0.45383 0.094458 -0.041455 -0.47414 0.078002 0.051416 -0.46849 0.073151 0.0515 -0.49557 0.05895 0.10879 -0.49115 0.055849 0.10881 -0.51906 0.036191 0.1116 -0.51654 0.034776 0.11158 -0.54433 0.010303 0.066744 -0.54433 0.010303 0.066744 -0.45719 0.091164 -0.041082 -0.44449 0.09148 -0.041662 -0.44404 0.14755 0.076292 -0.45496 0.14816 0.07673 -0.44644 0.2004 0.14373 -0.45432 0.20147 0.14401 -0.45255 0.2483 0.13447 -0.45671 0.2492 0.13459 -0.46172 0.29215 0.060698 -0.46172 0.29215 0.060698 -0.44405 0.087975 -0.041441 -0.45763 0.094669 -0.041303 -0.47878 0.044956 0.08706 -0.46724 0.039061 0.086957 -0.50216 -0.0095217 0.15102 -0.49385 -0.013914 0.15096 -0.52933 -0.070662 0.12129 -0.52492 -0.073069 0.12126 -0.55925 -0.1367 0.023162 -0.55925 -0.1367 0.023162 -0.44706 0.088106 -0.041318 -0.45462 0.094538 -0.041426 -0.48304 0.063447 0.073836 -0.47667 0.057834 0.07394 -0.51347 0.028426 0.13649 -0.50891 0.02428 0.13657 -0.54714 -0.012149 0.12122 -0.54475 -0.014401 0.12127 -0.58337 -0.057052 0.045411 -0.58337 -0.057052 0.045411 -0.45087 0.084891 -0.04093 -0.45081 0.097753 -0.041814 -0.48752 0.10496 0.044559 -0.4889 0.094096 0.045364 -0.52639 0.10879 0.090582 -0.52834 0.10113 0.091192 -0.56837 0.10826 0.076885 -0.5699 0.10435 0.07722 -0.61295 0.10448 0.017017 -0.61295 0.10448 0.017017 -0.44648 0.086744 -0.04125 -0.4552 0.0959 -0.041494 -0.49532 0.062318 0.082539 -0.48746 0.054863 0.082704 -0.53764 0.024189 0.1449 -0.53166 0.019079 0.14499 -0.58353 -0.020203 0.11738 -0.5802 -0.022764 0.1174 -0.63198 -0.069125 0.023803 -0.63198 -0.069125 0.023803 -0.44262 0.091382 -0.041737 -0.45906 0.091262 -0.041007 -0.4487 0.046777 0.093347 -0.43464 0.047109 0.092706 -0.44003 -0.0014484 0.17208 -0.42985 -0.0010421 0.17161 -0.43462 -0.055349 0.1667 -0.4292 -0.055043 0.16644 -0.43195 -0.11394 0.09135 -0.43195 -0.11394 0.09135 -0.45655 0.093984 -0.041303 -0.44513 0.08866 -0.041441 -0.42422 0.13448 0.061903 -0.43428 0.13834 0.06208 -0.40588 0.17733 0.1211 -0.41334 0.17961 0.12127 -0.39089 0.21546 0.11315 -0.39494 0.2164 0.11327 -0.37872 0.2495 0.048457 -0.37872 0.2495 0.048457 -0.44925 0.084934 -0.041004 -0.45243 0.09771 -0.04174 -0.49123 0.096432 0.074459 -0.48777 0.085654 0.075045 -0.53171 0.091431 0.1445 -0.52867 0.083768 0.1449 -0.57493 0.08132 0.14406 -0.57303 0.07733 0.14425 -0.62042 0.066918 0.083307 -0.62042 0.066918 0.083307 -0.44633 0.086849 -0.041263 -0.45535 0.095795 -0.04148 -0.47442 0.078899 0.055691 -0.46671 0.07124 0.055877 -0.49467 0.059125 0.11685 -0.48907 0.053572 0.11699 -0.51713 0.035288 0.12226 -0.51414 0.032324 0.12233 -0.54158 0.0078607 0.078017 -0.54158 0.0078607 0.078017 2.6296 0.22462 -0.056067 2.6335 0.21722 -0.056551 2.6672 0.22839 0.019702 2.6644 0.23493 0.020075 2.6979 0.24068 0.060587 2.6962 0.24555 0.060825 2.7241 0.25432 0.048602 2.7234 0.25696 0.048711 2.7468 0.26902 -0.0056925 2.7468 0.26902 -0.0056925 2.6278 0.22499 -0.055901 2.6354 0.21685 -0.056716 2.6648 0.23597 0.023827 2.6588 0.24336 0.02449 2.6909 0.25634 0.067581 2.6869 0.26197 0.068033 2.7122 0.27819 0.056254 2.7103 0.28133 0.056479 2.7298 0.30126 0.00066119 2.7298 0.30126 0.00066119 2.6331 0.21668 -0.05653 2.63 0.22516 -0.056088 2.6133 0.21622 0.021885 2.6153 0.20878 0.021567 2.5941 0.20741 0.069933 2.5949 0.20195 0.069748 2.5706 0.19926 0.071985 2.5708 0.19633 0.071912 2.5435 0.19173 0.033876 2.5435 0.19173 0.033876 2.626 0.2181 -0.055889 2.6371 0.22374 -0.056729 2.6227 0.26065 0.057239 2.6139 0.25473 0.057875 2.6036 0.298 0.12087 2.5979 0.29297 0.12127 2.5781 0.33632 0.1093 2.5754 0.33328 0.10948 2.5476 0.37533 0.037651 2.5476 0.37533 0.037651 2.6297 0.21796 -0.056213 2.6334 0.22388 -0.056405 2.6161 0.23721 0.033035 2.6128 0.23225 0.033215 2.5958 0.25098 0.088939 2.5933 0.24746 0.089081 2.5708 0.26568 0.093053 2.5694 0.26384 0.093135 2.5418 0.28123 0.051394 2.5418 0.28123 0.051394 2.6295 0.22345 -0.056079 2.6337 0.21839 -0.056539 2.6596 0.23217 0.018847 2.6556 0.23615 0.019269 2.6826 0.24671 0.064093 2.6794 0.24931 0.064417 2.7014 0.26219 0.062977 2.6996 0.2634 0.063157 2.7165 0.2784 0.02138 2.7165 0.2784 0.02138 2.6363 0.22063 -0.056723 2.6268 0.22121 -0.055894 2.6368 0.18315 0.046159 2.645 0.18199 0.045437 2.6437 0.14575 0.10521 2.6495 0.14444 0.10469 2.6451 0.10941 0.099031 2.6482 0.10847 0.098748 2.642 0.073896 0.037999 2.642 0.073896 0.037999 2.6266 0.22386 -0.055828 2.6365 0.21798 -0.05679 2.6683 0.25755 0.046849 2.66 0.2627 0.047669 2.6951 0.29854 0.09578 2.6891 0.30235 0.096372 2.7147 0.34133 0.065072 2.7115 0.34341 0.065386 2.7292 0.38548 -0.023772 2.7292 0.38548 -0.023772 2.6289 0.22356 -0.056027 2.6342 0.21828 -0.056591 2.6693 0.2431 0.036138 2.6648 0.2477 0.036616 2.7003 0.2691 0.084157 2.6971 0.27249 0.0845 2.7254 0.29661 0.065931 2.7238 0.29845 0.066112 2.7461 0.32531 -0.003761 2.7461 0.32531 -0.003761 2.6319 0.22572 -0.056242 2.6312 0.21612 -0.056376 2.6676 0.21101 0.012964 2.6692 0.21903 0.01299 2.7014 0.20702 0.04793 2.7033 0.21261 0.047885 2.7312 0.20423 0.032058 2.7326 0.20706 0.032 2.7581 0.20227 -0.023129 2.7581 0.20227 -0.023129 2.6285 0.22462 -0.055974 2.6346 0.21722 -0.056644 2.6794 0.24341 0.042158 2.6739 0.24948 0.042754 2.7194 0.27092 0.088567 2.7151 0.27512 0.089014 2.7525 0.30009 0.058582 2.7501 0.30222 0.058828 2.7805 0.33043 -0.027519 2.7805 0.33043 -0.027519 2.6254 0.2214 -0.055771 2.6377 0.22044 -0.056847 2.6465 0.25837 0.055317 2.636 0.25903 0.056235 2.6507 0.29726 0.12027 2.6431 0.29762 0.12094 2.6484 0.33757 0.11376 2.6444 0.33769 0.11412 2.6408 0.37902 0.047803 2.6408 0.37902 0.047803 2.6357 0.21857 -0.056712 2.6274 0.22327 -0.055906 2.6211 0.19374 0.035456 2.6284 0.19021 0.034755 2.612 0.16488 0.089224 2.6175 0.1627 0.08871 2.5983 0.13725 0.085858 2.6013 0.13629 0.085583 2.5807 0.11072 0.034198 2.5807 0.11072 0.034198 2.6307 0.22579 -0.056136 2.6324 0.21605 -0.056482 2.674 0.21804 0.037373 2.672 0.2263 0.037716 2.712 0.22126 0.091998 2.7101 0.22717 0.092279 2.7446 0.22593 0.086712 2.7433 0.22903 0.086879 2.7725 0.23178 0.030187 2.7725 0.23178 0.030187 2.6284 0.22455 -0.055965 2.6347 0.21729 -0.056652 2.6602 0.23161 0.022462 2.6548 0.23783 0.02305 2.6828 0.24688 0.070985 2.6789 0.25139 0.071412 2.7011 0.26331 0.072117 2.6991 0.26572 0.072345 2.7157 0.28075 0.031046 2.7157 0.28075 0.031046 -2.9136 0.068049 0.00073338 -2.917 0.08166 -0.00067486 -2.9067 0.086631 -0.00055721 -2.8935 0.081185 -6.5183e-05 -2.8865 0.066218 -0.00016205 -2.8905 0.050184 -0.00023341 -2.9035 0.04117 2.9112e-05 -2.9191 0.043572 0.00022186 -2.928 0.055188 -0.00031725 -2.9268 0.067157 -0.00056417 -2.9 0.033001 0.011692 -2.8955 0.038627 0.0080764 -2.8894 0.035532 0.0089523 -2.8867 0.027836 0.012264 -2.8905 0.019769 0.015879 -2.8989 0.016389 0.017927 -2.9078 0.019529 0.0175 -2.9126 0.027475 0.014698 -2.9111 0.035231 0.010987 -2.9055 0.038488 0.0090151 -2.9703 0.1022 0.0080426 -2.962 0.11066 0.0045295 -2.9534 0.10428 0.0046098 -2.9511 0.091069 0.006769 -2.9588 0.078796 0.0093842 -2.9725 0.075153 0.011424 -2.9854 0.082134 0.012093 -2.991 0.096081 0.010836 -2.9868 0.10847 0.00801 -2.9774 0.11259 0.0060979 -2.9977 0.091817 0.02428 -2.9902 0.086658 0.019982 -2.9926 0.078308 0.021148 -3.001 0.073726 0.025188 -3.0112 0.077531 0.029459 -3.0168 0.08804 0.031764 -3.015 0.10003 0.031097 -3.0067 0.10751 0.027647 -2.9974 0.10655 0.023204 -2.9924 0.099687 0.020931 -2.935 0.16708 0.0083787 -2.94 0.15553 0.0040869 -2.9505 0.15725 0.0069155 -2.9575 0.16818 0.012506 -2.9548 0.18313 0.016861 -2.9432 0.19304 0.017745 -2.9284 0.19276 0.014907 -2.9179 0.18265 0.0095719 -2.9174 0.16934 0.0044631 -2.9247 0.16111 0.0029557 -2.9369 0.20355 0.024859 -2.9466 0.19953 0.02308 -2.9518 0.20738 0.024927 -2.9496 0.21867 0.02764 -2.9394 0.22607 0.028885 -2.9269 0.22463 0.028254 -2.9183 0.21491 0.026252 -2.9179 0.20191 0.023686 -2.9253 0.19337 0.021622 -2.9344 0.19307 0.021556 -2.9401 0.24082 0.027277 -2.9439 0.2279 0.022733 -2.9552 0.22831 0.025561 -2.964 0.23896 0.031302 -2.963 0.25516 0.035848 -2.952 0.26722 0.036887 -2.9363 0.26893 0.034104 -2.9239 0.25963 0.028683 -2.9217 0.2456 0.023372 -2.9285 0.23587 0.021723 -2.9313 0.15933 0.007588 -2.9399 0.15572 0.004287 -2.9451 0.16229 0.0069149 -2.9438 0.17204 0.011689 -2.9348 0.17881 0.015194 -2.9233 0.17803 0.015582 -2.9149 0.16991 0.012797 -2.9137 0.15868 0.0080894 -2.92 0.15112 0.0039057 -2.9283 0.15057 0.0028989 -2.9305 0.19021 0.023497 -2.9358 0.18386 0.021739 -2.942 0.18735 0.023218 -2.9442 0.19596 0.025666 -2.9397 0.20485 0.02711 -2.9307 0.20852 0.026945 -2.9216 0.205 0.025397 -2.9169 0.19618 0.023095 -2.9191 0.18754 0.021069 -2.9253 0.18395 0.020748 -2.931 0.22189 0.025344 -2.9318 0.21132 0.020808 -2.9405 0.20915 0.02328 -2.9491 0.21529 0.028804 -2.9511 0.22784 0.033629 -2.9447 0.23944 0.035182 -2.9329 0.24416 0.032835 -2.9218 0.2398 0.02761 -2.9177 0.22964 0.022283 -2.9213 0.22077 0.020348 3.1164 -0.48971 -0.018247 3.1284 -0.48685 -0.021486 3.1329 -0.49624 -0.020639 3.1281 -0.50821 -0.017854 3.1147 -0.5146 -0.015222 3.1004 -0.51099 -0.013873 3.0923 -0.49902 -0.014281 3.0944 -0.4848 -0.016442 3.1048 -0.47668 -0.019458 3.1154 -0.47783 -0.020942 3.1138 -0.52861 -0.0034592 3.1097 -0.51716 -0.0065768 3.1192 -0.51108 -0.0055696 3.1323 -0.51377 -0.0027364 3.1404 -0.52596 -0.00025852 3.1379 -0.54085 0.00082967 3.126 -0.55093 0.0001927 3.1107 -0.55127 -0.0020589 3.1011 -0.54244 -0.0050032 3.1013 -0.53162 -0.0063156 3.1107 -0.56744 -0.0035056 3.1217 -0.56861 -0.00832 3.1233 -0.57842 -0.0064411 3.1161 -0.58772 -0.0013156 3.1027 -0.58949 0.003664 3.091 -0.58193 0.0058749 3.087 -0.56868 0.0043648 3.0926 -0.55647 -0.00026342 3.1036 -0.55229 -0.0055615 3.1127 -0.55656 -0.0079143 3.1304 -0.48179 -0.018756 3.1309 -0.47303 -0.021197 3.1389 -0.47146 -0.02049 3.1467 -0.47671 -0.018313 3.1484 -0.48701 -0.016288 3.1426 -0.49636 -0.015303 3.1319 -0.49999 -0.015703 3.1219 -0.4962 -0.017434 3.1182 -0.48775 -0.019756 3.1214 -0.48055 -0.020858 3.1379 -0.51496 -0.0043356 3.1428 -0.50657 -0.0068577 3.1511 -0.50879 -0.0062613 3.1558 -0.51767 -0.0041718 3.1523 -0.52866 -0.0021749 3.1421 -0.5351 -0.0011057 3.1302 -0.53362 -0.0013364 3.1226 -0.52512 -0.0029127 3.1233 -0.51502 -0.0052087 3.13 -0.50944 -0.0063722 3.0805 -0.43621 -0.016616 3.089 -0.43338 -0.019007 3.0929 -0.4398 -0.018383 3.0903 -0.44866 -0.016319 3.0811 -0.45411 -0.01435 3.0705 -0.45248 -0.013334 3.0638 -0.44445 -0.013636 3.0644 -0.43415 -0.015247 3.0712 -0.42767 -0.017487 3.079 -0.42779 -0.018593 3.052 -0.43646 -0.00065127 3.0645 -0.43263 -0.0068911 3.0713 -0.44208 -0.0045099 3.0685 -0.45502 0.0021573 3.055 -0.46305 0.0087974 3.0385 -0.46062 0.011843 3.0273 -0.44871 0.0099388 3.0268 -0.43349 0.0038712 3.0365 -0.42408 -0.0030771 3.0484 -0.42433 -0.0062302 3.023 -0.43665 0.00047989 3.0298 -0.44854 -0.0055432 3.0208 -0.45804 -0.0026371 3.0059 -0.45852 0.0043402 2.9943 -0.44676 0.010715 2.9936 -0.4291 0.01309 3.0044 -0.4144 0.010465 3.0211 -0.40992 0.0039646 3.0334 -0.41741 -0.002951 3.0356 -0.4298 -0.005688 3.1291 -0.46948 -0.018654 3.128 -0.45728 -0.022657 3.1388 -0.45327 -0.021283 3.1509 -0.45873 -0.017387 3.1557 -0.47258 -0.013736 3.1496 -0.48687 -0.012078 3.1354 -0.49434 -0.013044 3.1205 -0.49139 -0.016347 3.1134 -0.48057 -0.020413 3.1163 -0.46988 -0.022256 3.1357 -0.49376 -0.0041596 3.1434 -0.48021 -0.0071123 3.1565 -0.48376 -0.0067436 3.164 -0.49801 -0.0048418 3.1585 -0.51558 -0.0031209 3.1424 -0.52586 -0.0020135 3.1237 -0.52354 -0.0017985 3.1117 -0.50996 -0.0028562 3.1128 -0.49376 -0.0050837 3.1232 -0.48482 -0.0063466 3.1367 -0.38962 -0.018597 3.1363 -0.40489 -0.024974 3.1227 -0.40947 -0.021577 3.1086 -0.4021 -0.013889 3.1044 -0.38445 -0.0071189 3.1135 -0.36674 -0.0048753 3.1318 -0.358 -0.0080725 3.1498 -0.36239 -0.015321 3.1571 -0.37627 -0.022774 3.1522 -0.38958 -0.025526 3.1487 -0.35622 -0.0040628 3.1393 -0.34966 -0.00561 3.1437 -0.34057 -0.0051215 3.1557 -0.3363 -0.0039938 3.1684 -0.34154 -0.0034438 3.1742 -0.35383 -0.0033761 3.17 -0.36705 -0.003615 3.158 -0.37461 -0.0042509 3.1456 -0.3726 -0.0053364 3.1401 -0.36444 -0.0057092 -2.3672 0.057301 0.0048578 -2.3786 0.054367 0.00062797 -2.3831 0.06334 0.0012606 -2.3789 0.074944 0.0046516 -2.3661 0.081346 0.0085653 -2.3522 0.078115 0.011087 -2.3442 0.066711 0.011126 -2.3459 0.052968 0.0084963 -2.3556 0.044969 0.0044747 -2.3659 0.045893 0.0021105 -2.3665 0.094573 0.019904 -2.362 0.083674 0.017089 -2.3713 0.077552 0.016908 -2.3844 0.079785 0.018327 -2.3926 0.091338 0.0202 -2.3905 0.10578 0.021894 -2.3789 0.11582 0.022769 -2.3639 0.11655 0.022185 -2.3541 0.10828 0.020134 -2.3541 0.09785 0.018577 -2.3639 0.13224 0.021351 -2.3743 0.13328 0.015885 -2.376 0.14269 0.017764 -2.3696 0.1517 0.023462 -2.357 0.15355 0.029397 -2.3457 0.14642 0.032333 -2.3415 0.13372 0.030923 -2.3464 0.12192 0.025754 -2.3566 0.11779 0.01968 -2.3653 0.12179 0.016769 -2.3807 0.049344 0.0027971 -2.3809 0.040924 0.0002301 -2.3887 0.039206 6.4299e-05 -2.3965 0.044059 0.0014746 -2.3985 0.053936 0.0034811 -2.393 0.063086 0.005239 -2.3827 0.066842 0.0060111 -2.3727 0.063438 0.0052736 -2.3688 0.055406 0.0032401 -2.3717 0.048396 0.001695 -2.3896 0.080869 0.016355 -2.3941 0.072713 0.013303 -2.4023 0.074666 0.013117 -2.4071 0.083102 0.014855 -2.404 0.09376 0.017367 -2.3942 0.10018 0.019537 -2.3826 0.099012 0.020429 -2.375 0.090989 0.019451 -2.3754 0.081259 0.01696 -2.3817 0.075754 0.015075 -2.3317 0.0062218 0.0081997 -2.3397 0.0033696 0.0050974 -2.3436 0.0094802 0.0054896 -2.3414 0.018057 0.00791 -2.3327 0.023475 0.010778 -2.3224 0.022089 0.012689 -2.3158 0.014471 0.012811 -2.3161 0.0045362 0.010963 -2.3225 -0.0018222 0.0080418 -2.3299 -0.0018439 0.0062746 -2.3054 0.0066025 0.025659 -2.3169 0.0028121 0.018597 -2.3238 0.011737 0.020418 -2.3218 0.024131 0.027221 -2.3094 0.031995 0.03488 -2.2936 0.029907 0.039207 -2.2823 0.018678 0.038175 -2.2812 0.0041342 0.032169 -2.2899 -0.0049796 0.024554 -2.3012 -0.0048988 0.020505 -2.2771 0.0073783 0.02952 -2.2834 0.018918 0.02368 -2.275 0.028226 0.027514 -2.2612 0.028802 0.035386 -2.2503 0.017478 0.042018 -2.2496 0.00031805 0.043736 -2.2596 -0.01407 0.039828 -2.2752 -0.018571 0.032098 -2.2868 -0.011376 0.024765 -2.2888 0.00065088 0.022412 -2.3793 0.037449 0.0026362 -2.3777 0.025778 -0.0013108 -2.3883 0.021619 -0.001212 -2.4005 0.026528 0.0013712 -2.4056 0.039731 0.0046886 -2.4 0.05365 0.0072415 -2.3863 0.061212 0.0079475 -2.3714 0.058783 0.0062647 -2.364 0.048583 0.0028787 -2.3665 0.038215 0.00057614 -2.3873 0.060383 0.016078 -2.3944 0.047179 0.012204 -2.4072 0.050329 0.011383 -2.4149 0.063905 0.012842 -2.4099 0.080983 0.015492 -2.3944 0.091257 0.018385 -2.3761 0.089404 0.020326 -2.3642 0.07655 0.0201 -2.3648 0.060899 0.01745 -2.3748 0.052055 0.015002 -2.3856 -0.040047 -0.00047404 -2.385 -0.02506 -0.0058459 -2.372 -0.020436 -0.0012559 -2.3588 -0.027494 0.0069571 -2.3551 -0.0447 0.01306 -2.364 -0.062114 0.013695 -2.3814 -0.070869 0.0087188 -2.3984 -0.06679 0.00043839 -2.405 -0.053285 -0.0067053 -2.4002 -0.040212 -0.0083596 -2.3982 -0.073083 0.010721 -2.3888 -0.079179 0.010011 -2.393 -0.088094 0.0097523 -2.4047 -0.092524 0.0095043 -2.4173 -0.087742 0.0089348 -2.423 -0.07597 0.0088127 -2.4191 -0.063062 0.0094066 -2.4074 -0.055465 0.010213 -2.3953 -0.057114 0.010345 -2.3898 -0.064889 0.010284</float_array><technique_common><accessor source="#weeds_-06-01_foliage-pos-a" count="640" stride="3"><param name="X" type="float"/><param name="Y" type="float"/><param name="Z" type="float"/></accessor></technique_common></source>
        <source id="weeds_-06-01_foliage-nrm"><float_array id="weeds_-06-01_foliage-nrm-a" count="3456">0.812 0.477 0.335 0.781 0.43 0.452 0.779 0.428 0.458 0.358 0.225 0.906 0.262 0.184 0.947 -0.485 -0.118 0.867 -0.555 -0.141 0.82 -0.776 -0.216 0.593 0.661 0.678 0.321 0.645 0.627 0.436 0.644 0.624 0.442 0.308 0.312 0.899 0.237 0.253 0.938 -0.41 -0.264 0.873 -0.465 -0.303 0.832 -0.665 -0.444 0.601 -0.855 -0.32 0.407 -0.832 -0.264 0.488 -0.83 -0.261 0.492 -0.482 -0.092 0.872 -0.389 -0.062 0.919 0.408 0.108 0.907 0.543 0.12 0.831 0.844 0.138 0.519 -0.503 0.774 0.386 -0.498 0.701 0.511 -0.498 0.706 0.503 -0.087 0.244 0.966 -0.188 0.347 0.919 0.529 -0.339 0.778 0.453 -0.278 0.847 0.691 -0.473 0.547 -0.81 0.466 0.355 -0.768 0.466 0.44 -0.767 0.466 0.441 -0.409 0.316 0.856 -0.386 0.304 0.871 0.361 -0.144 0.922 0.396 -0.168 0.903 0.704 -0.396 0.59 0.663 0.7 0.265 0.611 0.708 0.355 0.614 0.708 0.35 0.317 0.413 0.854 0.375 0.486 0.789 -0.222 -0.404 0.887 -0.147 -0.271 0.951 -0.384 -0.689 0.614 0.008 -0.902 0.432 -0.019 -0.85 0.526 -0.02 -0.847 0.531 0.005 -0.392 0.92 0.016 -0.298 0.954 0.134 0.522 0.843 0.152 0.608 0.779 0.2 0.853 0.482 0.416 0.823 0.388 0.385 0.748 0.541 0.385 0.747 0.542 0.104 0.193 0.976 0.094 0.174 0.98 -0.29 -0.545 0.787 -0.294 -0.552 0.78 -0.383 -0.708 0.593 0.611 0.713 0.344 0.577 0.666 0.474 0.576 0.665 0.475 0.21 0.258 0.943 0.194 0.241 0.951 -0.386 -0.395 0.833 -0.396 -0.405 0.824 -0.553 -0.574 0.604 0.916 -0.028 0.399 0.848 -0.056 0.527 0.842 -0.058 0.537 0.348 0.031 0.937 0.198 0.067 0.978 -0.512 0.251 0.821 -0.59 0.281 0.757 -0.763 0.345 0.546 0.648 0.657 0.385 0.577 0.614 0.539 0.58 0.616 0.533 0.12 0.131 0.984 0.172 0.189 0.967 -0.397 -0.495 0.773 -0.38 -0.47 0.797 -0.495 -0.638 0.59 0 0.95 0.314 -0.001 0.907 0.421 -0.001 0.908 0.42 0.03 0.438 0.899 0.028 0.456 0.889 0.068 -0.472 0.879 0.067 -0.454 0.889 0.074 -0.786 0.614 -0.349 -0.83 0.435 -0.3 -0.793 0.529 -0.302 -0.795 0.526 -0.09 -0.298 0.95 -0.118 -0.377 0.919 0.161 0.592 0.79 0.145 0.512 0.847 0.209 0.849 0.486 0.912 0.274 0.304 0.867 0.296 0.401 0.869 0.295 0.397 0.427 0.195 0.883 0.491 0.215 0.844 -0.435 -0.163 0.885 -0.358 -0.124 0.925 -0.723 -0.314 0.616 0.679 0.69 0.253 0.659 0.672 0.337 0.418 0.441 0.794 -0.242 -0.221 0.945 -0.241 -0.221 0.945 -0.55 -0.539 0.638 -0.807 -0.414 0.421 -0.767 -0.367 0.526 -0.765 -0.365 0.531 -0.287 -0.176 0.941 -0.175 -0.137 0.975 0.646 0.139 0.75 0.709 0.155 0.688 0.883 0.2 0.424 -0.672 -0.625 0.398 -0.646 -0.576 0.501 -0.644 -0.574 0.506 -0.241 -0.277 0.93 -0.154 -0.216 0.964 0.578 0.302 0.758 0.629 0.335 0.702 0.787 0.441 0.432 0.928 0.287 0.236 0.919 0.238 0.316 0.918 0.235 0.32 0.643 0.111 0.758 0.554 0.089 0.828 -0.331 -0.042 0.943 -0.483 -0.049 0.874 -0.808 -0.06 0.587 0.493 -0.81 0.319 0.516 -0.738 0.434 0.515 -0.744 0.426 0.209 -0.229 0.951 0.302 -0.351 0.886 -0.428 0.444 0.787 -0.348 0.382 0.856 -0.599 0.568 0.564 0.824 -0.515 0.237 0.797 -0.512 0.32 0.797 -0.511 0.321 0.53 -0.332 0.78 0.51 -0.317 0.8 -0.254 0.235 0.938 -0.292 0.263 0.919 -0.616 0.494 0.614 -0.679 -0.646 0.348 -0.622 -0.658 0.424 -0.625 -0.658 0.42 -0.263 -0.387 0.884 -0.337 -0.46 0.822 0.393 0.469 0.791 0.316 0.34 0.886 0.524 0.712 0.468 0.121 0.933 0.339 0.157 0.892 0.425 0.159 0.889 0.429 0.156 0.48 0.863 0.142 0.383 0.913 -0.076 -0.518 0.852 -0.111 -0.607 0.787 -0.212 -0.84 0.499 -0.435 -0.788 0.435 -0.386 -0.722 0.575 -0.386 -0.721 0.576 0.004 -0.157 0.988 0.017 -0.137 0.99 0.453 0.597 0.662 0.456 0.603 0.654 0.52 0.728 0.447 -0.624 -0.663 0.414 -0.578 -0.621 0.53 -0.577 -0.621 0.531 -0.124 -0.224 0.967 -0.104 -0.206 0.973 0.553 0.439 0.708 0.561 0.448 0.696 0.683 0.581 0.442 -0.874 0.11 0.474 -0.797 0.143 0.587 -0.79 0.145 0.596 -0.256 0.041 0.966 -0.089 -0.009 0.996 0.637 -0.267 0.723 0.7 -0.305 0.646 0.824 -0.385 0.415 -0.654 -0.605 0.455 -0.57 -0.57 0.591 -0.574 -0.572 0.586 -0.008 -0.086 0.996 -0.072 -0.149 0.986 0.557 0.535 0.635 0.543 0.514 0.665 0.627 0.648 0.433 -0.039 -0.946 0.322 -0.021 -0.908 0.419 -0.022 -0.908 0.418 0.052 -0.437 0.898 0.05 -0.457 0.888 0.089 0.565 0.821 0.089 0.547 0.833 0.071 0.848 0.525 0.467 0.832 0.298 0.433 0.811 0.393 0.434 0.812 0.389 0.257 0.374 0.891 0.287 0.453 0.844 -0.118 -0.589 0.799 -0.087 -0.507 0.857 -0.221 -0.835 0.504 -0.895 -0.203 0.398 -0.847 -0.225 0.482 -0.849 -0.224 0.479 -0.361 -0.138 0.922 -0.434 -0.157 0.887 0.602 0.193 0.775 0.527 0.16 0.835 0.841 0.306 0.447 -0.694 -0.635 0.339 -0.668 -0.619 0.412 -0.379 -0.408 0.831 0.413 0.277 0.867 0.413 0.277 0.868 0.685 0.55 0.477 0.017 -0.019 -1 0.055 -0.09 -0.994 0.023 -0.078 -0.997 -0.018 -0.034 -0.999 -0.033 0.003 -0.999 -0.031 0.014 -0.999 -0.021 0.018 -1 0.021 0.016 -1 0.078 -0.006 -0.997 0.1 -0.031 -0.995 -0.08 -0.407 -0.91 -0.114 -0.471 -0.875 -0.124 -0.443 -0.888 -0.113 -0.391 -0.913 -0.092 -0.36 -0.928 -0.083 -0.355 -0.931 -0.072 -0.36 -0.93 -0.049 -0.389 -0.92 -0.032 -0.44 -0.897 -0.038 -0.469 -0.883 -0.121 -0.17 -0.978 -0.166 -0.235 -0.958 -0.171 -0.204 -0.964 -0.151 -0.149 -0.977 -0.125 -0.118 -0.985 -0.115 -0.114 -0.987 -0.105 -0.12 -0.987 -0.087 -0.155 -0.984 -0.079 -0.212 -0.974 -0.09 -0.242 -0.966 -0.419 -0.005 -0.908 -0.49 0.017 -0.872 -0.462 0.03 -0.886 -0.407 0.028 -0.913 -0.372 0.014 -0.928 -0.366 0.006 -0.931 -0.369 -0.004 -0.929 -0.397 -0.031 -0.917 -0.448 -0.055 -0.892 -0.478 -0.053 -0.877 -0.191 0.335 -0.923 -0.175 0.409 -0.896 -0.158 0.384 -0.91 -0.155 0.33 -0.931 -0.166 0.293 -0.942 -0.174 0.285 -0.943 -0.185 0.287 -0.94 -0.216 0.309 -0.926 -0.245 0.354 -0.903 -0.247 0.384 -0.89 -0.004 0.223 -0.975 0.065 0.269 -0.961 0.057 0.238 -0.97 0.016 0.194 -0.981 -0.02 0.174 -0.985 -0.031 0.173 -0.984 -0.037 0.182 -0.983 -0.041 0.22 -0.975 -0.026 0.276 -0.961 -0.003 0.3 -0.954 -0.218 0.305 -0.927 -0.212 0.379 -0.901 -0.192 0.357 -0.914 -0.181 0.303 -0.936 -0.188 0.265 -0.946 -0.195 0.257 -0.947 -0.206 0.257 -0.944 -0.239 0.275 -0.931 -0.275 0.317 -0.908 -0.28 0.346 -0.895 0.078 0.42 -0.904 0.142 0.462 -0.875 0.136 0.434 -0.89 0.1 0.393 -0.914 0.066 0.373 -0.925 0.055 0.373 -0.926 0.048 0.38 -0.924 0.041 0.416 -0.908 0.052 0.467 -0.882 0.073 0.49 -0.869 -0.093 0.239 -0.967 -0.054 0.308 -0.95 -0.046 0.278 -0.96 -0.061 0.222 -0.973 -0.084 0.189 -0.978 -0.094 0.183 -0.979 -0.104 0.188 -0.977 -0.125 0.22 -0.967 -0.139 0.275 -0.951 -0.13 0.306 -0.943 -0.328 0.321 -0.888 -0.339 0.392 -0.855 -0.315 0.376 -0.871 -0.292 0.329 -0.898 -0.289 0.292 -0.911 -0.294 0.283 -0.913 -0.305 0.28 -0.91 -0.341 0.289 -0.894 -0.385 0.318 -0.866 -0.397 0.344 -0.851 -0.149 -0.156 -0.976 -0.214 -0.188 -0.959 -0.203 -0.16 -0.966 -0.163 -0.124 -0.979 -0.13 -0.111 -0.985 -0.12 -0.113 -0.986 -0.115 -0.122 -0.986 -0.116 -0.16 -0.98 -0.136 -0.211 -0.968 -0.158 -0.231 -0.96 0.175 -0.119 -0.977 0.217 -0.182 -0.959 0.188 -0.174 -0.967 0.147 -0.136 -0.98 0.129 -0.103 -0.986 0.129 -0.092 -0.987 0.137 -0.087 -0.987 0.174 -0.085 -0.981 0.226 -0.1 -0.969 0.249 -0.121 -0.961 -0.34 -0.225 -0.913 -0.409 -0.233 -0.882 -0.392 -0.21 -0.896 -0.345 -0.191 -0.919 -0.31 -0.19 -0.932 -0.301 -0.195 -0.933 -0.299 -0.205 -0.932 -0.31 -0.24 -0.92 -0.341 -0.281 -0.897 -0.367 -0.291 -0.884 0.123 -0.2 -0.972 0.139 -0.274 -0.952 0.115 -0.255 -0.96 0.09 -0.205 -0.975 0.086 -0.168 -0.982 0.09 -0.158 -0.983 0.099 -0.156 -0.983 0.134 -0.169 -0.976 0.178 -0.203 -0.963 0.191 -0.231 -0.954 0.01 -0.212 -0.977 -0.007 -0.284 -0.959 -0.021 -0.256 -0.966 -0.021 -0.2 -0.979 -0.009 -0.165 -0.986 -0.002 -0.159 -0.987 0.008 -0.162 -0.987 0.034 -0.189 -0.981 0.059 -0.24 -0.969 0.059 -0.271 -0.961 -0.138 -0.175 -0.975 -0.199 -0.214 -0.956 -0.192 -0.184 -0.964 -0.155 -0.145 -0.977 -0.123 -0.128 -0.984 -0.113 -0.129 -0.985 -0.108 -0.138 -0.985 -0.105 -0.176 -0.979 -0.12 -0.229 -0.966 -0.14 -0.251 -0.958 -0.24 -0.393 -0.888 -0.296 -0.429 -0.853 -0.291 -0.401 -0.868 -0.258 -0.364 -0.895 -0.228 -0.348 -0.909 -0.218 -0.349 -0.911 -0.212 -0.358 -0.909 -0.207 -0.393 -0.896 -0.217 -0.443 -0.87 -0.236 -0.463 -0.854 -0.416 0.122 -0.901 -0.465 0.174 -0.868 -0.437 0.173 -0.883 -0.393 0.146 -0.908 -0.371 0.118 -0.921 -0.369 0.108 -0.923 -0.376 0.1 -0.921 -0.408 0.089 -0.908 -0.459 0.091 -0.884 -0.483 0.107 -0.869 0.199 -0.215 -0.956 0.225 -0.285 -0.932 0.198 -0.271 -0.942 0.168 -0.225 -0.96 0.157 -0.189 -0.969 0.16 -0.179 -0.971 0.169 -0.176 -0.97 0.205 -0.182 -0.962 0.252 -0.209 -0.945 0.269 -0.234 -0.934 -0.009 -0.125 -0.992 -0.026 -0.198 -0.98 -0.041 -0.17 -0.985 -0.041 -0.113 -0.993 -0.029 -0.078 -0.997 -0.022 -0.071 -0.997 -0.012 -0.074 -0.997 0.015 -0.102 -0.995 0.04 -0.154 -0.987 0.039 -0.185 -0.982 -0.32 0.3 -0.898 -0.338 0.369 -0.866 -0.314 0.354 -0.881 -0.289 0.309 -0.906 -0.283 0.273 -0.919 -0.286 0.264 -0.921 -0.295 0.261 -0.919 -0.329 0.268 -0.905 -0.372 0.296 -0.88 -0.386 0.321 -0.865 0.079 0.011 -0.997 0.148 -0.02 -0.989 0.12 -0.029 -0.992 0.065 -0.019 -0.998 0.032 -0.001 -0.999 0.026 0.008 -1 0.03 0.018 -0.999 0.059 0.04 -0.997 0.112 0.056 -0.992 0.142 0.05 -0.989 0.233 0.182 -0.955 0.292 0.214 -0.932 0.283 0.186 -0.941 0.247 0.152 -0.957 0.216 0.139 -0.966 0.207 0.141 -0.968 0.202 0.15 -0.968 0.202 0.186 -0.962 0.218 0.235 -0.947 0.238 0.254 -0.937 -0.072 0.144 -0.987 -0.115 0.204 -0.972 -0.087 0.196 -0.977 -0.046 0.161 -0.986 -0.027 0.129 -0.991 -0.027 0.119 -0.993 -0.035 0.114 -0.993 -0.069 0.111 -0.991 -0.121 0.125 -0.985 -0.143 0.145 -0.979 0.407 0.25 -0.878 0.47 0.258 -0.844 0.456 0.236 -0.858 0.413 0.217 -0.884 0.381 0.216 -0.899 0.372 0.221 -0.902 0.37 0.231 -0.9 0.379 0.264 -0.887 0.406 0.303 -0.862 0.429 0.313 -0.847 -0.025 0.222 -0.975 -0.044 0.292 -0.955 -0.02 0.275 -0.961 0.006 0.227 -0.974 0.012 0.191 -0.981 0.008 0.182 -0.983 -0.001 0.181 -0.984 -0.035 0.192 -0.981 -0.078 0.224 -0.971 -0.092 0.251 -0.964 0.081 0.234 -0.969 0.094 0.303 -0.948 0.109 0.277 -0.955 0.112 0.224 -0.968 0.102 0.19 -0.976 0.095 0.184 -0.978 0.086 0.187 -0.979 0.06 0.212 -0.975 0.034 0.261 -0.965 0.033 0.29 -0.956 0.222 0.201 -0.954 0.277 0.238 -0.931 0.271 0.21 -0.939 0.239 0.172 -0.956 0.209 0.156 -0.965 0.2 0.156 -0.967 0.195 0.165 -0.967 0.191 0.201 -0.961 0.202 0.252 -0.946 0.221 0.273 -0.936 0.306 0.41 -0.859 0.357 0.446 -0.821 0.354 0.419 -0.836 0.325 0.383 -0.865 0.298 0.367 -0.881 0.288 0.368 -0.884 0.282 0.376 -0.883 0.276 0.41 -0.869 0.282 0.458 -0.843 0.298 0.478 -0.826 0.487 -0.084 -0.87 0.532 -0.135 -0.836 0.506 -0.134 -0.852 0.466 -0.107 -0.878 0.445 -0.079 -0.892 0.443 -0.069 -0.894 0.449 -0.062 -0.891 0.479 -0.052 -0.876 0.525 -0.055 -0.849 0.548 -0.07 -0.834 -0.099 0.236 -0.967 -0.128 0.302 -0.945 -0.101 0.289 -0.952 -0.069 0.246 -0.967 -0.058 0.212 -0.976 -0.059 0.202 -0.978 -0.068 0.199 -0.978 -0.103 0.204 -0.973 -0.151 0.229 -0.962 -0.168 0.253 -0.953 0.103 0.152 -0.983 0.116 0.222 -0.968 0.131 0.195 -0.972 0.133 0.141 -0.981 0.123 0.107 -0.987 0.116 0.101 -0.988 0.107 0.104 -0.989 0.081 0.13 -0.988 0.056 0.179 -0.982 0.055 0.208 -0.977 0.4 -0.256 -0.88 0.416 -0.323 -0.85 0.394 -0.309 -0.866 0.371 -0.264 -0.89 0.365 -0.229 -0.902 0.368 -0.22 -0.904 0.376 -0.217 -0.901 0.408 -0.225 -0.885 0.447 -0.252 -0.858 0.46 -0.277 -0.844 0.024 0.021 -1 -0.043 0.05 -0.998 -0.016 0.059 -0.998 0.036 0.05 -0.998 0.068 0.033 -0.997 0.074 0.024 -0.997 0.07 0.015 -0.997 0.043 -0.006 -0.999 -0.006 -0.022 -1 -0.035 -0.017 -0.999 -0.812 -0.477 -0.335 -0.781 -0.43 -0.452 -0.779 -0.428 -0.458 -0.358 -0.225 -0.906 -0.262 -0.184 -0.947 0.485 0.118 -0.867 0.555 0.141 -0.82 0.776 0.216 -0.593 -0.661 -0.678 -0.321 -0.645 -0.627 -0.436 -0.644 -0.624 -0.442 -0.308 -0.312 -0.899 -0.237 -0.253 -0.938 0.41 0.264 -0.873 0.465 0.303 -0.832 0.665 0.444 -0.601 0.855 0.32 -0.407 0.832 0.264 -0.488 0.83 0.261 -0.492 0.482 0.092 -0.872 0.389 0.062 -0.919 -0.408 -0.108 -0.907 -0.543 -0.12 -0.831 -0.844 -0.138 -0.519 0.503 -0.774 -0.386 0.498 -0.701 -0.511 0.498 -0.706 -0.503 0.087 -0.244 -0.966 0.188 -0.347 -0.919 -0.529 0.339 -0.778 -0.453 0.278 -0.847 -0.691 0.473 -0.547 0.81 -0.466 -0.355 0.768 -0.466 -0.44 0.767 -0.466 -0.441 0.409 -0.316 -0.856 0.386 -0.304 -0.871 -0.361 0.144 -0.922 -0.396 0.168 -0.903 -0.704 0.396 -0.59 -0.663 -0.7 -0.265 -0.611 -0.708 -0.355 -0.614 -0.708 -0.35 -0.317 -0.413 -0.854 -0.375 -0.486 -0.789 0.222 0.404 -0.887 0.147 0.271 -0.951 0.384 0.689 -0.614 -0.008 0.902 -0.432 0.019 0.85 -0.526 0.02 0.847 -0.531 -0.005 0.392 -0.92 -0.016 0.298 -0.954 -0.134 -0.522 -0.843 -0.152 -0.608 -0.779 -0.2 -0.853 -0.482 -0.416 -0.823 -0.388 -0.385 -0.748 -0.541 -0.385 -0.747 -0.542 -0.104 -0.193 -0.976 -0.094 -0.174 -0.98 0.29 0.545 -0.787 0.294 0.552 -0.78 0.383 0.708 -0.593 -0.611 -0.713 -0.344 -0.577 -0.666 -0.474 -0.576 -0.665 -0.475 -0.21 -0.258 -0.943 -0.194 -0.241 -0.951 0.386 0.395 -0.833 0.396 0.405 -0.824 0.553 0.574 -0.604 -0.916 0.028 -0.399 -0.848 0.056 -0.527 -0.842 0.058 -0.537 -0.348 -0.031 -0.937 -0.198 -0.067 -0.978 0.512 -0.251 -0.821 0.59 -0.281 -0.757 0.763 -0.345 -0.546 -0.648 -0.657 -0.385 -0.577 -0.614 -0.539 -0.58 -0.616 -0.533 -0.12 -0.131 -0.984 -0.172 -0.189 -0.967 0.397 0.495 -0.773 0.38 0.47 -0.797 0.495 0.638 -0.59 -0 -0.95 -0.314 0.001 -0.907 -0.421 0.001 -0.908 -0.42 -0.03 -0.438 -0.899 -0.028 -0.456 -0.889 -0.068 0.472 -0.879 -0.067 0.454 -0.889 -0.074 0.786 -0.614 0.349 0.83 -0.435 0.3 0.793 -0.529 0.302 0.795 -0.526 0.09 0.298 -0.95 0.118 0.377 -0.919 -0.161 -0.592 -0.79 -0.145 -0.512 -0.847 -0.209 -0.849 -0.486 -0.912 -0.274 -0.304 -0.867 -0.296 -0.401 -0.869 -0.295 -0.397 -0.427 -0.195 -0.883 -0.491 -0.215 -0.844 0.435 0.163 -0.885 0.358 0.124 -0.925 0.723 0.314 -0.616 -0.679 -0.69 -0.253 -0.659 -0.672 -0.337 -0.418 -0.441 -0.794 0.242 0.221 -0.945 0.241 0.221 -0.945 0.55 0.539 -0.638 0.807 0.414 -0.421 0.767 0.367 -0.526 0.765 0.365 -0.531 0.287 0.176 -0.941 0.175 0.137 -0.975 -0.646 -0.139 -0.75 -0.709 -0.155 -0.688 -0.883 -0.2 -0.424 0.672 0.625 -0.398 0.646 0.576 -0.501 0.644 0.574 -0.506 0.241 0.277 -0.93 0.154 0.216 -0.964 -0.578 -0.302 -0.758 -0.629 -0.335 -0.702 -0.787 -0.441 -0.432 -0.928 -0.287 -0.236 -0.919 -0.238 -0.316 -0.918 -0.235 -0.32 -0.643 -0.111 -0.758 -0.554 -0.089 -0.828 0.331 0.042 -0.943 0.483 0.049 -0.874 0.808 0.06 -0.587 -0.493 0.81 -0.319 -0.516 0.738 -0.434 -0.515 0.744 -0.426 -0.209 0.229 -0.951 -0.302 0.351 -0.886 0.428 -0.444 -0.787 0.348 -0.382 -0.856 0.599 -0.568 -0.564 -0.824 0.515 -0.237 -0.797 0.512 -0.32 -0.797 0.511 -0.321 -0.53 0.332 -0.78 -0.51 0.317 -0.8 0.254 -0.235 -0.938 0.292 -0.263 -0.919 0.616 -0.494 -0.614 0.679 0.646 -0.348 0.622 0.658 -0.424 0.625 0.658 -0.42 0.263 0.387 -0.884 0.337 0.46 -0.822 -0.393 -0.469 -0.791 -0.316 -0.34 -0.886 -0.524 -0.712 -0.468 -0.121 -0.933 -0.339 -0.157 -0.892 -0.425 -0.159 -0.889 -0.429 -0.156 -0.48 -0.863 -0.142 -0.383 -0.913 0.076 0.518 -0.852 0.111 0.607 -0.787 0.212 0.84 -0.499 0.435 0.788 -0.435 0.386 0.722 -0.575 0.386 0.721 -0.576 -0.004 0.157 -0.988 -0.017 0.137 -0.99 -0.453 -0.597 -0.662 -0.456 -0.603 -0.654 -0.52 -0.728 -0.447 0.624 0.663 -0.414 0.578 0.621 -0.53 0.577 0.621 -0.531 0.124 0.224 -0.967 0.104 0.206 -0.973 -0.553 -0.439 -0.708 -0.561 -0.448 -0.696 -0.683 -0.581 -0.442 0.874 -0.11 -0.474 0.797 -0.143 -0.587 0.79 -0.145 -0.596 0.256 -0.041 -0.966 0.089 0.009 -0.996 -0.637 0.267 -0.723 -0.7 0.305 -0.646 -0.824 0.385 -0.415 0.654 0.605 -0.455 0.57 0.57 -0.591 0.574 0.572 -0.586 0.008 0.086 -0.996 0.072 0.149 -0.986 -0.557 -0.535 -0.635 -0.543 -0.514 -0.665 -0.627 -0.648 -0.433 0.039 0.946 -0.322 0.021 0.908 -0.419 0.022 0.908 -0.418 -0.052 0.437 -0.898 -0.05 0.457 -0.888 -0.089 -0.565 -0.821 -0.089 -0.547 -0.833 -0.071 -0.848 -0.525 -0.467 -0.832 -0.298 -0.433 -0.811 -0.393 -0.434 -0.812 -0.389 -0.257 -0.374 -0.891 -0.287 -0.453 -0.844 0.118 0.589 -0.799 0.087 0.507 -0.857 0.221 0.835 -0.504 0.895 0.203 -0.398 0.847 0.225 -0.482 0.849 0.224 -0.479 0.361 0.138 -0.922 0.434 0.157 -0.887 -0.602 -0.193 -0.775 -0.527 -0.16 -0.835 -0.841 -0.306 -0.447 0.694 0.635 -0.339 0.668 0.619 -0.412 0.379 0.408 -0.831 -0.413 -0.277 -0.867 -0.413 -0.277 -0.868 -0.685 -0.55 -0.477 -0.017 0.019 1 -0.055 0.09 0.994 -0.023 0.078 0.997 0.018 0.034 0.999 0.033 -0.003 0.999 0.031 -0.014 0.999 0.021 -0.018 1 -0.021 -0.016 1 -0.078 0.006 0.997 -0.1 0.031 0.995 0.08 0.407 0.91 0.114 0.471 0.875 0.124 0.443 0.888 0.113 0.391 0.913 0.092 0.36 0.928 0.083 0.355 0.931 0.072 0.36 0.93 0.049 0.389 0.92 0.032 0.44 0.897 0.038 0.469 0.883 0.121 0.17 0.978 0.166 0.235 0.958 0.171 0.204 0.964 0.151 0.149 0.977 0.125 0.118 0.985 0.115 0.114 0.987 0.105 0.12 0.987 0.087 0.155 0.984 0.079 0.212 0.974 0.09 0.242 0.966 0.419 0.005 0.908 0.49 -0.017 0.872 0.462 -0.03 0.886 0.407 -0.028 0.913 0.372 -0.014 0.928 0.366 -0.006 0.931 0.369 0.004 0.929 0.397 0.031 0.917 0.448 0.055 0.892 0.478 0.053 0.877 0.191 -0.335 0.923 0.175 -0.409 0.896 0.158 -0.384 0.91 0.155 -0.33 0.931 0.166 -0.293 0.942 0.174 -0.285 0.943 0.185 -0.287 0.94 0.216 -0.309 0.926 0.245 -0.354 0.903 0.247 -0.384 0.89 0.004 -0.223 0.975 -0.065 -0.269 0.961 -0.057 -0.238 0.97 -0.016 -0.194 0.981 0.02 -0.174 0.985 0.031 -0.173 0.984 0.037 -0.182 0.983 0.041 -0.22 0.975 0.026 -0.276 0.961 0.003 -0.3 0.954 0.218 -0.305 0.927 0.212 -0.379 0.901 0.192 -0.357 0.914 0.181 -0.303 0.936 0.188 -0.265 0.946 0.195 -0.257 0.947 0.206 -0.257 0.944 0.239 -0.275 0.931 0.275 -0.317 0.908 0.28 -0.346 0.895 -0.078 -0.42 0.904 -0.142 -0.462 0.875 -0.136 -0.434 0.89 -0.1 -0.393 0.914 -0.066 -0.373 0.925 -0.055 -0.373 0.926 -0.048 -0.38 0.924 -0.041 -0.416 0.908 -0.052 -0.467 0.882 -0.073 -0.49 0.869 0.093 -0.239 0.967 0.054 -0.308 0.95 0.046 -0.278 0.96 0.061 -0.222 0.973 0.084 -0.189 0.978 0.094 -0.183 0.979 0.104 -0.188 0.977 0.125 -0.22 0.967 0.139 -0.275 0.951 0.13 -0.306 0.943 0.328 -0.321 0.888 0.339 -0.392 0.855 0.315 -0.376 0.871 0.292 -0.329 0.898 0.289 -0.292 0.911 0.294 -0.283 0.913 0.305 -0.28 0.91 0.341 -0.289 0.894 0.385 -0.318 0.866 0.397 -0.344 0.851 0.149 0.156 0.976 0.214 0.188 0.959 0.203 0.16 0.966 0.163 0.124 0.979 0.13 0.111 0.985 0.12 0.113 0.986 0.115 0.122 0.986 0.116 0.16 0.98 0.136 0.211 0.968 0.158 0.231 0.96 -0.175 0.119 0.977 -0.217 0.182 0.959 -0.188 0.174 0.967 -0.147 0.136 0.98 -0.129 0.103 0.986 -0.129 0.092 0.987 -0.137 0.087 0.987 -0.174 0.085 0.981 -0.226 0.1 0.969 -0.249 0.121 0.961 0.34 0.225 0.913 0.409 0.233 0.882 0.392 0.21 0.896 0.345 0.191 0.919 0.31 0.19 0.932 0.301 0.195 0.933 0.299 0.205 0.932 0.31 0.24 0.92 0.341 0.281 0.897 0.367 0.291 0.884 -0.123 0.2 0.972 -0.139 0.274 0.952 -0.115 0.255 0.96 -0.09 0.205 0.975 -0.086 0.168 0.982 -0.09 0.158 0.983 -0.099 0.156 0.983 -0.134 0.169 0.976 -0.178 0.203 0.963 -0.191 0.231 0.954 -0.01 0.212 0.977 0.007 0.284 0.959 0.021 0.256 0.966 0.021 0.2 0.979 0.009 0.165 0.986 0.002 0.159 0.987 -0.008 0.162 0.987 -0.034 0.189 0.981 -0.059 0.24 0.969 -0.059 0.271 0.961 0.138 0.175 0.975 0.199 0.214 0.956 0.192 0.184 0.964 0.155 0.145 0.977 0.123 0.128 0.984 0.113 0.129 0.985 0.108 0.138 0.985 0.105 0.176 0.979 0.12 0.229 0.966 0.14 0.251 0.958 0.24 0.393 0.888 0.296 0.429 0.853 0.291 0.401 0.868 0.258 0.364 0.895 0.228 0.348 0.909 0.218 0.349 0.911 0.212 0.358 0.909 0.207 0.393 0.896 0.217 0.443 0.87 0.236 0.463 0.854 0.416 -0.122 0.901 0.465 -0.174 0.868 0.437 -0.173 0.883 0.393 -0.146 0.908 0.371 -0.118 0.921 0.369 -0.108 0.923 0.376 -0.1 0.921 0.408 -0.089 0.908 0.459 -0.091 0.884 0.483 -0.107 0.869 -0.199 0.215 0.956 -0.225 0.285 0.932 -0.198 0.271 0.942 -0.168 0.225 0.96 -0.157 0.189 0.969 -0.16 0.179 0.971 -0.169 0.176 0.97 -0.205 0.182 0.962 -0.252 0.209 0.945 -0.269 0.234 0.934 0.009 0.125 0.992 0.026 0.198 0.98 0.041 0.17 0.985 0.041 0.113 0.993 0.029 0.078 0.997 0.022 0.071 0.997 0.012 0.074 0.997 -0.015 0.102 0.995 -0.04 0.154 0.987 -0.039 0.185 0.982 0.32 -0.3 0.898 0.338 -0.369 0.866 0.314 -0.354 0.881 0.289 -0.309 0.906 0.283 -0.273 0.919 0.286 -0.264 0.921 0.295 -0.261 0.919 0.329 -0.268 0.905 0.372 -0.296 0.88 0.386 -0.321 0.865 -0.079 -0.011 0.997 -0.148 0.02 0.989 -0.12 0.029 0.992 -0.065 0.019 0.998 -0.032 0.001 0.999 -0.026 -0.008 1 -0.03 -0.018 0.999 -0.059 -0.04 0.997 -0.112 -0.056 0.992 -0.142 -0.05 0.989 -0.233 -0.182 0.955 -0.292 -0.214 0.932 -0.283 -0.186 0.941 -0.247 -0.152 0.957 -0.216 -0.139 0.966 -0.207 -0.141 0.968 -0.202 -0.15 0.968 -0.202 -0.186 0.962 -0.218 -0.235 0.947 -0.238 -0.254 0.937 0.072 -0.144 0.987 0.115 -0.204 0.972 0.087 -0.196 0.977 0.046 -0.161 0.986 0.027 -0.129 0.991 0.027 -0.119 0.993 0.035 -0.114 0.993 0.069 -0.111 0.991 0.121 -0.125 0.985 0.143 -0.145 0.979 -0.407 -0.25 0.878 -0.47 -0.258 0.844 -0.456 -0.236 0.858 -0.413 -0.217 0.884 -0.381 -0.216 0.899 -0.372 -0.221 0.902 -0.37 -0.231 0.9 -0.379 -0.264 0.887 -0.406 -0.303 0.862 -0.429 -0.313 0.847 0.025 -0.222 0.975 0.044 -0.292 0.955 0.02 -0.275 0.961 -0.006 -0.227 0.974 -0.012 -0.191 0.981 -0.008 -0.182 0.983 0.001 -0.181 0.984 0.035 -0.192 0.981 0.078 -0.224 0.971 0.092 -0.251 0.964 -0.081 -0.234 0.969 -0.094 -0.303 0.948 -0.109 -0.277 0.955 -0.112 -0.224 0.968 -0.102 -0.19 0.976 -0.095 -0.184 0.978 -0.086 -0.187 0.979 -0.06 -0.212 0.975 -0.034 -0.261 0.965 -0.033 -0.29 0.956 -0.222 -0.201 0.954 -0.277 -0.238 0.931 -0.271 -0.21 0.939 -0.239 -0.172 0.956 -0.209 -0.156 0.965 -0.2 -0.156 0.967 -0.195 -0.165 0.967 -0.191 -0.201 0.961 -0.202 -0.252 0.946 -0.221 -0.273 0.936 -0.306 -0.41 0.859 -0.357 -0.446 0.821 -0.354 -0.419 0.836 -0.325 -0.383 0.865 -0.298 -0.367 0.881 -0.288 -0.368 0.884 -0.282 -0.376 0.883 -0.276 -0.41 0.869 -0.282 -0.458 0.843 -0.298 -0.478 0.826 -0.487 0.084 0.87 -0.532 0.135 0.836 -0.506 0.134 0.852 -0.466 0.107 0.878 -0.445 0.079 0.892 -0.443 0.069 0.894 -0.449 0.062 0.891 -0.479 0.052 0.876 -0.525 0.055 0.849 -0.548 0.07 0.834 0.099 -0.236 0.967 0.128 -0.302 0.945 0.101 -0.289 0.952 0.069 -0.246 0.967 0.058 -0.212 0.976 0.059 -0.202 0.978 0.068 -0.199 0.978 0.103 -0.204 0.973 0.151 -0.229 0.962 0.168 -0.253 0.953 -0.103 -0.152 0.983 -0.116 -0.222 0.968 -0.131 -0.195 0.972 -0.133 -0.141 0.981 -0.123 -0.107 0.987 -0.116 -0.101 0.988 -0.107 -0.104 0.989 -0.081 -0.13 0.988 -0.056 -0.179 0.982 -0.055 -0.208 0.977 -0.4 0.256 0.88 -0.416 0.323 0.85 -0.394 0.309 0.866 -0.371 0.264 0.89 -0.365 0.229 0.902 -0.368 0.22 0.904 -0.376 0.217 0.901 -0.408 0.225 0.885 -0.447 0.252 0.858 -0.46 0.277 0.844 -0.024 -0.021 1 0.043 -0.05 0.998 0.016 -0.059 0.998 -0.036 -0.05 0.998 -0.068 -0.033 0.997 -0.074 -0.024 0.997 -0.07 -0.015 0.997 -0.043 0.006 0.999 0.006 0.022 1 0.035 0.017 0.999</float_array><technique_common><accessor source="#weeds_-06-01_foliage-nrm-a" count="1152" stride="3"><param name="X" type="float"/><param name="Y" type="float"/><param name="Z" type="float"/></accessor></technique_common></source>
        <vertices id="weeds_-06-01_foliage-vtx"><input semantic="POSITION" source="#weeds_-06-01_foliage-pos"/></vertices>
        <triangles count="480" material="MAT_WEED_GRASS-mat"><input semantic="VERTEX" source="#weeds_-06-01_foliage-vtx" offset="0"/><input semantic="NORMAL" source="#weeds_-06-01_foliage-nrm" offset="1"/><p>0 0 1 0 2 1 0 0 2 1 3 2 3 2 2 1 4 3 3 2 4 3 5 4 5 4 4 3 6 5 5 4 6 5 7 6 7 6 6 5 8 7 7 6 8 7 9 7 10 8 11 8 12 9 10 8 12 9 13 10 13 10 12 9 14 11 13 10 14 11 15 12 15 12 14 11 16 13 15 12 16 13 17 14 17 14 16 13 18 15 17 14 18 15 19 15 20 16 21 16 22 17 20 16 22 17 23 18 23 18 22 17 24 19 23 18 24 19 25 20 25 20 24 19 26 21 25 20 26 21 27 22 27 22 26 21 28 23 27 22 28 23 29 23 30 24 31 24 32 25 30 24 32 25 33 26 33 26 32 25 34 27 33 26 34 27 35 28 35 28 34 27 36 29 35 28 36 29 37 30 37 30 36 29 38 31 37 30 38 31 39 31 40 32 41 32 42 33 40 32 42 33 43 34 43 34 42 33 44 35 43 34 44 35 45 36 45 36 44 35 46 37 45 36 46 37 47 38 47 38 46 37 48 39 47 38 48 39 49 39 50 40 51 40 52 41 50 40 52 41 53 42 53 42 52 41 54 43 53 42 54 43 55 44 55 44 54 43 56 45 55 44 56 45 57 46 57 46 56 45 58 47 57 46 58 47 59 47 60 48 61 48 62 49 60 48 62 49 63 50 63 50 62 49 64 51 63 50 64 51 65 52 65 52 64 51 66 53 65 52 66 53 67 54 67 54 66 53 68 55 67 54 68 55 69 55 70 56 71 56 72 57 70 56 72 57 73 58 73 58 72 57 74 59 73 58 74 59 75 60 75 60 74 59 76 61 75 60 76 61 77 62 77 62 76 61 78 63 77 62 78 63 79 63 80 64 81 64 82 65 80 64 82 65 83 66 83 66 82 65 84 67 83 66 84 67 85 68 85 68 84 67 86 69 85 68 86 69 87 70 87 70 86 69 88 71 87 70 88 71 89 71 90 72 91 72 92 73 90 72 92 73 93 74 93 74 92 73 94 75 93 74 94 75 95 76 95 76 94 75 96 77 95 76 96 77 97 78 97 78 96 77 98 79 97 78 98 79 99 79 100 80 101 80 102 81 100 80 102 81 103 82 103 82 102 81 104 83 103 82 104 83 105 84 105 84 104 83 106 85 105 84 106 85 107 86 107 86 106 85 108 87 107 86 108 87 109 87 110 88 111 88 112 89 110 88 112 89 113 90 113 90 112 89 114 91 113 90 114 91 115 92 115 92 114 91 116 93 115 92 116 93 117 94 117 94 116 93 118 95 117 94 118 95 119 95 120 96 121 96 122 97 120 96 122 97 123 98 123 98 122 97 124 99 123 98 124 99 125 100 125 100 124 99 126 101 125 100 126 101 127 102 127 102 126 101 128 103 127 102 128 103 129 103 130 104 131 104 132 105 130 104 132 105 133 106 133 106 132 105 134 107 133 106 134 107 135 108 135 108 134 107 136 109 135 108 136 109 137 110 137 110 136 109 138 111 137 110 138 111 139 111 140 112 141 112 142 113 140 112 142 113 143 113 143 113 142 113 144 114 143 113 144 114 145 114 145 114 144 114 146 115 145 114 146 115 147 116 147 116 146 115 148 117 147 116 148 117 149 117 150 118 151 118 152 119 150 118 152 119 153 120 153 120 152 119 154 121 153 120 154 121 155 122 155 122 154 121 156 123 155 122 156 123 157 124 157 124 156 123 158 125 157 124 158 125 159 125 160 126 161 126 162 127 160 126 162 127 163 128 163 128 162 127 164 129 163 128 164 129 165 130 165 130 164 129 166 131 165 130 166 131 167 132 167 132 166 131 168 133 167 132 168 133 169 133 170 134 171 134 172 135 170 134 172 135 173 136 173 136 172 135 174 137 173 136 174 137 175 138 175 138 174 137 176 139 175 138 176 139 177 140 177 140 176 139 178 141 177 140 178 141 179 141 180 142 181 142 182 143 180 142 182 143 183 144 183 144 182 143 184 145 183 144 184 145 185 146 185 146 184 145 186 147 185 146 186 147 187 148 187 148 186 147 188 149 187 148 188 149 189 149 190 150 191 150 192 151 190 150 192 151 193 152 193 152 192 151 194 153 193 152 194 153 195 154 195 154 194 153 196 155 195 154 196 155 197 156 197 156 196 155 198 157 197 156 198 157 199 157 200 158 201 158 202 159 200 158 202 159 203 160 203 160 202 159 204 161 203 160 204 161 205 162 205 162 204 161 206 163 205 162 206 163 207 164 207 164 206 163 208 165 207 164 208 165 209 165 210 166 211 166 212 167 210 166 212 167 213 168 213 168 212 167 214 169 213 168 214 169 215 170 215 170 214 169 216 171 215 170 216 171 217 172 217 172 216 171 218 173 217 172 218 173 219 173 220 174 221 174 222 175 220 174 222 175 223 176 223 176 222 175 224 177 223 176 224 177 225 178 225 178 224 177 226 179 225 178 226 179 227 180 227 180 226 179 228 181 227 180 228 181 229 181 230 182 231 182 232 183 230 182 232 183 233 184 233 184 232 183 234 185 233 184 234 185 235 186 235 186 234 185 236 187 235 186 236 187 237 188 237 188 236 187 238 189 237 188 238 189 239 189 240 190 241 190 242 191 240 190 242 191 243 192 243 192 242 191 244 193 243 192 244 193 245 194 245 194 244 193 246 195 245 194 246 195 247 196 247 196 246 195 248 197 247 196 248 197 249 197 250 198 251 198 252 199 250 198 252 199 253 200 253 200 252 199 254 201 253 200 254 201 255 202 255 202 254 201 256 203 255 202 256 203 257 204 257 204 256 203 258 205 257 204 258 205 259 205 260 206 261 206 262 207 260 206 262 207 263 208 263 208 262 207 264 209 263 208 264 209 265 210 265 210 264 209 266 211 265 210 266 211 267 212 267 212 266 211 268 213 267 212 268 213 269 213 270 214 271 214 272 215 270 214 272 215 273 216 273 216 272 215 274 217 273 216 274 217 275 218 275 218 274 217 276 219 275 218 276 219 277 220 277 220 276 219 278 221 277 220 278 221 279 221 280 222 281 222 282 223 280 222 282 223 283 224 283 224 282 223 284 225 283 224 284 225 285 226 285 226 284 225 286 227 285 226 286 227 287 228 287 228 286 227 288 229 287 228 288 229 289 229 290 230 291 230 292 231 290 230 292 231 293 231 293 231 292 231 294 232 293 231 294 232 295 232 295 232 294 232 296 233 295 232 296 233 297 234 297 234 296 233 298 235 297 234 298 235 299 235 0 576 2 577 1 576 0 576 3 578 2 577 3 578 4 579 2 577 3 578 5 580 4 579 5 580 6 581 4 579 5 580 7 582 6 581 7 582 8 583 6 581 7 582 9 583 8 583 10 584 12 585 11 584 10 584 13 586 12 585 13 586 14 587 12 585 13 586 15 588 14 587 15 588 16 589 14 587 15 588 17 590 16 589 17 590 18 591 16 589 17 590 19 591 18 591 20 592 22 593 21 592 20 592 23 594 22 593 23 594 24 595 22 593 23 594 25 596 24 595 25 596 26 597 24 595 25 596 27 598 26 597 27 598 28 599 26 597 27 598 29 599 28 599 30 600 32 601 31 600 30 600 33 602 32 601 33 602 34 603 32 601 33 602 35 604 34 603 35 604 36 605 34 603 35 604 37 606 36 605 37 606 38 607 36 605 37 606 39 607 38 607 40 608 42 609 41 608 40 608 43 610 42 609 43 610 44 611 42 609 43 610 45 612 44 611 45 612 46 613 44 611 45 612 47 614 46 613 47 614 48 615 46 613 47 614 49 615 48 615 50 616 52 617 51 616 50 616 53 618 52 617 53 618 54 619 52 617 53 618 55 620 54 619 55 620 56 621 54 619 55 620 57 622 56 621 57 622 58 623 56 621 57 622 59 623 58 623 60 624 62 625 61 624 60 624 63 626 62 625 63 626 64 627 62 625 63 626 65 628 64 627 65 628 66 629 64 627 65 628 67 630 66 629 67 630 68 631 66 629 67 630 69 631 68 631 70 632 72 633 71 632 70 632 73 634 72 633 73 634 74 635 72 633 73 634 75 636 74 635 75 636 76 637 74 635 75 636 77 638 76 637 77 638 78 639 76 637 77 638 79 639 78 639 80 640 82 641 81 640 80 640 83 642 82 641 83 642 84 643 82 641 83 642 85 644 84 643 85 644 86 645 84 643 85 644 87 646 86 645 87 646 88 647 86 645 87 646 89 647 88 647 90 648 92 649 91 648 90 648 93 650 92 649 93 650 94 651 92 649 93 650 95 652 94 651 95 652 96 653 94 651 95 652 97 654 96 653 97 654 98 655 96 653 97 654 99 655 98 655 100 656 102 657 101 656 100 656 103 658 102 657 103 658 104 659 102 657 103 658 105 660 104 659 105 660 106 661 104 659 105 660 107 662 106 661 107 662 108 663 106 661 107 662 109 663 108 663 110 664 112 665 111 664 110 664 113 666 112 665 113 666 114 667 112 665 113 666 115 668 114 667 115 668 116 669 114 667 115 668 117 670 116 669 117 670 118 671 116 669 117 670 119 671 118 671 120 672 122 673 121 672 120 672 123 674 122 673 123 674 124 675 122 673 123 674 125 676 124 675 125 676 126 677 124 675 125 676 127 678 126 677 127 678 128 679 126 677 127 678 129 679 128 679 130 680 132 681 131 680 130 680 133 682 132 681 133 682 134 683 132 681 133 682 135 684 134 683 135 684 136 685 134 683 135 684 137 686 136 685 137 686 138 687 136 685 137 686 139 687 138 687 140 688 142 689 141 688 140 688 143 689 142 689 143 689 144 690 142 689 143 689 145 690 144 690 145 690 146 691 144 690 145 690 147 692 146 691 147 692 148 693 146 691 147 692 149 693 148 693 150 694 152 695 151 694 150 694 153 696 152 695 153 696 154 697 152 695 153 696 155 698 154 697 155 698 156 699 154 697 155 698 157 700 156 699 157 700 158 701 156 699 157 700 159 701 158 701 160 702 162 703 161 702 160 702 163 704 162 703 163 704 164 705 162 703 163 704 165 706 164 705 165 706 166 707 164 705 165 706 167 708 166 707 167 708 168 709 166 707 167 708 169 709 168 709 170 710 172 711 171 710 170 710 173 712 172 711 173 712 174 713 172 711 173 712 175 714 174 713 175 714 176 715 174 713 175 714 177 716 176 715 177 716 178 717 176 715 177 716 179 717 178 717 180 718 182 719 181 718 180 718 183 720 182 719 183 720 184 721 182 719 183 720 185 722 184 721 185 722 186 723 184 721 185 722 187 724 186 723 187 724 188 725 186 723 187 724 189 725 188 725 190 726 192 727 191 726 190 726 193 728 192 727 193 728 194 729 192 727 193 728 195 730 194 729 195 730 196 731 194 729 195 730 197 732 196 731 197 732 198 733 196 731 197 732 199 733 198 733 200 734 202 735 201 734 200 734 203 736 202 735 203 736 204 737 202 735 203 736 205 738 204 737 205 738 206 739 204 737 205 738 207 740 206 739 207 740 208 741 206 739 207 740 209 741 208 741 210 742 212 743 211 742 210 742 213 744 212 743 213 744 214 745 212 743 213 744 215 746 214 745 215 746 216 747 214 745 215 746 217 748 216 747 217 748 218 749 216 747 217 748 219 749 218 749 220 750 222 751 221 750 220 750 223 752 222 751 223 752 224 753 222 751 223 752 225 754 224 753 225 754 226 755 224 753 225 754 227 756 226 755 227 756 228 757 226 755 227 756 229 757 228 757 230 758 232 759 231 758 230 758 233 760 232 759 233 760 234 761 232 759 233 760 235 762 234 761 235 762 236 763 234 761 235 762 237 764 236 763 237 764 238 765 236 763 237 764 239 765 238 765 240 766 242 767 241 766 240 766 243 768 242 767 243 768 244 769 242 767 243 768 245 770 244 769 245 770 246 771 244 769 245 770 247 772 246 771 247 772 248 773 246 771 247 772 249 773 248 773 250 774 252 775 251 774 250 774 253 776 252 775 253 776 254 777 252 775 253 776 255 778 254 777 255 778 256 779 254 777 255 778 257 780 256 779 257 780 258 781 256 779 257 780 259 781 258 781 260 782 262 783 261 782 260 782 263 784 262 783 263 784 264 785 262 783 263 784 265 786 264 785 265 786 266 787 264 785 265 786 267 788 266 787 267 788 268 789 266 787 267 788 269 789 268 789 270 790 272 791 271 790 270 790 273 792 272 791 273 792 274 793 272 791 273 792 275 794 274 793 275 794 276 795 274 793 275 794 277 796 276 795 277 796 278 797 276 795 277 796 279 797 278 797 280 798 282 799 281 798 280 798 283 800 282 799 283 800 284 801 282 799 283 800 285 802 284 801 285 802 286 803 284 801 285 802 287 804 286 803 287 804 288 805 286 803 287 804 289 805 288 805 290 806 292 807 291 806 290 806 293 807 292 807 293 807 294 808 292 807 293 807 295 808 294 808 295 808 296 809 294 808 295 808 297 810 296 809 297 810 298 811 296 809 297 810 299 811 298 811</p></triangles>
        <triangles count="544" material="MAT_WEED_BROAD-mat"><input semantic="VERTEX" source="#weeds_-06-01_foliage-vtx" offset="0"/><input semantic="NORMAL" source="#weeds_-06-01_foliage-nrm" offset="1"/><p>300 236 301 237 302 238 300 236 302 238 303 239 300 236 303 239 304 240 300 236 304 240 305 241 300 236 305 241 306 242 300 236 306 242 307 243 300 236 307 243 308 244 300 236 308 244 309 245 310 246 311 247 312 248 310 246 312 248 313 249 310 246 313 249 314 250 310 246 314 250 315 251 310 246 315 251 316 252 310 246 316 252 317 253 310 246 317 253 318 254 310 246 318 254 319 255 320 256 321 257 322 258 320 256 322 258 323 259 320 256 323 259 324 260 320 256 324 260 325 261 320 256 325 261 326 262 320 256 326 262 327 263 320 256 327 263 328 264 320 256 328 264 329 265 330 266 331 267 332 268 330 266 332 268 333 269 330 266 333 269 334 270 330 266 334 270 335 271 330 266 335 271 336 272 330 266 336 272 337 273 330 266 337 273 338 274 330 266 338 274 339 275 340 276 341 277 342 278 340 276 342 278 343 279 340 276 343 279 344 280 340 276 344 280 345 281 340 276 345 281 346 282 340 276 346 282 347 283 340 276 347 283 348 284 340 276 348 284 349 285 350 286 351 287 352 288 350 286 352 288 353 289 350 286 353 289 354 290 350 286 354 290 355 291 350 286 355 291 356 292 350 286 356 292 357 293 350 286 357 293 358 294 350 286 358 294 359 295 360 296 361 297 362 298 360 296 362 298 363 299 360 296 363 299 364 300 360 296 364 300 365 301 360 296 365 301 366 302 360 296 366 302 367 303 360 296 367 303 368 304 360 296 368 304 369 305 370 306 371 307 372 308 370 306 372 308 373 309 370 306 373 309 374 310 370 306 374 310 375 311 370 306 375 311 376 312 370 306 376 312 377 313 370 306 377 313 378 314 370 306 378 314 379 315 380 316 381 317 382 318 380 316 382 318 383 319 380 316 383 319 384 320 380 316 384 320 385 321 380 316 385 321 386 322 380 316 386 322 387 323 380 316 387 323 388 324 380 316 388 324 389 325 390 326 391 327 392 328 390 326 392 328 393 329 390 326 393 329 394 330 390 326 394 330 395 331 390 326 395 331 396 332 390 326 396 332 397 333 390 326 397 333 398 334 390 326 398 334 399 335 400 336 401 337 402 338 400 336 402 338 403 339 400 336 403 339 404 340 400 336 404 340 405 341 400 336 405 341 406 342 400 336 406 342 407 343 400 336 407 343 408 344 400 336 408 344 409 345 410 346 411 347 412 348 410 346 412 348 413 349 410 346 413 349 414 350 410 346 414 350 415 351 410 346 415 351 416 352 410 346 416 352 417 353 410 346 417 353 418 354 410 346 418 354 419 355 420 356 421 357 422 358 420 356 422 358 423 359 420 356 423 359 424 360 420 356 424 360 425 361 420 356 425 361 426 362 420 356 426 362 427 363 420 356 427 363 428 364 420 356 428 364 429 365 430 366 431 367 432 368 430 366 432 368 433 369 430 366 433 369 434 370 430 366 434 370 435 371 430 366 435 371 436 372 430 366 436 372 437 373 430 366 437 373 438 374 430 366 438 374 439 375 440 376 441 377 442 378 440 376 442 378 443 379 440 376 443 379 444 380 440 376 444 380 445 381 440 376 445 381 446 382 440 376 446 382 447 383 440 376 447 383 448 384 440 376 448 384 449 385 450 386 451 387 452 388 450 386 452 388 453 389 450 386 453 389 454 390 450 386 454 390 455 391 450 386 455 391 456 392 450 386 456 392 457 393 450 386 457 393 458 394 450 386 458 394 459 395 460 396 461 397 462 398 460 396 462 398 463 399 460 396 463 399 464 400 460 396 464 400 465 401 460 396 465 401 466 402 460 396 466 402 467 403 460 396 467 403 468 404 460 396 468 404 469 405 470 406 471 407 472 408 470 406 472 408 473 409 470 406 473 409 474 410 470 406 474 410 475 411 470 406 475 411 476 412 470 406 476 412 477 413 470 406 477 413 478 414 470 406 478 414 479 415 480 416 481 417 482 418 480 416 482 418 483 419 480 416 483 419 484 420 480 416 484 420 485 421 480 416 485 421 486 422 480 416 486 422 487 423 480 416 487 423 488 424 480 416 488 424 489 425 490 426 491 427 492 428 490 426 492 428 493 429 490 426 493 429 494 430 490 426 494 430 495 431 490 426 495 431 496 432 490 426 496 432 497 433 490 426 497 433 498 434 490 426 498 434 499 435 500 436 501 437 502 438 500 436 502 438 503 439 500 436 503 439 504 440 500 436 504 440 505 441 500 436 505 441 506 442 500 436 506 442 507 443 500 436 507 443 508 444 500 436 508 444 509 445 510 446 511 447 512 448 510 446 512 448 513 449 510 446 513 449 514 450 510 446 514 450 515 451 510 446 515 451 516 452 510 446 516 452 517 453 510 446 517 453 518 454 510 446 518 454 519 455 520 456 521 457 522 458 520 456 522 458 523 459 520 456 523 459 524 460 520 456 524 460 525 461 520 456 525 461 526 462 520 456 526 462 527 463 520 456 527 463 528 464 520 456 528 464 529 465 530 466 531 467 532 468 530 466 532 468 533 469 530 466 533 469 534 470 530 466 534 470 535 471 530 466 535 471 536 472 530 466 536 472 537 473 530 466 537 473 538 474 530 466 538 474 539 475 540 476 541 477 542 478 540 476 542 478 543 479 540 476 543 479 544 480 540 476 544 480 545 481 540 476 545 481 546 482 540 476 546 482 547 483 540 476 547 483 548 484 540 476 548 484 549 485 550 486 551 487 552 488 550 486 552 488 553 489 550 486 553 489 554 490 550 486 554 490 555 491 550 486 555 491 556 492 550 486 556 492 557 493 550 486 557 493 558 494 550 486 558 494 559 495 560 496 561 497 562 498 560 496 562 498 563 499 560 496 563 499 564 500 560 496 564 500 565 501 560 496 565 501 566 502 560 496 566 502 567 503 560 496 567 503 568 504 560 496 568 504 569 505 570 506 571 507 572 508 570 506 572 508 573 509 570 506 573 509 574 510 570 506 574 510 575 511 570 506 575 511 576 512 570 506 576 512 577 513 570 506 577 513 578 514 570 506 578 514 579 515 580 516 581 517 582 518 580 516 582 518 583 519 580 516 583 519 584 520 580 516 584 520 585 521 580 516 585 521 586 522 580 516 586 522 587 523 580 516 587 523 588 524 580 516 588 524 589 525 590 526 591 527 592 528 590 526 592 528 593 529 590 526 593 529 594 530 590 526 594 530 595 531 590 526 595 531 596 532 590 526 596 532 597 533 590 526 597 533 598 534 590 526 598 534 599 535 600 536 601 537 602 538 600 536 602 538 603 539 600 536 603 539 604 540 600 536 604 540 605 541 600 536 605 541 606 542 600 536 606 542 607 543 600 536 607 543 608 544 600 536 608 544 609 545 610 546 611 547 612 548 610 546 612 548 613 549 610 546 613 549 614 550 610 546 614 550 615 551 610 546 615 551 616 552 610 546 616 552 617 553 610 546 617 553 618 554 610 546 618 554 619 555 620 556 621 557 622 558 620 556 622 558 623 559 620 556 623 559 624 560 620 556 624 560 625 561 620 556 625 561 626 562 620 556 626 562 627 563 620 556 627 563 628 564 620 556 628 564 629 565 630 566 631 567 632 568 630 566 632 568 633 569 630 566 633 569 634 570 630 566 634 570 635 571 630 566 635 571 636 572 630 566 636 572 637 573 630 566 637 573 638 574 630 566 638 574 639 575 300 812 302 814 301 813 300 812 303 815 302 814 300 812 304 816 303 815 300 812 305 817 304 816 300 812 306 818 305 817 300 812 307 819 306 818 300 812 308 820 307 819 300 812 309 821 308 820 310 822 312 824 311 823 310 822 313 825 312 824 310 822 314 826 313 825 310 822 315 827 314 826 310 822 316 828 315 827 310 822 317 829 316 828 310 822 318 830 317 829 310 822 319 831 318 830 320 832 322 834 321 833 320 832 323 835 322 834 320 832 324 836 323 835 320 832 325 837 324 836 320 832 326 838 325 837 320 832 327 839 326 838 320 832 328 840 327 839 320 832 329 841 328 840 330 842 332 844 331 843 330 842 333 845 332 844 330 842 334 846 333 845 330 842 335 847 334 846 330 842 336 848 335 847 330 842 337 849 336 848 330 842 338 850 337 849 330 842 339 851 338 850 340 852 342 854 341 853 340 852 343 855 342 854 340 852 344 856 343 855 340 852 345 857 344 856 340 852 346 858 345 857 340 852 347 859 346 858 340 852 348 860 347 859 340 852 349 861 348 860 350 862 352 864 351 863 350 862 353 865 352 864 350 862 354 866 353 865 350 862 355 867 354 866 350 862 356 868 355 867 350 862 357 869 356 868 350 862 358 870 357 869 350 862 359 871 358 870 360 872 362 874 361 873 360 872 363 875 362 874 360 872 364 876 363 875 360 872 365 877 364 876 360 872 366 878 365 877 360 872 367 879 366 878 360 872 368 880 367 879 360 872 369 881 368 880 370 882 372 884 371 883 370 882 373 885 372 884 370 882 374 886 373 885 370 882 375 887 374 886 370 882 376 888 375 887 370 882 377 889 376 888 370 882 378 890 377 889 370 882 379 891 378 890 380 892 382 894 381 893 380 892 383 895 382 894 380 892 384 896 383 895 380 892 385 897 384 896 380 892 386 898 385 897 380 892 387 899 386 898 380 892 388 900 387 899 380 892 389 901 388 900 390 902 392 904 391 903 390 902 393 905 392 904 390 902 394 906 393 905 390 902 395 907 394 906 390 902 396 908 395 907 390 902 397 909 396 908 390 902 398 910 397 909 390 902 399 911 398 910 400 912 402 914 401 913 400 912 403 915 402 914 400 912 404 916 403 915 400 912 405 917 404 916 400 912 406 918 405 917 400 912 407 919 406 918 400 912 408 920 407 919 400 912 409 921 408 920 410 922 412 924 411 923 410 922 413 925 412 924 410 922 414 926 413 925 410 922 415 927 414 926 410 922 416 928 415 927 410 922 417 929 416 928 410 922 418 930 417 929 410 922 419 931 418 930 420 932 422 934 421 933 420 932 423 935 422 934 420 932 424 936 423 935 420 932 425 937 424 936 420 932 426 938 425 937 420 932 427 939 426 938 420 932 428 940 427 939 420 932 429 941 428 940 430 942 432 944 431 943 430 942 433 945 432 944 430 942 434 946 433 945 430 942 435 947 434 946 430 942 436 948 435 947 430 942 437 949 436 948 430 942 438 950 437 949 430 942 439 951 438 950 440 952 442 954 441 953 440 952 443 955 442 954 440 952 444 956 443 955 440 952 445 957 444 956 440 952 446 958 445 957 440 952 447 959 446 958 440 952 448 960 447 959 440 952 449 961 448 960 450 962 452 964 451 963 450 962 453 965 452 964 450 962 454 966 453 965 450 962 455 967 454 966 450 962 456 968 455 967 450 962 457 969 456 968 450 962 458 970 457 969 450 962 459 971 458 970 460 972 462 974 461 973 460 972 463 975 462 974 460 972 464 976 463 975 460 972 465 977 464 976 460 972 466 978 465 977 460 972 467 979 466 978 460 972 468 980 467 979 460 972 469 981 468 980 470 982 472 984 471 983 470 982 473 985 472 984 470 982 474 986 473 985 470 982 475 987 474 986 470 982 476 988 475 987 470 982 477 989 476 988 470 982 478 990 477 989 470 982 479 991 478 990 480 992 482 994 481 993 480 992 483 995 482 994 480 992 484 996 483 995 480 992 485 997 484 996 480 992 486 998 485 997 480 992 487 999 486 998 480 992 488 1000 487 999 480 992 489 1001 488 1000 490 1002 492 1004 491 1003 490 1002 493 1005 492 1004 490 1002 494 1006 493 1005 490 1002 495 1007 494 1006 490 1002 496 1008 495 1007 490 1002 497 1009 496 1008 490 1002 498 1010 497 1009 490 1002 499 1011 498 1010 500 1012 502 1014 501 1013 500 1012 503 1015 502 1014 500 1012 504 1016 503 1015 500 1012 505 1017 504 1016 500 1012 506 1018 505 1017 500 1012 507 1019 506 1018 500 1012 508 1020 507 1019 500 1012 509 1021 508 1020 510 1022 512 1024 511 1023 510 1022 513 1025 512 1024 510 1022 514 1026 513 1025 510 1022 515 1027 514 1026 510 1022 516 1028 515 1027 510 1022 517 1029 516 1028 510 1022 518 1030 517 1029 510 1022 519 1031 518 1030 520 1032 522 1034 521 1033 520 1032 523 1035 522 1034 520 1032 524 1036 523 1035 520 1032 525 1037 524 1036 520 1032 526 1038 525 1037 520 1032 527 1039 526 1038 520 1032 528 1040 527 1039 520 1032 529 1041 528 1040 530 1042 532 1044 531 1043 530 1042 533 1045 532 1044 530 1042 534 1046 533 1045 530 1042 535 1047 534 1046 530 1042 536 1048 535 1047 530 1042 537 1049 536 1048 530 1042 538 1050 537 1049 530 1042 539 1051 538 1050 540 1052 542 1054 541 1053 540 1052 543 1055 542 1054 540 1052 544 1056 543 1055 540 1052 545 1057 544 1056 540 1052 546 1058 545 1057 540 1052 547 1059 546 1058 540 1052 548 1060 547 1059 540 1052 549 1061 548 1060 550 1062 552 1064 551 1063 550 1062 553 1065 552 1064 550 1062 554 1066 553 1065 550 1062 555 1067 554 1066 550 1062 556 1068 555 1067 550 1062 557 1069 556 1068 550 1062 558 1070 557 1069 550 1062 559 1071 558 1070 560 1072 562 1074 561 1073 560 1072 563 1075 562 1074 560 1072 564 1076 563 1075 560 1072 565 1077 564 1076 560 1072 566 1078 565 1077 560 1072 567 1079 566 1078 560 1072 568 1080 567 1079 560 1072 569 1081 568 1080 570 1082 572 1084 571 1083 570 1082 573 1085 572 1084 570 1082 574 1086 573 1085 570 1082 575 1087 574 1086 570 1082 576 1088 575 1087 570 1082 577 1089 576 1088 570 1082 578 1090 577 1089 570 1082 579 1091 578 1090 580 1092 582 1094 581 1093 580 1092 583 1095 582 1094 580 1092 584 1096 583 1095 580 1092 585 1097 584 1096 580 1092 586 1098 585 1097 580 1092 587 1099 586 1098 580 1092 588 1100 587 1099 580 1092 589 1101 588 1100 590 1102 592 1104 591 1103 590 1102 593 1105 592 1104 590 1102 594 1106 593 1105 590 1102 595 1107 594 1106 590 1102 596 1108 595 1107 590 1102 597 1109 596 1108 590 1102 598 1110 597 1109 590 1102 599 1111 598 1110 600 1112 602 1114 601 1113 600 1112 603 1115 602 1114 600 1112 604 1116 603 1115 600 1112 605 1117 604 1116 600 1112 606 1118 605 1117 600 1112 607 1119 606 1118 600 1112 608 1120 607 1119 600 1112 609 1121 608 1120 610 1122 612 1124 611 1123 610 1122 613 1125 612 1124 610 1122 614 1126 613 1125 610 1122 615 1127 614 1126 610 1122 616 1128 615 1127 610 1122 617 1129 616 1128 610 1122 618 1130 617 1129 610 1122 619 1131 618 1130 620 1132 622 1134 621 1133 620 1132 623 1135 622 1134 620 1132 624 1136 623 1135 620 1132 625 1137 624 1136 620 1132 626 1138 625 1137 620 1132 627 1139 626 1138 620 1132 628 1140 627 1139 620 1132 629 1141 628 1140 630 1142 632 1144 631 1143 630 1142 633 1145 632 1144 630 1142 634 1146 633 1145 630 1142 635 1147 634 1146 630 1142 636 1148 635 1147 630 1142 637 1149 636 1148 630 1142 638 1150 637 1149 630 1142 639 1151 638 1150</p></triangles>
      </mesh>
    </geometry>
  </library_geometries>
  <library_visual_scenes><visual_scene id="scene" name="scene">
    <node id="weeds_-06-01_foliage" name="weeds_-06-01_foliage" type="NODE"><instance_geometry url="#weeds_-06-01_foliage-mesh"><bind_material><technique_common>
      <instance_material symbol="MAT_WEED_GRASS-mat" target="#MAT_WEED_GRASS"/>
      <instance_material symbol="MAT_WEED_BROAD-mat" target="#MAT_WEED_BROAD"/>
    </technique_common></bind_material></instance_geometry></node>
  </visual_scene></library_visual_scenes>
  <scene><instance_visual_scene url="#scene"/></scene>
<!-- vigil:double-sided -->
</COLLADA>
