<?xml version="1.0" encoding="utf-8"?>
<COLLADA xmlns="http://www.collada.org/2005/11/COLLADASchema" version="1.4.1">
  <asset>
    <contributor><authoring_tool>VIGIL SIH26126 farm generator</authoring_tool></contributor>
    <unit name="meter" meter="1"/>
    <up_axis>Z_UP</up_axis>
  </asset>
  <library_effects>
    <effect id="MAT_WEED_STEM-fx"><profile_COMMON><technique sid="c"><lambert><diffuse><color>0.0860 0.1040 0.0360 1</color></diffuse></lambert></technique></profile_COMMON></effect>
  </library_effects>
  <library_materials>
    <material id="MAT_WEED_STEM" name="MAT_WEED_STEM"><instance_effect url="#MAT_WEED_STEM-fx"/></material>
  </library_materials>
  <library_geometries>
    <geometry id="weeds_+02-01_solid-mesh" name="weeds_+02-01_solid">
      <mesh>
        <source id="weeds_+02-01_solid-pos"><float_array id="weeds_+02-01_solid-pos-a" count="78">-0.16002 0.59994 -0.10039 -0.15483 0.59079 -0.099259 -0.15427 0.60016 -0.032167 -0.15884 0.6082 -0.033249 -0.14552 0.59578 -0.099937 -0.14608 0.60455 -0.032734 -0.15072 0.60493 -0.10107 -0.15065 0.61259 -0.033816 -0.1547 0.61041 0.034848 -0.15864 0.61733 0.033769 -0.14762 0.6142 0.034408 -0.15157 0.62113 0.033329 -0.15611 0.62152 0.10175 -0.15943 0.62733 0.10072 -0.15016 0.62472 0.10143 -0.15347 0.63054 0.1004 -0.15851 0.6335 0.16855 -0.1612 0.63821 0.16762 -0.15368 0.63611 0.16832 -0.15636 0.64082 0.16739 -0.1619 0.64635 0.23523 -0.16396 0.64997 0.23448 -0.15818 0.64836 0.23507 -0.16024 0.65197 0.23431 -0.15277 0.59786 -0.10016 -0.16107 0.64916 0.23477</float_array><technique_common><accessor source="#weeds_+02-01_solid-pos-a" count="26" stride="3"><param name="X" type="float"/><param name="Y" type="float"/><param name="Z" type="float"/></accessor></technique_common></source>
        <source id="weeds_+02-01_solid-nrm"><float_array id="weeds_+02-01_solid-nrm-a" count="78">-0.772 0.297 0.563 -0.222 -0.699 0.68 -0.274 -0.952 0.139 -0.961 0.275 -0.026 0.777 -0.148 0.612 0.96 -0.275 0.053 0.228 0.846 0.481 0.281 0.953 -0.113 -0.274 -0.95 0.148 -0.961 0.272 -0.043 0.96 -0.272 0.07 0.281 0.952 -0.121 -0.275 -0.949 0.156 -0.961 0.27 -0.061 0.959 -0.27 0.087 0.281 0.951 -0.13 -0.276 -0.947 0.164 -0.96 0.268 -0.078 0.958 -0.267 0.105 0.282 0.949 -0.138 -0.201 -0.881 -0.429 -0.756 0.117 -0.644 0.816 -0.32 -0.482 0.259 0.681 -0.684 0.005 0.126 0.992 0.051 -0.176 -0.983</float_array><technique_common><accessor source="#weeds_+02-01_solid-nrm-a" count="26" stride="3"><param name="X" type="float"/><param name="Y" type="float"/><param name="Z" type="float"/></accessor></technique_common></source>
        <vertices id="weeds_+02-01_solid-vtx"><input semantic="POSITION" source="#weeds_+02-01_solid-pos"/></vertices>
        <triangles count="48" material="MAT_WEED_STEM-mat"><input semantic="VERTEX" source="#weeds_+02-01_solid-vtx" offset="0"/><input semantic="NORMAL" source="#weeds_+02-01_solid-nrm" offset="1"/><p>0 0 1 1 2 2 0 0 2 2 3 3 1 1 4 4 5 5 1 1 5 5 2 2 4 4 6 6 7 7 4 4 7 7 5 5 6 6 0 0 3 3 6 6 3 3 7 7 3 3 2 2 8 8 3 3 8 8 9 9 2 2 5 5 10 10 2 2 10 10 8 8 5 5 7 7 11 11 5 5 11 11 10 10 7 7 3 3 9 9 7 7 9 9 11 11 9 9 8 8 12 12 9 9 12 12 13 13 8 8 10 10 14 14 8 8 14 14 12 12 10 10 11 11 15 15 10 10 15 15 14 14 11 11 9 9 13 13 11 11 13 13 15 15 13 13 12 12 16 16 13 13 16 16 17 17 12 12 14 14 18 18 12 12 18 18 16 16 14 14 15 15 19 19 14 14 19 19 18 18 15 15 13 13 17 17 15 15 17 17 19 19 17 17 16 16 20 20 17 17 20 20 21 21 16 16 18 18 22 22 16 16 22 22 20 20 18 18 19 19 23 23 18 18 23 23 22 22 19 19 17 17 21 21 19 19 21 21 23 23 0 0 1 1 24 24 1 1 4 4 24 24 4 4 6 6 24 24 6 6 0 0 24 24 20 20 21 21 25 25 22 22 20 20 25 25 23 23 22 22 25 25 21 21 23 23 25 25</p></triangles>
      </mesh>
    </geometry>
  </library_geometries>
  <library_visual_scenes><visual_scene id="scene" name="scene">
    <node id="weeds_+02-01_solid" name="weeds_+02-01_solid" type="NODE"><instance_geometry url="#weeds_+02-01_solid-mesh"><bind_material><technique_common>
      <instance_material symbol="MAT_WEED_STEM-mat" target="#MAT_WEED_STEM"/>
    </technique_common></bind_material></instance_geometry></node>
  </visual_scene></library_visual_scenes>
  <scene><instance_visual_scene url="#scene"/></scene>
</COLLADA>
