<?xml version="1.0" encoding="utf-8"?>
<COLLADA xmlns="http://www.collada.org/2005/11/COLLADASchema" version="1.4.1">
  <asset>
    <contributor><authoring_tool>VIGIL SIH26126 farm generator</authoring_tool></contributor>
    <unit name="meter" meter="1"/>
    <up_axis>Z_UP</up_axis>
  </asset>
  <library_effects>
    <effect id="MAT_WEED_STEM-fx"><profile_COMMON><technique sid="c"><lambert><diffuse><color>0.0860 0.1040 0.0360 1</color></diffuse></lambert></technique></profile_COMMON></effect>
  </library_effects>
  <library_materials>
    <material id="MAT_WEED_STEM" name="MAT_WEED_STEM"><instance_effect url="#MAT_WEED_STEM-fx"/></material>
  </library_materials>
  <library_geometries>
    <geometry id="weeds_-03-01_solid-mesh" name="weeds_-03-01_solid">
      <mesh>
        <source id="weeds_-03-01_solid-pos"><float_array id="weeds_-03-01_solid-pos-a" count="258">1.4336 -1.3273 -0.1361 1.4266 -1.3304 -0.13664 1.4256 -1.3362 -0.083527 1.4318 -1.3335 -0.082945 1.4297 -1.3374 -0.13728 1.4283 -1.3423 -0.084065 1.4367 -1.3343 -0.13673 1.4345 -1.3396 -0.083483 1.4233 -1.3422 -0.030502 1.4286 -1.3399 -0.029821 1.4256 -1.3476 -0.030928 1.4309 -1.3453 -0.030247 1.4195 -1.3486 0.022506 1.424 -1.3467 0.023229 1.4215 -1.3531 0.02218 1.4259 -1.3512 0.022903 1.4143 -1.3552 0.075499 1.4179 -1.3537 0.076207 1.4159 -1.3589 0.075259 1.4195 -1.3573 0.075967 1.4077 -1.3621 0.1285 1.4105 -1.361 0.12909 1.4089 -1.3649 0.12833 1.4117 -1.3638 0.12892 1.4316 -1.3323 -0.13669 1.4097 -1.363 0.12871 1.1835 -1.1842 -0.13913 1.1841 -1.1867 -0.13522 1.1594 -1.1549 -0.1074 1.1594 -1.1531 -0.11103 1.1871 -1.1838 -0.13634 1.1622 -1.1526 -0.10819 1.1344 -1.123 -0.098584 1.1359 -1.1222 -0.10156 1.137 -1.1212 -0.098446 1.1101 -1.0915 -0.11466 1.1119 -1.0912 -0.11672 1.1121 -1.09 -0.11417 1.1835 -1.1842 -0.1391 1.1845 -1.187 -0.13555 1.156 -1.1653 -0.10762 1.1557 -1.1632 -0.11101 1.1868 -1.1835 -0.13604 1.1582 -1.1624 -0.10797 1.1274 -1.1436 -0.098535 1.1286 -1.1424 -0.10155 1.1293 -1.1411 -0.098472 1.0993 -1.1221 -0.11451 1.1009 -1.1215 -0.1167 1.1008 -1.12 -0.11429 1.1828 -1.1839 -0.13574 1.1859 -1.1871 -0.13602 1.2078 -1.17 -0.10795 1.205 -1.1673 -0.10723 1.1861 -1.1837 -0.13894 1.2073 -1.1671 -0.11061 1.2294 -1.1525 -0.10031 1.2289 -1.1515 -0.096986 1.2273 -1.15 -0.099632 1.2503 -1.1354 -0.11578 1.2516 -1.1352 -0.11327 1.2497 -1.1334 -0.11401 1.1832 -1.1841 -0.13883 1.1847 -1.1871 -0.13572 1.163 -1.1717 -0.10766 1.1623 -1.1693 -0.1108 1.1869 -1.1835 -0.13614 1.1651 -1.1686 -0.10799 1.1411 -1.1561 -0.098439 1.1423 -1.155 -0.10144 1.1429 -1.1536 -0.09837 1.1198 -1.1408 -0.1144 1.1216 -1.1403 -0.11646 1.1212 -1.1387 -0.11418 1.1833 -1.1841 -0.13494 1.1842 -1.1866 -0.13879 1.1983 -1.218 -0.11021 1.1981 -1.2163 -0.10652 1.1873 -1.1841 -0.13696 1.2014 -1.2162 -0.10882 1.2121 -1.2493 -0.099713 1.2139 -1.2488 -0.096785 1.2151 -1.2481 -0.099943 1.2268 -1.2812 -0.11442 1.2289 -1.2811 -0.11264 1.229 -1.28 -0.11527</float_array><technique_common><accessor source="#weeds_-03-01_solid-pos-a" count="86" stride="3"><param name="X" type="float"/><param name="Y" type="float"/><param name="Z" type="float"/></accessor></technique_common></source>
        <source id="weeds_-03-01_solid-nrm"><float_array id="weeds_-03-01_solid-nrm-a" count="258">0.283 0.712 0.643 -0.791 0.243 0.561 -0.931 0.366 0.012 0.366 0.922 0.127 -0.318 -0.827 0.464 -0.357 -0.929 -0.102 0.758 -0.36 0.544 0.932 -0.362 0.013 -0.929 0.369 -0.01 0.365 0.92 0.141 -0.357 -0.927 -0.117 0.93 -0.365 0.035 -0.928 0.372 -0.033 0.364 0.918 0.156 -0.357 -0.925 -0.131 0.928 -0.369 0.058 -0.925 0.376 -0.055 0.363 0.916 0.17 -0.356 -0.923 -0.145 0.925 -0.373 0.08 -0.701 0.389 -0.598 0.384 0.839 -0.387 -0.221 -0.709 -0.67 0.854 -0.247 -0.458 -0.031 -0.104 0.994 0.154 0.128 -0.98 -0.535 0.298 -0.79 -0.367 -0.758 0.539 -0.433 -0.68 0.591 -0.401 0.202 -0.893 0.847 0.489 0.209 0.812 0.454 0.367 -0.671 -0.49 0.557 0.044 -0.044 -0.998 0.609 0.564 0.558 -0.82 -0.459 0.342 0.297 -0.222 -0.929 0.536 0.679 0.502 -0.562 0.29 -0.775 -0.235 -0.869 0.436 -0.28 -0.804 0.525 -0.414 0.203 -0.888 0.736 0.61 0.293 0.689 0.585 0.428 -0.531 -0.633 0.564 0.055 -0.037 -0.998 0.445 0.696 0.564 -0.688 -0.621 0.376 0.344 -0.205 -0.916 0.359 0.819 0.447 -0.826 0.36 0.435 0.362 -0.894 0.265 0.457 -0.869 0.19 -0.663 0.179 0.727 0.459 0.572 -0.68 0.135 0.671 -0.729 0.423 -0.837 -0.345 0.081 0.067 0.994 -0.467 0.847 -0.254 0.048 -0.7 -0.712 0.625 -0.09 0.775 -0.617 0.786 -0.047 -0.661 0.334 -0.672 -0.154 -0.911 0.383 -0.194 -0.844 0.501 -0.505 0.244 -0.828 0.749 0.61 0.259 0.709 0.572 0.412 -0.507 -0.629 0.589 0.066 -0.039 -0.997 0.395 0.704 0.59 -0.703 -0.62 0.348 0.441 -0.252 -0.862 0.286 0.861 0.42 -0.617 0.342 0.709 -0.353 -0.711 -0.608 -0.557 -0.608 -0.565 -0.421 0.282 0.862 0.931 0.361 -0.052 0.921 0.382 -0.083 -0.848 -0.424 -0.318 0.02 -0.08 0.997 0.831 0.449 -0.329 -0.914 -0.29 -0.282 0.326 -0.292 0.899 0.624 0.543 -0.562</float_array><technique_common><accessor source="#weeds_-03-01_solid-nrm-a" count="86" stride="3"><param name="X" type="float"/><param name="Y" type="float"/><param name="Z" type="float"/></accessor></technique_common></source>
        <vertices id="weeds_-03-01_solid-vtx"><input semantic="POSITION" source="#weeds_-03-01_solid-pos"/></vertices>
        <triangles count="138" material="MAT_WEED_STEM-mat"><input semantic="VERTEX" source="#weeds_-03-01_solid-vtx" offset="0"/><input semantic="NORMAL" source="#weeds_-03-01_solid-nrm" offset="1"/><p>0 0 1 1 2 2 0 0 2 2 3 3 1 1 4 4 5 5 1 1 5 5 2 2 4 4 6 6 7 7 4 4 7 7 5 5 6 6 0 0 3 3 6 6 3 3 7 7 3 3 2 2 8 8 3 3 8 8 9 9 2 2 5 5 10 10 2 2 10 10 8 8 5 5 7 7 11 11 5 5 11 11 10 10 7 7 3 3 9 9 7 7 9 9 11 11 9 9 8 8 12 12 9 9 12 12 13 13 8 8 10 10 14 14 8 8 14 14 12 12 10 10 11 11 15 15 10 10 15 15 14 14 11 11 9 9 13 13 11 11 13 13 15 15 13 13 12 12 16 16 13 13 16 16 17 17 12 12 14 14 18 18 12 12 18 18 16 16 14 14 15 15 19 19 14 14 19 19 18 18 15 15 13 13 17 17 15 15 17 17 19 19 17 17 16 16 20 20 17 17 20 20 21 21 16 16 18 18 22 22 16 16 22 22 20 20 18 18 19 19 23 23 18 18 23 23 22 22 19 19 17 17 21 21 19 19 21 21 23 23 0 0 1 1 24 24 1 1 4 4 24 24 4 4 6 6 24 24 6 6 0 0 24 24 20 20 21 21 25 25 22 22 20 20 25 25 23 23 22 22 25 25 21 21 23 23 25 25 26 26 27 27 28 28 26 26 28 28 29 29 27 27 30 30 31 31 27 27 31 31 28 28 30 30 26 26 29 29 30 30 29 29 31 31 29 29 28 28 32 32 29 29 32 32 33 33 28 28 31 31 34 34 28 28 34 34 32 32 31 31 29 29 33 33 31 31 33 33 34 34 33 33 32 32 35 35 33 33 35 35 36 36 32 32 34 34 37 37 32 32 37 37 35 35 34 34 33 33 36 36 34 34 36 36 37 37 38 38 39 39 40 40 38 38 40 40 41 41 39 39 42 42 43 43 39 39 43 43 40 40 42 42 38 38 41 41 42 42 41 41 43 43 41 41 40 40 44 44 41 41 44 44 45 45 40 40 43 43 46 46 40 40 46 46 44 44 43 43 41 41 45 45 43 43 45 45 46 46 45 45 44 44 47 47 45 45 47 47 48 48 44 44 46 46 49 49 44 44 49 49 47 47 46 46 45 45 48 48 46 46 48 48 49 49 50 50 51 51 52 52 50 50 52 52 53 53 51 51 54 54 55 55 51 51 55 55 52 52 54 54 50 50 53 53 54 54 53 53 55 55 53 53 52 52 56 56 53 53 56 56 57 57 52 52 55 55 58 58 52 52 58 58 56 56 55 55 53 53 57 57 55 55 57 57 58 58 57 57 56 56 59 59 57 57 59 59 60 60 56 56 58 58 61 61 56 56 61 61 59 59 58 58 57 57 60 60 58 58 60 60 61 61 62 62 63 63 64 64 62 62 64 64 65 65 63 63 66 66 67 67 63 63 67 67 64 64 66 66 62 62 65 65 66 66 65 65 67 67 65 65 64 64 68 68 65 65 68 68 69 69 64 64 67 67 70 70 64 64 70 70 68 68 67 67 65 65 69 69 67 67 69 69 70 70 69 69 68 68 71 71 69 69 71 71 72 72 68 68 70 70 73 73 68 68 73 73 71 71 70 70 69 69 72 72 70 70 72 72 73 73 74 74 75 75 76 76 74 74 76 76 77 77 75 75 78 78 79 79 75 75 79 79 76 76 78 78 74 74 77 77 78 78 77 77 79 79 77 77 76 76 80 80 77 77 80 80 81 81 76 76 79 79 82 82 76 76 82 82 80 80 79 79 77 77 81 81 79 79 81 81 82 82 81 81 80 80 83 83 81 81 83 83 84 84 80 80 82 82 85 85 80 80 85 85 83 83 82 82 81 81 84 84 82 82 84 84 85 85</p></triangles>
      </mesh>
    </geometry>
  </library_geometries>
  <library_visual_scenes><visual_scene id="scene" name="scene">
    <node id="weeds_-03-01_solid" name="weeds_-03-01_solid" type="NODE"><instance_geometry url="#weeds_-03-01_solid-mesh"><bind_material><technique_common>
      <instance_material symbol="MAT_WEED_STEM-mat" target="#MAT_WEED_STEM"/>
    </technique_common></bind_material></instance_geometry></node>
  </visual_scene></library_visual_scenes>
  <scene><instance_visual_scene url="#scene"/></scene>
</COLLADA>
