<?xml version="1.0" encoding="utf-8"?>
<COLLADA xmlns="http://www.collada.org/2005/11/COLLADASchema" version="1.4.1">
  <asset>
    <contributor><authoring_tool>VIGIL SIH26126 farm generator</authoring_tool></contributor>
    <unit name="meter" meter="1"/>
    <up_axis>Z_UP</up_axis>
  </asset>
  <library_effects>
    <effect id="MAT_WEED_GRASS-fx"><profile_COMMON><technique sid="c"><lambert><diffuse><color>0.0980 0.1280 0.0300 1</color></diffuse></lambert></technique></profile_COMMON></effect>
    <effect id="MAT_WEED_BROAD-fx"><profile_COMMON><technique sid="c"><lambert><diffuse><color>0.0720 0.1520 0.0340 1</color></diffuse></lambert></technique></profile_COMMON></effect>
  </library_effects>
  <library_materials>
    <material id="MAT_WEED_GRASS" name="MAT_WEED_GRASS"><instance_effect url="#MAT_WEED_GRASS-fx"/></material>
    <material id="MAT_WEED_BROAD" name="MAT_WEED_BROAD"><instance_effect url="#MAT_WEED_BROAD-fx"/></material>
  </library_materials>
  <library_geometries>
    <geometry id="weeds_+00+02_foliage-mesh" name="weeds_+00+02_foliage">
      <mesh>
        <source id="weeds_+00+02_foliage-pos"><float_array id="weeds_+00+02_foliage-pos-a" count="918">-4.0576 0.029505 0.030086 -4.0573 0.032145 0.0292 -4.0561 0.032412 0.029084 -4.0546 0.031631 0.02932 -4.053 0.030001 0.029758 -4.0515 0.027147 0.030345 -4.0506 0.023207 0.030842 -4.0508 0.018925 0.03106 -4.0521 0.01572 0.031092 -4.0542 0.01399 0.03118 -4.0568 0.014605 0.031432 -4.0592 0.016947 0.031664 -4.0612 0.020716 0.031601 -4.0621 0.024658 0.031104 -4.062 0.027887 0.030402 -4.0613 0.030045 0.029805 -4.0603 0.031433 0.029382 -4.0591 0.031734 0.029325 -4.0564 0.027559 0.04151 -4.0593 0.025375 0.040348 -4.0612 0.026325 0.040571 -4.0625 0.028603 0.0414 -4.0631 0.03171 0.042507 -4.0624 0.035978 0.04379 -4.06 0.040789 0.044728 -4.0559 0.044939 0.044904 -4.0513 0.04701 0.044493 -4.0469 0.046677 0.043891 -4.0439 0.043398 0.043381 -4.0427 0.038536 0.042934 -4.0434 0.032728 0.042247 -4.0458 0.027922 0.041311 -4.049 0.02487 0.040402 -4.0519 0.023464 0.039819 -4.0547 0.023161 0.039598 -4.0566 0.024044 0.039938 -4.0551 0.025385 0.052905 -4.0514 0.024734 0.049538 -4.0508 0.022038 0.049126 -4.0515 0.018562 0.050028 -4.0535 0.015057 0.051882 -4.0573 0.011658 0.054919 -4.063 0.0095749 0.058716 -4.0696 0.009901 0.062431 -4.0749 0.012554 0.065055 -4.078 0.017241 0.066591 -4.0776 0.023138 0.066456 -4.0744 0.028666 0.064916 -4.069 0.033197 0.061844 -4.0633 0.035269 0.058045 -4.0586 0.035101 0.054536 -4.0553 0.033619 0.052022 -4.0531 0.031309 0.050354 -4.0524 0.028633 0.050054 -4.0537 0.022718 0.064239 -4.0558 0.026114 0.063388 -4.0546 0.027672 0.063396 -4.0521 0.028364 0.063808 -4.0487 0.028084 0.064331 -4.0443 0.026342 0.064692 -4.0396 0.022758 0.064342 -4.0358 0.017702 0.063103 -4.0342 0.012819 0.06175 -4.0351 0.0086727 0.061007 -4.0388 0.0066299 0.061525 -4.0439 0.0067291 0.062703 -4.0498 0.0089455 0.063839 -4.0545 0.012535 0.064189 -4.0574 0.016361 0.063904 -4.0586 0.01956 0.063488 -4.0586 0.022251 0.063199 -4.0575 0.023832 0.063305 -4.0523 0.01992 0.075557 -4.0527 0.01564 0.072947 -4.0549 0.014788 0.073018 -4.0579 0.015459 0.07428 -4.0609 0.017523 0.07624 -4.0641 0.021709 0.078882 -4.0664 0.028133 0.08147 -4.0668 0.035753 0.083208 -4.0652 0.041941 0.08387 -4.0616 0.045774 0.083905 -4.0565 0.045467 0.083402 -4.0513 0.042007 0.082377 -4.0468 0.036007 0.080425 -4.0446 0.029579 0.077838 -4.0444 0.024204 0.075353 -4.0454 0.020477 0.073614 -4.0473 0.017878 0.072607 -4.0495 0.016939 0.072775 -4.0508 0.016533 0.086801 -4.0493 0.018942 0.085649 -4.048 0.018604 0.085452 -4.0468 0.017082 0.08569 -4.046 0.01473 0.086205 -4.0458 0.011217 0.086972 -4.0467 0.006937 0.087752 -4.0489 0.0028553 0.088313 -4.0516 0.00032997 0.088641 -4.0546 -0.00031471 0.088956 -4.0569 0.0015869 0.089288 -4.0582 0.0050831 0.089461 -4.0585 0.0097408 0.089198 -4.0575 0.014021 0.088417 -4.056 0.017111 0.087432 -4.0543 0.018869 0.086612 -4.0526 0.019705 0.086019 -4.0513 0.019405 0.085887 -4.0493 0.013048 0.098032 -4.0515 0.012932 0.096925 -4.0519 0.013891 0.097055 -4.0517 0.015274 0.097729 -4.0507 0.016802 0.098708 -4.0487 0.018518 0.099979 -4.0457 0.020006 0.10118 -4.042 0.020754 0.10193 -4.0391 0.02046 0.10212 -4.0372 0.019093 0.10197 -4.0371 0.016731 0.10153 -4.0386 0.014139 0.10088 -4.0413 0.011683 0.099862 -4.0444 0.010197 0.098661 -4.047 0.0097389 0.097589 -4.0489 0.0099678 0.096889 -4.0503 0.010624 0.096537 -4.0508 0.011559 0.096708 -4.0477 0.0090065 0.10919 -4.0465 0.0077305 0.10811 -4.0469 0.0067062 0.10802 -4.048 0.0058346 0.10835 -4.0496 0.0053005 0.10899 -4.0518 0.0053062 0.10996 -4.0543 0.0062218 0.11111 -4.0566 0.0081158 0.11213 -4.0578 0.010363 0.1128 -4.0578 0.012688 0.11315 -4.0562 0.014437 0.11308 -4.0538 0.015339 0.11264 -4.0508 0.015314 0.11174 -4.0483 0.014395 0.1106 -4.0466 0.013016 0.10953 -4.0458 0.011631 0.10876 -4.0455 0.010275 0.10827 -4.0459 0.0092316 0.10822 4.0637 -0.027216 -0.00053521 4.057 -0.030289 -0.0031375 4.0548 -0.027767 -0.0032448 4.0546 -0.022911 -0.0022081 4.0565 -0.016802 -0.00061086 4.0614 -0.0090294 0.0012518 4.0698 -0.0010643 0.0023952 4.0803 0.0048447 0.0021863 4.0897 0.0066872 0.0013135 4.0966 0.0041676 0.00082332 4.0986 -0.0031414 0.0014326 4.0961 -0.012583 0.0023975 4.0895 -0.023001 0.0026611 4.0812 -0.030956 0.0015175 4.0733 -0.035416 -0.00038526 4.0673 -0.036894 -0.0020387 4.0626 -0.036375 -0.0031405 4.0603 -0.033911 -0.0030937 4.0667 -0.024178 0.030027 4.0736 -0.030527 0.024643 4.0724 -0.036144 0.025038 4.0677 -0.041203 0.028001 4.0604 -0.044683 0.032338 4.0493 -0.045631 0.037822 4.0352 -0.042061 0.042594 4.0211 -0.033348 0.044948 4.012 -0.022297 0.044997 4.0096 -0.010162 0.044087 4.0165 -0.00011635 0.042898 4.029 0.0059814 0.041225 4.0452 0.0074482 0.037908 4.0593 0.0038528 0.033138 4.0689 -0.0026741 0.028362 4.074 -0.0096474 0.025014 4.0763 -0.016714 0.023199 4.0753 -0.022354 0.02387 4.07 -0.020905 0.06055 4.0684 -0.011076 0.048754 4.0744 -0.0070324 0.047861 4.0836 -0.0056858 0.051789 4.0939 -0.0073929 0.059198 4.1057 -0.01392 0.071052 4.1161 -0.02656 0.0858 4.1215 -0.043903 0.10016 4.12 -0.059961 0.11002 4.1114 -0.072386 0.11508 4.0965 -0.076527 0.11309 4.0798 -0.073273 0.10561 4.0636 -0.063532 0.092661 4.0533 -0.050873 0.077909 4.0494 -0.038763 0.065019 4.0502 -0.029251 0.056162 4.0539 -0.021542 0.050554 4.0597 -0.017178 0.049887 4.0736 -0.017368 0.091028 4.0695 -0.025566 0.085039 4.0648 -0.025234 0.085277 4.0602 -0.021223 0.088296 4.0565 -0.01432 0.092904 4.0543 -0.0030251 0.098987 4.0554 0.01211 0.10472 4.0605 0.028105 0.10826 4.0682 0.039314 0.10931 4.0775 0.043829 0.10909 4.0864 0.038357 0.10803 4.0929 0.026409 0.10598 4.0961 0.0099754 0.10185 4.095 -0.0051594 0.096116 4.091 -0.01613 0.090467 4.0861 -0.022585 0.086465 4.0808 -0.026072 0.084149 4.0762 -0.025919 0.084565 4.0776 -0.013538 0.12146 4.0863 -0.010695 0.11135 4.0915 -0.015408 0.1112 4.0949 -0.023214 0.11543 4.0958 -0.032543 0.12266 4.0925 -0.044014 0.1336 4.0834 -0.055466 0.14654 4.0688 -0.063568 0.15838 4.0537 -0.065321 0.16582 4.0402 -0.060051 0.16888 4.0328 -0.047295 0.16595 4.0317 -0.031607 0.1586 4.0368 -0.015232 0.14682 4.0459 -0.0037994 0.13389 4.0562 0.0015984 0.1229 4.0652 0.0024319 0.11561 4.0732 0.00038338 0.11131 4.0786 -0.0040531 0.1114 4.0817 -0.0095043 0.15185 4.0719 -0.0068188 0.1491 4.071 -0.0008297 0.14851 4.074 0.0063515 0.14891 4.0802 0.013165 0.1498 4.0909 0.019087 0.15076 4.1055 0.021509 0.15093 4.1212 0.018427 0.1499 4.1328 0.010841 0.14872 4.139 -0.00032425 0.14861 4.1366 -0.01277 0.15032 4.128 -0.023439 0.15272 4.114 -0.031193 0.15448 4.0994 -0.033588 0.15432 4.0875 -0.031555 0.15281 4.0795 -0.027241 0.15118 4.0743 -0.021513 0.14991 4.0733 -0.015518 0.14969 4.0863 -0.0051174 0.18219 4.0878 -0.012167 0.17786 4.0845 -0.015236 0.17824 4.0794 -0.016434 0.18068 4.0734 -0.015541 0.18433 4.0662 -0.011446 0.18928 4.0594 -0.0033245 0.19435 4.055 0.0079403 0.19806 4.0547 0.018591 0.19964 4.0587 0.02726 0.19956 4.0672 0.03093 0.19773 4.0771 0.029816 0.19467 4.0873 0.024212 0.19008 4.0941 0.016077 0.18501 4.097 0.0078259 0.1807 4.0972 0.0011177 0.17795 4.0955 -0.0044289 0.17657 4.0924 -0.0076218 0.17716 4.0911 -0.00058365 0.2125 4.092 0.0048046 0.20948 4.0946 0.0050774 0.20922 4.0977 0.0031166 0.2102 4.1007 -0.00065422 0.21193 4.1034 -0.0071239 0.21426 4.1047 -0.016037 0.21638 4.1037 -0.025702 0.21756 4.1006 -0.032795 0.21793 4.096 -0.036247 0.21824 4.0907 -0.034037 0.21878 4.086 -0.027905 0.21906 4.0825 -0.018808 0.21826 4.0812 -0.0098934 0.21614 4.0818 -0.003006 0.21352 4.0835 0.0013504 0.2114 4.0858 0.0039902 0.20995 4.0884 0.0043468 0.20979 4.0963 0.0043583 0.24274 4.0917 0.0005188 0.23932 4.0893 0.0020142 0.23933 4.0879 0.0057659 0.24088 4.0879 0.010969 0.24334 4.0899 0.018234 0.2467 4.0946 0.026594 0.25005 4.1017 0.034019 0.25237 4.1089 0.037937 0.25336 4.1152 0.037695 0.25357 4.1186 0.032215 0.25309 4.1188 0.023876 0.2519 4.1161 0.013826 0.24945 4.1114 0.0054722 0.24611 4.1061 0.00013542 0.24283 4.1017 -0.0023727 0.2405 4.0978 -0.0029964 0.2391 4.0953 -0.0015888 0.23922</float_array><technique_common><accessor source="#weeds_+00+02_foliage-pos-a" count="306" stride="3"><param name="X" type="float"/><param name="Y" type="float"/><param name="Z" type="float"/></accessor></technique_common></source>
        <source id="weeds_+00+02_foliage-nrm"><float_array id="weeds_+00+02_foliage-nrm-a" count="1824">-0.019 -0.218 -0.976 -0.021 -0.316 -0.948 -0.018 -0.318 -0.948 -0.028 -0.302 -0.953 -0.042 -0.246 -0.968 -0.016 -0.151 -0.988 0.045 -0.069 -0.997 0.075 -0.044 -0.996 0.033 -0.06 -0.998 -0.052 -0.082 -0.995 -0.138 -0.096 -0.986 -0.183 -0.099 -0.978 -0.145 -0.11 -0.983 -0.052 -0.159 -0.986 0.016 -0.233 -0.972 0.031 -0.289 -0.957 0.028 -0.308 -0.951 0.031 -0.305 -0.952 -0.003 0.289 -0.957 0.082 0.38 -0.921 0.082 0.382 -0.921 0.077 0.358 -0.93 0.045 0.302 -0.952 -0.035 0.237 -0.971 -0.129 0.201 -0.971 -0.17 0.194 -0.966 -0.139 0.185 -0.973 -0.071 0.158 -0.985 -0.005 0.121 -0.993 0.021 0.103 -0.994 0.001 0.139 -0.99 -0.026 0.233 -0.972 -0.02 0.333 -0.943 0.01 0.391 -0.921 0.028 0.408 -0.913 0.026 0.407 -0.913 -0.6 -0.046 -0.799 -0.677 -0.042 -0.735 -0.664 -0.031 -0.747 -0.627 -0.018 -0.779 -0.564 -0.028 -0.825 -0.506 -0.062 -0.86 -0.483 -0.082 -0.872 -0.492 -0.062 -0.868 -0.508 -0.015 -0.861 -0.518 0.035 -0.854 -0.521 0.056 -0.852 -0.53 0.026 -0.848 -0.562 -0.038 -0.826 -0.609 -0.087 -0.789 -0.646 -0.101 -0.757 -0.661 -0.1 -0.743 -0.661 -0.1 -0.744 0.077 -0.021 -0.997 0.182 -0.132 -0.974 0.189 -0.131 -0.973 0.163 -0.122 -0.979 0.09 -0.066 -0.994 0.022 0.068 -0.997 0.007 0.212 -0.977 0.013 0.265 -0.964 -0.018 0.21 -0.978 -0.093 0.105 -0.99 -0.175 0.004 -0.985 -0.22 -0.042 -0.975 -0.17 -0.02 -0.985 -0.025 0.007 -1 0.125 -0.02 -0.992 0.199 -0.073 -0.977 0.215 -0.096 -0.972 0.215 -0.089 -0.973 -0.212 0.407 -0.888 -0.225 0.522 -0.823 -0.229 0.523 -0.821 -0.215 0.507 -0.834 -0.193 0.445 -0.874 -0.21 0.329 -0.921 -0.266 0.22 -0.938 -0.295 0.183 -0.938 -0.251 0.21 -0.945 -0.153 0.253 -0.955 -0.051 0.286 -0.957 0.001 0.295 -0.955 -0.046 0.304 -0.952 -0.161 0.348 -0.924 -0.251 0.423 -0.871 -0.274 0.485 -0.831 -0.274 0.506 -0.818 -0.276 0.502 -0.819 -0.171 -0.225 -0.959 -0.216 -0.311 -0.926 -0.214 -0.313 -0.925 -0.217 -0.295 -0.931 -0.206 -0.24 -0.949 -0.145 -0.169 -0.975 -0.058 -0.123 -0.991 -0.021 -0.113 -0.993 -0.062 -0.109 -0.992 -0.143 -0.094 -0.985 -0.222 -0.071 -0.972 -0.259 -0.056 -0.964 -0.231 -0.082 -0.969 -0.173 -0.162 -0.971 -0.146 -0.254 -0.956 -0.156 -0.309 -0.938 -0.166 -0.324 -0.931 -0.163 -0.323 -0.932 0.318 0.307 -0.897 0.416 0.322 -0.85 0.417 0.326 -0.849 0.405 0.314 -0.859 0.351 0.291 -0.89 0.244 0.302 -0.922 0.138 0.347 -0.928 0.102 0.371 -0.923 0.134 0.331 -0.934 0.185 0.247 -0.951 0.228 0.158 -0.961 0.245 0.109 -0.963 0.246 0.151 -0.958 0.268 0.257 -0.928 0.324 0.341 -0.882 0.377 0.364 -0.852 0.396 0.364 -0.843 0.392 0.366 -0.844 -0.399 0.217 -0.891 -0.462 0.27 -0.845 -0.462 0.269 -0.845 -0.445 0.27 -0.854 -0.405 0.255 -0.878 -0.357 0.206 -0.911 -0.328 0.141 -0.934 -0.322 0.111 -0.94 -0.317 0.133 -0.939 -0.301 0.182 -0.936 -0.279 0.229 -0.932 -0.268 0.248 -0.931 -0.293 0.23 -0.928 -0.359 0.199 -0.912 -0.43 0.191 -0.882 -0.471 0.205 -0.858 -0.483 0.216 -0.848 -0.483 0.215 -0.849 0.166 0.138 -0.976 0.273 0.2 -0.941 0.272 0.206 -0.94 0.262 0.187 -0.947 0.206 0.136 -0.969 0.073 0.107 -0.992 -0.066 0.126 -0.99 -0.115 0.143 -0.983 -0.062 0.102 -0.993 0.028 0.013 -1 0.112 -0.081 -0.99 0.15 -0.135 -0.98 0.136 -0.087 -0.987 0.127 0.05 -0.991 0.167 0.177 -0.97 0.223 0.228 -0.948 0.243 0.236 -0.941 0.237 0.237 -0.942 -0.442 0.005 -0.897 -0.574 0.07 -0.816 -0.578 0.067 -0.813 -0.551 0.07 -0.832 -0.473 0.048 -0.88 -0.365 -0.04 -0.93 -0.288 -0.155 -0.945 -0.266 -0.205 -0.942 -0.265 -0.154 -0.952 -0.248 -0.041 -0.968 -0.216 0.069 -0.974 -0.195 0.118 -0.974 -0.236 0.08 -0.968 -0.354 0.009 -0.935 -0.487 -0.019 -0.873 -0.566 -0 -0.824 -0.589 0.016 -0.808 -0.586 0.011 -0.81 0.354 -0.631 -0.69 0.367 -0.689 -0.625 0.368 -0.689 -0.625 0.356 -0.684 -0.636 0.335 -0.66 -0.672 0.331 -0.605 -0.724 0.352 -0.541 -0.763 0.366 -0.515 -0.775 0.347 -0.534 -0.771 0.301 -0.569 -0.765 0.251 -0.599 -0.76 0.226 -0.611 -0.759 0.258 -0.606 -0.753 0.392 -0.622 -0.678 0.413 -0.645 -0.643 0.415 -0.656 -0.63 0.416 -0.656 -0.631 -0.037 0.474 -0.88 0.001 0.59 -0.808 -0.004 0.594 -0.805 0.002 0.574 -0.819 -0.006 0.501 -0.865 -0.09 0.388 -0.917 -0.214 0.299 -0.93 -0.264 0.274 -0.925 -0.192 0.284 -0.939 -0.053 0.286 -0.957 0.087 0.272 -0.958 0.159 0.256 -0.954 0.112 0.285 -0.952 0.001 0.384 -0.923 -0.064 0.504 -0.862 -0.057 0.576 -0.815 -0.047 0.595 -0.802 -0.053 0.592 -0.804 -0.47 -0.54 -0.698 -0.535 -0.57 -0.624 -0.535 -0.571 -0.623 -0.532 -0.557 -0.638 -0.508 -0.53 -0.679 -0.444 -0.512 -0.736 -0.366 -0.515 -0.775 -0.333 -0.521 -0.786 -0.358 -0.507 -0.784 -0.409 -0.469 -0.783 -0.456 -0.425 -0.782 -0.475 -0.404 -0.782 -0.462 -0.435 -0.773 -0.446 -0.51 -0.736 -0.454 -0.575 -0.68 -0.477 -0.603 -0.639 -0.49 -0.608 -0.624 -0.489 -0.608 -0.625 0.117 -0.048 -0.992 0.254 -0.057 -0.965 0.256 -0.055 -0.965 0.231 -0.067 -0.971 0.159 -0.079 -0.984 0.05 -0.054 -0.997 -0.041 0.001 -0.999 -0.072 0.032 -0.997 -0.062 0.001 -0.998 -0.045 -0.074 -0.996 -0.037 -0.151 -0.988 -0.037 -0.183 -0.982 -0.017 -0.145 -0.989 0.052 -0.064 -0.997 0.147 -0.005 -0.989 0.219 0.009 -0.976 0.246 0.006 -0.969 0.244 0.007 -0.97 -0.425 0.298 -0.855 -0.463 0.392 -0.795 -0.465 0.392 -0.794 -0.448 0.383 -0.808 -0.414 0.342 -0.843 -0.392 0.257 -0.883 -0.396 0.166 -0.903 -0.405 0.128 -0.905 -0.387 0.152 -0.909 -0.341 0.202 -0.918 -0.287 0.246 -0.926 -0.262 0.263 -0.929 -0.3 0.257 -0.919 -0.389 0.26 -0.884 -0.468 0.291 -0.834 -0.503 0.33 -0.799 -0.509 0.35 -0.787 -0.509 0.348 -0.787 -0.034 -0.359 -0.933 -0.041 -0.483 -0.875 -0.034 -0.486 -0.873 -0.046 -0.467 -0.883 -0.058 -0.391 -0.919 -0.001 -0.261 -0.965 0.106 -0.153 -0.983 0.151 -0.122 -0.981 0.078 -0.143 -0.987 -0.062 -0.167 -0.984 -0.203 -0.178 -0.963 -0.277 -0.175 -0.945 -0.226 -0.195 -0.954 -0.095 -0.273 -0.957 -0.002 -0.384 -0.923 0.011 -0.46 -0.888 0.006 -0.481 -0.877 0.012 -0.476 -0.879 0.197 0.374 -0.906 0.268 0.442 -0.856 0.266 0.446 -0.855 0.264 0.429 -0.864 0.233 0.379 -0.896 0.133 0.329 -0.935 0.01 0.313 -0.95 -0.036 0.315 -0.949 0.02 0.295 -0.955 0.119 0.245 -0.962 0.213 0.187 -0.959 0.258 0.15 -0.954 0.234 0.187 -0.954 0.187 0.298 -0.936 0.183 0.407 -0.895 0.214 0.457 -0.863 0.228 0.467 -0.854 0.223 0.467 -0.856 0.019 0.218 0.976 0.021 0.316 0.948 0.018 0.318 0.948 0.028 0.302 0.953 0.042 0.246 0.968 0.016 0.151 0.988 -0.045 0.069 0.997 -0.075 0.044 0.996 -0.033 0.06 0.998 0.052 0.082 0.995 0.138 0.096 0.986 0.183 0.099 0.978 0.145 0.11 0.983 0.052 0.159 0.986 -0.016 0.233 0.972 -0.031 0.289 0.957 -0.028 0.308 0.951 -0.031 0.305 0.952 0.003 -0.289 0.957 -0.082 -0.38 0.921 -0.082 -0.382 0.921 -0.077 -0.358 0.93 -0.045 -0.302 0.952 0.035 -0.237 0.971 0.129 -0.201 0.971 0.17 -0.194 0.966 0.139 -0.185 0.973 0.071 -0.158 0.985 0.005 -0.121 0.993 -0.021 -0.103 0.994 -0.001 -0.139 0.99 0.026 -0.233 0.972 0.02 -0.333 0.943 -0.01 -0.391 0.921 -0.028 -0.408 0.913 -0.026 -0.407 0.913 0.6 0.046 0.799 0.677 0.042 0.735 0.664 0.031 0.747 0.627 0.018 0.779 0.564 0.028 0.825 0.506 0.062 0.86 0.483 0.082 0.872 0.492 0.062 0.868 0.508 0.015 0.861 0.518 -0.035 0.854 0.521 -0.056 0.852 0.53 -0.026 0.848 0.562 0.038 0.826 0.609 0.087 0.789 0.646 0.101 0.757 0.661 0.1 0.743 0.661 0.1 0.744 -0.077 0.021 0.997 -0.182 0.132 0.974 -0.189 0.131 0.973 -0.163 0.122 0.979 -0.09 0.066 0.994 -0.022 -0.068 0.997 -0.007 -0.212 0.977 -0.013 -0.265 0.964 0.018 -0.21 0.978 0.093 -0.105 0.99 0.175 -0.004 0.985 0.22 0.042 0.975 0.17 0.02 0.985 0.025 -0.007 1 -0.125 0.02 0.992 -0.199 0.073 0.977 -0.215 0.096 0.972 -0.215 0.089 0.973 0.212 -0.407 0.888 0.225 -0.522 0.823 0.229 -0.523 0.821 0.215 -0.507 0.834 0.193 -0.445 0.874 0.21 -0.329 0.921 0.266 -0.22 0.938 0.295 -0.183 0.938 0.251 -0.21 0.945 0.153 -0.253 0.955 0.051 -0.286 0.957 -0.001 -0.295 0.955 0.046 -0.304 0.952 0.161 -0.348 0.924 0.251 -0.423 0.871 0.274 -0.485 0.831 0.274 -0.506 0.818 0.276 -0.502 0.819 0.171 0.225 0.959 0.216 0.311 0.926 0.214 0.313 0.925 0.217 0.295 0.931 0.206 0.24 0.949 0.145 0.169 0.975 0.058 0.123 0.991 0.021 0.113 0.993 0.062 0.109 0.992 0.143 0.094 0.985 0.222 0.071 0.972 0.259 0.056 0.964 0.231 0.082 0.969 0.173 0.162 0.971 0.146 0.254 0.956 0.156 0.309 0.938 0.166 0.324 0.931 0.163 0.323 0.932 -0.318 -0.307 0.897 -0.416 -0.322 0.85 -0.417 -0.326 0.849 -0.405 -0.314 0.859 -0.351 -0.291 0.89 -0.244 -0.302 0.922 -0.138 -0.347 0.928 -0.102 -0.371 0.923 -0.134 -0.331 0.934 -0.185 -0.247 0.951 -0.228 -0.158 0.961 -0.245 -0.109 0.963 -0.246 -0.151 0.958 -0.268 -0.257 0.928 -0.324 -0.341 0.882 -0.377 -0.364 0.852 -0.396 -0.364 0.843 -0.392 -0.366 0.844 0.399 -0.217 0.891 0.462 -0.27 0.845 0.462 -0.269 0.845 0.445 -0.27 0.854 0.405 -0.255 0.878 0.357 -0.206 0.911 0.328 -0.141 0.934 0.322 -0.111 0.94 0.317 -0.133 0.939 0.301 -0.182 0.936 0.279 -0.229 0.932 0.268 -0.248 0.931 0.293 -0.23 0.928 0.359 -0.199 0.912 0.43 -0.191 0.882 0.471 -0.205 0.858 0.483 -0.216 0.848 0.483 -0.215 0.849 -0.166 -0.138 0.976 -0.273 -0.2 0.941 -0.272 -0.206 0.94 -0.262 -0.187 0.947 -0.206 -0.136 0.969 -0.073 -0.107 0.992 0.066 -0.126 0.99 0.115 -0.143 0.983 0.062 -0.102 0.993 -0.028 -0.013 1 -0.112 0.081 0.99 -0.15 0.135 0.98 -0.136 0.087 0.987 -0.127 -0.05 0.991 -0.167 -0.177 0.97 -0.223 -0.228 0.948 -0.243 -0.236 0.941 -0.237 -0.237 0.942 0.442 -0.005 0.897 0.574 -0.07 0.816 0.578 -0.067 0.813 0.551 -0.07 0.832 0.473 -0.048 0.88 0.365 0.04 0.93 0.288 0.155 0.945 0.266 0.205 0.942 0.265 0.154 0.952 0.248 0.041 0.968 0.216 -0.069 0.974 0.195 -0.118 0.974 0.236 -0.08 0.968 0.354 -0.009 0.935 0.487 0.019 0.873 0.566 0 0.824 0.589 -0.016 0.808 0.586 -0.011 0.81 -0.354 0.631 0.69 -0.367 0.689 0.625 -0.368 0.689 0.625 -0.356 0.684 0.636 -0.335 0.66 0.672 -0.331 0.605 0.724 -0.352 0.541 0.763 -0.366 0.515 0.775 -0.347 0.534 0.771 -0.301 0.569 0.765 -0.251 0.599 0.76 -0.226 0.611 0.759 -0.258 0.606 0.753 -0.392 0.622 0.678 -0.413 0.645 0.643 -0.415 0.656 0.63 -0.416 0.656 0.631 0.037 -0.474 0.88 -0.001 -0.59 0.808 0.004 -0.594 0.805 -0.002 -0.574 0.819 0.006 -0.501 0.865 0.09 -0.388 0.917 0.214 -0.299 0.93 0.264 -0.274 0.925 0.192 -0.284 0.939 0.053 -0.286 0.957 -0.087 -0.272 0.958 -0.159 -0.256 0.954 -0.112 -0.285 0.952 -0.001 -0.384 0.923 0.064 -0.504 0.862 0.057 -0.576 0.815 0.047 -0.595 0.802 0.053 -0.592 0.804 0.47 0.54 0.698 0.535 0.57 0.624 0.535 0.571 0.623 0.532 0.557 0.638 0.508 0.53 0.679 0.444 0.512 0.736 0.366 0.515 0.775 0.333 0.521 0.786 0.358 0.507 0.784 0.409 0.469 0.783 0.456 0.425 0.782 0.475 0.404 0.782 0.462 0.435 0.773 0.446 0.51 0.736 0.454 0.575 0.68 0.477 0.603 0.639 0.49 0.608 0.624 0.489 0.608 0.625 -0.117 0.048 0.992 -0.254 0.057 0.965 -0.256 0.055 0.965 -0.231 0.067 0.971 -0.159 0.079 0.984 -0.05 0.054 0.997 0.041 -0.001 0.999 0.072 -0.032 0.997 0.062 -0.001 0.998 0.045 0.074 0.996 0.037 0.151 0.988 0.037 0.183 0.982 0.017 0.145 0.989 -0.052 0.064 0.997 -0.147 0.005 0.989 -0.219 -0.009 0.976 -0.246 -0.006 0.969 -0.244 -0.007 0.97 0.425 -0.298 0.855 0.463 -0.392 0.795 0.465 -0.392 0.794 0.448 -0.383 0.808 0.414 -0.342 0.843 0.392 -0.257 0.883 0.396 -0.166 0.903 0.405 -0.128 0.905 0.387 -0.152 0.909 0.341 -0.202 0.918 0.287 -0.246 0.926 0.262 -0.263 0.929 0.3 -0.257 0.919 0.389 -0.26 0.884 0.468 -0.291 0.834 0.503 -0.33 0.799 0.509 -0.35 0.787 0.509 -0.348 0.787 0.034 0.359 0.933 0.041 0.483 0.875 0.034 0.486 0.873 0.046 0.467 0.883 0.058 0.391 0.919 0.001 0.261 0.965 -0.106 0.153 0.983 -0.151 0.122 0.981 -0.078 0.143 0.987 0.062 0.167 0.984 0.203 0.178 0.963 0.277 0.175 0.945 0.226 0.195 0.954 0.095 0.273 0.957 0.002 0.384 0.923 -0.011 0.46 0.888 -0.006 0.481 0.877 -0.012 0.476 0.879 -0.197 -0.374 0.906 -0.268 -0.442 0.856 -0.266 -0.446 0.855 -0.264 -0.429 0.864 -0.233 -0.379 0.896 -0.133 -0.329 0.935 -0.01 -0.313 0.95 0.036 -0.315 0.949 -0.02 -0.295 0.955 -0.119 -0.245 0.962 -0.213 -0.187 0.959 -0.258 -0.15 0.954 -0.234 -0.187 0.954 -0.187 -0.298 0.936 -0.183 -0.407 0.895 -0.214 -0.457 0.863 -0.228 -0.467 0.854 -0.223 -0.467 0.856</float_array><technique_common><accessor source="#weeds_+00+02_foliage-nrm-a" count="608" stride="3"><param name="X" type="float"/><param name="Y" type="float"/><param name="Z" type="float"/></accessor></technique_common></source>
        <vertices id="weeds_+00+02_foliage-vtx"><input semantic="POSITION" source="#weeds_+00+02_foliage-pos"/></vertices>
        <triangles count="544" material="MAT_WEED_BROAD-mat"><input semantic="VERTEX" source="#weeds_+00+02_foliage-vtx" offset="0"/><input semantic="NORMAL" source="#weeds_+00+02_foliage-nrm" offset="1"/><p>0 0 1 1 2 2 0 0 2 2 3 3 0 0 3 3 4 4 0 0 4 4 5 5 0 0 5 5 6 6 0 0 6 6 7 7 0 0 7 7 8 8 0 0 8 8 9 9 0 0 9 9 10 10 0 0 10 10 11 11 0 0 11 11 12 12 0 0 12 12 13 13 0 0 13 13 14 14 0 0 14 14 15 15 0 0 15 15 16 16 0 0 16 16 17 17 18 18 19 19 20 20 18 18 20 20 21 21 18 18 21 21 22 22 18 18 22 22 23 23 18 18 23 23 24 24 18 18 24 24 25 25 18 18 25 25 26 26 18 18 26 26 27 27 18 18 27 27 28 28 18 18 28 28 29 29 18 18 29 29 30 30 18 18 30 30 31 31 18 18 31 31 32 32 18 18 32 32 33 33 18 18 33 33 34 34 18 18 34 34 35 35 36 36 37 37 38 37 36 36 38 37 39 38 36 36 39 38 40 39 36 36 40 39 41 40 36 36 41 40 42 41 36 36 42 41 43 42 36 36 43 42 44 43 36 36 44 43 45 44 36 36 45 44 46 45 36 36 46 45 47 46 36 36 47 46 48 47 36 36 48 47 49 48 36 36 49 48 50 49 36 36 50 49 51 50 36 36 51 50 52 51 36 36 52 51 53 52 54 53 55 54 56 55 54 53 56 55 57 56 54 53 57 56 58 57 54 53 58 57 59 58 54 53 59 58 60 59 54 53 60 59 61 60 54 53 61 60 62 61 54 53 62 61 63 62 54 53 63 62 64 63 54 53 64 63 65 64 54 53 65 64 66 65 54 53 66 65 67 66 54 53 67 66 68 67 54 53 68 67 69 68 54 53 69 68 70 69 54 53 70 69 71 70 72 71 73 72 74 73 72 71 74 73 75 74 72 71 75 74 76 75 72 71 76 75 77 76 72 71 77 76 78 77 72 71 78 77 79 78 72 71 79 78 80 79 72 71 80 79 81 80 72 71 81 80 82 81 72 71 82 81 83 82 72 71 83 82 84 83 72 71 84 83 85 84 72 71 85 84 86 85 72 71 86 85 87 86 72 71 87 86 88 87 72 71 88 87 89 88 90 89 91 90 92 91 90 89 92 91 93 92 90 89 93 92 94 93 90 89 94 93 95 94 90 89 95 94 96 95 90 89 96 95 97 96 90 89 97 96 98 97 90 89 98 97 99 98 90 89 99 98 100 99 90 89 100 99 101 100 90 89 101 100 102 101 90 89 102 101 103 102 90 89 103 102 104 103 90 89 104 103 105 104 90 89 105 104 106 105 90 89 106 105 107 106 108 107 109 108 110 109 108 107 110 109 111 110 108 107 111 110 112 111 108 107 112 111 113 112 108 107 113 112 114 113 108 107 114 113 115 114 108 107 115 114 116 115 108 107 116 115 117 116 108 107 117 116 118 117 108 107 118 117 119 118 108 107 119 118 120 119 108 107 120 119 121 120 108 107 121 120 122 121 108 107 122 121 123 122 108 107 123 122 124 123 108 107 124 123 125 124 126 125 127 126 128 127 126 125 128 127 129 128 126 125 129 128 130 129 126 125 130 129 131 130 126 125 131 130 132 131 126 125 132 131 133 132 126 125 133 132 134 133 126 125 134 133 135 134 126 125 135 134 136 135 126 125 136 135 137 136 126 125 137 136 138 137 126 125 138 137 139 138 126 125 139 138 140 139 126 125 140 139 141 140 126 125 141 140 142 141 126 125 142 141 143 142 144 143 145 144 146 145 144 143 146 145 147 146 144 143 147 146 148 147 144 143 148 147 149 148 144 143 149 148 150 149 144 143 150 149 151 150 144 143 151 150 152 151 144 143 152 151 153 152 144 143 153 152 154 153 144 143 154 153 155 154 144 143 155 154 156 155 144 143 156 155 157 156 144 143 157 156 158 157 144 143 158 157 159 158 144 143 159 158 160 159 144 143 160 159 161 160 162 161 163 162 164 163 162 161 164 163 165 164 162 161 165 164 166 165 162 161 166 165 167 166 162 161 167 166 168 167 162 161 168 167 169 168 162 161 169 168 170 169 162 161 170 169 171 170 162 161 171 170 172 171 162 161 172 171 173 172 162 161 173 172 174 173 162 161 174 173 175 174 162 161 175 174 176 175 162 161 176 175 177 176 162 161 177 176 178 177 162 161 178 177 179 178 180 179 181 180 182 181 180 179 182 181 183 182 180 179 183 182 184 183 180 179 184 183 185 184 180 179 185 184 186 185 180 179 186 185 187 186 180 179 187 186 188 187 180 179 188 187 189 188 180 179 189 188 190 189 180 179 190 189 191 190 180 179 191 190 192 191 180 179 192 191 193 184 180 179 193 184 194 192 180 179 194 192 195 193 180 179 195 193 196 194 180 179 196 194 197 195 198 196 199 197 200 198 198 196 200 198 201 199 198 196 201 199 202 200 198 196 202 200 203 201 198 196 203 201 204 202 198 196 204 202 205 203 198 196 205 203 206 204 198 196 206 204 207 205 198 196 207 205 208 206 198 196 208 206 209 207 198 196 209 207 210 208 198 196 210 208 211 209 198 196 211 209 212 210 198 196 212 210 213 211 198 196 213 211 214 212 198 196 214 212 215 213 216 214 217 215 218 216 216 214 218 216 219 217 216 214 219 217 220 218 216 214 220 218 221 219 216 214 221 219 222 220 216 214 222 220 223 221 216 214 223 221 224 222 216 214 224 222 225 223 216 214 225 223 226 224 216 214 226 224 227 225 216 214 227 225 228 226 216 214 228 226 229 227 216 214 229 227 230 228 216 214 230 228 231 229 216 214 231 229 232 230 216 214 232 230 233 231 234 232 235 233 236 234 234 232 236 234 237 235 234 232 237 235 238 236 234 232 238 236 239 237 234 232 239 237 240 238 234 232 240 238 241 239 234 232 241 239 242 240 234 232 242 240 243 241 234 232 243 241 244 242 234 232 244 242 245 243 234 232 245 243 246 244 234 232 246 244 247 245 234 232 247 245 248 246 234 232 248 246 249 247 234 232 249 247 250 248 234 232 250 248 251 249 252 250 253 251 254 252 252 250 254 252 255 253 252 250 255 253 256 254 252 250 256 254 257 255 252 250 257 255 258 256 252 250 258 256 259 257 252 250 259 257 260 258 252 250 260 258 261 259 252 250 261 259 262 260 252 250 262 260 263 261 252 250 263 261 264 262 252 250 264 262 265 263 252 250 265 263 266 264 252 250 266 264 267 265 252 250 267 265 268 266 252 250 268 266 269 267 270 268 271 269 272 270 270 268 272 270 273 271 270 268 273 271 274 272 270 268 274 272 275 273 270 268 275 273 276 274 270 268 276 274 277 275 270 268 277 275 278 276 270 268 278 276 279 277 270 268 279 277 280 278 270 268 280 278 281 279 270 268 281 279 282 280 270 268 282 280 283 281 270 268 283 281 284 282 270 268 284 282 285 283 270 268 285 283 286 284 270 268 286 284 287 285 288 286 289 287 290 288 288 286 290 288 291 289 288 286 291 289 292 290 288 286 292 290 293 291 288 286 293 291 294 292 288 286 294 292 295 293 288 286 295 293 296 294 288 286 296 294 297 295 288 286 297 295 298 296 288 286 298 296 299 297 288 286 299 297 300 298 288 286 300 298 301 299 288 286 301 299 302 300 288 286 302 300 303 301 288 286 303 301 304 302 288 286 304 302 305 303 0 304 2 306 1 305 0 304 3 307 2 306 0 304 4 308 3 307 0 304 5 309 4 308 0 304 6 310 5 309 0 304 7 311 6 310 0 304 8 312 7 311 0 304 9 313 8 312 0 304 10 314 9 313 0 304 11 315 10 314 0 304 12 316 11 315 0 304 13 317 12 316 0 304 14 318 13 317 0 304 15 319 14 318 0 304 16 320 15 319 0 304 17 321 16 320 18 322 20 324 19 323 18 322 21 325 20 324 18 322 22 326 21 325 18 322 23 327 22 326 18 322 24 328 23 327 18 322 25 329 24 328 18 322 26 330 25 329 18 322 27 331 26 330 18 322 28 332 27 331 18 322 29 333 28 332 18 322 30 334 29 333 18 322 31 335 30 334 18 322 32 336 31 335 18 322 33 337 32 336 18 322 34 338 33 337 18 322 35 339 34 338 36 340 38 341 37 341 36 340 39 342 38 341 36 340 40 343 39 342 36 340 41 344 40 343 36 340 42 345 41 344 36 340 43 346 42 345 36 340 44 347 43 346 36 340 45 348 44 347 36 340 46 349 45 348 36 340 47 350 46 349 36 340 48 351 47 350 36 340 49 352 48 351 36 340 50 353 49 352 36 340 51 354 50 353 36 340 52 355 51 354 36 340 53 356 52 355 54 357 56 359 55 358 54 357 57 360 56 359 54 357 58 361 57 360 54 357 59 362 58 361 54 357 60 363 59 362 54 357 61 364 60 363 54 357 62 365 61 364 54 357 63 366 62 365 54 357 64 367 63 366 54 357 65 368 64 367 54 357 66 369 65 368 54 357 67 370 66 369 54 357 68 371 67 370 54 357 69 372 68 371 54 357 70 373 69 372 54 357 71 374 70 373 72 375 74 377 73 376 72 375 75 378 74 377 72 375 76 379 75 378 72 375 77 380 76 379 72 375 78 381 77 380 72 375 79 382 78 381 72 375 80 383 79 382 72 375 81 384 80 383 72 375 82 385 81 384 72 375 83 386 82 385 72 375 84 387 83 386 72 375 85 388 84 387 72 375 86 389 85 388 72 375 87 390 86 389 72 375 88 391 87 390 72 375 89 392 88 391 90 393 92 395 91 394 90 393 93 396 92 395 90 393 94 397 93 396 90 393 95 398 94 397 90 393 96 399 95 398 90 393 97 400 96 399 90 393 98 401 97 400 90 393 99 402 98 401 90 393 100 403 99 402 90 393 101 404 100 403 90 393 102 405 101 404 90 393 103 406 102 405 90 393 104 407 103 406 90 393 105 408 104 407 90 393 106 409 105 408 90 393 107 410 106 409 108 411 110 413 109 412 108 411 111 414 110 413 108 411 112 415 111 414 108 411 113 416 112 415 108 411 114 417 113 416 108 411 115 418 114 417 108 411 116 419 115 418 108 411 117 420 116 419 108 411 118 421 117 420 108 411 119 422 118 421 108 411 120 423 119 422 108 411 121 424 120 423 108 411 122 425 121 424 108 411 123 426 122 425 108 411 124 427 123 426 108 411 125 428 124 427 126 429 128 431 127 430 126 429 129 432 128 431 126 429 130 433 129 432 126 429 131 434 130 433 126 429 132 435 131 434 126 429 133 436 132 435 126 429 134 437 133 436 126 429 135 438 134 437 126 429 136 439 135 438 126 429 137 440 136 439 126 429 138 441 137 440 126 429 139 442 138 441 126 429 140 443 139 442 126 429 141 444 140 443 126 429 142 445 141 444 126 429 143 446 142 445 144 447 146 449 145 448 144 447 147 450 146 449 144 447 148 451 147 450 144 447 149 452 148 451 144 447 150 453 149 452 144 447 151 454 150 453 144 447 152 455 151 454 144 447 153 456 152 455 144 447 154 457 153 456 144 447 155 458 154 457 144 447 156 459 155 458 144 447 157 460 156 459 144 447 158 461 157 460 144 447 159 462 158 461 144 447 160 463 159 462 144 447 161 464 160 463 162 465 164 467 163 466 162 465 165 468 164 467 162 465 166 469 165 468 162 465 167 470 166 469 162 465 168 471 167 470 162 465 169 472 168 471 162 465 170 473 169 472 162 465 171 474 170 473 162 465 172 475 171 474 162 465 173 476 172 475 162 465 174 477 173 476 162 465 175 478 174 477 162 465 176 479 175 478 162 465 177 480 176 479 162 465 178 481 177 480 162 465 179 482 178 481 180 483 182 485 181 484 180 483 183 486 182 485 180 483 184 487 183 486 180 483 185 488 184 487 180 483 186 489 185 488 180 483 187 490 186 489 180 483 188 491 187 490 180 483 189 492 188 491 180 483 190 493 189 492 180 483 191 494 190 493 180 483 192 495 191 494 180 483 193 488 192 495 180 483 194 496 193 488 180 483 195 497 194 496 180 483 196 498 195 497 180 483 197 499 196 498 198 500 200 502 199 501 198 500 201 503 200 502 198 500 202 504 201 503 198 500 203 505 202 504 198 500 204 506 203 505 198 500 205 507 204 506 198 500 206 508 205 507 198 500 207 509 206 508 198 500 208 510 207 509 198 500 209 511 208 510 198 500 210 512 209 511 198 500 211 513 210 512 198 500 212 514 211 513 198 500 213 515 212 514 198 500 214 516 213 515 198 500 215 517 214 516 216 518 218 520 217 519 216 518 219 521 218 520 216 518 220 522 219 521 216 518 221 523 220 522 216 518 222 524 221 523 216 518 223 525 222 524 216 518 224 526 223 525 216 518 225 527 224 526 216 518 226 528 225 527 216 518 227 529 226 528 216 518 228 530 227 529 216 518 229 531 228 530 216 518 230 532 229 531 216 518 231 533 230 532 216 518 232 534 231 533 216 518 233 535 232 534 234 536 236 538 235 537 234 536 237 539 236 538 234 536 238 540 237 539 234 536 239 541 238 540 234 536 240 542 239 541 234 536 241 543 240 542 234 536 242 544 241 543 234 536 243 545 242 544 234 536 244 546 243 545 234 536 245 547 244 546 234 536 246 548 245 547 234 536 247 549 246 548 234 536 248 550 247 549 234 536 249 551 248 550 234 536 250 552 249 551 234 536 251 553 250 552 252 554 254 556 253 555 252 554 255 557 254 556 252 554 256 558 255 557 252 554 257 559 256 558 252 554 258 560 257 559 252 554 259 561 258 560 252 554 260 562 259 561 252 554 261 563 260 562 252 554 262 564 261 563 252 554 263 565 262 564 252 554 264 566 263 565 252 554 265 567 264 566 252 554 266 568 265 567 252 554 267 569 266 568 252 554 268 570 267 569 252 554 269 571 268 570 270 572 272 574 271 573 270 572 273 575 272 574 270 572 274 576 273 575 270 572 275 577 274 576 270 572 276 578 275 577 270 572 277 579 276 578 270 572 278 580 277 579 270 572 279 581 278 580 270 572 280 582 279 581 270 572 281 583 280 582 270 572 282 584 281 583 270 572 283 585 282 584 270 572 284 586 283 585 270 572 285 587 284 586 270 572 286 588 285 587 270 572 287 589 286 588 288 590 290 592 289 591 288 590 291 593 290 592 288 590 292 594 291 593 288 590 293 595 292 594 288 590 294 596 293 595 288 590 295 597 294 596 288 590 296 598 295 597 288 590 297 599 296 598 288 590 298 600 297 599 288 590 299 601 298 600 288 590 300 602 299 601 288 590 301 603 300 602 288 590 302 604 301 603 288 590 303 605 302 604 288 590 304 606 303 605 288 590 305 607 304 606</p></triangles>
      </mesh>
    </geometry>
  </library_geometries>
  <library_visual_scenes><visual_scene id="scene" name="scene">
    <node id="weeds_+00+02_foliage" name="weeds_+00+02_foliage" type="NODE"><instance_geometry url="#weeds_+00+02_foliage-mesh"><bind_material><technique_common>
      <instance_material symbol="MAT_WEED_GRASS-mat" target="#MAT_WEED_GRASS"/>
      <instance_material symbol="MAT_WEED_BROAD-mat" target="#MAT_WEED_BROAD"/>
    </technique_common></bind_material></instance_geometry></node>
  </visual_scene></library_visual_scenes>
  <scene><instance_visual_scene url="#scene"/></scene>
<!-- vigil:double-sided -->
</COLLADA>
