<?xml version="1.0" encoding="utf-8"?>
<COLLADA xmlns="http://www.collada.org/2005/11/COLLADASchema" version="1.4.1">
  <asset>
    <contributor><authoring_tool>VIGIL SIH26126 farm generator</authoring_tool></contributor>
    <unit name="meter" meter="1"/>
    <up_axis>Z_UP</up_axis>
  </asset>
  <library_effects>
    <effect id="MAT_WEED_STEM-fx"><profile_COMMON><technique sid="c"><lambert><diffuse><color>0.0860 0.1040 0.0360 1</color></diffuse></lambert></technique></profile_COMMON></effect>
  </library_effects>
  <library_materials>
    <material id="MAT_WEED_STEM" name="MAT_WEED_STEM"><instance_effect url="#MAT_WEED_STEM-fx"/></material>
  </library_materials>
  <library_geometries>
    <geometry id="weeds_+02+00_solid-mesh" name="weeds_+02+00_solid">
      <mesh>
        <source id="weeds_+02+00_solid-pos"><float_array id="weeds_+02+00_solid-pos-a" count="222">-0.12645 -0.67518 -0.071048 -0.13749 -0.68016 -0.069949 -0.12794 -0.68279 0.0050447 -0.11824 -0.67841 0.0039837 -0.13177 -0.69085 -0.070918 -0.1229 -0.69219 0.0042241 -0.12073 -0.68587 -0.072017 -0.1132 -0.68781 0.0031631 -0.11732 -0.6844 0.07998 -0.10897 -0.68061 0.078903 -0.11297 -0.69252 0.079328 -0.10461 -0.68873 0.07825 -0.10565 -0.68499 0.15482 -0.098629 -0.6818 0.15378 -0.10198 -0.69183 0.15432 -0.094957 -0.68864 0.15328 -0.092915 -0.68456 0.22958 -0.087225 -0.68198 0.22862 -0.089928 -0.69012 0.22921 -0.084238 -0.68754 0.22825 -0.079121 -0.68312 0.30422 -0.074751 -0.68114 0.30344 -0.076822 -0.6874 0.30395 -0.072453 -0.68541 0.30317 -0.12911 -0.68301 -0.070983 -0.075787 -0.68427 0.3037 0.17106 -6.7226 -0.086431 0.17251 -6.7269 -0.082561 0.2038 -6.6885 -0.046765 0.2026 -6.6854 -0.050778 0.17581 -6.7257 -0.087507 0.20656 -6.6884 -0.051276 0.23709 -6.6508 -0.03842 0.23565 -6.6494 -0.034402 0.23383 -6.6481 -0.038321 0.2678 -6.6123 -0.056866 0.26726 -6.6106 -0.053672 0.26518 -6.6101 -0.056612 0.17184 -6.7235 -0.082582 0.17176 -6.7278 -0.086787 0.20434 -6.7572 -0.051979 0.20479 -6.754 -0.047873 0.17578 -6.7237 -0.087129 0.20774 -6.7537 -0.052216 0.23668 -6.786 -0.040584 0.23826 -6.7848 -0.036574 0.23948 -6.7829 -0.040483 0.26926 -6.8146 -0.060074 0.27116 -6.8143 -0.056967 0.2716 -6.8121 -0.059854 0.171 -6.7225 -0.085972 0.17323 -6.7275 -0.087887 0.1321 -6.7565 -0.052862 0.12982 -6.7523 -0.051347 0.17515 -6.7251 -0.08264 0.133 -6.7546 -0.047969 0.091322 -6.7854 -0.038006 0.090296 -6.7834 -0.041929 0.088894 -6.7819 -0.037924 0.049473 -6.8138 -0.05813 0.049219 -6.8117 -0.061114 0.047462 -6.811 -0.057979 0.17103 -6.7225 -0.086232 0.17315 -6.7277 -0.08757 0.13667 -6.7497 -0.052434 0.13447 -6.7453 -0.051548 0.1752 -6.7248 -0.082697 0.13757 -6.7472 -0.047847 0.10037 -6.7713 -0.037792 0.099508 -6.7692 -0.041694 0.098202 -6.7677 -0.037676 0.063131 -6.7926 -0.057861 0.063086 -6.7904 -0.060719 0.061291 -6.7897 -0.057596</float_array><technique_common><accessor source="#weeds_+02+00_solid-pos-a" count="74" stride="3"><param name="X" type="float"/><param name="Y" type="float"/><param name="Z" type="float"/></accessor></technique_common></source>
        <source id="weeds_+02+00_solid-nrm"><float_array id="weeds_+02+00_solid-nrm-a" count="222">0.326 0.751 0.574 -0.673 0.234 0.701 -0.939 0.316 0.135 0.32 0.947 -0.003 -0.195 -0.786 0.587 -0.321 -0.947 0.029 0.812 -0.271 0.517 0.94 -0.324 -0.107 -0.938 0.316 0.144 0.319 0.948 -0.02 -0.318 -0.947 0.047 0.939 -0.324 -0.116 -0.936 0.316 0.153 0.317 0.948 -0.037 -0.316 -0.947 0.064 0.938 -0.324 -0.125 -0.934 0.317 0.162 0.315 0.948 -0.054 -0.314 -0.946 0.081 0.936 -0.325 -0.134 -0.851 0.243 -0.465 0.165 0.766 -0.621 -0.351 -0.795 -0.495 0.653 -0.273 -0.707 0.112 -0.03 0.993 -0.164 -0.026 -0.986 -0.594 0.759 -0.266 -0.239 -0.552 0.799 0.156 -0.641 0.752 -0.739 0.663 0.119 0.844 -0.22 -0.489 0.652 -0.117 -0.749 0.662 -0.741 0.11 -0.298 0.464 0.834 -0.444 0.475 -0.76 0.559 -0.676 -0.479 0.266 0.247 0.932 -0.792 0.457 -0.404 -0.408 0.458 0.789 -0.413 -0.848 -0.332 -0.511 -0.802 -0.31 -0.302 0.322 0.898 0.821 0.402 -0.406 0.761 0.533 -0.368 -0.652 -0.68 -0.337 0.063 -0.071 0.995 0.629 0.712 -0.311 -0.725 -0.511 -0.461 0.283 -0.314 0.906 0.476 0.787 -0.393 -0.654 0.745 -0.135 0.039 -0.791 -0.61 0.317 -0.864 -0.39 -0.625 0.705 -0.336 0.63 0.014 0.777 0.329 0.22 0.918 0.448 -0.859 0.25 -0.151 0.395 -0.906 -0.332 0.445 0.832 0.37 -0.834 0.41 0.276 0.231 -0.933 -0.648 0.607 0.461 -0.651 0.73 -0.206 0.02 -0.857 -0.515 0.285 -0.912 -0.294 -0.604 0.693 -0.393 0.641 0.107 0.76 0.351 0.298 0.888 0.372 -0.882 0.29 -0.108 0.394 -0.913 -0.307 0.472 0.827 0.296 -0.875 0.383 0.325 0.255 -0.911 -0.625 0.628 0.465</float_array><technique_common><accessor source="#weeds_+02+00_solid-nrm-a" count="74" stride="3"><param name="X" type="float"/><param name="Y" type="float"/><param name="Z" type="float"/></accessor></technique_common></source>
        <vertices id="weeds_+02+00_solid-vtx"><input semantic="POSITION" source="#weeds_+02+00_solid-pos"/></vertices>
        <triangles count="120" material="MAT_WEED_STEM-mat"><input semantic="VERTEX" source="#weeds_+02+00_solid-vtx" offset="0"/><input semantic="NORMAL" source="#weeds_+02+00_solid-nrm" offset="1"/><p>0 0 1 1 2 2 0 0 2 2 3 3 1 1 4 4 5 5 1 1 5 5 2 2 4 4 6 6 7 7 4 4 7 7 5 5 6 6 0 0 3 3 6 6 3 3 7 7 3 3 2 2 8 8 3 3 8 8 9 9 2 2 5 5 10 10 2 2 10 10 8 8 5 5 7 7 11 11 5 5 11 11 10 10 7 7 3 3 9 9 7 7 9 9 11 11 9 9 8 8 12 12 9 9 12 12 13 13 8 8 10 10 14 14 8 8 14 14 12 12 10 10 11 11 15 15 10 10 15 15 14 14 11 11 9 9 13 13 11 11 13 13 15 15 13 13 12 12 16 16 13 13 16 16 17 17 12 12 14 14 18 18 12 12 18 18 16 16 14 14 15 15 19 19 14 14 19 19 18 18 15 15 13 13 17 17 15 15 17 17 19 19 17 17 16 16 20 20 17 17 20 20 21 21 16 16 18 18 22 22 16 16 22 22 20 20 18 18 19 19 23 23 18 18 23 23 22 22 19 19 17 17 21 21 19 19 21 21 23 23 0 0 1 1 24 24 1 1 4 4 24 24 4 4 6 6 24 24 6 6 0 0 24 24 20 20 21 21 25 25 22 22 20 20 25 25 23 23 22 22 25 25 21 21 23 23 25 25 26 26 27 27 28 28 26 26 28 28 29 29 27 27 30 30 31 31 27 27 31 31 28 28 30 30 26 26 29 29 30 30 29 29 31 31 29 29 28 28 32 32 29 29 32 32 33 33 28 28 31 31 34 34 28 28 34 34 32 32 31 31 29 29 33 33 31 31 33 33 34 34 33 33 32 32 35 35 33 33 35 35 36 36 32 32 34 34 37 37 32 32 37 37 35 35 34 34 33 33 36 36 34 34 36 36 37 37 38 38 39 39 40 40 38 38 40 40 41 41 39 39 42 42 43 43 39 39 43 43 40 40 42 42 38 38 41 41 42 42 41 41 43 43 41 41 40 40 44 44 41 41 44 44 45 45 40 40 43 43 46 46 40 40 46 46 44 44 43 43 41 41 45 45 43 43 45 45 46 46 45 45 44 44 47 47 45 45 47 47 48 48 44 44 46 46 49 49 44 44 49 49 47 47 46 46 45 45 48 48 46 46 48 48 49 49 50 50 51 51 52 52 50 50 52 52 53 53 51 51 54 54 55 55 51 51 55 55 52 52 54 54 50 50 53 53 54 54 53 53 55 55 53 53 52 52 56 56 53 53 56 56 57 57 52 52 55 55 58 58 52 52 58 58 56 56 55 55 53 53 57 57 55 55 57 57 58 58 57 57 56 56 59 59 57 57 59 59 60 60 56 56 58 58 61 61 56 56 61 61 59 59 58 58 57 57 60 60 58 58 60 60 61 61 62 62 63 63 64 64 62 62 64 64 65 65 63 63 66 66 67 67 63 63 67 67 64 64 66 66 62 62 65 65 66 66 65 65 67 67 65 65 64 64 68 68 65 65 68 68 69 69 64 64 67 67 70 70 64 64 70 70 68 68 67 67 65 65 69 69 67 67 69 69 70 70 69 69 68 68 71 71 69 69 71 71 72 72 68 68 70 70 73 73 68 68 73 73 71 71 70 70 69 69 72 72 70 70 72 72 73 73</p></triangles>
      </mesh>
    </geometry>
  </library_geometries>
  <library_visual_scenes><visual_scene id="scene" name="scene">
    <node id="weeds_+02+00_solid" name="weeds_+02+00_solid" type="NODE"><instance_geometry url="#weeds_+02+00_solid-mesh"><bind_material><technique_common>
      <instance_material symbol="MAT_WEED_STEM-mat" target="#MAT_WEED_STEM"/>
    </technique_common></bind_material></instance_geometry></node>
  </visual_scene></library_visual_scenes>
  <scene><instance_visual_scene url="#scene"/></scene>
</COLLADA>
