<?xml version="1.0" encoding="utf-8"?>
<COLLADA xmlns="http://www.collada.org/2005/11/COLLADASchema" version="1.4.1">
  <asset>
    <contributor><authoring_tool>VIGIL SIH26126 farm generator</authoring_tool></contributor>
    <unit name="meter" meter="1"/>
    <up_axis>Z_UP</up_axis>
  </asset>
  <library_effects>
    <effect id="MAT_WEED_STEM-fx"><profile_COMMON><technique sid="c"><lambert><diffuse><color>0.0860 0.1040 0.0360 1</color></diffuse></lambert></technique></profile_COMMON></effect>
  </library_effects>
  <library_materials>
    <material id="MAT_WEED_STEM" name="MAT_WEED_STEM"><instance_effect url="#MAT_WEED_STEM-fx"/></material>
  </library_materials>
  <library_geometries>
    <geometry id="weeds_+00-02_solid-mesh" name="weeds_+00-02_solid">
      <mesh>
        <source id="weeds_+00-02_solid-pos"><float_array id="weeds_+00-02_solid-pos-a" count="3036">-0.61293 0.90165 0.0058785 -0.60764 0.89518 0.0056364 -0.60679 0.8945 0.062216 -0.61144 0.9002 0.06254 -0.60101 0.90028 0.0056755 -0.60095 0.89899 0.062275 -0.6063 0.90675 0.0059176 -0.60561 0.90469 0.062599 -0.60523 0.89244 0.11873 -0.60925 0.89735 0.11921 -0.60019 0.89631 0.11883 -0.6042 0.90122 0.1193 -0.60298 0.88898 0.17527 -0.60635 0.8931 0.17582 -0.59873 0.89223 0.17538 -0.60209 0.89636 0.17594 -0.60001 0.88412 0.23182 -0.60274 0.88746 0.2324 -0.59655 0.88675 0.23194 -0.59928 0.8901 0.23252 -0.59634 0.87786 0.28841 -0.59843 0.88043 0.28891 -0.59368 0.87988 0.28851 -0.59577 0.88245 0.28901 -0.60697 0.90097 0.005777 -0.59605 0.88016 0.28871 0.30427 2.2097 0.0075987 0.30427 2.2052 0.011037 0.34524 2.2297 0.045781 0.34512 2.2331 0.042158 0.3077 2.2055 0.0064054 0.34783 2.2292 0.041521 0.38785 2.2542 0.054724 0.38697 2.2557 0.058569 0.38567 2.2575 0.054965 0.42831 2.2813 0.038601 0.42835 2.2829 0.041674 0.42659 2.284 0.038962 0.30469 2.2084 0.011159 0.30329 2.2047 0.0070441 0.32421 2.1674 0.038103 0.32563 2.17 0.042079 0.30827 2.2073 0.0068375 0.32848 2.1697 0.037984 0.34511 2.1317 0.04723 0.34697 2.1323 0.051024 0.34868 2.1338 0.047415 0.36628 2.0975 0.02739 0.36815 2.0971 0.030295 0.36923 2.099 0.02767 0.30424 2.2097 0.0080323 0.30473 2.2046 0.0060058 0.25762 2.1884 0.038193 0.25683 2.1928 0.039813 0.30727 2.2061 0.011003 0.25906 2.1897 0.04285 0.21087 2.1731 0.051464 0.21053 2.1753 0.047875 0.20971 2.1769 0.051711 0.16325 2.1599 0.031952 0.16367 2.162 0.029241 0.16228 2.163 0.032232 0.30426 2.2097 0.0077872 0.30458 2.2044 0.0062948 0.26398 2.1933 0.038815 0.26333 2.1979 0.039851 0.3074 2.2063 0.010959 0.2656 2.1951 0.043207 0.22365 2.1833 0.052122 0.2235 2.1856 0.048556 0.22278 2.1872 0.052405 0.18251 2.1752 0.032891 0.18317 2.1774 0.030302 0.18172 2.1784 0.033281 4.8 2.0715 0.0033264 4.7965 2.0712 0.0099906 4.8586 2.0774 0.044109 4.8607 2.0768 0.037924 4.7991 2.065 0.006691 4.8603 2.0717 0.041668 4.9176 2.0844 0.049788 4.9172 2.0815 0.045172 4.9185 2.0791 0.050005 4.9709 2.0908 0.01918 4.97 2.0875 0.016415 4.9722 2.0867 0.020325 4.8011 2.072 0.0085736 4.7949 2.0683 0.0085569 4.8292 2.0141 0.045378 4.8344 2.0174 0.046379 4.7996 2.0674 0.0028776 4.8335 2.0145 0.040613 4.8604 1.9608 0.052339 4.8628 1.9612 0.057277 4.8651 1.963 0.052688 4.8871 1.9087 0.025165 4.8877 1.907 0.02932 4.8909 1.9093 0.027441 4.7999 2.0715 0.0033068 4.7948 2.0703 0.0084323 4.8215 2.1067 0.047681 4.8254 2.1072 0.042596 4.8009 2.066 0.0082689 4.8269 2.1031 0.047474 4.8452 2.1438 0.059613 4.8466 2.1421 0.054538 4.8498 2.141 0.058914 4.8639 2.181 0.034205 4.8642 2.1785 0.030456 4.8676 2.1786 0.033407 4.7996 2.0711 0.0029295 4.7952 2.0707 0.008955 4.8382 2.1132 0.04605 4.8414 2.1128 0.04041 4.8008 2.0659 0.0081235 4.843 2.1089 0.045345 4.878 2.1562 0.055573 4.8793 2.1541 0.050561 4.8821 2.1526 0.055038 4.9129 2.1991 0.028135 4.9133 2.1966 0.024369 4.9163 2.1961 0.027724 -2.193 0.96579 -0.00035403 -2.1891 0.96693 0.004715 -2.237 0.95572 0.042946 -2.2398 0.95552 0.038036 -2.1931 0.97164 0.0020616 -2.2399 0.96024 0.040887 -2.286 0.94232 0.056861 -2.2869 0.9446 0.052791 -2.2878 0.94676 0.056945 -2.3356 0.9277 0.039436 -2.3359 0.93049 0.036835 -2.3373 0.93111 0.040413 -2.1931 0.96557 0.0042419 -2.1884 0.96951 0.003137 -2.2238 1.014 0.036814 -2.2275 1.0106 0.038581 -2.1936 0.96929 -0.00095633 -2.2281 1.0128 0.033478 -2.2605 1.0562 0.044987 -2.2618 1.0558 0.049521 -2.2641 1.0536 0.046095 -2.298 1.0954 0.023896 -2.2983 1.0971 0.0274 -2.3009 1.0946 0.026397 -2.193 0.96581 -0.00037357 -2.188 0.96786 0.0031002 -2.1983 0.93577 0.04166 -2.2024 0.93448 0.038002 -2.1942 0.9707 0.003696 -2.2038 0.93807 0.042143 -2.2098 0.90157 0.056866 -2.2122 0.90249 0.052748 -2.2145 0.9033 0.056855 -2.2224 0.86549 0.039973 -2.2237 0.86732 0.036766 -2.2262 0.867 0.039752 -2.1928 0.96615 -0.00076016 -2.1882 0.96743 0.0036266 -2.2118 0.92789 0.043082 -2.2155 0.92736 0.038816 -2.1942 0.9708 0.0035561 -2.217 0.93083 0.043031 -2.2365 0.88638 0.05894 -2.2387 0.8876 0.05483 -2.2409 0.88889 0.058947 -2.2623 0.84309 0.043015 -2.2637 0.84488 0.039803 -2.2659 0.84513 0.043045 5.4996 2.2086 0.0018344 5.5018 2.211 0.0067262 5.4778 2.1666 0.034768 5.4758 2.1655 0.030243 5.4961 2.2125 0.0048476 5.473 2.1685 0.033458 5.4532 2.1238 0.041159 5.451 2.1256 0.037895 5.4493 2.1259 0.041788 5.4276 2.0849 0.019978 5.4256 2.0872 0.01812 5.4244 2.0862 0.021227 5.4998 2.2076 0.0058014 5.5006 2.2136 0.0057992 5.4512 2.2189 0.039466 5.4508 2.2138 0.040192 5.497 2.2109 0.0018076 5.4489 2.2159 0.036035 5.4012 2.2258 0.0504 5.4007 2.224 0.054196 5.4003 2.2215 0.050696 5.351 2.2349 0.035289 5.35 2.2354 0.038585 5.3498 2.2321 0.037126 5.4996 2.2086 0.0018202 5.5019 2.2127 0.005546 5.516 2.1762 0.033435 5.5139 2.1733 0.02974 5.496 2.2108 0.006042 5.5109 2.1744 0.033808 5.5295 2.1412 0.04053 5.5272 2.1411 0.036904 5.5253 2.1396 0.040437 5.542 2.1095 0.019241 5.5399 2.1105 0.016628 5.5385 2.1083 0.018999 5.4995 2.209 0.0015489 5.502 2.2121 0.0059212 5.5117 2.1617 0.032443 5.5093 2.1597 0.028362 5.4959 2.2109 0.0059381 5.5064 2.1607 0.03247 5.5207 2.113 0.037983 5.5182 2.1132 0.03442 5.5162 2.1121 0.038053 5.5286 2.0675 0.015432 5.5265 2.0685 0.012806 5.525 2.0668 0.015509 3.9941 -0.32722 -0.007239 3.9971 -0.3268 -0.002181 3.9473 -0.32795 0.025498 3.9456 -0.32771 0.020746 3.9956 -0.32188 -0.0049588 3.9466 -0.32337 0.023385 3.8992 -0.33123 0.031255 3.8998 -0.32907 0.027556 3.8991 -0.32688 0.031194 3.8547 -0.336 0.0089367 3.8558 -0.33346 0.0066374 3.8542 -0.33259 0.009654 3.9933 -0.32734 -0.0031546 3.9987 -0.32461 -0.0034467 3.9785 -0.27756 0.023029 3.9739 -0.28001 0.024046 3.9948 -0.32396 -0.0077775 3.9748 -0.27797 0.019456 3.9598 -0.23283 0.026494 3.9579 -0.23288 0.030362 3.9557 -0.23449 0.026953 3.9437 -0.19098 0.003651 3.9435 -0.18938 0.0067835 3.9406 -0.19123 0.0054993 3.9941 -0.32721 -0.0072551 3.9986 -0.32618 -0.0034561 3.9739 -0.35284 0.028928 3.9705 -0.35334 0.025105 3.9941 -0.32251 -0.0036676 3.9699 -0.34979 0.028704 3.9508 -0.38154 0.040255 3.9497 -0.38037 0.036295 3.9473 -0.37915 0.039672 3.9307 -0.41225 0.022736 3.9306 -0.41041 0.01974 3.9279 -0.41022 0.022077 3.9945 -0.32695 -0.0075691 3.9982 -0.32653 -0.0030232 3.9596 -0.35758 0.028271 3.9569 -0.35747 0.023971 3.9942 -0.32243 -0.0037866 3.9562 -0.354 0.02762 3.9228 -0.39056 0.038303 3.9219 -0.38913 0.034372 3.9199 -0.38752 0.037798 3.889 -0.42547 0.019776 3.8888 -0.42365 0.016769 3.8866 -0.42299 0.019385 4.7243 -0.23113 -0.00030669 4.7281 -0.2303 -0.00019589 4.7273 -0.23009 0.022657 4.7239 -0.23082 0.022638 4.7273 -0.2265 -0.00022805 4.7265 -0.22674 0.022656 4.7235 -0.22733 -0.00033885 4.7232 -0.22747 0.022637 4.7277 -0.23003 0.045551 4.7248 -0.23066 0.045671 4.7271 -0.22714 0.045597 4.7242 -0.22777 0.045717 4.7295 -0.23013 0.068548 4.7271 -0.23065 0.068762 4.729 -0.2277 0.068624 4.7266 -0.22822 0.068839 4.7326 -0.23039 0.091647 4.7307 -0.23081 0.091912 4.7322 -0.22841 0.091739 4.7303 -0.22882 0.092003 4.7371 -0.23079 0.11487 4.7356 -0.23111 0.11511 4.7368 -0.22927 0.11495 4.7353 -0.22959 0.11519 4.7258 -0.22882 -0.00026737 4.7362 -0.23019 0.11503 -3.2572 0.91426 0.0011032 -3.2598 0.90978 0.00072681 -3.2572 0.90581 0.035822 -3.2549 0.90973 0.036275 -3.2552 0.9074 0.00016594 -3.2532 0.9037 0.03537 -3.2526 0.91188 0.00054236 -3.2508 0.90763 0.035823 -3.256 0.90065 0.070862 -3.254 0.904 0.07146 -3.2525 0.89881 0.070542 -3.2505 0.90217 0.071141 -3.2561 0.89429 0.10594 -3.2544 0.89708 0.10661 -3.2532 0.89272 0.10573 -3.2515 0.89552 0.1064 -3.2576 0.88672 0.14105 -3.2562 0.88896 0.14174 -3.2552 0.88544 0.14092 -3.2538 0.88767 0.14161 -3.2605 0.87794 0.17623 -3.2594 0.87965 0.17681 -3.2586 0.87695 0.17615 -3.2576 0.87865 0.17673 -3.2562 0.91083 0.00063459 -3.259 0.8783 0.17648 0.90426 -0.38335 -0.00027916 0.90461 -0.38684 0.0024245 0.94089 -0.36502 0.022051 0.94043 -0.36245 0.019283 0.90696 -0.38683 -0.0012895 0.9426 -0.36566 0.018733 0.9761 -0.34464 0.02289 0.97574 -0.34314 0.025678 0.97434 -0.34184 0.023122 1.0072 -0.32349 0.00573 1.0075 -0.32201 0.0078645 1.0059 -0.32118 0.0060309 0.90494 -0.38421 0.0023112 0.90345 -0.38744 -0.00033229 0.92358 -0.41663 0.021779 0.92508 -0.41427 0.024371 0.90745 -0.38537 -0.0011231 0.92702 -0.41477 0.021137 0.94164 -0.44567 0.027982 0.9435 -0.44503 0.0305 0.94454 -0.44402 0.027647 0.95723 -0.47516 0.013182 0.95901 -0.47531 0.015104 0.95963 -0.47385 0.013 0.90428 -0.38328 3.4757e-05 0.90452 -0.3876 -0.001225 0.86941 -0.39886 0.027674 0.86889 -0.39514 0.028706 0.90704 -0.38614 0.0020461 0.871 -0.39755 0.030822 0.83283 -0.41043 0.042839 0.8322 -0.40879 0.040174 0.83188 -0.40726 0.042947 0.79249 -0.42204 0.034329 0.79256 -0.42047 0.032225 0.7917 -0.41945 0.034478 0.90427 -0.38332 -0.00014275 0.90443 -0.38774 -0.00099146 0.87459 -0.39484 0.027223 0.87412 -0.391 0.02781 0.90714 -0.38596 0.0019901 0.8763 -0.39312 0.030136 0.84318 -0.40207 0.041488 0.84271 -0.40039 0.038817 0.84247 -0.39884 0.041588 0.80808 -0.40948 0.032257 0.80836 -0.40784 0.030212 0.80746 -0.40686 0.032462 -3.53 0.98714 0.0017938 -3.524 0.98249 0.0016307 -3.5267 0.9778 0.053953 -3.532 0.98189 0.054032 -3.5195 0.9886 0.0024835 -3.5227 0.98316 0.054726 -3.5255 0.99324 0.0026466 -3.528 0.98726 0.054805 -3.5303 0.97339 0.10628 -3.5349 0.97694 0.10624 -3.5268 0.97802 0.10699 -3.5314 0.98157 0.10694 -3.5347 0.96929 0.15859 -3.5386 0.97228 0.15846 -3.5319 0.97318 0.15922 -3.5357 0.97618 0.15909 -3.5401 0.96548 0.21089 -3.5433 0.96792 0.2107 -3.5378 0.96864 0.21142 -3.5409 0.97108 0.21124 -3.5464 0.96196 0.26316 -3.5488 0.96385 0.26299 -3.5446 0.9644 0.26358 -3.547 0.96628 0.26341 -3.5248 0.98787 0.0021386 -3.5467 0.96412 0.26328 0.55818 2.1728 0.0064992 0.5633 2.1654 0.0066286 0.5612 2.1656 0.070757 0.55669 2.1722 0.070563 0.57042 2.171 0.0069357 0.56745 2.1705 0.071055 0.56529 2.1784 0.0068063 0.56295 2.1771 0.070861 0.5582 2.1665 0.13488 0.55431 2.1721 0.13458 0.5636 2.1707 0.13519 0.55972 2.1764 0.13488 0.55431 2.168 0.19898 0.55105 2.1727 0.19861 0.55885 2.1715 0.19928 0.55559 2.1763 0.19891 0.54953 2.1701 0.26305 0.54689 2.174 0.26265 0.55322 2.173 0.26332 0.55058 2.1769 0.26293 0.54386 2.1729 0.32707 0.54184 2.1759 0.32673 0.5467 2.1752 0.3273 0.54468 2.1781 0.32696 0.5643 2.1719 0.0067175 0.54427 2.1755 0.32702 -2.7685 2.0302 -0.0054812 -2.7663 2.0256 -0.001199 -2.7345 2.0725 0.034787 -2.7362 2.0758 0.030395 -2.7628 2.027 -0.0065912 -2.7314 2.0726 0.029913 -2.7007 2.1175 0.041464 -2.7024 2.1192 0.04572 -2.7046 2.1203 0.04152 -2.6703 2.1622 0.019564 -2.6711 2.1642 0.022912 -2.6735 2.1645 0.019792 -2.7674 2.0293 -0.0013474 -2.7671 2.0243 -0.0056553 -2.7269 1.9947 0.032098 -2.7267 1.9985 0.036336 -2.763 2.0292 -0.0062687 -2.7235 1.999 0.031629 -2.6874 1.9648 0.044841 -2.6857 1.9665 0.049036 -2.6846 1.9685 0.044763 -2.6481 1.9338 0.024608 -2.646 1.9344 0.027872 -2.6457 1.9368 0.024693 -2.7685 2.0303 -0.0049928 -2.7655 2.0247 -0.0068693 -2.8083 1.9908 0.032527 -2.8113 1.9955 0.034011 -2.7635 2.0278 -0.0014093 -2.8074 1.9932 0.037651 -2.8511 1.9563 0.050384 -2.8525 1.9582 0.046136 -2.8541 1.96 0.050373 -2.8956 1.9206 0.030913 -2.8961 1.9228 0.027645 -2.8981 1.9237 0.030994 -2.7685 2.0303 -0.0052693 -2.7656 2.0245 -0.0065198 -2.8039 1.9988 0.032609 -2.8068 2.0037 0.033411 -2.7635 2.0281 -0.0014822 -2.803 2.0019 0.037383 -2.8423 1.9727 0.049846 -2.8435 1.9748 0.045613 -2.8451 1.9767 0.04986 -2.8824 1.9454 0.030046 -2.8827 1.9478 0.026903 -2.8847 1.9486 0.030242 -3.2278 1.4421 -0.022992 -3.2252 1.4412 -0.019605 -3.2592 1.4489 0.0056795 -3.2608 1.45 0.0024401 -3.2255 1.4455 -0.021049 -3.259 1.4527 0.0046073 -3.2942 1.4571 0.014706 -3.2937 1.459 0.012145 -3.2935 1.4604 0.01504 -3.3292 1.4666 0.0028582 -3.3281 1.4685 0.0012962 -3.3289 1.4692 0.0037242 -3.2281 1.4418 -0.019952 -3.2237 1.4426 -0.020511 -3.2271 1.4791 0.0048283 -3.2308 1.4782 0.0058441 -3.2267 1.4445 -0.023183 -3.2301 1.4801 0.0025909 -3.2316 1.5162 0.01311 -3.2327 1.5161 0.016114 -3.2348 1.5159 0.01374 -3.237 1.5535 0.0018064 -3.2366 1.5544 0.004232 -3.2391 1.5539 0.0034495 -3.2278 1.4422 -0.023004 -3.2241 1.4414 -0.020636 -3.2445 1.4238 0.0032294 -3.2474 1.4247 0.00077312 -3.2266 1.4452 -0.020006 -3.2468 1.427 0.0037461 -3.266 1.4067 0.011481 -3.2668 1.4083 0.0088263 -3.268 1.4094 0.011628 -3.2879 1.3908 -0.0016773 -3.2878 1.3925 -0.0036859 -3.2895 1.393 -0.0016928 -3.2275 1.4423 -0.023244 -3.2244 1.4412 -0.02031 -3.2558 1.4238 0.0038731 -3.2581 1.425 0.0010517 -3.2265 1.4453 -0.020093 -3.2577 1.4273 0.0040685 -3.2881 1.4069 0.012286 -3.2888 1.4086 0.0096526 -3.2897 1.4099 0.012486 -3.3209 1.3912 -0.00049608 -3.3209 1.3929 -0.0025093 -3.3222 1.3936 -0.00031659 0.99263 0.2227 -0.022374 0.99051 0.225 -0.017487 1.0306 0.20379 0.013113 1.0315 0.20172 0.0085731 0.98873 0.22004 -0.01919 1.0285 0.19963 0.011949 1.0691 0.18082 0.021478 1.0672 0.17883 0.018192 1.0668 0.17756 0.022262 1.1037 0.15554 0.0015018 1.1014 0.15379 -0.00035537 1.1023 0.15287 0.0029071 0.9936 0.22312 -0.018295 0.988 0.22404 -0.01843 0.97947 0.18332 0.01825 0.98431 0.18282 0.019097 0.99028 0.22058 -0.022327 0.9822 0.18093 0.014883 0.96939 0.14076 0.031584 0.97112 0.1405 0.035536 0.97342 0.13982 0.032001 0.95721 0.096595 0.018141 0.95668 0.095924 0.021564 0.95976 0.095463 0.020132 0.99262 0.22269 -0.022389 0.98896 0.22512 -0.018733 1.0244 0.23743 0.0098892 1.0269 0.23521 0.0062367 0.9903 0.21993 -0.01793 1.0257 0.23296 0.010526 1.0582 0.24805 0.017154 1.0582 0.24581 0.013535 1.0595 0.24428 0.017274 1.0889 0.25622 -0.0047396 1.0878 0.25424 -0.0073458 1.0898 0.2531 -0.0048128 0.99221 0.22261 -0.02267 0.98948 0.22524 -0.018345 1.0377 0.23294 0.0093025 1.0394 0.23054 0.0052493 0.99018 0.21988 -0.018037 1.0383 0.22829 0.0095819 1.0841 0.23891 0.015399 1.0838 0.2366 0.011844 1.0846 0.23498 0.015684 1.1274 0.24243 -0.0073631 1.1263 0.24044 -0.009981 1.1278 0.23922 -0.0071089 -3.5605 1.269 -0.014609 -3.5649 1.2675 -0.014439 -3.5638 1.268 0.013191 -3.5599 1.2692 0.013137 -3.5631 1.2633 -0.014411 -3.5622 1.2642 0.013249 -3.5587 1.2647 -0.014582 -3.5583 1.2655 0.013194 -3.5643 1.2684 0.040876 -3.5609 1.2695 0.040994 -3.5629 1.2651 0.040982 -3.5596 1.2662 0.0411 -3.5664 1.2689 0.068689 -3.5636 1.2698 0.068926 -3.5653 1.2661 0.068825 -3.5625 1.267 0.069061 -3.5702 1.2693 0.096631 -3.5679 1.2701 0.096933 -3.5693 1.2671 0.096777 -3.567 1.2678 0.097078 -3.5756 1.2698 0.12473 -3.5738 1.2704 0.125 -3.5749 1.2681 0.12485 -3.5731 1.2687 0.12513 -3.5618 1.2661 -0.01451 -3.5744 1.2692 0.12493 1.6928 0.14059 -0.021352 1.696 0.13901 -0.016308 1.6416 0.12996 0.017611 1.6396 0.13181 0.012982 1.6942 0.14487 -0.017269 1.6405 0.13515 0.017028 1.5878 0.12307 0.026934 1.5878 0.12583 0.023306 1.5871 0.12749 0.027507 1.5357 0.11968 0.0041433 1.5364 0.12238 0.0017213 1.5349 0.12317 0.0050859 1.6927 0.14056 -0.021323 1.6966 0.13921 -0.016701 1.6524 0.11823 0.016535 1.6497 0.11988 0.012181 1.6937 0.1447 -0.016905 1.6501 0.12307 0.016459 1.6087 0.09938 0.025381 1.6082 0.102 0.021676 1.6069 0.10351 0.025797 1.5666 0.084023 0.0018876 1.5669 0.086655 -0.00071427 1.565 0.087333 0.0024382 1.6918 0.13957 -0.017051 1.6976 0.14087 -0.017127 1.6884 0.17632 0.02256 1.6835 0.17489 0.023224 1.6937 0.14404 -0.02075 1.6847 0.17815 0.019163 1.6795 0.21405 0.035807 1.6779 0.21382 0.040082 1.6752 0.21339 0.03651 1.6714 0.25356 0.019076 1.6719 0.25495 0.022502 1.6686 0.25406 0.021353 1.6924 0.14032 -0.021002 1.6969 0.1394 -0.016897 1.6643 0.12184 0.017163 1.6611 0.12311 0.013085 1.6937 0.14476 -0.017031 1.6617 0.12656 0.01709 1.632 0.10628 0.026818 1.6315 0.10893 0.02313 1.63 0.11035 0.027232 1.6015 0.094335 0.0039921 1.602 0.097099 0.0015783 1.5997 0.097572 0.0045294 1.6923 0.13986 -0.015961 1.696 0.13964 -0.02091 1.7416 0.12946 0.016751 1.7392 0.13007 0.021562 1.6947 0.14497 -0.018058 1.7411 0.13426 0.019005 1.7874 0.12121 0.030996 1.7878 0.12328 0.035022 1.7878 0.12566 0.031123 1.8355 0.11664 0.012745 1.8366 0.11901 0.015322 1.8355 0.12024 0.011976 -3.4378 1.6598 -0.020737 -3.4367 1.6566 -0.016896 -3.4724 1.6865 0.01364 -3.4727 1.6891 0.010058 -3.4338 1.6611 -0.017592 -3.4697 1.6903 0.013216 -3.5078 1.7182 0.02447 -3.5061 1.7198 0.021551 -3.5052 1.7211 0.024944 -3.5416 1.7517 0.009498 -3.5395 1.7529 0.007504 -3.5396 1.7542 0.010278 -3.4379 1.6599 -0.020711 -3.4363 1.6564 -0.017247 -3.4741 1.6727 0.012186 -3.4748 1.6756 0.0088631 -3.4343 1.6614 -0.017266 -3.4723 1.677 0.012241 -3.5117 1.6908 0.02208 -3.5104 1.6928 0.019135 -3.5099 1.6944 0.022501 -3.5477 1.7109 0.0060001 -3.546 1.7123 0.0038869 -3.5464 1.7139 0.0065194 -3.4388 1.6598 -0.017231 -3.4346 1.6566 -0.01766 -3.4139 1.6815 0.014414 -3.4176 1.684 0.015259 -3.4349 1.6612 -0.020334 -3.415 1.6851 0.011918 -3.3929 1.7084 0.025323 -3.3938 1.7092 0.028841 -3.3958 1.7109 0.026155 -3.372 1.7368 0.012204 -3.3706 1.7372 0.014908 -3.3732 1.7389 0.014198 -3.4382 1.6599 -0.020433 -3.436 1.6563 -0.017423 -3.4648 1.6668 0.01193 -3.466 1.6699 0.0088626 -3.4342 1.6614 -0.017368 -3.4631 1.6712 0.012002 -3.4934 1.6792 0.021743 -3.4922 1.6812 0.018812 -3.4918 1.6828 0.022172 -3.5205 1.6935 0.0054595 -3.5185 1.6949 0.0034845 -3.5193 1.6965 0.005978 -3.4383 1.6596 -0.016394 -3.4366 1.6571 -0.020578 -3.4148 1.6197 0.0067677 -3.4155 1.6215 0.010757 -3.4335 1.6609 -0.018252 -3.4118 1.6227 0.0085693 -3.393 1.584 0.015365 -3.3911 1.5847 0.018546 -3.3897 1.5862 0.015414 -3.3691 1.55 -0.0021753 -3.3668 1.5505 -0.00019596 -3.3668 1.5521 -0.0028075 -4.0071 1.279 -0.012398 -4.0016 1.2794 -0.0128 -3.9991 1.2762 0.022203 -4.0039 1.2758 0.022678 -4.0019 1.2849 -0.012214 -3.9994 1.281 0.02276 -4.0074 1.2845 -0.011812 -4.0042 1.2806 0.023235 -3.9948 1.2724 0.057013 -3.999 1.2721 0.057631 -3.9951 1.2766 0.057564 -3.9992 1.2763 0.058182 -3.9887 1.2682 0.091724 -3.9921 1.2679 0.092416 -3.9889 1.2717 0.092244 -3.9923 1.2714 0.092936 -3.9808 1.2635 0.12633 -3.9835 1.2632 0.12703 -3.9809 1.2663 0.1268 -3.9837 1.2661 0.1275 -3.971 1.2583 0.16087 -3.9731 1.2581 0.16146 -3.9711 1.2604 0.16125 -3.9732 1.2602 0.16184 -4.0045 1.282 -0.012306 -3.9721 1.2593 0.16136 -1.3244 -1.34 -0.026102 -1.3325 -1.3453 -0.026155 -1.3303 -1.3483 0.039764 -1.3232 -1.3436 0.039728 -1.3273 -1.3535 -0.026603 -1.3258 -1.3555 0.039398 -1.3192 -1.3482 -0.02655 -1.3187 -1.3508 0.039363 -1.3275 -1.3503 0.10574 -1.3213 -1.3462 0.10556 -1.3236 -1.3565 0.10547 -1.3174 -1.3524 0.1053 -1.3239 -1.3513 0.17173 -1.3187 -1.3479 0.17146 -1.3206 -1.3566 0.17155 -1.3154 -1.3531 0.17128 -1.3195 -1.3514 0.23774 -1.3154 -1.3486 0.23743 -1.3169 -1.3557 0.23763 -1.3127 -1.3529 0.23732 -1.3145 -1.3505 0.30377 -1.3112 -1.3484 0.30349 -1.3124 -1.3538 0.30369 -1.3092 -1.3517 0.30342 -1.3258 -1.3468 -0.026353 -1.3118 -1.3511 0.30359 5.3435 -0.4025 0.0060305 5.3548 -0.40291 0.0063 5.3525 -0.40308 0.074025 5.3425 -0.40272 0.073704 5.3555 -0.39156 0.0064559 5.353 -0.3931 0.074192 5.3441 -0.39115 0.0061865 5.343 -0.39273 0.07387 5.3487 -0.40367 0.14174 5.3401 -0.40335 0.14132 5.3492 -0.39505 0.14194 5.3406 -0.39472 0.14151 5.3436 -0.40467 0.20942 5.3364 -0.40439 0.20894 5.344 -0.39741 0.20962 5.3368 -0.39713 0.20914 5.3372 -0.40608 0.27705 5.3313 -0.40585 0.27656 5.3375 -0.40018 0.27725 5.3316 -0.39995 0.27677 5.3294 -0.4079 0.34463 5.3248 -0.40772 0.34422 5.3296 -0.40337 0.3448 5.3251 -0.40318 0.34439 5.3495 -0.39703 0.0062432 5.3272 -0.40554 0.34451 -3.1247 -1.5574 -0.022632 -3.1128 -1.5579 -0.022643 -3.113 -1.5513 0.060368 -3.1235 -1.5508 0.060274 -3.1132 -1.546 -0.023466 -3.1134 -1.5408 0.059679 -3.1251 -1.5455 -0.023455 -3.1239 -1.5404 0.059585 -3.1147 -1.5451 0.14345 -3.1237 -1.5447 0.14319 -3.115 -1.536 0.14292 -3.1241 -1.5357 0.14266 -3.1177 -1.5393 0.22656 -3.1253 -1.539 0.22619 -3.118 -1.5317 0.22617 -3.1256 -1.5314 0.2258 -3.1221 -1.534 0.30971 -3.1283 -1.5337 0.30928 -3.1224 -1.5278 0.30943 -3.1286 -1.5276 0.309 -3.1279 -1.5291 0.39287 -3.1327 -1.5289 0.3925 -3.1281 -1.5243 0.39267 -3.1329 -1.5241 0.3923 -3.1189 -1.5517 -0.023049 -3.1304 -1.5266 0.39258 -3.8822 -0.46581 -0.0056375 -3.8792 -0.46843 -0.0023448 -3.8716 -0.42195 0.027623 -3.8739 -0.42011 0.024209 -3.8773 -0.46587 -0.0066046 -3.8696 -0.4205 0.023745 -3.8624 -0.37525 0.034181 -3.8641 -0.37479 0.037617 -3.8661 -0.37477 0.034298 -3.8558 -0.32947 0.017942 -3.8569 -0.32834 0.020665 -3.8588 -0.32901 0.018184 -3.8812 -0.46615 -0.0023652 -3.8795 -0.46959 -0.0059325 -3.8417 -0.47604 0.023404 -3.8427 -0.47324 0.026886 -3.8781 -0.46436 -0.0062892 -3.8406 -0.47149 0.023147 -3.8046 -0.48232 0.032795 -3.8039 -0.48047 0.036187 -3.8038 -0.47844 0.032834 -3.7677 -0.48862 0.015867 -3.7664 -0.48737 0.018488 -3.767 -0.48546 0.016016 -3.8823 -0.46578 -0.0052459 -3.8785 -0.46864 -0.0068893 -3.8969 -0.51201 0.023576 -3.9005 -0.50981 0.024882 -3.878 -0.46568 -0.0024518 -3.897 -0.50998 0.027727 -3.9154 -0.55526 0.036852 -3.9171 -0.55428 0.033517 -3.9188 -0.55375 0.036942 -3.9352 -0.59908 0.020339 -3.9363 -0.59759 0.017793 -3.9379 -0.59787 0.020484 -3.8823 -0.46579 -0.0054674 -3.8784 -0.46886 -0.0066174 -3.8964 -0.50429 0.023859 -3.9 -0.50191 0.024627 -3.8781 -0.46545 -0.002502 -3.8967 -0.50183 0.027748 -3.9146 -0.53957 0.036872 -3.9162 -0.53842 0.033552 -3.9178 -0.5378 0.036987 -3.9339 -0.57546 0.020322 -3.9349 -0.57374 0.01788 -3.9366 -0.57408 0.020561 -4.1646 -2.2549 -0.026987 -4.168 -2.2445 -0.027233 -4.1792 -2.2471 0.044736 -4.1762 -2.2563 0.044862 -4.1783 -2.2477 -0.02885 -4.1883 -2.2499 0.043343 -4.1749 -2.2581 -0.028605 -4.1853 -2.2591 0.043469 -4.1895 -2.2508 0.11683 -4.1869 -2.2587 0.11678 -4.1974 -2.2532 0.11568 -4.1948 -2.2611 0.11563 -4.1991 -2.2555 0.18902 -4.1969 -2.2622 0.18884 -4.2057 -2.2576 0.18809 -4.2035 -2.2642 0.18792 -4.2078 -2.2614 0.26129 -4.206 -2.2668 0.26105 -4.2132 -2.263 0.26058 -4.2114 -2.2684 0.26034 -4.2157 -2.2683 0.33365 -4.2143 -2.2724 0.33342 -4.2199 -2.2696 0.33311 -4.2185 -2.2737 0.33289 -4.1715 -2.2513 -0.027919 -4.2171 -2.271 0.33327 2.3014 -2.2728 -0.060897 2.2986 -2.2756 -0.055739 2.3361 -2.241 -0.018877 2.3384 -2.2396 -0.023842 2.304 -2.2782 -0.058444 2.3406 -2.2439 -0.020965 2.3733 -2.2044 -0.0063045 2.375 -2.2062 -0.010366 2.3768 -2.2077 -0.0062302 2.4098 -2.1673 -0.024999 2.4112 -2.1698 -0.027577 2.4128 -2.1696 -0.024042 2.3015 -2.2724 -0.056319 2.2991 -2.2784 -0.057276 2.3501 -2.3025 -0.024213 2.3519 -2.2974 -0.022569 2.3034 -2.2758 -0.061485 2.3533 -2.2994 -0.027655 2.4008 -2.3244 -0.016629 2.4018 -2.3233 -0.012144 2.4028 -2.3202 -0.015633 2.4504 -2.344 -0.038265 2.4514 -2.3453 -0.034764 2.4525 -2.3417 -0.035847 2.3014 -2.2728 -0.060916 2.298 -2.2771 -0.057314 2.2936 -2.2408 -0.019374 2.2965 -2.2377 -0.023129 2.3046 -2.2767 -0.05685 2.2994 -2.2403 -0.019006 2.2889 -2.2026 -0.0047612 2.2913 -2.2025 -0.0089168 2.2938 -2.202 -0.0048736 2.2837 -2.163 -0.022192 2.2856 -2.1641 -0.025408 2.2877 -2.1626 -0.022493 2.3014 -2.2732 -0.061294 2.298 -2.2765 -0.056798 2.3019 -2.2268 -0.018346 2.3049 -2.2247 -0.022694 2.3047 -2.2769 -0.056988 2.3077 -2.2271 -0.0185 2.3056 -2.1754 -0.0034631 2.308 -2.1756 -0.0076053 2.3105 -2.1757 -0.0035429 2.3087 -2.1226 -0.020307 2.3107 -2.1237 -0.023528 2.3128 -2.1228 -0.020347 -2.4566 -0.67219 -0.018062 -2.4605 -0.66852 -0.01849 -2.4621 -0.66675 0.015305 -2.4587 -0.66997 0.015799 -2.4643 -0.67232 -0.018421 -2.4654 -0.67008 0.015406 -2.4604 -0.67599 -0.017994 -2.462 -0.6733 0.015899 -2.4646 -0.66336 0.048958 -2.4616 -0.66612 0.049584 -2.4675 -0.66623 0.049112 -2.4645 -0.66899 0.049738 -2.4679 -0.65835 0.082556 -2.4654 -0.66065 0.083249 -2.4703 -0.66075 0.082741 -2.4679 -0.66305 0.083434 -2.472 -0.65171 0.1161 -2.4701 -0.65357 0.1168 -2.474 -0.65364 0.11629 -2.4721 -0.6555 0.11699 -2.477 -0.64344 0.14962 -2.4755 -0.64486 0.15021 -2.4786 -0.64492 0.14978 -2.4771 -0.64634 0.15037 -2.4604 -0.67226 -0.018242 -2.4771 -0.64489 0.15 -0.34305 -2.6792 -0.056646 -0.34724 -2.6677 -0.056838 -0.34755 -2.6673 0.022373 -0.34387 -2.6774 0.022697 -0.35869 -2.672 -0.056749 -0.35763 -2.6711 0.022486 -0.3545 -2.6834 -0.056557 -0.35394 -2.6812 0.022809 -0.34817 -2.6647 0.10152 -0.345 -2.6734 0.10207 -0.35688 -2.6679 0.10168 -0.3537 -2.6766 0.10223 -0.3491 -2.6597 0.18072 -0.34643 -2.667 0.18141 -0.35644 -2.6624 0.1809 -0.35377 -2.6697 0.18159 -0.35034 -2.6525 0.25997 -0.34818 -2.6584 0.26071 -0.3563 -2.6547 0.26015 -0.35414 -2.6606 0.26089 -0.35189 -2.643 0.3393 -0.35023 -2.6476 0.33994 -0.35648 -2.6447 0.33946 -0.35482 -2.6492 0.34009 -0.35087 -2.6756 -0.056698 -0.35335 -2.6461 0.3397 -4.1705 -0.79207 -0.02025 -4.1618 -0.79688 -0.019692 -4.1663 -0.79537 0.048483 -4.1739 -0.79114 0.048126 -4.1579 -0.7878 -0.019547 -4.1628 -0.78738 0.04864 -4.1665 -0.78299 -0.020105 -4.1704 -0.78314 0.048283 -4.1693 -0.79511 0.11674 -4.1759 -0.79145 0.11666 -4.1663 -0.78821 0.11692 -4.1728 -0.78455 0.11684 -4.1709 -0.7961 0.18516 -4.1764 -0.79302 0.18529 -4.1683 -0.79029 0.18536 -4.1739 -0.78721 0.18549 -4.171 -0.79834 0.25375 -4.1755 -0.79584 0.25401 -4.1689 -0.79362 0.25395 -4.1735 -0.79112 0.25421 -4.1698 -0.80183 0.32255 -4.1732 -0.7999 0.32281 -4.1681 -0.7982 0.32272 -4.1716 -0.79628 0.32298 -4.1642 -0.78994 -0.019898 -4.1707 -0.79905 0.32277</float_array><technique_common><accessor source="#weeds_+00-02_solid-pos-a" count="1012" stride="3"><param name="X" type="float"/><param name="Y" type="float"/><param name="Z" type="float"/></accessor></technique_common></source>
        <source id="weeds_+00-02_solid-nrm"><float_array id="weeds_+00-02_solid-nrm-a" count="3036">-0.807 0.079 0.586 -0.087 -0.836 0.542 -0.118 -0.993 -0.021 -0.992 0.119 0.037 0.822 -0.109 0.559 0.994 -0.109 -0.011 0.103 0.808 0.58 0.112 0.993 0.046 -0.119 -0.992 -0.044 -0.992 0.119 0.052 0.994 -0.109 -0.026 0.113 0.991 0.069 -0.121 -0.99 -0.067 -0.991 0.118 0.067 0.993 -0.109 -0.041 0.115 0.989 0.092 -0.123 -0.988 -0.09 -0.99 0.117 0.082 0.992 -0.109 -0.056 0.118 0.986 0.115 -0.139 -0.759 -0.636 -0.859 0.169 -0.482 0.79 -0.018 -0.613 0.066 0.896 -0.438 0.014 -0.026 1 -0.066 0.137 -0.988 -0.331 0.916 -0.228 -0.381 -0.482 0.789 -0.039 -0.686 0.727 -0.494 0.855 0.158 0.723 -0.458 -0.517 0.571 -0.285 -0.77 0.4 -0.914 0.071 -0.142 0.493 0.859 -0.273 0.62 -0.735 0.323 -0.792 -0.518 0.317 0.106 0.943 -0.603 0.703 -0.377 -0.246 0.524 0.816 -0.642 -0.67 -0.372 -0.724 -0.596 -0.348 -0.186 0.357 0.915 0.899 0.139 -0.415 0.884 0.284 -0.371 -0.824 -0.431 -0.369 0.037 -0.131 0.991 0.812 0.5 -0.302 -0.84 -0.236 -0.488 0.171 -0.424 0.89 0.684 0.623 -0.38 -0.391 0.915 -0.096 -0.192 -0.734 -0.651 0.046 -0.9 -0.434 -0.376 0.877 -0.3 0.589 -0.223 0.776 0.367 0.061 0.928 0.168 -0.963 0.21 -0.026 0.458 -0.888 -0.179 0.485 0.856 0.103 -0.922 0.373 0.321 0.171 -0.932 -0.425 0.756 0.497 -0.393 0.904 -0.168 -0.229 -0.797 -0.558 0.002 -0.941 -0.339 -0.36 0.862 -0.357 0.628 -0.139 0.765 0.411 0.129 0.902 0.092 -0.964 0.25 0.013 0.444 -0.896 -0.148 0.503 0.852 0.023 -0.938 0.346 0.374 0.177 -0.91 -0.398 0.768 0.502 0.389 0.515 -0.764 -0.454 0.504 0.734 -0.316 0.581 0.75 0.245 0.415 -0.876 0.079 -0.995 0.053 0.046 -0.962 0.27 -0.008 0.797 0.603 -0.177 -0.017 -0.984 0.253 -0.789 0.561 0.053 0.955 0.293 -0.441 -0.24 -0.865 0.404 -0.737 0.542 0.58 0.673 0.46 -0.877 -0.3 0.376 -0.887 -0.378 0.265 0.428 0.525 0.736 0.32 -0.405 -0.856 0.486 -0.115 -0.866 -0.9 -0.332 -0.283 0.152 -0.08 0.985 0.827 0.376 -0.419 -0.751 -0.043 -0.659 -0.12 -0.499 0.858 0.844 0.498 -0.196 0.358 0.563 -0.745 -0.887 0.207 0.412 -0.807 0.195 0.558 0.235 0.42 -0.876 0.546 -0.758 0.357 0.57 -0.673 0.472 -0.555 0.447 0.701 -0.162 -0.047 -0.986 0.776 -0.348 0.526 -0.542 0.642 0.542 -0.385 -0.37 -0.846 0.927 -0.252 0.277 0.283 0.467 -0.838 -0.783 0.339 0.521 -0.701 0.355 0.618 0.164 0.341 -0.926 0.515 -0.791 0.331 0.53 -0.723 0.442 -0.491 0.558 0.669 -0.161 -0.034 -0.986 0.705 -0.493 0.51 -0.47 0.713 0.52 -0.35 -0.271 -0.897 0.831 -0.429 0.355 -0.398 -0.64 -0.657 0.635 -0.339 0.695 0.514 -0.441 0.736 -0.299 -0.523 -0.798 -0.225 0.974 0.016 -0.153 0.961 0.23 0.23 -0.726 0.648 0.006 -0.033 -0.999 -0.274 0.774 0.571 0.148 -0.923 0.356 0.234 0.246 -0.941 -0.415 0.695 0.587 -0.359 -0.724 0.589 0.836 0.509 0.205 0.813 0.575 0.087 -0.199 -0.527 0.826 -0.503 0.254 -0.826 -0.612 -0.066 -0.788 0.745 0.484 -0.459 0.002 0.131 0.991 -0.78 -0.573 -0.252 0.592 0.14 -0.794 0.168 0.578 0.799 -0.739 -0.673 -0.02 -0.36 -0.677 -0.642 0.961 0.019 0.274 0.899 0.027 0.436 -0.289 -0.526 -0.8 -0.594 0.68 0.43 -0.581 0.596 0.554 0.72 -0.264 0.642 -0.012 -0.007 -1 -0.714 0.229 0.662 0.721 -0.483 0.498 0.165 0.36 -0.918 -0.893 0.08 0.444 -0.32 -0.578 -0.751 0.902 -0.126 0.414 0.836 -0.15 0.528 -0.243 -0.44 -0.865 -0.574 0.717 0.395 -0.557 0.652 0.515 0.672 -0.393 0.628 -0.011 -0.02 -1 -0.675 0.389 0.627 0.658 -0.571 0.49 0.141 0.253 -0.957 -0.818 0.287 0.499 0.072 -0.576 -0.814 0.728 0.039 0.685 0.704 -0.108 0.702 0.067 -0.4 -0.914 -0.827 0.539 0.161 -0.749 0.537 0.389 0.681 -0.468 0.563 -0.022 0.15 -0.988 -0.683 0.258 0.684 0.75 -0.619 0.232 -0.021 0.468 -0.883 -0.734 0.113 0.67 0.225 -0.852 0.474 0.345 0.863 0.37 0.279 0.926 0.256 0.226 -0.629 0.744 -0.578 0.006 -0.816 -0.461 -0.28 -0.842 0.253 0.904 -0.345 -0.034 -0.08 0.996 -0.26 -0.866 -0.427 0.328 0.595 -0.734 -0.202 0.356 0.912 -0.149 -0.969 -0.197 0.128 -0.582 -0.803 0.748 0.56 0.356 0.699 0.497 0.515 0.076 -0.396 -0.915 -0.868 0.021 0.495 -0.795 -0.049 0.605 0.744 0.15 0.651 -0.051 0.157 -0.986 -0.657 -0.393 0.643 0.879 0.029 0.476 -0.146 0.501 -0.853 -0.72 -0.572 0.394 0.088 -0.462 -0.883 0.792 0.395 0.465 0.759 0.318 0.568 0.053 -0.295 -0.954 -0.881 0.065 0.469 -0.816 0.011 0.578 0.788 0.037 0.614 -0.043 0.149 -0.988 -0.729 -0.256 0.635 0.89 -0.067 0.451 -0.098 0.418 -0.903 -0.783 -0.391 0.483 -0.43 -0.495 -0.755 0.43 -0.499 0.752 0.297 -0.553 0.779 -0.279 -0.414 -0.866 -0.035 0.999 -0.006 0.002 0.975 0.222 -0.01 -0.742 0.671 0.145 -0.061 -0.988 -0.199 0.825 0.528 -0.086 -0.924 0.372 0.415 0.121 -0.902 -0.345 0.788 0.511 -0.611 -0.567 0.552 0.914 0.193 0.358 0.935 0.266 0.236 -0.427 -0.41 0.806 -0.31 0.38 -0.871 -0.483 0.131 -0.866 0.92 0.183 -0.346 -0.117 0.149 0.982 -0.872 -0.28 -0.402 0.715 -0.101 -0.692 0.16 0.512 0.844 -0.905 -0.395 -0.158 -0.401 -0.546 -0.735 0.861 -0.302 0.409 0.785 -0.27 0.557 -0.27 -0.421 -0.866 -0.483 0.813 0.325 -0.505 0.74 0.444 0.528 -0.461 0.713 0.132 -0.031 -0.991 -0.714 0.465 0.524 0.503 -0.652 0.568 0.368 0.255 -0.894 -0.877 0.386 0.287 -0.32 -0.461 -0.828 0.75 -0.403 0.524 0.671 -0.401 0.624 -0.196 -0.354 -0.915 -0.454 0.84 0.296 -0.467 0.782 0.412 0.461 -0.558 0.69 0.13 -0.042 -0.991 -0.638 0.589 0.496 0.433 -0.712 0.553 0.326 0.161 -0.931 -0.766 0.539 0.349 -0.442 -0.657 0.61 0.643 -0.424 0.638 0.838 -0.546 0.01 -0.55 -0.835 0.015 0.406 0.661 0.631 0.532 0.847 0.014 -0.677 0.425 0.601 -0.844 0.537 0.018 0.836 -0.547 -0.042 -0.55 -0.834 0.041 0.534 0.846 -0.011 -0.84 0.537 0.07 0.831 -0.548 -0.093 -0.55 -0.833 0.067 0.535 0.844 -0.036 -0.834 0.538 0.121 0.824 -0.549 -0.142 -0.548 -0.831 0.092 0.536 0.842 -0.061 -0.825 0.54 0.171 0.551 -0.417 -0.723 -0.535 -0.662 -0.525 0.333 0.675 -0.658 -0.766 0.457 -0.453 -0.03 0.002 1 -0.161 0.021 -0.987 -0.195 0.727 0.658 -0.752 -0.296 0.589 -0.962 -0.272 0.017 -0.263 0.953 0.151 0.261 -0.857 0.444 0.283 -0.951 -0.127 0.822 0.161 0.546 0.96 0.279 0.01 -0.964 -0.264 -0.028 -0.261 0.95 0.173 0.281 -0.948 -0.148 0.961 0.27 0.055 -0.965 -0.253 -0.072 -0.26 0.946 0.194 0.278 -0.946 -0.169 0.961 0.258 0.099 -0.964 -0.24 -0.115 -0.259 0.942 0.215 0.276 -0.942 -0.19 0.959 0.244 0.142 -0.748 -0.05 -0.662 -0.17 0.927 -0.335 0.281 -0.655 -0.701 0.849 0.34 -0.406 0.06 -0.118 0.991 0.1 0.263 -0.959 -0.362 0.889 -0.28 -0.246 -0.391 0.887 0.061 -0.587 0.807 -0.474 0.863 0.176 0.628 -0.475 -0.616 0.429 -0.312 -0.848 0.412 -0.906 0.097 -0.019 0.504 0.864 -0.352 0.526 -0.774 0.243 -0.802 -0.545 0.405 0.153 0.902 -0.644 0.659 -0.389 -0.12 0.534 0.837 -0.68 -0.679 -0.277 -0.757 -0.605 -0.246 -0.05 0.378 0.924 0.813 0.107 -0.572 0.807 0.251 -0.534 -0.855 -0.444 -0.267 0.158 -0.055 0.986 0.75 0.467 -0.469 -0.877 -0.259 -0.405 0.269 -0.325 0.907 0.61 0.577 -0.543 -0.406 0.905 -0.126 -0.27 -0.739 -0.617 -0.015 -0.909 -0.416 -0.414 0.841 -0.349 0.646 -0.155 0.747 0.449 0.113 0.886 0.198 -0.938 0.284 -0.139 0.356 -0.924 -0.052 0.497 0.866 0.154 -0.873 0.464 0.168 0.095 -0.981 -0.346 0.767 0.54 -0.417 0.885 -0.205 -0.297 -0.803 -0.516 -0.045 -0.951 -0.305 -0.404 0.817 -0.411 0.682 -0.078 0.727 0.488 0.173 0.856 0.127 -0.933 0.338 -0.104 0.342 -0.934 -0.025 0.513 0.858 0.072 -0.892 0.446 0.219 0.103 -0.97 -0.318 0.779 0.54 -0.849 -0.17 0.5 0.089 -0.871 0.483 0.145 -0.986 -0.077 -0.989 -0.139 -0.059 0.794 0.057 0.606 0.988 0.133 0.083 -0.146 0.756 0.638 -0.139 0.985 0.102 0.144 -0.987 -0.069 -0.988 -0.137 -0.075 0.986 0.131 0.099 -0.138 0.986 0.095 0.143 -0.988 -0.061 -0.987 -0.135 -0.091 0.985 0.129 0.115 -0.137 0.987 0.087 0.141 -0.989 -0.054 -0.985 -0.133 -0.107 0.983 0.128 0.131 -0.136 0.988 0.079 0.186 -0.785 -0.59 -0.763 -0.069 -0.642 0.894 0.149 -0.423 -0.045 0.872 -0.488 -0.051 -0.101 0.994 0.13 0.076 -0.989 -0.853 0.123 0.508 -0.146 -0.823 0.549 -0.147 -0.989 0.002 -0.988 0.149 -0.029 0.815 -0.132 0.565 0.987 -0.153 0.052 0.104 0.813 0.572 0.155 0.988 0.023 -0.148 -0.989 0.01 -0.988 0.15 -0.044 0.986 -0.153 0.067 0.155 0.988 0.015 -0.15 -0.989 0.018 -0.987 0.15 -0.059 0.985 -0.153 0.082 0.156 0.988 0.007 -0.151 -0.988 0.026 -0.986 0.15 -0.075 0.983 -0.153 0.098 0.157 0.988 -0.001 -0.07 -0.849 -0.523 -0.792 0.11 -0.601 0.89 -0.149 -0.431 0.189 0.81 -0.555 -0.037 -0.008 0.999 0.109 -0.039 -0.993 -0.648 0.699 -0.304 -0.186 -0.516 0.836 0.199 -0.575 0.793 -0.786 0.607 0.115 0.84 -0.162 -0.519 0.626 -0.086 -0.775 0.717 -0.684 0.136 -0.301 0.453 0.839 -0.47 0.391 -0.791 0.59 -0.642 -0.49 0.253 0.293 0.922 -0.824 0.367 -0.431 -0.41 0.438 0.8 -0.362 -0.881 -0.305 -0.461 -0.841 -0.282 -0.293 0.316 0.902 0.773 0.447 -0.45 0.708 0.571 -0.415 -0.604 -0.733 -0.311 0.078 -0.023 0.997 0.571 0.738 -0.361 -0.685 -0.578 -0.443 0.301 -0.239 0.923 0.415 0.793 -0.446 -0.708 0.687 -0.163 0.074 -0.794 -0.604 0.361 -0.849 -0.385 -0.675 0.636 -0.374 0.617 0.098 0.78 0.314 0.272 0.91 0.505 -0.812 0.293 -0.18 0.327 -0.928 -0.332 0.432 0.838 0.424 -0.78 0.46 0.235 0.205 -0.95 -0.675 0.565 0.475 -0.705 0.668 -0.238 0.061 -0.861 -0.505 0.334 -0.899 -0.282 -0.652 0.622 -0.433 0.623 0.188 0.759 0.331 0.347 0.877 0.43 -0.838 0.336 -0.139 0.329 -0.934 -0.31 0.46 0.832 0.352 -0.829 0.435 0.281 0.234 -0.931 -0.653 0.588 0.478 -0.627 -0.245 -0.739 0.331 -0.68 0.654 0.187 -0.7 0.689 -0.473 -0.191 -0.86 0.289 0.951 0.112 0.338 0.88 0.335 -0.177 -0.782 0.597 0.016 0.049 -0.999 0.129 0.742 0.658 -0.34 -0.896 0.287 0.331 0.14 -0.933 -0.025 0.749 0.662 -0.687 -0.452 0.568 0.964 -0.085 0.253 0.991 -0.005 0.135 -0.442 -0.387 0.809 -0.262 0.549 -0.794 -0.503 0.355 -0.788 0.89 0.005 -0.456 0.036 0.025 0.999 -0.95 0.001 -0.312 0.571 -0.161 -0.805 0.391 0.31 0.866 -0.989 -0.132 -0.074 -0.615 -0.301 -0.729 0.787 -0.556 0.266 0.733 -0.526 0.431 -0.467 -0.199 -0.862 -0.171 0.847 0.503 -0.203 0.759 0.618 0.436 -0.665 0.606 0.014 0.08 -0.997 -0.484 0.532 0.695 0.339 -0.829 0.444 0.33 0.271 -0.904 -0.7 0.537 0.471 -0.522 -0.229 -0.822 0.657 -0.644 0.391 0.588 -0.633 0.503 -0.382 -0.148 -0.912 -0.137 0.871 0.472 -0.156 0.796 0.584 0.338 -0.74 0.582 0.008 0.07 -0.998 -0.375 0.639 0.672 0.249 -0.867 0.431 0.259 0.2 -0.945 -0.537 0.65 0.538 0.62 -0.009 -0.785 -0.01 0.816 0.579 0.137 0.787 0.602 0.444 -0.006 -0.896 -0.562 -0.805 0.19 -0.567 -0.725 0.392 0.498 0.725 0.476 -0.15 -0.063 -0.987 -0.303 -0.68 0.668 0.641 0.75 0.163 -0.491 -0.029 -0.871 -0.16 -0.741 0.653 0.879 0.199 0.433 -0.836 0.453 0.309 -0.899 0.383 0.211 0.666 0.239 0.707 -0.026 -0.681 -0.732 0.277 -0.579 -0.767 -0.883 0.33 -0.334 0.07 0.005 0.998 0.853 -0.369 -0.37 -0.585 0.379 -0.717 -0.403 -0.154 0.902 0.954 -0.248 -0.167 0.627 0.054 -0.777 -0.499 0.825 0.264 -0.452 0.791 0.412 0.44 0.005 -0.898 -0.071 -0.871 0.487 -0.001 -0.808 0.589 -0.118 0.832 0.541 -0.159 -0.097 -0.982 0.345 -0.701 0.624 0.01 0.931 0.364 -0.533 -0.168 -0.829 0.506 -0.769 0.391 0.507 0.015 -0.862 -0.344 0.868 0.358 -0.277 0.845 0.457 0.334 -0.015 -0.942 -0.112 -0.879 0.464 -0.06 -0.824 0.563 -0.004 0.864 0.503 -0.15 -0.089 -0.985 0.204 -0.76 0.617 0.103 0.934 0.342 -0.443 -0.123 -0.888 0.329 -0.817 0.473 0.354 0.739 0.574 -0.687 0.339 0.642 -0.906 0.424 0.004 0.428 0.904 -0.005 -0.316 -0.715 0.624 -0.41 -0.912 0.033 0.724 -0.312 0.615 0.91 -0.413 0.026 -0.904 0.425 -0.049 0.428 0.904 0.019 -0.411 -0.911 0.009 0.907 -0.413 0.079 -0.899 0.426 -0.102 0.428 0.903 0.044 -0.413 -0.911 -0.015 0.9 -0.415 0.131 -0.891 0.428 -0.153 0.427 0.902 0.068 -0.414 -0.91 -0.039 0.891 -0.417 0.181 -0.595 0.323 -0.736 0.435 0.735 -0.52 -0.25 -0.742 -0.622 0.818 -0.35 -0.457 0.032 0.02 0.999 0.158 -0.009 -0.987 -0.495 -0.252 -0.832 0.452 -0.715 0.533 0.342 -0.74 0.579 -0.345 -0.169 -0.923 0.029 0.948 0.315 0.036 0.879 0.476 0.044 -0.856 0.515 0.086 0.112 -0.99 -0.177 0.728 0.662 -0.058 -0.959 0.276 0.36 0.245 -0.9 -0.32 0.728 0.606 -0.502 -0.279 -0.818 0.632 -0.64 0.437 0.542 -0.656 0.526 -0.352 -0.18 -0.919 -0.142 0.905 0.401 -0.149 0.83 0.537 0.248 -0.804 0.54 0.087 0.124 -0.988 -0.386 0.644 0.66 0.158 -0.931 0.328 0.37 0.289 -0.883 -0.547 0.642 0.537 -0.729 -0.582 0.361 0.951 -0.087 0.298 0.974 0.014 0.227 -0.507 -0.548 0.665 -0.226 0.714 -0.662 -0.482 0.473 -0.738 0.943 0.049 -0.328 -0.042 0.002 0.999 -0.956 -0.025 -0.293 0.643 -0.183 -0.744 0.373 0.413 0.831 -0.976 -0.197 -0.094 -0.592 -0.353 -0.724 0.717 -0.579 0.388 0.625 -0.593 0.508 -0.434 -0.244 -0.867 -0.134 0.921 0.366 -0.127 0.843 0.522 0.255 -0.782 0.569 0.094 0.132 -0.987 -0.42 0.599 0.682 0.15 -0.943 0.297 0.456 0.345 -0.82 -0.626 0.598 0.501 -0.615 -0.442 0.653 0.449 -0.561 -0.695 0.245 -0.703 -0.668 -0.471 -0.317 0.823 0.193 0.98 0.042 0.171 0.985 0.008 -0.083 -0.901 -0.426 0.047 -0.109 0.993 0.072 0.963 -0.261 -0.233 -0.892 -0.387 0.38 0.07 0.922 -0.116 0.842 -0.527 -0.522 0.24 -0.819 -0.213 -0.811 0.545 -0.294 -0.745 0.599 -0.37 0.185 -0.91 0.747 0.583 0.319 0.701 0.518 0.49 -0.567 -0.603 0.561 0.077 0.056 -0.995 0.455 0.557 0.695 -0.735 -0.595 0.326 0.336 -0.058 -0.94 0.365 0.668 0.649 -0.546 0.228 -0.806 -0.052 -0.9 0.433 -0.114 -0.84 0.531 -0.382 0.183 -0.906 0.605 0.674 0.423 0.547 0.616 0.566 -0.402 -0.717 0.569 0.086 0.063 -0.994 0.264 0.654 0.708 -0.571 -0.736 0.363 0.374 -0.039 -0.926 0.159 0.786 0.597 -0.875 0.148 0.461 0.557 -0.791 0.254 0.647 -0.743 0.173 -0.667 -0.012 0.745 0.339 0.642 -0.688 0.007 0.675 -0.738 0.617 -0.659 -0.43 0.027 -0.018 0.999 -0.646 0.723 -0.247 0.22 -0.537 -0.814 0.563 -0.052 0.825 -0.784 0.62 -0.023 -0.659 0.245 -0.711 0.042 -0.926 0.375 -0.019 -0.863 0.505 -0.479 0.201 -0.855 0.622 0.682 0.385 0.571 0.61 0.549 -0.378 -0.708 0.596 0.096 0.063 -0.993 0.211 0.647 0.732 -0.588 -0.738 0.331 0.472 -0.069 -0.879 0.076 0.82 0.568 -0.66 0.134 0.74 -0.166 -0.643 -0.748 -0.394 -0.589 -0.705 -0.461 0.096 0.882 0.867 0.498 0.007 0.854 0.52 -0.029 -0.748 -0.503 -0.434 0.003 -0.146 0.989 0.748 0.587 -0.311 -0.838 -0.389 -0.382 0.322 -0.27 0.907 0.511 0.646 -0.567 -0.485 -0.668 0.564 0.653 -0.585 0.481 0.744 -0.654 -0.138 -0.663 -0.748 0.003 0.579 0.55 0.602 0.65 0.759 0.027 -0.559 0.467 0.686 -0.748 0.643 0.164 0.738 -0.649 -0.185 -0.661 -0.75 0.027 0.649 0.761 0.003 -0.74 0.638 0.211 0.728 -0.646 -0.231 -0.658 -0.752 0.05 0.648 0.762 -0.02 -0.729 0.634 0.257 0.716 -0.642 -0.276 -0.654 -0.753 0.073 0.646 0.762 -0.043 -0.716 0.63 0.301 0.424 -0.434 -0.795 -0.691 -0.537 -0.483 0.374 0.71 -0.597 -0.741 0.608 -0.285 0.08 -0.101 0.992 -0.278 0.151 -0.949 0.186 0.779 0.598 -0.798 0.151 0.583 -0.977 0.206 0.045 0.21 0.977 0.041 -0.162 -0.827 0.538 -0.213 -0.977 -0.016 0.821 -0.198 0.536 0.976 -0.215 -0.02 -0.977 0.207 0.053 0.21 0.977 0.025 -0.213 -0.977 0 0.976 -0.215 -0.028 -0.976 0.207 0.06 0.21 0.978 0.008 -0.212 -0.977 0.017 0.976 -0.215 -0.036 -0.976 0.208 0.068 0.209 0.978 -0.008 -0.211 -0.977 0.034 0.976 -0.215 -0.044 -0.857 0.166 -0.489 0.137 0.807 -0.575 -0.214 -0.825 -0.522 0.783 -0.19 -0.592 0.021 -0.041 0.999 -0.071 -0.022 -0.997 -0.595 -0.536 0.598 0.518 -0.592 0.618 0.675 -0.737 0.026 -0.738 -0.675 -0.023 0.565 0.52 0.641 0.739 0.671 0.051 -0.547 0.577 0.606 -0.671 0.742 0.002 0.675 -0.737 0.035 -0.737 -0.674 -0.042 0.738 0.671 0.07 -0.67 0.742 -0.007 0.674 -0.738 0.044 -0.737 -0.674 -0.06 0.737 0.67 0.089 -0.67 0.742 -0.016 0.672 -0.738 0.053 -0.736 -0.673 -0.079 0.736 0.669 0.108 -0.669 0.743 -0.025 0.596 -0.579 -0.556 -0.529 -0.514 -0.676 0.647 0.559 -0.519 -0.484 0.614 -0.624 -0.024 -0.012 1 0.092 0.032 -0.995 -0.594 -0.555 0.583 0.582 -0.541 0.607 0.709 -0.703 0.062 -0.707 -0.705 0.058 0.599 0.631 0.493 0.709 0.704 -0.034 -0.578 0.62 0.531 -0.703 0.71 -0.038 0.708 -0.702 0.07 -0.707 -0.706 0.043 0.709 0.705 -0.019 -0.703 0.71 -0.046 0.708 -0.702 0.079 -0.707 -0.707 0.027 0.709 0.706 -0.004 -0.703 0.71 -0.054 0.706 -0.702 0.087 -0.707 -0.707 0.012 0.708 0.706 0.011 -0.702 0.709 -0.061 0.628 -0.609 -0.484 -0.569 -0.629 -0.53 0.638 0.578 -0.508 -0.546 0.568 -0.616 0.004 0.069 0.998 0.076 -0.039 -0.996 -0.903 0.338 -0.265 0.105 -0.551 0.828 0.48 -0.435 0.762 -0.972 0.198 0.129 0.831 0.205 -0.517 0.602 0.196 -0.774 0.95 -0.293 0.106 -0.484 0.244 0.841 -0.627 0.171 -0.76 0.821 -0.293 -0.49 0.1 0.329 0.939 -0.915 0.003 -0.403 -0.572 0.189 0.798 0.112 -0.93 -0.349 -0.002 -0.945 -0.327 -0.409 0.129 0.903 0.497 0.739 -0.455 0.373 0.829 -0.416 -0.199 -0.913 -0.356 0.1 -0.019 0.995 0.152 0.923 -0.354 -0.36 -0.796 -0.487 0.408 -0.113 0.906 -0.029 0.9 -0.436 -0.945 0.3 -0.131 0.455 -0.633 -0.626 0.727 -0.558 -0.4 -0.9 0.278 -0.334 0.532 0.309 0.788 0.167 0.336 0.927 0.837 -0.485 0.252 -0.343 0.237 -0.909 -0.501 0.213 0.839 0.76 -0.499 0.415 0.097 0.3 -0.949 -0.858 0.197 0.473 -0.936 0.289 -0.203 0.479 -0.699 -0.53 0.73 -0.613 -0.302 -0.877 0.278 -0.392 0.495 0.392 0.776 0.144 0.411 0.9 0.789 -0.54 0.294 -0.307 0.255 -0.917 -0.495 0.246 0.834 0.724 -0.569 0.391 0.126 0.344 -0.931 -0.85 0.225 0.477 0.634 -0.391 0.668 0.289 0.715 0.636 0.447 0.888 0.105 0.879 -0.459 0.125 -0.804 0.363 0.472 -0.881 0.462 -0.099 -0.456 -0.743 0.489 -0.457 -0.885 -0.081 0.446 0.888 0.113 0.882 -0.459 0.108 -0.883 0.461 -0.082 -0.456 -0.885 -0.089 0.446 0.887 0.121 0.884 -0.459 0.091 -0.885 0.461 -0.065 -0.456 -0.885 -0.097 0.446 0.886 0.129 0.886 -0.458 0.074 -0.887 0.46 -0.049 -0.455 -0.884 -0.105 0.43 0.786 -0.444 0.794 -0.332 -0.509 -0.679 0.429 -0.595 -0.321 -0.691 -0.648 -0.147 -0.025 0.989 0.1 0.089 -0.991 0.055 0.715 -0.696 -0.714 0.028 0.7 -0.654 0.164 0.739 0.014 0.562 -0.827 0.672 -0.74 0.023 0.604 -0.759 0.245 -0.541 0.531 0.652 -0.039 0.008 -0.999 0.623 -0.528 0.577 -0.571 0.739 0.357 -0.118 -0.325 -0.939 0.709 -0.398 0.583 0.002 0.805 0.594 -0.539 -0.806 0.244 -0.492 -0.862 0.123 -0.049 0.553 0.832 0.556 -0.015 -0.831 0.511 0.301 -0.805 -0.478 -0.756 -0.447 0.078 -0.094 0.993 0.457 0.84 -0.293 -0.492 -0.384 -0.781 0.132 -0.552 0.823 0.378 0.924 -0.053 0.001 0.732 -0.681 -0.858 -0.417 0.301 -0.795 -0.395 0.461 0.004 0.56 -0.828 0.854 -0.31 0.417 0.806 -0.243 0.54 -0.756 -0.07 0.651 -0.011 -0.006 -1 0.761 0.12 0.638 -0.857 0.108 0.504 -0.001 -0.393 -0.92 0.852 0.316 0.417 0.009 0.621 -0.783 -0.862 -0.265 0.433 -0.811 -0.216 0.543 0.001 0.463 -0.886 0.854 -0.35 0.385 0.81 -0.302 0.502 -0.772 0.057 0.633 -0.017 0.005 -1 0.795 -0.031 0.605 -0.844 0.208 0.495 -0.028 -0.291 -0.956 0.874 0.112 0.473 0.771 0.052 0.635 -0.039 0.846 0.532 -0.007 0.997 -0.077 0.997 0.007 0.074 -0.828 0.026 0.56 -0.999 -0.027 -0.045 -0.017 -0.769 0.639 0.016 -0.995 0.104 -0.002 0.992 -0.124 0.995 0.009 0.098 -0.997 -0.027 -0.068 0.01 -0.989 0.151 0.004 0.985 -0.17 0.992 0.011 0.123 -0.995 -0.027 -0.092 0.003 -0.98 0.197 0.012 0.977 -0.215 0.989 0.013 0.146 -0.993 -0.028 -0.116 -0.006 -0.97 0.241 0.089 0.655 -0.751 0.888 -0.127 -0.441 -0.724 -0.162 -0.671 0.067 -0.938 -0.339 -0.048 0.066 0.997 0.137 -0.249 -0.959 0.739 -0.331 0.587 0.342 0.747 0.57 0.423 0.906 -0.015 0.905 -0.424 0.027 -0.737 0.351 0.577 -0.91 0.415 -0 -0.34 -0.727 0.596 -0.417 -0.908 0.041 0.424 0.905 -0.039 0.905 -0.424 0.042 -0.91 0.415 -0.016 -0.417 -0.906 0.066 0.425 0.903 -0.063 0.904 -0.423 0.058 -0.909 0.415 -0.031 -0.418 -0.904 0.09 0.426 0.901 -0.087 0.904 -0.422 0.073 -0.909 0.415 -0.047 -0.42 -0.901 0.114 0.358 0.667 -0.653 0.756 -0.42 -0.502 -0.741 0.271 -0.615 -0.341 -0.816 -0.466 0.001 0.017 1 0.015 -0.133 -0.991 -0.828 -0.264 0.495 0.226 -0.768 0.599 0.315 -0.949 0.03 -0.948 -0.315 -0.036 0.763 0.274 0.585 0.944 0.324 0.059 -0.294 0.78 0.552 -0.323 0.946 -0.004 0.315 -0.949 0.006 -0.949 -0.315 -0.022 0.945 0.324 0.045 -0.323 0.946 0.02 0.315 -0.949 -0.018 -0.949 -0.315 -0.008 0.946 0.323 0.031 -0.322 0.946 0.044 0.314 -0.949 -0.042 -0.949 -0.315 0.006 0.946 0.323 0.018 -0.32 0.945 0.067 0.24 -0.752 -0.614 -0.823 -0.237 -0.516 0.793 0.307 -0.527 -0.284 0.818 -0.5 -0.059 0.01 0.998 -0.04 0.063 -0.997</float_array><technique_common><accessor source="#weeds_+00-02_solid-nrm-a" count="1012" stride="3"><param name="X" type="float"/><param name="Y" type="float"/><param name="Z" type="float"/></accessor></technique_common></source>
        <vertices id="weeds_+00-02_solid-vtx"><input semantic="POSITION" source="#weeds_+00-02_solid-pos"/></vertices>
        <triangles count="1644" material="MAT_WEED_STEM-mat"><input semantic="VERTEX" source="#weeds_+00-02_solid-vtx" offset="0"/><input semantic="NORMAL" source="#weeds_+00-02_solid-nrm" offset="1"/><p>0 0 1 1 2 2 0 0 2 2 3 3 1 1 4 4 5 5 1 1 5 5 2 2 4 4 6 6 7 7 4 4 7 7 5 5 6 6 0 0 3 3 6 6 3 3 7 7 3 3 2 2 8 8 3 3 8 8 9 9 2 2 5 5 10 10 2 2 10 10 8 8 5 5 7 7 11 11 5 5 11 11 10 10 7 7 3 3 9 9 7 7 9 9 11 11 9 9 8 8 12 12 9 9 12 12 13 13 8 8 10 10 14 14 8 8 14 14 12 12 10 10 11 11 15 15 10 10 15 15 14 14 11 11 9 9 13 13 11 11 13 13 15 15 13 13 12 12 16 16 13 13 16 16 17 17 12 12 14 14 18 18 12 12 18 18 16 16 14 14 15 15 19 19 14 14 19 19 18 18 15 15 13 13 17 17 15 15 17 17 19 19 17 17 16 16 20 20 17 17 20 20 21 21 16 16 18 18 22 22 16 16 22 22 20 20 18 18 19 19 23 23 18 18 23 23 22 22 19 19 17 17 21 21 19 19 21 21 23 23 0 0 1 1 24 24 1 1 4 4 24 24 4 4 6 6 24 24 6 6 0 0 24 24 20 20 21 21 25 25 22 22 20 20 25 25 23 23 22 22 25 25 21 21 23 23 25 25 26 26 27 27 28 28 26 26 28 28 29 29 27 27 30 30 31 31 27 27 31 31 28 28 30 30 26 26 29 29 30 30 29 29 31 31 29 29 28 28 32 32 29 29 32 32 33 33 28 28 31 31 34 34 28 28 34 34 32 32 31 31 29 29 33 33 31 31 33 33 34 34 33 33 32 32 35 35 33 33 35 35 36 36 32 32 34 34 37 37 32 32 37 37 35 35 34 34 33 33 36 36 34 34 36 36 37 37 38 38 39 39 40 40 38 38 40 40 41 41 39 39 42 42 43 43 39 39 43 43 40 40 42 42 38 38 41 41 42 42 41 41 43 43 41 41 40 40 44 44 41 41 44 44 45 45 40 40 43 43 46 46 40 40 46 46 44 44 43 43 41 41 45 45 43 43 45 45 46 46 45 45 44 44 47 47 45 45 47 47 48 48 44 44 46 46 49 49 44 44 49 49 47 47 46 46 45 45 48 48 46 46 48 48 49 49 50 50 51 51 52 52 50 50 52 52 53 53 51 51 54 54 55 55 51 51 55 55 52 52 54 54 50 50 53 53 54 54 53 53 55 55 53 53 52 52 56 56 53 53 56 56 57 57 52 52 55 55 58 58 52 52 58 58 56 56 55 55 53 53 57 57 55 55 57 57 58 58 57 57 56 56 59 59 57 57 59 59 60 60 56 56 58 58 61 61 56 56 61 61 59 59 58 58 57 57 60 60 58 58 60 60 61 61 62 62 63 63 64 64 62 62 64 64 65 65 63 63 66 66 67 67 63 63 67 67 64 64 66 66 62 62 65 65 66 66 65 65 67 67 65 65 64 64 68 68 65 65 68 68 69 69 64 64 67 67 70 70 64 64 70 70 68 68 67 67 65 65 69 69 67 67 69 69 70 70 69 69 68 68 71 71 69 69 71 71 72 72 68 68 70 70 73 73 68 68 73 73 71 71 70 70 69 69 72 72 70 70 72 72 73 73 74 74 75 75 76 76 74 74 76 76 77 77 75 75 78 78 79 79 75 75 79 79 76 76 78 78 74 74 77 77 78 78 77 77 79 79 77 77 76 76 80 80 77 77 80 80 81 81 76 76 79 79 82 82 76 76 82 82 80 80 79 79 77 77 81 81 79 79 81 81 82 82 81 81 80 80 83 83 81 81 83 83 84 84 80 80 82 82 85 85 80 80 85 85 83 83 82 82 81 81 84 84 82 82 84 84 85 85 86 86 87 87 88 88 86 86 88 88 89 89 87 87 90 90 91 91 87 87 91 91 88 88 90 90 86 86 89 89 90 90 89 89 91 91 89 89 88 88 92 92 89 89 92 92 93 93 88 88 91 91 94 94 88 88 94 94 92 92 91 91 89 89 93 93 91 91 93 93 94 94 93 93 92 92 95 95 93 93 95 95 96 96 92 92 94 94 97 97 92 92 97 97 95 95 94 94 93 93 96 96 94 94 96 96 97 97 98 98 99 99 100 100 98 98 100 100 101 101 99 99 102 102 103 103 99 99 103 103 100 100 102 102 98 98 101 101 102 102 101 101 103 103 101 101 100 100 104 104 101 101 104 104 105 105 100 100 103 103 106 106 100 100 106 106 104 104 103 103 101 101 105 105 103 103 105 105 106 106 105 105 104 104 107 107 105 105 107 107 108 108 104 104 106 106 109 109 104 104 109 109 107 107 106 106 105 105 108 108 106 106 108 108 109 109 110 110 111 111 112 112 110 110 112 112 113 113 111 111 114 114 115 115 111 111 115 115 112 112 114 114 110 110 113 113 114 114 113 113 115 115 113 113 112 112 116 116 113 113 116 116 117 117 112 112 115 115 118 118 112 112 118 118 116 116 115 115 113 113 117 117 115 115 117 117 118 118 117 117 116 116 119 119 117 117 119 119 120 120 116 116 118 118 121 121 116 116 121 121 119 119 118 118 117 117 120 120 118 118 120 120 121 121 122 122 123 123 124 124 122 122 124 124 125 125 123 123 126 126 127 127 123 123 127 127 124 124 126 126 122 122 125 125 126 126 125 125 127 127 125 125 124 124 128 128 125 125 128 128 129 129 124 124 127 127 130 130 124 124 130 130 128 128 127 127 125 125 129 129 127 127 129 129 130 130 129 129 128 128 131 131 129 129 131 131 132 132 128 128 130 130 133 133 128 128 133 133 131 131 130 130 129 129 132 132 130 130 132 132 133 133 134 134 135 135 136 136 134 134 136 136 137 137 135 135 138 138 139 139 135 135 139 139 136 136 138 138 134 134 137 137 138 138 137 137 139 139 137 137 136 136 140 140 137 137 140 140 141 141 136 136 139 139 142 142 136 136 142 142 140 140 139 139 137 137 141 141 139 139 141 141 142 142 141 141 140 140 143 143 141 141 143 143 144 144 140 140 142 142 145 145 140 140 145 145 143 143 142 142 141 141 144 144 142 142 144 144 145 145 146 146 147 147 148 148 146 146 148 148 149 149 147 147 150 150 151 151 147 147 151 151 148 148 150 150 146 146 149 149 150 150 149 149 151 151 149 149 148 148 152 152 149 149 152 152 153 153 148 148 151 151 154 154 148 148 154 154 152 152 151 151 149 149 153 153 151 151 153 153 154 154 153 153 152 152 155 155 153 153 155 155 156 156 152 152 154 154 157 157 152 152 157 157 155 155 154 154 153 153 156 156 154 154 156 156 157 157 158 158 159 159 160 160 158 158 160 160 161 161 159 159 162 162 163 163 159 159 163 163 160 160 162 162 158 158 161 161 162 162 161 161 163 163 161 161 160 160 164 164 161 161 164 164 165 165 160 160 163 163 166 166 160 160 166 166 164 164 163 163 161 161 165 165 163 163 165 165 166 166 165 165 164 164 167 167 165 165 167 167 168 168 164 164 166 166 169 169 164 164 169 169 167 167 166 166 165 165 168 168 166 166 168 168 169 169 170 170 171 171 172 172 170 170 172 172 173 173 171 171 174 174 175 175 171 171 175 175 172 172 174 174 170 170 173 173 174 174 173 173 175 175 173 173 172 172 176 176 173 173 176 176 177 177 172 172 175 175 178 178 172 172 178 178 176 176 175 175 173 173 177 177 175 175 177 177 178 178 177 177 176 176 179 179 177 177 179 179 180 180 176 176 178 178 181 181 176 176 181 181 179 179 178 178 177 177 180 180 178 178 180 180 181 181 182 182 183 183 184 184 182 182 184 184 185 185 183 183 186 186 187 187 183 183 187 187 184 184 186 186 182 182 185 185 186 186 185 185 187 187 185 185 184 184 188 188 185 185 188 188 189 189 184 184 187 187 190 190 184 184 190 190 188 188 187 187 185 185 189 189 187 187 189 189 190 190 189 189 188 188 191 191 189 189 191 191 192 192 188 188 190 190 193 193 188 188 193 193 191 191 190 190 189 189 192 192 190 190 192 192 193 193 194 194 195 195 196 196 194 194 196 196 197 197 195 195 198 198 199 199 195 195 199 199 196 196 198 198 194 194 197 197 198 198 197 197 199 199 197 197 196 196 200 200 197 197 200 200 201 201 196 196 199 199 202 202 196 196 202 202 200 200 199 199 197 197 201 201 199 199 201 201 202 202 201 201 200 200 203 203 201 201 203 203 204 204 200 200 202 202 205 205 200 200 205 205 203 203 202 202 201 201 204 204 202 202 204 204 205 205 206 206 207 207 208 208 206 206 208 208 209 209 207 207 210 210 211 211 207 207 211 211 208 208 210 210 206 206 209 209 210 210 209 209 211 211 209 209 208 208 212 212 209 209 212 212 213 213 208 208 211 211 214 214 208 208 214 214 212 212 211 211 209 209 213 213 211 211 213 213 214 214 213 213 212 212 215 215 213 213 215 215 216 216 212 212 214 214 217 217 212 212 217 217 215 215 214 214 213 213 216 216 214 214 216 216 217 217 218 218 219 219 220 220 218 218 220 220 221 221 219 219 222 222 223 223 219 219 223 223 220 220 222 222 218 218 221 221 222 222 221 221 223 223 221 221 220 220 224 224 221 221 224 224 225 225 220 220 223 223 226 226 220 220 226 226 224 224 223 223 221 221 225 225 223 223 225 225 226 226 225 225 224 224 227 227 225 225 227 227 228 228 224 224 226 226 229 229 224 224 229 229 227 227 226 226 225 225 228 228 226 226 228 228 229 229 230 230 231 231 232 232 230 230 232 232 233 233 231 231 234 234 235 235 231 231 235 235 232 232 234 234 230 230 233 233 234 234 233 233 235 235 233 233 232 232 236 236 233 233 236 236 237 237 232 232 235 235 238 238 232 232 238 238 236 236 235 235 233 233 237 237 235 235 237 237 238 238 237 237 236 236 239 239 237 237 239 239 240 240 236 236 238 238 241 241 236 236 241 241 239 239 238 238 237 237 240 240 238 238 240 240 241 241 242 242 243 243 244 244 242 242 244 244 245 245 243 243 246 246 247 247 243 243 247 247 244 244 246 246 242 242 245 245 246 246 245 245 247 247 245 245 244 244 248 248 245 245 248 248 249 249 244 244 247 247 250 250 244 244 250 250 248 248 247 247 245 245 249 249 247 247 249 249 250 250 249 249 248 248 251 251 249 249 251 251 252 252 248 248 250 250 253 253 248 248 253 253 251 251 250 250 249 249 252 252 250 250 252 252 253 253 254 254 255 255 256 256 254 254 256 256 257 257 255 255 258 258 259 259 255 255 259 259 256 256 258 258 254 254 257 257 258 258 257 257 259 259 257 257 256 256 260 260 257 257 260 260 261 261 256 256 259 259 262 262 256 256 262 262 260 260 259 259 257 257 261 261 259 259 261 261 262 262 261 261 260 260 263 263 261 261 263 263 264 264 260 260 262 262 265 265 260 260 265 265 263 263 262 262 261 261 264 264 262 262 264 264 265 265 266 266 267 267 268 268 266 266 268 268 269 269 267 267 270 270 271 271 267 267 271 271 268 268 270 270 272 272 273 273 270 270 273 273 271 271 272 272 266 266 269 269 272 272 269 269 273 273 269 269 268 268 274 274 269 269 274 274 275 275 268 268 271 271 276 276 268 268 276 276 274 274 271 271 273 273 277 277 271 271 277 277 276 276 273 273 269 269 275 275 273 273 275 275 277 277 275 275 274 274 278 278 275 275 278 278 279 279 274 274 276 276 280 280 274 274 280 280 278 278 276 276 277 277 281 281 276 276 281 281 280 280 277 277 275 275 279 279 277 277 279 279 281 281 279 279 278 278 282 282 279 279 282 282 283 283 278 278 280 280 284 284 278 278 284 284 282 282 280 280 281 281 285 285 280 280 285 285 284 284 281 281 279 279 283 283 281 281 283 283 285 285 283 283 282 282 286 286 283 283 286 286 287 287 282 282 284 284 288 288 282 282 288 288 286 286 284 284 285 285 289 289 284 284 289 289 288 288 285 285 283 283 287 287 285 285 287 287 289 289 266 266 267 267 290 290 267 267 270 270 290 290 270 270 272 272 290 290 272 272 266 266 290 290 286 286 287 287 291 291 288 288 286 286 291 291 289 289 288 288 291 291 287 287 289 289 291 291 292 292 293 293 294 294 292 292 294 294 295 295 293 293 296 296 297 297 293 293 297 297 294 294 296 296 298 298 299 299 296 296 299 299 297 297 298 298 292 292 295 295 298 298 295 295 299 299 295 295 294 294 300 300 295 295 300 300 301 301 294 294 297 297 302 302 294 294 302 302 300 300 297 297 299 299 303 303 297 297 303 303 302 302 299 299 295 295 301 301 299 299 301 301 303 303 301 301 300 300 304 304 301 301 304 304 305 305 300 300 302 302 306 306 300 300 306 306 304 304 302 302 303 303 307 307 302 302 307 307 306 306 303 303 301 301 305 305 303 303 305 305 307 307 305 305 304 304 308 308 305 305 308 308 309 309 304 304 306 306 310 310 304 304 310 310 308 308 306 306 307 307 311 311 306 306 311 311 310 310 307 307 305 305 309 309 307 307 309 309 311 311 309 309 308 308 312 312 309 309 312 312 313 313 308 308 310 310 314 314 308 308 314 314 312 312 310 310 311 311 315 315 310 310 315 315 314 314 311 311 309 309 313 313 311 311 313 313 315 315 292 292 293 293 316 316 293 293 296 296 316 316 296 296 298 298 316 316 298 298 292 292 316 316 312 312 313 313 317 317 314 314 312 312 317 317 315 315 314 314 317 317 313 313 315 315 317 317 318 318 319 319 320 320 318 318 320 320 321 321 319 319 322 322 323 323 319 319 323 323 320 320 322 322 318 318 321 321 322 322 321 321 323 323 321 321 320 320 324 324 321 321 324 324 325 325 320 320 323 323 326 326 320 320 326 326 324 324 323 323 321 321 325 325 323 323 325 325 326 326 325 325 324 324 327 327 325 325 327 327 328 328 324 324 326 326 329 329 324 324 329 329 327 327 326 326 325 325 328 328 326 326 328 328 329 329 330 330 331 331 332 332 330 330 332 332 333 333 331 331 334 334 335 335 331 331 335 335 332 332 334 334 330 330 333 333 334 334 333 333 335 335 333 333 332 332 336 336 333 333 336 336 337 337 332 332 335 335 338 338 332 332 338 338 336 336 335 335 333 333 337 337 335 335 337 337 338 338 337 337 336 336 339 339 337 337 339 339 340 340 336 336 338 338 341 341 336 336 341 341 339 339 338 338 337 337 340 340 338 338 340 340 341 341 342 342 343 343 344 344 342 342 344 344 345 345 343 343 346 346 347 347 343 343 347 347 344 344 346 346 342 342 345 345 346 346 345 345 347 347 345 345 344 344 348 348 345 345 348 348 349 349 344 344 347 347 350 350 344 344 350 350 348 348 347 347 345 345 349 349 347 347 349 349 350 350 349 349 348 348 351 351 349 349 351 351 352 352 348 348 350 350 353 353 348 348 353 353 351 351 350 350 349 349 352 352 350 350 352 352 353 353 354 354 355 355 356 356 354 354 356 356 357 357 355 355 358 358 359 359 355 355 359 359 356 356 358 358 354 354 357 357 358 358 357 357 359 359 357 357 356 356 360 360 357 357 360 360 361 361 356 356 359 359 362 362 356 356 362 362 360 360 359 359 357 357 361 361 359 359 361 361 362 362 361 361 360 360 363 363 361 361 363 363 364 364 360 360 362 362 365 365 360 360 365 365 363 363 362 362 361 361 364 364 362 362 364 364 365 365 366 366 367 367 368 368 366 366 368 368 369 369 367 367 370 370 371 371 367 367 371 371 368 368 370 370 372 372 373 373 370 370 373 373 371 371 372 372 366 366 369 369 372 372 369 369 373 373 369 369 368 368 374 374 369 369 374 374 375 375 368 368 371 371 376 376 368 368 376 376 374 374 371 371 373 373 377 377 371 371 377 377 376 376 373 373 369 369 375 375 373 373 375 375 377 377 375 375 374 374 378 378 375 375 378 378 379 379 374 374 376 376 380 380 374 374 380 380 378 378 376 376 377 377 381 381 376 376 381 381 380 380 377 377 375 375 379 379 377 377 379 379 381 381 379 379 378 378 382 382 379 379 382 382 383 383 378 378 380 380 384 384 378 378 384 384 382 382 380 380 381 381 385 385 380 380 385 385 384 384 381 381 379 379 383 383 381 381 383 383 385 385 383 383 382 382 386 386 383 383 386 386 387 387 382 382 384 384 388 388 382 382 388 388 386 386 384 384 385 385 389 389 384 384 389 389 388 388 385 385 383 383 387 387 385 385 387 387 389 389 366 366 367 367 390 390 367 367 370 370 390 390 370 370 372 372 390 390 372 372 366 366 390 390 386 386 387 387 391 391 388 388 386 386 391 391 389 389 388 388 391 391 387 387 389 389 391 391 392 392 393 393 394 394 392 392 394 394 395 395 393 393 396 396 397 397 393 393 397 397 394 394 396 396 398 398 399 399 396 396 399 399 397 397 398 398 392 392 395 395 398 398 395 395 399 399 395 395 394 394 400 400 395 395 400 400 401 401 394 394 397 397 402 402 394 394 402 402 400 400 397 397 399 399 403 403 397 397 403 403 402 402 399 399 395 395 401 401 399 399 401 401 403 403 401 401 400 400 404 404 401 401 404 404 405 405 400 400 402 402 406 406 400 400 406 406 404 404 402 402 403 403 407 407 402 402 407 407 406 406 403 403 401 401 405 405 403 403 405 405 407 407 405 405 404 404 408 408 405 405 408 408 409 409 404 404 406 406 410 410 404 404 410 410 408 408 406 406 407 407 411 411 406 406 411 411 410 410 407 407 405 405 409 409 407 407 409 409 411 411 409 409 408 408 412 412 409 409 412 412 413 413 408 408 410 410 414 414 408 408 414 414 412 412 410 410 411 411 415 415 410 410 415 415 414 414 411 411 409 409 413 413 411 411 413 413 415 415 392 392 393 393 416 416 393 393 396 396 416 416 396 396 398 398 416 416 398 398 392 392 416 416 412 412 413 413 417 417 414 414 412 412 417 417 415 415 414 414 417 417 413 413 415 415 417 417 418 418 419 419 420 420 418 418 420 420 421 421 419 419 422 422 423 423 419 419 423 423 420 420 422 422 418 418 421 421 422 422 421 421 423 423 421 421 420 420 424 424 421 421 424 424 425 425 420 420 423 423 426 426 420 420 426 426 424 424 423 423 421 421 425 425 423 423 425 425 426 426 425 425 424 424 427 427 425 425 427 427 428 428 424 424 426 426 429 429 424 424 429 429 427 427 426 426 425 425 428 428 426 426 428 428 429 429 430 430 431 431 432 432 430 430 432 432 433 433 431 431 434 434 435 435 431 431 435 435 432 432 434 434 430 430 433 433 434 434 433 433 435 435 433 433 432 432 436 436 433 433 436 436 437 437 432 432 435 435 438 438 432 432 438 438 436 436 435 435 433 433 437 437 435 435 437 437 438 438 437 437 436 436 439 439 437 437 439 439 440 440 436 436 438 438 441 441 436 436 441 441 439 439 438 438 437 437 440 440 438 438 440 440 441 441 442 442 443 443 444 444 442 442 444 444 445 445 443 443 446 446 447 447 443 443 447 447 444 444 446 446 442 442 445 445 446 446 445 445 447 447 445 445 444 444 448 448 445 445 448 448 449 449 444 444 447 447 450 450 444 444 450 450 448 448 447 447 445 445 449 449 447 447 449 449 450 450 449 449 448 448 451 451 449 449 451 451 452 452 448 448 450 450 453 453 448 448 453 453 451 451 450 450 449 449 452 452 450 450 452 452 453 453 454 454 455 455 456 456 454 454 456 456 457 457 455 455 458 458 459 459 455 455 459 459 456 456 458 458 454 454 457 457 458 458 457 457 459 459 457 457 456 456 460 460 457 457 460 460 461 461 456 456 459 459 462 462 456 456 462 462 460 460 459 459 457 457 461 461 459 459 461 461 462 462 461 461 460 460 463 463 461 461 463 463 464 464 460 460 462 462 465 465 460 460 465 465 463 463 462 462 461 461 464 464 462 462 464 464 465 465 466 466 467 467 468 468 466 466 468 468 469 469 467 467 470 470 471 471 467 467 471 471 468 468 470 470 466 466 469 469 470 470 469 469 471 471 469 469 468 468 472 472 469 469 472 472 473 473 468 468 471 471 474 474 468 468 474 474 472 472 471 471 469 469 473 473 471 471 473 473 474 474 473 473 472 472 475 475 473 473 475 475 476 476 472 472 474 474 477 477 472 472 477 477 475 475 474 474 473 473 476 476 474 474 476 476 477 477 478 478 479 479 480 480 478 478 480 480 481 481 479 479 482 482 483 483 479 479 483 483 480 480 482 482 478 478 481 481 482 482 481 481 483 483 481 481 480 480 484 484 481 481 484 484 485 485 480 480 483 483 486 486 480 480 486 486 484 484 483 483 481 481 485 485 483 483 485 485 486 486 485 485 484 484 487 487 485 485 487 487 488 488 484 484 486 486 489 489 484 484 489 489 487 487 486 486 485 485 488 488 486 486 488 488 489 489 490 490 491 491 492 492 490 490 492 492 493 493 491 491 494 494 495 495 491 491 495 495 492 492 494 494 490 490 493 493 494 494 493 493 495 495 493 493 492 492 496 496 493 493 496 496 497 497 492 492 495 495 498 498 492 492 498 498 496 496 495 495 493 493 497 497 495 495 497 497 498 498 497 497 496 496 499 499 497 497 499 499 500 500 496 496 498 498 501 501 496 496 501 501 499 499 498 498 497 497 500 500 498 498 500 500 501 501 502 502 503 503 504 504 502 502 504 504 505 505 503 503 506 506 507 507 503 503 507 507 504 504 506 506 502 502 505 505 506 506 505 505 507 507 505 505 504 504 508 508 505 505 508 508 509 509 504 504 507 507 510 510 504 504 510 510 508 508 507 507 505 505 509 509 507 507 509 509 510 510 509 509 508 508 511 511 509 509 511 511 512 512 508 508 510 510 513 513 508 508 513 513 511 511 510 510 509 509 512 512 510 510 512 512 513 513 514 514 515 515 516 516 514 514 516 516 517 517 515 515 518 518 519 519 515 515 519 519 516 516 518 518 514 514 517 517 518 518 517 517 519 519 517 517 516 516 520 520 517 517 520 520 521 521 516 516 519 519 522 522 516 516 522 522 520 520 519 519 517 517 521 521 519 519 521 521 522 522 521 521 520 520 523 523 521 521 523 523 524 524 520 520 522 522 525 525 520 520 525 525 523 523 522 522 521 521 524 524 522 522 524 524 525 525 526 526 527 527 528 528 526 526 528 528 529 529 527 527 530 530 531 531 527 527 531 531 528 528 530 530 526 526 529 529 530 530 529 529 531 531 529 529 528 528 532 532 529 529 532 532 533 533 528 528 531 531 534 534 528 528 534 534 532 532 531 531 529 529 533 533 531 531 533 533 534 534 533 533 532 532 535 535 533 533 535 535 536 536 532 532 534 534 537 537 532 532 537 537 535 535 534 534 533 533 536 536 534 534 536 536 537 537 538 538 539 539 540 540 538 538 540 540 541 541 539 539 542 542 543 543 539 539 543 543 540 540 542 542 538 538 541 541 542 542 541 541 543 543 541 541 540 540 544 544 541 541 544 544 545 545 540 540 543 543 546 546 540 540 546 546 544 544 543 543 541 541 545 545 543 543 545 545 546 546 545 545 544 544 547 547 545 545 547 547 548 548 544 544 546 546 549 549 544 544 549 549 547 547 546 546 545 545 548 548 546 546 548 548 549 549 550 550 551 551 552 552 550 550 552 552 553 553 551 551 554 554 555 555 551 551 555 555 552 552 554 554 550 550 553 553 554 554 553 553 555 555 553 553 552 552 556 556 553 553 556 556 557 557 552 552 555 555 558 558 552 552 558 558 556 556 555 555 553 553 557 557 555 555 557 557 558 558 557 557 556 556 559 559 557 557 559 559 560 560 556 556 558 558 561 561 556 556 561 561 559 559 558 558 557 557 560 560 558 558 560 560 561 561 562 562 563 563 564 564 562 562 564 564 565 565 563 563 566 566 567 567 563 563 567 567 564 564 566 566 568 568 569 569 566 566 569 569 567 567 568 568 562 562 565 565 568 568 565 565 569 569 565 565 564 564 570 570 565 565 570 570 571 571 564 564 567 567 572 572 564 564 572 572 570 570 567 567 569 569 573 573 567 567 573 573 572 572 569 569 565 565 571 571 569 569 571 571 573 573 571 571 570 570 574 574 571 571 574 574 575 575 570 570 572 572 576 576 570 570 576 576 574 574 572 572 573 573 577 577 572 572 577 577 576 576 573 573 571 571 575 575 573 573 575 575 577 577 575 575 574 574 578 578 575 575 578 578 579 579 574 574 576 576 580 580 574 574 580 580 578 578 576 576 577 577 581 581 576 576 581 581 580 580 577 577 575 575 579 579 577 577 579 579 581 581 579 579 578 578 582 582 579 579 582 582 583 583 578 578 580 580 584 584 578 578 584 584 582 582 580 580 581 581 585 585 580 580 585 585 584 584 581 581 579 579 583 583 581 581 583 583 585 585 562 562 563 563 586 586 563 563 566 566 586 586 566 566 568 568 586 586 568 568 562 562 586 586 582 582 583 583 587 587 584 584 582 582 587 587 585 585 584 584 587 587 583 583 585 585 587 587 588 588 589 589 590 590 588 588 590 590 591 591 589 589 592 592 593 593 589 589 593 593 590 590 592 592 588 588 591 591 592 592 591 591 593 593 591 591 590 590 594 594 591 591 594 594 595 595 590 590 593 593 596 596 590 590 596 596 594 594 593 593 591 591 595 595 593 593 595 595 596 596 595 595 594 594 597 597 595 595 597 597 598 598 594 594 596 596 599 599 594 594 599 599 597 597 596 596 595 595 598 598 596 596 598 598 599 599 600 600 601 601 602 602 600 600 602 602 603 603 601 601 604 604 605 605 601 601 605 605 602 602 604 604 600 600 603 603 604 604 603 603 605 605 603 603 602 602 606 606 603 603 606 606 607 607 602 602 605 605 608 608 602 602 608 608 606 606 605 605 603 603 607 607 605 605 607 607 608 608 607 607 606 606 609 609 607 607 609 609 610 610 606 606 608 608 611 611 606 606 611 611 609 609 608 608 607 607 610 610 608 608 610 610 611 611 612 612 613 613 614 614 612 612 614 614 615 615 613 613 616 616 617 617 613 613 617 617 614 614 616 616 612 612 615 615 616 616 615 615 617 617 615 615 614 614 618 618 615 615 618 618 619 619 614 614 617 617 620 620 614 614 620 620 618 618 617 617 615 615 619 619 617 617 619 619 620 620 619 619 618 618 621 621 619 619 621 621 622 622 618 618 620 620 623 623 618 618 623 623 621 621 620 620 619 619 622 622 620 620 622 622 623 623 624 624 625 625 626 626 624 624 626 626 627 627 625 625 628 628 629 629 625 625 629 629 626 626 628 628 624 624 627 627 628 628 627 627 629 629 627 627 626 626 630 630 627 627 630 630 631 631 626 626 629 629 632 632 626 626 632 632 630 630 629 629 627 627 631 631 629 629 631 631 632 632 631 631 630 630 633 633 631 631 633 633 634 634 630 630 632 632 635 635 630 630 635 635 633 633 632 632 631 631 634 634 632 632 634 634 635 635 636 636 637 637 638 638 636 636 638 638 639 639 637 637 640 640 641 641 637 637 641 641 638 638 640 640 636 636 639 639 640 640 639 639 641 641 639 639 638 638 642 642 639 639 642 642 643 643 638 638 641 641 644 644 638 638 644 644 642 642 641 641 639 639 643 643 641 641 643 643 644 644 643 643 642 642 645 645 643 643 645 645 646 646 642 642 644 644 647 647 642 642 647 647 645 645 644 644 643 643 646 646 644 644 646 646 647 647 648 648 649 649 650 650 648 648 650 650 651 651 649 649 652 652 653 653 649 649 653 653 650 650 652 652 648 648 651 651 652 652 651 651 653 653 651 651 650 650 654 654 651 651 654 654 655 655 650 650 653 653 656 656 650 650 656 656 654 654 653 653 651 651 655 655 653 653 655 655 656 656 655 655 654 654 657 657 655 655 657 657 658 658 654 654 656 656 659 659 654 654 659 659 657 657 656 656 655 655 658 658 656 656 658 658 659 659 660 660 661 661 662 662 660 660 662 662 663 663 661 661 664 664 665 665 661 661 665 665 662 662 664 664 660 660 663 663 664 664 663 663 665 665 663 663 662 662 666 666 663 663 666 666 667 667 662 662 665 665 668 668 662 662 668 668 666 666 665 665 663 663 667 667 665 665 667 667 668 668 667 667 666 666 669 669 667 667 669 669 670 670 666 666 668 668 671 671 666 666 671 671 669 669 668 668 667 667 670 670 668 668 670 670 671 671 672 672 673 673 674 674 672 672 674 674 675 675 673 673 676 676 677 677 673 673 677 677 674 674 676 676 672 672 675 675 676 676 675 675 677 677 675 675 674 674 678 678 675 675 678 678 679 679 674 674 677 677 680 680 674 674 680 680 678 678 677 677 675 675 679 679 677 677 679 679 680 680 679 679 678 678 681 681 679 679 681 681 682 682 678 678 680 680 683 683 678 678 683 683 681 681 680 680 679 679 682 682 680 680 682 682 683 683 684 684 685 685 686 686 684 684 686 686 687 687 685 685 688 688 689 689 685 685 689 689 686 686 688 688 684 684 687 687 688 688 687 687 689 689 687 687 686 686 690 690 687 687 690 690 691 691 686 686 689 689 692 692 686 686 692 692 690 690 689 689 687 687 691 691 689 689 691 691 692 692 691 691 690 690 693 693 691 691 693 693 694 694 690 690 692 692 695 695 690 690 695 695 693 693 692 692 691 691 694 694 692 692 694 694 695 695 696 696 697 697 698 698 696 696 698 698 699 699 697 697 700 700 701 701 697 697 701 701 698 698 700 700 696 696 699 699 700 700 699 699 701 701 699 699 698 698 702 702 699 699 702 702 703 703 698 698 701 701 704 704 698 698 704 704 702 702 701 701 699 699 703 703 701 701 703 703 704 704 703 703 702 702 705 705 703 703 705 705 706 706 702 702 704 704 707 707 702 702 707 707 705 705 704 704 703 703 706 706 704 704 706 706 707 707 708 708 709 709 710 710 708 708 710 710 711 711 709 709 712 712 713 713 709 709 713 713 710 710 712 712 714 714 715 715 712 712 715 715 713 713 714 714 708 708 711 711 714 714 711 711 715 715 711 711 710 710 716 716 711 711 716 716 717 717 710 710 713 713 718 718 710 710 718 718 716 716 713 713 715 715 719 719 713 713 719 719 718 718 715 715 711 711 717 717 715 715 717 717 719 719 717 717 716 716 720 720 717 717 720 720 721 721 716 716 718 718 722 722 716 716 722 722 720 720 718 718 719 719 723 723 718 718 723 723 722 722 719 719 717 717 721 721 719 719 721 721 723 723 721 721 720 720 724 724 721 721 724 724 725 725 720 720 722 722 726 726 720 720 726 726 724 724 722 722 723 723 727 727 722 722 727 727 726 726 723 723 721 721 725 725 723 723 725 725 727 727 725 725 724 724 728 728 725 725 728 728 729 729 724 724 726 726 730 730 724 724 730 730 728 728 726 726 727 727 731 731 726 726 731 731 730 730 727 727 725 725 729 729 727 727 729 729 731 731 708 708 709 709 732 732 709 709 712 712 732 732 712 712 714 714 732 732 714 714 708 708 732 732 728 728 729 729 733 733 730 730 728 728 733 733 731 731 730 730 733 733 729 729 731 731 733 733 734 734 735 735 736 736 734 734 736 736 737 737 735 735 738 738 739 739 735 735 739 739 736 736 738 738 740 740 741 741 738 738 741 741 739 739 740 740 734 734 737 737 740 740 737 737 741 741 737 737 736 736 742 742 737 737 742 742 743 743 736 736 739 739 744 744 736 736 744 744 742 742 739 739 741 741 745 745 739 739 745 745 744 744 741 741 737 737 743 743 741 741 743 743 745 745 743 743 742 742 746 746 743 743 746 746 747 747 742 742 744 744 748 748 742 742 748 748 746 746 744 744 745 745 749 749 744 744 749 749 748 748 745 745 743 743 747 747 745 745 747 747 749 749 747 747 746 746 750 750 747 747 750 750 751 751 746 746 748 748 752 752 746 746 752 752 750 750 748 748 749 749 753 753 748 748 753 753 752 752 749 749 747 747 751 751 749 749 751 751 753 753 751 751 750 750 754 754 751 751 754 754 755 755 750 750 752 752 756 756 750 750 756 756 754 754 752 752 753 753 757 757 752 752 757 757 756 756 753 753 751 751 755 755 753 753 755 755 757 757 734 734 735 735 758 758 735 735 738 738 758 758 738 738 740 740 758 758 740 740 734 734 758 758 754 754 755 755 759 759 756 756 754 754 759 759 757 757 756 756 759 759 755 755 757 757 759 759 760 760 761 761 762 762 760 760 762 762 763 763 761 761 764 764 765 765 761 761 765 765 762 762 764 764 766 766 767 767 764 764 767 767 765 765 766 766 760 760 763 763 766 766 763 763 767 767 763 763 762 762 768 768 763 763 768 768 769 769 762 762 765 765 770 770 762 762 770 770 768 768 765 765 767 767 771 771 765 765 771 771 770 770 767 767 763 763 769 769 767 767 769 769 771 771 769 769 768 768 772 772 769 769 772 772 773 773 768 768 770 770 774 774 768 768 774 774 772 772 770 770 771 771 775 775 770 770 775 775 774 774 771 771 769 769 773 773 771 771 773 773 775 775 773 773 772 772 776 776 773 773 776 776 777 777 772 772 774 774 778 778 772 772 778 778 776 776 774 774 775 775 779 779 774 774 779 779 778 778 775 775 773 773 777 777 775 775 777 777 779 779 777 777 776 776 780 780 777 777 780 780 781 781 776 776 778 778 782 782 776 776 782 782 780 780 778 778 779 779 783 783 778 778 783 783 782 782 779 779 777 777 781 781 779 779 781 781 783 783 760 760 761 761 784 784 761 761 764 764 784 784 764 764 766 766 784 784 766 766 760 760 784 784 780 780 781 781 785 785 782 782 780 780 785 785 783 783 782 782 785 785 781 781 783 783 785 785 786 786 787 787 788 788 786 786 788 788 789 789 787 787 790 790 791 791 787 787 791 791 788 788 790 790 792 792 793 793 790 790 793 793 791 791 792 792 786 786 789 789 792 792 789 789 793 793 789 789 788 788 794 794 789 789 794 794 795 795 788 788 791 791 796 796 788 788 796 796 794 794 791 791 793 793 797 797 791 791 797 797 796 796 793 793 789 789 795 795 793 793 795 795 797 797 795 795 794 794 798 798 795 795 798 798 799 799 794 794 796 796 800 800 794 794 800 800 798 798 796 796 797 797 801 801 796 796 801 801 800 800 797 797 795 795 799 799 797 797 799 799 801 801 799 799 798 798 802 802 799 799 802 802 803 803 798 798 800 800 804 804 798 798 804 804 802 802 800 800 801 801 805 805 800 800 805 805 804 804 801 801 799 799 803 803 801 801 803 803 805 805 803 803 802 802 806 806 803 803 806 806 807 807 802 802 804 804 808 808 802 802 808 808 806 806 804 804 805 805 809 809 804 804 809 809 808 808 805 805 803 803 807 807 805 805 807 807 809 809 786 786 787 787 810 810 787 787 790 790 810 810 790 790 792 792 810 810 792 792 786 786 810 810 806 806 807 807 811 811 808 808 806 806 811 811 809 809 808 808 811 811 807 807 809 809 811 811 812 812 813 813 814 814 812 812 814 814 815 815 813 813 816 816 817 817 813 813 817 817 814 814 816 816 812 812 815 815 816 816 815 815 817 817 815 815 814 814 818 818 815 815 818 818 819 819 814 814 817 817 820 820 814 814 820 820 818 818 817 817 815 815 819 819 817 817 819 819 820 820 819 819 818 818 821 821 819 819 821 821 822 822 818 818 820 820 823 823 818 818 823 823 821 821 820 820 819 819 822 822 820 820 822 822 823 823 824 824 825 825 826 826 824 824 826 826 827 827 825 825 828 828 829 829 825 825 829 829 826 826 828 828 824 824 827 827 828 828 827 827 829 829 827 827 826 826 830 830 827 827 830 830 831 831 826 826 829 829 832 832 826 826 832 832 830 830 829 829 827 827 831 831 829 829 831 831 832 832 831 831 830 830 833 833 831 831 833 833 834 834 830 830 832 832 835 835 830 830 835 835 833 833 832 832 831 831 834 834 832 832 834 834 835 835 836 836 837 837 838 838 836 836 838 838 839 839 837 837 840 840 841 841 837 837 841 841 838 838 840 840 836 836 839 839 840 840 839 839 841 841 839 839 838 838 842 842 839 839 842 842 843 843 838 838 841 841 844 844 838 838 844 844 842 842 841 841 839 839 843 843 841 841 843 843 844 844 843 843 842 842 845 845 843 843 845 845 846 846 842 842 844 844 847 847 842 842 847 847 845 845 844 844 843 843 846 846 844 844 846 846 847 847 848 848 849 849 850 850 848 848 850 850 851 851 849 849 852 852 853 853 849 849 853 853 850 850 852 852 848 848 851 851 852 852 851 851 853 853 851 851 850 850 854 854 851 851 854 854 855 855 850 850 853 853 856 856 850 850 856 856 854 854 853 853 851 851 855 855 853 853 855 855 856 856 855 855 854 854 857 857 855 855 857 857 858 858 854 854 856 856 859 859 854 854 859 859 857 857 856 856 855 855 858 858 856 856 858 858 859 859 860 860 861 861 862 862 860 860 862 862 863 863 861 861 864 864 865 865 861 861 865 865 862 862 864 864 866 866 867 867 864 864 867 867 865 865 866 866 860 860 863 863 866 866 863 863 867 867 863 863 862 862 868 868 863 863 868 868 869 869 862 862 865 865 870 870 862 862 870 870 868 868 865 865 867 867 871 871 865 865 871 871 870 870 867 867 863 863 869 869 867 867 869 869 871 871 869 869 868 868 872 872 869 869 872 872 873 873 868 868 870 870 874 874 868 868 874 874 872 872 870 870 871 871 875 875 870 870 875 875 874 874 871 871 869 869 873 873 871 871 873 873 875 875 873 873 872 872 876 876 873 873 876 876 877 877 872 872 874 874 878 878 872 872 878 878 876 876 874 874 875 875 879 879 874 874 879 879 878 878 875 875 873 873 877 877 875 875 877 877 879 879 877 877 876 876 880 880 877 877 880 880 881 881 876 876 878 878 882 882 876 876 882 882 880 880 878 878 879 879 883 883 878 878 883 883 882 882 879 879 877 877 881 881 879 879 881 881 883 883 860 860 861 861 884 884 861 861 864 864 884 884 864 864 866 866 884 884 866 866 860 860 884 884 880 880 881 881 885 885 882 882 880 880 885 885 883 883 882 882 885 885 881 881 883 883 885 885 886 886 887 887 888 888 886 886 888 888 889 889 887 887 890 890 891 891 887 887 891 891 888 888 890 890 886 886 889 889 890 890 889 889 891 891 889 889 888 888 892 892 889 889 892 892 893 893 888 888 891 891 894 894 888 888 894 894 892 892 891 891 889 889 893 893 891 891 893 893 894 894 893 893 892 892 895 895 893 893 895 895 896 896 892 892 894 894 897 897 892 892 897 897 895 895 894 894 893 893 896 896 894 894 896 896 897 897 898 898 899 899 900 900 898 898 900 900 901 901 899 899 902 902 903 903 899 899 903 903 900 900 902 902 898 898 901 901 902 902 901 901 903 903 901 901 900 900 904 904 901 901 904 904 905 905 900 900 903 903 906 906 900 900 906 906 904 904 903 903 901 901 905 905 903 903 905 905 906 906 905 905 904 904 907 907 905 905 907 907 908 908 904 904 906 906 909 909 904 904 909 909 907 907 906 906 905 905 908 908 906 906 908 908 909 909 910 910 911 911 912 912 910 910 912 912 913 913 911 911 914 914 915 915 911 911 915 915 912 912 914 914 910 910 913 913 914 914 913 913 915 915 913 913 912 912 916 916 913 913 916 916 917 917 912 912 915 915 918 918 912 912 918 918 916 916 915 915 913 913 917 917 915 915 917 917 918 918 917 917 916 916 919 919 917 917 919 919 920 920 916 916 918 918 921 921 916 916 921 921 919 919 918 918 917 917 920 920 918 918 920 920 921 921 922 922 923 923 924 924 922 922 924 924 925 925 923 923 926 926 927 927 923 923 927 927 924 924 926 926 922 922 925 925 926 926 925 925 927 927 925 925 924 924 928 928 925 925 928 928 929 929 924 924 927 927 930 930 924 924 930 930 928 928 927 927 925 925 929 929 927 927 929 929 930 930 929 929 928 928 931 931 929 929 931 931 932 932 928 928 930 930 933 933 928 928 933 933 931 931 930 930 929 929 932 932 930 930 932 932 933 933 934 934 935 935 936 936 934 934 936 936 937 937 935 935 938 938 939 939 935 935 939 939 936 936 938 938 940 940 941 941 938 938 941 941 939 939 940 940 934 934 937 937 940 940 937 937 941 941 937 937 936 936 942 942 937 937 942 942 943 943 936 936 939 939 944 944 936 936 944 944 942 942 939 939 941 941 945 945 939 939 945 945 944 944 941 941 937 937 943 943 941 941 943 943 945 945 943 943 942 942 946 946 943 943 946 946 947 947 942 942 944 944 948 948 942 942 948 948 946 946 944 944 945 945 949 949 944 944 949 949 948 948 945 945 943 943 947 947 945 945 947 947 949 949 947 947 946 946 950 950 947 947 950 950 951 951 946 946 948 948 952 952 946 946 952 952 950 950 948 948 949 949 953 953 948 948 953 953 952 952 949 949 947 947 951 951 949 949 951 951 953 953 951 951 950 950 954 954 951 951 954 954 955 955 950 950 952 952 956 956 950 950 956 956 954 954 952 952 953 953 957 957 952 952 957 957 956 956 953 953 951 951 955 955 953 953 955 955 957 957 934 934 935 935 958 958 935 935 938 938 958 958 938 938 940 940 958 958 940 940 934 934 958 958 954 954 955 955 959 959 956 956 954 954 959 959 957 957 956 956 959 959 955 955 957 957 959 959 960 960 961 961 962 962 960 960 962 962 963 963 961 961 964 964 965 965 961 961 965 965 962 962 964 964 966 966 967 967 964 964 967 967 965 965 966 966 960 960 963 963 966 966 963 963 967 967 963 963 962 962 968 968 963 963 968 968 969 969 962 962 965 965 970 970 962 962 970 970 968 968 965 965 967 967 971 971 965 965 971 971 970 970 967 967 963 963 969 969 967 967 969 969 971 971 969 969 968 968 972 972 969 969 972 972 973 973 968 968 970 970 974 974 968 968 974 974 972 972 970 970 971 971 975 975 970 970 975 975 974 974 971 971 969 969 973 973 971 971 973 973 975 975 973 973 972 972 976 976 973 973 976 976 977 977 972 972 974 974 978 978 972 972 978 978 976 976 974 974 975 975 979 979 974 974 979 979 978 978 975 975 973 973 977 977 975 975 977 977 979 979 977 977 976 976 980 980 977 977 980 980 981 981 976 976 978 978 982 982 976 976 982 982 980 980 978 978 979 979 983 983 978 978 983 983 982 982 979 979 977 977 981 981 979 979 981 981 983 983 960 960 961 961 984 984 961 961 964 964 984 984 964 964 966 966 984 984 966 966 960 960 984 984 980 980 981 981 985 985 982 982 980 980 985 985 983 983 982 982 985 985 981 981 983 983 985 985 986 986 987 987 988 988 986 986 988 988 989 989 987 987 990 990 991 991 987 987 991 991 988 988 990 990 992 992 993 993 990 990 993 993 991 991 992 992 986 986 989 989 992 992 989 989 993 993 989 989 988 988 994 994 989 989 994 994 995 995 988 988 991 991 996 996 988 988 996 996 994 994 991 991 993 993 997 997 991 991 997 997 996 996 993 993 989 989 995 995 993 993 995 995 997 997 995 995 994 994 998 998 995 995 998 998 999 999 994 994 996 996 1000 1000 994 994 1000 1000 998 998 996 996 997 997 1001 1001 996 996 1001 1001 1000 1000 997 997 995 995 999 999 997 997 999 999 1001 1001 999 999 998 998 1002 1002 999 999 1002 1002 1003 1003 998 998 1000 1000 1004 1004 998 998 1004 1004 1002 1002 1000 1000 1001 1001 1005 1005 1000 1000 1005 1005 1004 1004 1001 1001 999 999 1003 1003 1001 1001 1003 1003 1005 1005 1003 1003 1002 1002 1006 1006 1003 1003 1006 1006 1007 1007 1002 1002 1004 1004 1008 1008 1002 1002 1008 1008 1006 1006 1004 1004 1005 1005 1009 1009 1004 1004 1009 1009 1008 1008 1005 1005 1003 1003 1007 1007 1005 1005 1007 1007 1009 1009 986 986 987 987 1010 1010 987 987 990 990 1010 1010 990 990 992 992 1010 1010 992 992 986 986 1010 1010 1006 1006 1007 1007 1011 1011 1008 1008 1006 1006 1011 1011 1009 1009 1008 1008 1011 1011 1007 1007 1009 1009 1011 1011</p></triangles>
      </mesh>
    </geometry>
  </library_geometries>
  <library_visual_scenes><visual_scene id="scene" name="scene">
    <node id="weeds_+00-02_solid" name="weeds_+00-02_solid" type="NODE"><instance_geometry url="#weeds_+00-02_solid-mesh"><bind_material><technique_common>
      <instance_material symbol="MAT_WEED_STEM-mat" target="#MAT_WEED_STEM"/>
    </technique_common></bind_material></instance_geometry></node>
  </visual_scene></library_visual_scenes>
  <scene><instance_visual_scene url="#scene"/></scene>
</COLLADA>
