<?xml version="1.0" encoding="utf-8"?>
<COLLADA xmlns="http://www.collada.org/2005/11/COLLADASchema" version="1.4.1">
  <asset>
    <contributor><authoring_tool>VIGIL SIH26126 farm generator</authoring_tool></contributor>
    <unit name="meter" meter="1"/>
    <up_axis>Z_UP</up_axis>
  </asset>
  <library_effects>
    <effect id="MAT_WEED_STEM-fx"><profile_COMMON><technique sid="c"><lambert><diffuse><color>0.0860 0.1040 0.0360 1</color></diffuse></lambert></technique></profile_COMMON></effect>
  </library_effects>
  <library_materials>
    <material id="MAT_WEED_STEM" name="MAT_WEED_STEM"><instance_effect url="#MAT_WEED_STEM-fx"/></material>
  </library_materials>
  <library_geometries>
    <geometry id="weeds_-04+00_solid-mesh" name="weeds_-04+00_solid">
      <mesh>
        <source id="weeds_-04+00_solid-pos"><float_array id="weeds_-04+00_solid-pos-a" count="258">-0.95785 0.2698 -0.073011 -0.95861 0.27333 -0.067674 -0.93683 0.22202 -0.029107 -0.93686 0.21952 -0.034125 -0.96336 0.26966 -0.069807 -0.94123 0.21912 -0.030737 -0.91214 0.17134 -0.016051 -0.91403 0.17056 -0.020323 -0.91623 0.16915 -0.016364 -0.8847 0.12233 -0.036491 -0.88704 0.12215 -0.039548 -0.88795 0.12035 -0.03623 -0.95782 0.26977 -0.072974 -0.95893 0.27385 -0.068138 -0.92939 0.23659 -0.028177 -0.92904 0.23353 -0.032846 -0.96307 0.26917 -0.069379 -0.93312 0.23264 -0.029172 -0.89693 0.19992 -0.013508 -0.89846 0.19863 -0.017807 -0.90029 0.1967 -0.013875 -0.86162 0.16479 -0.032556 -0.86369 0.16426 -0.035766 -0.8643 0.16207 -0.032624 -0.9574 0.26902 -0.068379 -0.9608 0.27428 -0.068957 -0.99967 0.25185 -0.035602 -0.9966 0.2475 -0.03443 -0.96162 0.2695 -0.073155 -0.99932 0.24772 -0.039295 -1.0352 0.22983 -0.029648 -1.0353 0.2282 -0.025184 -1.0332 0.22584 -0.028624 -1.0665 0.2091 -0.054617 -1.0687 0.20891 -0.051437 -1.0664 0.20605 -0.05229 -0.95753 0.26954 -0.072583 -0.95918 0.27407 -0.068388 -0.9374 0.24696 -0.028759 -0.93655 0.24351 -0.03305 -0.96311 0.26918 -0.06952 -0.94094 0.24284 -0.029719 -0.91251 0.22032 -0.014406 -0.91408 0.21903 -0.018693 -0.91576 0.21698 -0.014757 -0.88492 0.19533 -0.033944 -0.88723 0.19493 -0.036997 -0.88747 0.19249 -0.034004 -0.95811 0.2694 -0.067352 -0.95824 0.27328 -0.07249 -0.97339 0.32001 -0.03382 -0.97411 0.31731 -0.028956 -0.96347 0.27012 -0.07065 -0.97829 0.31784 -0.03251 -0.98558 0.36722 -0.019404 -0.98854 0.36675 -0.015752 -0.99001 0.36609 -0.020219 -0.99528 0.41649 -0.038926 -0.99848 0.41663 -0.036839 -0.99853 0.41521 -0.040458 1.4159 0.20979 -0.070049 1.4159 0.20601 -0.070211 1.4152 0.2052 -0.044831 1.4152 0.20852 -0.0446 1.4197 0.20566 -0.070072 1.4185 0.20489 -0.044679 1.4197 0.20945 -0.06991 1.4185 0.20822 -0.044448 1.4141 0.2032 -0.019517 1.414 0.20606 -0.019167 1.4169 0.20293 -0.019334 1.4169 0.20579 -0.018984 1.4125 0.20001 0.0057995 1.4125 0.2024 0.006219 1.4149 0.19977 0.0059946 1.4149 0.20216 0.0064141 1.4106 0.19563 0.031117 1.4105 0.19755 0.031557 1.4125 0.19542 0.031307 1.4125 0.19734 0.031747 1.4082 0.19004 0.056459 1.4082 0.19151 0.056835 1.4097 0.18987 0.056617 1.4097 0.19134 0.056993 1.4178 0.20773 -0.07006 1.4089 0.19069 0.056726</float_array><technique_common><accessor source="#weeds_-04+00_solid-pos-a" count="86" stride="3"><param name="X" type="float"/><param name="Y" type="float"/><param name="Z" type="float"/></accessor></technique_common></source>
        <source id="weeds_-04+00_solid-nrm"><float_array id="weeds_-04+00_solid-nrm-a" count="258">0.562 -0.345 -0.751 0.398 0.653 0.644 0.447 0.559 0.698 0.454 -0.23 -0.861 -0.94 -0.322 0.116 -0.911 -0.297 0.287 0.664 0.327 0.673 0.068 0.078 -0.995 -0.738 -0.448 0.505 0.841 0.278 0.465 -0.161 0.284 -0.945 -0.679 -0.577 0.454 0.587 -0.344 -0.733 0.29 0.797 0.53 0.316 0.716 0.623 0.465 -0.233 -0.854 -0.857 -0.468 0.214 -0.815 -0.453 0.362 0.544 0.495 0.678 0.056 0.074 -0.996 -0.592 -0.611 0.526 0.731 0.465 0.5 -0.209 0.277 -0.938 -0.513 -0.754 0.411 0.708 -0.496 0.503 -0.291 0.916 0.277 -0.378 0.907 0.187 0.538 -0.306 0.786 -0.445 -0.44 -0.78 -0.127 -0.59 -0.797 -0.288 0.885 -0.366 -0.189 -0.077 0.979 0.396 -0.883 -0.251 0.107 0.694 -0.712 -0.67 0.172 0.722 0.523 -0.852 -0.019 0.668 -0.406 -0.623 0.218 0.857 0.467 0.236 0.772 0.59 0.542 -0.289 -0.789 -0.868 -0.465 0.176 -0.831 -0.436 0.344 0.515 0.494 0.7 0.046 0.078 -0.996 -0.544 -0.627 0.557 0.75 0.463 0.472 -0.302 0.336 -0.892 -0.44 -0.81 0.387 0.478 -0.447 0.756 0.503 0.642 -0.579 0.693 0.502 -0.517 0.28 -0.36 0.89 -0.972 -0.17 -0.163 -0.962 -0.192 -0.197 0.937 0.26 -0.233 -0.115 0.046 0.992 -0.852 -0.266 -0.451 0.975 0.115 -0.192 -0.374 0.298 0.878 -0.625 -0.388 -0.678 -0.572 0.57 0.59 -0.634 -0.587 0.503 -0.738 -0.672 -0.064 -0.67 0.742 0.03 0.524 -0.62 0.583 0.686 -0.728 -0.002 0.592 0.542 0.596 0.73 0.678 0.088 -0.737 -0.668 -0.107 -0.67 0.74 0.054 0.685 -0.728 -0.025 0.729 0.672 0.131 -0.735 -0.661 -0.15 -0.67 0.738 0.077 0.685 -0.727 -0.048 0.727 0.664 0.174 -0.734 -0.652 -0.191 -0.671 0.735 0.101 0.684 -0.726 -0.071 0.725 0.654 0.215 -0.557 -0.423 -0.715 -0.483 0.74 -0.469 0.63 -0.457 -0.628 0.673 0.667 -0.319 -0.041 -0.043 0.998 0.129 0.247 -0.96</float_array><technique_common><accessor source="#weeds_-04+00_solid-nrm-a" count="86" stride="3"><param name="X" type="float"/><param name="Y" type="float"/><param name="Z" type="float"/></accessor></technique_common></source>
        <vertices id="weeds_-04+00_solid-vtx"><input semantic="POSITION" source="#weeds_-04+00_solid-pos"/></vertices>
        <triangles count="138" material="MAT_WEED_STEM-mat"><input semantic="VERTEX" source="#weeds_-04+00_solid-vtx" offset="0"/><input semantic="NORMAL" source="#weeds_-04+00_solid-nrm" offset="1"/><p>0 0 1 1 2 2 0 0 2 2 3 3 1 1 4 4 5 5 1 1 5 5 2 2 4 4 0 0 3 3 4 4 3 3 5 5 3 3 2 2 6 6 3 3 6 6 7 7 2 2 5 5 8 8 2 2 8 8 6 6 5 5 3 3 7 7 5 5 7 7 8 8 7 7 6 6 9 9 7 7 9 9 10 10 6 6 8 8 11 11 6 6 11 11 9 9 8 8 7 7 10 10 8 8 10 10 11 11 12 12 13 13 14 14 12 12 14 14 15 15 13 13 16 16 17 17 13 13 17 17 14 14 16 16 12 12 15 15 16 16 15 15 17 17 15 15 14 14 18 18 15 15 18 18 19 19 14 14 17 17 20 20 14 14 20 20 18 18 17 17 15 15 19 19 17 17 19 19 20 20 19 19 18 18 21 21 19 19 21 21 22 22 18 18 20 20 23 23 18 18 23 23 21 21 20 20 19 19 22 22 20 20 22 22 23 23 24 24 25 25 26 26 24 24 26 26 27 27 25 25 28 28 29 29 25 25 29 29 26 26 28 28 24 24 27 27 28 28 27 27 29 29 27 27 26 26 30 30 27 27 30 30 31 31 26 26 29 29 32 32 26 26 32 32 30 30 29 29 27 27 31 31 29 29 31 31 32 32 31 31 30 30 33 33 31 31 33 33 34 34 30 30 32 32 35 35 30 30 35 35 33 33 32 32 31 31 34 34 32 32 34 34 35 35 36 36 37 37 38 38 36 36 38 38 39 39 37 37 40 40 41 41 37 37 41 41 38 38 40 40 36 36 39 39 40 40 39 39 41 41 39 39 38 38 42 42 39 39 42 42 43 43 38 38 41 41 44 44 38 38 44 44 42 42 41 41 39 39 43 43 41 41 43 43 44 44 43 43 42 42 45 45 43 43 45 45 46 46 42 42 44 44 47 47 42 42 47 47 45 45 44 44 43 43 46 46 44 44 46 46 47 47 48 48 49 49 50 50 48 48 50 50 51 51 49 49 52 52 53 53 49 49 53 53 50 50 52 52 48 48 51 51 52 52 51 51 53 53 51 51 50 50 54 54 51 51 54 54 55 55 50 50 53 53 56 56 50 50 56 56 54 54 53 53 51 51 55 55 53 53 55 55 56 56 55 55 54 54 57 57 55 55 57 57 58 58 54 54 56 56 59 59 54 54 59 59 57 57 56 56 55 55 58 58 56 56 58 58 59 59 60 60 61 61 62 62 60 60 62 62 63 63 61 61 64 64 65 65 61 61 65 65 62 62 64 64 66 66 67 67 64 64 67 67 65 65 66 66 60 60 63 63 66 66 63 63 67 67 63 63 62 62 68 68 63 63 68 68 69 69 62 62 65 65 70 70 62 62 70 70 68 68 65 65 67 67 71 71 65 65 71 71 70 70 67 67 63 63 69 69 67 67 69 69 71 71 69 69 68 68 72 72 69 69 72 72 73 73 68 68 70 70 74 74 68 68 74 74 72 72 70 70 71 71 75 75 70 70 75 75 74 74 71 71 69 69 73 73 71 71 73 73 75 75 73 73 72 72 76 76 73 73 76 76 77 77 72 72 74 74 78 78 72 72 78 78 76 76 74 74 75 75 79 79 74 74 79 79 78 78 75 75 73 73 77 77 75 75 77 77 79 79 77 77 76 76 80 80 77 77 80 80 81 81 76 76 78 78 82 82 76 76 82 82 80 80 78 78 79 79 83 83 78 78 83 83 82 82 79 79 77 77 81 81 79 79 81 81 83 83 60 60 61 61 84 84 61 61 64 64 84 84 64 64 66 66 84 84 66 66 60 60 84 84 80 80 81 81 85 85 82 82 80 80 85 85 83 83 82 82 85 85 81 81 83 83 85 85</p></triangles>
      </mesh>
    </geometry>
  </library_geometries>
  <library_visual_scenes><visual_scene id="scene" name="scene">
    <node id="weeds_-04+00_solid" name="weeds_-04+00_solid" type="NODE"><instance_geometry url="#weeds_-04+00_solid-mesh"><bind_material><technique_common>
      <instance_material symbol="MAT_WEED_STEM-mat" target="#MAT_WEED_STEM"/>
    </technique_common></bind_material></instance_geometry></node>
  </visual_scene></library_visual_scenes>
  <scene><instance_visual_scene url="#scene"/></scene>
</COLLADA>
