<?xml version="1.0" encoding="utf-8"?>
<COLLADA xmlns="http://www.collada.org/2005/11/COLLADASchema" version="1.4.1">
  <asset>
    <contributor><authoring_tool>VIGIL SIH26126 farm generator</authoring_tool></contributor>
    <unit name="meter" meter="1"/>
    <up_axis>Z_UP</up_axis>
  </asset>
  <library_effects>
    <effect id="MAT_WEED_STEM-fx"><profile_COMMON><technique sid="c"><lambert><diffuse><color>0.0860 0.1040 0.0360 1</color></diffuse></lambert></technique></profile_COMMON></effect>
  </library_effects>
  <library_materials>
    <material id="MAT_WEED_STEM" name="MAT_WEED_STEM"><instance_effect url="#MAT_WEED_STEM-fx"/></material>
  </library_materials>
  <library_geometries>
    <geometry id="weeds_-06-01_solid-mesh" name="weeds_-06-01_solid">
      <mesh>
        <source id="weeds_-06-01_solid-pos"><float_array id="weeds_-06-01_solid-pos-a" count="504">-2.9306 0.11809 -0.030833 -2.9349 0.11889 -0.026145 -2.9119 0.063556 0.006383 -2.9088 0.063183 0.0016985 -2.9361 0.11532 -0.03158 -2.9137 0.061097 0.0015587 -2.8936 0.0085616 0.0098483 -2.8911 0.008853 0.013924 -2.8894 0.010186 0.0096049 -2.8764 -0.042508 -0.015223 -2.8741 -0.043208 -0.012065 -2.8729 -0.041265 -0.015245 -2.9315 0.11763 -0.026617 -2.9358 0.12046 -0.030497 -2.976 0.10322 0.010285 -2.9728 0.10063 0.0142 -2.9342 0.11421 -0.031443 -2.9745 0.097825 0.0095193 -3.0182 0.087464 0.026125 -3.0174 0.084896 0.030196 -3.0168 0.082912 0.025785 -3.0638 0.073515 0.0091476 -3.0641 0.071246 0.012387 -3.0627 0.069765 0.0090238 -2.9305 0.11808 -0.030354 -2.9365 0.11894 -0.031713 -2.9376 0.17353 0.0097193 -2.9324 0.17321 0.010763 -2.9346 0.11528 -0.026491 -2.9357 0.17119 0.014642 -2.9411 0.22909 0.029715 -2.9392 0.22924 0.02529 -2.9366 0.22945 0.029342 -2.9476 0.28791 0.012529 -2.9459 0.28716 0.0090759 -2.944 0.28823 0.012315 -2.9305 0.11809 -0.030626 -2.9366 0.11913 -0.031344 -2.9337 0.16507 0.0092059 -2.9283 0.16461 0.0095545 -2.9344 0.11508 -0.026588 -2.9313 0.16243 0.013729 -2.9328 0.21208 0.027952 -2.9309 0.212 0.023533 -2.9284 0.21209 0.027591 -2.9353 0.26227 0.0098206 -2.9335 0.26122 0.0064796 -2.9316 0.26236 0.0097126 3.1202 -0.43789 -0.057791 3.1224 -0.43435 -0.05239 3.1188 -0.49489 -0.013165 3.1166 -0.49706 -0.018181 3.1156 -0.43514 -0.053707 3.1128 -0.49516 -0.014056 3.1144 -0.55569 -0.00059014 3.1115 -0.55528 -0.0046654 3.1093 -0.55551 -0.00020962 3.1083 -0.6155 -0.022895 3.1055 -0.61432 -0.025693 3.1042 -0.61559 -0.022058 3.1203 -0.43794 -0.057757 3.1223 -0.43368 -0.052848 3.1343 -0.48539 -0.014046 3.1321 -0.48829 -0.018728 3.1156 -0.43576 -0.053283 3.1284 -0.48701 -0.014325 3.1453 -0.53741 -0.0016678 3.1425 -0.53767 -0.0057955 3.1403 -0.53859 -0.0013941 3.1548 -0.58861 -0.024407 3.1521 -0.58789 -0.027379 3.1507 -0.58968 -0.023949 3.1209 -0.43899 -0.053057 3.1207 -0.43225 -0.053446 3.0769 -0.43303 -0.012447 3.0774 -0.43877 -0.011451 3.1166 -0.43613 -0.057385 3.0743 -0.43696 -0.01607 3.0322 -0.43444 -8.1479e-05 3.0318 -0.43605 0.0046014 3.0319 -0.43931 0.00088453 2.9874 -0.43612 -0.020156 2.9857 -0.43519 -0.016565 2.9861 -0.43908 -0.017621 3.1204 -0.43832 -0.057384 3.1222 -0.43333 -0.053081 3.1328 -0.47141 -0.014052 3.1309 -0.47496 -0.018395 3.1156 -0.43572 -0.053423 3.1269 -0.4733 -0.014312 3.1426 -0.51001 -0.0014488 3.1397 -0.51024 -0.0055594 3.1376 -0.51136 -0.0011682 3.1507 -0.5476 -0.024127 3.1478 -0.54664 -0.026912 3.1467 -0.54886 -0.023673 3.1206 -0.43829 -0.051921 3.122 -0.43446 -0.057385 3.1409 -0.38393 -0.017991 3.1394 -0.38618 -0.01275 3.1156 -0.43462 -0.054582 3.1353 -0.38333 -0.015831 3.1591 -0.33387 -0.0039518 3.1567 -0.3328 0.00024698 3.1543 -0.3325 -0.0040968 3.1756 -0.28229 -0.025234 3.1731 -0.28048 -0.022641 3.1717 -0.28167 -0.026275 -2.3668 0.0082307 -0.033485 -2.3694 0.0045867 -0.028831 -2.37 0.062106 0.0094625 -2.3675 0.064408 0.0051285 -2.3626 0.0055375 -0.029357 -2.3641 0.062524 0.0092307 -2.3676 0.1207 0.023319 -2.3644 0.12049 0.019832 -2.3626 0.12063 0.024158 -2.3605 0.17941 0.0052022 -2.3576 0.17842 0.0028558 -2.3565 0.17956 0.0063736 -2.3669 0.0082693 -0.033455 -2.3693 0.0039558 -0.029267 -2.3849 0.052607 0.0068675 -2.3824 0.055599 0.0028552 -2.3627 0.0061297 -0.028952 -2.3792 0.054309 0.00723 -2.3974 0.10237 0.018772 -2.3943 0.1028 0.015254 -2.3926 0.1036 0.019546 -2.4053 0.15242 -0.00151 -2.4024 0.15187 -0.0040035 -2.4014 0.15353 -0.0006618 -2.3679 0.0091388 -0.02916 -2.3676 0.0026257 -0.029705 -2.3285 0.0030973 0.012293 -2.3292 0.0086117 0.013335 -2.3633 0.0065906 -0.032809 -2.3257 0.0070651 0.0093331 -2.286 0.0050585 0.028046 -2.2861 0.0064776 0.032437 -2.286 0.0097497 0.029105 -2.2407 0.0082486 0.013954 -2.2394 0.0072801 0.017392 -2.2397 0.011068 0.016504 -2.3671 0.0086277 -0.033118 -2.3691 0.0036287 -0.029478 -2.3833 0.0391 0.006581 -2.3811 0.042703 0.0028736 -2.3626 0.0060985 -0.029078 -2.3776 0.041062 0.0069616 -2.3944 0.075883 0.018406 -2.3913 0.076297 0.014905 -2.3896 0.077288 0.019188 -2.4008 0.11279 -0.0021044 -2.3978 0.11201 -0.0044211 -2.3969 0.11408 -0.0012592 -2.3677 0.0084269 -0.028109 -2.3685 0.0048602 -0.033384 -2.3897 -0.045666 -0.00049906 -2.3888 -0.043605 0.0045364 -2.3626 0.0050678 -0.030181 -2.3845 -0.046185 0.0020115 -2.4081 -0.094955 0.0091323 -2.406 -0.096057 0.013202 -2.4033 -0.096163 0.0094294 -2.4216 -0.14461 -0.013625 -2.4194 -0.14639 -0.011046 -2.4177 -0.14509 -0.014216</float_array><technique_common><accessor source="#weeds_-06-01_solid-pos-a" count="168" stride="3"><param name="X" type="float"/><param name="Y" type="float"/><param name="Z" type="float"/></accessor></technique_common></source>
        <source id="weeds_-06-01_solid-nrm"><float_array id="weeds_-06-01_solid-nrm-a" count="504">0.921 0.154 -0.357 -0.268 0.403 0.875 -0.55 0.117 0.827 0.956 0.292 0.035 -0.684 -0.565 -0.462 -0.521 -0.436 -0.734 -0.957 -0.209 0.201 0.639 -0.022 0.768 0.552 0.194 -0.811 -0.914 -0.117 -0.389 0.176 -0.394 0.902 0.756 0.466 -0.459 0.686 0.074 0.724 -0.576 0.783 -0.236 -0.481 0.848 -0.221 0.526 0.042 0.849 -0.128 -0.871 -0.474 0.026 -0.891 -0.454 -0.299 0.916 -0.266 0.014 -0.083 0.996 0.267 -0.868 -0.418 -0.12 0.901 -0.416 -0.316 -0.146 0.937 0.404 -0.76 -0.51 0.953 0.201 -0.226 -0.772 0.374 -0.514 -0.946 0.161 -0.281 0.884 0.209 -0.419 -0.232 -0.58 0.781 0.119 -0.433 0.893 -0.935 0.011 0.354 0.319 0.001 -0.948 0.64 0.014 0.768 -0.859 0.053 0.51 -0.045 -0.273 -0.961 0.898 0.222 0.379 0.932 0.211 -0.294 -0.811 0.415 -0.411 -0.962 0.204 -0.18 0.858 0.201 -0.473 -0.159 -0.634 0.756 0.172 -0.487 0.856 -0.915 0.081 0.396 0.295 -0.033 -0.955 0.649 -0.018 0.76 -0.862 0.134 0.489 -0.048 -0.328 -0.944 0.904 0.193 0.381 0.189 -0.554 -0.811 0.747 0.33 0.577 0.746 0.22 0.628 0.14 -0.397 -0.907 -0.937 0.221 0.27 -0.871 0.22 0.44 0.809 -0.091 0.581 -0.044 0.057 -0.997 -0.765 -0.007 0.644 0.91 -0.222 0.349 -0.125 0.343 -0.931 -0.791 -0.148 0.593 0.213 -0.566 -0.796 0.716 0.517 0.469 0.707 0.428 0.563 0.149 -0.406 -0.902 -0.929 0.048 0.368 -0.858 0.034 0.512 0.794 0.116 0.597 -0.056 0.06 -0.997 -0.721 -0.224 0.655 0.919 -0.004 0.393 -0.166 0.361 -0.918 -0.748 -0.389 0.538 0.414 -0.799 0.437 0.245 0.928 0.28 0.155 0.968 0.2 0.4 -0.554 0.73 -0.692 -0.116 -0.712 -0.502 -0.407 -0.763 0.14 0.915 -0.379 -0.055 0.005 0.998 -0.137 -0.953 -0.269 0.324 0.548 -0.771 -0.364 0.467 0.806 0.017 -0.999 -0.05 0.265 -0.666 -0.698 0.677 0.61 0.412 0.663 0.52 0.538 0.194 -0.495 -0.847 -0.942 0.057 0.33 -0.867 0.057 0.495 0.771 0.129 0.623 -0.062 0.068 -0.996 -0.684 -0.264 0.68 0.932 -0.015 0.362 -0.207 0.457 -0.865 -0.719 -0.476 0.507 0.281 -0.64 0.716 0.652 0.298 -0.697 0.753 0.077 -0.654 0.178 -0.466 0.867 -0.927 0.375 -0.024 -0.934 0.353 -0.059 0.883 -0.268 -0.385 0.064 0.068 0.996 -0.912 0.238 -0.334 0.846 -0.412 -0.339 -0.041 0.413 0.91 -0.807 0.019 -0.59 -0.113 0.562 -0.82 -0.78 -0.353 0.517 -0.784 -0.246 0.57 -0.053 0.411 -0.91 0.905 -0.221 0.363 0.816 -0.226 0.531 -0.848 0.062 0.526 0.141 -0.022 -0.99 0.679 -0.007 0.734 -0.937 0.201 0.285 0.218 -0.297 -0.93 0.71 0.135 0.692 -0.138 0.573 -0.808 -0.739 -0.538 0.406 -0.737 -0.45 0.504 -0.062 0.419 -0.906 0.881 -0.051 0.47 0.791 -0.042 0.61 -0.831 -0.142 0.538 0.151 -0.024 -0.988 0.631 0.207 0.748 -0.946 -0.019 0.324 0.256 -0.315 -0.914 0.67 0.377 0.64 -0.467 0.77 0.436 -0.247 -0.939 0.241 -0.149 -0.975 0.164 -0.47 0.511 0.72 0.737 0.144 -0.66 0.549 0.428 -0.718 -0.076 -0.898 -0.434 -0.046 -0.037 0.998 0.138 0.961 -0.238 -0.221 -0.512 -0.83 0.279 -0.476 0.834 -0.037 0.999 -0.023 -0.201 0.67 -0.714 -0.694 -0.63 0.348 -0.691 -0.541 0.48 -0.113 0.504 -0.856 0.9 -0.059 0.432 0.802 -0.065 0.593 -0.81 -0.155 0.566 0.158 -0.032 -0.987 0.589 0.244 0.77 -0.957 -0.006 0.291 0.294 -0.41 -0.864 0.643 0.465 0.608 -0.357 0.596 0.719 -0.555 -0.277 -0.784 -0.664 -0.061 -0.745 -0.266 0.419 0.868 0.929 -0.367 0.05 0.939 -0.343 0.015 -0.837 0.272 -0.475 -0.157 -0.098 0.983 0.938 -0.217 -0.27 -0.808 0.414 -0.419 -0.041 -0.426 0.904 0.846 0.009 -0.533</float_array><technique_common><accessor source="#weeds_-06-01_solid-nrm-a" count="168" stride="3"><param name="X" type="float"/><param name="Y" type="float"/><param name="Z" type="float"/></accessor></technique_common></source>
        <vertices id="weeds_-06-01_solid-vtx"><input semantic="POSITION" source="#weeds_-06-01_solid-pos"/></vertices>
        <triangles count="252" material="MAT_WEED_STEM-mat"><input semantic="VERTEX" source="#weeds_-06-01_solid-vtx" offset="0"/><input semantic="NORMAL" source="#weeds_-06-01_solid-nrm" offset="1"/><p>0 0 1 1 2 2 0 0 2 2 3 3 1 1 4 4 5 5 1 1 5 5 2 2 4 4 0 0 3 3 4 4 3 3 5 5 3 3 2 2 6 6 3 3 6 6 7 7 2 2 5 5 8 8 2 2 8 8 6 6 5 5 3 3 7 7 5 5 7 7 8 8 7 7 6 6 9 9 7 7 9 9 10 10 6 6 8 8 11 11 6 6 11 11 9 9 8 8 7 7 10 10 8 8 10 10 11 11 12 12 13 13 14 14 12 12 14 14 15 15 13 13 16 16 17 17 13 13 17 17 14 14 16 16 12 12 15 15 16 16 15 15 17 17 15 15 14 14 18 18 15 15 18 18 19 19 14 14 17 17 20 20 14 14 20 20 18 18 17 17 15 15 19 19 17 17 19 19 20 20 19 19 18 18 21 21 19 19 21 21 22 22 18 18 20 20 23 23 18 18 23 23 21 21 20 20 19 19 22 22 20 20 22 22 23 23 24 24 25 25 26 26 24 24 26 26 27 27 25 25 28 28 29 29 25 25 29 29 26 26 28 28 24 24 27 27 28 28 27 27 29 29 27 27 26 26 30 30 27 27 30 30 31 31 26 26 29 29 32 32 26 26 32 32 30 30 29 29 27 27 31 31 29 29 31 31 32 32 31 31 30 30 33 33 31 31 33 33 34 34 30 30 32 32 35 35 30 30 35 35 33 33 32 32 31 31 34 34 32 32 34 34 35 35 36 36 37 37 38 38 36 36 38 38 39 39 37 37 40 40 41 41 37 37 41 41 38 38 40 40 36 36 39 39 40 40 39 39 41 41 39 39 38 38 42 42 39 39 42 42 43 43 38 38 41 41 44 44 38 38 44 44 42 42 41 41 39 39 43 43 41 41 43 43 44 44 43 43 42 42 45 45 43 43 45 45 46 46 42 42 44 44 47 47 42 42 47 47 45 45 44 44 43 43 46 46 44 44 46 46 47 47 48 48 49 49 50 50 48 48 50 50 51 51 49 49 52 52 53 53 49 49 53 53 50 50 52 52 48 48 51 51 52 52 51 51 53 53 51 51 50 50 54 54 51 51 54 54 55 55 50 50 53 53 56 56 50 50 56 56 54 54 53 53 51 51 55 55 53 53 55 55 56 56 55 55 54 54 57 57 55 55 57 57 58 58 54 54 56 56 59 59 54 54 59 59 57 57 56 56 55 55 58 58 56 56 58 58 59 59 60 60 61 61 62 62 60 60 62 62 63 63 61 61 64 64 65 65 61 61 65 65 62 62 64 64 60 60 63 63 64 64 63 63 65 65 63 63 62 62 66 66 63 63 66 66 67 67 62 62 65 65 68 68 62 62 68 68 66 66 65 65 63 63 67 67 65 65 67 67 68 68 67 67 66 66 69 69 67 67 69 69 70 70 66 66 68 68 71 71 66 66 71 71 69 69 68 68 67 67 70 70 68 68 70 70 71 71 72 72 73 73 74 74 72 72 74 74 75 75 73 73 76 76 77 77 73 73 77 77 74 74 76 76 72 72 75 75 76 76 75 75 77 77 75 75 74 74 78 78 75 75 78 78 79 79 74 74 77 77 80 80 74 74 80 80 78 78 77 77 75 75 79 79 77 77 79 79 80 80 79 79 78 78 81 81 79 79 81 81 82 82 78 78 80 80 83 83 78 78 83 83 81 81 80 80 79 79 82 82 80 80 82 82 83 83 84 84 85 85 86 86 84 84 86 86 87 87 85 85 88 88 89 89 85 85 89 89 86 86 88 88 84 84 87 87 88 88 87 87 89 89 87 87 86 86 90 90 87 87 90 90 91 91 86 86 89 89 92 92 86 86 92 92 90 90 89 89 87 87 91 91 89 89 91 91 92 92 91 91 90 90 93 93 91 91 93 93 94 94 90 90 92 92 95 95 90 90 95 95 93 93 92 92 91 91 94 94 92 92 94 94 95 95 96 96 97 97 98 98 96 96 98 98 99 99 97 97 100 100 101 101 97 97 101 101 98 98 100 100 96 96 99 99 100 100 99 99 101 101 99 99 98 98 102 102 99 99 102 102 103 103 98 98 101 101 104 104 98 98 104 104 102 102 101 101 99 99 103 103 101 101 103 103 104 104 103 103 102 102 105 105 103 103 105 105 106 106 102 102 104 104 107 107 102 102 107 107 105 105 104 104 103 103 106 106 104 104 106 106 107 107 108 108 109 109 110 110 108 108 110 110 111 111 109 109 112 112 113 113 109 109 113 113 110 110 112 112 108 108 111 111 112 112 111 111 113 113 111 111 110 110 114 114 111 111 114 114 115 115 110 110 113 113 116 116 110 110 116 116 114 114 113 113 111 111 115 115 113 113 115 115 116 116 115 115 114 114 117 117 115 115 117 117 118 118 114 114 116 116 119 119 114 114 119 119 117 117 116 116 115 115 118 118 116 116 118 118 119 119 120 120 121 121 122 122 120 120 122 122 123 123 121 121 124 124 125 125 121 121 125 125 122 122 124 124 120 120 123 123 124 124 123 123 125 125 123 123 122 122 126 126 123 123 126 126 127 127 122 122 125 125 128 128 122 122 128 128 126 126 125 125 123 123 127 127 125 125 127 127 128 128 127 127 126 126 129 129 127 127 129 129 130 130 126 126 128 128 131 131 126 126 131 131 129 129 128 128 127 127 130 130 128 128 130 130 131 131 132 132 133 133 134 134 132 132 134 134 135 135 133 133 136 136 137 137 133 133 137 137 134 134 136 136 132 132 135 135 136 136 135 135 137 137 135 135 134 134 138 138 135 135 138 138 139 139 134 134 137 137 140 140 134 134 140 140 138 138 137 137 135 135 139 139 137 137 139 139 140 140 139 139 138 138 141 141 139 139 141 141 142 142 138 138 140 140 143 143 138 138 143 143 141 141 140 140 139 139 142 142 140 140 142 142 143 143 144 144 145 145 146 146 144 144 146 146 147 147 145 145 148 148 149 149 145 145 149 149 146 146 148 148 144 144 147 147 148 148 147 147 149 149 147 147 146 146 150 150 147 147 150 150 151 151 146 146 149 149 152 152 146 146 152 152 150 150 149 149 147 147 151 151 149 149 151 151 152 152 151 151 150 150 153 153 151 151 153 153 154 154 150 150 152 152 155 155 150 150 155 155 153 153 152 152 151 151 154 154 152 152 154 154 155 155 156 156 157 157 158 158 156 156 158 158 159 159 157 157 160 160 161 161 157 157 161 161 158 158 160 160 156 156 159 159 160 160 159 159 161 161 159 159 158 158 162 162 159 159 162 162 163 163 158 158 161 161 164 164 158 158 164 164 162 162 161 161 159 159 163 163 161 161 163 163 164 164 163 163 162 162 165 165 163 163 165 165 166 166 162 162 164 164 167 167 162 162 167 167 165 165 164 164 163 163 166 166 164 164 166 166 167 167</p></triangles>
      </mesh>
    </geometry>
  </library_geometries>
  <library_visual_scenes><visual_scene id="scene" name="scene">
    <node id="weeds_-06-01_solid" name="weeds_-06-01_solid" type="NODE"><instance_geometry url="#weeds_-06-01_solid-mesh"><bind_material><technique_common>
      <instance_material symbol="MAT_WEED_STEM-mat" target="#MAT_WEED_STEM"/>
    </technique_common></bind_material></instance_geometry></node>
  </visual_scene></library_visual_scenes>
  <scene><instance_visual_scene url="#scene"/></scene>
</COLLADA>
