<?xml version="1.0" encoding="utf-8"?>
<COLLADA xmlns="http://www.collada.org/2005/11/COLLADASchema" version="1.4.1">
  <asset>
    <contributor><authoring_tool>VIGIL SIH26126 farm generator</authoring_tool></contributor>
    <unit name="meter" meter="1"/>
    <up_axis>Z_UP</up_axis>
  </asset>
  <library_effects>
    <effect id="MAT_BUSH_3-fx"><profile_COMMON><technique sid="c"><lambert><diffuse><color>0.0720 0.1400 0.0360 1</color></diffuse></lambert></technique></profile_COMMON></effect>
    <effect id="MAT_BUSH_STEM-fx"><profile_COMMON><technique sid="c"><lambert><diffuse><color>0.0580 0.0460 0.0300 1</color></diffuse></lambert></technique></profile_COMMON></effect>
  </library_effects>
  <library_materials>
    <material id="MAT_BUSH_3" name="MAT_BUSH_3"><instance_effect url="#MAT_BUSH_3-fx"/></material>
    <material id="MAT_BUSH_STEM" name="MAT_BUSH_STEM"><instance_effect url="#MAT_BUSH_STEM-fx"/></material>
  </library_materials>
  <library_geometries>
    <geometry id="BUSH_4-mesh" name="BUSH_4">
      <mesh>
        <source id="BUSH_4-pos"><float_array id="BUSH_4-pos-a" count="2136">0.21578 -0.40992 0.51229 0.3947 -0.52027 0.59363 0.14433 -0.59661 0.58954 0.39229 -0.30106 0.59483 0.023761 -0.40992 0.60544 0.14896 -0.23532 0.59561 0.43124 -0.40992 0.77063 0.28603 -0.59347 0.77545 0.038808 -0.51907 0.77196 0.032372 -0.2968 0.77519 0.27934 -0.24385 0.76667 0.21578 -0.40992 0.86669 0.20619 -0.24518 0.79481 0.39159 -0.39821 0.85942 0.14484 -0.4597 0.8707 0.38535 -0.097318 0.86227 -0.0011419 -0.24518 0.86747 0.14376 -0.026892 0.86941 0.45615 -0.24518 1.0359 0.27606 -0.48947 1.0271 0.022181 -0.39706 1.0276 -0.0085845 -0.067919 1.0416 0.26331 -0.04548 1.0119 0.20619 -0.24518 1.1133 0.30641 0.42777 0.63304 0.43257 0.35011 0.7076 0.25312 0.28879 0.70147 0.43264 0.50548 0.70757 0.15189 0.42777 0.70813 0.25776 0.55465 0.70705 0.46806 0.42777 0.82542 0.35253 0.3075 0.82082 0.17203 0.34504 0.82707 0.18598 0.50191 0.82067 0.35359 0.5508 0.82209 0.30641 0.42777 0.91971 0.57219 -0.11885 0.71719 0.71494 -0.23449 0.80584 0.52286 -0.28814 0.81454 0.69036 -0.023117 0.82157 0.41895 -0.11885 0.81785 0.53012 0.025527 0.82671 0.71738 -0.11885 0.97233 0.61898 -0.27941 0.97555 0.4476 -0.21977 0.97689 0.44337 -0.01449 0.97959 0.62159 0.050687 0.97992 0.57219 -0.11885 1.0792 0.39914 -0.55032 0.35052 0.52828 -0.64106 0.42477 0.34829 -0.70167 0.42289 0.53613 -0.45406 0.42107 0.2472 -0.55032 0.4277 0.35106 -0.4072 0.42631 0.57032 -0.55032 0.5509 0.44492 -0.6866 0.54212 0.28756 -0.62872 0.53821 0.26294 -0.45462 0.54981 0.44461 -0.41496 0.54174 0.39914 -0.55032 0.64617 -0.42069 -0.34391 0.70186 -0.31103 -0.40588 0.76073 -0.46244 -0.44384 0.76091 -0.29771 -0.27443 0.75441 -0.5844 -0.34391 0.74991 -0.4681 -0.23045 0.75387 -0.27566 -0.34391 0.86861 -0.36822 -0.46951 0.87814 -0.54314 -0.41309 0.87104 -0.54485 -0.27376 0.87186 -0.36923 -0.22075 0.87688 -0.42069 -0.34391 0.94132 0.45021 0.054378 0.73502 0.59211 -0.04776 0.80576 0.39687 -0.10825 0.80689 0.60794 0.16791 0.79787 0.30826 0.054378 0.81925 0.40754 0.18447 0.82081 0.63965 0.054378 0.95285 0.50052 -0.099037 0.94211 0.30851 -0.047615 0.94708 0.3033 0.16012 0.94968 0.50336 0.21644 0.94581 0.45021 0.054378 1.0354 -0.47178 -0.20592 0.713 -0.30264 -0.31717 0.793 -0.54606 -0.41291 0.78377 -0.28665 -0.084156 0.78718 -0.70744 -0.20592 0.78517 -0.54365 -0.0056736 0.78608 -0.23202 -0.20592 0.92527 -0.39812 -0.41115 0.92486 -0.62853 -0.30902 0.91171 -0.66242 -0.080528 0.92406 -0.40131 -0.0095632 0.92182 -0.47178 -0.20592 0.97574 0.03856 -0.29866 0.41313 0.22825 -0.4389 0.50672 -0.039067 -0.54178 0.49958 0.22379 -0.16172 0.50908 -0.19995 -0.29866 0.505 -0.031187 -0.080225 0.51046 0.2389 -0.29866 0.6923 0.11022 -0.5231 0.70577 -0.16584 -0.44977 0.71462 -0.18534 -0.13313 0.72491 0.11648 -0.054626 0.71441 0.03856 -0.29866 0.86202 -0.10522 -0.28358 0.56469 0.13637 -0.43132 0.65643 -0.17885 -0.47431 0.67621 0.13148 -0.13883 0.65841 -0.38216 -0.28358 0.66354 -0.17952 -0.091101 0.67549 0.1611 -0.28358 0.84152 -0.010033 -0.53017 0.85519 -0.3234 -0.417 0.84262 -0.32047 -0.15195 0.84144 -0.029206 -0.086656 0.83487 -0.10522 -0.28358 0.95878 0.17681 0.61801 0.79399 0.29989 0.50771 0.88803 0.13078 0.44328 0.88953 0.26974 0.7013 0.90563 0.033908 0.61801 0.89239 0.13561 0.7744 0.89692 0.33454 0.61801 1.0344 0.22275 0.44358 1.0301 0.056902 0.51055 1.0299 0.071217 0.71264 1.0215 0.22228 0.79063 1.0294 0.17681 0.61801 1.1263 -0.28889 0.44996 0.62503 -0.13386 0.3374 0.70136 -0.35328 0.25191 0.69521 -0.12876 0.56622 0.69904 -0.47754 0.44996 0.70245 -0.35079 0.64034 0.69816 -0.096777 0.44996 0.84221 -0.2224 0.24546 0.85068 -0.42553 0.35075 0.83369 -0.46159 0.57535 0.85006 -0.22275 0.65337 0.85026 -0.28889 0.44996 0.95776 0.34582 1.0514 0.77199 0.54506 0.91642 0.85292 0.26922 0.83157 0.85231 0.55365 1.1922 0.84894 0.11521 1.0514 0.85877 0.27359 1.2586 0.8576 0.58629 1.0514 1.0349 0.41746 0.84581 1.0317 0.14134 0.91287 1.0395 0.17418 1.1676 1.0243 0.42849 1.2886 1.0451 0.34582 1.0514 1.1453 0.19339 -0.018283 0.80493 0.36144 -0.12085 0.89251 0.12531 -0.1943 0.8871 0.32964 0.064872 0.90937 0.014803 -0.018283 0.90501 0.13199 0.14046 0.89638 0.37883 -0.018283 1.0612 0.2568 -0.18223 1.0697 0.020693 -0.12368 1.0732 0.029057 0.082012 1.0688 0.25692 0.14596 1.0699 0.19339 -0.018283 1.2081 -0.79885 0.74445 0.44177 -0.63989 0.66285 0.54318 -0.85538 0.62152 0.54802 -0.63317 0.8295 0.54021 -0.99124 0.74445 0.54464 -0.86182 0.88139 0.54057 -0.59444 0.74445 0.68655 -0.72923 0.59306 0.69402 -0.94542 0.66921 0.67824 -0.97697 0.83588 0.69218 -0.74474 0.86211 0.67607 -0.79885 0.74445 0.77577 0.49117 0.13973 0.76263 0.672 0.0086031 0.84947 0.42296 -0.069777 0.85058 0.6692 0.26882 0.85085 0.24893 0.13973 0.84208 0.41576 0.37134 0.84138 0.70463 0.13973 1.0222 0.56503 -0.087151 1.0323 0.31733 0.013681 1.0227 0.31189 0.26972 1.0254 0.56615 0.37006 1.0337 0.49117 0.13973 1.1223 0.11808 1.1858 0.52872 0.28087 1.0923 0.63277 0.047574 1.0143 0.62443 0.32172 1.3028 0.61715 -0.1409 1.1858 0.6149 0.045884 1.3615 0.62273 0.3342 1.1858 0.76182 0.19186 1.0063 0.76882 -0.080195 1.0719 0.77078 -0.05239 1.2837 0.76015 0.18662 1.3526 0.76358 0.11808 1.1858 0.85786 0.047898 0.85859 0.41168 0.20101 0.70785 0.52199 -0.0050073 0.63795 0.53193 0.18762 0.99615 0.5311 -0.13323 0.85859 0.52647 -0.0011667 1.0632 0.53877 0.20594 0.85859 0.71312 0.10152 0.63498 0.72163 -0.068768 0.74374 0.7055 -0.093815 0.99811 0.72254 0.098747 1.0707 0.7167 0.047898 0.85859 0.8387 0.11034 -0.28489 0.79469 0.2249 -0.35626 0.8744 0.067051 -0.39914 0.87489 0.24127 -0.20331 0.86785 -0.045377 -0.28489 0.86983 0.066005 -0.16788 0.87379 0.24328 -0.28489 0.96327 0.15401 -0.40014 0.96598 -0.014171 -0.36246 0.97006 0.0070108 -0.22051 0.96158 0.1529 -0.17255 0.96483 0.11034 -0.28489 1.0258 0.0090702 -0.35007 0.44177 0.11774 -0.42432 0.52963 -0.038196 -0.48688 0.5227 0.1398 -0.26075 0.51949 -0.15224 -0.35007 0.51959 -0.042219 -0.20162 0.51786 0.16507 -0.35007 0.63758 0.055375 -0.48409 0.6353 -0.12159 -0.43934 0.63963 -0.12823 -0.25626 0.64268 0.059785 -0.20328 0.6406 0.0090702 -0.35007 0.71071 0.1579 -0.43493 0.54293 0.3269 -0.56838 0.64761 0.098053 -0.63514 0.65482 0.29374 -0.32767 0.66704 -0.069431 -0.43493 0.63886 0.099385 -0.23917 0.65686 0.35835 -0.43493 0.84168 0.21411 -0.62296 0.83289 0.0021475 -0.55793 0.83793 -0.00018986 -0.31009 0.8393 0.20961 -0.26197 0.82598 0.1579 -0.43493 0.94829 -0.29317 -0.36515 0.88611 -0.1066 -0.5001 0.98357 -0.36042 -0.57121 0.98807 -0.085655 -0.21504 0.97461 -0.50289 -0.36515 0.99081 -0.37014 -0.12931 0.97718 -0.057818 -0.36515 1.1449 -0.21837 -0.59436 1.1472 -0.47444 -0.49627 1.141 -0.48969 -0.223 1.1475 -0.21981 -0.14035 1.1456 -0.29317 -0.36515 1.2429 -0.21864 0.0031575 0.50222 -0.077922 -0.11933 0.64243 -0.27606 -0.20858 0.63756 -0.039305 0.15926 0.62286 -0.41182 0.0031575 0.63454 -0.27966 0.22815 0.63279 -0.021439 0.0031575 0.79463 -0.162 -0.20571 0.78893 -0.34448 -0.10638 0.77755 -0.39006 0.15237 0.80065 -0.1592 0.22234 0.79265 -0.21864 0.0031575 0.91034 -0.090594 0.74679 0.61926 0.042558 0.65282 0.75902 -0.1532 0.55963 0.73989 0.033943 0.83468 0.76438 -0.25772 0.74679 0.75774 -0.15068 0.92643 0.74399 0.10292 0.74679 0.9393 -0.028757 0.56192 0.94262 -0.22371 0.65285 0.92471 -0.23965 0.85198 0.93463 -0.033381 0.91783 0.93509 -0.090594 0.74679 1.0264 -0.14898 -0.24784 0.76486 -0.025725 -0.32682 0.83512 -0.20181 -0.39124 0.82825 -0.027796 -0.17019 0.83606 -0.28938 -0.24784 0.83953 -0.19105 -0.13365 0.8411 0.00093347 -0.24784 0.94665 -0.099864 -0.38115 0.94998 -0.27507 -0.32863 0.94884 -0.26485 -0.1736 0.94418 -0.1021 -0.1206 0.94731 -0.14898 -0.24784 1.0311 0.074469 0.58564 0.29334 0.2422 0.4651 0.42421 0.0095912 0.38813 0.42292 0.23968 0.70437 0.42574 -0.13109 0.58564 0.42508 0.019102 0.75419 0.43809 0.28758 0.58564 0.63146 0.13189 0.41083 0.618 -0.06379 0.48628 0.61065 -0.10414 0.714 0.63523 0.13287 0.76343 0.61957 0.074469 0.58564 0.74964 -0.070002 0.043907 0.80971 0.040954 -0.072957 0.90847 -0.10774 -0.12447 0.91671 0.025686 0.14469 0.91882 -0.20397 0.043907 0.91021 -0.10358 0.19374 0.92409 0.082853 0.043907 1.0676 -0.028821 -0.13983 1.0568 -0.1757 -0.067421 1.0554 -0.17503 0.15453 1.0549 -0.026769 0.2368 1.0605 -0.070002 0.043907 1.1384 0.021164 0.52683 0.74544 0.19618 0.38991 0.84471 -0.041377 0.31957 0.85045 0.20281 0.66893 0.84135 -0.22126 0.52683 0.83398 -0.041868 0.73572 0.84979 0.27188 0.52683 1.0368 0.093958 0.28559 1.0306 -0.14261 0.39871 1.017 -0.17721 0.68202 1.0346 0.094877 0.77112 1.0318 0.021164 0.52683 1.174 -0.38554 -0.11171 0.4161 -0.2173 -0.21371 0.57731 -0.45698 -0.29521 0.56718 -0.18748 0.008369 0.56125 -0.57262 -0.11171 0.5864 -0.45169 0.058196 0.57464 -0.15606 -0.11171 0.76793 -0.3259 -0.26489 0.75204 -0.56101 -0.2181 0.76245 -0.55512 -0.0088922 0.75928 -0.31966 0.057487 0.76084 -0.38554 -0.11171 0.87037 0 0.021466 -0.0076327 -0.01973 -0.010779 0.003687 -0.017943 0.042531 0.14868 -0.0010738 0.07005 0.13886 0.01973 -0.010687 0.0039456 0.015795 0.042612 0.14891 -0.016156 0.09585 0.28901 -0.0021476 0.11861 0.28061 0.01186 0.095922 0.2892 -0.014369 0.14916 0.4246 -0.0032215 0.1672 0.41772 0.0079257 0.14922 0.42476 -0.012582 0.20245 0.55544 -0.0042953 0.21583 0.55024 0.0039911 0.2025 0.55556 -0.0042953 0.21382 0.54349 -0.014357 0.20046 0.55684 -0.064181 0.32046 0.63611 -0.056075 0.33106 0.62517 0.0057666 0.2065 0.56091 -0.04797 0.32544 0.63934 -0.114 0.44047 0.70926 -0.10786 0.44826 0.70067 -0.10171 0.44443 0.71161 -0.16449 0.56003 0.77637 -0.15964 0.56608 0.76945 -0.15478 0.56323 0.77819 -0.15964 0.56541 0.7681 -0.16419 0.55824 0.77665 -0.22201 0.62262 0.7987 -0.21809 0.62863 0.79118 -0.15508 0.56569 0.77926 -0.21418 0.62913 0.80079 -0.28044 0.68637 0.81755 -0.27655 0.692 0.80973 -0.27267 0.69304 0.81931 -0.33889 0.75009 0.8327 -0.33501 0.75553 0.82473 -0.33114 0.75683 0.83429 -0.33501 0.75415 0.83057 -0.15964 0.56921 0.77073 -0.16376 0.56264 0.78062 -0.086608 0.59893 0.83551 -0.083246 0.6042 0.8272 -0.15551 0.55749 0.77266 -0.079885 0.59451 0.82892 -0.010114 0.63526 0.88736 -0.0068576 0.64017 0.8788 -0.0036006 0.6305 0.88081 0.066328 0.67149 0.93507 0.069531 0.67619 0.92638 0.072734 0.66655 0.92855 0.069531 0.67141 0.93 -0.0042953 0.21822 0.56349 -0.016917 0.19947 0.55096 0.015489 0.11139 0.65524 0.025663 0.1264 0.66553 0.0083264 0.20308 0.54679 0.035837 0.11439 0.65186 0.047897 0.023321 0.7538 0.055621 0.034534 0.76191 0.063344 0.025745 0.75122 0.080294 -0.064769 0.84676 0.085578 -0.057162 0.85241 0.090863 -0.063056 0.84499 0.085578 -0.058079 0.85527 0.079698 -0.060093 0.84278 0.028036 -0.1344 0.88063 0.032765 -0.13302 0.89075 0.091459 -0.066815 0.84611 0.037495 -0.13992 0.88322 -0.024389 -0.20842 0.91385 -0.020048 -0.2076 0.92326 -0.015706 -0.21369 0.91605 -0.07719 -0.28244 0.94278 -0.072861 -0.28184 0.95221 -0.068532 -0.28779 0.94487 -0.072861 -0.28402 0.94662 0.085578 -0.054802 0.85313 0.081461 -0.068743 0.85045 0.15025 -0.094549 0.88652 0.1535 -0.083327 0.8889 0.089696 -0.061441 0.84058 0.15676 -0.088429 0.87862 0.21871 -0.12103 0.91942 0.22143 -0.11131 0.92191 0.22415 -0.11527 0.91269 0.2867 -0.1482 0.94933 0.28935 -0.13853 0.95205 0.29201 -0.14221 0.94271 0.28935 -0.14298 0.94803 0 0.0218 -0.0066161 -0.019427 -0.0098992 0.0066065 0.010375 0.035727 0.15121 0.026977 0.062766 0.13974 0.019427 -0.011901 9.5756e-06 0.04358 0.033965 0.1455 0.040182 0.081377 0.29117 0.053955 0.10372 0.28136 0.067728 0.079823 0.28629 0.069984 0.127 0.42637 0.080932 0.14468 0.41832 0.091881 0.12569 0.42239 0.099776 0.17258 0.55677 0.10791 0.18568 0.5507 0.11604 0.17157 0.55377 0.10791 0.18321 0.5422 0.096393 0.17305 0.55938 0.095001 0.29534 0.62777 0.10429 0.30328 0.61377 0.11943 0.17357 0.55967 0.11358 0.29576 0.628 0.093609 0.41765 0.69052 0.10067 0.4233 0.67966 0.10774 0.41798 0.69069 0.091858 0.53974 0.74772 0.097053 0.54375 0.73966 0.10225 0.53999 0.74784 0.097053 0.54274 0.73819 0.091353 0.5382 0.74802 0.058685 0.62247 0.76684 0.063523 0.62615 0.75841 0.10275 0.54254 0.74901 0.068361 0.62618 0.76761 0.02516 0.70634 0.78244 0.029993 0.70967 0.77387 0.034825 0.7101 0.78306 -0.0083679 0.79016 0.79429 -0.0035373 0.79331 0.78564 0.0012933 0.79395 0.79482 -0.0035373 0.79248 0.79158 0.097053 0.54838 0.7494 0.09294 0.53446 0.74807 0.16322 0.5113 0.78816 0.16647 0.52253 0.7894 0.10117 0.54064 0.73775 0.16972 0.51649 0.77985 0.23314 0.48742 0.82508 0.23589 0.49734 0.82653 0.23863 0.49241 0.8178 0.30262 0.46297 0.85894 0.3053 0.47288 0.86057 0.30798 0.46817 0.85171 0.3053 0.46801 0.85707 0.10791 0.18533 0.56488 0.095687 0.17287 0.54769 0.090452 0.0814 0.62113 0.10031 0.091221 0.63516 0.12013 0.17163 0.54867 0.11017 0.080369 0.62191 0.085218 -0.010041 0.68979 0.092713 -0.0029466 0.70071 0.10021 -0.010865 0.69037 0.07993 -0.10163 0.75374 0.085115 -0.096856 0.76138 0.090299 -0.10221 0.75414 0.085115 -0.09196 0.75409 0.078444 -0.10526 0.75441 0.043462 -0.08445 0.82544 0.04882 -0.073709 0.82516 0.091785 -0.10348 0.76076 0.054177 -0.082952 0.83064 0.0079315 -0.064084 0.89296 0.012524 -0.054765 0.89268 0.017117 -0.062676 0.89761 -0.02834 -0.044245 0.95694 -0.023771 -0.034916 0.95663 -0.019202 -0.042778 0.96166 -0.023771 -0.040647 0.95841 0.085115 -0.097277 0.76401 0.078753 -0.10455 0.75373 0.11601 -0.17369 0.78143 0.12114 -0.16798 0.78984 0.091476 -0.098867 0.75152 0.12626 -0.16904 0.77973 0.15249 -0.24333 0.80539 0.15716 -0.23843 0.81327 0.16182 -0.23897 0.804 0.18852 -0.3133 0.82586 0.19318 -0.30856 0.83385 0.19784 -0.30888 0.82456 0.19318 -0.31025 0.82809 0 0.021791 0.0066458 -0.019435 -0.0099035 -0.0065763 -0.043229 -0.052799 0.13978 -0.02662 -0.025764 0.15125 0.019435 -0.011888 -6.9531e-05 -0.01001 -0.054546 0.14542 -0.067018 -0.09567 0.2814 -0.053239 -0.073335 0.29121 -0.03946 -0.097211 0.28621 -0.090813 -0.13857 0.41837 -0.079859 -0.12089 0.42641 -0.068905 -0.13987 0.4223 -0.11462 -0.18151 0.55074 -0.10648 -0.16841 0.55681 -0.098341 -0.18251 0.5537 -0.10648 -0.1623 0.55289 -0.11596 -0.18455 0.5633 -0.034243 -0.17849 0.6442 -0.026704 -0.16056 0.63566 -0.097001 -0.18558 0.54506 -0.019165 -0.17936 0.62927 0.047511 -0.17242 0.72047 0.053071 -0.15882 0.71376 0.058631 -0.17314 0.70878 0.1291 -0.16638 0.7919 0.13285 -0.15708 0.78723 0.13659 -0.16689 0.78378 0.13285 -0.15774 0.79424 0.12578 -0.16427 0.78257 0.10128 -0.21548 0.82797 0.10697 -0.21039 0.83749 0.13991 -0.16834 0.78609 0.11267 -0.21885 0.83079 0.076274 -0.26669 0.87005 0.081104 -0.26268 0.87833 0.085933 -0.26971 0.8724 0.050412 -0.31806 0.90859 0.055232 -0.31422 0.91695 0.060053 -0.32117 0.91091 0.055232 -0.31782 0.91215 0.13285 -0.1557 0.784 0.12994 -0.16443 0.79562 0.19743 -0.15201 0.81992 0.19968 -0.14519 0.81035 0.13575 -0.17022 0.78327 0.20193 -0.15693 0.81 0.26472 -0.13952 0.84201 0.26651 -0.13408 0.83334 0.26831 -0.14431 0.83351 0.33164 -0.12725 0.86197 0.33335 -0.1221 0.85311 0.33506 -0.13234 0.85358 0.33335 -0.12723 0.85622 -0.10648 -0.16566 0.55888 -0.11379 -0.18003 0.54346 -0.21548 -0.21511 0.62758 -0.20968 -0.20371 0.64024 -0.099163 -0.18674 0.55891 -0.20387 -0.22074 0.64013 -0.31714 -0.25012 0.70615 -0.31288 -0.24178 0.71612 -0.30862 -0.25478 0.71579 -0.41925 -0.28544 0.77883 -0.41608 -0.27924 0.78654 -0.4129 -0.28913 0.78618 -0.41608 -0.27736 0.78188 -0.42053 -0.28698 0.7894 -0.34651 -0.26838 0.85478 -0.34297 -0.26068 0.8486 -0.41162 -0.28946 0.78027 -0.33943 -0.27047 0.84733 -0.27326 -0.25017 0.91719 -0.26987 -0.24268 0.91083 -0.26648 -0.25243 0.90964 -0.20009 -0.23202 0.9755 -0.19676 -0.22461 0.96902 -0.19343 -0.23439 0.96788 -0.19676 -0.23034 0.9708 -0.41608 -0.27935 0.78956 -0.41898 -0.28277 0.7769 -0.50239 -0.31251 0.80551 -0.50011 -0.31014 0.81583 -0.41318 -0.29168 0.7851 -0.49783 -0.31997 0.8119 -0.58622 -0.34173 0.82933 -0.58415 -0.34028 0.83941 -0.58207 -0.34943 0.83494 -0.67021 -0.3711 0.84914 -0.66818 -0.37009 0.85928 -0.66616 -0.37907 0.85445 -0.66818 -0.37342 0.85429 0 0.021821 -0.006549 -0.019409 -0.01193 -0.0001229 -0.044347 0.033451 0.14538 -0.027761 0.062296 0.1398 0.019409 -0.0098907 0.0066719 -0.011175 0.035247 0.15127 -0.069281 0.078824 0.2862 -0.055522 0.10276 0.28141 -0.041763 0.080407 0.29121 -0.094219 0.12421 0.42231 -0.083282 0.14323 0.41836 -0.072346 0.12555 0.42641 -0.11917 0.1696 0.55371 -0.11104 0.18374 0.55073 -0.10292 0.17063 0.5568 -0.11104 0.18309 0.54259 -0.12198 0.16629 0.55619 -0.17901 0.26726 0.63088 -0.17021 0.28064 0.61969 -0.1001 0.17459 0.56246 -0.1614 0.27411 0.63587 -0.23603 0.36823 0.70004 -0.22937 0.37814 0.69119 -0.22271 0.3737 0.70371 -0.29318 0.46912 0.76349 -0.28853 0.47595 0.75718 -0.28389 0.47304 0.76601 -0.28853 0.47685 0.7549 -0.29385 0.47497 0.76835 -0.23367 0.52938 0.79813 -0.22941 0.5306 0.78722 -0.28322 0.46628 0.76343 -0.22515 0.52222 0.7943 -0.174 0.5841 0.82499 -0.17029 0.58465 0.8153 -0.16657 0.57753 0.82189 -0.11486 0.63893 0.84898 -0.11116 0.6392 0.83927 -0.10747 0.63224 0.84604 -0.11116 0.63679 0.84476 -0.29085 0.4727 0.75476 -0.28715 0.46594 0.76589 -0.37817 0.46393 0.79332 -0.38097 0.46938 0.78429 -0.2876 0.47947 0.76603 -0.37853 0.47484 0.79342 -0.46902 0.46087 0.8175 -0.47135 0.46606 0.80881 -0.46938 0.47125 0.81759 -0.55976 0.45755 0.83799 -0.56193 0.46274 0.82925 -0.56013 0.46793 0.83807 -0.56061 0.46274 0.8351 -0.11104 0.18892 0.55872 -0.12271 0.16558 0.55686 -0.0605 0.12849 0.66769 -0.051134 0.14734 0.66926 -0.09938 0.16947 0.54567 -0.041768 0.13176 0.65853 0.0017235 0.091389 0.77314 0.008775 0.10574 0.77445 0.015827 0.094079 0.76598 0.063881 0.054358 0.87318 0.068684 0.064196 0.87412 0.073487 0.056276 0.86821 0.068684 0.066545 0.86634 0.063643 0.057997 0.88038 0.12887 0.083927 0.91747 0.13286 0.090567 0.90596 0.073725 0.050288 0.86878 0.13685 0.077463 0.90814 0.19411 0.10993 0.95135 0.19703 0.11455 0.94233 0.19994 0.10461 0.94435 0.25839 0.13578 0.98358 0.2612 0.1401 0.97456 0.26401 0.13033 0.97675 0.2612 0.1354 0.9783 0.068684 0.063629 0.87795 0.061866 0.056917 0.86762 0.041952 -0.0050534 0.92292 0.047448 0.00021376 0.93135 0.075503 0.054284 0.86993 0.052944 -0.0072345 0.92477 0.021192 -0.067136 0.97421 0.026212 -0.062602 0.9821 0.031232 -0.06924 0.97588 -4.0149e-05 -0.12937 1.0218 0.0049753 -0.12499 1.0298 0.0099907 -0.13153 1.0234 0.0049753 -0.12863 1.025</float_array><technique_common><accessor source="#BUSH_4-pos-a" count="712" stride="3"><param name="X" type="float"/><param name="Y" type="float"/><param name="Z" type="float"/></accessor></technique_common></source>
        <source id="BUSH_4-nrm"><float_array id="BUSH_4-nrm-a" count="2136">-0.031 0.021 -0.999 0.703 -0.508 -0.498 -0.297 -0.81 -0.505 0.686 0.546 -0.48 -0.852 0.011 -0.523 -0.268 0.825 -0.497 0.871 0.03 0.49 0.268 -0.831 0.488 -0.728 -0.513 0.455 -0.719 0.532 0.447 0.264 0.841 0.472 0.013 0.023 1 -0.037 0.001 -0.999 0.657 -0.515 -0.551 -0.293 -0.774 -0.562 0.65 0.575 -0.498 -0.804 -0.038 -0.593 -0.198 0.817 -0.541 0.875 0.052 0.482 0.23 -0.861 0.454 -0.718 -0.552 0.425 -0.702 0.573 0.422 0.284 0.823 0.493 0.022 0.025 0.999 0.008 0.025 -1 0.707 -0.538 -0.458 -0.247 -0.856 -0.454 0.693 0.547 -0.47 -0.883 0.05 -0.466 -0.27 0.857 -0.44 0.9 -0.006 0.435 0.281 -0.854 0.437 -0.727 -0.517 0.451 -0.7 0.57 0.431 0.245 0.873 0.421 -0 0.01 1 -0.029 0.076 -0.997 0.75 -0.502 -0.431 -0.322 -0.841 -0.434 0.704 0.556 -0.442 -0.891 0.038 -0.453 -0.272 0.835 -0.478 0.892 0.017 0.451 0.276 -0.825 0.493 -0.729 -0.518 0.448 -0.74 0.533 0.41 0.3 0.862 0.409 0.024 -0.021 1 -0.025 0.005 -1 0.689 -0.556 -0.465 -0.305 -0.858 -0.414 0.691 0.555 -0.462 -0.89 -0.03 -0.456 -0.268 0.843 -0.467 0.892 -0.011 0.452 0.226 -0.862 0.454 -0.708 -0.544 0.45 -0.744 0.517 0.423 0.252 0.862 0.441 -0.025 -0.028 0.999 0.033 -0.055 -0.998 0.655 -0.534 -0.534 -0.207 -0.83 -0.518 0.71 0.475 -0.52 -0.865 -0.035 -0.5 -0.235 0.829 -0.508 0.9 -0.021 0.435 0.281 -0.868 0.41 -0.685 -0.566 0.458 -0.69 0.536 0.487 0.274 0.845 0.459 -0.006 0.003 1 -0.1 0.041 -0.994 0.666 -0.566 -0.486 -0.304 -0.817 -0.49 0.65 0.567 -0.506 -0.836 0.049 -0.547 -0.324 0.782 -0.532 0.871 -0.036 0.49 0.25 -0.849 0.465 -0.743 -0.527 0.412 -0.75 0.558 0.355 0.198 0.883 0.426 -0.005 -0.02 1 0.027 -0.005 -1 0.669 -0.504 -0.546 -0.294 -0.848 -0.441 0.692 0.51 -0.511 -0.899 -0.047 -0.435 -0.244 0.836 -0.491 0.883 -0.016 0.469 0.252 -0.83 0.497 -0.639 -0.489 0.594 -0.696 0.484 0.531 0.253 0.817 0.518 -0.035 -0.016 0.999 0.012 0.031 -0.999 0.753 -0.476 -0.454 -0.247 -0.829 -0.502 0.732 0.481 -0.482 -0.836 0.008 -0.548 -0.23 0.797 -0.559 0.901 -0.017 0.433 0.346 -0.82 0.456 -0.709 -0.556 0.434 -0.735 0.546 0.402 0.359 0.84 0.407 0.091 -0.037 0.995 -0.049 0 -0.999 0.687 -0.535 -0.492 -0.278 -0.804 -0.526 0.673 0.596 -0.438 -0.87 0.001 -0.493 -0.244 0.851 -0.464 0.847 0.061 0.528 0.225 -0.869 0.44 -0.709 -0.552 0.439 -0.671 0.585 0.456 0.211 0.857 0.47 -0.004 0.06 0.998 0.033 0.073 -0.997 0.752 -0.458 -0.473 -0.306 -0.834 -0.459 0.715 0.504 -0.484 -0.908 0.05 -0.417 -0.255 0.848 -0.465 0.921 0.051 0.385 0.271 -0.845 0.461 -0.761 -0.47 0.447 -0.752 0.508 0.42 0.276 0.885 0.374 -0.048 0.023 0.999 -0.001 0.004 -1 0.717 -0.473 -0.512 -0.329 -0.819 -0.47 0.717 0.476 -0.509 -0.878 -0.046 -0.477 -0.272 0.799 -0.537 0.904 -0.006 0.428 0.265 -0.854 0.448 -0.732 -0.502 0.461 -0.771 0.474 0.425 0.306 0.85 0.429 -0.023 -0.036 0.999 -0.028 0.008 -1 0.691 -0.538 -0.483 -0.258 -0.826 -0.501 0.694 0.5 -0.517 -0.869 0.056 -0.491 -0.333 0.801 -0.498 0.869 -0.046 0.493 0.275 -0.83 0.485 -0.731 -0.492 0.473 -0.717 0.522 0.462 0.222 0.853 0.472 -0.023 -0.009 1 0.008 0.067 -0.998 0.756 -0.455 -0.47 -0.29 -0.82 -0.494 0.691 0.548 -0.472 -0.863 0.041 -0.504 -0.246 0.831 -0.499 0.92 0.041 0.391 0.309 -0.848 0.432 -0.754 -0.519 0.402 -0.74 0.557 0.376 0.324 0.872 0.366 0.033 0.008 0.999 -0.016 -0.037 -0.999 0.667 -0.559 -0.493 -0.275 -0.857 -0.435 0.693 0.577 -0.433 -0.876 -0.075 -0.476 -0.225 0.876 -0.427 0.881 0.057 0.469 0.222 -0.876 0.428 -0.672 -0.603 0.431 -0.715 0.519 0.467 0.237 0.862 0.448 -0.009 0.044 0.999 0.03 -0.022 -0.999 0.714 -0.487 -0.502 -0.271 -0.823 -0.498 0.729 0.467 -0.5 -0.884 -0.032 -0.465 -0.265 0.828 -0.495 0.879 -0 0.477 0.27 -0.836 0.477 -0.698 -0.509 0.503 -0.707 0.474 0.525 0.298 0.817 0.493 -0.01 -0.009 1 0.037 -0.038 -0.999 0.671 -0.561 -0.485 -0.185 -0.855 -0.485 0.746 0.507 -0.431 -0.902 0.033 -0.431 -0.257 0.875 -0.411 0.875 -0.043 0.482 0.312 -0.851 0.422 -0.683 -0.532 0.501 -0.62 0.576 0.533 0.222 0.832 0.509 0.008 0.041 0.999 -0.013 0.035 -0.999 0.751 -0.497 -0.435 -0.354 -0.839 -0.413 0.734 0.53 -0.424 -0.912 -0.01 -0.409 -0.281 0.843 -0.46 0.892 0.027 0.451 0.23 -0.829 0.509 -0.758 -0.467 0.455 -0.743 0.492 0.454 0.308 0.837 0.453 -0.009 -0.021 1 -0.004 -0.025 -1 0.711 -0.577 -0.402 -0.22 -0.87 -0.442 0.75 0.542 -0.381 -0.911 0.039 -0.41 -0.292 0.882 -0.37 0.844 -0.028 0.535 0.287 -0.839 0.463 -0.697 -0.526 0.487 -0.638 0.566 0.523 0.215 0.825 0.522 0.012 0.034 0.999 0.037 -0.05 -0.998 0.691 -0.549 -0.47 -0.21 -0.861 -0.464 0.744 0.472 -0.473 -0.875 -0.032 -0.483 -0.26 0.84 -0.477 0.896 -0.065 0.439 0.308 -0.851 0.425 -0.685 -0.562 0.463 -0.714 0.516 0.474 0.291 0.829 0.478 0.024 -0.031 0.999 0.061 0.042 -0.997 0.734 -0.503 -0.457 -0.256 -0.867 -0.428 0.705 0.562 -0.434 -0.892 0.003 -0.452 -0.177 0.886 -0.428 0.887 0.06 0.457 0.254 -0.836 0.486 -0.678 -0.538 0.501 -0.661 0.557 0.502 0.306 0.848 0.433 0.009 0.02 1 -0.043 -0.047 -0.998 0.684 -0.537 -0.493 -0.305 -0.809 -0.503 0.729 0.505 -0.462 -0.862 -0.051 -0.505 -0.309 0.82 -0.481 0.868 -0.021 0.495 0.252 -0.858 0.448 -0.734 -0.525 0.431 -0.75 0.478 0.458 0.264 0.815 0.516 -0.006 -0.007 1 -0.008 -0.053 -0.999 0.722 -0.543 -0.43 -0.306 -0.872 -0.382 0.755 0.505 -0.419 -0.918 -0.074 -0.389 -0.306 0.84 -0.448 0.892 -0.059 0.448 0.246 -0.862 0.443 -0.721 -0.512 0.467 -0.757 0.471 0.453 0.279 0.824 0.493 -0.029 -0.059 0.998 0.051 0.023 -0.998 0.762 -0.456 -0.46 -0.302 -0.847 -0.437 0.745 0.5 -0.441 -0.921 -0.008 -0.389 -0.255 0.856 -0.449 0.911 0.033 0.41 0.262 -0.84 0.475 -0.744 -0.477 0.468 -0.743 0.471 0.475 0.299 0.844 0.445 -0.051 0.002 0.999 -0.016 0.063 -0.998 0.728 -0.499 -0.47 -0.289 -0.833 -0.472 0.687 0.551 -0.474 -0.876 0.079 -0.475 -0.284 0.837 -0.467 0.895 0.016 0.446 0.294 -0.836 0.463 -0.751 -0.481 0.453 -0.719 0.567 0.403 0.242 0.878 0.414 -0.008 0.026 1 -0.011 0.046 -0.999 0.722 -0.546 -0.426 -0.301 -0.875 -0.379 0.688 0.577 -0.44 -0.905 0.001 -0.426 -0.249 0.864 -0.438 0.884 -0.002 0.468 0.214 -0.857 0.469 -0.689 -0.56 0.46 -0.727 0.523 0.444 0.267 0.871 0.412 -0.02 -0.047 0.999 0.002 0.053 -0.999 0.721 -0.499 -0.481 -0.323 -0.826 -0.462 0.696 0.515 -0.5 -0.903 0.029 -0.428 -0.294 0.811 -0.507 0.899 0.011 0.438 0.236 -0.857 0.457 -0.751 -0.483 0.45 -0.762 0.498 0.415 0.24 0.891 0.386 -0.063 -0.01 0.998 0.012 -0.008 -1 0.664 -0.515 -0.541 -0.284 -0.823 -0.492 0.672 0.506 -0.541 -0.872 -0.041 -0.487 -0.246 0.805 -0.541 0.916 -0.01 0.4 0.223 -0.893 0.391 -0.715 -0.555 0.425 -0.743 0.524 0.417 0.266 0.883 0.387 -0.043 -0.033 0.999 -0.051 -0.006 -0.999 0.693 -0.61 -0.384 -0.288 -0.875 -0.389 0.726 0.541 -0.423 -0.908 0.03 -0.417 -0.339 0.857 -0.387 0.866 -0.058 0.496 0.253 -0.855 0.453 -0.721 -0.523 0.455 -0.727 0.535 0.431 0.208 0.855 0.476 -0.011 -0.024 1 -0 0.949 -0.315 -0.866 -0.466 0.182 -0.865 -0.467 0.185 -0 0.948 -0.319 0.866 -0.462 0.193 0.864 -0.463 0.197 -0.865 -0.465 0.191 -0 0.944 -0.329 0.864 -0.46 0.203 -0.865 -0.463 0.197 -0 0.941 -0.339 0.864 -0.458 0.209 -0.866 -0.459 0.199 -0 0.939 -0.344 0.866 -0.454 0.211 -0.008 0.569 -0.822 -0.818 -0.512 0.261 -0.814 -0.512 0.275 -0.004 0.555 -0.832 0.81 -0.02 0.586 0.805 -0.012 0.593 -0.812 -0.508 0.287 -0.001 0.523 -0.852 0.802 0.011 0.598 -0.815 -0.504 0.285 -0 0.504 -0.864 0.804 0.026 0.594 -0.012 0.333 -0.943 -0.659 -0.692 0.294 -0.65 -0.691 0.316 -0.005 0.308 -0.951 0.65 0.383 0.657 0.647 0.391 0.654 -0.645 -0.683 0.342 0.004 0.259 -0.966 0.643 0.421 0.639 -0.17 -0.966 0.193 0.375 -0.207 -0.904 0.904 -0.035 0.425 0.666 -0.726 -0.171 0.013 0.842 -0.539 -0.561 -0.056 0.826 -0.556 -0.044 0.83 0.002 0.834 -0.551 0.576 -0.773 -0.266 0.561 -0.787 -0.257 -0.541 -0.013 0.841 -0.007 0.814 -0.581 0.541 -0.804 -0.247 -0.879 -0.201 0.432 -0.441 0.46 -0.771 0.009 -0.878 -0.479 -0.787 -0.372 -0.491 0.003 0.744 0.668 -0.841 -0.513 -0.172 -0.844 -0.508 -0.172 0.002 0.734 0.679 0.851 -0.27 -0.451 0.853 -0.259 -0.454 -0.843 -0.506 -0.18 0.004 0.714 0.7 0.851 -0.243 -0.465 -0.839 -0.509 -0.19 0.007 0.704 0.711 0.847 -0.238 -0.475 -0.005 0.43 0.903 -0.74 0.186 -0.646 -0.738 0.21 -0.642 -0.002 0.415 0.91 0.719 -0.652 -0.239 0.725 -0.644 -0.242 -0.727 0.248 -0.64 -0.002 0.383 0.924 0.728 -0.632 -0.266 -0.291 0.648 -0.704 0.303 0.735 0.606 0.909 -0.092 -0.406 0.553 0.776 -0.303 0.013 0.793 0.609 -0.464 -0.84 0.283 -0.461 -0.842 0.279 0.007 0.779 0.627 0.501 0.026 -0.865 0.488 0.05 -0.872 -0.452 -0.856 0.251 0.004 0.756 0.654 0.457 0.096 -0.884 -0.847 -0.53 -0.022 -0.472 0.813 0.341 -0.11 0.288 -0.951 -0.859 0.343 -0.38 0.004 0.963 -0.27 -0.849 -0.428 0.31 -0.848 -0.427 0.315 0.003 0.962 -0.274 0.856 -0.516 0.021 0.854 -0.519 0.022 -0.846 -0.423 0.324 0.003 0.959 -0.283 0.854 -0.52 0.023 -0.845 -0.418 0.333 0.002 0.957 -0.292 0.853 -0.521 0.025 -0.845 -0.414 0.338 0.004 0.955 -0.297 0.855 -0.519 0.024 -0.001 0.512 -0.859 -0.866 -0.252 0.432 -0.862 -0.247 0.443 -0 0.497 -0.868 0.865 -0.213 0.454 0.861 -0.208 0.464 -0.862 -0.232 0.451 -0 0.464 -0.886 0.861 -0.192 0.472 -0.866 -0.222 0.448 -0 0.446 -0.895 0.865 -0.18 0.468 -0.007 0.233 -0.972 -0.809 -0.408 0.422 -0.803 -0.405 0.437 -0.003 0.208 -0.978 0.804 0.207 0.557 0.801 0.211 0.561 -0.802 -0.394 0.449 0.002 0.162 -0.987 0.8 0.23 0.554 -0.467 -0.832 0.3 0.207 -0.393 -0.896 0.873 -0.307 0.38 0.368 -0.921 -0.13 0.012 0.85 0.527 -0.471 -0.805 0.361 -0.468 -0.808 0.358 0.006 0.839 0.545 0.507 -0.061 -0.86 0.492 -0.041 -0.87 -0.457 -0.823 0.338 0.002 0.822 0.57 0.461 -0.001 -0.888 -0.849 -0.528 0.033 -0.471 0.846 0.248 -0.106 0.182 -0.978 -0.857 0.301 -0.419 -0.001 0.598 0.801 -0.866 -0.282 -0.413 -0.869 -0.271 -0.413 -0.001 0.585 0.811 0.862 -0.371 -0.345 0.866 -0.362 -0.344 -0.869 -0.256 -0.423 -0.002 0.557 0.83 0.867 -0.351 -0.355 -0.865 -0.253 -0.433 -0.002 0.543 0.84 0.863 -0.349 -0.366 -0.01 0.967 -0.254 -0.785 -0.581 -0.216 -0.777 -0.589 -0.221 -0.003 0.965 -0.261 0.768 -0.371 0.522 0.766 -0.368 0.528 -0.766 -0.598 -0.236 0.003 0.959 -0.282 0.762 -0.361 0.538 -0.37 -0.643 -0.671 0.265 0.65 -0.712 0.897 -0.441 -0.015 0.476 -0.261 -0.84 0.005 0.345 0.938 -0.771 -0.547 -0.327 -0.778 -0.536 -0.329 0.003 0.331 0.944 0.791 0.154 -0.593 0.79 0.176 -0.587 -0.782 -0.517 -0.349 0.002 0.3 0.954 0.782 0.212 -0.586 -0.893 0.054 -0.446 -0.242 0.713 0.658 0.399 0.665 -0.632 -0.443 0.86 -0.252 -0.003 0.95 0.312 -0.857 -0.44 -0.268 -0.857 -0.438 -0.272 -0.002 0.949 0.317 0.849 -0.528 0.017 0.85 -0.526 0.018 -0.856 -0.434 -0.28 -0.003 0.945 0.326 0.849 -0.528 0.018 -0.856 -0.43 -0.288 -0.003 0.942 0.337 0.848 -0.529 0.018 -0.854 -0.429 -0.293 -0.005 0.94 0.342 0.846 -0.533 0.017 0.018 0.999 -0.038 -0.606 -0.464 0.647 -0.598 -0.459 0.657 0.013 0.999 -0.034 0.641 -0.532 -0.553 0.631 -0.537 -0.559 -0.578 -0.456 0.677 0.013 0.999 -0.037 0.614 -0.54 -0.575 -0.566 -0.458 0.685 0.019 0.999 -0.045 0.607 -0.538 -0.586 -0.006 0.637 0.771 -0.819 -0.109 -0.564 -0.818 -0.09 -0.568 -0.003 0.626 0.78 0.8 -0.577 -0.165 0.805 -0.57 -0.166 -0.81 -0.057 -0.584 -0.002 0.608 0.794 0.807 -0.56 -0.186 -0.46 0.376 -0.804 0.205 0.912 0.357 0.877 -0.052 -0.478 0.373 0.742 -0.556 0.024 0.906 -0.423 -0.32 -0.103 0.942 -0.311 -0.083 0.947 0.015 0.9 -0.435 0.359 -0.791 -0.495 0.34 -0.809 -0.479 -0.292 -0.04 0.956 0.001 0.879 -0.477 0.304 -0.836 -0.457 -0.759 -0.109 0.642 -0.527 0.622 -0.578 -0.285 -0.797 -0.532 -0.944 -0.171 -0.282 -0.011 0.911 0.412 -0.583 -0.199 -0.788 -0.573 -0.188 -0.798 -0.008 0.904 0.427 0.553 -0.726 0.409 0.546 -0.728 0.414 -0.551 -0.163 -0.818 -0.01 0.894 0.448 0.53 -0.742 0.411 -0.539 -0.149 -0.829 -0.015 0.892 0.452 0.519 -0.754 0.401 0.012 0.967 -0.255 -0.584 -0.312 0.75 -0.58 -0.304 0.756 0.001 0.965 -0.261 0.603 -0.647 -0.466 0.587 -0.659 -0.47 -0.565 -0.29 0.773 -0.006 0.96 -0.28 0.563 -0.672 -0.481 -0.887 -0.341 0.312 -0.428 0.69 -0.584 0.037 -0.665 -0.746 -0.768 -0.19 -0.612 -0.009 0.663 0.749 -0.391 0.243 -0.888 -0.376 0.279 -0.884 -0.003 0.637 0.771 0.356 -0.922 0.153 0.357 -0.924 0.136 -0.347 0.344 -0.873 -0.002 0.59 0.807 0.349 -0.933 0.082 0.233 0.488 -0.841 0.505 0.653 0.565 0.795 -0.601 -0.083 0.921 0.324 -0.216 -0.004 0.964 -0.267 -0.855 -0.518 0.015 -0.854 -0.52 0.016 -0.003 0.963 -0.271 0.848 -0.428 0.313 0.847 -0.427 0.318 -0.853 -0.521 0.017 -0.003 0.96 -0.28 0.845 -0.423 0.327 -0.852 -0.523 0.018 -0.003 0.957 -0.288 0.844 -0.418 0.336 -0.854 -0.52 0.018 -0.004 0.956 -0.293 0.844 -0.414 0.341 -0.011 0.616 -0.788 -0.789 -0.585 0.188 -0.784 -0.587 0.203 -0.007 0.603 -0.798 0.775 0.011 0.632 0.769 0.021 0.639 -0.782 -0.585 0.217 -0.004 0.574 -0.819 0.763 0.048 0.644 -0.785 -0.581 0.216 -0.004 0.557 -0.83 0.763 0.067 0.643 0.018 0.501 -0.865 -0.62 0.287 0.73 -0.616 0.298 0.729 0.009 0.481 -0.877 0.641 -0.751 0.156 0.632 -0.755 0.177 -0.612 0.33 0.719 -0.002 0.434 -0.901 0.62 -0.758 0.202 -0.9 -0.069 0.431 -0.395 -0.022 -0.918 0.124 -0.992 0.012 -0.703 -0.651 -0.286 -0.311 -0.001 -0.95 0.162 -0.866 0.473 0.161 -0.861 0.482 -0.287 -0 -0.958 0.104 0.865 0.491 0.103 0.861 0.499 0.15 -0.861 0.486 -0.241 0 -0.971 0.09 0.861 0.501 0.657 -0.7 0.278 0.358 0.02 -0.934 0.607 0.74 0.29 0.975 0.036 -0.22 0.009 0.937 0.348 -0.761 -0.609 0.224 -0.76 -0.608 0.229 0.005 0.934 0.357 0.783 -0.348 -0.516 0.779 -0.342 -0.525 -0.753 -0.615 0.234 0.008 0.928 0.372 0.772 -0.33 -0.543 -0.746 -0.623 0.233 0.014 0.926 0.378 0.767 -0.325 -0.553 0.023 0.838 -0.546 -0.49 -0.014 0.872 -0.478 0.002 0.878 0.017 0.832 -0.555 0.525 -0.8 -0.291 0.515 -0.812 -0.275 -0.466 0.036 0.884 0.004 0.807 -0.59 0.488 -0.832 -0.263 -0.854 -0.142 0.501 -0.47 0.469 -0.748 -0.074 -0.887 -0.456 -0.841 -0.337 -0.423 -0.003 0.645 0.764 -0.844 -0.18 -0.505 -0.845 -0.161 -0.51 -0.001 0.636 0.771 0.833 -0.505 -0.224 0.839 -0.495 -0.227 -0.84 -0.134 -0.525 -0 0.618 0.786 0.841 -0.484 -0.244 -0.55 0.322 -0.771 0.143 0.931 0.336 0.841 0.024 -0.54 0.261 0.767 -0.586</float_array><technique_common><accessor source="#BUSH_4-nrm-a" count="712" stride="3"><param name="X" type="float"/><param name="Y" type="float"/><param name="Z" type="float"/></accessor></technique_common></source>
        <vertices id="BUSH_4-vtx"><input semantic="POSITION" source="#BUSH_4-pos"/></vertices>
        <triangles count="580" material="MAT_BUSH_3-mat"><input semantic="VERTEX" source="#BUSH_4-vtx" offset="0"/><input semantic="NORMAL" source="#BUSH_4-nrm" offset="1"/><p>0 0 1 1 2 2 1 1 0 0 3 3 0 0 2 2 4 4 0 0 4 4 5 5 0 0 5 5 3 3 1 1 3 3 6 6 2 2 1 1 7 7 4 4 2 2 8 8 5 5 4 4 9 9 3 3 5 5 10 10 1 1 6 6 7 7 2 2 7 7 8 8 4 4 8 8 9 9 5 5 9 9 10 10 3 3 10 10 6 6 7 7 6 6 11 11 8 8 7 7 11 11 9 9 8 8 11 11 10 10 9 9 11 11 6 6 10 10 11 11 12 12 13 13 14 14 13 13 12 12 15 15 12 12 14 14 16 16 12 12 16 16 17 17 12 12 17 17 15 15 13 13 15 15 18 18 14 14 13 13 19 19 16 16 14 14 20 20 17 17 16 16 21 21 15 15 17 17 22 22 13 13 18 18 19 19 14 14 19 19 20 20 16 16 20 20 21 21 17 17 21 21 22 22 15 15 22 22 18 18 19 19 18 18 23 23 20 20 19 19 23 23 21 21 20 20 23 23 22 22 21 21 23 23 18 18 22 22 23 23 24 24 25 25 26 26 25 25 24 24 27 27 24 24 26 26 28 28 24 24 28 28 29 29 24 24 29 29 27 27 25 25 27 27 30 30 26 26 25 25 31 31 28 28 26 26 32 32 29 29 28 28 33 33 27 27 29 29 34 34 25 25 30 30 31 31 26 26 31 31 32 32 28 28 32 32 33 33 29 29 33 33 34 34 27 27 34 34 30 30 31 31 30 30 35 35 32 32 31 31 35 35 33 33 32 32 35 35 34 34 33 33 35 35 30 30 34 34 35 35 36 36 37 37 38 38 37 37 36 36 39 39 36 36 38 38 40 40 36 36 40 40 41 41 36 36 41 41 39 39 37 37 39 39 42 42 38 38 37 37 43 43 40 40 38 38 44 44 41 41 40 40 45 45 39 39 41 41 46 46 37 37 42 42 43 43 38 38 43 43 44 44 40 40 44 44 45 45 41 41 45 45 46 46 39 39 46 46 42 42 43 43 42 42 47 47 44 44 43 43 47 47 45 45 44 44 47 47 46 46 45 45 47 47 42 42 46 46 47 47 48 48 49 49 50 50 49 49 48 48 51 51 48 48 50 50 52 52 48 48 52 52 53 53 48 48 53 53 51 51 49 49 51 51 54 54 50 50 49 49 55 55 52 52 50 50 56 56 53 53 52 52 57 57 51 51 53 53 58 58 49 49 54 54 55 55 50 50 55 55 56 56 52 52 56 56 57 57 53 53 57 57 58 58 51 51 58 58 54 54 55 55 54 54 59 59 56 56 55 55 59 59 57 57 56 56 59 59 58 58 57 57 59 59 54 54 58 58 59 59 60 60 61 61 62 62 61 61 60 60 63 63 60 60 62 62 64 64 60 60 64 64 65 65 60 60 65 65 63 63 61 61 63 63 66 66 62 62 61 61 67 67 64 64 62 62 68 68 65 65 64 64 69 69 63 63 65 65 70 70 61 61 66 66 67 67 62 62 67 67 68 68 64 64 68 68 69 69 65 65 69 69 70 70 63 63 70 70 66 66 67 67 66 66 71 71 68 68 67 67 71 71 69 69 68 68 71 71 70 70 69 69 71 71 66 66 70 70 71 71 72 72 73 73 74 74 73 73 72 72 75 75 72 72 74 74 76 76 72 72 76 76 77 77 72 72 77 77 75 75 73 73 75 75 78 78 74 74 73 73 79 79 76 76 74 74 80 80 77 77 76 76 81 81 75 75 77 77 82 82 73 73 78 78 79 79 74 74 79 79 80 80 76 76 80 80 81 81 77 77 81 81 82 82 75 75 82 82 78 78 79 79 78 78 83 83 80 80 79 79 83 83 81 81 80 80 83 83 82 82 81 81 83 83 78 78 82 82 83 83 84 84 85 85 86 86 85 85 84 84 87 87 84 84 86 86 88 88 84 84 88 88 89 89 84 84 89 89 87 87 85 85 87 87 90 90 86 86 85 85 91 91 88 88 86 86 92 92 89 89 88 88 93 93 87 87 89 89 94 94 85 85 90 90 91 91 86 86 91 91 92 92 88 88 92 92 93 93 89 89 93 93 94 94 87 87 94 94 90 90 91 91 90 90 95 95 92 92 91 91 95 95 93 93 92 92 95 95 94 94 93 93 95 95 90 90 94 94 95 95 96 96 97 97 98 98 97 97 96 96 99 99 96 96 98 98 100 100 96 96 100 100 101 101 96 96 101 101 99 99 97 97 99 99 102 102 98 98 97 97 103 103 100 100 98 98 104 104 101 101 100 100 105 105 99 99 101 101 106 106 97 97 102 102 103 103 98 98 103 103 104 104 100 100 104 104 105 105 101 101 105 105 106 106 99 99 106 106 102 102 103 103 102 102 107 107 104 104 103 103 107 107 105 105 104 104 107 107 106 106 105 105 107 107 102 102 106 106 107 107 108 108 109 109 110 110 109 109 108 108 111 111 108 108 110 110 112 112 108 108 112 112 113 113 108 108 113 113 111 111 109 109 111 111 114 114 110 110 109 109 115 115 112 112 110 110 116 116 113 113 112 112 117 117 111 111 113 113 118 118 109 109 114 114 115 115 110 110 115 115 116 116 112 112 116 116 117 117 113 113 117 117 118 118 111 111 118 118 114 114 115 115 114 114 119 119 116 116 115 115 119 119 117 117 116 116 119 119 118 118 117 117 119 119 114 114 118 118 119 119 120 120 121 121 122 122 121 121 120 120 123 123 120 120 122 122 124 124 120 120 124 124 125 125 120 120 125 125 123 123 121 121 123 123 126 126 122 122 121 121 127 127 124 124 122 122 128 128 125 125 124 124 129 129 123 123 125 125 130 130 121 121 126 126 127 127 122 122 127 127 128 128 124 124 128 128 129 129 125 125 129 129 130 130 123 123 130 130 126 126 127 127 126 126 131 131 128 128 127 127 131 131 129 129 128 128 131 131 130 130 129 129 131 131 126 126 130 130 131 131 132 132 133 133 134 134 133 133 132 132 135 135 132 132 134 134 136 136 132 132 136 136 137 137 132 132 137 137 135 135 133 133 135 135 138 138 134 134 133 133 139 139 136 136 134 134 140 140 137 137 136 136 141 141 135 135 137 137 142 142 133 133 138 138 139 139 134 134 139 139 140 140 136 136 140 140 141 141 137 137 141 141 142 142 135 135 142 142 138 138 139 139 138 138 143 143 140 140 139 139 143 143 141 141 140 140 143 143 142 142 141 141 143 143 138 138 142 142 143 143 144 144 145 145 146 146 145 145 144 144 147 147 144 144 146 146 148 148 144 144 148 148 149 149 144 144 149 149 147 147 145 145 147 147 150 150 146 146 145 145 151 151 148 148 146 146 152 152 149 149 148 148 153 153 147 147 149 149 154 154 145 145 150 150 151 151 146 146 151 151 152 152 148 148 152 152 153 153 149 149 153 153 154 154 147 147 154 154 150 150 151 151 150 150 155 155 152 152 151 151 155 155 153 153 152 152 155 155 154 154 153 153 155 155 150 150 154 154 155 155 156 156 157 157 158 158 157 157 156 156 159 159 156 156 158 158 160 160 156 156 160 160 161 161 156 156 161 161 159 159 157 157 159 159 162 162 158 158 157 157 163 163 160 160 158 158 164 164 161 161 160 160 165 165 159 159 161 161 166 166 157 157 162 162 163 163 158 158 163 163 164 164 160 160 164 164 165 165 161 161 165 165 166 166 159 159 166 166 162 162 163 163 162 162 167 167 164 164 163 163 167 167 165 165 164 164 167 167 166 166 165 165 167 167 162 162 166 166 167 167 168 168 169 169 170 170 169 169 168 168 171 171 168 168 170 170 172 172 168 168 172 172 173 173 168 168 173 173 171 171 169 169 171 171 174 174 170 170 169 169 175 175 172 172 170 170 176 176 173 173 172 172 177 177 171 171 173 173 178 178 169 169 174 174 175 175 170 170 175 175 176 176 172 172 176 176 177 177 173 173 177 177 178 178 171 171 178 178 174 174 175 175 174 174 179 179 176 176 175 175 179 179 177 177 176 176 179 179 178 178 177 177 179 179 174 174 178 178 179 179 180 180 181 181 182 182 181 181 180 180 183 183 180 180 182 182 184 184 180 180 184 184 185 185 180 180 185 185 183 183 181 181 183 183 186 186 182 182 181 181 187 187 184 184 182 182 188 188 185 185 184 184 189 189 183 183 185 185 190 190 181 181 186 186 187 187 182 182 187 187 188 188 184 184 188 188 189 189 185 185 189 189 190 190 183 183 190 190 186 186 187 187 186 186 191 191 188 188 187 187 191 191 189 189 188 188 191 191 190 190 189 189 191 191 186 186 190 190 191 191 192 192 193 193 194 194 193 193 192 192 195 195 192 192 194 194 196 196 192 192 196 196 197 197 192 192 197 197 195 195 193 193 195 195 198 198 194 194 193 193 199 199 196 196 194 194 200 200 197 197 196 196 201 201 195 195 197 197 202 202 193 193 198 198 199 199 194 194 199 199 200 200 196 196 200 200 201 201 197 197 201 201 202 202 195 195 202 202 198 198 199 199 198 198 203 203 200 200 199 199 203 203 201 201 200 200 203 203 202 202 201 201 203 203 198 198 202 202 203 203 204 204 205 205 206 206 205 205 204 204 207 207 204 204 206 206 208 208 204 204 208 208 209 209 204 204 209 209 207 207 205 205 207 207 210 210 206 206 205 205 211 211 208 208 206 206 212 212 209 209 208 208 213 213 207 207 209 209 214 214 205 205 210 210 211 211 206 206 211 211 212 212 208 208 212 212 213 213 209 209 213 213 214 214 207 207 214 214 210 210 211 211 210 210 215 215 212 212 211 211 215 215 213 213 212 212 215 215 214 214 213 213 215 215 210 210 214 214 215 215 216 216 217 217 218 218 217 217 216 216 219 219 216 216 218 218 220 220 216 216 220 220 221 221 216 216 221 221 219 219 217 217 219 219 222 222 218 218 217 217 223 223 220 220 218 218 224 224 221 221 220 220 225 225 219 219 221 221 226 226 217 217 222 222 223 223 218 218 223 223 224 224 220 220 224 224 225 225 221 221 225 225 226 226 219 219 226 226 222 222 223 223 222 222 227 227 224 224 223 223 227 227 225 225 224 224 227 227 226 226 225 225 227 227 222 222 226 226 227 227 228 228 229 229 230 230 229 229 228 228 231 231 228 228 230 230 232 232 228 228 232 232 233 233 228 228 233 233 231 231 229 229 231 231 234 234 230 230 229 229 235 235 232 232 230 230 236 236 233 233 232 232 237 237 231 231 233 233 238 238 229 229 234 234 235 235 230 230 235 235 236 236 232 232 236 236 237 237 233 233 237 237 238 238 231 231 238 238 234 234 235 235 234 234 239 239 236 236 235 235 239 239 237 237 236 236 239 239 238 238 237 237 239 239 234 234 238 238 239 239 240 240 241 241 242 242 241 241 240 240 243 243 240 240 242 242 244 244 240 240 244 244 245 245 240 240 245 245 243 243 241 241 243 243 246 246 242 242 241 241 247 247 244 244 242 242 248 248 245 245 244 244 249 249 243 243 245 245 250 250 241 241 246 246 247 247 242 242 247 247 248 248 244 244 248 248 249 249 245 245 249 249 250 250 243 243 250 250 246 246 247 247 246 246 251 251 248 248 247 247 251 251 249 249 248 248 251 251 250 250 249 249 251 251 246 246 250 250 251 251 252 252 253 253 254 254 253 253 252 252 255 255 252 252 254 254 256 256 252 252 256 256 257 257 252 252 257 257 255 255 253 253 255 255 258 258 254 254 253 253 259 259 256 256 254 254 260 260 257 257 256 256 261 261 255 255 257 257 262 262 253 253 258 258 259 259 254 254 259 259 260 260 256 256 260 260 261 261 257 257 261 261 262 262 255 255 262 262 258 258 259 259 258 258 263 263 260 260 259 259 263 263 261 261 260 260 263 263 262 262 261 261 263 263 258 258 262 262 263 263 264 264 265 265 266 266 265 265 264 264 267 267 264 264 266 266 268 268 264 264 268 268 269 269 264 264 269 269 267 267 265 265 267 267 270 270 266 266 265 265 271 271 268 268 266 266 272 272 269 269 268 268 273 273 267 267 269 269 274 274 265 265 270 270 271 271 266 266 271 271 272 272 268 268 272 272 273 273 269 269 273 273 274 274 267 267 274 274 270 270 271 271 270 270 275 275 272 272 271 271 275 275 273 273 272 272 275 275 274 274 273 273 275 275 270 270 274 274 275 275 276 276 277 277 278 278 277 277 276 276 279 279 276 276 278 278 280 280 276 276 280 280 281 281 276 276 281 281 279 279 277 277 279 279 282 282 278 278 277 277 283 283 280 280 278 278 284 284 281 281 280 280 285 285 279 279 281 281 286 286 277 277 282 282 283 283 278 278 283 283 284 284 280 280 284 284 285 285 281 281 285 285 286 286 279 279 286 286 282 282 283 283 282 282 287 287 284 284 283 283 287 287 285 285 284 284 287 287 286 286 285 285 287 287 282 282 286 286 287 287 288 288 289 289 290 290 289 289 288 288 291 291 288 288 290 290 292 292 288 288 292 292 293 293 288 288 293 293 291 291 289 289 291 291 294 294 290 290 289 289 295 295 292 292 290 290 296 296 293 293 292 292 297 297 291 291 293 293 298 298 289 289 294 294 295 295 290 290 295 295 296 296 292 292 296 296 297 297 293 293 297 297 298 298 291 291 298 298 294 294 295 295 294 294 299 299 296 296 295 295 299 299 297 297 296 296 299 299 298 298 297 297 299 299 294 294 298 298 299 299 300 300 301 301 302 302 301 301 300 300 303 303 300 300 302 302 304 304 300 300 304 304 305 305 300 300 305 305 303 303 301 301 303 303 306 306 302 302 301 301 307 307 304 304 302 302 308 308 305 305 304 304 309 309 303 303 305 305 310 310 301 301 306 306 307 307 302 302 307 307 308 308 304 304 308 308 309 309 305 305 309 309 310 310 303 303 310 310 306 306 307 307 306 306 311 311 308 308 307 307 311 311 309 309 308 308 311 311 310 310 309 309 311 311 306 306 310 310 311 311 312 312 313 313 314 314 313 313 312 312 315 315 312 312 314 314 316 316 312 312 316 316 317 317 312 312 317 317 315 315 313 313 315 315 318 318 314 314 313 313 319 319 316 316 314 314 320 320 317 317 316 316 321 321 315 315 317 317 322 322 313 313 318 318 319 319 314 314 319 319 320 320 316 316 320 320 321 321 317 317 321 321 322 322 315 315 322 322 318 318 319 319 318 318 323 323 320 320 319 319 323 323 321 321 320 320 323 323 322 322 321 321 323 323 318 318 322 322 323 323 324 324 325 325 326 326 325 325 324 324 327 327 324 324 326 326 328 328 324 324 328 328 329 329 324 324 329 329 327 327 325 325 327 327 330 330 326 326 325 325 331 331 328 328 326 326 332 332 329 329 328 328 333 333 327 327 329 329 334 334 325 325 330 330 331 331 326 326 331 331 332 332 328 328 332 332 333 333 329 329 333 333 334 334 327 327 334 334 330 330 331 331 330 330 335 335 332 332 331 331 335 335 333 333 332 332 335 335 334 334 333 333 335 335 330 330 334 334 335 335 336 336 337 337 338 338 337 337 336 336 339 339 336 336 338 338 340 340 336 336 340 340 341 341 336 336 341 341 339 339 337 337 339 339 342 342 338 338 337 337 343 343 340 340 338 338 344 344 341 341 340 340 345 345 339 339 341 341 346 346 337 337 342 342 343 343 338 338 343 343 344 344 340 340 344 344 345 345 341 341 345 345 346 346 339 339 346 346 342 342 343 343 342 342 347 347 344 344 343 343 347 347 345 345 344 344 347 347 346 346 345 345 347 347 342 342 346 346 347 347</p></triangles>
        <triangles count="576" material="MAT_BUSH_STEM-mat"><input semantic="VERTEX" source="#BUSH_4-vtx" offset="0"/><input semantic="NORMAL" source="#BUSH_4-nrm" offset="1"/><p>348 348 349 349 350 350 348 348 350 350 351 351 349 349 352 352 353 353 349 349 353 353 350 350 352 352 348 348 351 351 352 352 351 351 353 353 351 351 350 350 354 354 351 351 354 354 355 355 350 350 353 353 356 356 350 350 356 356 354 354 353 353 351 351 355 355 353 353 355 355 356 356 355 355 354 354 357 357 355 355 357 357 358 358 354 354 356 356 359 359 354 354 359 359 357 357 356 356 355 355 358 358 356 356 358 358 359 359 358 358 357 357 360 360 358 358 360 360 361 361 357 357 359 359 362 362 357 357 362 362 360 360 359 359 358 358 361 361 359 359 361 361 362 362 363 363 364 364 365 365 363 363 365 365 366 366 364 364 367 367 368 368 364 364 368 368 365 365 367 367 363 363 366 366 367 367 366 366 368 368 366 366 365 365 369 369 366 366 369 369 370 370 365 365 368 368 371 371 365 365 371 371 369 369 368 368 366 366 370 370 368 368 370 370 371 371 370 370 369 369 372 372 370 370 372 372 373 373 369 369 371 371 374 374 369 369 374 374 372 372 371 371 370 370 373 373 371 371 373 373 374 374 375 375 376 376 377 377 375 375 377 377 378 378 376 376 379 379 380 380 376 376 380 380 377 377 379 379 375 375 378 378 379 379 378 378 380 380 378 378 377 377 381 381 378 378 381 381 382 382 377 377 380 380 383 383 377 377 383 383 381 381 380 380 378 378 382 382 380 380 382 382 383 383 382 382 381 381 384 384 382 382 384 384 385 385 381 381 383 383 386 386 381 381 386 386 384 384 383 383 382 382 385 385 383 383 385 385 386 386 384 384 385 385 387 387 386 386 384 384 387 387 385 385 386 386 387 387 388 388 389 389 390 390 388 388 390 390 391 391 389 389 392 392 393 393 389 389 393 393 390 390 392 392 388 388 391 391 392 392 391 391 393 393 391 391 390 390 394 394 391 391 394 394 395 395 390 390 393 393 396 396 390 390 396 396 394 394 393 393 391 391 395 395 393 393 395 395 396 396 395 395 394 394 397 397 395 395 397 397 398 398 394 394 396 396 399 399 394 394 399 399 397 397 396 396 395 395 398 398 396 396 398 398 399 399 397 397 398 398 400 400 399 399 397 397 400 400 398 398 399 399 400 400 401 401 402 402 403 403 401 401 403 403 404 404 402 402 405 405 406 406 402 402 406 406 403 403 405 405 401 401 404 404 405 405 404 404 406 406 404 404 403 403 407 407 404 404 407 407 408 408 403 403 406 406 409 409 403 403 409 409 407 407 406 406 404 404 408 408 406 406 408 408 409 409 408 408 407 407 410 410 408 408 410 410 411 411 407 407 409 409 412 412 407 407 412 412 410 410 409 409 408 408 411 411 409 409 411 411 412 412 413 413 414 414 415 415 413 413 415 415 416 416 414 414 417 417 418 418 414 414 418 418 415 415 417 417 413 413 416 416 417 417 416 416 418 418 416 416 415 415 419 419 416 416 419 419 420 420 415 415 418 418 421 421 415 415 421 421 419 419 418 418 416 416 420 420 418 418 420 420 421 421 420 420 419 419 422 422 420 420 422 422 423 423 419 419 421 421 424 424 419 419 424 424 422 422 421 421 420 420 423 423 421 421 423 423 424 424 422 422 423 423 425 425 424 424 422 422 425 425 423 423 424 424 425 425 426 426 427 427 428 428 426 426 428 428 429 429 427 427 430 430 431 431 427 427 431 431 428 428 430 430 426 426 429 429 430 430 429 429 431 431 429 429 428 428 432 432 429 429 432 432 433 433 428 428 431 431 434 434 428 428 434 434 432 432 431 431 429 429 433 433 431 431 433 433 434 434 433 433 432 432 435 435 433 433 435 435 436 436 432 432 434 434 437 437 432 432 437 437 435 435 434 434 433 433 436 436 434 434 436 436 437 437 435 435 436 436 438 438 437 437 435 435 438 438 436 436 437 437 438 438 439 439 440 440 441 441 439 439 441 441 442 442 440 440 443 443 444 444 440 440 444 444 441 441 443 443 439 439 442 442 443 443 442 442 444 444 442 442 441 441 445 445 442 442 445 445 446 446 441 441 444 444 447 447 441 441 447 447 445 445 444 444 442 442 446 446 444 444 446 446 447 447 446 446 445 445 448 448 446 446 448 448 449 449 445 445 447 447 450 450 445 445 450 450 448 448 447 447 446 446 449 449 447 447 449 449 450 450 449 449 448 448 451 451 449 449 451 451 452 452 448 448 450 450 453 453 448 448 453 453 451 451 450 450 449 449 452 452 450 450 452 452 453 453 454 454 455 455 456 456 454 454 456 456 457 457 455 455 458 458 459 459 455 455 459 459 456 456 458 458 454 454 457 457 458 458 457 457 459 459 457 457 456 456 460 460 457 457 460 460 461 461 456 456 459 459 462 462 456 456 462 462 460 460 459 459 457 457 461 461 459 459 461 461 462 462 461 461 460 460 463 463 461 461 463 463 464 464 460 460 462 462 465 465 460 460 465 465 463 463 462 462 461 461 464 464 462 462 464 464 465 465 466 466 467 467 468 468 466 466 468 468 469 469 467 467 470 470 471 471 467 467 471 471 468 468 470 470 466 466 469 469 470 470 469 469 471 471 469 469 468 468 472 472 469 469 472 472 473 473 468 468 471 471 474 474 468 468 474 474 472 472 471 471 469 469 473 473 471 471 473 473 474 474 473 473 472 472 475 475 473 473 475 475 476 476 472 472 474 474 477 477 472 472 477 477 475 475 474 474 473 473 476 476 474 474 476 476 477 477 475 475 476 476 478 478 477 477 475 475 478 478 476 476 477 477 478 478 479 479 480 480 481 481 479 479 481 481 482 482 480 480 483 483 484 484 480 480 484 484 481 481 483 483 479 479 482 482 483 483 482 482 484 484 482 482 481 481 485 485 482 482 485 485 486 486 481 481 484 484 487 487 481 481 487 487 485 485 484 484 482 482 486 486 484 484 486 486 487 487 486 486 485 485 488 488 486 486 488 488 489 489 485 485 487 487 490 490 485 485 490 490 488 488 487 487 486 486 489 489 487 487 489 489 490 490 488 488 489 489 491 491 490 490 488 488 491 491 489 489 490 490 491 491 492 492 493 493 494 494 492 492 494 494 495 495 493 493 496 496 497 497 493 493 497 497 494 494 496 496 492 492 495 495 496 496 495 495 497 497 495 495 494 494 498 498 495 495 498 498 499 499 494 494 497 497 500 500 494 494 500 500 498 498 497 497 495 495 499 499 497 497 499 499 500 500 499 499 498 498 501 501 499 499 501 501 502 502 498 498 500 500 503 503 498 498 503 503 501 501 500 500 499 499 502 502 500 500 502 502 503 503 504 504 505 505 506 506 504 504 506 506 507 507 505 505 508 508 509 509 505 505 509 509 506 506 508 508 504 504 507 507 508 508 507 507 509 509 507 507 506 506 510 510 507 507 510 510 511 511 506 506 509 509 512 512 506 506 512 512 510 510 509 509 507 507 511 511 509 509 511 511 512 512 511 511 510 510 513 513 511 511 513 513 514 514 510 510 512 512 515 515 510 510 515 515 513 513 512 512 511 511 514 514 512 512 514 514 515 515 513 513 514 514 516 516 515 515 513 513 516 516 514 514 515 515 516 516 517 517 518 518 519 519 517 517 519 519 520 520 518 518 521 521 522 522 518 518 522 522 519 519 521 521 517 517 520 520 521 521 520 520 522 522 520 520 519 519 523 523 520 520 523 523 524 524 519 519 522 522 525 525 519 519 525 525 523 523 522 522 520 520 524 524 522 522 524 524 525 525 524 524 523 523 526 526 524 524 526 526 527 527 523 523 525 525 528 528 523 523 528 528 526 526 525 525 524 524 527 527 525 525 527 527 528 528 526 526 527 527 529 529 528 528 526 526 529 529 527 527 528 528 529 529 530 530 531 531 532 532 530 530 532 532 533 533 531 531 534 534 535 535 531 531 535 535 532 532 534 534 530 530 533 533 534 534 533 533 535 535 533 533 532 532 536 536 533 533 536 536 537 537 532 532 535 535 538 538 532 532 538 538 536 536 535 535 533 533 537 537 535 535 537 537 538 538 537 537 536 536 539 539 537 537 539 539 540 540 536 536 538 538 541 541 536 536 541 541 539 539 538 538 537 537 540 540 538 538 540 540 541 541 540 540 539 539 542 542 540 540 542 542 543 543 539 539 541 541 544 544 539 539 544 544 542 542 541 541 540 540 543 543 541 541 543 543 544 544 545 545 546 546 547 547 545 545 547 547 548 548 546 546 549 549 550 550 546 546 550 550 547 547 549 549 545 545 548 548 549 549 548 548 550 550 548 548 547 547 551 551 548 548 551 551 552 552 547 547 550 550 553 553 547 547 553 553 551 551 550 550 548 548 552 552 550 550 552 552 553 553 552 552 551 551 554 554 552 552 554 554 555 555 551 551 553 553 556 556 551 551 556 556 554 554 553 553 552 552 555 555 553 553 555 555 556 556 557 557 558 558 559 559 557 557 559 559 560 560 558 558 561 561 562 562 558 558 562 562 559 559 561 561 557 557 560 560 561 561 560 560 562 562 560 560 559 559 563 563 560 560 563 563 564 564 559 559 562 562 565 565 559 559 565 565 563 563 562 562 560 560 564 564 562 562 564 564 565 565 564 564 563 563 566 566 564 564 566 566 567 567 563 563 565 565 568 568 563 563 568 568 566 566 565 565 564 564 567 567 565 565 567 567 568 568 566 566 567 567 569 569 568 568 566 566 569 569 567 567 568 568 569 569 570 570 571 571 572 572 570 570 572 572 573 573 571 571 574 574 575 575 571 571 575 575 572 572 574 574 570 570 573 573 574 574 573 573 575 575 573 573 572 572 576 576 573 573 576 576 577 577 572 572 575 575 578 578 572 572 578 578 576 576 575 575 573 573 577 577 575 575 577 577 578 578 577 577 576 576 579 579 577 577 579 579 580 580 576 576 578 578 581 581 576 576 581 581 579 579 578 578 577 577 580 580 578 578 580 580 581 581 579 579 580 580 582 582 581 581 579 579 582 582 580 580 581 581 582 582 583 583 584 584 585 585 583 583 585 585 586 586 584 584 587 587 588 588 584 584 588 588 585 585 587 587 583 583 586 586 587 587 586 586 588 588 586 586 585 585 589 589 586 586 589 589 590 590 585 585 588 588 591 591 585 585 591 591 589 589 588 588 586 586 590 590 588 588 590 590 591 591 590 590 589 589 592 592 590 590 592 592 593 593 589 589 591 591 594 594 589 589 594 594 592 592 591 591 590 590 593 593 591 591 593 593 594 594 595 595 596 596 597 597 595 595 597 597 598 598 596 596 599 599 600 600 596 596 600 600 597 597 599 599 595 595 598 598 599 599 598 598 600 600 598 598 597 597 601 601 598 598 601 601 602 602 597 597 600 600 603 603 597 597 603 603 601 601 600 600 598 598 602 602 600 600 602 602 603 603 602 602 601 601 604 604 602 602 604 604 605 605 601 601 603 603 606 606 601 601 606 606 604 604 603 603 602 602 605 605 603 603 605 605 606 606 604 604 605 605 607 607 606 606 604 604 607 607 605 605 606 606 607 607 608 608 609 609 610 610 608 608 610 610 611 611 609 609 612 612 613 613 609 609 613 613 610 610 612 612 608 608 611 611 612 612 611 611 613 613 611 611 610 610 614 614 611 611 614 614 615 615 610 610 613 613 616 616 610 610 616 616 614 614 613 613 611 611 615 615 613 613 615 615 616 616 615 615 614 614 617 617 615 615 617 617 618 618 614 614 616 616 619 619 614 614 619 619 617 617 616 616 615 615 618 618 616 616 618 618 619 619 617 617 618 618 620 620 619 619 617 617 620 620 618 618 619 619 620 620 621 621 622 622 623 623 621 621 623 623 624 624 622 622 625 625 626 626 622 622 626 626 623 623 625 625 621 621 624 624 625 625 624 624 626 626 624 624 623 623 627 627 624 624 627 627 628 628 623 623 626 626 629 629 623 623 629 629 627 627 626 626 624 624 628 628 626 626 628 628 629 629 628 628 627 627 630 630 628 628 630 630 631 631 627 627 629 629 632 632 627 627 632 632 630 630 629 629 628 628 631 631 629 629 631 631 632 632 631 631 630 630 633 633 631 631 633 633 634 634 630 630 632 632 635 635 630 630 635 635 633 633 632 632 631 631 634 634 632 632 634 634 635 635 636 636 637 637 638 638 636 636 638 638 639 639 637 637 640 640 641 641 637 637 641 641 638 638 640 640 636 636 639 639 640 640 639 639 641 641 639 639 638 638 642 642 639 639 642 642 643 643 638 638 641 641 644 644 638 638 644 644 642 642 641 641 639 639 643 643 641 641 643 643 644 644 643 643 642 642 645 645 643 643 645 645 646 646 642 642 644 644 647 647 642 642 647 647 645 645 644 644 643 643 646 646 644 644 646 646 647 647 648 648 649 649 650 650 648 648 650 650 651 651 649 649 652 652 653 653 649 649 653 653 650 650 652 652 648 648 651 651 652 652 651 651 653 653 651 651 650 650 654 654 651 651 654 654 655 655 650 650 653 653 656 656 650 650 656 656 654 654 653 653 651 651 655 655 653 653 655 655 656 656 655 655 654 654 657 657 655 655 657 657 658 658 654 654 656 656 659 659 654 654 659 659 657 657 656 656 655 655 658 658 656 656 658 658 659 659 657 657 658 658 660 660 659 659 657 657 660 660 658 658 659 659 660 660 661 661 662 662 663 663 661 661 663 663 664 664 662 662 665 665 666 666 662 662 666 666 663 663 665 665 661 661 664 664 665 665 664 664 666 666 664 664 663 663 667 667 664 664 667 667 668 668 663 663 666 666 669 669 663 663 669 669 667 667 666 666 664 664 668 668 666 666 668 668 669 669 668 668 667 667 670 670 668 668 670 670 671 671 667 667 669 669 672 672 667 667 672 672 670 670 669 669 668 668 671 671 669 669 671 671 672 672 670 670 671 671 673 673 672 672 670 670 673 673 671 671 672 672 673 673 674 674 675 675 676 676 674 674 676 676 677 677 675 675 678 678 679 679 675 675 679 679 676 676 678 678 674 674 677 677 678 678 677 677 679 679 677 677 676 676 680 680 677 677 680 680 681 681 676 676 679 679 682 682 676 676 682 682 680 680 679 679 677 677 681 681 679 679 681 681 682 682 681 681 680 680 683 683 681 681 683 683 684 684 680 680 682 682 685 685 680 680 685 685 683 683 682 682 681 681 684 684 682 682 684 684 685 685 686 686 687 687 688 688 686 686 688 688 689 689 687 687 690 690 691 691 687 687 691 691 688 688 690 690 686 686 689 689 690 690 689 689 691 691 689 689 688 688 692 692 689 689 692 692 693 693 688 688 691 691 694 694 688 688 694 694 692 692 691 691 689 689 693 693 691 691 693 693 694 694 693 693 692 692 695 695 693 693 695 695 696 696 692 692 694 694 697 697 692 692 697 697 695 695 694 694 693 693 696 696 694 694 696 696 697 697 695 695 696 696 698 698 697 697 695 695 698 698 696 696 697 697 698 698 699 699 700 700 701 701 699 699 701 701 702 702 700 700 703 703 704 704 700 700 704 704 701 701 703 703 699 699 702 702 703 703 702 702 704 704 702 702 701 701 705 705 702 702 705 705 706 706 701 701 704 704 707 707 701 701 707 707 705 705 704 704 702 702 706 706 704 704 706 706 707 707 706 706 705 705 708 708 706 706 708 708 709 709 705 705 707 707 710 710 705 705 710 710 708 708 707 707 706 706 709 709 707 707 709 709 710 710 708 708 709 709 711 711 710 710 708 708 711 711 709 709 710 710 711 711</p></triangles>
      </mesh>
    </geometry>
  </library_geometries>
  <library_visual_scenes><visual_scene id="scene" name="scene">
    <node id="BUSH_4" name="BUSH_4" type="NODE"><instance_geometry url="#BUSH_4-mesh"><bind_material><technique_common>
      <instance_material symbol="MAT_BUSH_3-mat" target="#MAT_BUSH_3"/>
      <instance_material symbol="MAT_BUSH_STEM-mat" target="#MAT_BUSH_STEM"/>
    </technique_common></bind_material></instance_geometry></node>
  </visual_scene></library_visual_scenes>
  <scene><instance_visual_scene url="#scene"/></scene>
</COLLADA>
