<?xml version="1.0" encoding="utf-8"?>
<COLLADA xmlns="http://www.collada.org/2005/11/COLLADASchema" version="1.4.1">
  <asset>
    <contributor><authoring_tool>VIGIL SIH26126 farm generator</authoring_tool></contributor>
    <unit name="meter" meter="1"/>
    <up_axis>Z_UP</up_axis>
  </asset>
  <library_effects>
    <effect id="MAT_BUSH_0-fx"><profile_COMMON><technique sid="c"><lambert><diffuse><color>0.0450 0.1080 0.0260 1</color></diffuse></lambert></technique></profile_COMMON></effect>
    <effect id="MAT_BUSH_STEM-fx"><profile_COMMON><technique sid="c"><lambert><diffuse><color>0.0580 0.0460 0.0300 1</color></diffuse></lambert></technique></profile_COMMON></effect>
  </library_effects>
  <library_materials>
    <material id="MAT_BUSH_0" name="MAT_BUSH_0"><instance_effect url="#MAT_BUSH_0-fx"/></material>
    <material id="MAT_BUSH_STEM" name="MAT_BUSH_STEM"><instance_effect url="#MAT_BUSH_STEM-fx"/></material>
  </library_materials>
  <library_geometries>
    <geometry id="BUSH_1-mesh" name="BUSH_1">
      <mesh>
        <source id="BUSH_1-pos"><float_array id="BUSH_1-pos-a" count="2244">-0.11232 0.095955 0.60992 0.070742 -0.066885 0.69165 -0.17517 -0.14087 0.70144 0.041396 0.23269 0.70717 -0.26913 0.095955 0.72137 -0.16921 0.31034 0.70969 0.073481 0.095955 0.86791 -0.04038 -0.17513 0.88801 -0.27194 -0.046031 0.87282 -0.26045 0.22772 0.86675 -0.050256 0.32982 0.87434 -0.11232 0.095955 0.99726 0.63595 -0.3779 0.50726 0.75265 -0.48555 0.58213 0.58863 -0.5628 0.57865 0.75837 -0.26496 0.57936 0.511 -0.3779 0.58969 0.58858 -0.19278 0.57858 0.78443 -0.3779 0.69685 0.67841 -0.54385 0.69252 0.50691 -0.49694 0.70117 0.53582 -0.28553 0.68716 0.68608 -0.182 0.70223 0.63595 -0.3779 0.7828 0.70666 -0.21731 0.44999 0.86149 -0.32602 0.58076 0.64409 -0.40341 0.57533 0.82745 -0.13251 0.60135 0.5507 -0.21731 0.5981 0.63964 -0.018001 0.56829 0.89856 -0.21731 0.76836 0.75808 -0.37025 0.75588 0.56853 -0.31429 0.758 0.55708 -0.1123 0.76493 0.76233 -0.051728 0.76262 0.70666 -0.21731 0.87809 0.59423 -0.46906 0.49332 0.69938 -0.54093 0.55731 0.55234 -0.59034 0.55518 0.7154 -0.38623 0.54974 0.45503 -0.46906 0.55378 0.54818 -0.33571 0.55003 0.73201 -0.46906 0.65963 0.63702 -0.59297 0.6599 0.46296 -0.55878 0.66898 0.4842 -0.39385 0.65895 0.63802 -0.34224 0.66114 0.59423 -0.46906 0.73427 0.11263 -0.25774 0.70989 0.23611 -0.32114 0.8 0.056604 -0.37961 0.78933 0.25509 -0.1846 0.79128 -0.058229 -0.25774 0.79322 0.05282 -0.12764 0.78478 0.27619 -0.25774 0.91752 0.16998 -0.38248 0.92571 -0.016678 -0.32414 0.91614 -0.053275 -0.17256 0.93295 0.15914 -0.15659 0.91267 0.11263 -0.25774 0.99968 -0.16105 0.33175 0.49136 -0.0047477 0.22782 0.56971 -0.21717 0.17366 0.57417 -0.014177 0.42941 0.5742 -0.32413 0.33175 0.58131 -0.22067 0.49969 0.56981 0.037484 0.33175 0.72058 -0.10307 0.16845 0.71638 -0.2819 0.25139 0.70165 -0.31287 0.4327 0.7164 -0.10332 0.49434 0.71606 -0.16105 0.33175 0.81267 -0.023254 -0.21688 0.46741 0.091744 -0.29164 0.55366 -0.066194 -0.33513 0.55486 0.085153 -0.14641 0.55673 -0.1546 -0.21688 0.55773 -0.071809 -0.083168 0.54801 0.10897 -0.21688 0.65706 0.027647 -0.35706 0.66931 -0.13677 -0.29068 0.66011 -0.12289 -0.15211 0.65365 0.02259 -0.090632 0.66314 -0.023254 -0.21688 0.73624 -0.029959 0.22416 0.45366 0.13765 0.087728 0.55084 -0.082292 0.043704 0.56884 0.11087 0.33881 0.56659 -0.22261 0.22416 0.55775 -0.088345 0.42549 0.55951 0.15783 0.22416 0.73884 0.029935 0.017629 0.74171 -0.1853 0.097718 0.74085 -0.18093 0.34705 0.73827 0.022416 0.40477 0.73013 -0.029959 0.22416 0.8386 0.20615 -0.13027 0.6718 0.35702 -0.21203 0.73876 0.14347 -0.27415 0.73325 0.35522 -0.049483 0.73951 -0.0073193 -0.13027 0.72966 0.1417 0.017691 0.73131 0.41059 -0.13027 0.87056 0.26913 -0.27485 0.87035 0.057589 -0.21077 0.86354 0.05673 -0.049292 0.8639 0.27058 0.017658 0.87194 0.20615 -0.13027 0.95892 0.45963 -0.21916 0.36862 0.62076 -0.33096 0.46642 0.40073 -0.39226 0.47044 0.62976 -0.10112 0.46122 0.24657 -0.21916 0.45993 0.39222 -0.02105 0.45756 0.7072 -0.21916 0.67526 0.52573 -0.41345 0.65953 0.29461 -0.33365 0.65488 0.27084 -0.088175 0.66862 0.53426 0.0001974 0.67244 0.45963 -0.21916 0.77797 0.28179 -0.50249 0.5577 0.38055 -0.59265 0.61836 0.23803 -0.67175 0.61074 0.40526 -0.38978 0.60647 0.12641 -0.50249 0.60539 0.24729 -0.36905 0.62241 0.43466 -0.50249 0.72537 0.32499 -0.66955 0.72028 0.14954 -0.62323 0.7295 0.17216 -0.4024 0.71862 0.32722 -0.3268 0.72309 0.28179 -0.50249 0.79413 0.042169 0.50619 0.51987 0.22601 0.3765 0.6346 -0.02015 0.31995 0.64465 0.2306 0.63912 0.63237 -0.18003 0.50619 0.63658 -0.030664 0.72385 0.63127 0.26069 0.50619 0.80996 0.11638 0.28443 0.81847 -0.14826 0.37185 0.81659 -0.13206 0.6291 0.80871 0.10919 0.70649 0.80932 0.042169 0.50619 0.9342 0.29351 -0.25268 0.67509 0.47083 -0.37221 0.78654 0.22788 -0.4401 0.78905 0.47157 -0.13265 0.7862 0.04854 -0.25268 0.77697 0.21762 -0.035938 0.77674 0.5112 -0.25268 0.94853 0.36364 -0.45293 0.95196 0.12612 -0.36552 0.94454 0.12667 -0.1402 0.94428 0.35792 -0.068738 0.9451 0.29351 -0.25268 1.0745 0.42641 -0.34147 0.4998 0.58198 -0.44604 0.61204 0.35836 -0.53525 0.60297 0.59443 -0.22852 0.60704 0.23249 -0.34147 0.61151 0.36169 -0.15716 0.60647 0.66157 -0.34147 0.75083 0.49923 -0.54881 0.75098 0.26354 -0.45095 0.73984 0.2694 -0.23592 0.73749 0.49406 -0.14884 0.74555 0.42641 -0.34147 0.81948 0.12068 -0.078091 0.45255 0.27074 -0.19857 0.56098 0.064576 -0.26892 0.56242 0.29718 0.063614 0.54894 -0.058173 -0.078091 0.56342 0.051357 0.1577 0.54666 0.29779 -0.078091 0.69448 0.17252 -0.25439 0.69104 -0.020919 -0.19178 0.69372 -0.030355 0.043176 0.69801 0.17634 0.11122 0.69559 0.12068 -0.078091 0.77984 0.41879 0.0073015 0.58978 0.57337 -0.11047 0.70403 0.34426 -0.23321 0.68383 0.62218 0.16225 0.6797 0.21085 0.0073015 0.69723 0.35546 0.21169 0.69843 0.66417 0.0073015 0.88001 0.49765 -0.24722 0.88398 0.24427 -0.12565 0.86805 0.22452 0.1553 0.87789 0.4853 0.22195 0.86786 0.41879 0.0073015 1.006 -0.13221 0.70508 0.43048 -0.0035576 0.60945 0.55042 -0.18828 0.5285 0.53911 0.0053705 0.80736 0.54486 -0.30544 0.70508 0.54326 -0.17816 0.84981 0.55561 0.031628 0.70508 0.71317 -0.081992 0.54695 0.71249 -0.2623 0.60837 0.71164 -0.27254 0.8094 0.71802 -0.077438 0.87756 0.71992 -0.13221 0.70508 0.80275 -0.049607 0.75409 0.38389 0.12221 0.62733 0.53869 -0.11425 0.55207 0.54001 0.12904 0.88589 0.53519 -0.2607 0.75409 0.53922 -0.11446 0.95679 0.53972 0.15577 0.75409 0.71183 0.030948 0.50233 0.73475 -0.21342 0.63323 0.71063 -0.21852 0.87871 0.71324 0.010365 0.94153 0.70715 -0.049607 0.75409 0.81961 -0.23922 -0.057568 0.56474 -0.11054 -0.14655 0.61039 -0.28743 -0.19877 0.61143 -0.1326 0.016158 0.61962 -0.39508 -0.057568 0.61147 -0.27964 0.060811 0.61997 -0.087052 -0.057568 0.71577 -0.19186 -0.19629 0.71614 -0.37874 -0.15404 0.72264 -0.37109 0.033617 0.71944 -0.18629 0.097493 0.72226 -0.23922 -0.057568 0.76329 -0.40455 -0.15052 0.61349 -0.17745 -0.31927 0.71467 -0.48985 -0.41903 0.71653 -0.17482 0.02019 0.71338 -0.65321 -0.15052 0.72745 -0.49176 0.12402 0.71406 -0.13957 -0.15052 0.93218 -0.32509 -0.40064 0.92906 -0.63294 -0.32023 0.93909 -0.60492 -0.0016261 0.92529 -0.32996 0.084289 0.92278 -0.40455 -0.15052 1.0701 -0.10015 0.5881 0.42393 0.024068 0.50406 0.47714 -0.14541 0.45837 0.47977 0.024502 0.67243 0.47694 -0.24762 0.5881 0.47941 -0.14302 0.71096 0.48266 0.033615 0.5881 0.58418 -0.060557 0.47463 0.58208 -0.21758 0.50865 0.58842 -0.23343 0.67827 0.59572 -0.053289 0.72239 0.59084 -0.10015 0.5881 0.66484 0.30875 -0.41353 0.50022 0.45442 -0.52196 0.59051 0.24003 -0.63022 0.57435 0.4895 -0.27898 0.57395 0.12839 -0.41353 0.5904 0.25078 -0.23073 0.58763 0.50765 -0.41353 0.73528 0.36717 -0.59775 0.73152 0.17086 -0.51617 0.72441 0.15576 -0.29964 0.73154 0.3649 -0.23646 0.72871 0.30875 -0.41353 0.83969 0.62344 -0.28448 0.49172 0.7686 -0.40104 0.56933 0.57035 -0.46509 0.57194 0.77325 -0.16419 0.56735 0.42329 -0.28448 0.5622 0.56363 -0.081027 0.56446 0.83427 -0.28448 0.70353 0.68136 -0.48148 0.69548 0.50009 -0.38353 0.68346 0.47563 -0.16579 0.69386 0.67971 -0.093086 0.69365 0.62344 -0.28448 0.77424 0.12737 0.70573 0.5992 0.2249 0.63693 0.66345 0.08722 0.58576 0.66006 0.22445 0.7742 0.66365 -0.001891 0.70573 0.6603 0.086512 0.82781 0.65923 0.24811 0.70573 0.7507 0.17107 0.57514 0.75818 0.029225 0.6365 0.75091 0.017057 0.78354 0.75635 0.16362 0.81405 0.74946 0.12737 0.70573 0.81645 0.42844 -0.43483 0.5178 0.57612 -0.53939 0.60281 0.366 -0.62209 0.59716 0.65254 -0.27615 0.57546 0.18947 -0.43483 0.58648 0.34829 -0.19442 0.58057 0.66212 -0.43483 0.72331 0.50001 -0.64951 0.72271 0.24366 -0.56566 0.72178 0.24012 -0.30149 0.72305 0.49693 -0.22938 0.71983 0.42844 -0.43483 0.80429 -0.19641 0.23027 0.62072 -0.037657 0.096041 0.71166 -0.25789 0.010048 0.71057 -0.061313 0.3445 0.72334 -0.34472 0.23027 0.73079 -0.2557 0.44265 0.7134 -0.03098 0.23027 0.85604 -0.13854 0.023016 0.86475 -0.35402 0.097001 0.86778 -0.33892 0.35078 0.86032 -0.13608 0.44636 0.86794 -0.19641 0.23027 0.95226 0.23004 -0.19658 0.66301 0.34244 -0.27224 0.69677 0.1853 -0.32416 0.69434 0.34553 -0.11884 0.69518 0.11968 -0.19658 0.70866 0.19017 -0.082893 0.70089 0.35014 -0.19658 0.80455 0.2679 -0.30454 0.80555 0.12952 -0.26425 0.80627 0.12432 -0.12542 0.80895 0.26399 -0.099765 0.80029 0.23004 -0.19658 0.8823 0.29894 0.46839 0.56175 0.46883 0.30391 0.68158 0.23143 0.19154 0.67794 0.47308 0.63699 0.67932 0.10001 0.46839 0.68635 0.23035 0.74966 0.67644 0.51727 0.46839 0.86608 0.35923 0.22111 0.85608 0.15148 0.32563 0.85054 0.15116 0.61146 0.85071 0.36284 0.7305 0.86112 0.29894 0.46839 0.94843 -0.029928 -0.10593 0.58781 0.096339 -0.20767 0.66237 -0.070804 -0.24545 0.67315 0.095879 -0.0045558 0.66263 -0.17205 -0.10593 0.66869 -0.078384 0.059469 0.66204 0.10139 -0.10593 0.79259 0.020692 -0.27872 0.80732 -0.17261 -0.2209 0.81301 -0.15289 -0.0068496 0.80196 0.017754 0.056831 0.80301 -0.029928 -0.10593 0.8715 0.072491 -0.029322 0.51766 0.20891 -0.14458 0.59817 0.015631 -0.23283 0.59041 0.21253 0.088995 0.59591 -0.10364 -0.029322 0.59439 0.02408 0.14395 0.6042 0.22972 -0.029322 0.76255 0.12386 -0.21318 0.76709 -0.077439 -0.156 0.77672 -0.060778 0.083278 0.76634 0.12311 0.15186 0.76587 0.072491 -0.029322 0.85694 0.20511 -0.51503 0.59958 0.37382 -0.64511 0.71582 0.14169 -0.72216 0.71721 0.36172 -0.39427 0.72208 0.02467 -0.51503 0.72758 0.1391 -0.29942 0.7137 0.39657 -0.51503 0.8832 0.27053 -0.72871 0.89168 0.026409 -0.65281 0.89552 0.044431 -0.39114 0.88619 0.26558 -0.31749 0.88499 0.20511 -0.51503 0.98788 0.57263 -0.28487 0.29478 0.72353 -0.37725 0.43501 0.52122 -0.41819 0.44382 0.74515 -0.17926 0.42333 0.407 -0.28487 0.44414 0.51865 -0.1449 0.44019 0.7623 -0.28487 0.59938 0.63175 -0.43819 0.6001 0.42194 -0.37712 0.59789 0.44059 -0.20404 0.58781 0.63521 -0.12259 0.60499 0.57263 -0.28487 0.70739 0 0.018867 0.0043338 -0.016207 -0.010394 0.0020131 0.019723 -0.037301 0.12536 0.033566 -0.012278 0.12738 0.016207 -0.0084734 -0.006347 0.047409 -0.035609 0.11812 0.055662 -0.064219 0.24473 0.067132 -0.043431 0.24647 0.078602 -0.062726 0.23854 0.091593 -0.091126 0.36009 0.1007 -0.074577 0.36154 0.1098 -0.089861 0.35503 0.1275 -0.11801 0.47144 0.13426 -0.1057 0.47253 0.14102 -0.11704 0.46762 0.13426 -0.10348 0.4674 0.12649 -0.12007 0.46747 0.064546 -0.088644 0.56549 0.070778 -0.075247 0.5654 0.14204 -0.1172 0.47672 0.07701 -0.086239 0.57305 0.0026199 -0.057236 0.65862 0.0072911 -0.04702 0.65848 0.011962 -0.055253 0.66453 -0.060483 -0.026755 0.74643 -0.056196 -0.01729 0.74627 -0.051908 -0.024843 0.75198 -0.056196 -0.018867 0.75261 -0.060939 -0.02346 0.74458 -0.089938 -0.070771 0.78883 -0.085206 -0.06633 0.79695 -0.051452 -0.026561 0.74748 -0.080475 -0.073959 0.79171 -0.11892 -0.11799 0.83018 -0.11422 -0.11388 0.83848 -0.10951 -0.12136 0.83302 -0.14792 -0.1653 0.86868 -0.14323 -0.16135 0.87707 -0.13853 -0.16876 0.87149 -0.14323 -0.16513 0.87241 -0.056196 -0.019829 0.7421 -0.061991 -0.025753 0.75066 -0.078276 0.038519 0.78309 -0.073222 0.043557 0.77554 -0.050401 -0.023306 0.75191 -0.068169 0.040693 0.78416 -0.095297 0.10247 0.8129 -0.090249 0.10723 0.80517 -0.085201 0.10472 0.8139 -0.11232 0.16639 0.8397 -0.10728 0.17101 0.83187 -0.10223 0.16868 0.84066 -0.10728 0.16869 0.83741 0.13426 -0.10294 0.47753 0.12775 -0.1238 0.47447 0.2091 -0.15407 0.52247 0.21426 -0.13725 0.52521 0.14078 -0.11401 0.45959 0.21941 -0.14586 0.5105 0.29048 -0.18438 0.5664 0.29425 -0.17162 0.56894 0.29802 -0.17763 0.55741 0.37141 -0.21507 0.60667 0.37424 -0.20531 0.60881 0.37707 -0.20968 0.59982 0.37424 -0.20576 0.59916 0.37137 -0.20756 0.61136 0.42412 -0.18622 0.62563 0.42643 -0.18514 0.61555 0.37711 -0.21674 0.60479 0.42874 -0.19399 0.62049 0.4764 -0.16421 0.63855 0.47862 -0.16397 0.6284 0.48084 -0.17244 0.634 0.52863 -0.14242 0.64918 0.53081 -0.14263 0.63902 0.53299 -0.15086 0.64497 0.53081 -0.1453 0.64439 0.37424 -0.20653 0.61299 0.36681 -0.21245 0.60147 0.37529 -0.27549 0.63026 0.38128 -0.27088 0.63964 0.38167 -0.21108 0.60086 0.38727 -0.27436 0.62978 0.38314 -0.33869 0.65591 0.38831 -0.33503 0.66415 0.39348 -0.33769 0.65554 0.39018 -0.40221 0.67837 0.39535 -0.3987 0.68668 0.40052 -0.40119 0.67801 0.39535 -0.4007 0.68102 0 0.019099 0.0031598 -0.01601 -0.010361 0.0033263 0.02525 -0.029329 0.1265 0.038919 -0.0041302 0.12637 0.01601 -0.0087377 -0.0064861 0.052589 -0.027898 0.11799 0.066522 -0.048308 0.24571 0.077839 -0.027364 0.2456 0.089156 -0.047044 0.23844 0.10778 -0.067276 0.36089 0.11676 -0.050593 0.36082 0.12573 -0.066204 0.35494 0.14902 -0.08622 0.47204 0.15568 -0.073813 0.47199 0.16234 -0.085397 0.46755 0.15568 -0.074981 0.4786 0.14932 -0.090248 0.47075 0.22496 -0.1435 0.51702 0.23004 -0.1313 0.52359 0.16204 -0.080201 0.46224 0.23512 -0.13517 0.51028 0.30062 -0.19676 0.55906 0.30441 -0.18767 0.56445 0.3082 -0.19008 0.55416 0.3753 -0.25124 0.59705 0.37877 -0.24293 0.60223 0.38225 -0.24489 0.59264 0.37877 -0.24179 0.59194 0.37657 -0.2443 0.60367 0.43955 -0.2259 0.61834 0.44137 -0.22423 0.60824 0.38097 -0.25297 0.59631 0.44318 -0.23359 0.61236 0.50225 -0.20691 0.63111 0.50396 -0.20626 0.62088 0.50567 -0.21521 0.62588 0.56489 -0.18818 0.64126 0.56655 -0.1881 0.631 0.56821 -0.19678 0.63646 0.56655 -0.19102 0.63624 0.37877 -0.24492 0.60313 0.37358 -0.247 0.59438 0.37266 -0.30871 0.60958 0.37786 -0.3068 0.61838 0.38397 -0.24714 0.59441 0.38305 -0.30885 0.60962 0.37174 -0.37036 0.62222 0.37694 -0.3688 0.63109 0.38214 -0.37051 0.62225 0.37083 -0.43207 0.63232 0.37602 -0.43069 0.64121 0.38122 -0.43222 0.63234 0.37602 -0.43166 0.63529 0.15568 -0.072979 0.46482 0.14676 -0.087219 0.47184 0.12553 -0.025478 0.56557 0.13272 -0.014042 0.5598 0.1646 -0.085233 0.47492 0.13991 -0.023819 0.56808 0.10431 0.036264 0.65467 0.10976 0.044872 0.6501 0.11522 0.037616 0.65661 0.081734 0.097191 0.7393 0.086809 0.10516 0.73496 0.091883 0.098494 0.74112 0.086809 0.10279 0.73301 0.081806 0.1003 0.74177 0.10483 0.17486 0.776 0.10983 0.17716 0.76718 0.091811 0.097752 0.7406 0.11483 0.17226 0.77487 0.12785 0.24949 0.80679 0.13284 0.25142 0.79788 0.13784 0.24681 0.80575 0.15087 0.32404 0.83415 0.15586 0.32578 0.8252 0.16085 0.32132 0.83315 0.15586 0.32372 0.83083 0.086809 0.10476 0.74274 0.081969 0.099643 0.73464 0.050376 0.053905 0.78268 0.055048 0.058714 0.79062 0.091648 0.096441 0.73799 0.05972 0.050711 0.78591 0.018645 0.0082348 0.82758 0.023287 0.012735 0.83572 0.02793 0.0048478 0.8308 -0.013101 -0.037515 0.86954 -0.0084734 -0.033179 0.87777 -0.0038463 -0.041002 0.87273 -0.0084734 -0.037232 0.87335 0 0.018949 -0.0039618 -0.016137 -0.0085443 0.0064292 0.021785 0.018571 0.1292 0.035566 0.042037 0.12018 0.016137 -0.010404 -0.0024674 0.049348 0.016932 0.12149 0.059717 0.045705 0.24802 0.071133 0.065118 0.2403 0.082548 0.044258 0.24143 0.097639 0.072821 0.36279 0.1067 0.088206 0.35646 0.11576 0.071595 0.3574 0.13554 0.099898 0.47348 0.14227 0.11131 0.46869 0.14899 0.098956 0.46941 0.14227 0.10986 0.45936 0.13121 0.10158 0.47694 0.15025 0.20019 0.53262 0.15916 0.20661 0.51832 0.15332 0.098727 0.47529 0.16808 0.19785 0.53132 0.16929 0.29884 0.58368 0.17606 0.3033 0.57263 0.18284 0.29699 0.58274 0.18783 0.39728 0.63035 0.19296 0.40049 0.62191 0.1981 0.39585 0.62966 0.19296 0.39963 0.61929 0.18593 0.39597 0.63109 0.17716 0.4628 0.64497 0.18283 0.46557 0.63539 0.19999 0.39802 0.63154 0.1885 0.46447 0.6453 0.16756 0.52945 0.65655 0.17269 0.53162 0.64778 0.17783 0.53098 0.6568 0.15742 0.59592 0.66564 0.16256 0.5979 0.65683 0.1677 0.59745 0.66585 0.16256 0.59709 0.66277 0.19296 0.40348 0.63317 0.18631 0.39342 0.62595 0.21122 0.34467 0.67355 0.21657 0.35271 0.67949 0.19961 0.39672 0.62279 0.22192 0.34741 0.67101 0.23529 0.29536 0.718 0.24018 0.30258 0.72366 0.24506 0.29802 0.7157 0.2589 0.24575 0.75946 0.26378 0.25289 0.76522 0.26866 0.24848 0.75717 0.26378 0.24904 0.76062 0.14227 0.11027 0.47848 0.13345 0.10167 0.46506 0.10702 0.020067 0.5371 0.11412 0.026811 0.54805 0.15108 0.098216 0.46805 0.12123 0.017203 0.5395 0.08059 -0.061508 0.60459 0.085984 -0.05669 0.61311 0.091378 -0.063803 0.60639 0.052832 -0.14341 0.66675 0.057844 -0.13908 0.67476 0.062855 -0.1456 0.6684 0.057844 -0.14077 0.67565 0.052649 -0.1438 0.66718 0.054515 -0.20594 0.68822 0.059709 -0.20307 0.69676 0.063038 -0.14352 0.66708 0.064903 -0.20566 0.68813 0.05638 -0.26803 0.70661 0.061574 -0.26549 0.71525 0.066768 -0.26774 0.70653 0.058245 -0.33016 0.72237 0.063439 -0.3278 0.73106 0.068633 -0.32987 0.7223 0.063439 -0.32928 0.72524 0.057844 -0.13606 0.6683 0.053354 -0.14695 0.66706 0.0072072 -0.13318 0.72009 0.011102 -0.1236 0.72116 0.062333 -0.14507 0.67455 0.014997 -0.13145 0.72675 -0.039439 -0.11996 0.76983 -0.035639 -0.11034 0.77086 -0.031839 -0.11808 0.77666 -0.08613 -0.10671 0.81668 -0.08238 -0.097065 0.81769 -0.078631 -0.10474 0.8236 -0.08238 -0.10284 0.81933 0 0.018263 -0.0064187 -0.016743 -0.0094172 0.002397 -0.021053 0.035402 0.1257 -0.0067383 0.059034 0.11805 0.016743 -0.0088462 0.0040216 0.0075762 0.035905 0.12711 -0.025363 0.080226 0.24503 -0.013477 0.099787 0.23849 -0.0015908 0.080668 0.24623 -0.029673 0.12504 0.36035 -0.020215 0.14056 0.35498 -0.010757 0.12542 0.36133 -0.033984 0.16985 0.47163 -0.026953 0.18136 0.46758 -0.019923 0.17014 0.47237 -0.026953 0.18183 0.47909 -0.036747 0.16777 0.46813 -0.0027811 0.085458 0.54698 0.005111 0.096683 0.55597 -0.017159 0.17176 0.46437 0.013003 0.088772 0.54396 0.031188 0.0031533 0.62098 0.037175 0.011496 0.62807 0.043163 0.0058157 0.61871 0.064258 -0.079708 0.69001 0.06924 -0.072845 0.69601 0.074222 -0.077429 0.68813 0.06924 -0.072425 0.69648 0.064474 -0.076321 0.68679 0.021104 -0.12652 0.729 0.025398 -0.12319 0.73786 0.074006 -0.081237 0.69088 0.029693 -0.13109 0.73265 -0.022695 -0.17658 0.76759 -0.018443 -0.17365 0.77661 -0.014191 -0.18139 0.77113 -0.066516 -0.22674 0.803 -0.062285 -0.22403 0.8121 -0.058053 -0.23167 0.80648 -0.062285 -0.22748 0.80719 0.06924 -0.070148 0.69425 0.065898 -0.082001 0.69469 0.1243 -0.09625 0.72831 0.12705 -0.086232 0.72805 0.072582 -0.077834 0.68521 0.1298 -0.092576 0.72029 0.18225 -0.11141 0.75961 0.18486 -0.10135 0.75962 0.18747 -0.10738 0.75157 0.24013 -0.1265 0.78816 0.24267 -0.11642 0.78833 0.2452 -0.12228 0.78013 0.24267 -0.12174 0.78554 -0.026953 0.17938 0.46181 -0.03563 0.16906 0.47365 -0.061078 0.25661 0.52864 -0.054084 0.26477 0.51895 -0.018277 0.17292 0.47612 -0.04709 0.25978 0.5306 -0.086524 0.34417 0.57934 -0.081214 0.35012 0.57176 -0.075905 0.34668 0.58077 -0.11335 0.43095 0.6262 -0.10835 0.43645 0.61894 -0.10334 0.43338 0.62751 -0.10835 0.43548 0.61852 -0.11346 0.43353 0.62736 -0.1014 0.4967 0.64821 -0.096286 0.49846 0.63933 -0.10323 0.43177 0.62678 -0.091174 0.49491 0.64765 -0.089337 0.55993 0.66633 -0.084227 0.56133 0.65739 -0.079117 0.55811 0.66585 -0.077277 0.62309 0.68174 -0.072168 0.62431 0.67277 -0.067059 0.62125 0.68129 -0.072168 0.62289 0.6786 -0.10835 0.43984 0.62615 -0.1106 0.432 0.61829 -0.17303 0.42422 0.64466 -0.17105 0.43129 0.65202 -0.10609 0.42893 0.62822 -0.16908 0.42124 0.65379 -0.23557 0.41643 0.66773 -0.23376 0.4232 0.67541 -0.23196 0.41307 0.67688 -0.29819 0.40855 0.6881 -0.29647 0.41514 0.69596 -0.29476 0.40497 0.69724 -0.29647 0.40956 0.69377</float_array><technique_common><accessor source="#BUSH_1-pos-a" count="748" stride="3"><param name="X" type="float"/><param name="Y" type="float"/><param name="Z" type="float"/></accessor></technique_common></source>
        <source id="BUSH_1-nrm"><float_array id="BUSH_1-nrm-a" count="2241">-0.09 0.05 -0.995 0.749 -0.443 -0.492 -0.395 -0.752 -0.528 0.715 0.512 -0.476 -0.876 0.036 -0.481 -0.345 0.791 -0.505 0.89 0.066 0.451 0.266 -0.841 0.471 -0.823 -0.416 0.387 -0.791 0.481 0.378 0.277 0.858 0.432 -0.013 0.047 0.999 -0.042 -0.008 -0.999 0.74 -0.498 -0.452 -0.276 -0.833 -0.479 0.745 0.449 -0.494 -0.889 0.05 -0.455 -0.39 0.799 -0.457 0.897 -0.046 0.439 0.333 -0.812 0.479 -0.776 -0.465 0.425 -0.791 0.43 0.435 0.243 0.85 0.468 -0.027 0.002 1 0.013 0.025 -1 0.769 -0.487 -0.414 -0.332 -0.859 -0.39 0.745 0.526 -0.409 -0.922 -0.034 -0.385 -0.264 0.855 -0.445 0.907 0.019 0.42 0.246 -0.846 0.473 -0.734 -0.521 0.437 -0.76 0.468 0.452 0.327 0.843 0.428 -0.018 -0.036 0.999 0.003 -0.047 -0.999 0.686 -0.544 -0.483 -0.209 -0.826 -0.523 0.733 0.491 -0.471 -0.859 0.016 -0.512 -0.295 0.836 -0.462 0.888 -0.037 0.458 0.321 -0.85 0.417 -0.729 -0.534 0.429 -0.698 0.547 0.462 0.26 0.833 0.488 0.029 0.021 0.999 0.037 -0.043 -0.998 0.685 -0.556 -0.47 -0.25 -0.861 -0.444 0.741 0.52 -0.425 -0.872 -0.078 -0.484 -0.211 0.867 -0.452 0.888 0.026 0.46 0.28 -0.854 0.438 -0.652 -0.603 0.46 -0.718 0.498 0.487 0.283 0.838 0.467 0.035 0.023 0.999 -0.036 -0.006 -0.999 0.688 -0.528 -0.497 -0.354 -0.829 -0.433 0.684 0.535 -0.496 -0.893 -0.068 -0.445 -0.289 0.825 -0.486 0.892 0.015 0.453 0.188 -0.866 0.464 -0.724 -0.528 0.443 -0.77 0.456 0.447 0.265 0.853 0.449 -0.064 -0.034 0.997 -0.001 -0.023 -1 0.742 -0.488 -0.459 -0.311 -0.827 -0.468 0.748 0.509 -0.426 -0.916 -0.004 -0.401 -0.317 0.859 -0.402 0.898 0.042 0.437 0.285 -0.855 0.433 -0.77 -0.472 0.428 -0.726 0.496 0.475 0.281 0.838 0.467 -0.03 0.049 0.998 -0.005 0 -1 0.713 -0.513 -0.478 -0.308 -0.821 -0.48 0.717 0.545 -0.434 -0.884 -0.023 -0.468 -0.239 0.863 -0.445 0.877 0.066 0.476 0.248 -0.848 0.468 -0.724 -0.524 0.448 -0.695 0.531 0.485 0.3 0.83 0.469 0.01 0.04 0.999 0.049 -0.006 -0.999 0.665 -0.519 -0.537 -0.232 -0.848 -0.477 0.665 0.514 -0.543 -0.899 -0.008 -0.438 -0.235 0.845 -0.481 0.909 -0.003 0.416 0.243 -0.866 0.436 -0.67 -0.538 0.512 -0.676 0.526 0.517 0.253 0.863 0.437 -0.046 -0.007 0.999 0.011 -0.048 -0.999 0.645 -0.545 -0.536 -0.255 -0.835 -0.488 0.681 0.479 -0.555 -0.859 -0.062 -0.508 -0.26 0.804 -0.535 0.904 -0.042 0.426 0.219 -0.887 0.407 -0.699 -0.574 0.426 -0.747 0.486 0.453 0.265 0.86 0.437 -0.044 -0.057 0.997 0.025 0.02 -0.999 0.692 -0.473 -0.546 -0.183 -0.818 -0.545 0.671 0.507 -0.542 -0.85 0.091 -0.518 -0.315 0.766 -0.561 0.902 -0.058 0.427 0.36 -0.834 0.418 -0.718 -0.517 0.465 -0.706 0.574 0.415 0.192 0.892 0.408 -0.004 0.016 1 -0.018 -0.044 -0.999 0.7 -0.533 -0.474 -0.273 -0.82 -0.503 0.73 0.526 -0.436 -0.883 -0.021 -0.469 -0.289 0.854 -0.433 0.883 0.021 0.469 0.273 -0.865 0.42 -0.738 -0.531 0.417 -0.707 0.53 0.469 0.266 0.833 0.484 0.006 0.041 0.999 0.035 -0.038 -0.999 0.709 -0.528 -0.468 -0.26 -0.857 -0.444 0.732 0.524 -0.435 -0.914 -0.036 -0.404 -0.255 0.879 -0.404 0.893 0.021 0.449 0.256 -0.866 0.43 -0.699 -0.533 0.477 -0.683 0.51 0.523 0.272 0.834 0.48 -0.022 0.022 0.999 0.004 0.001 -1 0.679 -0.498 -0.539 -0.301 -0.831 -0.468 0.691 0.514 -0.508 -0.902 0.022 -0.431 -0.312 0.841 -0.442 0.908 -0.002 0.42 0.269 -0.855 0.443 -0.742 -0.462 0.486 -0.721 0.496 0.484 0.226 0.854 0.469 -0.06 0.022 0.998 -0.031 -0.074 -0.997 0.721 -0.571 -0.392 -0.289 -0.866 -0.408 0.782 0.495 -0.379 -0.906 -0.063 -0.418 -0.324 0.862 -0.389 0.842 -0.052 0.536 0.27 -0.818 0.507 -0.707 -0.518 0.482 -0.729 0.437 0.526 0.278 0.755 0.594 0.011 -0.026 1 -0.01 -0.003 -1 0.685 -0.483 -0.546 -0.283 -0.811 -0.512 0.698 0.52 -0.493 -0.867 0.017 -0.499 -0.296 0.814 -0.5 0.911 -0.013 0.413 0.299 -0.864 0.404 -0.762 -0.482 0.433 -0.742 0.539 0.399 0.234 0.864 0.446 -0.026 0.026 0.999 0.016 0.043 -0.999 0.75 -0.518 -0.412 -0.261 -0.87 -0.419 0.719 0.527 -0.454 -0.901 0.043 -0.432 -0.278 0.849 -0.45 0.887 -0.036 0.461 0.29 -0.826 0.484 -0.699 -0.515 0.495 -0.724 0.522 0.451 0.27 0.852 0.449 0.003 -0.038 0.999 -0.012 -0.007 -1 0.74 -0.493 -0.457 -0.325 -0.827 -0.459 0.741 0.554 -0.38 -0.916 -0.007 -0.4 -0.284 0.878 -0.386 0.878 0.067 0.474 0.27 -0.852 0.449 -0.753 -0.475 0.456 -0.704 0.524 0.479 0.265 0.829 0.493 -0.015 0.07 0.997 0.015 0.068 -0.998 0.719 -0.48 -0.503 -0.233 -0.815 -0.53 0.643 0.502 -0.579 -0.826 0.054 -0.561 -0.216 0.773 -0.596 0.883 0.022 0.47 0.282 -0.81 0.515 -0.697 -0.53 0.483 -0.693 0.57 0.441 0.294 0.867 0.401 0.026 -0.017 1 -0.035 -0.007 -0.999 -0.279 -0.824 -0.494 0.713 0.538 -0.45 -0.87 0.023 -0.492 -0.305 0.844 -0.441 0.864 0.013 0.503 0.284 -0.825 0.489 -0.739 -0.496 0.455 -0.708 0.524 0.474 0.25 0.819 0.517 0.009 0.037 0.999 -0.023 0.013 -1 0.714 -0.557 -0.425 -0.252 -0.856 -0.452 0.712 0.524 -0.468 -0.851 -0.016 -0.525 -0.245 0.809 -0.534 0.86 -0.044 0.509 0.27 -0.828 0.491 -0.672 -0.582 0.458 -0.728 0.538 0.425 0.298 0.844 0.446 0.055 -0.063 0.996 -0.024 0.007 -1 0.709 -0.523 -0.474 -0.3 -0.852 -0.429 0.716 0.531 -0.453 -0.896 0.019 -0.443 -0.319 0.83 -0.457 0.881 -0.037 0.472 0.281 -0.829 0.483 -0.732 -0.47 0.494 -0.741 0.505 0.443 0.222 0.84 0.494 -0.033 -0.006 0.999 0.023 -0.03 -0.999 0.666 -0.518 -0.536 -0.315 -0.837 -0.448 0.694 0.506 -0.512 -0.91 -0.069 -0.408 -0.266 0.849 -0.457 0.9 -0.001 0.437 0.201 -0.872 0.446 -0.687 -0.502 0.525 -0.712 0.462 0.528 0.261 0.832 0.491 -0.074 -0.02 0.997 0.032 -0.004 -0.999 0.733 -0.471 -0.491 -0.286 -0.831 -0.477 0.733 0.519 -0.439 -0.886 -0.032 -0.463 -0.224 0.862 -0.455 0.898 0.048 0.437 0.293 -0.849 0.439 -0.717 -0.517 0.467 -0.71 0.523 0.472 0.318 0.825 0.466 0.015 0.029 0.999 0.019 -0.104 -0.994 0.614 -0.537 -0.578 -0.205 -0.81 -0.549 0.762 0.484 -0.43 -0.875 -0.059 -0.48 -0.294 0.852 -0.433 0.881 -0.105 0.461 0.305 -0.879 0.367 -0.69 -0.565 0.452 -0.693 0.489 0.53 0.229 0.774 0.59 -0.001 0.007 1 -0.044 0.035 -0.998 0.777 -0.458 -0.433 -0.329 -0.812 -0.482 0.755 0.465 -0.462 -0.875 0.027 -0.483 -0.321 0.81 -0.49 0.882 0.024 0.47 0.317 -0.794 0.518 -0.78 -0.449 0.437 -0.779 0.456 0.431 0.324 0.825 0.463 0.026 0.006 1 -0.067 0.025 -0.997 0.711 -0.521 -0.471 -0.316 -0.809 -0.495 0.694 0.559 -0.454 -0.848 0.02 -0.53 -0.291 0.82 -0.493 0.854 0.024 0.52 0.276 -0.821 0.5 -0.74 -0.507 0.442 -0.729 0.539 0.422 0.263 0.836 0.482 0.032 0.021 0.999 -0.013 -0.007 -1 0.742 -0.5 -0.446 -0.32 -0.856 -0.406 0.747 0.481 -0.459 -0.924 -0.004 -0.382 -0.337 0.843 -0.42 0.865 -0.018 0.501 0.252 -0.798 0.547 -0.734 -0.419 0.534 -0.746 0.402 0.531 0.247 0.803 0.542 -0.068 -0.013 0.998 -0.04 -0.043 -0.998 0.722 -0.51 -0.468 -0.281 -0.784 -0.553 0.754 0.488 -0.44 -0.856 -0.015 -0.517 -0.302 0.822 -0.482 0.867 0.015 0.498 0.321 -0.834 0.449 -0.74 -0.523 0.422 -0.718 0.515 0.468 0.308 0.802 0.511 0.069 0.039 0.997 0.009 0.037 -0.999 0.748 -0.477 -0.461 -0.244 -0.832 -0.499 0.715 0.515 -0.473 -0.867 0.062 -0.495 -0.283 0.83 -0.481 0.878 -0.001 0.479 0.341 -0.796 0.5 -0.713 -0.488 0.504 -0.699 0.543 0.465 0.275 0.833 0.479 0.042 0.024 0.999 -0.023 0.002 -1 0.748 -0.491 -0.446 -0.3 -0.818 -0.491 0.745 0.514 -0.425 -0.882 0.011 -0.47 -0.293 0.847 -0.444 0.881 0.035 0.472 0.307 -0.824 0.476 -0.755 -0.489 0.436 -0.729 0.511 0.457 0.304 0.818 0.488 0.03 0.037 0.999 -0.077 -0.033 -0.996 0.68 -0.609 -0.408 -0.297 -0.865 -0.405 0.725 0.54 -0.428 -0.914 0.011 -0.405 -0.363 0.853 -0.376 0.88 -0.043 0.472 0.245 -0.879 0.408 -0.758 -0.513 0.402 -0.738 0.544 0.4 0.198 0.868 0.456 -0.046 0.005 0.999 0.005 0.97 0.244 -0.831 -0.542 0.124 -0.832 -0.541 0.126 0.003 0.969 0.248 0.843 -0.442 -0.308 0.842 -0.44 -0.312 -0.83 -0.543 0.13 0.004 0.967 0.256 0.841 -0.436 -0.321 -0.828 -0.545 0.133 0.004 0.964 0.264 0.839 -0.432 -0.331 -0.825 -0.549 0.133 0.007 0.963 0.268 0.837 -0.431 -0.336 -0.01 0.959 -0.283 -0.744 -0.61 -0.274 -0.737 -0.618 -0.274 -0.005 0.958 -0.286 0.727 -0.336 0.599 0.721 -0.33 0.609 -0.724 -0.628 -0.286 0 0.952 -0.305 0.713 -0.319 0.624 -0.718 -0.629 -0.298 -0.001 0.947 -0.321 0.711 -0.314 0.629 0.003 0.682 0.732 -0.792 -0.081 -0.605 -0.792 -0.064 -0.607 0.004 0.669 0.743 0.789 -0.601 -0.126 0.792 -0.598 -0.125 -0.786 -0.038 -0.617 0.001 0.644 0.765 0.789 -0.599 -0.137 -0.412 0.364 -0.835 0.235 0.915 0.329 0.89 -0.112 -0.442 0.429 0.701 -0.57 -0.005 0.466 -0.885 -0.844 -0.396 0.361 -0.839 -0.398 0.372 -0.001 0.444 -0.896 0.841 -0.039 0.54 0.837 -0.037 0.546 -0.837 -0.392 0.382 0.002 0.405 -0.914 0.837 -0.019 0.547 -0.568 -0.816 0.108 0.134 -0.175 -0.975 0.831 -0.5 0.243 0.239 -0.896 -0.375 0.016 0.824 0.566 -0.489 -0.813 0.316 -0.483 -0.816 0.316 0.015 0.811 0.584 0.533 -0.036 -0.845 0.523 -0.017 -0.852 -0.468 -0.832 0.298 0.017 0.791 0.611 0.5 0.021 -0.866 -0.459 -0.844 0.278 0.021 0.785 0.62 0.485 0.04 -0.874 0.026 0.581 -0.814 -0.375 0.356 0.856 -0.375 0.377 0.847 0.011 0.554 -0.832 0.409 -0.912 -0.025 0.391 -0.92 0.01 -0.367 0.433 0.823 -0.006 0.493 -0.87 0.369 -0.927 0.063 -0.803 0.181 0.568 -0.51 0.174 -0.843 -0.199 -0.979 -0.037 -0.908 -0.375 -0.187 0.002 0.383 0.924 -0.859 -0.304 -0.413 -0.864 -0.29 -0.412 0.001 0.37 0.929 0.864 -0.144 -0.482 0.868 -0.127 -0.48 -0.866 -0.263 -0.426 0.001 0.345 0.938 0.866 -0.096 -0.49 -0.775 0.311 -0.551 -0.057 0.798 0.6 0.659 0.452 -0.602 -0.104 0.938 -0.332 0.006 0.983 0.183 -0.82 -0.539 0.192 -0.82 -0.538 0.195 0.004 0.982 0.187 0.833 -0.454 -0.315 0.832 -0.453 -0.319 -0.818 -0.54 0.2 0.004 0.981 0.193 0.83 -0.45 -0.329 -0.815 -0.542 0.206 0.005 0.98 0.199 0.828 -0.447 -0.339 -0.812 -0.546 0.208 0.008 0.979 0.202 0.826 -0.446 -0.345 0.01 0.632 0.775 -0.585 -0.811 0.024 -0.584 -0.811 0.021 0.009 0.613 0.79 0.618 0.147 -0.772 0.613 0.17 -0.772 -0.58 -0.814 -0.006 0.009 0.584 0.812 0.594 0.214 -0.776 -0.578 -0.815 -0.033 0.01 0.573 0.819 0.579 0.234 -0.781 0.021 0.64 -0.768 -0.301 0.311 0.901 -0.297 0.342 0.892 0.008 0.612 -0.791 0.324 -0.938 -0.122 0.307 -0.948 -0.08 -0.283 0.413 0.866 -0.005 0.545 -0.838 0.285 -0.958 -0.011 -0.753 0.223 0.619 -0.532 0.266 -0.804 -0.292 -0.953 -0.074 -0.948 -0.279 -0.156 0 0.239 0.971 -0.866 -0.107 -0.488 -0.871 -0.096 -0.482 0 0.22 0.975 0.866 -0.132 -0.483 0.871 -0.121 -0.477 -0.871 -0.077 -0.486 -0 0.181 0.983 0.871 -0.102 -0.481 -0.712 0.491 -0.502 0.008 0.682 0.732 0.729 0.47 -0.498 0.015 0.987 -0.161 -0.005 0.849 -0.528 -0.851 -0.506 0.14 -0.848 -0.509 0.147 -0.002 0.843 -0.537 0.845 -0.315 0.432 0.842 -0.312 0.44 -0.846 -0.512 0.149 0 0.827 -0.563 0.841 -0.303 0.448 -0.847 -0.512 0.142 0 0.815 -0.579 0.844 -0.296 0.447 0.002 0.417 -0.909 -0.835 0.005 0.55 -0.83 0.013 0.558 0 0.4 -0.917 0.833 -0.422 0.359 0.828 -0.419 0.373 -0.828 0.037 0.56 -0.002 0.364 -0.931 0.828 -0.406 0.386 -0.846 -0.456 0.278 -0.157 -0.213 -0.965 0.539 -0.832 0.136 -0.279 -0.902 -0.331 0.002 0.72 0.694 -0.784 -0.102 -0.613 -0.782 -0.085 -0.617 0.004 0.709 0.705 0.779 -0.623 -0.076 0.781 -0.62 -0.075 -0.775 -0.059 -0.629 0.002 0.687 0.726 0.779 -0.622 -0.087 -0.388 0.323 -0.863 0.25 0.927 0.279 0.895 -0.157 -0.417 0.455 0.657 -0.601 0.006 0.983 -0.185 -0.828 -0.437 0.352 -0.826 -0.435 0.357 0.004 0.982 -0.187 0.839 -0.533 -0.107 0.837 -0.536 -0.108 -0.824 -0.431 0.368 0.004 0.981 -0.193 0.835 -0.539 -0.11 -0.821 -0.427 0.379 0.004 0.98 -0.199 0.834 -0.541 -0.113 -0.82 -0.425 0.385 0.006 0.979 -0.204 0.834 -0.539 -0.116 0.004 0.52 -0.854 -0.854 -0.121 0.506 -0.849 -0.115 0.515 0.003 0.505 -0.863 0.859 -0.343 0.38 0.855 -0.34 0.392 -0.848 -0.097 0.521 0.001 0.471 -0.882 0.855 -0.329 0.402 -0.852 -0.084 0.516 0.001 0.452 -0.892 0.859 -0.322 0.398 -0.005 0.237 -0.972 -0.859 -0.21 0.467 -0.854 -0.209 0.477 -0.003 0.211 -0.978 0.854 0.04 0.519 0.85 0.042 0.526 -0.853 -0.201 0.482 0 0.16 -0.987 0.851 0.052 0.523 -0.63 -0.706 0.322 0.084 -0.431 -0.899 0.795 -0.493 0.354 0.149 -0.98 -0.134 0.005 0.675 0.738 -0.811 -0.565 -0.154 -0.816 -0.556 -0.158 0.001 0.668 0.744 0.827 -0.155 -0.541 0.826 -0.135 -0.548 -0.818 -0.547 -0.176 0 0.651 0.759 0.819 -0.105 -0.565 -0.868 -0.056 -0.493 -0.188 0.934 0.303 0.486 0.321 -0.813 -0.343 0.721 -0.603 -0.003 0.641 0.768 -0.843 -0.175 -0.508 -0.846 -0.161 -0.509 -0.002 0.628 0.778 0.833 -0.506 -0.225 0.836 -0.5 -0.225 -0.842 -0.135 -0.523 -0.002 0.607 0.794 0.838 -0.49 -0.24 -0.835 -0.123 -0.536 -0.003 0.6 0.8 0.835 -0.486 -0.257 -0 0.321 0.947 -0.866 -0.184 -0.466 -0.87 -0.173 -0.461 -0 0.302 0.953 0.866 -0.137 -0.481 0.87 -0.125 -0.476 -0.87 -0.155 -0.467 0 0.265 0.964 0.87 -0.106 -0.481 -0.736 0.415 -0.534 -0.016 0.742 0.67 0.704 0.455 -0.545 -0.029 0.969 -0.246 -0.009 0.971 -0.237 -0.663 -0.622 -0.416 -0.65 -0.632 -0.421 0.001 0.97 -0.243 0.65 -0.343 0.679 0.646 -0.337 0.685 -0.631 -0.643 -0.434 0.006 0.966 -0.259 0.633 -0.325 0.702 -0.137 -0.644 -0.753 0.386 0.692 -0.611 0.903 -0.375 0.208 0.692 -0.197 -0.694 -0.001 0.95 -0.311 -0.866 -0.479 0.144 -0.864 -0.481 0.147 -0.001 0.949 -0.316 0.864 -0.45 0.228 0.862 -0.45 0.232 -0.864 -0.48 0.151 -0.001 0.946 -0.325 0.862 -0.447 0.238 -0.864 -0.478 0.156 -0.001 0.942 -0.336 0.862 -0.444 0.245 -0.866 -0.475 0.158 -0.001 0.94 -0.341 0.863 -0.44 0.248 0.004 0.671 0.742 -0.828 -0.527 -0.193 -0.831 -0.522 -0.192 0.003 0.659 0.752 0.84 -0.184 -0.511 0.842 -0.171 -0.513 -0.832 -0.516 -0.206 0.004 0.638 0.77 0.838 -0.147 -0.526 -0.828 -0.515 -0.221 0.005 0.629 0.778 0.832 -0.138 -0.537 -0.001 0.632 0.775 -0.726 0.05 -0.686 -0.721 0.072 -0.689 0.003 0.619 0.785 0.713 -0.697 -0.076 0.716 -0.693 -0.078 -0.71 0.107 -0.696 0.001 0.592 0.806 0.714 -0.694 -0.097 -0.263 0.468 -0.844 0.318 0.851 0.419 0.911 -0.211 -0.355 0.58 0.666 -0.469 0.011 0.91 0.415 -0.455 -0.757 0.469 -0.453 -0.759 0.467 0.001 0.903 0.43 0.485 -0.163 -0.859 0.466 -0.147 -0.873 -0.438 -0.776 0.455 -0.003 0.892 0.453 0.434 -0.114 -0.894 -0.837 -0.531 0.129 -0.481 0.865 0.142 -0.134 0.044 -0.99 -0.873 0.227 -0.432 -0.007 0.555 -0.832 -0.841 -0.441 0.313 -0.837 -0.44 0.326 -0.004 0.54 -0.841 0.833 -0.068 0.549 0.828 -0.061 0.557 -0.835 -0.437 0.335 -0 0.503 -0.864 0.828 -0.044 0.559 -0.837 -0.437 0.33 0.001 0.48 -0.877 0.833 -0.034 0.552 0.002 0.313 -0.95 -0.853 -0.009 0.522 -0.848 -0.002 0.53 0 0.295 -0.956 0.851 -0.304 0.428 0.847 -0.298 0.441 -0.847 0.021 0.532 -0.001 0.257 -0.966 0.847 -0.282 0.45 -0.809 -0.501 0.307 -0.103 -0.332 -0.938 0.608 -0.756 0.242 -0.183 -0.955 -0.233 -0.005 0.953 0.304 -0.353 -0.238 -0.905 -0.334 -0.225 -0.915 0.001 0.946 0.324 0.336 -0.718 0.61 0.327 -0.722 0.61 -0.3 -0.194 -0.934 0.002 0.936 0.351 0.303 -0.742 0.598 0.287 -0.079 -0.955 0.521 0.844 0.127 0.763 -0.564 0.316 0.944 0.121 -0.307</float_array><technique_common><accessor source="#BUSH_1-nrm-a" count="747" stride="3"><param name="X" type="float"/><param name="Y" type="float"/><param name="Z" type="float"/></accessor></technique_common></source>
        <vertices id="BUSH_1-vtx"><input semantic="POSITION" source="#BUSH_1-pos"/></vertices>
        <triangles count="640" material="MAT_BUSH_0-mat"><input semantic="VERTEX" source="#BUSH_1-vtx" offset="0"/><input semantic="NORMAL" source="#BUSH_1-nrm" offset="1"/><p>0 0 1 1 2 2 1 1 0 0 3 3 0 0 2 2 4 4 0 0 4 4 5 5 0 0 5 5 3 3 1 1 3 3 6 6 2 2 1 1 7 7 4 4 2 2 8 8 5 5 4 4 9 9 3 3 5 5 10 10 1 1 6 6 7 7 2 2 7 7 8 8 4 4 8 8 9 9 5 5 9 9 10 10 3 3 10 10 6 6 7 7 6 6 11 11 8 8 7 7 11 11 9 9 8 8 11 11 10 10 9 9 11 11 6 6 10 10 11 11 12 12 13 13 14 14 13 13 12 12 15 15 12 12 14 14 16 16 12 12 16 16 17 17 12 12 17 17 15 15 13 13 15 15 18 18 14 14 13 13 19 19 16 16 14 14 20 20 17 17 16 16 21 21 15 15 17 17 22 22 13 13 18 18 19 19 14 14 19 19 20 20 16 16 20 20 21 21 17 17 21 21 22 22 15 15 22 22 18 18 19 19 18 18 23 23 20 20 19 19 23 23 21 21 20 20 23 23 22 22 21 21 23 23 18 18 22 22 23 23 24 24 25 25 26 26 25 25 24 24 27 27 24 24 26 26 28 28 24 24 28 28 29 29 24 24 29 29 27 27 25 25 27 27 30 30 26 26 25 25 31 31 28 28 26 26 32 32 29 29 28 28 33 33 27 27 29 29 34 34 25 25 30 30 31 31 26 26 31 31 32 32 28 28 32 32 33 33 29 29 33 33 34 34 27 27 34 34 30 30 31 31 30 30 35 35 32 32 31 31 35 35 33 33 32 32 35 35 34 34 33 33 35 35 30 30 34 34 35 35 36 36 37 37 38 38 37 37 36 36 39 39 36 36 38 38 40 40 36 36 40 40 41 41 36 36 41 41 39 39 37 37 39 39 42 42 38 38 37 37 43 43 40 40 38 38 44 44 41 41 40 40 45 45 39 39 41 41 46 46 37 37 42 42 43 43 38 38 43 43 44 44 40 40 44 44 45 45 41 41 45 45 46 46 39 39 46 46 42 42 43 43 42 42 47 47 44 44 43 43 47 47 45 45 44 44 47 47 46 46 45 45 47 47 42 42 46 46 47 47 48 48 49 49 50 50 49 49 48 48 51 51 48 48 50 50 52 52 48 48 52 52 53 53 48 48 53 53 51 51 49 49 51 51 54 54 50 50 49 49 55 55 52 52 50 50 56 56 53 53 52 52 57 57 51 51 53 53 58 58 49 49 54 54 55 55 50 50 55 55 56 56 52 52 56 56 57 57 53 53 57 57 58 58 51 51 58 58 54 54 55 55 54 54 59 59 56 56 55 55 59 59 57 57 56 56 59 59 58 58 57 57 59 59 54 54 58 58 59 59 60 60 61 61 62 62 61 61 60 60 63 63 60 60 62 62 64 64 60 60 64 64 65 65 60 60 65 65 63 63 61 61 63 63 66 66 62 62 61 61 67 67 64 64 62 62 68 68 65 65 64 64 69 69 63 63 65 65 70 70 61 61 66 66 67 67 62 62 67 67 68 68 64 64 68 68 69 69 65 65 69 69 70 70 63 63 70 70 66 66 67 67 66 66 71 71 68 68 67 67 71 71 69 69 68 68 71 71 70 70 69 69 71 71 66 66 70 70 71 71 72 72 73 73 74 74 73 73 72 72 75 75 72 72 74 74 76 76 72 72 76 76 77 77 72 72 77 77 75 75 73 73 75 75 78 78 74 74 73 73 79 79 76 76 74 74 80 80 77 77 76 76 81 81 75 75 77 77 82 82 73 73 78 78 79 79 74 74 79 79 80 80 76 76 80 80 81 81 77 77 81 81 82 82 75 75 82 82 78 78 79 79 78 78 83 83 80 80 79 79 83 83 81 81 80 80 83 83 82 82 81 81 83 83 78 78 82 82 83 83 84 84 85 85 86 86 85 85 84 84 87 87 84 84 86 86 88 88 84 84 88 88 89 89 84 84 89 89 87 87 85 85 87 87 90 90 86 86 85 85 91 91 88 88 86 86 92 92 89 89 88 88 93 93 87 87 89 89 94 94 85 85 90 90 91 91 86 86 91 91 92 92 88 88 92 92 93 93 89 89 93 93 94 94 87 87 94 94 90 90 91 91 90 90 95 95 92 92 91 91 95 95 93 93 92 92 95 95 94 94 93 93 95 95 90 90 94 94 95 95 96 96 97 97 98 98 97 97 96 96 99 99 96 96 98 98 100 100 96 96 100 100 101 101 96 96 101 101 99 99 97 97 99 99 102 102 98 98 97 97 103 103 100 100 98 98 104 104 101 101 100 100 105 105 99 99 101 101 106 106 97 97 102 102 103 103 98 98 103 103 104 104 100 100 104 104 105 105 101 101 105 105 106 106 99 99 106 106 102 102 103 103 102 102 107 107 104 104 103 103 107 107 105 105 104 104 107 107 106 106 105 105 107 107 102 102 106 106 107 107 108 108 109 109 110 110 109 109 108 108 111 111 108 108 110 110 112 112 108 108 112 112 113 113 108 108 113 113 111 111 109 109 111 111 114 114 110 110 109 109 115 115 112 112 110 110 116 116 113 113 112 112 117 117 111 111 113 113 118 118 109 109 114 114 115 115 110 110 115 115 116 116 112 112 116 116 117 117 113 113 117 117 118 118 111 111 118 118 114 114 115 115 114 114 119 119 116 116 115 115 119 119 117 117 116 116 119 119 118 118 117 117 119 119 114 114 118 118 119 119 120 120 121 121 122 122 121 121 120 120 123 123 120 120 122 122 124 124 120 120 124 124 125 125 120 120 125 125 123 123 121 121 123 123 126 126 122 122 121 121 127 127 124 124 122 122 128 128 125 125 124 124 129 129 123 123 125 125 130 130 121 121 126 126 127 127 122 122 127 127 128 128 124 124 128 128 129 129 125 125 129 129 130 130 123 123 130 130 126 126 127 127 126 126 131 131 128 128 127 127 131 131 129 129 128 128 131 131 130 130 129 129 131 131 126 126 130 130 131 131 132 132 133 133 134 134 133 133 132 132 135 135 132 132 134 134 136 136 132 132 136 136 137 137 132 132 137 137 135 135 133 133 135 135 138 138 134 134 133 133 139 139 136 136 134 134 140 140 137 137 136 136 141 141 135 135 137 137 142 142 133 133 138 138 139 139 134 134 139 139 140 140 136 136 140 140 141 141 137 137 141 141 142 142 135 135 142 142 138 138 139 139 138 138 143 143 140 140 139 139 143 143 141 141 140 140 143 143 142 142 141 141 143 143 138 138 142 142 143 143 144 144 145 145 146 146 145 145 144 144 147 147 144 144 146 146 148 148 144 144 148 148 149 149 144 144 149 149 147 147 145 145 147 147 150 150 146 146 145 145 151 151 148 148 146 146 152 152 149 149 148 148 153 153 147 147 149 149 154 154 145 145 150 150 151 151 146 146 151 151 152 152 148 148 152 152 153 153 149 149 153 153 154 154 147 147 154 154 150 150 151 151 150 150 155 155 152 152 151 151 155 155 153 153 152 152 155 155 154 154 153 153 155 155 150 150 154 154 155 155 156 156 157 157 158 158 157 157 156 156 159 159 156 156 158 158 160 160 156 156 160 160 161 161 156 156 161 161 159 159 157 157 159 159 162 162 158 158 157 157 163 163 160 160 158 158 164 164 161 161 160 160 165 165 159 159 161 161 166 166 157 157 162 162 163 163 158 158 163 163 164 164 160 160 164 164 165 165 161 161 165 165 166 166 159 159 166 166 162 162 163 163 162 162 167 167 164 164 163 163 167 167 165 165 164 164 167 167 166 166 165 165 167 167 162 162 166 166 167 167 168 168 169 169 170 170 169 169 168 168 171 171 168 168 170 170 172 172 168 168 172 172 173 173 168 168 173 173 171 171 169 169 171 171 174 174 170 170 169 169 175 175 172 172 170 170 176 176 173 173 172 172 177 177 171 171 173 173 178 178 169 169 174 174 175 175 170 170 175 175 176 176 172 172 176 176 177 177 173 173 177 177 178 178 171 171 178 178 174 174 175 175 174 174 179 179 176 176 175 175 179 179 177 177 176 176 179 179 178 178 177 177 179 179 174 174 178 178 179 179 180 180 181 181 182 182 181 181 180 180 183 183 180 180 182 182 184 184 180 180 184 184 185 185 180 180 185 185 183 183 181 181 183 183 186 186 182 182 181 181 187 187 184 184 182 182 188 188 185 185 184 184 189 189 183 183 185 185 190 190 181 181 186 186 187 187 182 182 187 187 188 188 184 184 188 188 189 189 185 185 189 189 190 190 183 183 190 190 186 186 187 187 186 186 191 191 188 188 187 187 191 191 189 189 188 188 191 191 190 190 189 189 191 191 186 186 190 190 191 191 192 192 193 193 194 194 193 193 192 192 195 195 192 192 194 194 196 196 192 192 196 196 197 197 192 192 197 197 195 195 193 193 195 195 198 198 194 194 193 193 199 199 196 196 194 194 200 200 197 197 196 196 201 201 195 195 197 197 202 202 193 193 198 198 199 199 194 194 199 199 200 200 196 196 200 200 201 201 197 197 201 201 202 202 195 195 202 202 198 198 199 199 198 198 203 203 200 200 199 199 203 203 201 201 200 200 203 203 202 202 201 201 203 203 198 198 202 202 203 203 204 204 205 205 206 206 205 205 204 204 207 207 204 204 206 206 208 208 204 204 208 208 209 209 204 204 209 209 207 207 205 205 207 207 210 210 206 206 205 205 211 211 208 208 206 206 212 212 209 209 208 208 213 213 207 207 209 209 214 214 205 205 210 210 211 211 206 206 211 211 212 212 208 208 212 212 213 213 209 209 213 213 214 214 207 207 214 214 210 210 211 211 210 210 215 215 212 212 211 211 215 215 213 213 212 212 215 215 214 214 213 213 215 215 210 210 214 214 215 215 216 216 217 217 218 218 217 217 216 216 219 219 216 216 218 218 220 220 216 216 220 220 221 221 216 216 221 221 219 219 217 217 219 219 222 222 218 218 217 217 223 223 220 220 218 218 224 224 221 221 220 220 225 225 219 219 221 221 226 226 217 217 222 222 223 223 218 218 223 223 224 224 220 220 224 224 225 225 221 221 225 225 226 226 219 219 226 226 222 222 223 223 222 222 227 227 224 224 223 223 227 227 225 225 224 224 227 227 226 226 225 225 227 227 222 222 226 226 227 227 228 228 229 145 230 229 229 145 228 228 231 230 228 228 230 229 232 231 228 228 232 231 233 232 228 228 233 232 231 230 229 145 231 230 234 233 230 229 229 145 235 234 232 231 230 229 236 235 233 232 232 231 237 236 231 230 233 232 238 237 229 145 234 233 235 234 230 229 235 234 236 235 232 231 236 235 237 236 233 232 237 236 238 237 231 230 238 237 234 233 235 234 234 233 239 238 236 235 235 234 239 238 237 236 236 235 239 238 238 237 237 236 239 238 234 233 238 237 239 238 240 239 241 240 242 241 241 240 240 239 243 242 240 239 242 241 244 243 240 239 244 243 245 244 240 239 245 244 243 242 241 240 243 242 246 245 242 241 241 240 247 246 244 243 242 241 248 247 245 244 244 243 249 248 243 242 245 244 250 249 241 240 246 245 247 246 242 241 247 246 248 247 244 243 248 247 249 248 245 244 249 248 250 249 243 242 250 249 246 245 247 246 246 245 251 250 248 247 247 246 251 250 249 248 248 247 251 250 250 249 249 248 251 250 246 245 250 249 251 250 252 251 253 252 254 253 253 252 252 251 255 254 252 251 254 253 256 255 252 251 256 255 257 256 252 251 257 256 255 254 253 252 255 254 258 257 254 253 253 252 259 258 256 255 254 253 260 259 257 256 256 255 261 260 255 254 257 256 262 261 253 252 258 257 259 258 254 253 259 258 260 259 256 255 260 259 261 260 257 256 261 260 262 261 255 254 262 261 258 257 259 258 258 257 263 262 260 259 259 258 263 262 261 260 260 259 263 262 262 261 261 260 263 262 258 257 262 261 263 262 264 263 265 264 266 265 265 264 264 263 267 266 264 263 266 265 268 267 264 263 268 267 269 268 264 263 269 268 267 266 265 264 267 266 270 269 266 265 265 264 271 270 268 267 266 265 272 271 269 268 268 267 273 272 267 266 269 268 274 273 265 264 270 269 271 270 266 265 271 270 272 271 268 267 272 271 273 272 269 268 273 272 274 273 267 266 274 273 270 269 271 270 270 269 275 274 272 271 271 270 275 274 273 272 272 271 275 274 274 273 273 272 275 274 270 269 274 273 275 274 276 275 277 276 278 277 277 276 276 275 279 278 276 275 278 277 280 279 276 275 280 279 281 280 276 275 281 280 279 278 277 276 279 278 282 281 278 277 277 276 283 282 280 279 278 277 284 283 281 280 280 279 285 284 279 278 281 280 286 285 277 276 282 281 283 282 278 277 283 282 284 283 280 279 284 283 285 284 281 280 285 284 286 285 279 278 286 285 282 281 283 282 282 281 287 286 284 283 283 282 287 286 285 284 284 283 287 286 286 285 285 284 287 286 282 281 286 285 287 286 288 287 289 288 290 289 289 288 288 287 291 290 288 287 290 289 292 291 288 287 292 291 293 292 288 287 293 292 291 290 289 288 291 290 294 293 290 289 289 288 295 294 292 291 290 289 296 295 293 292 292 291 297 296 291 290 293 292 298 297 289 288 294 293 295 294 290 289 295 294 296 295 292 291 296 295 297 296 293 292 297 296 298 297 291 290 298 297 294 293 295 294 294 293 299 298 296 295 295 294 299 298 297 296 296 295 299 298 298 297 297 296 299 298 294 293 298 297 299 298 300 299 301 300 302 301 301 300 300 299 303 302 300 299 302 301 304 303 300 299 304 303 305 304 300 299 305 304 303 302 301 300 303 302 306 305 302 301 301 300 307 306 304 303 302 301 308 307 305 304 304 303 309 308 303 302 305 304 310 309 301 300 306 305 307 306 302 301 307 306 308 307 304 303 308 307 309 308 305 304 309 308 310 309 303 302 310 309 306 305 307 306 306 305 311 310 308 307 307 306 311 310 309 308 308 307 311 310 310 309 309 308 311 310 306 305 310 309 311 310 312 311 313 312 314 313 313 312 312 311 315 314 312 311 314 313 316 315 312 311 316 315 317 316 312 311 317 316 315 314 313 312 315 314 318 317 314 313 313 312 319 318 316 315 314 313 320 319 317 316 316 315 321 320 315 314 317 316 322 321 313 312 318 317 319 318 314 313 319 318 320 319 316 315 320 319 321 320 317 316 321 320 322 321 315 314 322 321 318 317 319 318 318 317 323 322 320 319 319 318 323 322 321 320 320 319 323 322 322 321 321 320 323 322 318 317 322 321 323 322 324 323 325 324 326 325 325 324 324 323 327 326 324 323 326 325 328 327 324 323 328 327 329 328 324 323 329 328 327 326 325 324 327 326 330 329 326 325 325 324 331 330 328 327 326 325 332 331 329 328 328 327 333 332 327 326 329 328 334 333 325 324 330 329 331 330 326 325 331 330 332 331 328 327 332 331 333 332 329 328 333 332 334 333 327 326 334 333 330 329 331 330 330 329 335 334 332 331 331 330 335 334 333 332 332 331 335 334 334 333 333 332 335 334 330 329 334 333 335 334 336 335 337 336 338 337 337 336 336 335 339 338 336 335 338 337 340 339 336 335 340 339 341 340 336 335 341 340 339 338 337 336 339 338 342 341 338 337 337 336 343 342 340 339 338 337 344 343 341 340 340 339 345 344 339 338 341 340 346 345 337 336 342 341 343 342 338 337 343 342 344 343 340 339 344 343 345 344 341 340 345 344 346 345 339 338 346 345 342 341 343 342 342 341 347 346 344 343 343 342 347 346 345 344 344 343 347 346 346 345 345 344 347 346 342 341 346 345 347 346 348 347 349 348 350 349 349 348 348 347 351 350 348 347 350 349 352 351 348 347 352 351 353 352 348 347 353 352 351 350 349 348 351 350 354 353 350 349 349 348 355 354 352 351 350 349 356 355 353 352 352 351 357 356 351 350 353 352 358 357 349 348 354 353 355 354 350 349 355 354 356 355 352 351 356 355 357 356 353 352 357 356 358 357 351 350 358 357 354 353 355 354 354 353 359 358 356 355 355 354 359 358 357 356 356 355 359 358 358 357 357 356 359 358 354 353 358 357 359 358 360 359 361 360 362 361 361 360 360 359 363 362 360 359 362 361 364 363 360 359 364 363 365 364 360 359 365 364 363 362 361 360 363 362 366 365 362 361 361 360 367 366 364 363 362 361 368 367 365 364 364 363 369 368 363 362 365 364 370 369 361 360 366 365 367 366 362 361 367 366 368 367 364 363 368 367 369 368 365 364 369 368 370 369 363 362 370 369 366 365 367 366 366 365 371 370 368 367 367 366 371 370 369 368 368 367 371 370 370 369 369 368 371 370 366 365 370 369 371 370 372 371 373 372 374 373 373 372 372 371 375 374 372 371 374 373 376 375 372 371 376 375 377 376 372 371 377 376 375 374 373 372 375 374 378 377 374 373 373 372 379 378 376 375 374 373 380 379 377 376 376 375 381 380 375 374 377 376 382 381 373 372 378 377 379 378 374 373 379 378 380 379 376 375 380 379 381 380 377 376 381 380 382 381 375 374 382 381 378 377 379 378 378 377 383 382 380 379 379 378 383 382 381 380 380 379 383 382 382 381 381 380 383 382 378 377 382 381 383 382</p></triangles>
        <triangles count="576" material="MAT_BUSH_STEM-mat"><input semantic="VERTEX" source="#BUSH_1-vtx" offset="0"/><input semantic="NORMAL" source="#BUSH_1-nrm" offset="1"/><p>384 383 385 384 386 385 384 383 386 385 387 386 385 384 388 387 389 388 385 384 389 388 386 385 388 387 384 383 387 386 388 387 387 386 389 388 387 386 386 385 390 389 387 386 390 389 391 390 386 385 389 388 392 391 386 385 392 391 390 389 389 388 387 386 391 390 389 388 391 390 392 391 391 390 390 389 393 392 391 390 393 392 394 393 390 389 392 391 395 394 390 389 395 394 393 392 392 391 391 390 394 393 392 391 394 393 395 394 394 393 393 392 396 395 394 393 396 395 397 396 393 392 395 394 398 397 393 392 398 397 396 395 395 394 394 393 397 396 395 394 397 396 398 397 399 398 400 399 401 400 399 398 401 400 402 401 400 399 403 402 404 403 400 399 404 403 401 400 403 402 399 398 402 401 403 402 402 401 404 403 402 401 401 400 405 404 402 401 405 404 406 405 401 400 404 403 407 406 401 400 407 406 405 404 404 403 402 401 406 405 404 403 406 405 407 406 406 405 405 404 408 407 406 405 408 407 409 408 405 404 407 406 410 409 405 404 410 409 408 407 407 406 406 405 409 408 407 406 409 408 410 409 411 410 412 411 413 412 411 410 413 412 414 413 412 411 415 414 416 415 412 411 416 415 413 412 415 414 411 410 414 413 415 414 414 413 416 415 414 413 413 412 417 416 414 413 417 416 418 417 413 412 416 415 419 418 413 412 419 418 417 416 416 415 414 413 418 417 416 415 418 417 419 418 418 417 417 416 420 419 418 417 420 419 421 420 417 416 419 418 422 421 417 416 422 421 420 419 419 418 418 417 421 420 419 418 421 420 422 421 420 419 421 420 423 422 422 421 420 419 423 422 421 420 422 421 423 422 424 423 425 424 426 425 424 423 426 425 427 426 425 424 428 427 429 428 425 424 429 428 426 425 428 427 424 423 427 426 428 427 427 426 429 428 427 426 426 425 430 429 427 426 430 429 431 430 426 425 429 428 432 431 426 425 432 431 430 429 429 428 427 426 431 430 429 428 431 430 432 431 431 430 430 429 433 432 431 430 433 432 434 433 430 429 432 431 435 434 430 429 435 434 433 432 432 431 431 430 434 433 432 431 434 433 435 434 433 432 434 433 436 435 435 434 433 432 436 435 434 433 435 434 436 435 437 436 438 437 439 438 437 436 439 438 440 439 438 437 441 440 442 441 438 437 442 441 439 438 441 440 437 436 440 439 441 440 440 439 442 441 440 439 439 438 443 442 440 439 443 442 444 443 439 438 442 441 445 444 439 438 445 444 443 442 442 441 440 439 444 443 442 441 444 443 445 444 444 443 443 442 446 445 444 443 446 445 447 446 443 442 445 444 448 447 443 442 448 447 446 445 445 444 444 443 447 446 445 444 447 446 448 447 449 448 450 449 451 450 449 448 451 450 452 451 450 449 453 452 454 453 450 449 454 453 451 450 453 452 449 448 452 451 453 452 452 451 454 453 452 451 451 450 455 454 452 451 455 454 456 455 451 450 454 453 457 456 451 450 457 456 455 454 454 453 452 451 456 455 454 453 456 455 457 456 456 455 455 454 458 457 456 455 458 457 459 458 455 454 457 456 460 459 455 454 460 459 458 457 457 456 456 455 459 458 457 456 459 458 460 459 458 457 459 458 461 460 460 459 458 457 461 460 459 458 460 459 461 460 462 461 463 462 464 463 462 461 464 463 465 464 463 462 466 465 467 466 463 462 467 466 464 463 466 465 462 461 465 464 466 465 465 464 467 466 465 464 464 463 468 467 465 464 468 467 469 468 464 463 467 466 470 469 464 463 470 469 468 467 467 466 465 464 469 468 467 466 469 468 470 469 469 468 468 467 471 470 469 468 471 470 472 471 468 467 470 469 473 472 468 467 473 472 471 470 470 469 469 468 472 471 470 469 472 471 473 472 471 470 472 471 474 473 473 472 471 470 474 473 472 471 473 472 474 473 475 474 476 475 477 476 475 474 477 476 478 477 476 475 479 478 480 479 476 475 480 479 477 476 479 478 475 474 478 477 479 478 478 477 480 479 478 477 477 476 481 480 478 477 481 480 482 481 477 476 480 479 483 482 477 476 483 482 481 480 480 479 478 477 482 481 480 479 482 481 483 482 482 481 481 480 484 483 482 481 484 483 485 484 481 480 483 482 486 485 481 480 486 485 484 483 483 482 482 481 485 484 483 482 485 484 486 485 485 484 484 483 487 486 485 484 487 486 488 487 484 483 486 485 489 488 484 483 489 488 487 486 486 485 485 484 488 487 486 485 488 487 489 488 490 489 491 490 492 491 490 489 492 491 493 492 491 490 494 493 495 494 491 490 495 494 492 491 494 493 490 489 493 492 494 493 493 492 495 494 493 492 492 491 496 495 493 492 496 495 497 496 492 491 495 494 498 497 492 491 498 497 496 495 495 494 493 492 497 496 495 494 497 496 498 497 497 496 496 495 499 498 497 496 499 498 500 499 496 495 498 497 501 500 496 495 501 500 499 498 498 497 497 496 500 499 498 497 500 499 501 500 502 501 503 502 504 503 502 501 504 503 505 504 503 502 506 505 507 506 503 502 507 506 504 503 506 505 502 501 505 504 506 505 505 504 507 506 505 504 504 503 508 507 505 504 508 507 509 508 504 503 507 506 510 509 504 503 510 509 508 507 507 506 505 504 509 508 507 506 509 508 510 509 509 508 508 507 511 510 509 508 511 510 512 511 508 507 510 509 513 512 508 507 513 512 511 510 510 509 509 508 512 511 510 509 512 511 513 512 511 510 512 511 514 513 513 512 511 510 514 513 512 511 513 512 514 513 515 514 516 515 517 516 515 514 517 516 518 517 516 515 519 518 520 519 516 515 520 519 517 516 519 518 515 514 518 517 519 518 518 517 520 519 518 517 517 516 521 520 518 517 521 520 522 521 517 516 520 519 523 522 517 516 523 522 521 520 520 519 518 517 522 521 520 519 522 521 523 522 522 521 521 520 524 523 522 521 524 523 525 524 521 520 523 522 526 525 521 520 526 525 524 523 523 522 522 521 525 524 523 522 525 524 526 525 524 523 525 524 527 526 526 525 524 523 527 526 525 524 526 525 527 526 528 527 529 528 530 529 528 527 530 529 531 530 529 528 532 531 533 532 529 528 533 532 530 529 532 531 528 527 531 530 532 531 531 530 533 532 531 530 530 529 534 533 531 530 534 533 535 534 530 529 533 532 536 535 530 529 536 535 534 533 533 532 531 530 535 534 533 532 535 534 536 535 535 534 534 533 537 536 535 534 537 536 538 537 534 533 536 535 539 538 534 533 539 538 537 536 536 535 535 534 538 537 536 535 538 537 539 538 540 539 541 540 542 541 540 539 542 541 543 542 541 540 544 543 545 544 541 540 545 544 542 541 544 543 540 539 543 542 544 543 543 542 545 544 543 542 542 541 546 545 543 542 546 545 547 546 542 541 545 544 548 547 542 541 548 547 546 545 545 544 543 542 547 546 545 544 547 546 548 547 547 546 546 545 549 548 547 546 549 548 550 549 546 545 548 547 551 550 546 545 551 550 549 548 548 547 547 546 550 549 548 547 550 549 551 550 549 548 550 549 552 551 551 550 549 548 552 551 550 549 551 550 552 551 553 552 554 553 555 554 553 552 555 554 556 555 554 553 557 556 558 557 554 553 558 557 555 554 557 556 553 552 556 555 557 556 556 555 558 557 556 555 555 554 559 558 556 555 559 558 560 559 555 554 558 557 561 560 555 554 561 560 559 558 558 557 556 555 560 559 558 557 560 559 561 560 560 559 559 558 562 561 560 559 562 561 563 562 559 558 561 560 564 563 559 558 564 563 562 561 561 560 560 559 563 562 561 560 563 562 564 563 562 561 563 562 565 564 564 563 562 561 565 564 563 562 564 563 565 564 566 565 567 566 568 567 566 565 568 567 569 568 567 566 570 569 571 570 567 566 571 570 568 567 570 569 566 565 569 568 570 569 569 568 571 570 569 568 568 567 572 571 569 568 572 571 573 572 568 567 571 570 574 573 568 567 574 573 572 571 571 570 569 568 573 572 571 570 573 572 574 573 573 572 572 571 575 574 573 572 575 574 576 575 572 571 574 573 577 576 572 571 577 576 575 574 574 573 573 572 576 575 574 573 576 575 577 576 576 575 575 574 578 577 576 575 578 577 579 578 575 574 577 576 580 579 575 574 580 579 578 577 577 576 576 575 579 578 577 576 579 578 580 579 581 580 582 581 583 582 581 580 583 582 584 583 582 581 585 584 586 585 582 581 586 585 583 582 585 584 581 580 584 583 585 584 584 583 586 585 584 583 583 582 587 586 584 583 587 586 588 587 583 582 586 585 589 588 583 582 589 588 587 586 586 585 584 583 588 587 586 585 588 587 589 588 588 587 587 586 590 589 588 587 590 589 591 590 587 586 589 588 592 591 587 586 592 591 590 589 589 588 588 587 591 590 589 588 591 590 592 591 593 592 594 593 595 594 593 592 595 594 596 595 594 593 597 596 598 597 594 593 598 597 595 594 597 596 593 592 596 595 597 596 596 595 598 597 596 595 595 594 599 598 596 595 599 598 600 599 595 594 598 597 601 600 595 594 601 600 599 598 598 597 596 595 600 599 598 597 600 599 601 600 600 599 599 598 602 601 600 599 602 601 603 602 599 598 601 600 604 603 599 598 604 603 602 601 601 600 600 599 603 602 601 600 603 602 604 603 602 601 603 602 605 604 604 603 602 601 605 604 603 602 604 603 605 604 606 605 607 606 608 607 606 605 608 607 609 608 607 606 610 609 611 610 607 606 611 610 608 607 610 609 606 605 609 608 610 609 609 608 611 610 609 608 608 607 612 611 609 608 612 611 613 612 608 607 611 610 614 613 608 607 614 613 612 611 611 610 609 608 613 612 611 610 613 612 614 613 613 612 612 611 615 614 613 612 615 614 616 615 612 611 614 613 617 616 612 611 617 616 615 614 614 613 613 612 616 615 614 613 616 615 617 616 615 614 616 615 618 617 617 616 615 614 618 617 616 615 617 616 618 617 619 618 620 619 621 620 619 618 621 620 622 621 620 619 623 622 624 623 620 619 624 623 621 620 623 622 619 618 622 621 623 622 622 621 624 623 622 621 621 620 625 624 622 621 625 624 626 625 621 620 624 623 627 626 621 620 627 626 625 624 624 623 622 621 626 625 624 623 626 625 627 626 626 625 625 624 628 627 626 625 628 627 629 628 625 624 627 626 630 629 625 624 630 629 628 627 627 626 626 625 629 628 627 626 629 628 630 629 631 630 632 631 633 632 631 630 633 632 634 633 632 631 635 634 636 635 632 631 636 635 633 632 635 634 631 630 634 633 635 634 634 633 636 635 634 633 633 632 637 636 634 633 637 636 638 637 633 632 636 635 639 638 633 632 639 638 637 636 636 635 634 633 638 637 636 635 638 637 639 638 638 637 637 636 640 639 638 637 640 639 641 640 637 636 639 638 642 641 637 636 642 641 640 639 639 638 638 637 641 640 639 638 641 640 642 641 640 639 641 640 643 642 642 641 640 639 643 642 641 640 642 641 643 642 644 643 645 644 646 645 644 643 646 645 647 646 645 644 648 647 649 648 645 644 649 648 646 645 648 647 644 643 647 646 648 647 647 646 649 648 647 646 646 645 650 649 647 646 650 649 651 650 646 645 649 648 652 651 646 645 652 651 650 649 649 648 647 646 651 650 649 648 651 650 652 651 651 650 650 649 653 652 651 650 653 652 654 653 650 649 652 651 655 654 650 649 655 654 653 652 652 651 651 650 654 653 652 651 654 653 655 654 653 652 654 653 656 655 655 654 653 652 656 655 654 653 655 654 656 655 657 656 658 657 659 658 657 656 659 658 660 659 658 657 661 660 662 661 658 657 662 661 659 658 661 660 657 656 660 659 661 660 660 659 662 661 660 659 659 658 663 662 660 659 663 662 664 663 659 658 662 661 665 664 659 658 665 664 663 662 662 661 660 659 664 663 662 661 664 663 665 664 664 663 663 662 666 665 664 663 666 665 667 666 663 662 665 664 668 667 663 662 668 667 666 665 665 664 664 663 667 666 665 664 667 666 668 667 667 666 666 665 669 668 667 666 669 668 670 669 666 665 668 667 671 670 666 665 671 670 669 668 668 667 667 666 670 669 668 667 670 669 671 670 672 671 673 672 674 673 672 671 674 673 675 674 673 672 676 675 677 676 673 672 677 676 674 673 676 675 672 671 675 674 676 675 675 674 677 676 675 674 674 673 678 677 675 674 678 677 679 678 674 673 677 676 680 679 674 673 680 679 678 677 677 676 675 674 679 678 677 676 679 678 680 679 679 678 678 677 681 680 679 678 681 680 682 681 678 677 680 679 683 682 678 677 683 682 681 680 680 679 679 678 682 681 680 679 682 681 683 682 684 683 685 684 686 685 684 683 686 685 687 686 685 684 688 687 689 688 685 684 689 688 686 685 688 687 684 683 687 686 688 687 687 686 689 688 687 686 686 685 690 689 687 686 690 689 691 690 686 685 689 688 692 691 686 685 692 691 690 689 689 688 687 686 691 690 689 688 691 690 692 691 691 690 690 689 693 692 691 690 693 692 694 693 690 689 692 691 695 694 690 689 695 694 693 692 692 691 691 690 694 693 692 691 694 693 695 694 693 692 694 693 696 695 695 694 693 692 696 695 694 693 695 694 696 695 697 696 698 697 699 698 697 696 699 698 700 699 698 697 701 700 702 701 698 697 702 701 699 698 701 700 697 696 700 699 701 700 700 699 702 701 700 699 699 698 703 702 700 699 703 702 704 703 699 698 702 701 705 704 699 698 705 704 703 702 702 701 700 699 704 703 702 701 704 703 705 704 704 703 703 702 706 705 704 703 706 705 707 706 703 702 705 704 708 707 703 702 708 707 706 705 705 704 704 703 707 706 705 704 707 706 708 707 706 705 707 706 709 708 708 707 706 705 709 708 707 706 708 707 709 708 710 709 711 710 712 711 710 709 712 711 713 712 711 710 714 713 715 714 711 710 715 714 712 711 714 713 710 709 713 712 714 713 713 712 715 714 713 712 712 711 716 715 713 712 716 715 717 716 712 711 715 714 718 717 712 711 718 717 716 715 715 714 713 712 717 716 715 714 717 716 718 717 717 716 716 715 719 718 717 716 719 718 720 719 716 715 718 717 721 720 716 715 721 720 719 718 718 717 717 716 720 719 718 717 720 719 721 720 722 721 723 722 724 723 722 721 724 723 725 724 723 722 726 725 727 726 723 722 727 726 724 723 726 725 722 721 725 724 726 725 725 724 727 726 725 724 724 723 728 727 725 724 728 727 729 728 724 723 727 726 730 729 724 723 730 729 728 727 727 726 725 724 729 728 727 726 729 728 730 729 729 728 728 727 731 730 729 728 731 730 732 731 728 727 730 729 733 732 728 727 733 732 731 730 730 729 729 728 732 731 730 729 732 731 733 732 731 730 732 731 734 733 733 732 731 730 734 733 732 731 733 732 734 733 735 734 736 735 737 736 735 734 737 736 738 737 736 735 739 738 740 739 736 735 740 739 737 736 739 738 735 734 738 737 739 738 738 737 740 739 738 737 737 736 741 740 738 737 741 740 742 741 737 736 740 739 743 742 737 736 743 742 741 740 740 739 738 737 742 741 740 739 742 741 743 742 742 741 741 740 744 743 742 741 744 743 745 744 741 740 743 742 746 745 741 740 746 745 744 743 743 742 742 741 745 744 743 742 745 744 746 745 744 743 745 744 747 746 746 745 744 743 747 746 745 744 746 745 747 746</p></triangles>
      </mesh>
    </geometry>
  </library_geometries>
  <library_visual_scenes><visual_scene id="scene" name="scene">
    <node id="BUSH_1" name="BUSH_1" type="NODE"><instance_geometry url="#BUSH_1-mesh"><bind_material><technique_common>
      <instance_material symbol="MAT_BUSH_0-mat" target="#MAT_BUSH_0"/>
      <instance_material symbol="MAT_BUSH_STEM-mat" target="#MAT_BUSH_STEM"/>
    </technique_common></bind_material></instance_geometry></node>
  </visual_scene></library_visual_scenes>
  <scene><instance_visual_scene url="#scene"/></scene>
</COLLADA>
