<?xml version="1.0" encoding="utf-8"?>
<COLLADA xmlns="http://www.collada.org/2005/11/COLLADASchema" version="1.4.1">
  <asset>
    <contributor><authoring_tool>VIGIL SIH26126 farm generator</authoring_tool></contributor>
    <unit name="meter" meter="1"/>
    <up_axis>Z_UP</up_axis>
  </asset>
  <library_effects>
    <effect id="MAT_BUSH_1-fx"><profile_COMMON><technique sid="c"><lambert><diffuse><color>0.0620 0.1260 0.0300 1</color></diffuse></lambert></technique></profile_COMMON></effect>
    <effect id="MAT_BUSH_STEM-fx"><profile_COMMON><technique sid="c"><lambert><diffuse><color>0.0580 0.0460 0.0300 1</color></diffuse></lambert></technique></profile_COMMON></effect>
  </library_effects>
  <library_materials>
    <material id="MAT_BUSH_1" name="MAT_BUSH_1"><instance_effect url="#MAT_BUSH_1-fx"/></material>
    <material id="MAT_BUSH_STEM" name="MAT_BUSH_STEM"><instance_effect url="#MAT_BUSH_STEM-fx"/></material>
  </library_materials>
  <library_geometries>
    <geometry id="BUSH_2-mesh" name="BUSH_2">
      <mesh>
        <source id="BUSH_2-pos"><float_array id="BUSH_2-pos-a" count="1647">0.28709 -0.068743 0.40404 0.41148 -0.15465 0.45178 0.24337 -0.19668 0.45596 0.40986 0.016045 0.45246 0.13686 -0.068743 0.45298 0.24014 0.068626 0.4524 0.44307 -0.068743 0.55752 0.33127 -0.19798 0.55307 0.16872 -0.1505 0.55422 0.17456 0.0089724 0.55175 0.33315 0.066013 0.55516 0.28709 -0.068743 0.61214 -0.10283 -0.30478 0.25096 0.04873 -0.39549 0.3477 -0.15981 -0.44925 0.34901 0.059649 -0.20754 0.34169 -0.2744 -0.30478 0.35472 -0.16686 -0.14244 0.33885 0.065016 -0.30478 0.50589 -0.047637 -0.44472 0.51069 -0.2552 -0.39598 0.51502 -0.25424 -0.21416 0.51449 -0.03552 -0.13412 0.52815 -0.10283 -0.30478 0.62025 0.14283 -0.25202 0.34754 0.31976 -0.39085 0.52117 0.079656 -0.462 0.528 0.32663 -0.10781 0.5171 -0.12951 -0.25202 0.49548 0.072655 -0.018769 0.51715 0.35751 -0.25202 0.72878 0.21516 -0.49245 0.73807 -0.044857 -0.39929 0.73707 -0.037677 -0.11039 0.73282 0.21044 -0.027279 0.73075 0.14283 -0.25202 0.82433 0.576 -0.05683 0.33035 0.72062 -0.15008 0.47672 0.50404 -0.25338 0.45469 0.75196 0.056625 0.46095 0.37735 -0.05683 0.46863 0.51396 0.11264 0.46776 0.82051 -0.05683 0.64907 0.64338 -0.24087 0.6383 0.39234 -0.17525 0.64195 0.41421 0.047487 0.63094 0.63833 0.11342 0.63164 0.576 -0.05683 0.75996 -0.28925 0.078193 0.38948 -0.11291 -0.026279 0.51181 -0.35287 -0.081482 0.51661 -0.10147 0.18944 0.50618 -0.51844 0.078193 0.50734 -0.36235 0.26166 0.50441 -0.071201 0.078193 0.68521 -0.20768 -0.12652 0.70347 -0.4943 -0.043292 0.6993 -0.4503 0.17361 0.67766 -0.21959 0.25301 0.68814 -0.28925 0.078193 0.7959 0.41381 -0.09299 0.29069 0.62734 -0.22856 0.43164 0.32439 -0.33348 0.4218 0.62002 0.037933 0.43514 0.14399 -0.09299 0.42936 0.32981 0.13293 0.42859 0.71353 -0.09299 0.64961 0.50719 -0.34415 0.65056 0.22596 -0.21226 0.62349 0.20661 0.038559 0.63274 0.50486 0.15191 0.64765 0.41381 -0.09299 0.7707 0.13107 -0.094705 0.33 0.29473 -0.20628 0.46366 0.066746 -0.28049 0.46128 0.29587 0.017651 0.46308 -0.12808 -0.094705 0.44064 0.061244 0.10697 0.45407 0.33472 -0.094705 0.62797 0.20145 -0.29796 0.63773 -0.034123 -0.20733 0.62819 -0.049135 0.028156 0.6357 0.20139 0.10839 0.63765 0.13107 -0.094705 0.71398 -0.058062 -0.37034 0.44115 0.090598 -0.47489 0.4951 -0.10572 -0.51233 0.50479 0.072242 -0.2787 0.50255 -0.20829 -0.37034 0.50611 -0.11176 -0.21036 0.49838 0.092318 -0.37034 0.60479 -0.0059015 -0.52574 0.61084 -0.18679 -0.46087 0.60766 -0.17705 -0.28666 0.60371 -0.005423 -0.21351 0.61135 -0.058062 -0.37034 0.68129 0.14567 0.13185 0.32263 0.24532 0.042265 0.40658 0.10426 -0.025864 0.40107 0.26046 0.23505 0.39707 0.025058 0.13185 0.40789 0.10808 0.27503 0.40735 0.30218 0.13185 0.54881 0.18616 -0.022352 0.53586 0.034401 0.031817 0.53917 0.039027 0.22773 0.53626 0.17817 0.25562 0.52271 0.14567 0.13185 0.62595 0.75104 0.13028 0.33699 0.90686 0.036589 0.40976 0.69748 -0.00614 0.41698 0.88309 0.20969 0.42076 0.58759 0.13028 0.42068 0.6929 0.27839 0.41142 0.93842 0.13028 0.55213 0.81153 -0.023804 0.55527 0.60196 0.040643 0.55096 0.61386 0.21277 0.54545 0.80768 0.27456 0.5506 0.75104 0.13028 0.64516 0.18828 -0.28783 0.38506 0.30283 -0.38788 0.49149 0.14169 -0.46022 0.48734 0.31724 -0.17519 0.48344 0.04813 -0.28783 0.49214 0.13812 -0.10222 0.48211 0.35596 -0.28783 0.6313 0.23375 -0.45606 0.62201 0.06653 -0.39418 0.62354 0.068982 -0.18362 0.62217 0.23369 -0.11982 0.62193 0.18828 -0.28783 0.73469 0.050039 -0.19369 0.53963 0.16335 -0.29942 0.62604 -0.0031823 -0.40406 0.61001 0.15928 -0.091766 0.62854 -0.13346 -0.19369 0.6044 0.0010812 -0.0001774 0.61688 0.22311 -0.19369 0.78201 0.094764 -0.37048 0.7679 -0.055614 -0.29228 0.76085 -0.080418 -0.071966 0.77613 0.10226 0.012728 0.77998 0.050039 -0.19369 0.86885 -0.24119 -0.080725 0.53596 -0.10373 -0.18474 0.61104 -0.29708 -0.25986 0.60735 -0.11629 0.01379 0.61627 -0.41604 -0.080725 0.60938 -0.30111 0.11133 0.60296 -0.075474 -0.080725 0.72415 -0.18795 -0.2514 0.72637 -0.36732 -0.17616 0.72084 -0.37933 0.023799 0.72584 -0.18988 0.083754 0.72426 -0.24119 -0.080725 0.79843 0.21217 0.079458 0.36923 0.38063 -0.024131 0.44939 0.15154 -0.078462 0.45402 0.369 0.1759 0.45492 1.0297e-05 0.079458 0.44788 0.15003 0.24131 0.45215 0.39347 0.079458 0.59923 0.27875 -0.093985 0.61237 0.046652 -0.022319 0.60818 0.03475 0.18855 0.61384 0.28002 0.25621 0.61395 0.21217 0.079458 0.72385 0.42494 0.43038 0.21796 0.53539 0.35844 0.30699 0.3749 0.2923 0.29508 0.55442 0.5147 0.29597 0.2634 0.43038 0.29527 0.38366 0.54426 0.30837 0.60583 0.43038 0.45574 0.47372 0.29579 0.44495 0.28503 0.33925 0.45202 0.29516 0.5149 0.44615 0.47463 0.56746 0.44632 0.42494 0.43038 0.54487 -0.72711 -0.42329 0.31898 -0.63344 -0.51293 0.41352 -0.76082 -0.55996 0.41685 -0.64345 -0.34323 0.41969 -0.84384 -0.42329 0.41304 -0.76209 -0.28146 0.4148 -0.6285 -0.42329 0.52038 -0.69443 -0.5558 0.52395 -0.82284 -0.51491 0.53021 -0.82007 -0.33432 0.5285 -0.68223 -0.24136 0.54361 -0.72711 -0.42329 0.58673 -0.09213 -0.14616 0.65124 0.045393 -0.26514 0.76221 -0.13812 -0.31472 0.77076 0.044559 -0.027902 0.76262 -0.28845 -0.14616 0.75156 -0.14668 0.053777 0.75956 0.10579 -0.14616 0.91098 -0.041144 -0.33303 0.89767 -0.22816 -0.26385 0.89894 -0.22802 -0.028598 0.89887 -0.044053 0.030042 0.89386 -0.09213 -0.14616 0.9912 -0.43839 -0.083906 0.40999 -0.29446 -0.18991 0.5308 -0.48892 -0.24157 0.53856 -0.2963 0.020742 0.53203 -0.61396 -0.083906 0.53206 -0.49387 0.089205 0.5299 -0.26334 -0.083906 0.72155 -0.38512 -0.25011 0.72012 -0.60448 -0.20623 0.7379 -0.59997 0.035093 0.73488 -0.38793 0.073506 0.71519 -0.43839 -0.083906 0.8772 0.038704 -0.10286 0.32496 0.23449 -0.21965 0.42946 -0.034637 -0.28818 0.43087 0.22941 0.010897 0.43137 -0.22602 -0.10286 0.42255 -0.0358 0.085404 0.42973 0.26702 -0.10286 0.57241 0.10715 -0.27581 0.57034 -0.16006 -0.22142 0.57769 -0.15086 0.01022 0.57424 0.12234 0.10847 0.58528 0.038704 -0.10286 0.64159 -0.3109 0.17784 0.4281 -0.15973 0.039554 0.51376 -0.37009 -0.051546 0.51181 -0.13435 0.33934 0.50077 -0.47958 0.17784 0.52128 -0.37049 0.40876 0.51128 -0.11783 0.17784 0.67104 -0.24498 -0.077612 0.67943 -0.46378 0.037989 0.66934 -0.4726 0.32576 0.67386 -0.25808 0.38252 0.66187 -0.3109 0.17784 0.77911 0.11126 -0.18592 0.31471 0.24512 -0.28331 0.39775 0.055627 -0.3574 0.39128 0.25686 -0.079985 0.39131 -0.052967 -0.18592 0.3983 0.051313 -0.0011382 0.38508 0.29345 -0.18592 0.55211 0.16268 -0.34438 0.5451 -0.020656 -0.2819 0.54362 -0.065104 -0.057597 0.56802 0.16326 -0.025647 0.54594 0.11126 -0.18592 0.64946 -0.30353 -0.28006 0.34095 -0.12598 -0.39335 0.42833 -0.36022 -0.43331 0.44291 -0.13543 -0.1728 0.43307 -0.51699 -0.28006 0.43076 -0.3678 -0.10633 0.43298 -0.11771 -0.28006 0.59247 -0.23163 -0.47441 0.61145 -0.44047 -0.36744 0.58577 -0.44428 -0.19025 0.58768 -0.23727 -0.10095 0.60406 -0.30353 -0.28006 0.68437 0.47607 0.28197 0.32198 0.58065 0.1825 0.39699 0.43762 0.12706 0.39951 0.56912 0.37049 0.40439 0.34331 0.28197 0.39517 0.43946 0.4295 0.40259 0.60058 0.28197 0.52878 0.51481 0.12586 0.52923 0.36463 0.17598 0.53564 0.38557 0.36806 0.52221 0.5118 0.42594 0.52416 0.47607 0.28197 0.60048 0 0.015221 0.0053705 -0.013966 -0.0074148 -0.0032397 -0.016542 -0.042691 0.10026 -0.0046017 -0.023378 0.10773 0.013966 -0.0078061 -0.0021308 0.0073388 -0.043035 0.10122 -0.019118 -0.077957 0.20042 -0.0092034 -0.061991 0.2068 0.00071157 -0.07826 0.20123 -0.021695 -0.11323 0.29726 -0.013805 -0.10059 0.3025 -0.0059155 -0.11349 0.29793 -0.024271 -0.14853 0.39083 -0.018407 -0.13916 0.39478 -0.012542 -0.14873 0.39133 -0.018407 -0.1385 0.39865 -0.024971 -0.15222 0.39273 0.03356 -0.20313 0.44996 0.03882 -0.19212 0.4549 -0.011843 -0.1457 0.38556 0.04408 -0.19771 0.4442 0.09195 -0.25422 0.50327 0.096047 -0.24563 0.50743 0.10014 -0.24967 0.49878 0.14921 -0.30644 0.55278 0.15327 -0.29789 0.55707 0.15734 -0.30175 0.54832 0.15327 -0.29708 0.5488 0.14968 -0.30194 0.55791 0.19621 -0.27668 0.58937 0.19958 -0.27226 0.58059 0.15687 -0.30706 0.55146 0.20295 -0.28172 0.58327 0.24261 -0.25128 0.61862 0.24589 -0.24728 0.6096 0.24916 -0.25667 0.61262 0.28897 -0.226 0.64535 0.29219 -0.22223 0.63621 0.29542 -0.23158 0.63941 0.29219 -0.2266 0.64032 0.15327 -0.3003 0.55847 0.14817 -0.30384 0.55014 0.16121 -0.36816 0.56947 0.16631 -0.36478 0.57787 0.15837 -0.30194 0.54957 0.17141 -0.36624 0.56894 0.17426 -0.43243 0.58602 0.17935 -0.42937 0.59455 0.18445 -0.43047 0.58556 0.1873 -0.49674 0.59985 0.19239 -0.49386 0.60843 0.19749 -0.49477 0.59942 0.19239 -0.49512 0.60257 -0.018407 -0.13519 0.39082 -0.025039 -0.15149 0.38705 -0.095352 -0.13909 0.46542 -0.09007 -0.12593 0.46848 -0.011775 -0.14974 0.39908 -0.084788 -0.13762 0.47526 -0.16564 -0.12671 0.53946 -0.16173 -0.11666 0.54181 -0.15783 -0.12549 0.54716 -0.23702 -0.11525 0.60841 -0.2334 -0.10577 0.61063 -0.22977 -0.11405 0.61576 -0.2334 -0.10518 0.61367 -0.23904 -0.11548 0.61224 -0.21905 -0.13378 0.67096 -0.2141 -0.12474 0.67225 -0.22775 -0.11441 0.60888 -0.20915 -0.1328 0.66796 -0.19974 -0.15256 0.72714 -0.19481 -0.14352 0.7285 -0.18988 -0.1515 0.72403 -0.18044 -0.17133 0.78067 -0.17552 -0.16228 0.78206 -0.1706 -0.17022 0.77751 -0.17552 -0.16794 0.78008 -0.2334 -0.1066 0.60685 -0.23592 -0.11797 0.60996 -0.28965 -0.10018 0.62858 -0.28754 -0.090456 0.62559 -0.23088 -0.1105 0.61797 -0.28543 -0.093473 0.6353 -0.34367 -0.083312 0.64479 -0.34168 -0.073802 0.6411 -0.33969 -0.076036 0.65106 -0.39775 -0.066375 0.65844 -0.39582 -0.057009 0.65437 -0.39389 -0.058805 0.66442 -0.39582 -0.06073 0.65908 0 0.016085 -0.0013449 -0.013216 -0.0076629 0.0052093 0.02435 0.0020773 0.10759 0.035631 0.022369 0.1019 0.013216 -0.0084216 -0.0038644 0.046911 0.0014085 0.099722 0.061929 0.011824 0.20668 0.071261 0.028652 0.20181 0.080593 0.011233 0.19995 0.099495 0.021565 0.3024 0.10689 0.034937 0.2984 0.11429 0.021063 0.29689 0.13704 0.031291 0.39471 0.14252 0.041223 0.39169 0.14801 0.030905 0.39055 0.14252 0.041566 0.3842 0.13473 0.034791 0.39975 0.1813 0.086384 0.44336 0.18756 0.091581 0.43068 0.15032 0.027061 0.393 0.19382 0.079978 0.43796 0.22789 0.13803 0.48365 0.2326 0.14155 0.47382 0.23732 0.13289 0.47965 0.27339 0.1896 0.52162 0.27765 0.19258 0.51262 0.2819 0.18481 0.51806 0.27765 0.19151 0.51134 0.27223 0.18608 0.51979 0.2549 0.23597 0.54011 0.25983 0.24078 0.53232 0.28306 0.1894 0.52117 0.26476 0.23904 0.54131 0.23709 0.28564 0.5584 0.24201 0.29015 0.55044 0.24693 0.2888 0.55949 0.21928 0.33528 0.57437 0.2242 0.33963 0.56632 0.22911 0.33848 0.5754 0.2242 0.3378 0.57203 0.27591 0.189 0.52349 0.27919 0.18359 0.5146 0.33616 0.1916 0.53109 0.3332 0.19675 0.53961 0.27783 0.19441 0.51421 0.33486 0.20191 0.53074 0.39315 0.19936 0.545 0.39052 0.20451 0.55364 0.39182 0.20966 0.5447 0.45019 0.20711 0.55654 0.44774 0.21227 0.56522 0.44885 0.21742 0.55626 0.44893 0.21227 0.55934 0.14252 0.042837 0.39935 0.13334 0.031783 0.38702 0.1131 -0.023739 0.45471 0.1205 -0.014978 0.4648 0.1517 0.028798 0.39057 0.12789 -0.026223 0.45758 0.092859 -0.079232 0.51873 0.098471 -0.072824 0.52662 0.10408 -0.081243 0.52092 0.071428 -0.13514 0.57845 0.076445 -0.12952 0.58562 0.081462 -0.137 0.58042 0.076445 -0.12844 0.57714 0.070668 -0.1355 0.58506 0.088506 -0.10061 0.62785 0.093466 -0.094646 0.62094 0.082223 -0.13772 0.58229 0.098426 -0.10258 0.62546 0.10554 -0.065886 0.66882 0.11049 -0.060149 0.66171 0.11543 -0.067985 0.66642 0.12257 -0.031216 0.70741 0.12751 -0.025602 0.70019 0.13244 -0.033383 0.70499 0.12751 -0.030067 0.7042 0.076445 -0.13186 0.58714 0.07165 -0.13302 0.578 0.050931 -0.17967 0.59482 0.055721 -0.17871 0.60399 0.081241 -0.13678 0.57935 0.060511 -0.18349 0.59611 0.030216 -0.22624 0.6095 0.034997 -0.22569 0.61871 0.039777 -0.23015 0.61064 0.0094963 -0.27289 0.622 0.014273 -0.27255 0.63122 0.019049 -0.27685 0.62306 0.014273 -0.27409 0.62543 0 0.015385 0.0048814 -0.013817 -0.0070524 -0.0044577 -0.028371 -0.038707 0.099208 -0.016561 -0.01957 0.10731 0.013817 -0.0083324 -0.00042372 -0.0047515 -0.039834 0.1027 -0.042922 -0.070347 0.19951 -0.033122 -0.054536 0.20644 -0.023323 -0.07134 0.20249 -0.057475 -0.102 0.29653 -0.049683 -0.089491 0.30221 -0.041891 -0.10284 0.29896 -0.072034 -0.13369 0.39028 -0.066244 -0.12442 0.39456 -0.060455 -0.13434 0.39211 -0.066244 -0.12093 0.3956 -0.071314 -0.1334 0.3836 -0.1573 -0.15146 0.44136 -0.15331 -0.14154 0.45122 -0.061175 -0.13811 0.39775 -0.14932 -0.15543 0.45285 -0.24326 -0.16947 0.49484 -0.24038 -0.16216 0.50262 -0.2375 -0.17279 0.50368 -0.33008 -0.18796 0.54276 -0.32744 -0.18121 0.55021 -0.32481 -0.19123 0.5511 -0.32744 -0.18192 0.54454 -0.33264 -0.1892 0.54982 -0.33161 -0.1454 0.61118 -0.32642 -0.13818 0.6058 -0.32225 -0.18928 0.54971 -0.32122 -0.14548 0.61106 -0.33059 -0.10157 0.6695 -0.32539 -0.09449 0.66395 -0.3202 -0.10166 0.66939 -0.32956 -0.057762 0.72473 -0.32437 -0.050758 0.71908 -0.31917 -0.057856 0.72462 -0.32437 -0.055459 0.72281 -0.32744 -0.18148 0.55209 -0.3295 -0.18617 0.54168 -0.38695 -0.19932 0.55977 -0.38517 -0.19547 0.56926 -0.32539 -0.19275 0.5503 -0.3834 -0.20553 0.56731 -0.44454 -0.21213 0.57476 -0.4429 -0.20911 0.58457 -0.44127 -0.219 0.58183 -0.49888 -0.23179 0.59553 -0.5019 -0.22672 0.58698 -0.50112 -0.22165 0.59602 -0.50063 -0.22672 0.59284 -0.066244 -0.12256 0.39056 -0.071877 -0.13397 0.39774 -0.010256 -0.11808 0.4684 -0.0057612 -0.10893 0.4625 -0.060612 -0.13591 0.38864 -0.0012662 -0.11971 0.46096 0.05085 -0.10247 0.53578 0.054722 -0.094484 0.53038 0.058594 -0.10403 0.52903 0.11138 -0.087188 0.59977 0.11521 -0.07925 0.59426 0.11903 -0.088821 0.59292 0.11521 -0.081318 0.60032 0.11192 -0.0901 0.59584 0.15565 -0.11795 0.61818 0.1589 -0.10926 0.62286 0.1185 -0.083841 0.59079 0.16215 -0.11151 0.61325 0.19942 -0.14581 0.63812 0.2026 -0.13733 0.64322 0.20577 -0.13902 0.63347 0.24316 -0.17365 0.65588 0.24629 -0.16529 0.66121 0.24943 -0.16668 0.6514 0.24629 -0.16854 0.65617 0.11521 -0.0814 0.59091 0.11047 -0.088615 0.5967 0.082487 -0.039626 0.63489 0.087213 -0.032496 0.62899 0.11994 -0.085245 0.59933 0.09194 -0.036171 0.63749 0.054518 0.0093666 0.67038 0.059222 0.016313 0.66425 0.063925 0.012994 0.6729 0.026537 0.05836 0.70307 0.03123 0.065206 0.69682 0.035922 0.062074 0.70555 0.03123 0.06188 0.70181</float_array><technique_common><accessor source="#BUSH_2-pos-a" count="549" stride="3"><param name="X" type="float"/><param name="Y" type="float"/><param name="Z" type="float"/></accessor></technique_common></source>
        <source id="BUSH_2-nrm"><float_array id="BUSH_2-nrm-a" count="1647">-0.01 -0.015 -1 0.675 -0.546 -0.497 -0.262 -0.83 -0.493 0.684 0.525 -0.506 -0.879 -0.004 -0.477 -0.285 0.832 -0.475 0.87 -0.007 0.493 0.231 -0.842 0.487 -0.697 -0.526 0.487 -0.693 0.507 0.512 0.238 0.834 0.497 -0.025 -0.003 1 -0.031 -0.047 -0.998 0.71 -0.565 -0.42 -0.274 -0.85 -0.449 0.75 0.478 -0.458 -0.884 -0.034 -0.467 -0.322 0.814 -0.483 0.88 -0.074 0.47 0.286 -0.851 0.441 -0.718 -0.548 0.429 -0.751 0.493 0.439 0.297 0.823 0.484 0.02 -0.057 0.998 0.052 -0.033 -0.998 0.731 -0.534 -0.425 -0.232 -0.871 -0.432 0.755 0.519 -0.401 -0.906 -0.02 -0.422 -0.239 0.886 -0.397 0.867 0.011 0.498 0.284 -0.834 0.473 -0.674 -0.529 0.516 -0.656 0.523 0.545 0.281 0.81 0.515 0.018 0.024 1 0.019 0.009 -1 0.686 -0.545 -0.482 -0.239 -0.855 -0.46 0.702 0.529 -0.476 -0.893 0.068 -0.444 -0.294 0.866 -0.405 0.917 -0.017 0.399 0.299 -0.868 0.397 -0.749 -0.491 0.445 -0.705 0.575 0.415 0.201 0.884 0.422 -0.034 0.041 0.999 0.002 -0.049 -0.999 0.691 -0.534 -0.487 -0.235 -0.831 -0.503 0.728 0.523 -0.444 -0.888 0.013 -0.459 -0.289 0.866 -0.408 0.886 0.031 0.463 0.297 -0.856 0.423 -0.749 -0.494 0.442 -0.66 0.576 0.482 0.236 0.843 0.484 -0.008 0.085 0.996 0.024 0.023 -0.999 0.699 -0.494 -0.518 -0.312 -0.844 -0.436 0.68 0.52 -0.517 -0.915 -0.004 -0.403 -0.275 0.844 -0.461 0.909 0.014 0.417 0.225 -0.86 0.458 -0.716 -0.491 0.497 -0.734 0.481 0.479 0.243 0.868 0.433 -0.089 -0.009 0.996 0.077 -0.023 -0.997 0.731 -0.509 -0.455 -0.231 -0.873 -0.429 0.746 0.492 -0.449 -0.908 -0.037 -0.417 -0.216 0.87 -0.443 0.883 -0.001 0.47 0.275 -0.836 0.476 -0.649 -0.54 0.536 -0.668 0.5 0.551 0.306 0.816 0.49 0.001 -0.014 1 -0.039 -0.009 -0.999 0.733 -0.513 -0.447 -0.32 -0.805 -0.5 0.723 0.51 -0.466 -0.882 -0.008 -0.47 -0.321 0.828 -0.459 0.856 0.031 0.517 0.24 -0.841 0.484 -0.747 -0.501 0.438 -0.732 0.477 0.486 0.281 0.829 0.484 -0.011 0.01 1 -0.033 -0 -0.999 0.705 -0.512 -0.49 -0.274 -0.828 -0.49 0.685 0.573 -0.45 -0.886 0.031 -0.463 -0.301 0.857 -0.417 0.892 0.031 0.451 0.284 -0.858 0.427 -0.755 -0.496 0.429 -0.702 0.573 0.424 0.235 0.856 0.461 -0.024 0.063 0.998 -0.016 0.004 -1 0.701 -0.497 -0.51 -0.296 -0.814 -0.5 0.667 0.554 -0.498 -0.873 -0.003 -0.488 -0.277 0.839 -0.469 0.9 0.055 0.433 0.24 -0.867 0.437 -0.753 -0.513 0.413 -0.722 0.534 0.439 0.265 0.866 0.424 -0.028 0.031 0.999 -0.013 -0.038 -0.999 0.719 -0.524 -0.457 -0.283 -0.846 -0.452 0.743 0.499 -0.446 -0.907 -0.014 -0.42 -0.318 0.848 -0.423 0.911 -0.021 0.412 0.284 -0.864 0.416 -0.76 -0.504 0.411 -0.759 0.487 0.431 0.263 0.842 0.47 -0.032 0.004 0.999 0.12 0.026 -0.992 0.75 -0.443 -0.49 -0.239 -0.877 -0.416 0.729 0.426 -0.536 -0.899 -0.016 -0.438 -0.213 0.827 -0.52 0.918 -0.033 0.396 0.26 -0.832 0.49 -0.7 -0.478 0.53 -0.742 0.452 0.496 0.306 0.854 0.422 -0.067 -0.073 0.995 0.041 -0.001 -0.999 0.744 -0.476 -0.469 -0.299 -0.85 -0.433 0.737 0.485 -0.471 -0.903 -0.038 -0.427 -0.246 0.865 -0.437 0.891 0.032 0.452 0.273 -0.823 0.498 -0.701 -0.485 0.523 -0.713 0.461 0.528 0.334 0.803 0.494 -0.01 -0.005 1 0.012 0.004 -1 0.725 -0.5 -0.474 -0.254 -0.832 -0.493 0.711 0.514 -0.479 -0.862 -0.022 -0.507 -0.226 0.827 -0.515 0.894 0.011 0.448 0.287 -0.853 0.435 -0.698 -0.569 0.435 -0.72 0.538 0.438 0.323 0.85 0.417 0.035 -0.017 0.999 0.026 0.029 -0.999 0.671 -0.548 -0.5 -0.204 -0.847 -0.491 0.667 0.524 -0.53 -0.86 0.067 -0.507 -0.255 0.847 -0.466 0.913 -0.031 0.408 0.288 -0.877 0.385 -0.717 -0.536 0.446 -0.699 0.594 0.398 0.213 0.898 0.386 -0.015 0.007 1 0.022 0.009 -1 0.78 -0.502 -0.373 -0.28 -0.862 -0.422 0.792 0.424 -0.441 -0.913 -0.004 -0.409 -0.3 0.804 -0.513 0.894 -0.051 0.445 0.325 -0.803 0.5 -0.708 -0.517 0.481 -0.777 0.431 0.459 0.311 0.843 0.44 0.043 -0.066 0.997 0.035 -0.04 -0.999 0.683 -0.552 -0.478 -0.262 -0.853 -0.452 0.718 0.535 -0.446 -0.91 -0.04 -0.413 -0.243 0.885 -0.397 0.896 0.015 0.444 0.227 -0.876 0.426 -0.694 -0.55 0.465 -0.683 0.513 0.52 0.264 0.831 0.49 -0.038 0.014 0.999 -0.008 -0.024 -1 0.716 -0.547 -0.434 -0.253 -0.853 -0.457 0.733 0.541 -0.414 -0.87 -0.023 -0.493 -0.247 0.861 -0.445 0.916 0.018 0.402 0.321 -0.874 0.366 -0.719 -0.585 0.375 -0.706 0.588 0.394 0.327 0.863 0.384 0.077 0.019 0.997 0.024 -0 -1 0.713 -0.558 -0.425 -0.214 -0.876 -0.432 0.712 0.509 -0.484 -0.9 0.009 -0.436 -0.255 0.845 -0.471 0.854 -0.041 0.519 0.248 -0.814 0.526 -0.641 -0.55 0.536 -0.653 0.531 0.54 0.269 0.834 0.482 0.007 -0.041 0.999 -0.057 -0.024 -0.998 0.715 -0.467 -0.52 -0.328 -0.779 -0.534 0.725 0.529 -0.44 -0.863 -0.012 -0.506 -0.315 0.827 -0.465 0.88 0.019 0.474 0.286 -0.853 0.437 -0.784 -0.459 0.418 -0.743 0.507 0.436 0.273 0.802 0.531 0.003 0.041 0.999 -0.001 -0.034 -0.999 0.698 -0.529 -0.483 -0.279 -0.841 -0.464 0.726 0.495 -0.479 -0.855 -0.078 -0.512 -0.237 0.821 -0.519 0.892 -0.019 0.451 0.263 -0.852 0.453 -0.695 -0.572 0.435 -0.741 0.493 0.456 0.333 0.82 0.466 0.03 -0.05 0.998 -0.016 -0.027 -1 0.712 -0.513 -0.479 -0.321 -0.833 -0.45 0.718 0.528 -0.453 -0.918 -0.038 -0.395 -0.297 0.849 -0.437 0.859 0.035 0.511 0.217 -0.846 0.487 -0.71 -0.498 0.497 -0.702 0.473 0.532 0.246 0.827 0.505 -0.067 0.017 0.998 0.027 0.032 -0.999 0.746 -0.477 -0.465 -0.267 -0.83 -0.49 0.733 0.513 -0.447 -0.892 0.046 -0.45 -0.267 0.86 -0.435 0.89 0.039 0.454 0.313 -0.82 0.478 -0.729 -0.484 0.484 -0.707 0.522 0.476 0.271 0.841 0.468 0.002 0.055 0.998 -0.001 0.936 0.353 -0.866 -0.466 -0.18 -0.867 -0.463 -0.182 -0.001 0.934 0.358 0.864 -0.491 -0.112 0.865 -0.488 -0.113 -0.867 -0.461 -0.188 -0.001 0.93 0.369 0.865 -0.487 -0.116 -0.867 -0.459 -0.194 -0.001 0.925 0.38 0.865 -0.486 -0.12 -0.866 -0.46 -0.197 -0.001 0.923 0.386 0.864 -0.488 -0.123 0.008 0.728 0.686 -0.684 -0.728 0.052 -0.684 -0.727 0.052 0.005 0.715 0.699 0.71 -0.031 -0.704 0.705 -0.012 -0.709 -0.682 -0.73 0.034 0.004 0.697 0.717 0.689 0.025 -0.725 -0.68 -0.733 0.013 0.004 0.691 0.723 0.676 0.042 -0.736 0.008 0.782 -0.623 -0.568 0.022 0.823 -0.56 0.036 0.828 -0 0.773 -0.634 0.571 -0.798 -0.192 0.56 -0.81 -0.177 -0.544 0.072 0.836 -0.006 0.749 -0.663 0.544 -0.824 -0.16 -0.88 -0.158 0.448 -0.439 0.373 -0.817 0.015 -0.924 -0.383 -0.784 -0.426 -0.452 -0.002 0.288 0.958 -0.849 -0.302 -0.433 -0.854 -0.293 -0.429 -0.001 0.269 0.963 0.851 0.014 -0.525 0.855 0.028 -0.518 -0.855 -0.277 -0.439 0 0.23 0.973 0.854 0.05 -0.518 -0.815 0.308 -0.49 -0.106 0.707 0.699 0.598 0.581 -0.552 -0.194 0.959 -0.206 -0.014 0.991 -0.131 -0.651 -0.578 -0.493 -0.641 -0.585 -0.497 -0.008 0.992 -0.129 0.626 -0.407 0.665 0.618 -0.402 0.676 -0.619 -0.592 -0.515 -0.002 0.99 -0.142 0.605 -0.395 0.691 -0.607 -0.592 -0.53 -0.001 0.987 -0.158 0.601 -0.394 0.696 0.003 0.949 0.316 -0.822 -0.559 0.106 -0.825 -0.556 0.103 -0.002 0.948 0.317 0.831 -0.401 -0.386 0.828 -0.394 -0.399 -0.824 -0.557 0.099 -0.003 0.946 0.325 0.822 -0.384 -0.421 -0.861 -0.295 -0.414 -0.178 0.959 -0.221 0.503 -0.143 -0.852 -0.322 0.313 -0.893 -0.02 0.728 -0.685 -0.374 -0.901 -0.218 -0.356 -0.916 -0.187 -0.007 0.71 -0.704 0.35 0.187 0.918 0.345 0.212 0.914 -0.331 -0.933 -0.139 0.006 0.662 -0.75 0.329 0.27 0.905 0.245 -0.942 -0.23 0.52 0.365 -0.772 0.78 0.092 0.619 0.928 -0.291 -0.23 0.007 0.998 -0.063 -0.812 -0.473 0.343 -0.81 -0.471 0.348 0.005 0.998 -0.063 0.826 -0.52 -0.219 0.823 -0.522 -0.222 -0.807 -0.47 0.358 0.005 0.998 -0.066 0.821 -0.524 -0.228 -0.803 -0.468 0.369 0.005 0.998 -0.068 0.818 -0.525 -0.235 -0.801 -0.468 0.375 0.008 0.997 -0.07 0.817 -0.524 -0.239 0.017 0.672 -0.74 -0.711 0.049 0.702 -0.704 0.06 0.708 0.012 0.661 -0.75 0.735 -0.673 0.08 0.729 -0.678 0.096 -0.699 0.086 0.71 0.004 0.628 -0.778 0.719 -0.686 0.107 -0.702 0.101 0.705 -0 0.605 -0.796 0.716 -0.691 0.103 -0.006 0.39 -0.921 -0.824 -0.434 0.364 -0.818 -0.435 0.377 -0.002 0.368 -0.93 0.82 0.072 0.568 0.816 0.076 0.573 -0.816 -0.427 0.39 0.002 0.326 -0.945 0.815 0.096 0.571 -0.503 -0.849 0.162 0.182 -0.245 -0.952 0.86 -0.406 0.309 0.324 -0.901 -0.289 -0.271 -0 0.963 0.251 -0.858 -0.449 0.238 -0.863 -0.446 -0.254 -0.001 0.967 0.035 0.86 -0.509 0.019 0.864 -0.503 0.219 -0.864 -0.454 -0.218 0 0.976 -0.004 0.863 -0.505 -0.363 -0.788 -0.497 -0.704 -0.072 0.706 -0.549 0.641 -0.537 -0.972 -0.132 -0.197 -0.004 0.75 0.661 -0.846 -0.26 -0.466 -0.847 -0.248 -0.47 -0.003 0.741 0.672 0.833 -0.535 -0.143 0.836 -0.53 -0.142 -0.843 -0.226 -0.487 -0.003 0.726 0.687 0.837 -0.524 -0.156 -0.837 -0.216 -0.502 -0.004 0.722 0.692 0.835 -0.523 -0.172 0.007 0.791 -0.612 -0.824 -0.22 0.523 -0.822 -0.22 0.525 0.001 0.778 -0.629 0.832 -0.54 0.127 0.825 -0.55 0.13 -0.821 -0.207 0.532 -0.004 0.755 -0.656 0.821 -0.556 0.133 -0.857 -0.513 0.054 -0.175 0.267 -0.948 0.512 -0.811 -0.283 -0.312 -0.635 -0.707 0.003 0.337 0.941 -0.801 0.146 -0.581 -0.803 0.163 -0.573 0.003 0.318 0.948 0.798 -0.483 -0.361 0.802 -0.477 -0.36 -0.8 0.19 -0.569 -0.001 0.279 0.96 0.802 -0.464 -0.375 -0.442 0.658 -0.609 0.216 0.708 0.672 0.882 0.111 -0.458 0.394 0.888 -0.237 -0.003 0.947 0.323 -0.859 -0.443 -0.256 -0.86 -0.44 -0.259 -0.002 0.945 0.327 0.852 -0.523 -0.006 0.854 -0.521 -0.006 -0.859 -0.436 -0.267 -0.002 0.941 0.337 0.853 -0.522 -0.006 -0.859 -0.433 -0.275 -0.003 0.938 0.348 0.852 -0.523 -0.007 -0.857 -0.432 -0.279 -0.004 0.936 0.353 0.85 -0.526 -0.009 -0.014 0.944 0.329 -0.504 -0.248 -0.827 -0.492 -0.239 -0.837 -0.01 0.939 0.345 0.47 -0.706 0.529 0.461 -0.708 0.535 -0.46 -0.215 -0.861 -0.007 0.932 0.362 0.444 -0.722 0.53 -0.441 -0.2 -0.875 -0.006 0.932 0.362 0.437 -0.735 0.519 0 0.814 -0.581 -0.866 -0.4 0.3 -0.863 -0.4 0.308 -0 0.807 -0.591 0.866 -0.414 0.281 0.863 -0.415 0.289 -0.863 -0.392 0.319 -0 0.792 -0.611 0.863 -0.408 0.299 -0.729 -0.664 -0.168 -0.008 0.307 -0.952 0.712 -0.677 -0.184 -0.015 -0.621 -0.783 -0.006 0.784 0.62 -0.32 0.105 -0.941 -0.303 0.141 -0.943 0 0.761 0.649 0.294 -0.897 0.33 0.291 -0.904 0.313 -0.155 -0.311 -0.938 -0.15 0.958 0.246 0.307 -0.638 0.706 0.612 -0.523 -0.593 0.333 0.837 -0.434 0.745 0.075 0.663 0.954 0.22 -0.206 0.012 0.981 -0.196 -0.657 -0.37 0.656 -0.653 -0.365 0.664 0.003 0.98 -0.2 0.678 -0.602 -0.422 0.666 -0.611 -0.427 -0.643 -0.356 0.679 -0.004 0.976 -0.217 0.646 -0.621 -0.444 -0.636 -0.352 0.686 -0.002 0.973 -0.231 0.638 -0.621 -0.456 -0.005 0.623 0.782 -0.546 -0.838 0.024 -0.544 -0.839 0.019 -0.006 0.602 0.799 0.551 0.215 -0.806 0.545 0.241 -0.803 -0.534 -0.846 -0.011 -0 0.564 0.826 0.529 0.285 -0.799 -0.88 -0.426 -0.212 -0.437 0.737 0.515 -0.01 0.533 -0.846 -0.797 0.508 -0.327 -0.003 0.613 -0.79 -0.788 -0.589 0.179 -0.783 -0.592 0.193 0.001 0.6 -0.8 0.791 -0.024 0.611 0.786 -0.015 0.619 -0.78 -0.59 0.208 0.004 0.572 -0.82 0.78 0.012 0.626 -0.414 -0.904 -0.106 0.241 0.045 -0.969 0.888 -0.392 0.242 0.429 -0.752 -0.501</float_array><technique_common><accessor source="#BUSH_2-nrm-a" count="549" stride="3"><param name="X" type="float"/><param name="Y" type="float"/><param name="Z" type="float"/></accessor></technique_common></source>
        <vertices id="BUSH_2-vtx"><input semantic="POSITION" source="#BUSH_2-pos"/></vertices>
        <triangles count="460" material="MAT_BUSH_1-mat"><input semantic="VERTEX" source="#BUSH_2-vtx" offset="0"/><input semantic="NORMAL" source="#BUSH_2-nrm" offset="1"/><p>0 0 1 1 2 2 1 1 0 0 3 3 0 0 2 2 4 4 0 0 4 4 5 5 0 0 5 5 3 3 1 1 3 3 6 6 2 2 1 1 7 7 4 4 2 2 8 8 5 5 4 4 9 9 3 3 5 5 10 10 1 1 6 6 7 7 2 2 7 7 8 8 4 4 8 8 9 9 5 5 9 9 10 10 3 3 10 10 6 6 7 7 6 6 11 11 8 8 7 7 11 11 9 9 8 8 11 11 10 10 9 9 11 11 6 6 10 10 11 11 12 12 13 13 14 14 13 13 12 12 15 15 12 12 14 14 16 16 12 12 16 16 17 17 12 12 17 17 15 15 13 13 15 15 18 18 14 14 13 13 19 19 16 16 14 14 20 20 17 17 16 16 21 21 15 15 17 17 22 22 13 13 18 18 19 19 14 14 19 19 20 20 16 16 20 20 21 21 17 17 21 21 22 22 15 15 22 22 18 18 19 19 18 18 23 23 20 20 19 19 23 23 21 21 20 20 23 23 22 22 21 21 23 23 18 18 22 22 23 23 24 24 25 25 26 26 25 25 24 24 27 27 24 24 26 26 28 28 24 24 28 28 29 29 24 24 29 29 27 27 25 25 27 27 30 30 26 26 25 25 31 31 28 28 26 26 32 32 29 29 28 28 33 33 27 27 29 29 34 34 25 25 30 30 31 31 26 26 31 31 32 32 28 28 32 32 33 33 29 29 33 33 34 34 27 27 34 34 30 30 31 31 30 30 35 35 32 32 31 31 35 35 33 33 32 32 35 35 34 34 33 33 35 35 30 30 34 34 35 35 36 36 37 37 38 38 37 37 36 36 39 39 36 36 38 38 40 40 36 36 40 40 41 41 36 36 41 41 39 39 37 37 39 39 42 42 38 38 37 37 43 43 40 40 38 38 44 44 41 41 40 40 45 45 39 39 41 41 46 46 37 37 42 42 43 43 38 38 43 43 44 44 40 40 44 44 45 45 41 41 45 45 46 46 39 39 46 46 42 42 43 43 42 42 47 47 44 44 43 43 47 47 45 45 44 44 47 47 46 46 45 45 47 47 42 42 46 46 47 47 48 48 49 49 50 50 49 49 48 48 51 51 48 48 50 50 52 52 48 48 52 52 53 53 48 48 53 53 51 51 49 49 51 51 54 54 50 50 49 49 55 55 52 52 50 50 56 56 53 53 52 52 57 57 51 51 53 53 58 58 49 49 54 54 55 55 50 50 55 55 56 56 52 52 56 56 57 57 53 53 57 57 58 58 51 51 58 58 54 54 55 55 54 54 59 59 56 56 55 55 59 59 57 57 56 56 59 59 58 58 57 57 59 59 54 54 58 58 59 59 60 60 61 61 62 62 61 61 60 60 63 63 60 60 62 62 64 64 60 60 64 64 65 65 60 60 65 65 63 63 61 61 63 63 66 66 62 62 61 61 67 67 64 64 62 62 68 68 65 65 64 64 69 69 63 63 65 65 70 70 61 61 66 66 67 67 62 62 67 67 68 68 64 64 68 68 69 69 65 65 69 69 70 70 63 63 70 70 66 66 67 67 66 66 71 71 68 68 67 67 71 71 69 69 68 68 71 71 70 70 69 69 71 71 66 66 70 70 71 71 72 72 73 73 74 74 73 73 72 72 75 75 72 72 74 74 76 76 72 72 76 76 77 77 72 72 77 77 75 75 73 73 75 75 78 78 74 74 73 73 79 79 76 76 74 74 80 80 77 77 76 76 81 81 75 75 77 77 82 82 73 73 78 78 79 79 74 74 79 79 80 80 76 76 80 80 81 81 77 77 81 81 82 82 75 75 82 82 78 78 79 79 78 78 83 83 80 80 79 79 83 83 81 81 80 80 83 83 82 82 81 81 83 83 78 78 82 82 83 83 84 84 85 85 86 86 85 85 84 84 87 87 84 84 86 86 88 88 84 84 88 88 89 89 84 84 89 89 87 87 85 85 87 87 90 90 86 86 85 85 91 91 88 88 86 86 92 92 89 89 88 88 93 93 87 87 89 89 94 94 85 85 90 90 91 91 86 86 91 91 92 92 88 88 92 92 93 93 89 89 93 93 94 94 87 87 94 94 90 90 91 91 90 90 95 95 92 92 91 91 95 95 93 93 92 92 95 95 94 94 93 93 95 95 90 90 94 94 95 95 96 96 97 97 98 98 97 97 96 96 99 99 96 96 98 98 100 100 96 96 100 100 101 101 96 96 101 101 99 99 97 97 99 99 102 102 98 98 97 97 103 103 100 100 98 98 104 104 101 101 100 100 105 105 99 99 101 101 106 106 97 97 102 102 103 103 98 98 103 103 104 104 100 100 104 104 105 105 101 101 105 105 106 106 99 99 106 106 102 102 103 103 102 102 107 107 104 104 103 103 107 107 105 105 104 104 107 107 106 106 105 105 107 107 102 102 106 106 107 107 108 108 109 109 110 110 109 109 108 108 111 111 108 108 110 110 112 112 108 108 112 112 113 113 108 108 113 113 111 111 109 109 111 111 114 114 110 110 109 109 115 115 112 112 110 110 116 116 113 113 112 112 117 117 111 111 113 113 118 118 109 109 114 114 115 115 110 110 115 115 116 116 112 112 116 116 117 117 113 113 117 117 118 118 111 111 118 118 114 114 115 115 114 114 119 119 116 116 115 115 119 119 117 117 116 116 119 119 118 118 117 117 119 119 114 114 118 118 119 119 120 120 121 121 122 122 121 121 120 120 123 123 120 120 122 122 124 124 120 120 124 124 125 125 120 120 125 125 123 123 121 121 123 123 126 126 122 122 121 121 127 127 124 124 122 122 128 128 125 125 124 124 129 129 123 123 125 125 130 130 121 121 126 126 127 127 122 122 127 127 128 128 124 124 128 128 129 129 125 125 129 129 130 130 123 123 130 130 126 126 127 127 126 126 131 131 128 128 127 127 131 131 129 129 128 128 131 131 130 130 129 129 131 131 126 126 130 130 131 131 132 132 133 133 134 134 133 133 132 132 135 135 132 132 134 134 136 136 132 132 136 136 137 137 132 132 137 137 135 135 133 133 135 135 138 138 134 134 133 133 139 139 136 136 134 134 140 140 137 137 136 136 141 141 135 135 137 137 142 142 133 133 138 138 139 139 134 134 139 139 140 140 136 136 140 140 141 141 137 137 141 141 142 142 135 135 142 142 138 138 139 139 138 138 143 143 140 140 139 139 143 143 141 141 140 140 143 143 142 142 141 141 143 143 138 138 142 142 143 143 144 144 145 145 146 146 145 145 144 144 147 147 144 144 146 146 148 148 144 144 148 148 149 149 144 144 149 149 147 147 145 145 147 147 150 150 146 146 145 145 151 151 148 148 146 146 152 152 149 149 148 148 153 153 147 147 149 149 154 154 145 145 150 150 151 151 146 146 151 151 152 152 148 148 152 152 153 153 149 149 153 153 154 154 147 147 154 154 150 150 151 151 150 150 155 155 152 152 151 151 155 155 153 153 152 152 155 155 154 154 153 153 155 155 150 150 154 154 155 155 156 156 157 157 158 158 157 157 156 156 159 159 156 156 158 158 160 160 156 156 160 160 161 161 156 156 161 161 159 159 157 157 159 159 162 162 158 158 157 157 163 163 160 160 158 158 164 164 161 161 160 160 165 165 159 159 161 161 166 166 157 157 162 162 163 163 158 158 163 163 164 164 160 160 164 164 165 165 161 161 165 165 166 166 159 159 166 166 162 162 163 163 162 162 167 167 164 164 163 163 167 167 165 165 164 164 167 167 166 166 165 165 167 167 162 162 166 166 167 167 168 168 169 169 170 170 169 169 168 168 171 171 168 168 170 170 172 172 168 168 172 172 173 173 168 168 173 173 171 171 169 169 171 171 174 174 170 170 169 169 175 175 172 172 170 170 176 176 173 173 172 172 177 177 171 171 173 173 178 178 169 169 174 174 175 175 170 170 175 175 176 176 172 172 176 176 177 177 173 173 177 177 178 178 171 171 178 178 174 174 175 175 174 174 179 179 176 176 175 175 179 179 177 177 176 176 179 179 178 178 177 177 179 179 174 174 178 178 179 179 180 180 181 181 182 182 181 181 180 180 183 183 180 180 182 182 184 184 180 180 184 184 185 185 180 180 185 185 183 183 181 181 183 183 186 186 182 182 181 181 187 187 184 184 182 182 188 188 185 185 184 184 189 189 183 183 185 185 190 190 181 181 186 186 187 187 182 182 187 187 188 188 184 184 188 188 189 189 185 185 189 189 190 190 183 183 190 190 186 186 187 187 186 186 191 191 188 188 187 187 191 191 189 189 188 188 191 191 190 190 189 189 191 191 186 186 190 190 191 191 192 192 193 193 194 194 193 193 192 192 195 195 192 192 194 194 196 196 192 192 196 196 197 197 192 192 197 197 195 195 193 193 195 195 198 198 194 194 193 193 199 199 196 196 194 194 200 200 197 197 196 196 201 201 195 195 197 197 202 202 193 193 198 198 199 199 194 194 199 199 200 200 196 196 200 200 201 201 197 197 201 201 202 202 195 195 202 202 198 198 199 199 198 198 203 203 200 200 199 199 203 203 201 201 200 200 203 203 202 202 201 201 203 203 198 198 202 202 203 203 204 204 205 205 206 206 205 205 204 204 207 207 204 204 206 206 208 208 204 204 208 208 209 209 204 204 209 209 207 207 205 205 207 207 210 210 206 206 205 205 211 211 208 208 206 206 212 212 209 209 208 208 213 213 207 207 209 209 214 214 205 205 210 210 211 211 206 206 211 211 212 212 208 208 212 212 213 213 209 209 213 213 214 214 207 207 214 214 210 210 211 211 210 210 215 215 212 212 211 211 215 215 213 213 212 212 215 215 214 214 213 213 215 215 210 210 214 214 215 215 216 216 217 217 218 218 217 217 216 216 219 219 216 216 218 218 220 220 216 216 220 220 221 221 216 216 221 221 219 219 217 217 219 219 222 222 218 218 217 217 223 223 220 220 218 218 224 224 221 221 220 220 225 225 219 219 221 221 226 226 217 217 222 222 223 223 218 218 223 223 224 224 220 220 224 224 225 225 221 221 225 225 226 226 219 219 226 226 222 222 223 223 222 222 227 227 224 224 223 223 227 227 225 225 224 224 227 227 226 226 225 225 227 227 222 222 226 226 227 227 228 228 229 229 230 230 229 229 228 228 231 231 228 228 230 230 232 232 228 228 232 232 233 233 228 228 233 233 231 231 229 229 231 231 234 234 230 230 229 229 235 235 232 232 230 230 236 236 233 233 232 232 237 237 231 231 233 233 238 238 229 229 234 234 235 235 230 230 235 235 236 236 232 232 236 236 237 237 233 233 237 237 238 238 231 231 238 238 234 234 235 235 234 234 239 239 236 236 235 235 239 239 237 237 236 236 239 239 238 238 237 237 239 239 234 234 238 238 239 239 240 240 241 241 242 242 241 241 240 240 243 243 240 240 242 242 244 244 240 240 244 244 245 245 240 240 245 245 243 243 241 241 243 243 246 246 242 242 241 241 247 247 244 244 242 242 248 248 245 245 244 244 249 249 243 243 245 245 250 250 241 241 246 246 247 247 242 242 247 247 248 248 244 244 248 248 249 249 245 245 249 249 250 250 243 243 250 250 246 246 247 247 246 246 251 251 248 248 247 247 251 251 249 249 248 248 251 251 250 250 249 249 251 251 246 246 250 250 251 251 252 252 253 253 254 254 253 253 252 252 255 255 252 252 254 254 256 256 252 252 256 256 257 257 252 252 257 257 255 255 253 253 255 255 258 258 254 254 253 253 259 259 256 256 254 254 260 260 257 257 256 256 261 261 255 255 257 257 262 262 253 253 258 258 259 259 254 254 259 259 260 260 256 256 260 260 261 261 257 257 261 261 262 262 255 255 262 262 258 258 259 259 258 258 263 263 260 260 259 259 263 263 261 261 260 260 263 263 262 262 261 261 263 263 258 258 262 262 263 263 264 264 265 265 266 266 265 265 264 264 267 267 264 264 266 266 268 268 264 264 268 268 269 269 264 264 269 269 267 267 265 265 267 267 270 270 266 266 265 265 271 271 268 268 266 266 272 272 269 269 268 268 273 273 267 267 269 269 274 274 265 265 270 270 271 271 266 266 271 271 272 272 268 268 272 272 273 273 269 269 273 273 274 274 267 267 274 274 270 270 271 271 270 270 275 275 272 272 271 271 275 275 273 273 272 272 275 275 274 274 273 273 275 275 270 270 274 274 275 275</p></triangles>
        <triangles count="432" material="MAT_BUSH_STEM-mat"><input semantic="VERTEX" source="#BUSH_2-vtx" offset="0"/><input semantic="NORMAL" source="#BUSH_2-nrm" offset="1"/><p>276 276 277 277 278 278 276 276 278 278 279 279 277 277 280 280 281 281 277 277 281 281 278 278 280 280 276 276 279 279 280 280 279 279 281 281 279 279 278 278 282 282 279 279 282 282 283 283 278 278 281 281 284 284 278 278 284 284 282 282 281 281 279 279 283 283 281 281 283 283 284 284 283 283 282 282 285 285 283 283 285 285 286 286 282 282 284 284 287 287 282 282 287 287 285 285 284 284 283 283 286 286 284 284 286 286 287 287 286 286 285 285 288 288 286 286 288 288 289 289 285 285 287 287 290 290 285 285 290 290 288 288 287 287 286 286 289 289 287 287 289 289 290 290 291 291 292 292 293 293 291 291 293 293 294 294 292 292 295 295 296 296 292 292 296 296 293 293 295 295 291 291 294 294 295 295 294 294 296 296 294 294 293 293 297 297 294 294 297 297 298 298 293 293 296 296 299 299 293 293 299 299 297 297 296 296 294 294 298 298 296 296 298 298 299 299 298 298 297 297 300 300 298 298 300 300 301 301 297 297 299 299 302 302 297 297 302 302 300 300 299 299 298 298 301 301 299 299 301 301 302 302 303 303 304 304 305 305 303 303 305 305 306 306 304 304 307 307 308 308 304 304 308 308 305 305 307 307 303 303 306 306 307 307 306 306 308 308 306 306 305 305 309 309 306 306 309 309 310 310 305 305 308 308 311 311 305 305 311 311 309 309 308 308 306 306 310 310 308 308 310 310 311 311 310 310 309 309 312 312 310 310 312 312 313 313 309 309 311 311 314 314 309 309 314 314 312 312 311 311 310 310 313 313 311 311 313 313 314 314 312 312 313 313 315 315 314 314 312 312 315 315 313 313 314 314 315 315 316 316 317 317 318 318 316 316 318 318 319 319 317 317 320 320 321 321 317 317 321 321 318 318 320 320 316 316 319 319 320 320 319 319 321 321 319 319 318 318 322 322 319 319 322 322 323 323 318 318 321 321 324 324 318 318 324 324 322 322 321 321 319 319 323 323 321 321 323 323 324 324 323 323 322 322 325 325 323 323 325 325 326 326 322 322 324 324 327 327 322 322 327 327 325 325 324 324 323 323 326 326 324 324 326 326 327 327 325 325 326 326 328 328 327 327 325 325 328 328 326 326 327 327 328 328 329 329 330 330 331 331 329 329 331 331 332 332 330 330 333 333 334 334 330 330 334 334 331 331 333 333 329 329 332 332 333 333 332 332 334 334 332 332 331 331 335 335 332 332 335 335 336 336 331 331 334 334 337 337 331 331 337 337 335 335 334 334 332 332 336 336 334 334 336 336 337 337 336 336 335 335 338 338 336 336 338 338 339 339 335 335 337 337 340 340 335 335 340 340 338 338 337 337 336 336 339 339 337 337 339 339 340 340 341 341 342 342 343 343 341 341 343 343 344 344 342 342 345 345 346 346 342 342 346 346 343 343 345 345 341 341 344 344 345 345 344 344 346 346 344 344 343 343 347 347 344 344 347 347 348 348 343 343 346 346 349 349 343 343 349 349 347 347 346 346 344 344 348 348 346 346 348 348 349 349 348 348 347 347 350 350 348 348 350 350 351 351 347 347 349 349 352 352 347 347 352 352 350 350 349 349 348 348 351 351 349 349 351 351 352 352 350 350 351 351 353 353 352 352 350 350 353 353 351 351 352 352 353 353 354 354 355 355 356 356 354 354 356 356 357 357 355 355 358 358 359 359 355 355 359 359 356 356 358 358 354 354 357 357 358 358 357 357 359 359 357 357 356 356 360 360 357 357 360 360 361 361 356 356 359 359 362 362 356 356 362 362 360 360 359 359 357 357 361 361 359 359 361 361 362 362 361 361 360 360 363 363 361 361 363 363 364 364 360 360 362 362 365 365 360 360 365 365 363 363 362 362 361 361 364 364 362 362 364 364 365 365 363 363 364 364 366 366 365 365 363 363 366 366 364 364 365 365 366 366 367 367 368 368 369 369 367 367 369 369 370 370 368 368 371 371 372 372 368 368 372 372 369 369 371 371 367 367 370 370 371 371 370 370 372 372 370 370 369 369 373 373 370 370 373 373 374 374 369 369 372 372 375 375 369 369 375 375 373 373 372 372 370 370 374 374 372 372 374 374 375 375 374 374 373 373 376 376 374 374 376 376 377 377 373 373 375 375 378 378 373 373 378 378 376 376 375 375 374 374 377 377 375 375 377 377 378 378 377 377 376 376 379 379 377 377 379 379 380 380 376 376 378 378 381 381 376 376 381 381 379 379 378 378 377 377 380 380 378 378 380 380 381 381 382 382 383 383 384 384 382 382 384 384 385 385 383 383 386 386 387 387 383 383 387 387 384 384 386 386 382 382 385 385 386 386 385 385 387 387 385 385 384 384 388 388 385 385 388 388 389 389 384 384 387 387 390 390 384 384 390 390 388 388 387 387 385 385 389 389 387 387 389 389 390 390 389 389 388 388 391 391 389 389 391 391 392 392 388 388 390 390 393 393 388 388 393 393 391 391 390 390 389 389 392 392 390 390 392 392 393 393 394 394 395 395 396 396 394 394 396 396 397 397 395 395 398 398 399 399 395 395 399 399 396 396 398 398 394 394 397 397 398 398 397 397 399 399 397 397 396 396 400 400 397 397 400 400 401 401 396 396 399 399 402 402 396 396 402 402 400 400 399 399 397 397 401 401 399 399 401 401 402 402 401 401 400 400 403 403 401 401 403 403 404 404 400 400 402 402 405 405 400 400 405 405 403 403 402 402 401 401 404 404 402 402 404 404 405 405 403 403 404 404 406 406 405 405 403 403 406 406 404 404 405 405 406 406 407 407 408 408 409 409 407 407 409 409 410 410 408 408 411 411 412 412 408 408 412 412 409 409 411 411 407 407 410 410 411 411 410 410 412 412 410 410 409 409 413 413 410 410 413 413 414 414 409 409 412 412 415 415 409 409 415 415 413 413 412 412 410 410 414 414 412 412 414 414 415 415 414 414 413 413 416 416 414 414 416 416 417 417 413 413 415 415 418 418 413 413 418 418 416 416 415 415 414 414 417 417 415 415 417 417 418 418 416 416 417 417 419 419 418 418 416 416 419 419 417 417 418 418 419 419 420 420 421 421 422 422 420 420 422 422 423 423 421 421 424 424 425 425 421 421 425 425 422 422 424 424 420 420 423 423 424 424 423 423 425 425 423 423 422 422 426 426 423 423 426 426 427 427 422 422 425 425 428 428 422 422 428 428 426 426 425 425 423 423 427 427 425 425 427 427 428 428 427 427 426 426 429 429 427 427 429 429 430 430 426 426 428 428 431 431 426 426 431 431 429 429 428 428 427 427 430 430 428 428 430 430 431 431 432 432 433 433 434 434 432 432 434 434 435 435 433 433 436 436 437 437 433 433 437 437 434 434 436 436 432 432 435 435 436 436 435 435 437 437 435 435 434 434 438 438 435 435 438 438 439 439 434 434 437 437 440 440 434 434 440 440 438 438 437 437 435 435 439 439 437 437 439 439 440 440 439 439 438 438 441 441 439 439 441 441 442 442 438 438 440 440 443 443 438 438 443 443 441 441 440 440 439 439 442 442 440 440 442 442 443 443 441 441 442 442 444 444 443 443 441 441 444 444 442 442 443 443 444 444 445 445 446 446 447 447 445 445 447 447 448 448 446 446 449 449 450 450 446 446 450 450 447 447 449 449 445 445 448 448 449 449 448 448 450 450 448 448 447 447 451 451 448 448 451 451 452 452 447 447 450 450 453 453 447 447 453 453 451 451 450 450 448 448 452 452 450 450 452 452 453 453 452 452 451 451 454 454 452 452 454 454 455 455 451 451 453 453 456 456 451 451 456 456 454 454 453 453 452 452 455 455 453 453 455 455 456 456 454 454 455 455 457 457 456 456 454 454 457 457 455 455 456 456 457 457 458 458 459 459 460 460 458 458 460 460 461 461 459 459 462 462 463 463 459 459 463 463 460 460 462 462 458 458 461 461 462 462 461 461 463 463 461 461 460 460 464 464 461 461 464 464 465 465 460 460 463 463 466 466 460 460 466 466 464 464 463 463 461 461 465 465 463 463 465 465 466 466 465 465 464 464 467 467 465 465 467 467 468 468 464 464 466 466 469 469 464 464 469 469 467 467 466 466 465 465 468 468 466 466 468 468 469 469 468 468 467 467 470 470 468 468 470 470 471 471 467 467 469 469 472 472 467 467 472 472 470 470 469 469 468 468 471 471 469 469 471 471 472 472 473 473 474 474 475 475 473 473 475 475 476 476 474 474 477 477 478 478 474 474 478 478 475 475 477 477 473 473 476 476 477 477 476 476 478 478 476 476 475 475 479 479 476 476 479 479 480 480 475 475 478 478 481 481 475 475 481 481 479 479 478 478 476 476 480 480 478 478 480 480 481 481 480 480 479 479 482 482 480 480 482 482 483 483 479 479 481 481 484 484 479 479 484 484 482 482 481 481 480 480 483 483 481 481 483 483 484 484 485 485 486 486 487 487 485 485 487 487 488 488 486 486 489 489 490 490 486 486 490 490 487 487 489 489 485 485 488 488 489 489 488 488 490 490 488 488 487 487 491 491 488 488 491 491 492 492 487 487 490 490 493 493 487 487 493 493 491 491 490 490 488 488 492 492 490 490 492 492 493 493 492 492 491 491 494 494 492 492 494 494 495 495 491 491 493 493 496 496 491 491 496 496 494 494 493 493 492 492 495 495 493 493 495 495 496 496 494 494 495 495 497 497 496 496 494 494 497 497 495 495 496 496 497 497 498 498 499 499 500 500 498 498 500 500 501 501 499 499 502 502 503 503 499 499 503 503 500 500 502 502 498 498 501 501 502 502 501 501 503 503 501 501 500 500 504 504 501 501 504 504 505 505 500 500 503 503 506 506 500 500 506 506 504 504 503 503 501 501 505 505 503 503 505 505 506 506 505 505 504 504 507 507 505 505 507 507 508 508 504 504 506 506 509 509 504 504 509 509 507 507 506 506 505 505 508 508 506 506 508 508 509 509 507 507 508 508 510 510 509 509 507 507 510 510 508 508 509 509 510 510 511 511 512 512 513 513 511 511 513 513 514 514 512 512 515 515 516 516 512 512 516 516 513 513 515 515 511 511 514 514 515 515 514 514 516 516 514 514 513 513 517 517 514 514 517 517 518 518 513 513 516 516 519 519 513 513 519 519 517 517 516 516 514 514 518 518 516 516 518 518 519 519 518 518 517 517 520 520 518 518 520 520 521 521 517 517 519 519 522 522 517 517 522 522 520 520 519 519 518 518 521 521 519 519 521 521 522 522 523 523 524 524 525 525 523 523 525 525 526 526 524 524 527 527 528 528 524 524 528 528 525 525 527 527 523 523 526 526 527 527 526 526 528 528 526 526 525 525 529 529 526 526 529 529 530 530 525 525 528 528 531 531 525 525 531 531 529 529 528 528 526 526 530 530 528 528 530 530 531 531 530 530 529 529 532 532 530 530 532 532 533 533 529 529 531 531 534 534 529 529 534 534 532 532 531 531 530 530 533 533 531 531 533 533 534 534 532 532 533 533 535 535 534 534 532 532 535 535 533 533 534 534 535 535 536 536 537 537 538 538 536 536 538 538 539 539 537 537 540 540 541 541 537 537 541 541 538 538 540 540 536 536 539 539 540 540 539 539 541 541 539 539 538 538 542 542 539 539 542 542 543 543 538 538 541 541 544 544 538 538 544 544 542 542 541 541 539 539 543 543 541 541 543 543 544 544 543 543 542 542 545 545 543 543 545 545 546 546 542 542 544 544 547 547 542 542 547 547 545 545 544 544 543 543 546 546 544 544 546 546 547 547 545 545 546 546 548 548 547 547 545 545 548 548 546 546 547 547 548 548</p></triangles>
      </mesh>
    </geometry>
  </library_geometries>
  <library_visual_scenes><visual_scene id="scene" name="scene">
    <node id="BUSH_2" name="BUSH_2" type="NODE"><instance_geometry url="#BUSH_2-mesh"><bind_material><technique_common>
      <instance_material symbol="MAT_BUSH_1-mat" target="#MAT_BUSH_1"/>
      <instance_material symbol="MAT_BUSH_STEM-mat" target="#MAT_BUSH_STEM"/>
    </technique_common></bind_material></instance_geometry></node>
  </visual_scene></library_visual_scenes>
  <scene><instance_visual_scene url="#scene"/></scene>
</COLLADA>
