<?xml version="1.0" encoding="utf-8"?>
<COLLADA xmlns="http://www.collada.org/2005/11/COLLADASchema" version="1.4.1">
  <asset>
    <contributor><authoring_tool>VIGIL SIH26126 farm generator</authoring_tool></contributor>
    <unit name="meter" meter="1"/>
    <up_axis>Z_UP</up_axis>
  </asset>
  <library_effects>
    <effect id="MAT_BUSH_2-fx"><profile_COMMON><technique sid="c"><lambert><diffuse><color>0.0380 0.0920 0.0220 1</color></diffuse></lambert></technique></profile_COMMON></effect>
    <effect id="MAT_BUSH_STEM-fx"><profile_COMMON><technique sid="c"><lambert><diffuse><color>0.0580 0.0460 0.0300 1</color></diffuse></lambert></technique></profile_COMMON></effect>
  </library_effects>
  <library_materials>
    <material id="MAT_BUSH_2" name="MAT_BUSH_2"><instance_effect url="#MAT_BUSH_2-fx"/></material>
    <material id="MAT_BUSH_STEM" name="MAT_BUSH_STEM"><instance_effect url="#MAT_BUSH_STEM-fx"/></material>
  </library_materials>
  <library_geometries>
    <geometry id="BUSH_3-mesh" name="BUSH_3">
      <mesh>
        <source id="BUSH_3-pos"><float_array id="BUSH_3-pos-a" count="1827">0.15227 0.70908 0.6106 0.33742 0.57724 0.71106 0.073034 0.47006 0.70128 0.35191 0.85123 0.7047 -0.043727 0.70908 0.72272 0.078435 0.9318 0.70748 0.38449 0.70908 0.87469 0.21983 0.50529 0.86987 -0.029114 0.57992 0.87185 -0.048338 0.85192 0.88028 0.22161 0.91822 0.87191 0.15227 0.70908 0.94589 -0.020212 0.28714 0.57354 0.11338 0.20173 0.64669 -0.072196 0.14636 0.64557 0.09683 0.36196 0.65408 -0.19571 0.28714 0.64295 -0.067566 0.41538 0.65098 0.16627 0.28714 0.77366 0.036231 0.13428 0.77228 -0.15022 0.20402 0.76435 -0.18107 0.38997 0.77812 0.025099 0.40985 0.75927 -0.020212 0.28714 0.85274 -0.76171 -0.2315 0.45498 -0.60864 -0.35295 0.5191 -0.81919 -0.42472 0.52022 -0.63701 -0.13256 0.5315 -0.93622 -0.2315 0.52429 -0.81587 -0.049432 0.52402 -0.59105 -0.2315 0.64634 -0.70663 -0.41661 0.64901 -0.91055 -0.3496 0.65105 -0.89219 -0.12796 0.64303 -0.69992 -0.02382 0.65669 -0.76171 -0.2315 0.72247 -0.10102 -0.12798 0.72464 0.0048912 -0.20267 0.79455 -0.14643 -0.26365 0.78942 0.018942 -0.043388 0.789 -0.22831 -0.12798 0.79571 -0.14451 0.0019459 0.79141 0.044837 -0.12798 0.88308 -0.051002 -0.2774 0.8882 -0.2131 -0.20702 0.88074 -0.20593 -0.054003 0.8779 -0.058497 -0.00095236 0.88044 -0.10102 -0.12798 0.95602 -0.24347 -0.87706 0.46015 -0.11394 -0.98853 0.5272 -0.29631 -1.0697 0.5234 -0.11037 -0.76252 0.52566 -0.41678 -0.87706 0.52259 -0.28877 -0.71192 0.53193 -0.076608 -0.87706 0.64165 -0.18732 -1.0818 0.64685 -0.37826 -0.99306 0.64156 -0.38062 -0.75904 0.64258 -0.19953 -0.71688 0.63302 -0.24347 -0.87706 0.7277 -0.21139 -0.41909 0.55598 -0.067233 -0.5291 0.61946 -0.2585 -0.57141 0.62906 -0.079494 -0.31843 0.62512 -0.39787 -0.41909 0.61636 -0.26517 -0.24519 0.621 -0.043694 -0.41909 0.74857 -0.15299 -0.60789 0.75652 -0.35054 -0.52528 0.75018 -0.35043 -0.31297 0.75013 -0.15558 -0.23868 0.75338 -0.21139 -0.41909 0.83416 0.041736 0.46922 0.47514 0.20264 0.37916 0.60108 -0.031321 0.296 0.58893 0.19866 0.55706 0.60267 -0.17201 0.46922 0.59627 -0.025149 0.62782 0.59539 0.26886 0.46922 0.739 0.1111 0.30475 0.73814 -0.14462 0.36492 0.74004 -0.13643 0.56895 0.73677 0.1018 0.61163 0.72839 0.041736 0.46922 0.79877 -0.01701 0.50365 0.31324 0.13193 0.39279 0.43395 -0.07536 0.31966 0.43155 0.14328 0.62295 0.42685 -0.20242 0.50365 0.43328 -0.070833 0.67335 0.43897 0.17102 0.50365 0.62224 0.038871 0.32745 0.6186 -0.17696 0.38459 0.62714 -0.20162 0.64105 0.64256 0.04008 0.68365 0.62058 -0.01701 0.50365 0.73191 -0.1176 -0.37323 0.54925 0.065341 -0.48647 0.6485 -0.18591 -0.55235 0.65011 0.066637 -0.25919 0.648 -0.35833 -0.37323 0.64387 -0.18684 -0.19167 0.64916 0.14245 -0.37323 0.80286 -0.032174 -0.59723 0.80806 -0.30168 -0.48717 0.79253 -0.30714 -0.2559 0.79468 -0.048354 -0.19165 0.79144 -0.1176 -0.37323 0.88515 -0.96483 -0.43481 0.36003 -0.76895 -0.55856 0.4612 -1.0352 -0.62322 0.46672 -0.77381 -0.31413 0.46352 -1.2248 -0.43481 0.45431 -1.0403 -0.23281 0.46038 -0.73841 -0.43481 0.64208 -0.89467 -0.62259 0.64233 -1.1527 -0.5535 0.64432 -1.1582 -0.31263 0.64696 -0.884 -0.21849 0.65565 -0.96483 -0.43481 0.78754 0.036333 0.68666 0.49947 0.15864 0.59982 0.55716 -0.013707 0.53616 0.55344 0.14456 0.76349 0.56318 -0.11613 0.68666 0.55672 -0.011161 0.8295 0.55629 0.1932 0.68666 0.66374 0.071188 0.58183 0.64849 -0.069554 0.61148 0.65475 -0.067449 0.76034 0.65385 0.079904 0.8177 0.65825 0.036333 0.68666 0.71215 -0.16886 0.024981 0.73499 0.060475 -0.11622 0.80234 -0.23839 -0.15635 0.81988 0.0097494 0.13495 0.82114 -0.36617 0.024981 0.82818 -0.25289 0.24414 0.80581 0.097133 0.024981 0.96711 -0.08938 -0.18232 0.96448 -0.36417 -0.095268 0.95974 -0.37156 0.14978 0.96248 -0.085933 0.24127 0.96782 -0.16886 0.024981 1.0689 -0.48864 -0.012094 0.77813 -0.35025 -0.13329 0.91959 -0.54742 -0.23015 0.91106 -0.33729 0.12045 0.91246 -0.68317 -0.012094 0.90914 -0.54155 0.1842 0.91952 -0.26808 -0.012094 1.0941 -0.43868 -0.19743 1.0678 -0.64089 -0.14544 1.0797 -0.61961 0.10261 1.0679 -0.4274 0.21511 1.0841 -0.48864 -0.012094 1.2152 -0.67979 -0.22703 0.41555 -0.55126 -0.3106 0.50154 -0.73026 -0.36606 0.49981 -0.54669 -0.14048 0.49936 -0.8274 -0.22703 0.5059 -0.72761 -0.095283 0.50312 -0.50998 -0.22703 0.62872 -0.62941 -0.36579 0.62609 -0.82277 -0.32 0.6314 -0.82479 -0.13274 0.63237 -0.62915 -0.087538 0.62643 -0.67979 -0.22703 0.70231 0.055973 0.38036 0.505 0.1557 0.29693 0.56937 0.018692 0.24824 0.57039 0.14218 0.45249 0.5759 -0.059826 0.38036 0.57229 0.018688 0.51251 0.57039 0.16855 0.38036 0.66159 0.090008 0.25974 0.66064 -0.043882 0.29682 0.66583 -0.042682 0.4629 0.66525 0.090781 0.50373 0.66162 0.055973 0.38036 0.71093 0.11539 0.15483 0.65156 0.32035 0.019131 0.73361 0.044015 -0.045366 0.74044 0.27736 0.26207 0.74985 -0.16615 0.15483 0.72499 0.032143 0.38833 0.7287 0.37483 0.15483 0.89029 0.18801 -0.048825 0.88281 -0.066783 0.034215 0.87982 -0.063866 0.27352 0.87872 0.19025 0.36479 0.88504 0.11539 0.15483 0.97484 0.2746 -0.19915 0.50649 0.38587 -0.28503 0.58114 0.23134 -0.34061 0.58001 0.37536 -0.12138 0.58709 0.11446 -0.19915 0.57078 0.23143 -0.058003 0.58015 0.42704 -0.19915 0.71396 0.32117 -0.35141 0.71316 0.16206 -0.28602 0.70786 0.16294 -0.11296 0.70736 0.3178 -0.057888 0.70818 0.2746 -0.19915 0.77404 -0.24963 0.76879 0.38977 -0.021198 0.61473 0.51248 -0.33619 0.52148 0.5133 -0.010155 0.93029 0.50748 -0.55256 0.76879 0.50494 -0.34319 1.0361 0.505 0.044772 0.76879 0.72382 -0.16067 0.51465 0.72143 -0.48062 0.61301 0.72056 -0.45411 0.90669 0.70855 -0.16182 1.0196 0.72006 -0.24963 0.76879 0.79127 -0.069822 0.12873 0.61616 0.030266 0.043667 0.6955 -0.10542 0.00055458 0.69922 0.051542 0.23187 0.68398 -0.20211 0.12873 0.69175 -0.11008 0.27367 0.69262 0.067415 0.12873 0.80976 -0.031423 -0.0095157 0.80408 -0.16558 0.047343 0.8015 -0.17036 0.21417 0.80409 -0.037176 0.24626 0.79593 -0.069822 0.12873 0.86541 0.29795 0.38342 0.56512 0.40792 0.27999 0.64425 0.25573 0.21522 0.64394 0.40597 0.48501 0.64534 0.14713 0.38342 0.63755 0.25719 0.5458 0.64607 0.41603 0.38342 0.75861 0.33471 0.23695 0.75901 0.19159 0.2834 0.76463 0.18473 0.4899 0.76845 0.34244 0.56068 0.77027 0.29795 0.38342 0.83003 0.30367 0.31399 0.55106 0.45734 0.22639 0.61782 0.24733 0.17795 0.62055 0.43295 0.3877 0.62857 0.12712 0.31399 0.6226 0.25064 0.44205 0.62436 0.47864 0.31399 0.74803 0.35579 0.18812 0.74579 0.18043 0.24374 0.73995 0.16494 0.39307 0.74678 0.35961 0.44909 0.75019 0.30367 0.31399 0.81926 0.06017 0.26583 0.65963 0.13988 0.19024 0.71987 0.026501 0.13058 0.71476 0.14258 0.34397 0.71824 -0.059729 0.26583 0.70939 0.029584 0.3887 0.71965 0.16976 0.26583 0.82195 0.091958 0.13813 0.81865 -0.016249 0.19336 0.81453 -0.026492 0.34801 0.82074 0.094063 0.40198 0.822 0.06017 0.26583 0.86833 0.025093 0.55502 0.4012 0.15638 0.46546 0.47144 -0.029079 0.39848 0.46718 0.15641 0.64459 0.47143 -0.152 0.55502 0.46659 -0.030065 0.7144 0.46613 0.2125 0.55502 0.58583 0.081015 0.39342 0.58372 -0.1091 0.46348 0.57878 -0.11122 0.648 0.57964 0.078726 0.70999 0.5813 0.025093 0.55502 0.634 -0.046337 0.38626 0.26167 0.068647 0.29897 0.36891 -0.096817 0.22392 0.35814 0.064283 0.47023 0.37164 -0.18071 0.38626 0.37284 -0.10208 0.56553 0.3495 0.086821 0.38626 0.50849 -0.001511 0.2421 0.51453 -0.15197 0.30607 0.50718 -0.14976 0.46477 0.50579 -0.0015765 0.5302 0.51442 -0.046337 0.38626 0.63913 0.13222 -0.046702 0.50185 0.28144 -0.17093 0.60972 0.065075 -0.28351 0.59588 0.29771 0.091082 0.60124 -0.081404 -0.046702 0.59743 0.062587 0.19888 0.59249 0.34362 -0.046702 0.77645 0.18826 -0.24434 0.7638 -0.069891 -0.21497 0.79264 -0.027238 0.086054 0.77043 0.19096 0.16047 0.76748 0.13222 -0.046702 0.89673 0.10192 0.3299 0.42144 0.28429 0.2083 0.54197 0.030447 0.12802 0.53948 0.29556 0.45902 0.53607 -0.1416 0.3299 0.5343 0.026829 0.542 0.53452 0.37799 0.3299 0.75436 0.17977 0.10999 0.74414 -0.088546 0.2029 0.73714 -0.073705 0.447 0.72937 0.16387 0.50488 0.72234 0.10192 0.3299 0.84516 -0.031864 0.64491 0.53153 0.11121 0.55863 0.6373 -0.09911 0.47313 0.62022 0.12652 0.74042 0.62937 -0.23883 0.64491 0.62468 -0.090109 0.79369 0.63242 0.14539 0.64491 0.78561 0.032366 0.48083 0.79842 -0.18841 0.5505 0.79241 -0.17832 0.73322 0.78718 0.032947 0.81047 0.79921 -0.031864 0.64491 0.922 -0.15339 0.092358 0.43373 -0.01936 -0.027663 0.5182 -0.21225 -0.13094 0.50738 0.015672 0.24375 0.49932 -0.33582 0.092358 0.51089 -0.20931 0.3045 0.51153 0.061683 0.092358 0.68425 -0.097487 -0.1197 0.66935 -0.29231 -0.032047 0.66534 -0.31641 0.23834 0.67833 -0.086936 0.34444 0.68424 -0.15339 0.092358 0.78397 0 0.018793 -0.0023612 -0.015577 -0.010038 -0.0039215 -0.053541 0.0065997 0.11756 -0.040244 0.031261 0.1189 0.015577 -0.0087556 0.0062827 -0.026948 0.0077297 0.12641 -0.091493 0.023228 0.2351 -0.080489 0.043726 0.23624 -0.069485 0.024227 0.24267 -0.12946 0.039865 0.34877 -0.12073 0.056193 0.3497 -0.11201 0.040712 0.35497 -0.16745 0.056522 0.45859 -0.16098 0.068666 0.45929 -0.15451 0.057173 0.46327 -0.16098 0.069832 0.46838 -0.16832 0.061194 0.45081 -0.25686 0.0024947 0.51916 -0.251 0.0091429 0.53351 -0.15364 0.051335 0.46196 -0.24514 -0.0057177 0.52809 -0.34538 -0.056131 0.5824 -0.34103 -0.051602 0.59358 -0.33667 -0.062788 0.58906 -0.43454 -0.11495 0.63983 -0.43105 -0.1115 0.64899 -0.42757 -0.12051 0.64516 -0.43105 -0.11104 0.64921 -0.43599 -0.11982 0.64427 -0.39333 -0.17495 0.70045 -0.38877 -0.16688 0.70514 -0.42611 -0.1161 0.6405 -0.3842 -0.17141 0.69697 -0.35101 -0.23041 0.75293 -0.34648 -0.22245 0.75785 -0.34196 -0.22665 0.74949 -0.30871 -0.28585 0.80182 -0.3042 -0.27796 0.80686 -0.29969 -0.28198 0.7984 -0.3042 -0.28193 0.80236 -0.43105 -0.11063 0.6488 -0.43289 -0.11478 0.63848 -0.50239 -0.12992 0.65758 -0.50076 -0.12651 0.66726 -0.42921 -0.12155 0.6467 -0.49914 -0.13651 0.66493 -0.5688 -0.15138 0.68161 -0.57167 -0.1463 0.67301 -0.57095 -0.14122 0.68204 -0.63857 -0.16671 0.69431 -0.64126 -0.16163 0.68565 -0.64073 -0.15655 0.6947 -0.64018 -0.16163 0.69155 -0.16098 0.071224 0.45539 -0.16953 0.057826 0.46759 -0.11111 0.098549 0.54997 -0.10425 0.10922 0.53995 -0.15243 0.053312 0.45817 -0.097398 0.09477 0.54228 -0.052676 0.13931 0.62795 -0.04753 0.1472 0.62006 -0.042384 0.13621 0.62199 0.0048732 0.17969 0.70214 0.0091936 0.18626 0.69535 0.013514 0.17696 0.69705 0.0091936 0.18416 0.69116 0.0030505 0.18175 0.70278 0.033846 0.24496 0.73065 0.038795 0.24669 0.72124 0.015337 0.17699 0.70061 0.043744 0.24105 0.72896 0.063635 0.30837 0.75622 0.068396 0.30964 0.74707 0.073158 0.30448 0.75473 0.093242 0.37172 0.77888 0.097998 0.37279 0.7697 0.10275 0.36778 0.77746 0.097998 0.37076 0.77535 0.0091936 0.18562 0.70224 0.0038501 0.17867 0.69613 0.0035815 0.1378 0.74312 0.0087776 0.14448 0.74915 0.014537 0.17862 0.69618 0.013974 0.13775 0.74317 0.0031655 0.096903 0.78748 0.0083615 0.10341 0.7937 0.013558 0.096853 0.78754 0.0027494 0.055978 0.82935 0.0079454 0.062388 0.83567 0.013141 0.055926 0.8294 0.0079454 0.058097 0.83147 0 0.017871 -0.006277 -0.016381 -0.0086496 0.0039521 -0.0072565 0.035111 0.12438 0.0067484 0.057737 0.11551 0.016381 -0.0092211 0.002325 0.020753 0.034608 0.12297 0.001868 0.078884 0.24093 0.013497 0.097587 0.23335 0.025126 0.078441 0.23973 0.010992 0.12265 0.35355 0.020245 0.13745 0.34733 0.029498 0.12227 0.35257 0.020116 0.16638 0.46219 0.026994 0.17736 0.4575 0.033872 0.16609 0.46145 0.026994 0.17758 0.46768 0.018349 0.16405 0.4589 0.055756 0.09395 0.53377 0.062718 0.10478 0.54098 0.035638 0.16819 0.45457 0.06968 0.097384 0.53028 0.093167 0.023846 0.60418 0.098442 0.03194 0.60989 0.10372 0.026614 0.60154 0.12929 -0.047126 0.66999 0.13417 -0.039701 0.67539 0.13904 -0.044486 0.66755 0.13417 -0.041045 0.67749 0.12823 -0.043786 0.66716 0.11147 -0.10991 0.69543 0.11651 -0.10776 0.70425 0.14011 -0.046482 0.66828 0.12156 -0.11223 0.69635 0.09382 -0.17596 0.72014 0.098859 -0.17418 0.72906 0.1039 -0.17835 0.72098 0.076169 -0.24208 0.74189 0.081206 -0.24049 0.75084 0.086243 -0.24451 0.74268 0.081206 -0.24236 0.74513 0.13417 -0.037704 0.6696 0.13147 -0.045774 0.67621 0.19047 -0.038123 0.70928 0.193 -0.030409 0.70279 0.13686 -0.047835 0.66712 0.19552 -0.040213 0.70044 0.24947 -0.030471 0.73986 0.25183 -0.022917 0.73312 0.25419 -0.032789 0.7309 0.30838 -0.022875 0.76762 0.31066 -0.015413 0.76076 0.31294 -0.025322 0.75861 0.31066 -0.021203 0.76233 0.026994 0.17539 0.45067 0.017929 0.16435 0.46363 -0.015349 0.24962 0.51024 -0.0080458 0.25834 0.49963 0.036059 0.17009 0.46685 -0.00074222 0.25434 0.51278 -0.048625 0.3349 0.55274 -0.043085 0.34125 0.54443 -0.037545 0.33863 0.55455 -0.082985 0.41949 0.59141 -0.078125 0.42494 0.58401 -0.073264 0.42283 0.59295 -0.078125 0.42704 0.59445 -0.083726 0.41877 0.5882 -0.060881 0.36937 0.6343 -0.055949 0.37659 0.63992 -0.072523 0.42146 0.58571 -0.051017 0.37181 0.63212 -0.038691 0.31956 0.67733 -0.033774 0.32662 0.68315 -0.028856 0.32213 0.67517 -0.016508 0.26974 0.7175 -0.011598 0.27671 0.72343 -0.0066882 0.27238 0.71536 -0.011598 0.27294 0.71876 -0.078125 0.42367 0.58326 -0.083554 0.42113 0.59242 -0.090456 0.47726 0.60355 -0.085301 0.47949 0.59481 -0.072695 0.42247 0.59269 -0.080145 0.47853 0.60378 -0.097631 0.53337 0.61254 -0.092477 0.53526 0.60372 -0.087322 0.53467 0.61272 -0.10481 0.58944 0.6192 -0.099653 0.59115 0.61034 -0.094498 0.59074 0.61935 -0.099653 0.59044 0.6163 0 0.017911 -0.0061598 -0.016343 -0.0085 0.0044049 -0.0030065 0.034354 0.12477 0.010966 0.056885 0.11561 0.016343 -0.0094114 0.0017549 0.024938 0.033552 0.12248 0.010331 0.077223 0.24127 0.021931 0.095841 0.23343 0.033531 0.076517 0.23931 0.023668 0.12008 0.35382 0.032897 0.13481 0.3474 0.042125 0.11948 0.35222 0.037003 0.1629 0.4624 0.043862 0.17382 0.45755 0.050722 0.16244 0.4612 0.043862 0.17263 0.45102 0.034137 0.16275 0.46472 0.029014 0.25443 0.52459 0.036859 0.26222 0.51341 0.053588 0.16378 0.46541 0.044704 0.25529 0.52514 0.023891 0.34613 0.58004 0.029855 0.35176 0.57134 0.035819 0.34681 0.58045 0.017667 0.43737 0.63151 0.022851 0.44213 0.62387 0.028036 0.43798 0.63186 0.022851 0.44129 0.62288 0.01812 0.43512 0.63116 -0.015939 0.48462 0.64795 -0.01162 0.49011 0.64025 0.027583 0.44106 0.6332 -0.0073 0.49013 0.64971 -0.050392 0.53382 0.6625 -0.046091 0.53896 0.65456 -0.04179 0.53945 0.66401 -0.084854 0.58299 0.67446 -0.080562 0.58795 0.6664 -0.076269 0.58868 0.67584 -0.080562 0.58654 0.67223 0.022851 0.44315 0.62442 0.019407 0.44024 0.63404 0.07717 0.47762 0.66585 0.080499 0.48022 0.65635 0.026296 0.43409 0.62878 0.083827 0.47144 0.6608 0.1349 0.51518 0.69468 0.13815 0.51724 0.68503 0.1414 0.50865 0.68989 0.19258 0.5526 0.72047 0.19579 0.55437 0.71075 0.199 0.54589 0.71582 0.19579 0.55095 0.71568 0.043862 0.17652 0.46687 0.033445 0.16147 0.45691 0.032877 0.10955 0.5401 0.04128 0.12159 0.54828 0.054279 0.16117 0.45737 0.049683 0.1093 0.54047 0.032309 0.057636 0.61928 0.038698 0.066643 0.62572 0.045087 0.057435 0.61957 0.030921 0.0053009 0.69425 0.036115 0.012557 0.69958 0.041309 0.0051312 0.69449 0.036115 0.013513 0.69241 0.030463 0.0058029 0.69964 0.051174 0.036331 0.74704 0.056064 0.042926 0.74066 0.041768 0.0036727 0.69627 0.060955 0.03442 0.74409 0.071145 0.066671 0.7925 0.076013 0.073073 0.78592 0.080882 0.064621 0.78951 0.091105 0.09696 0.83549 0.095963 0.10326 0.8288 0.10082 0.094836 0.83247 0.095963 0.098351 0.83225 0.036115 0.011967 0.70304 0.029388 0.007342 0.69151 0.0087606 -0.050664 0.7285 0.014181 -0.047118 0.73788 0.042842 0.0036801 0.69378 0.019602 -0.053681 0.7303 -0.012685 -0.10864 0.76203 -0.0077525 -0.10576 0.77071 -0.0028196 -0.11151 0.76359 -0.034614 -0.16671 0.79233 -0.029686 -0.16402 0.80108 -0.024759 -0.16964 0.79386 -0.029686 -0.16679 0.79576</float_array><technique_common><accessor source="#BUSH_3-pos-a" count="609" stride="3"><param name="X" type="float"/><param name="Y" type="float"/><param name="Z" type="float"/></accessor></technique_common></source>
        <source id="BUSH_3-nrm"><float_array id="BUSH_3-nrm-a" count="1827">-0.043 0.005 -0.999 0.716 -0.531 -0.453 -0.304 -0.842 -0.445 0.72 0.524 -0.455 -0.858 -0.006 -0.514 -0.297 0.821 -0.487 0.848 -0.025 0.529 0.274 -0.79 0.549 -0.72 -0.484 0.498 -0.743 0.484 0.463 0.265 0.8 0.538 0.013 -0.02 1 0.038 0.045 -0.998 0.687 -0.482 -0.543 -0.27 -0.836 -0.478 0.637 0.585 -0.502 -0.859 -0.027 -0.511 -0.149 0.856 -0.495 0.914 0.081 0.398 0.238 -0.871 0.429 -0.682 -0.573 0.456 -0.701 0.567 0.432 0.289 0.878 0.382 0.003 0.027 1 0.015 0.042 -0.999 0.749 -0.467 -0.47 -0.288 -0.825 -0.487 0.703 0.458 -0.544 -0.88 0.045 -0.473 -0.297 0.804 -0.514 0.888 0.022 0.459 0.286 -0.807 0.516 -0.734 -0.472 0.488 -0.731 0.479 0.486 0.299 0.856 0.421 -0.011 -0.005 1 -0.017 -0.008 -1 0.698 -0.487 -0.525 -0.308 -0.813 -0.494 0.72 0.525 -0.453 -0.892 0.027 -0.452 -0.323 0.844 -0.428 0.908 0.007 0.42 0.296 -0.868 0.399 -0.778 -0.464 0.424 -0.738 0.515 0.436 0.232 0.853 0.467 -0.037 0.048 0.998 0.014 0.028 -1 0.724 -0.446 -0.526 -0.286 -0.81 -0.512 0.698 0.553 -0.455 -0.873 0.029 -0.488 -0.235 0.843 -0.484 0.897 0.047 0.44 0.304 -0.849 0.433 -0.741 -0.481 0.468 -0.694 0.573 0.436 0.272 0.843 0.463 0.008 0.051 0.999 0.016 -0.019 -1 0.702 -0.488 -0.518 -0.278 -0.794 -0.54 0.709 0.488 -0.508 -0.874 -0.03 -0.484 -0.252 0.826 -0.504 0.89 0.031 0.455 0.254 -0.867 0.428 -0.715 -0.537 0.447 -0.709 0.509 0.488 0.299 0.842 0.449 -0.004 0.011 1 0.045 0.027 -0.999 0.705 -0.517 -0.484 -0.24 -0.866 -0.439 0.682 0.574 -0.453 -0.885 0.035 -0.464 -0.216 0.889 -0.403 0.896 0.041 0.443 0.279 -0.826 0.489 -0.693 -0.511 0.509 -0.655 0.567 0.5 0.248 0.839 0.485 0.009 0.045 0.999 -0.018 0.01 -1 0.72 -0.543 -0.432 -0.261 -0.853 -0.452 0.713 0.538 -0.45 -0.865 -0.002 -0.501 -0.256 0.838 -0.481 0.884 -0.019 0.467 0.296 -0.842 0.451 -0.69 -0.573 0.442 -0.711 0.551 0.436 0.311 0.844 0.436 0.065 -0.031 0.997 0.011 -0.004 -1 0.654 -0.501 -0.567 -0.272 -0.814 -0.513 0.658 0.558 -0.506 -0.885 -0.011 -0.466 -0.234 0.855 -0.463 0.904 0.049 0.424 0.239 -0.878 0.416 -0.704 -0.532 0.47 -0.682 0.55 0.482 0.228 0.86 0.455 -0.039 0.047 0.998 0.019 -0.015 -1 0.705 -0.543 -0.457 -0.237 -0.86 -0.453 0.712 0.505 -0.487 -0.885 -0.024 -0.464 -0.25 0.837 -0.487 0.893 -0.033 0.449 0.26 -0.864 0.432 -0.681 -0.572 0.457 -0.714 0.525 0.464 0.29 0.855 0.43 0.004 -0.043 0.999 0.033 0.03 -0.999 0.712 -0.56 -0.423 -0.254 -0.897 -0.363 0.681 0.529 -0.506 -0.918 0.018 -0.396 -0.269 0.863 -0.428 0.876 -0.02 0.482 0.221 -0.778 0.589 -0.643 -0.49 0.588 -0.677 0.475 0.562 0.253 0.831 0.495 -0.042 -0.052 0.998 -0.052 -0.01 -0.999 0.692 -0.518 -0.502 -0.328 -0.785 -0.525 0.636 0.53 -0.561 -0.822 -0.055 -0.567 -0.296 0.804 -0.516 0.895 0.057 0.442 0.186 -0.87 0.456 -0.76 -0.537 0.366 -0.783 0.469 0.409 0.298 0.855 0.424 -0.028 -0.016 0.999 0.026 0.012 -1 0.719 -0.543 -0.433 -0.23 -0.887 -0.401 0.704 0.508 -0.497 -0.92 0.053 -0.388 -0.333 0.84 -0.428 0.917 -0.065 0.393 0.29 -0.856 0.428 -0.723 -0.512 0.463 -0.755 0.505 0.418 0.197 0.894 0.402 -0.072 -0.027 0.997 -0.026 0.009 -1 0.696 -0.542 -0.472 -0.264 -0.836 -0.482 0.695 0.54 -0.475 -0.849 0.011 -0.527 -0.267 0.831 -0.489 0.887 -0.009 0.463 0.278 -0.848 0.451 -0.722 -0.544 0.427 -0.724 0.551 0.415 0.265 0.855 0.446 0.027 -0.004 1 0.011 0.023 -1 0.758 -0.501 -0.419 -0.277 -0.852 -0.444 0.742 0.505 -0.44 -0.884 0.002 -0.468 -0.245 0.854 -0.46 0.871 0.026 0.491 0.295 -0.794 0.532 -0.708 -0.509 0.49 -0.71 0.505 0.49 0.332 0.808 0.486 0.037 -0.003 0.999 0.065 -0.002 -0.998 0.697 -0.511 -0.502 -0.25 -0.856 -0.453 0.654 0.514 -0.555 -0.919 -0.031 -0.392 -0.222 0.874 -0.432 0.906 0.054 0.421 0.208 -0.849 0.486 -0.645 -0.537 0.544 -0.643 0.485 0.593 0.302 0.839 0.452 -0.044 -0.005 0.999 0.07 0.017 -0.997 0.715 -0.474 -0.515 -0.254 -0.84 -0.479 0.703 0.509 -0.497 -0.89 0.002 -0.455 -0.216 0.858 -0.466 0.897 0.038 0.441 0.257 -0.845 0.468 -0.701 -0.5 0.508 -0.685 0.517 0.514 0.278 0.847 0.452 -0.036 0.021 0.999 0.013 -0.027 -1 0.686 -0.537 -0.491 -0.249 -0.842 -0.478 0.71 0.518 -0.477 -0.901 0.008 -0.435 -0.291 0.855 -0.429 0.849 -0.009 0.528 0.248 -0.819 0.518 -0.678 -0.49 0.547 -0.645 0.492 0.585 0.22 0.8 0.557 -0.03 0.02 0.999 -0.025 -0.061 -0.998 0.682 -0.567 -0.462 -0.288 -0.847 -0.447 0.722 0.562 -0.403 -0.906 -0.039 -0.422 -0.299 0.876 -0.379 0.856 0.001 0.516 0.235 -0.857 0.458 -0.711 -0.516 0.478 -0.683 0.512 0.521 0.226 0.794 0.564 -0.027 0.032 0.999 0.034 0.011 -0.999 0.768 -0.504 -0.395 -0.253 -0.874 -0.415 0.763 0.463 -0.45 -0.895 -0.003 -0.445 -0.271 0.824 -0.498 0.87 -0.039 0.491 0.315 -0.782 0.537 -0.676 -0.513 0.528 -0.722 0.481 0.496 0.317 0.821 0.475 0.046 -0.052 0.998 0.007 0.044 -0.999 0.72 -0.514 -0.465 -0.293 -0.859 -0.419 0.657 0.568 -0.495 -0.9 -0.012 -0.436 -0.235 0.847 -0.477 0.875 0.023 0.483 0.203 -0.836 0.509 -0.66 -0.543 0.519 -0.707 0.505 0.494 0.265 0.856 0.443 -0.034 -0.038 0.999 0.063 0.018 -0.998 0.742 -0.467 -0.481 -0.26 -0.858 -0.444 0.721 0.472 -0.506 -0.895 0.002 -0.446 -0.259 0.823 -0.505 0.886 -0.021 0.464 0.269 -0.82 0.506 -0.7 -0.469 0.539 -0.719 0.476 0.506 0.278 0.841 0.465 -0.037 -0.035 0.999 0.034 -0.004 -0.999 0.679 -0.497 -0.541 -0.266 -0.835 -0.481 0.682 0.507 -0.527 -0.891 -0.008 -0.454 -0.255 0.845 -0.469 0.896 0.01 0.444 0.258 -0.841 0.476 -0.689 -0.499 0.526 -0.686 0.497 0.53 0.262 0.831 0.49 -0.034 0.007 0.999 0.024 -0.021 -0.999 0.782 -0.479 -0.399 -0.312 -0.856 -0.412 0.796 0.465 -0.386 -0.939 -0.023 -0.343 -0.302 0.86 -0.411 0.926 0.007 0.377 0.296 -0.847 0.441 -0.778 -0.471 0.417 -0.776 0.456 0.436 0.31 0.834 0.456 -0.026 0.004 1 0.048 -0.025 -0.999 0.726 -0.51 -0.461 -0.171 -0.853 -0.493 0.745 0.481 -0.463 -0.868 0.04 -0.495 -0.267 0.861 -0.432 0.903 -0.031 0.429 0.375 -0.814 0.444 -0.708 -0.534 0.462 -0.692 0.537 0.483 0.287 0.819 0.497 0.042 0.025 0.999 0.017 -0.024 -1 0.661 -0.534 -0.527 -0.256 -0.839 -0.481 0.68 0.561 -0.471 -0.894 0.003 -0.447 -0.257 0.877 -0.406 0.886 0.044 0.462 0.234 -0.865 0.444 -0.718 -0.5 0.484 -0.66 0.55 0.511 0.201 0.851 0.486 -0.052 0.076 0.996 0.045 0.025 -0.999 0.732 -0.509 -0.452 -0.237 -0.854 -0.463 0.733 0.494 -0.467 -0.899 0.053 -0.435 -0.266 0.855 -0.445 0.914 -0.024 0.405 0.325 -0.848 0.418 -0.727 -0.503 0.468 -0.71 0.557 0.432 0.273 0.867 0.417 -0.006 0.008 1 -0.004 -0.024 -1 0.682 -0.5 -0.535 -0.269 -0.834 -0.481 0.691 0.455 -0.561 -0.867 -0.02 -0.497 -0.328 0.759 -0.563 0.902 -0.085 0.424 0.271 -0.856 0.44 -0.734 -0.498 0.462 -0.778 0.465 0.422 0.242 0.865 0.44 -0.052 -0.066 0.996 -0.007 0.994 -0.105 -0.829 -0.527 -0.187 -0.827 -0.53 -0.189 -0.004 0.994 -0.105 0.816 -0.459 0.352 0.814 -0.458 0.357 -0.824 -0.532 -0.194 -0.005 0.994 -0.109 0.811 -0.455 0.368 -0.822 -0.534 -0.2 -0.005 0.994 -0.113 0.807 -0.453 0.379 -0.822 -0.533 -0.203 -0.008 0.993 -0.116 0.805 -0.452 0.385 -0.009 0.738 0.675 -0.623 0.03 -0.781 -0.617 0.05 -0.785 -0.008 0.723 0.691 0.593 -0.794 0.136 0.591 -0.795 0.136 -0.599 0.088 -0.796 -0.01 0.699 0.715 0.582 -0.805 0.116 -0.587 0.105 -0.803 -0.014 0.69 0.723 0.575 -0.812 0.096 -0.001 0.708 0.707 -0.759 -0.648 -0.059 -0.762 -0.644 -0.06 -0.004 0.697 0.717 0.767 -0.069 -0.637 0.765 -0.051 -0.642 -0.76 -0.646 -0.073 -0.002 0.674 0.738 0.756 -0.022 -0.654 -0.902 -0.181 -0.391 -0.272 0.913 0.304 0.349 0.351 -0.869 -0.496 0.651 -0.575 -0.001 0.76 0.65 -0.292 0.15 -0.945 -0.161 -0.341 -0.926 -0.151 0.964 0.217 0.274 -0.914 0.3 0.302 -0.617 0.726 0.196 -0.98 -0.034 -0.269 0.495 -0.826 0.077 0.478 0.875 0.758 -0.588 0.284 0.384 0.119 -0.916 0.458 0.821 0.341 0.962 0.211 -0.175 0.013 0.909 -0.417 -0.729 -0.246 0.639 -0.723 -0.239 0.648 0.007 0.906 -0.423 0.749 -0.64 -0.174 0.742 -0.648 -0.17 -0.715 -0.222 0.663 0.002 0.895 -0.446 0.731 -0.66 -0.174 -0.713 -0.213 0.669 0.003 0.887 -0.462 0.727 -0.662 -0.183 0.011 0.429 -0.903 -0.79 0.12 0.601 -0.788 0.123 0.603 0.004 0.405 -0.914 0.803 -0.5 0.325 0.795 -0.504 0.338 -0.788 0.141 0.599 -0.003 0.36 -0.933 0.79 -0.502 0.351 -0.882 -0.346 0.321 -0.227 -0.196 -0.954 0.437 -0.891 0.119 -0.403 -0.861 -0.309 0 0.752 0.659 -0.866 -0.375 -0.331 -0.869 -0.365 -0.333 0 0.744 0.669 0.866 -0.382 -0.322 0.869 -0.373 -0.325 -0.869 -0.354 -0.344 0 0.725 0.688 0.87 -0.362 -0.336 -0.717 0.094 -0.691 0.004 0.983 0.185 0.725 0.087 -0.684 0.007 0.699 -0.715 0.001 0.95 -0.311 -0.864 -0.449 0.229 -0.862 -0.45 0.233 0.001 0.949 -0.316 0.866 -0.48 0.143 0.864 -0.481 0.146 -0.862 -0.447 0.239 0.001 0.946 -0.325 0.864 -0.48 0.15 -0.862 -0.443 0.246 0.001 0.942 -0.335 0.864 -0.479 0.155 -0.863 -0.44 0.249 0.001 0.94 -0.341 0.866 -0.475 0.157 0.004 0.711 0.704 -0.811 -0.57 -0.129 -0.814 -0.567 -0.128 0.003 0.699 0.715 0.825 -0.177 -0.536 0.826 -0.163 -0.539 -0.815 -0.562 -0.142 0.003 0.682 0.732 0.82 -0.136 -0.556 -0.812 -0.561 -0.159 0.004 0.676 0.737 0.813 -0.124 -0.569 -0.002 0.373 0.928 -0.845 -0.014 -0.534 -0.847 0.007 -0.532 0 0.361 0.933 0.836 -0.397 -0.378 0.843 -0.382 -0.378 -0.844 0.037 -0.536 -0 0.331 0.944 0.845 -0.363 -0.393 -0.561 0.548 -0.62 0.134 0.771 0.623 0.836 0.213 -0.506 0.246 0.921 -0.302 0.005 0.975 -0.222 -0.432 -0.318 0.844 -0.42 -0.308 0.854 -0.002 0.975 -0.223 0.436 -0.656 -0.617 0.42 -0.667 -0.615 -0.394 -0.29 0.872 -0.005 0.971 -0.24 0.392 -0.681 -0.618 -0.814 -0.299 0.498 -0.5 0.74 -0.449 -0.182 -0.632 -0.753 -0.899 -0.115 -0.423 -0.01 0.505 -0.863 -0.82 -0.486 0.303 -0.815 -0.484 0.318 -0.007 0.49 -0.872 0.808 0.032 0.588 0.802 0.041 0.595 -0.813 -0.481 0.33 -0.002 0.451 -0.892 0.801 0.061 0.595 -0.815 -0.48 0.326 0 0.428 -0.904 0.805 0.074 0.588 0.002 0.67 0.742 -0.819 -0.546 -0.179 -0.824 -0.537 -0.182 -0.002 0.662 0.75 0.828 -0.148 -0.542 0.827 -0.129 -0.547 -0.824 -0.531 -0.196 -0.001 0.641 0.768 0.822 -0.102 -0.56 -0.863 -0.036 -0.503 -0.18 0.931 0.318 0.498 0.329 -0.802 -0.327 0.735 -0.593 -0.002 0.202 -0.979 -0.859 -0.199 0.471 -0.855 -0.194 0.482 -0.001 0.18 -0.984 0.859 0.013 0.512 0.855 0.019 0.519 -0.855 -0.177 0.488 0.001 0.138 -0.99 0.854 0.037 0.519 -0.645 -0.686 0.337 0.071 -0.448 -0.891 0.784 -0.505 0.36 0.126 -0.985 -0.117 0.002 0.952 -0.305 -0.861 -0.442 0.253 -0.86 -0.442 0.257 0.001 0.951 -0.309 0.864 -0.49 0.113 0.863 -0.492 0.115 -0.859 -0.438 0.264 0.001 0.948 -0.319 0.863 -0.491 0.119 -0.859 -0.434 0.272 0.001 0.944 -0.329 0.863 -0.49 0.123 -0.86 -0.43 0.275 0.002 0.943 -0.334 0.864 -0.487 0.124 -0.002 0.571 -0.821 -0.865 -0.307 0.396 -0.861 -0.304 0.407 -0.001 0.557 -0.83 0.863 -0.215 0.457 0.859 -0.21 0.467 -0.861 -0.296 0.414 -0 0.523 -0.852 0.859 -0.198 0.473 -0.865 -0.29 0.41 0 0.502 -0.865 0.863 -0.19 0.468 -0.009 0.329 -0.944 -0.724 -0.608 0.324 -0.717 -0.607 0.343 -0.003 0.306 -0.952 0.719 0.3 0.627 0.715 0.308 0.627 -0.714 -0.598 0.364 0.004 0.261 -0.965 0.712 0.335 0.617 -0.285 -0.938 0.197 0.317 -0.247 -0.916 0.906 -0.151 0.396 0.563 -0.803 -0.194 0.007 0.647 -0.763 -0.563 0.184 0.806 -0.554 0.2 0.808 0 0.633 -0.774 0.56 -0.827 -0.041 0.551 -0.834 -0.019 -0.539 0.241 0.807 -0.006 0.597 -0.802 0.54 -0.842 0.009 -0.879 -0.06 0.473 -0.441 0.197 -0.876 0.012 -0.983 -0.183 -0.786 -0.508 -0.352 -0.001 0.829 0.559 -0.866 -0.421 -0.269 -0.869 -0.414 -0.271 -0 0.822 0.569 0.865 -0.446 -0.231 0.868 -0.44 -0.232 -0.869 -0.405 -0.285 -0 0.811 0.585 0.868 -0.432 -0.245 -0.866 -0.402 -0.297 -0.001 0.807 0.591 0.865 -0.43 -0.257 0.007 0.853 -0.522 -0.812 -0.26 0.522 -0.811 -0.258 0.525 0 0.843 -0.538 0.821 -0.57 0.037 0.814 -0.58 0.038 -0.809 -0.246 0.534 -0.004 0.826 -0.564 0.808 -0.587 0.037 -0.87 -0.493 0.025 -0.199 0.382 -0.902 0.477 -0.785 -0.395 -0.355 -0.538 -0.764 -0.005 0.509 0.861 -0.832 -0.056 -0.552 -0.833 -0.034 -0.553 -0.002 0.499 0.867 0.817 -0.507 -0.276 0.823 -0.495 -0.279 -0.827 -0.001 -0.563 -0.001 0.476 0.88 0.826 -0.479 -0.297 -0.506 0.476 -0.719 0.174 0.852 0.494 0.86 0.072 -0.504 0.317 0.841 -0.438</float_array><technique_common><accessor source="#BUSH_3-nrm-a" count="609" stride="3"><param name="X" type="float"/><param name="Y" type="float"/><param name="Z" type="float"/></accessor></technique_common></source>
        <vertices id="BUSH_3-vtx"><input semantic="POSITION" source="#BUSH_3-pos"/></vertices>
        <triangles count="560" material="MAT_BUSH_2-mat"><input semantic="VERTEX" source="#BUSH_3-vtx" offset="0"/><input semantic="NORMAL" source="#BUSH_3-nrm" offset="1"/><p>0 0 1 1 2 2 1 1 0 0 3 3 0 0 2 2 4 4 0 0 4 4 5 5 0 0 5 5 3 3 1 1 3 3 6 6 2 2 1 1 7 7 4 4 2 2 8 8 5 5 4 4 9 9 3 3 5 5 10 10 1 1 6 6 7 7 2 2 7 7 8 8 4 4 8 8 9 9 5 5 9 9 10 10 3 3 10 10 6 6 7 7 6 6 11 11 8 8 7 7 11 11 9 9 8 8 11 11 10 10 9 9 11 11 6 6 10 10 11 11 12 12 13 13 14 14 13 13 12 12 15 15 12 12 14 14 16 16 12 12 16 16 17 17 12 12 17 17 15 15 13 13 15 15 18 18 14 14 13 13 19 19 16 16 14 14 20 20 17 17 16 16 21 21 15 15 17 17 22 22 13 13 18 18 19 19 14 14 19 19 20 20 16 16 20 20 21 21 17 17 21 21 22 22 15 15 22 22 18 18 19 19 18 18 23 23 20 20 19 19 23 23 21 21 20 20 23 23 22 22 21 21 23 23 18 18 22 22 23 23 24 24 25 25 26 26 25 25 24 24 27 27 24 24 26 26 28 28 24 24 28 28 29 29 24 24 29 29 27 27 25 25 27 27 30 30 26 26 25 25 31 31 28 28 26 26 32 32 29 29 28 28 33 33 27 27 29 29 34 34 25 25 30 30 31 31 26 26 31 31 32 32 28 28 32 32 33 33 29 29 33 33 34 34 27 27 34 34 30 30 31 31 30 30 35 35 32 32 31 31 35 35 33 33 32 32 35 35 34 34 33 33 35 35 30 30 34 34 35 35 36 36 37 37 38 38 37 37 36 36 39 39 36 36 38 38 40 40 36 36 40 40 41 41 36 36 41 41 39 39 37 37 39 39 42 42 38 38 37 37 43 43 40 40 38 38 44 44 41 41 40 40 45 45 39 39 41 41 46 46 37 37 42 42 43 43 38 38 43 43 44 44 40 40 44 44 45 45 41 41 45 45 46 46 39 39 46 46 42 42 43 43 42 42 47 47 44 44 43 43 47 47 45 45 44 44 47 47 46 46 45 45 47 47 42 42 46 46 47 47 48 48 49 49 50 50 49 49 48 48 51 51 48 48 50 50 52 52 48 48 52 52 53 53 48 48 53 53 51 51 49 49 51 51 54 54 50 50 49 49 55 55 52 52 50 50 56 56 53 53 52 52 57 57 51 51 53 53 58 58 49 49 54 54 55 55 50 50 55 55 56 56 52 52 56 56 57 57 53 53 57 57 58 58 51 51 58 58 54 54 55 55 54 54 59 59 56 56 55 55 59 59 57 57 56 56 59 59 58 58 57 57 59 59 54 54 58 58 59 59 60 60 61 61 62 62 61 61 60 60 63 63 60 60 62 62 64 64 60 60 64 64 65 65 60 60 65 65 63 63 61 61 63 63 66 66 62 62 61 61 67 67 64 64 62 62 68 68 65 65 64 64 69 69 63 63 65 65 70 70 61 61 66 66 67 67 62 62 67 67 68 68 64 64 68 68 69 69 65 65 69 69 70 70 63 63 70 70 66 66 67 67 66 66 71 71 68 68 67 67 71 71 69 69 68 68 71 71 70 70 69 69 71 71 66 66 70 70 71 71 72 72 73 73 74 74 73 73 72 72 75 75 72 72 74 74 76 76 72 72 76 76 77 77 72 72 77 77 75 75 73 73 75 75 78 78 74 74 73 73 79 79 76 76 74 74 80 80 77 77 76 76 81 81 75 75 77 77 82 82 73 73 78 78 79 79 74 74 79 79 80 80 76 76 80 80 81 81 77 77 81 81 82 82 75 75 82 82 78 78 79 79 78 78 83 83 80 80 79 79 83 83 81 81 80 80 83 83 82 82 81 81 83 83 78 78 82 82 83 83 84 84 85 85 86 86 85 85 84 84 87 87 84 84 86 86 88 88 84 84 88 88 89 89 84 84 89 89 87 87 85 85 87 87 90 90 86 86 85 85 91 91 88 88 86 86 92 92 89 89 88 88 93 93 87 87 89 89 94 94 85 85 90 90 91 91 86 86 91 91 92 92 88 88 92 92 93 93 89 89 93 93 94 94 87 87 94 94 90 90 91 91 90 90 95 95 92 92 91 91 95 95 93 93 92 92 95 95 94 94 93 93 95 95 90 90 94 94 95 95 96 96 97 97 98 98 97 97 96 96 99 99 96 96 98 98 100 100 96 96 100 100 101 101 96 96 101 101 99 99 97 97 99 99 102 102 98 98 97 97 103 103 100 100 98 98 104 104 101 101 100 100 105 105 99 99 101 101 106 106 97 97 102 102 103 103 98 98 103 103 104 104 100 100 104 104 105 105 101 101 105 105 106 106 99 99 106 106 102 102 103 103 102 102 107 107 104 104 103 103 107 107 105 105 104 104 107 107 106 106 105 105 107 107 102 102 106 106 107 107 108 108 109 109 110 110 109 109 108 108 111 111 108 108 110 110 112 112 108 108 112 112 113 113 108 108 113 113 111 111 109 109 111 111 114 114 110 110 109 109 115 115 112 112 110 110 116 116 113 113 112 112 117 117 111 111 113 113 118 118 109 109 114 114 115 115 110 110 115 115 116 116 112 112 116 116 117 117 113 113 117 117 118 118 111 111 118 118 114 114 115 115 114 114 119 119 116 116 115 115 119 119 117 117 116 116 119 119 118 118 117 117 119 119 114 114 118 118 119 119 120 120 121 121 122 122 121 121 120 120 123 123 120 120 122 122 124 124 120 120 124 124 125 125 120 120 125 125 123 123 121 121 123 123 126 126 122 122 121 121 127 127 124 124 122 122 128 128 125 125 124 124 129 129 123 123 125 125 130 130 121 121 126 126 127 127 122 122 127 127 128 128 124 124 128 128 129 129 125 125 129 129 130 130 123 123 130 130 126 126 127 127 126 126 131 131 128 128 127 127 131 131 129 129 128 128 131 131 130 130 129 129 131 131 126 126 130 130 131 131 132 132 133 133 134 134 133 133 132 132 135 135 132 132 134 134 136 136 132 132 136 136 137 137 132 132 137 137 135 135 133 133 135 135 138 138 134 134 133 133 139 139 136 136 134 134 140 140 137 137 136 136 141 141 135 135 137 137 142 142 133 133 138 138 139 139 134 134 139 139 140 140 136 136 140 140 141 141 137 137 141 141 142 142 135 135 142 142 138 138 139 139 138 138 143 143 140 140 139 139 143 143 141 141 140 140 143 143 142 142 141 141 143 143 138 138 142 142 143 143 144 144 145 145 146 146 145 145 144 144 147 147 144 144 146 146 148 148 144 144 148 148 149 149 144 144 149 149 147 147 145 145 147 147 150 150 146 146 145 145 151 151 148 148 146 146 152 152 149 149 148 148 153 153 147 147 149 149 154 154 145 145 150 150 151 151 146 146 151 151 152 152 148 148 152 152 153 153 149 149 153 153 154 154 147 147 154 154 150 150 151 151 150 150 155 155 152 152 151 151 155 155 153 153 152 152 155 155 154 154 153 153 155 155 150 150 154 154 155 155 156 156 157 157 158 158 157 157 156 156 159 159 156 156 158 158 160 160 156 156 160 160 161 161 156 156 161 161 159 159 157 157 159 159 162 162 158 158 157 157 163 163 160 160 158 158 164 164 161 161 160 160 165 165 159 159 161 161 166 166 157 157 162 162 163 163 158 158 163 163 164 164 160 160 164 164 165 165 161 161 165 165 166 166 159 159 166 166 162 162 163 163 162 162 167 167 164 164 163 163 167 167 165 165 164 164 167 167 166 166 165 165 167 167 162 162 166 166 167 167 168 168 169 169 170 170 169 169 168 168 171 171 168 168 170 170 172 172 168 168 172 172 173 173 168 168 173 173 171 171 169 169 171 171 174 174 170 170 169 169 175 175 172 172 170 170 176 176 173 173 172 172 177 177 171 171 173 173 178 178 169 169 174 174 175 175 170 170 175 175 176 176 172 172 176 176 177 177 173 173 177 177 178 178 171 171 178 178 174 174 175 175 174 174 179 179 176 176 175 175 179 179 177 177 176 176 179 179 178 178 177 177 179 179 174 174 178 178 179 179 180 180 181 181 182 182 181 181 180 180 183 183 180 180 182 182 184 184 180 180 184 184 185 185 180 180 185 185 183 183 181 181 183 183 186 186 182 182 181 181 187 187 184 184 182 182 188 188 185 185 184 184 189 189 183 183 185 185 190 190 181 181 186 186 187 187 182 182 187 187 188 188 184 184 188 188 189 189 185 185 189 189 190 190 183 183 190 190 186 186 187 187 186 186 191 191 188 188 187 187 191 191 189 189 188 188 191 191 190 190 189 189 191 191 186 186 190 190 191 191 192 192 193 193 194 194 193 193 192 192 195 195 192 192 194 194 196 196 192 192 196 196 197 197 192 192 197 197 195 195 193 193 195 195 198 198 194 194 193 193 199 199 196 196 194 194 200 200 197 197 196 196 201 201 195 195 197 197 202 202 193 193 198 198 199 199 194 194 199 199 200 200 196 196 200 200 201 201 197 197 201 201 202 202 195 195 202 202 198 198 199 199 198 198 203 203 200 200 199 199 203 203 201 201 200 200 203 203 202 202 201 201 203 203 198 198 202 202 203 203 204 204 205 205 206 206 205 205 204 204 207 207 204 204 206 206 208 208 204 204 208 208 209 209 204 204 209 209 207 207 205 205 207 207 210 210 206 206 205 205 211 211 208 208 206 206 212 212 209 209 208 208 213 213 207 207 209 209 214 214 205 205 210 210 211 211 206 206 211 211 212 212 208 208 212 212 213 213 209 209 213 213 214 214 207 207 214 214 210 210 211 211 210 210 215 215 212 212 211 211 215 215 213 213 212 212 215 215 214 214 213 213 215 215 210 210 214 214 215 215 216 216 217 217 218 218 217 217 216 216 219 219 216 216 218 218 220 220 216 216 220 220 221 221 216 216 221 221 219 219 217 217 219 219 222 222 218 218 217 217 223 223 220 220 218 218 224 224 221 221 220 220 225 225 219 219 221 221 226 226 217 217 222 222 223 223 218 218 223 223 224 224 220 220 224 224 225 225 221 221 225 225 226 226 219 219 226 226 222 222 223 223 222 222 227 227 224 224 223 223 227 227 225 225 224 224 227 227 226 226 225 225 227 227 222 222 226 226 227 227 228 228 229 229 230 230 229 229 228 228 231 231 228 228 230 230 232 232 228 228 232 232 233 233 228 228 233 233 231 231 229 229 231 231 234 234 230 230 229 229 235 235 232 232 230 230 236 236 233 233 232 232 237 237 231 231 233 233 238 238 229 229 234 234 235 235 230 230 235 235 236 236 232 232 236 236 237 237 233 233 237 237 238 238 231 231 238 238 234 234 235 235 234 234 239 239 236 236 235 235 239 239 237 237 236 236 239 239 238 238 237 237 239 239 234 234 238 238 239 239 240 240 241 241 242 242 241 241 240 240 243 243 240 240 242 242 244 244 240 240 244 244 245 245 240 240 245 245 243 243 241 241 243 243 246 246 242 242 241 241 247 247 244 244 242 242 248 248 245 245 244 244 249 249 243 243 245 245 250 250 241 241 246 246 247 247 242 242 247 247 248 248 244 244 248 248 249 249 245 245 249 249 250 250 243 243 250 250 246 246 247 247 246 246 251 251 248 248 247 247 251 251 249 249 248 248 251 251 250 250 249 249 251 251 246 246 250 250 251 251 252 252 253 253 254 254 253 253 252 252 255 255 252 252 254 254 256 256 252 252 256 256 257 257 252 252 257 257 255 255 253 253 255 255 258 258 254 254 253 253 259 259 256 256 254 254 260 260 257 257 256 256 261 261 255 255 257 257 262 262 253 253 258 258 259 259 254 254 259 259 260 260 256 256 260 260 261 261 257 257 261 261 262 262 255 255 262 262 258 258 259 259 258 258 263 263 260 260 259 259 263 263 261 261 260 260 263 263 262 262 261 261 263 263 258 258 262 262 263 263 264 264 265 265 266 266 265 265 264 264 267 267 264 264 266 266 268 268 264 264 268 268 269 269 264 264 269 269 267 267 265 265 267 267 270 270 266 266 265 265 271 271 268 268 266 266 272 272 269 269 268 268 273 273 267 267 269 269 274 274 265 265 270 270 271 271 266 266 271 271 272 272 268 268 272 272 273 273 269 269 273 273 274 274 267 267 274 274 270 270 271 271 270 270 275 275 272 272 271 271 275 275 273 273 272 272 275 275 274 274 273 273 275 275 270 270 274 274 275 275 276 276 277 277 278 278 277 277 276 276 279 279 276 276 278 278 280 280 276 276 280 280 281 281 276 276 281 281 279 279 277 277 279 279 282 282 278 278 277 277 283 283 280 280 278 278 284 284 281 281 280 280 285 285 279 279 281 281 286 286 277 277 282 282 283 283 278 278 283 283 284 284 280 280 284 284 285 285 281 281 285 285 286 286 279 279 286 286 282 282 283 283 282 282 287 287 284 284 283 283 287 287 285 285 284 284 287 287 286 286 285 285 287 287 282 282 286 286 287 287 288 288 289 289 290 290 289 289 288 288 291 291 288 288 290 290 292 292 288 288 292 292 293 293 288 288 293 293 291 291 289 289 291 291 294 294 290 290 289 289 295 295 292 292 290 290 296 296 293 293 292 292 297 297 291 291 293 293 298 298 289 289 294 294 295 295 290 290 295 295 296 296 292 292 296 296 297 297 293 293 297 297 298 298 291 291 298 298 294 294 295 295 294 294 299 299 296 296 295 295 299 299 297 297 296 296 299 299 298 298 297 297 299 299 294 294 298 298 299 299 300 300 301 301 302 302 301 301 300 300 303 303 300 300 302 302 304 304 300 300 304 304 305 305 300 300 305 305 303 303 301 301 303 303 306 306 302 302 301 301 307 307 304 304 302 302 308 308 305 305 304 304 309 309 303 303 305 305 310 310 301 301 306 306 307 307 302 302 307 307 308 308 304 304 308 308 309 309 305 305 309 309 310 310 303 303 310 310 306 306 307 307 306 306 311 311 308 308 307 307 311 311 309 309 308 308 311 311 310 310 309 309 311 311 306 306 310 310 311 311 312 312 313 313 314 314 313 313 312 312 315 315 312 312 314 314 316 316 312 312 316 316 317 317 312 312 317 317 315 315 313 313 315 315 318 318 314 314 313 313 319 319 316 316 314 314 320 320 317 317 316 316 321 321 315 315 317 317 322 322 313 313 318 318 319 319 314 314 319 319 320 320 316 316 320 320 321 321 317 317 321 321 322 322 315 315 322 322 318 318 319 319 318 318 323 323 320 320 319 319 323 323 321 321 320 320 323 323 322 322 321 321 323 323 318 318 322 322 323 323 324 324 325 325 326 326 325 325 324 324 327 327 324 324 326 326 328 328 324 324 328 328 329 329 324 324 329 329 327 327 325 325 327 327 330 330 326 326 325 325 331 331 328 328 326 326 332 332 329 329 328 328 333 333 327 327 329 329 334 334 325 325 330 330 331 331 326 326 331 331 332 332 328 328 332 332 333 333 329 329 333 333 334 334 327 327 334 334 330 330 331 331 330 330 335 335 332 332 331 331 335 335 333 333 332 332 335 335 334 334 333 333 335 335 330 330 334 334 335 335</p></triangles>
        <triangles count="432" material="MAT_BUSH_STEM-mat"><input semantic="VERTEX" source="#BUSH_3-vtx" offset="0"/><input semantic="NORMAL" source="#BUSH_3-nrm" offset="1"/><p>336 336 337 337 338 338 336 336 338 338 339 339 337 337 340 340 341 341 337 337 341 341 338 338 340 340 336 336 339 339 340 340 339 339 341 341 339 339 338 338 342 342 339 339 342 342 343 343 338 338 341 341 344 344 338 338 344 344 342 342 341 341 339 339 343 343 341 341 343 343 344 344 343 343 342 342 345 345 343 343 345 345 346 346 342 342 344 344 347 347 342 342 347 347 345 345 344 344 343 343 346 346 344 344 346 346 347 347 346 346 345 345 348 348 346 346 348 348 349 349 345 345 347 347 350 350 345 345 350 350 348 348 347 347 346 346 349 349 347 347 349 349 350 350 351 351 352 352 353 353 351 351 353 353 354 354 352 352 355 355 356 356 352 352 356 356 353 353 355 355 351 351 354 354 355 355 354 354 356 356 354 354 353 353 357 357 354 354 357 357 358 358 353 353 356 356 359 359 353 353 359 359 357 357 356 356 354 354 358 358 356 356 358 358 359 359 358 358 357 357 360 360 358 358 360 360 361 361 357 357 359 359 362 362 357 357 362 362 360 360 359 359 358 358 361 361 359 359 361 361 362 362 363 363 364 364 365 365 363 363 365 365 366 366 364 364 367 367 368 368 364 364 368 368 365 365 367 367 363 363 366 366 367 367 366 366 368 368 366 366 365 365 369 369 366 366 369 369 370 370 365 365 368 368 371 371 365 365 371 371 369 369 368 368 366 366 370 370 368 368 370 370 371 371 370 370 369 369 372 372 370 370 372 372 373 373 369 369 371 371 374 374 369 369 374 374 372 372 371 371 370 370 373 373 371 371 373 373 374 374 372 372 373 373 375 375 374 374 372 372 375 375 373 373 374 374 375 375 376 376 377 377 378 378 376 376 378 378 379 379 377 377 380 380 381 381 377 377 381 381 378 378 380 380 376 376 379 379 380 380 379 379 381 381 379 379 378 378 382 382 379 379 382 382 383 383 378 378 381 381 384 384 378 378 384 384 382 382 381 381 379 379 383 383 381 381 383 383 384 384 383 383 382 382 385 385 383 383 385 385 386 386 382 382 384 384 387 387 382 382 387 387 385 385 384 384 383 383 386 386 384 384 386 386 387 387 385 385 386 386 388 388 387 387 385 385 388 388 386 386 387 387 388 388 389 389 390 390 391 391 389 389 391 391 392 392 390 390 393 393 394 394 390 390 394 394 391 391 393 393 389 389 392 392 393 393 392 392 394 394 392 392 391 391 395 395 392 392 395 395 396 396 391 391 394 394 397 397 391 391 397 397 395 395 394 394 392 392 396 396 394 394 396 396 397 397 396 396 395 395 398 398 396 396 398 398 399 399 395 395 397 397 400 400 395 395 400 400 398 398 397 397 396 396 399 399 397 397 399 399 400 400 401 401 402 402 403 403 401 401 403 403 404 404 402 402 405 405 406 406 402 402 406 406 403 403 405 405 401 401 404 404 405 405 404 404 406 406 404 404 403 403 407 407 404 404 407 407 408 408 403 403 406 406 409 409 403 403 409 409 407 407 406 406 404 404 408 408 406 406 408 408 409 409 408 408 407 407 410 410 408 408 410 410 411 411 407 407 409 409 412 412 407 407 412 412 410 410 409 409 408 408 411 411 409 409 411 411 412 412 410 410 411 411 413 413 412 412 410 410 413 413 411 411 412 412 413 413 414 414 415 415 416 416 414 414 416 416 417 417 415 415 418 418 419 419 415 415 419 419 416 416 418 418 414 414 417 417 418 418 417 417 419 419 417 417 416 416 420 420 417 417 420 420 421 421 416 416 419 419 422 422 416 416 422 422 420 420 419 419 417 417 421 421 419 419 421 421 422 422 421 421 420 420 423 423 421 421 423 423 424 424 420 420 422 422 425 425 420 420 425 425 423 423 422 422 421 421 424 424 422 422 424 424 425 425 423 423 424 424 426 426 425 425 423 423 426 426 424 424 425 425 426 426 427 427 428 428 429 429 427 427 429 429 430 430 428 428 431 431 432 432 428 428 432 432 429 429 431 431 427 427 430 430 431 431 430 430 432 432 430 430 429 429 433 433 430 430 433 433 434 434 429 429 432 432 435 435 429 429 435 435 433 433 432 432 430 430 434 434 432 432 434 434 435 435 434 434 433 433 436 436 434 434 436 436 437 437 433 433 435 435 438 438 433 433 438 438 436 436 435 435 434 434 437 437 435 435 437 437 438 438 437 437 436 436 439 439 437 437 439 439 440 440 436 436 438 438 441 441 436 436 441 441 439 439 438 438 437 437 440 440 438 438 440 440 441 441 442 442 443 443 444 444 442 442 444 444 445 445 443 443 446 446 447 447 443 443 447 447 444 444 446 446 442 442 445 445 446 446 445 445 447 447 445 445 444 444 448 448 445 445 448 448 449 449 444 444 447 447 450 450 444 444 450 450 448 448 447 447 445 445 449 449 447 447 449 449 450 450 449 449 448 448 451 451 449 449 451 451 452 452 448 448 450 450 453 453 448 448 453 453 451 451 450 450 449 449 452 452 450 450 452 452 453 453 454 454 455 455 456 456 454 454 456 456 457 457 455 455 458 458 459 459 455 455 459 459 456 456 458 458 454 454 457 457 458 458 457 457 459 459 457 457 456 456 460 460 457 457 460 460 461 461 456 456 459 459 462 462 456 456 462 462 460 460 459 459 457 457 461 461 459 459 461 461 462 462 461 461 460 460 463 463 461 461 463 463 464 464 460 460 462 462 465 465 460 460 465 465 463 463 462 462 461 461 464 464 462 462 464 464 465 465 463 463 464 464 466 466 465 465 463 463 466 466 464 464 465 465 466 466 467 467 468 468 469 469 467 467 469 469 470 470 468 468 471 471 472 472 468 468 472 472 469 469 471 471 467 467 470 470 471 471 470 470 472 472 470 470 469 469 473 473 470 470 473 473 474 474 469 469 472 472 475 475 469 469 475 475 473 473 472 472 470 470 474 474 472 472 474 474 475 475 474 474 473 473 476 476 474 474 476 476 477 477 473 473 475 475 478 478 473 473 478 478 476 476 475 475 474 474 477 477 475 475 477 477 478 478 476 476 477 477 479 479 478 478 476 476 479 479 477 477 478 478 479 479 480 480 481 481 482 482 480 480 482 482 483 483 481 481 484 484 485 485 481 481 485 485 482 482 484 484 480 480 483 483 484 484 483 483 485 485 483 483 482 482 486 486 483 483 486 486 487 487 482 482 485 485 488 488 482 482 488 488 486 486 485 485 483 483 487 487 485 485 487 487 488 488 487 487 486 486 489 489 487 487 489 489 490 490 486 486 488 488 491 491 486 486 491 491 489 489 488 488 487 487 490 490 488 488 490 490 491 491 492 492 493 493 494 494 492 492 494 494 495 495 493 493 496 496 497 497 493 493 497 497 494 494 496 496 492 492 495 495 496 496 495 495 497 497 495 495 494 494 498 498 495 495 498 498 499 499 494 494 497 497 500 500 494 494 500 500 498 498 497 497 495 495 499 499 497 497 499 499 500 500 499 499 498 498 501 501 499 499 501 501 502 502 498 498 500 500 503 503 498 498 503 503 501 501 500 500 499 499 502 502 500 500 502 502 503 503 501 501 502 502 504 504 503 503 501 501 504 504 502 502 503 503 504 504 505 505 506 506 507 507 505 505 507 507 508 508 506 506 509 509 510 510 506 506 510 510 507 507 509 509 505 505 508 508 509 509 508 508 510 510 508 508 507 507 511 511 508 508 511 511 512 512 507 507 510 510 513 513 507 507 513 513 511 511 510 510 508 508 512 512 510 510 512 512 513 513 512 512 511 511 514 514 512 512 514 514 515 515 511 511 513 513 516 516 511 511 516 516 514 514 513 513 512 512 515 515 513 513 515 515 516 516 514 514 515 515 517 517 516 516 514 514 517 517 515 515 516 516 517 517 518 518 519 519 520 520 518 518 520 520 521 521 519 519 522 522 523 523 519 519 523 523 520 520 522 522 518 518 521 521 522 522 521 521 523 523 521 521 520 520 524 524 521 521 524 524 525 525 520 520 523 523 526 526 520 520 526 526 524 524 523 523 521 521 525 525 523 523 525 525 526 526 525 525 524 524 527 527 525 525 527 527 528 528 524 524 526 526 529 529 524 524 529 529 527 527 526 526 525 525 528 528 526 526 528 528 529 529 528 528 527 527 530 530 528 528 530 530 531 531 527 527 529 529 532 532 527 527 532 532 530 530 529 529 528 528 531 531 529 529 531 531 532 532 533 533 534 534 535 535 533 533 535 535 536 536 534 534 537 537 538 538 534 534 538 538 535 535 537 537 533 533 536 536 537 537 536 536 538 538 536 536 535 535 539 539 536 536 539 539 540 540 535 535 538 538 541 541 535 535 541 541 539 539 538 538 536 536 540 540 538 538 540 540 541 541 540 540 539 539 542 542 540 540 542 542 543 543 539 539 541 541 544 544 539 539 544 544 542 542 541 541 540 540 543 543 541 541 543 543 544 544 545 545 546 546 547 547 545 545 547 547 548 548 546 546 549 549 550 550 546 546 550 550 547 547 549 549 545 545 548 548 549 549 548 548 550 550 548 548 547 547 551 551 548 548 551 551 552 552 547 547 550 550 553 553 547 547 553 553 551 551 550 550 548 548 552 552 550 550 552 552 553 553 552 552 551 551 554 554 552 552 554 554 555 555 551 551 553 553 556 556 551 551 556 556 554 554 553 553 552 552 555 555 553 553 555 555 556 556 554 554 555 555 557 557 556 556 554 554 557 557 555 555 556 556 557 557 558 558 559 559 560 560 558 558 560 560 561 561 559 559 562 562 563 563 559 559 563 563 560 560 562 562 558 558 561 561 562 562 561 561 563 563 561 561 560 560 564 564 561 561 564 564 565 565 560 560 563 563 566 566 560 560 566 566 564 564 563 563 561 561 565 565 563 563 565 565 566 566 565 565 564 564 567 567 565 565 567 567 568 568 564 564 566 566 569 569 564 564 569 569 567 567 566 566 565 565 568 568 566 566 568 568 569 569 567 567 568 568 570 570 569 569 567 567 570 570 568 568 569 569 570 570 571 571 572 572 573 573 571 571 573 573 574 574 572 572 575 575 576 576 572 572 576 576 573 573 575 575 571 571 574 574 575 575 574 574 576 576 574 574 573 573 577 577 574 574 577 577 578 578 573 573 576 576 579 579 573 573 579 579 577 577 576 576 574 574 578 578 576 576 578 578 579 579 578 578 577 577 580 580 578 578 580 580 581 581 577 577 579 579 582 582 577 577 582 582 580 580 579 579 578 578 581 581 579 579 581 581 582 582 583 583 584 584 585 585 583 583 585 585 586 586 584 584 587 587 588 588 584 584 588 588 585 585 587 587 583 583 586 586 587 587 586 586 588 588 586 586 585 585 589 589 586 586 589 589 590 590 585 585 588 588 591 591 585 585 591 591 589 589 588 588 586 586 590 590 588 588 590 590 591 591 590 590 589 589 592 592 590 590 592 592 593 593 589 589 591 591 594 594 589 589 594 594 592 592 591 591 590 590 593 593 591 591 593 593 594 594 592 592 593 593 595 595 594 594 592 592 595 595 593 593 594 594 595 595 596 596 597 597 598 598 596 596 598 598 599 599 597 597 600 600 601 601 597 597 601 601 598 598 600 600 596 596 599 599 600 600 599 599 601 601 599 599 598 598 602 602 599 599 602 602 603 603 598 598 601 601 604 604 598 598 604 604 602 602 601 601 599 599 603 603 601 601 603 603 604 604 603 603 602 602 605 605 603 603 605 605 606 606 602 602 604 604 607 607 602 602 607 607 605 605 604 604 603 603 606 606 604 604 606 606 607 607 605 605 606 606 608 608 607 607 605 605 608 608 606 606 607 607 608 608</p></triangles>
      </mesh>
    </geometry>
  </library_geometries>
  <library_visual_scenes><visual_scene id="scene" name="scene">
    <node id="BUSH_3" name="BUSH_3" type="NODE"><instance_geometry url="#BUSH_3-mesh"><bind_material><technique_common>
      <instance_material symbol="MAT_BUSH_2-mat" target="#MAT_BUSH_2"/>
      <instance_material symbol="MAT_BUSH_STEM-mat" target="#MAT_BUSH_STEM"/>
    </technique_common></bind_material></instance_geometry></node>
  </visual_scene></library_visual_scenes>
  <scene><instance_visual_scene url="#scene"/></scene>
</COLLADA>
