<?xml version="1.0" encoding="utf-8"?>
<COLLADA xmlns="http://www.collada.org/2005/11/COLLADASchema" version="1.4.1">
  <asset>
    <contributor><authoring_tool>VIGIL SIH26126 farm generator</authoring_tool></contributor>
    <unit name="meter" meter="1"/>
    <up_axis>Z_UP</up_axis>
  </asset>
  <library_effects>
    <effect id="MAT_METAL-fx"><profile_COMMON><technique sid="c"><lambert><diffuse><color>0.1180 0.1210 0.1260 1</color></diffuse></lambert></technique></profile_COMMON></effect>
    <effect id="MAT_RUST-fx"><profile_COMMON><technique sid="c"><lambert><diffuse><color>0.1060 0.0430 0.0180 1</color></diffuse></lambert></technique></profile_COMMON></effect>
    <effect id="MAT_PAINT-fx"><profile_COMMON><technique sid="c"><lambert><diffuse><color>0.2860 0.0480 0.0220 1</color></diffuse></lambert></technique></profile_COMMON></effect>
    <effect id="MAT_TYRE-fx"><profile_COMMON><technique sid="c"><lambert><diffuse><color>0.0140 0.0140 0.0150 1</color></diffuse></lambert></technique></profile_COMMON></effect>
    <effect id="MAT_WOOD-fx"><profile_COMMON><technique sid="c"><lambert><diffuse><color>0.0890 0.0550 0.0280 1</color></diffuse></lambert></technique></profile_COMMON></effect>
    <effect id="MAT_PLASTER-fx"><profile_COMMON><technique sid="c"><lambert><diffuse><color>0.1760 0.1520 0.1210 1</color></diffuse></lambert></technique></profile_COMMON></effect>
    <effect id="MAT_ROOF-fx"><profile_COMMON><technique sid="c"><lambert><diffuse><color>0.1550 0.1520 0.1460 1</color></diffuse></lambert></technique></profile_COMMON></effect>
    <effect id="MAT_PIPE-fx"><profile_COMMON><technique sid="c"><lambert><diffuse><color>0.0450 0.0980 0.1800 1</color></diffuse></lambert></technique></profile_COMMON></effect>
    <effect id="MAT_SEAT-fx"><profile_COMMON><technique sid="c"><lambert><diffuse><color>0.0300 0.0300 0.0340 1</color></diffuse></lambert></technique></profile_COMMON></effect>
  </library_effects>
  <library_materials>
    <material id="MAT_METAL" name="MAT_METAL"><instance_effect url="#MAT_METAL-fx"/></material>
    <material id="MAT_RUST" name="MAT_RUST"><instance_effect url="#MAT_RUST-fx"/></material>
    <material id="MAT_PAINT" name="MAT_PAINT"><instance_effect url="#MAT_PAINT-fx"/></material>
    <material id="MAT_TYRE" name="MAT_TYRE"><instance_effect url="#MAT_TYRE-fx"/></material>
    <material id="MAT_WOOD" name="MAT_WOOD"><instance_effect url="#MAT_WOOD-fx"/></material>
    <material id="MAT_PLASTER" name="MAT_PLASTER"><instance_effect url="#MAT_PLASTER-fx"/></material>
    <material id="MAT_ROOF" name="MAT_ROOF"><instance_effect url="#MAT_ROOF-fx"/></material>
    <material id="MAT_PIPE" name="MAT_PIPE"><instance_effect url="#MAT_PIPE-fx"/></material>
    <material id="MAT_SEAT" name="MAT_SEAT"><instance_effect url="#MAT_SEAT-fx"/></material>
  </library_materials>
  <library_geometries>
    <geometry id="PIPE_STACK-mesh" name="PIPE_STACK">
      <mesh>
        <source id="PIPE_STACK-pos"><float_array id="PIPE_STACK-pos-a" count="648">-1.4491 -0.222 0.062 -1.4491 -0.23899 0.10301 1.3862 -0.23899 0.10301 1.3862 -0.222 0.062 -1.4491 -0.28 0.12 1.3862 -0.28 0.12 -1.4491 -0.32101 0.10301 1.3862 -0.32101 0.10301 -1.4491 -0.338 0.062 1.3862 -0.338 0.062 -1.4491 -0.32101 0.020988 1.3862 -0.32101 0.020988 -1.4491 -0.28 0.004 1.3862 -0.28 0.004 -1.4491 -0.23899 0.020988 1.3862 -0.23899 0.020988 -1.4491 -0.28 0.062 1.3862 -0.28 0.062 -1.4572 -0.082 0.062 -1.4572 -0.098988 0.10301 1.426 -0.098988 0.10301 1.426 -0.082 0.062 -1.4572 -0.14 0.12 1.426 -0.14 0.12 -1.4572 -0.18101 0.10301 1.426 -0.18101 0.10301 -1.4572 -0.198 0.062 1.426 -0.198 0.062 -1.4572 -0.18101 0.020988 1.426 -0.18101 0.020988 -1.4572 -0.14 0.004 1.426 -0.14 0.004 -1.4572 -0.098988 0.020988 1.426 -0.098988 0.020988 -1.4572 -0.14 0.062 1.426 -0.14 0.062 -1.2111 0.058 0.062 -1.2111 0.041012 0.10301 1.2413 0.041012 0.10301 1.2413 0.058 0.062 -1.2111 3.5515e-18 0.12 1.2413 3.5515e-18 0.12 -1.2111 -0.041012 0.10301 1.2413 -0.041012 0.10301 -1.2111 -0.058 0.062 1.2413 -0.058 0.062 -1.2111 -0.041012 0.020988 1.2413 -0.041012 0.020988 -1.2111 -1.0654e-17 0.004 1.2413 -1.0654e-17 0.004 -1.2111 0.041012 0.020988 1.2413 0.041012 0.020988 -1.2111 0 0.062 1.2413 0 0.062 -1.5934 0.198 0.062 -1.5934 0.18101 0.10301 1.4766 0.18101 0.10301 1.4766 0.198 0.062 -1.5934 0.14 0.12 1.4766 0.14 0.12 -1.5934 0.098988 0.10301 1.4766 0.098988 0.10301 -1.5934 0.082 0.062 1.4766 0.082 0.062 -1.5934 0.098988 0.020988 1.4766 0.098988 0.020988 -1.5934 0.14 0.004 1.4766 0.14 0.004 -1.5934 0.18101 0.020988 1.4766 0.18101 0.020988 -1.5934 0.14 0.062 1.4766 0.14 0.062 -1.3226 0.338 0.062 -1.3226 0.32101 0.10301 1.2649 0.32101 0.10301 1.2649 0.338 0.062 -1.3226 0.28 0.12 1.2649 0.28 0.12 -1.3226 0.23899 0.10301 1.2649 0.23899 0.10301 -1.3226 0.222 0.062 1.2649 0.222 0.062 -1.3226 0.23899 0.020988 1.2649 0.23899 0.020988 -1.3226 0.28 0.004 1.2649 0.28 0.004 -1.3226 0.32101 0.020988 1.2649 0.32101 0.020988 -1.3226 0.28 0.062 1.2649 0.28 0.062 -1.3286 -0.082 0.18 -1.3286 -0.098988 0.22101 1.4476 -0.098988 0.22101 1.4476 -0.082 0.18 -1.3286 -0.14 0.238 1.4476 -0.14 0.238 -1.3286 -0.18101 0.22101 1.4476 -0.18101 0.22101 -1.3286 -0.198 0.18 1.4476 -0.198 0.18 -1.3286 -0.18101 0.13899 1.4476 -0.18101 0.13899 -1.3286 -0.14 0.122 1.4476 -0.14 0.122 -1.3286 -0.098988 0.13899 1.4476 -0.098988 0.13899 -1.3286 -0.14 0.18 1.4476 -0.14 0.18 -1.3502 0.058 0.18 -1.3502 0.041012 0.22101 1.4309 0.041012 0.22101 1.4309 0.058 0.18 -1.3502 3.5515e-18 0.238 1.4309 3.5515e-18 0.238 -1.3502 -0.041012 0.22101 1.4309 -0.041012 0.22101 -1.3502 -0.058 0.18 1.4309 -0.058 0.18 -1.3502 -0.041012 0.13899 1.4309 -0.041012 0.13899 -1.3502 -1.0654e-17 0.122 1.4309 -1.0654e-17 0.122 -1.3502 0.041012 0.13899 1.4309 0.041012 0.13899 -1.3502 0 0.18 1.4309 0 0.18 -1.2436 0.198 0.18 -1.2436 0.18101 0.22101 1.2769 0.18101 0.22101 1.2769 0.198 0.18 -1.2436 0.14 0.238 1.2769 0.14 0.238 -1.2436 0.098988 0.22101 1.2769 0.098988 0.22101 -1.2436 0.082 0.18 1.2769 0.082 0.18 -1.2436 0.098988 0.13899 1.2769 0.098988 0.13899 -1.2436 0.14 0.122 1.2769 0.14 0.122 -1.2436 0.18101 0.13899 1.2769 0.18101 0.13899 -1.2436 0.14 0.18 1.2769 0.14 0.18 -1.531 0.338 0.18 -1.531 0.32101 0.22101 1.5634 0.32101 0.22101 1.5634 0.338 0.18 -1.531 0.28 0.238 1.5634 0.28 0.238 -1.531 0.23899 0.22101 1.5634 0.23899 0.22101 -1.531 0.222 0.18 1.5634 0.222 0.18 -1.531 0.23899 0.13899 1.5634 0.23899 0.13899 -1.531 0.28 0.122 1.5634 0.28 0.122 -1.531 0.32101 0.13899 1.5634 0.32101 0.13899 -1.531 0.28 0.18 1.5634 0.28 0.18 -1.4937 0.058 0.298 -1.4937 0.041012 0.33901 1.4993 0.041012 0.33901 1.4993 0.058 0.298 -1.4937 3.5515e-18 0.356 1.4993 3.5515e-18 0.356 -1.4937 -0.041012 0.33901 1.4993 -0.041012 0.33901 -1.4937 -0.058 0.298 1.4993 -0.058 0.298 -1.4937 -0.041012 0.25699 1.4993 -0.041012 0.25699 -1.4937 -1.0654e-17 0.24 1.4993 -1.0654e-17 0.24 -1.4937 0.041012 0.25699 1.4993 0.041012 0.25699 -1.4937 0 0.298 1.4993 0 0.298 -1.205 0.198 0.298 -1.205 0.18101 0.33901 1.2462 0.18101 0.33901 1.2462 0.198 0.298 -1.205 0.14 0.356 1.2462 0.14 0.356 -1.205 0.098988 0.33901 1.2462 0.098988 0.33901 -1.205 0.082 0.298 1.2462 0.082 0.298 -1.205 0.098988 0.25699 1.2462 0.098988 0.25699 -1.205 0.14 0.24 1.2462 0.14 0.24 -1.205 0.18101 0.25699 1.2462 0.18101 0.25699 -1.205 0.14 0.298 1.2462 0.14 0.298 -1.4055 0.338 0.298 -1.4055 0.32101 0.33901 1.4674 0.32101 0.33901 1.4674 0.338 0.298 -1.4055 0.28 0.356 1.4674 0.28 0.356 -1.4055 0.23899 0.33901 1.4674 0.23899 0.33901 -1.4055 0.222 0.298 1.4674 0.222 0.298 -1.4055 0.23899 0.25699 1.4674 0.23899 0.25699 -1.4055 0.28 0.24 1.4674 0.28 0.24 -1.4055 0.32101 0.25699 1.4674 0.32101 0.25699 -1.4055 0.28 0.298 1.4674 0.28 0.298</float_array><technique_common><accessor source="#PIPE_STACK-pos-a" count="216" stride="3"><param name="X" type="float"/><param name="Y" type="float"/><param name="Z" type="float"/></accessor></technique_common></source>
        <source id="PIPE_STACK-nrm"><float_array id="PIPE_STACK-nrm-a" count="54">-0.63 0.776 -0 -0.63 0.549 0.549 0.63 0.549 0.549 0.63 0.776 -0 -0.63 0 0.776 0.63 0 0.776 -0.63 -0.549 0.549 0.63 -0.549 0.549 -0.63 -0.776 -0 0.63 -0.776 -0 -0.63 -0.549 -0.549 0.63 -0.549 -0.549 -0.63 0 -0.776 0.63 0 -0.776 -0.63 0.549 -0.549 0.63 0.549 -0.549 -1 0 0 1 0 0</float_array><technique_common><accessor source="#PIPE_STACK-nrm-a" count="18" stride="3"><param name="X" type="float"/><param name="Y" type="float"/><param name="Z" type="float"/></accessor></technique_common></source>
        <vertices id="PIPE_STACK-vtx"><input semantic="POSITION" source="#PIPE_STACK-pos"/></vertices>
        <triangles count="384" material="MAT_PIPE-mat"><input semantic="VERTEX" source="#PIPE_STACK-vtx" offset="0"/><input semantic="NORMAL" source="#PIPE_STACK-nrm" offset="1"/><p>0 0 1 1 2 2 0 0 2 2 3 3 1 1 4 4 5 5 1 1 5 5 2 2 4 4 6 6 7 7 4 4 7 7 5 5 6 6 8 8 9 9 6 6 9 9 7 7 8 8 10 10 11 11 8 8 11 11 9 9 10 10 12 12 13 13 10 10 13 13 11 11 12 12 14 14 15 15 12 12 15 15 13 13 14 14 0 0 3 3 14 14 3 3 15 15 1 1 0 0 16 16 3 3 2 2 17 17 4 4 1 1 16 16 2 2 5 5 17 17 6 6 4 4 16 16 5 5 7 7 17 17 8 8 6 6 16 16 7 7 9 9 17 17 10 10 8 8 16 16 9 9 11 11 17 17 12 12 10 10 16 16 11 11 13 13 17 17 14 14 12 12 16 16 13 13 15 15 17 17 0 0 14 14 16 16 15 15 3 3 17 17 18 0 19 1 20 2 18 0 20 2 21 3 19 1 22 4 23 5 19 1 23 5 20 2 22 4 24 6 25 7 22 4 25 7 23 5 24 6 26 8 27 9 24 6 27 9 25 7 26 8 28 10 29 11 26 8 29 11 27 9 28 10 30 12 31 13 28 10 31 13 29 11 30 12 32 14 33 15 30 12 33 15 31 13 32 14 18 0 21 3 32 14 21 3 33 15 19 1 18 0 34 16 21 3 20 2 35 17 22 4 19 1 34 16 20 2 23 5 35 17 24 6 22 4 34 16 23 5 25 7 35 17 26 8 24 6 34 16 25 7 27 9 35 17 28 10 26 8 34 16 27 9 29 11 35 17 30 12 28 10 34 16 29 11 31 13 35 17 32 14 30 12 34 16 31 13 33 15 35 17 18 0 32 14 34 16 33 15 21 3 35 17 36 0 37 1 38 2 36 0 38 2 39 3 37 1 40 4 41 5 37 1 41 5 38 2 40 4 42 6 43 7 40 4 43 7 41 5 42 6 44 8 45 9 42 6 45 9 43 7 44 8 46 10 47 11 44 8 47 11 45 9 46 10 48 12 49 13 46 10 49 13 47 11 48 12 50 14 51 15 48 12 51 15 49 13 50 14 36 0 39 3 50 14 39 3 51 15 37 1 36 0 52 16 39 3 38 2 53 17 40 4 37 1 52 16 38 2 41 5 53 17 42 6 40 4 52 16 41 5 43 7 53 17 44 8 42 6 52 16 43 7 45 9 53 17 46 10 44 8 52 16 45 9 47 11 53 17 48 12 46 10 52 16 47 11 49 13 53 17 50 14 48 12 52 16 49 13 51 15 53 17 36 0 50 14 52 16 51 15 39 3 53 17 54 0 55 1 56 2 54 0 56 2 57 3 55 1 58 4 59 5 55 1 59 5 56 2 58 4 60 6 61 7 58 4 61 7 59 5 60 6 62 8 63 9 60 6 63 9 61 7 62 8 64 10 65 11 62 8 65 11 63 9 64 10 66 12 67 13 64 10 67 13 65 11 66 12 68 14 69 15 66 12 69 15 67 13 68 14 54 0 57 3 68 14 57 3 69 15 55 1 54 0 70 16 57 3 56 2 71 17 58 4 55 1 70 16 56 2 59 5 71 17 60 6 58 4 70 16 59 5 61 7 71 17 62 8 60 6 70 16 61 7 63 9 71 17 64 10 62 8 70 16 63 9 65 11 71 17 66 12 64 10 70 16 65 11 67 13 71 17 68 14 66 12 70 16 67 13 69 15 71 17 54 0 68 14 70 16 69 15 57 3 71 17 72 0 73 1 74 2 72 0 74 2 75 3 73 1 76 4 77 5 73 1 77 5 74 2 76 4 78 6 79 7 76 4 79 7 77 5 78 6 80 8 81 9 78 6 81 9 79 7 80 8 82 10 83 11 80 8 83 11 81 9 82 10 84 12 85 13 82 10 85 13 83 11 84 12 86 14 87 15 84 12 87 15 85 13 86 14 72 0 75 3 86 14 75 3 87 15 73 1 72 0 88 16 75 3 74 2 89 17 76 4 73 1 88 16 74 2 77 5 89 17 78 6 76 4 88 16 77 5 79 7 89 17 80 8 78 6 88 16 79 7 81 9 89 17 82 10 80 8 88 16 81 9 83 11 89 17 84 12 82 10 88 16 83 11 85 13 89 17 86 14 84 12 88 16 85 13 87 15 89 17 72 0 86 14 88 16 87 15 75 3 89 17 90 0 91 1 92 2 90 0 92 2 93 3 91 1 94 4 95 5 91 1 95 5 92 2 94 4 96 6 97 7 94 4 97 7 95 5 96 6 98 8 99 9 96 6 99 9 97 7 98 8 100 10 101 11 98 8 101 11 99 9 100 10 102 12 103 13 100 10 103 13 101 11 102 12 104 14 105 15 102 12 105 15 103 13 104 14 90 0 93 3 104 14 93 3 105 15 91 1 90 0 106 16 93 3 92 2 107 17 94 4 91 1 106 16 92 2 95 5 107 17 96 6 94 4 106 16 95 5 97 7 107 17 98 8 96 6 106 16 97 7 99 9 107 17 100 10 98 8 106 16 99 9 101 11 107 17 102 12 100 10 106 16 101 11 103 13 107 17 104 14 102 12 106 16 103 13 105 15 107 17 90 0 104 14 106 16 105 15 93 3 107 17 108 0 109 1 110 2 108 0 110 2 111 3 109 1 112 4 113 5 109 1 113 5 110 2 112 4 114 6 115 7 112 4 115 7 113 5 114 6 116 8 117 9 114 6 117 9 115 7 116 8 118 10 119 11 116 8 119 11 117 9 118 10 120 12 121 13 118 10 121 13 119 11 120 12 122 14 123 15 120 12 123 15 121 13 122 14 108 0 111 3 122 14 111 3 123 15 109 1 108 0 124 16 111 3 110 2 125 17 112 4 109 1 124 16 110 2 113 5 125 17 114 6 112 4 124 16 113 5 115 7 125 17 116 8 114 6 124 16 115 7 117 9 125 17 118 10 116 8 124 16 117 9 119 11 125 17 120 12 118 10 124 16 119 11 121 13 125 17 122 14 120 12 124 16 121 13 123 15 125 17 108 0 122 14 124 16 123 15 111 3 125 17 126 0 127 1 128 2 126 0 128 2 129 3 127 1 130 4 131 5 127 1 131 5 128 2 130 4 132 6 133 7 130 4 133 7 131 5 132 6 134 8 135 9 132 6 135 9 133 7 134 8 136 10 137 11 134 8 137 11 135 9 136 10 138 12 139 13 136 10 139 13 137 11 138 12 140 14 141 15 138 12 141 15 139 13 140 14 126 0 129 3 140 14 129 3 141 15 127 1 126 0 142 16 129 3 128 2 143 17 130 4 127 1 142 16 128 2 131 5 143 17 132 6 130 4 142 16 131 5 133 7 143 17 134 8 132 6 142 16 133 7 135 9 143 17 136 10 134 8 142 16 135 9 137 11 143 17 138 12 136 10 142 16 137 11 139 13 143 17 140 14 138 12 142 16 139 13 141 15 143 17 126 0 140 14 142 16 141 15 129 3 143 17 144 0 145 1 146 2 144 0 146 2 147 3 145 1 148 4 149 5 145 1 149 5 146 2 148 4 150 6 151 7 148 4 151 7 149 5 150 6 152 8 153 9 150 6 153 9 151 7 152 8 154 10 155 11 152 8 155 11 153 9 154 10 156 12 157 13 154 10 157 13 155 11 156 12 158 14 159 15 156 12 159 15 157 13 158 14 144 0 147 3 158 14 147 3 159 15 145 1 144 0 160 16 147 3 146 2 161 17 148 4 145 1 160 16 146 2 149 5 161 17 150 6 148 4 160 16 149 5 151 7 161 17 152 8 150 6 160 16 151 7 153 9 161 17 154 10 152 8 160 16 153 9 155 11 161 17 156 12 154 10 160 16 155 11 157 13 161 17 158 14 156 12 160 16 157 13 159 15 161 17 144 0 158 14 160 16 159 15 147 3 161 17 162 0 163 1 164 2 162 0 164 2 165 3 163 1 166 4 167 5 163 1 167 5 164 2 166 4 168 6 169 7 166 4 169 7 167 5 168 6 170 8 171 9 168 6 171 9 169 7 170 8 172 10 173 11 170 8 173 11 171 9 172 10 174 12 175 13 172 10 175 13 173 11 174 12 176 14 177 15 174 12 177 15 175 13 176 14 162 0 165 3 176 14 165 3 177 15 163 1 162 0 178 16 165 3 164 2 179 17 166 4 163 1 178 16 164 2 167 5 179 17 168 6 166 4 178 16 167 5 169 7 179 17 170 8 168 6 178 16 169 7 171 9 179 17 172 10 170 8 178 16 171 9 173 11 179 17 174 12 172 10 178 16 173 11 175 13 179 17 176 14 174 12 178 16 175 13 177 15 179 17 162 0 176 14 178 16 177 15 165 3 179 17 180 0 181 1 182 2 180 0 182 2 183 3 181 1 184 4 185 5 181 1 185 5 182 2 184 4 186 6 187 7 184 4 187 7 185 5 186 6 188 8 189 9 186 6 189 9 187 7 188 8 190 10 191 11 188 8 191 11 189 9 190 10 192 12 193 13 190 10 193 13 191 11 192 12 194 14 195 15 192 12 195 15 193 13 194 14 180 0 183 3 194 14 183 3 195 15 181 1 180 0 196 16 183 3 182 2 197 17 184 4 181 1 196 16 182 2 185 5 197 17 186 6 184 4 196 16 185 5 187 7 197 17 188 8 186 6 196 16 187 7 189 9 197 17 190 10 188 8 196 16 189 9 191 11 197 17 192 12 190 10 196 16 191 11 193 13 197 17 194 14 192 12 196 16 193 13 195 15 197 17 180 0 194 14 196 16 195 15 183 3 197 17 198 0 199 1 200 2 198 0 200 2 201 3 199 1 202 4 203 5 199 1 203 5 200 2 202 4 204 6 205 7 202 4 205 7 203 5 204 6 206 8 207 9 204 6 207 9 205 7 206 8 208 10 209 11 206 8 209 11 207 9 208 10 210 12 211 13 208 10 211 13 209 11 210 12 212 14 213 15 210 12 213 15 211 13 212 14 198 0 201 3 212 14 201 3 213 15 199 1 198 0 214 16 201 3 200 2 215 17 202 4 199 1 214 16 200 2 203 5 215 17 204 6 202 4 214 16 203 5 205 7 215 17 206 8 204 6 214 16 205 7 207 9 215 17 208 10 206 8 214 16 207 9 209 11 215 17 210 12 208 10 214 16 209 11 211 13 215 17 212 14 210 12 214 16 211 13 213 15 215 17 198 0 212 14 214 16 213 15 201 3 215 17</p></triangles>
      </mesh>
    </geometry>
  </library_geometries>
  <library_visual_scenes><visual_scene id="scene" name="scene">
    <node id="PIPE_STACK" name="PIPE_STACK" type="NODE"><instance_geometry url="#PIPE_STACK-mesh"><bind_material><technique_common>
      <instance_material symbol="MAT_METAL-mat" target="#MAT_METAL"/>
      <instance_material symbol="MAT_RUST-mat" target="#MAT_RUST"/>
      <instance_material symbol="MAT_PAINT-mat" target="#MAT_PAINT"/>
      <instance_material symbol="MAT_TYRE-mat" target="#MAT_TYRE"/>
      <instance_material symbol="MAT_WOOD-mat" target="#MAT_WOOD"/>
      <instance_material symbol="MAT_PLASTER-mat" target="#MAT_PLASTER"/>
      <instance_material symbol="MAT_ROOF-mat" target="#MAT_ROOF"/>
      <instance_material symbol="MAT_PIPE-mat" target="#MAT_PIPE"/>
      <instance_material symbol="MAT_SEAT-mat" target="#MAT_SEAT"/>
    </technique_common></bind_material></instance_geometry></node>
  </visual_scene></library_visual_scenes>
  <scene><instance_visual_scene url="#scene"/></scene>
</COLLADA>
