<?xml version="1.0" encoding="utf-8"?>
<COLLADA xmlns="http://www.collada.org/2005/11/COLLADASchema" version="1.4.1">
  <asset>
    <contributor><authoring_tool>VIGIL SIH26126 farm generator</authoring_tool></contributor>
    <unit name="meter" meter="1"/>
    <up_axis>Z_UP</up_axis>
  </asset>
  <library_effects>
    <effect id="MAT_METAL-fx"><profile_COMMON><technique sid="c"><lambert><diffuse><color>0.1180 0.1210 0.1260 1</color></diffuse></lambert></technique></profile_COMMON></effect>
    <effect id="MAT_RUST-fx"><profile_COMMON><technique sid="c"><lambert><diffuse><color>0.1060 0.0430 0.0180 1</color></diffuse></lambert></technique></profile_COMMON></effect>
    <effect id="MAT_PAINT-fx"><profile_COMMON><technique sid="c"><lambert><diffuse><color>0.2860 0.0480 0.0220 1</color></diffuse></lambert></technique></profile_COMMON></effect>
    <effect id="MAT_TYRE-fx"><profile_COMMON><technique sid="c"><lambert><diffuse><color>0.0140 0.0140 0.0150 1</color></diffuse></lambert></technique></profile_COMMON></effect>
    <effect id="MAT_WOOD-fx"><profile_COMMON><technique sid="c"><lambert><diffuse><color>0.0890 0.0550 0.0280 1</color></diffuse></lambert></technique></profile_COMMON></effect>
    <effect id="MAT_PLASTER-fx"><profile_COMMON><technique sid="c"><lambert><diffuse><color>0.1760 0.1520 0.1210 1</color></diffuse></lambert></technique></profile_COMMON></effect>
    <effect id="MAT_ROOF-fx"><profile_COMMON><technique sid="c"><lambert><diffuse><color>0.1550 0.1520 0.1460 1</color></diffuse></lambert></technique></profile_COMMON></effect>
    <effect id="MAT_PIPE-fx"><profile_COMMON><technique sid="c"><lambert><diffuse><color>0.0450 0.0980 0.1800 1</color></diffuse></lambert></technique></profile_COMMON></effect>
    <effect id="MAT_SEAT-fx"><profile_COMMON><technique sid="c"><lambert><diffuse><color>0.0300 0.0300 0.0340 1</color></diffuse></lambert></technique></profile_COMMON></effect>
  </library_effects>
  <library_materials>
    <material id="MAT_METAL" name="MAT_METAL"><instance_effect url="#MAT_METAL-fx"/></material>
    <material id="MAT_RUST" name="MAT_RUST"><instance_effect url="#MAT_RUST-fx"/></material>
    <material id="MAT_PAINT" name="MAT_PAINT"><instance_effect url="#MAT_PAINT-fx"/></material>
    <material id="MAT_TYRE" name="MAT_TYRE"><instance_effect url="#MAT_TYRE-fx"/></material>
    <material id="MAT_WOOD" name="MAT_WOOD"><instance_effect url="#MAT_WOOD-fx"/></material>
    <material id="MAT_PLASTER" name="MAT_PLASTER"><instance_effect url="#MAT_PLASTER-fx"/></material>
    <material id="MAT_ROOF" name="MAT_ROOF"><instance_effect url="#MAT_ROOF-fx"/></material>
    <material id="MAT_PIPE" name="MAT_PIPE"><instance_effect url="#MAT_PIPE-fx"/></material>
    <material id="MAT_SEAT" name="MAT_SEAT"><instance_effect url="#MAT_SEAT-fx"/></material>
  </library_materials>
  <library_geometries>
    <geometry id="SPRAYER-mesh" name="SPRAYER">
      <mesh>
        <source id="SPRAYER-pos"><float_array id="SPRAYER-pos-a" count="120">-0.15 0.02 0.3 -0.15 0.01 0.31732 0.55 0.01 0.31732 0.55 0.02 0.3 -0.15 -0.01 0.31732 0.55 -0.01 0.31732 -0.15 -0.02 0.3 0.55 -0.02 0.3 -0.15 -0.01 0.28268 0.55 -0.01 0.28268 -0.15 0.01 0.28268 0.55 0.01 0.28268 -0.15 0 0.3 0.55 0 0.3 -0.16 -0.11 0 -0.16 0.11 0 0.16 0.11 0 0.16 -0.11 0 -0.16 -0.11 0.52 0.16 -0.11 0.52 0.16 0.11 0.52 -0.16 0.11 0.52 0.05 0 0.515 0.035355 0.035355 0.515 0.035355 0.035355 0.605 0.05 0 0.605 3.0616e-18 0.05 0.515 3.0616e-18 0.05 0.605 -0.035355 0.035355 0.515 -0.035355 0.035355 0.605 -0.05 6.1232e-18 0.515 -0.05 6.1232e-18 0.605 -0.035355 -0.035355 0.515 -0.035355 -0.035355 0.605 -9.1849e-18 -0.05 0.515 -9.1849e-18 -0.05 0.605 0.035355 -0.035355 0.515 0.035355 -0.035355 0.605 0 0 0.515 0 0 0.605</float_array><technique_common><accessor source="#SPRAYER-pos-a" count="40" stride="3"><param name="X" type="float"/><param name="Y" type="float"/><param name="Z" type="float"/></accessor></technique_common></source>
        <source id="SPRAYER-nrm"><float_array id="SPRAYER-nrm-a" count="96">0 0.866 0.5 0 0 1 0 -0.866 0.5 0 -0.866 -0.5 0 0 -1 0 0.866 -0.5 -1 0 0 1 0 0 -0.577 -0.577 -0.577 -0.577 0.577 -0.577 0.577 0.577 -0.577 0.577 -0.577 -0.577 -0.577 -0.577 0.577 0.577 -0.577 0.577 0.577 0.577 0.577 -0.577 0.577 0.577 0.776 0 -0.63 0.549 0.549 -0.63 0.549 0.549 0.63 0.776 0 0.63 0 0.776 -0.63 0 0.776 0.63 -0.549 0.549 -0.63 -0.549 0.549 0.63 -0.776 0 -0.63 -0.776 0 0.63 -0.549 -0.549 -0.63 -0.549 -0.549 0.63 0 -0.776 -0.63 0 -0.776 0.63 0.549 -0.549 -0.63 0.549 -0.549 0.63</float_array><technique_common><accessor source="#SPRAYER-nrm-a" count="32" stride="3"><param name="X" type="float"/><param name="Y" type="float"/><param name="Z" type="float"/></accessor></technique_common></source>
        <vertices id="SPRAYER-vtx"><input semantic="POSITION" source="#SPRAYER-pos"/></vertices>
        <triangles count="24" material="MAT_METAL-mat"><input semantic="VERTEX" source="#SPRAYER-vtx" offset="0"/><input semantic="NORMAL" source="#SPRAYER-nrm" offset="1"/><p>0 0 1 0 2 0 0 0 2 0 3 0 1 1 4 1 5 1 1 1 5 1 2 1 4 2 6 2 7 2 4 2 7 2 5 2 6 3 8 3 9 3 6 3 9 3 7 3 8 4 10 4 11 4 8 4 11 4 9 4 10 5 0 5 3 5 10 5 3 5 11 5 1 6 0 6 12 6 3 7 2 7 13 7 4 6 1 6 12 6 2 7 5 7 13 7 6 6 4 6 12 6 5 7 7 7 13 7 8 6 6 6 12 6 7 7 9 7 13 7 10 6 8 6 12 6 9 7 11 7 13 7 0 6 10 6 12 6 11 7 3 7 13 7</p></triangles>
        <triangles count="44" material="MAT_PIPE-mat"><input semantic="VERTEX" source="#SPRAYER-vtx" offset="0"/><input semantic="NORMAL" source="#SPRAYER-nrm" offset="1"/><p>14 8 15 9 16 10 14 8 16 10 17 11 18 12 19 13 20 14 18 12 20 14 21 15 14 8 17 11 19 13 14 8 19 13 18 12 17 11 16 10 20 14 17 11 20 14 19 13 16 10 15 9 21 15 16 10 21 15 20 14 15 9 14 8 18 12 15 9 18 12 21 15 22 16 23 17 24 18 22 16 24 18 25 19 23 17 26 20 27 21 23 17 27 21 24 18 26 20 28 22 29 23 26 20 29 23 27 21 28 22 30 24 31 25 28 22 31 25 29 23 30 24 32 26 33 27 30 24 33 27 31 25 32 26 34 28 35 29 32 26 35 29 33 27 34 28 36 30 37 31 34 28 37 31 35 29 36 30 22 16 25 19 36 30 25 19 37 31 23 17 22 16 38 4 25 19 24 18 39 1 26 20 23 17 38 4 24 18 27 21 39 1 28 22 26 20 38 4 27 21 29 23 39 1 30 24 28 22 38 4 29 23 31 25 39 1 32 26 30 24 38 4 31 25 33 27 39 1 34 28 32 26 38 4 33 27 35 29 39 1 36 30 34 28 38 4 35 29 37 31 39 1 22 16 36 30 38 4 37 31 25 19 39 1</p></triangles>
      </mesh>
    </geometry>
  </library_geometries>
  <library_visual_scenes><visual_scene id="scene" name="scene">
    <node id="SPRAYER" name="SPRAYER" type="NODE"><instance_geometry url="#SPRAYER-mesh"><bind_material><technique_common>
      <instance_material symbol="MAT_METAL-mat" target="#MAT_METAL"/>
      <instance_material symbol="MAT_RUST-mat" target="#MAT_RUST"/>
      <instance_material symbol="MAT_PAINT-mat" target="#MAT_PAINT"/>
      <instance_material symbol="MAT_TYRE-mat" target="#MAT_TYRE"/>
      <instance_material symbol="MAT_WOOD-mat" target="#MAT_WOOD"/>
      <instance_material symbol="MAT_PLASTER-mat" target="#MAT_PLASTER"/>
      <instance_material symbol="MAT_ROOF-mat" target="#MAT_ROOF"/>
      <instance_material symbol="MAT_PIPE-mat" target="#MAT_PIPE"/>
      <instance_material symbol="MAT_SEAT-mat" target="#MAT_SEAT"/>
    </technique_common></bind_material></instance_geometry></node>
  </visual_scene></library_visual_scenes>
  <scene><instance_visual_scene url="#scene"/></scene>
</COLLADA>
