<?xml version="1.0" encoding="utf-8"?>
<COLLADA xmlns="http://www.collada.org/2005/11/COLLADASchema" version="1.4.1">
  <asset>
    <contributor><authoring_tool>VIGIL SIH26126 farm generator</authoring_tool></contributor>
    <unit name="meter" meter="1"/>
    <up_axis>Z_UP</up_axis>
  </asset>
  <library_effects>
    <effect id="MAT_METAL-fx"><profile_COMMON><technique sid="c"><lambert><diffuse><color>0.1180 0.1210 0.1260 1</color></diffuse></lambert></technique></profile_COMMON></effect>
    <effect id="MAT_RUST-fx"><profile_COMMON><technique sid="c"><lambert><diffuse><color>0.1060 0.0430 0.0180 1</color></diffuse></lambert></technique></profile_COMMON></effect>
    <effect id="MAT_PAINT-fx"><profile_COMMON><technique sid="c"><lambert><diffuse><color>0.2860 0.0480 0.0220 1</color></diffuse></lambert></technique></profile_COMMON></effect>
    <effect id="MAT_TYRE-fx"><profile_COMMON><technique sid="c"><lambert><diffuse><color>0.0140 0.0140 0.0150 1</color></diffuse></lambert></technique></profile_COMMON></effect>
    <effect id="MAT_WOOD-fx"><profile_COMMON><technique sid="c"><lambert><diffuse><color>0.0890 0.0550 0.0280 1</color></diffuse></lambert></technique></profile_COMMON></effect>
    <effect id="MAT_PLASTER-fx"><profile_COMMON><technique sid="c"><lambert><diffuse><color>0.1760 0.1520 0.1210 1</color></diffuse></lambert></technique></profile_COMMON></effect>
    <effect id="MAT_ROOF-fx"><profile_COMMON><technique sid="c"><lambert><diffuse><color>0.1550 0.1520 0.1460 1</color></diffuse></lambert></technique></profile_COMMON></effect>
    <effect id="MAT_PIPE-fx"><profile_COMMON><technique sid="c"><lambert><diffuse><color>0.0450 0.0980 0.1800 1</color></diffuse></lambert></technique></profile_COMMON></effect>
    <effect id="MAT_SEAT-fx"><profile_COMMON><technique sid="c"><lambert><diffuse><color>0.0300 0.0300 0.0340 1</color></diffuse></lambert></technique></profile_COMMON></effect>
  </library_effects>
  <library_materials>
    <material id="MAT_METAL" name="MAT_METAL"><instance_effect url="#MAT_METAL-fx"/></material>
    <material id="MAT_RUST" name="MAT_RUST"><instance_effect url="#MAT_RUST-fx"/></material>
    <material id="MAT_PAINT" name="MAT_PAINT"><instance_effect url="#MAT_PAINT-fx"/></material>
    <material id="MAT_TYRE" name="MAT_TYRE"><instance_effect url="#MAT_TYRE-fx"/></material>
    <material id="MAT_WOOD" name="MAT_WOOD"><instance_effect url="#MAT_WOOD-fx"/></material>
    <material id="MAT_PLASTER" name="MAT_PLASTER"><instance_effect url="#MAT_PLASTER-fx"/></material>
    <material id="MAT_ROOF" name="MAT_ROOF"><instance_effect url="#MAT_ROOF-fx"/></material>
    <material id="MAT_PIPE" name="MAT_PIPE"><instance_effect url="#MAT_PIPE-fx"/></material>
    <material id="MAT_SEAT" name="MAT_SEAT"><instance_effect url="#MAT_SEAT-fx"/></material>
  </library_materials>
  <library_geometries>
    <geometry id="TANK-mesh" name="TANK">
      <mesh>
        <source id="TANK-pos"><float_array id="TANK-pos-a" count="384">-1.35 -1.35 0 -1.35 1.35 0 1.35 1.35 0 1.35 -1.35 0 -1.35 -1.35 0.35 1.35 -1.35 0.35 1.35 1.35 0.35 -1.35 1.35 0.35 1.15 0 0.35 1.0937 0.35537 0.35 1.0937 0.35537 2.35 1.15 0 2.35 0.93037 0.67595 0.35 0.93037 0.67595 2.35 0.67595 0.93037 0.35 0.67595 0.93037 2.35 0.35537 1.0937 0.35 0.35537 1.0937 2.35 7.0417e-17 1.15 0.35 7.0417e-17 1.15 2.35 -0.35537 1.0937 0.35 -0.35537 1.0937 2.35 -0.67595 0.93037 0.35 -0.67595 0.93037 2.35 -0.93037 0.67595 0.35 -0.93037 0.67595 2.35 -1.0937 0.35537 0.35 -1.0937 0.35537 2.35 -1.15 1.4083e-16 0.35 -1.15 1.4083e-16 2.35 -1.0937 -0.35537 0.35 -1.0937 -0.35537 2.35 -0.93037 -0.67595 0.35 -0.93037 -0.67595 2.35 -0.67595 -0.93037 0.35 -0.67595 -0.93037 2.35 -0.35537 -1.0937 0.35 -0.35537 -1.0937 2.35 -2.1125e-16 -1.15 0.35 -2.1125e-16 -1.15 2.35 0.35537 -1.0937 0.35 0.35537 -1.0937 2.35 0.67595 -0.93037 0.35 0.67595 -0.93037 2.35 0.93037 -0.67595 0.35 0.93037 -0.67595 2.35 1.0937 -0.35537 0.35 1.0937 -0.35537 2.35 0 0 0.35 0 0 2.35 1.22 0 2.34 1.1603 0.377 2.34 1.1603 0.377 2.46 1.22 0 2.46 0.987 0.7171 2.34 0.987 0.7171 2.46 0.7171 0.987 2.34 0.7171 0.987 2.46 0.377 1.1603 2.34 0.377 1.1603 2.46 7.4703e-17 1.22 2.34 7.4703e-17 1.22 2.46 -0.377 1.1603 2.34 -0.377 1.1603 2.46 -0.7171 0.987 2.34 -0.7171 0.987 2.46 -0.987 0.7171 2.34 -0.987 0.7171 2.46 -1.1603 0.377 2.34 -1.1603 0.377 2.46 -1.22 1.4941e-16 2.34 -1.22 1.4941e-16 2.46 -1.1603 -0.377 2.34 -1.1603 -0.377 2.46 -0.987 -0.7171 2.34 -0.987 -0.7171 2.46 -0.7171 -0.987 2.34 -0.7171 -0.987 2.46 -0.377 -1.1603 2.34 -0.377 -1.1603 2.46 -2.2411e-16 -1.22 2.34 -2.2411e-16 -1.22 2.46 0.377 -1.1603 2.34 0.377 -1.1603 2.46 0.7171 -0.987 2.34 0.7171 -0.987 2.46 0.987 -0.7171 2.34 0.987 -0.7171 2.46 1.1603 -0.377 2.34 1.1603 -0.377 2.46 0 0 2.34 0 0 2.46 0.055 -1.4 0.55 0.038891 -1.4 0.58889 0.038891 -0.8 0.58889 0.055 -0.8 0.55 3.3678e-18 -1.4 0.605 3.3678e-18 -0.8 0.605 -0.038891 -1.4 0.58889 -0.038891 -0.8 0.58889 -0.055 -1.4 0.55 -0.055 -0.8 0.55 -0.038891 -1.4 0.51111 -0.038891 -0.8 0.51111 -1.0103e-17 -1.4 0.495 -1.0103e-17 -0.8 0.495 0.038891 -1.4 0.51111 0.038891 -0.8 0.51111 0 -1.4 0.55 0 -0.8 0.55 0.055 -1.4 0.5 0.038891 -1.3611 0.5 0.038891 -1.3611 1.3 0.055 -1.4 1.3 3.3678e-18 -1.345 0.5 3.3678e-18 -1.345 1.3 -0.038891 -1.3611 0.5 -0.038891 -1.3611 1.3 -0.055 -1.4 0.5 -0.055 -1.4 1.3 -0.038891 -1.4389 0.5 -0.038891 -1.4389 1.3 -1.0103e-17 -1.455 0.5 -1.0103e-17 -1.455 1.3 0.038891 -1.4389 0.5 0.038891 -1.4389 1.3 0 -1.4 0.5 0 -1.4 1.3</float_array><technique_common><accessor source="#TANK-pos-a" count="128" stride="3"><param name="X" type="float"/><param name="Y" type="float"/><param name="Z" type="float"/></accessor></technique_common></source>
        <source id="TANK-nrm"><float_array id="TANK-nrm-a" count="174">0 0 -1 0 0 1 0 -1 0 1 0 0 0 1 0 -1 0 0 0.988 0.156 0 0.891 0.454 0 0.707 0.707 0 0.454 0.891 0 0.156 0.988 0 -0.156 0.988 0 -0.454 0.891 0 -0.707 0.707 0 -0.891 0.454 0 -0.988 0.156 0 -0.988 -0.156 0 -0.891 -0.454 0 -0.707 -0.707 0 -0.454 -0.891 0 -0.156 -0.988 0 0.156 -0.988 0 0.454 -0.891 0 0.707 -0.707 0 0.891 -0.454 0 0.988 -0.156 0 -0.776 0.63 -0 -0.549 0.63 -0.549 -0.549 -0.63 -0.549 -0.776 -0.63 -0 0 0.63 -0.776 0 -0.63 -0.776 0.549 0.63 -0.549 0.549 -0.63 -0.549 0.776 0.63 -0 0.776 -0.63 0 0.549 0.63 0.549 0.549 -0.63 0.549 0 0.63 0.776 0 -0.63 0.776 -0.549 0.63 0.549 -0.549 -0.63 0.549 0.776 0 -0.63 0.549 0.549 -0.63 0.549 0.549 0.63 0.776 0 0.63 0 0.776 -0.63 0 0.776 0.63 -0.549 0.549 -0.63 -0.549 0.549 0.63 -0.776 0 -0.63 -0.776 0 0.63 -0.549 -0.549 -0.63 -0.549 -0.549 0.63 0 -0.776 -0.63 0 -0.776 0.63 0.549 -0.549 -0.63 0.549 -0.549 0.63</float_array><technique_common><accessor source="#TANK-nrm-a" count="58" stride="3"><param name="X" type="float"/><param name="Y" type="float"/><param name="Z" type="float"/></accessor></technique_common></source>
        <vertices id="TANK-vtx"><input semantic="POSITION" source="#TANK-pos"/></vertices>
        <triangles count="92" material="MAT_PLASTER-mat"><input semantic="VERTEX" source="#TANK-vtx" offset="0"/><input semantic="NORMAL" source="#TANK-nrm" offset="1"/><p>0 0 1 0 2 0 0 0 2 0 3 0 4 1 5 1 6 1 4 1 6 1 7 1 0 2 3 2 5 2 0 2 5 2 4 2 3 3 2 3 6 3 3 3 6 3 5 3 2 4 1 4 7 4 2 4 7 4 6 4 1 5 0 5 4 5 1 5 4 5 7 5 8 6 9 6 10 6 8 6 10 6 11 6 9 7 12 7 13 7 9 7 13 7 10 7 12 8 14 8 15 8 12 8 15 8 13 8 14 9 16 9 17 9 14 9 17 9 15 9 16 10 18 10 19 10 16 10 19 10 17 10 18 11 20 11 21 11 18 11 21 11 19 11 20 12 22 12 23 12 20 12 23 12 21 12 22 13 24 13 25 13 22 13 25 13 23 13 24 14 26 14 27 14 24 14 27 14 25 14 26 15 28 15 29 15 26 15 29 15 27 15 28 16 30 16 31 16 28 16 31 16 29 16 30 17 32 17 33 17 30 17 33 17 31 17 32 18 34 18 35 18 32 18 35 18 33 18 34 19 36 19 37 19 34 19 37 19 35 19 36 20 38 20 39 20 36 20 39 20 37 20 38 21 40 21 41 21 38 21 41 21 39 21 40 22 42 22 43 22 40 22 43 22 41 22 42 23 44 23 45 23 42 23 45 23 43 23 44 24 46 24 47 24 44 24 47 24 45 24 46 25 8 25 11 25 46 25 11 25 47 25 9 0 8 0 48 0 11 1 10 1 49 1 12 0 9 0 48 0 10 1 13 1 49 1 14 0 12 0 48 0 13 1 15 1 49 1 16 0 14 0 48 0 15 1 17 1 49 1 18 0 16 0 48 0 17 1 19 1 49 1 20 0 18 0 48 0 19 1 21 1 49 1 22 0 20 0 48 0 21 1 23 1 49 1 24 0 22 0 48 0 23 1 25 1 49 1 26 0 24 0 48 0 25 1 27 1 49 1 28 0 26 0 48 0 27 1 29 1 49 1 30 0 28 0 48 0 29 1 31 1 49 1 32 0 30 0 48 0 31 1 33 1 49 1 34 0 32 0 48 0 33 1 35 1 49 1 36 0 34 0 48 0 35 1 37 1 49 1 38 0 36 0 48 0 37 1 39 1 49 1 40 0 38 0 48 0 39 1 41 1 49 1 42 0 40 0 48 0 41 1 43 1 49 1 44 0 42 0 48 0 43 1 45 1 49 1 46 0 44 0 48 0 45 1 47 1 49 1 8 0 46 0 48 0 47 1 11 1 49 1</p></triangles>
        <triangles count="80" material="MAT_ROOF-mat"><input semantic="VERTEX" source="#TANK-vtx" offset="0"/><input semantic="NORMAL" source="#TANK-nrm" offset="1"/><p>50 6 51 6 52 6 50 6 52 6 53 6 51 7 54 7 55 7 51 7 55 7 52 7 54 8 56 8 57 8 54 8 57 8 55 8 56 9 58 9 59 9 56 9 59 9 57 9 58 10 60 10 61 10 58 10 61 10 59 10 60 11 62 11 63 11 60 11 63 11 61 11 62 12 64 12 65 12 62 12 65 12 63 12 64 13 66 13 67 13 64 13 67 13 65 13 66 14 68 14 69 14 66 14 69 14 67 14 68 15 70 15 71 15 68 15 71 15 69 15 70 16 72 16 73 16 70 16 73 16 71 16 72 17 74 17 75 17 72 17 75 17 73 17 74 18 76 18 77 18 74 18 77 18 75 18 76 19 78 19 79 19 76 19 79 19 77 19 78 20 80 20 81 20 78 20 81 20 79 20 80 21 82 21 83 21 80 21 83 21 81 21 82 22 84 22 85 22 82 22 85 22 83 22 84 23 86 23 87 23 84 23 87 23 85 23 86 24 88 24 89 24 86 24 89 24 87 24 88 25 50 25 53 25 88 25 53 25 89 25 51 0 50 0 90 0 53 1 52 1 91 1 54 0 51 0 90 0 52 1 55 1 91 1 56 0 54 0 90 0 55 1 57 1 91 1 58 0 56 0 90 0 57 1 59 1 91 1 60 0 58 0 90 0 59 1 61 1 91 1 62 0 60 0 90 0 61 1 63 1 91 1 64 0 62 0 90 0 63 1 65 1 91 1 66 0 64 0 90 0 65 1 67 1 91 1 68 0 66 0 90 0 67 1 69 1 91 1 70 0 68 0 90 0 69 1 71 1 91 1 72 0 70 0 90 0 71 1 73 1 91 1 74 0 72 0 90 0 73 1 75 1 91 1 76 0 74 0 90 0 75 1 77 1 91 1 78 0 76 0 90 0 77 1 79 1 91 1 80 0 78 0 90 0 79 1 81 1 91 1 82 0 80 0 90 0 81 1 83 1 91 1 84 0 82 0 90 0 83 1 85 1 91 1 86 0 84 0 90 0 85 1 87 1 91 1 88 0 86 0 90 0 87 1 89 1 91 1 50 0 88 0 90 0 89 1 53 1 91 1</p></triangles>
        <triangles count="64" material="MAT_PIPE-mat"><input semantic="VERTEX" source="#TANK-vtx" offset="0"/><input semantic="NORMAL" source="#TANK-nrm" offset="1"/><p>92 26 93 27 94 28 92 26 94 28 95 29 93 27 96 30 97 31 93 27 97 31 94 28 96 30 98 32 99 33 96 30 99 33 97 31 98 32 100 34 101 35 98 32 101 35 99 33 100 34 102 36 103 37 100 34 103 37 101 35 102 36 104 38 105 39 102 36 105 39 103 37 104 38 106 40 107 41 104 38 107 41 105 39 106 40 92 26 95 29 106 40 95 29 107 41 93 27 92 26 108 4 95 29 94 28 109 2 96 30 93 27 108 4 94 28 97 31 109 2 98 32 96 30 108 4 97 31 99 33 109 2 100 34 98 32 108 4 99 33 101 35 109 2 102 36 100 34 108 4 101 35 103 37 109 2 104 38 102 36 108 4 103 37 105 39 109 2 106 40 104 38 108 4 105 39 107 41 109 2 92 26 106 40 108 4 107 41 95 29 109 2 110 42 111 43 112 44 110 42 112 44 113 45 111 43 114 46 115 47 111 43 115 47 112 44 114 46 116 48 117 49 114 46 117 49 115 47 116 48 118 50 119 51 116 48 119 51 117 49 118 50 120 52 121 53 118 50 121 53 119 51 120 52 122 54 123 55 120 52 123 55 121 53 122 54 124 56 125 57 122 54 125 57 123 55 124 56 110 42 113 45 124 56 113 45 125 57 111 43 110 42 126 0 113 45 112 44 127 1 114 46 111 43 126 0 112 44 115 47 127 1 116 48 114 46 126 0 115 47 117 49 127 1 118 50 116 48 126 0 117 49 119 51 127 1 120 52 118 50 126 0 119 51 121 53 127 1 122 54 120 52 126 0 121 53 123 55 127 1 124 56 122 54 126 0 123 55 125 57 127 1 110 42 124 56 126 0 125 57 113 45 127 1</p></triangles>
      </mesh>
    </geometry>
  </library_geometries>
  <library_visual_scenes><visual_scene id="scene" name="scene">
    <node id="TANK" name="TANK" type="NODE"><instance_geometry url="#TANK-mesh"><bind_material><technique_common>
      <instance_material symbol="MAT_METAL-mat" target="#MAT_METAL"/>
      <instance_material symbol="MAT_RUST-mat" target="#MAT_RUST"/>
      <instance_material symbol="MAT_PAINT-mat" target="#MAT_PAINT"/>
      <instance_material symbol="MAT_TYRE-mat" target="#MAT_TYRE"/>
      <instance_material symbol="MAT_WOOD-mat" target="#MAT_WOOD"/>
      <instance_material symbol="MAT_PLASTER-mat" target="#MAT_PLASTER"/>
      <instance_material symbol="MAT_ROOF-mat" target="#MAT_ROOF"/>
      <instance_material symbol="MAT_PIPE-mat" target="#MAT_PIPE"/>
      <instance_material symbol="MAT_SEAT-mat" target="#MAT_SEAT"/>
    </technique_common></bind_material></instance_geometry></node>
  </visual_scene></library_visual_scenes>
  <scene><instance_visual_scene url="#scene"/></scene>
</COLLADA>
