<?xml version="1.0" encoding="utf-8"?>
<COLLADA xmlns="http://www.collada.org/2005/11/COLLADASchema" version="1.4.1">
  <asset>
    <contributor><authoring_tool>VIGIL SIH26126 farm generator</authoring_tool></contributor>
    <unit name="meter" meter="1"/>
    <up_axis>Z_UP</up_axis>
  </asset>
  <library_effects>
    <effect id="MAT_METAL-fx"><profile_COMMON><technique sid="c"><lambert><diffuse><color>0.1180 0.1210 0.1260 1</color></diffuse></lambert></technique></profile_COMMON></effect>
    <effect id="MAT_RUST-fx"><profile_COMMON><technique sid="c"><lambert><diffuse><color>0.1060 0.0430 0.0180 1</color></diffuse></lambert></technique></profile_COMMON></effect>
    <effect id="MAT_PAINT-fx"><profile_COMMON><technique sid="c"><lambert><diffuse><color>0.2860 0.0480 0.0220 1</color></diffuse></lambert></technique></profile_COMMON></effect>
    <effect id="MAT_TYRE-fx"><profile_COMMON><technique sid="c"><lambert><diffuse><color>0.0140 0.0140 0.0150 1</color></diffuse></lambert></technique></profile_COMMON></effect>
    <effect id="MAT_WOOD-fx"><profile_COMMON><technique sid="c"><lambert><diffuse><color>0.0890 0.0550 0.0280 1</color></diffuse></lambert></technique></profile_COMMON></effect>
    <effect id="MAT_PLASTER-fx"><profile_COMMON><technique sid="c"><lambert><diffuse><color>0.1760 0.1520 0.1210 1</color></diffuse></lambert></technique></profile_COMMON></effect>
    <effect id="MAT_ROOF-fx"><profile_COMMON><technique sid="c"><lambert><diffuse><color>0.1550 0.1520 0.1460 1</color></diffuse></lambert></technique></profile_COMMON></effect>
    <effect id="MAT_PIPE-fx"><profile_COMMON><technique sid="c"><lambert><diffuse><color>0.0450 0.0980 0.1800 1</color></diffuse></lambert></technique></profile_COMMON></effect>
    <effect id="MAT_SEAT-fx"><profile_COMMON><technique sid="c"><lambert><diffuse><color>0.0300 0.0300 0.0340 1</color></diffuse></lambert></technique></profile_COMMON></effect>
  </library_effects>
  <library_materials>
    <material id="MAT_METAL" name="MAT_METAL"><instance_effect url="#MAT_METAL-fx"/></material>
    <material id="MAT_RUST" name="MAT_RUST"><instance_effect url="#MAT_RUST-fx"/></material>
    <material id="MAT_PAINT" name="MAT_PAINT"><instance_effect url="#MAT_PAINT-fx"/></material>
    <material id="MAT_TYRE" name="MAT_TYRE"><instance_effect url="#MAT_TYRE-fx"/></material>
    <material id="MAT_WOOD" name="MAT_WOOD"><instance_effect url="#MAT_WOOD-fx"/></material>
    <material id="MAT_PLASTER" name="MAT_PLASTER"><instance_effect url="#MAT_PLASTER-fx"/></material>
    <material id="MAT_ROOF" name="MAT_ROOF"><instance_effect url="#MAT_ROOF-fx"/></material>
    <material id="MAT_PIPE" name="MAT_PIPE"><instance_effect url="#MAT_PIPE-fx"/></material>
    <material id="MAT_SEAT" name="MAT_SEAT"><instance_effect url="#MAT_SEAT-fx"/></material>
  </library_materials>
  <library_geometries>
    <geometry id="PUMP-mesh" name="PUMP">
      <mesh>
        <source id="PUMP-pos"><float_array id="PUMP-pos-a" count="234">-0.31 0.17 0.42 -0.31 0.14722 0.505 0.31 0.14722 0.505 0.31 0.17 0.42 -0.31 0.085 0.56722 0.31 0.085 0.56722 -0.31 1.0409e-17 0.59 0.31 1.0409e-17 0.59 -0.31 -0.085 0.56722 0.31 -0.085 0.56722 -0.31 -0.14722 0.505 0.31 -0.14722 0.505 -0.31 -0.17 0.42 0.31 -0.17 0.42 -0.31 -0.14722 0.335 0.31 -0.14722 0.335 -0.31 -0.085 0.27278 0.31 -0.085 0.27278 -0.31 -3.1228e-17 0.25 0.31 -3.1228e-17 0.25 -0.31 0.085 0.27278 0.31 0.085 0.27278 -0.31 0.14722 0.335 0.31 0.14722 0.335 -0.31 0 0.42 0.31 0 0.42 -0.47 0.24 0.42 -0.47 0.20785 0.54 -0.37 0.20785 0.54 -0.37 0.24 0.42 -0.47 0.12 0.62785 -0.37 0.12 0.62785 -0.47 1.4696e-17 0.66 -0.37 1.4696e-17 0.66 -0.47 -0.12 0.62785 -0.37 -0.12 0.62785 -0.47 -0.20785 0.54 -0.37 -0.20785 0.54 -0.47 -0.24 0.42 -0.37 -0.24 0.42 -0.47 -0.20785 0.3 -0.37 -0.20785 0.3 -0.47 -0.12 0.21215 -0.37 -0.12 0.21215 -0.47 -4.4087e-17 0.18 -0.37 -4.4087e-17 0.18 -0.47 0.12 0.21215 -0.37 0.12 0.21215 -0.47 0.20785 0.3 -0.37 0.20785 0.3 -0.47 0 0.42 -0.37 0 0.42 -0.45 -0.32 0 -0.45 0.32 0 0.45 0.32 0 0.45 -0.32 0 -0.45 -0.32 0.22 0.45 -0.32 0.22 0.45 0.32 0.22 -0.45 0.32 0.22 0.36 0 -0.01 0.34243 0.042426 -0.01 0.34243 0.042426 0.41 0.36 0 0.41 0.3 0.06 -0.01 0.3 0.06 0.41 0.25757 0.042426 -0.01 0.25757 0.042426 0.41 0.24 7.3479e-18 -0.01 0.24 7.3479e-18 0.41 0.25757 -0.042426 -0.01 0.25757 -0.042426 0.41 0.3 -0.06 -0.01 0.3 -0.06 0.41 0.34243 -0.042426 -0.01 0.34243 -0.042426 0.41 0.3 0 -0.01 0.3 0 0.41</float_array><technique_common><accessor source="#PUMP-pos-a" count="78" stride="3"><param name="X" type="float"/><param name="Y" type="float"/><param name="Z" type="float"/></accessor></technique_common></source>
        <source id="PUMP-nrm"><float_array id="PUMP-nrm-a" count="102">0 0.966 0.259 0 0.707 0.707 0 0.259 0.966 0 -0.259 0.966 0 -0.707 0.707 0 -0.966 0.259 0 -0.966 -0.259 0 -0.707 -0.707 0 -0.259 -0.966 0 0.259 -0.966 0 0.707 -0.707 0 0.966 -0.259 -1 0 0 1 0 0 0 0 -1 0 0 1 0 -1 0 0 1 0 0.776 0 -0.63 0.549 0.549 -0.63 0.549 0.549 0.63 0.776 0 0.63 0 0.776 -0.63 0 0.776 0.63 -0.549 0.549 -0.63 -0.549 0.549 0.63 -0.776 0 -0.63 -0.776 0 0.63 -0.549 -0.549 -0.63 -0.549 -0.549 0.63 0 -0.776 -0.63 -0 -0.776 0.63 0.549 -0.549 -0.63 0.549 -0.549 0.63</float_array><technique_common><accessor source="#PUMP-nrm-a" count="34" stride="3"><param name="X" type="float"/><param name="Y" type="float"/><param name="Z" type="float"/></accessor></technique_common></source>
        <vertices id="PUMP-vtx"><input semantic="POSITION" source="#PUMP-pos"/></vertices>
        <triangles count="48" material="MAT_METAL-mat"><input semantic="VERTEX" source="#PUMP-vtx" offset="0"/><input semantic="NORMAL" source="#PUMP-nrm" offset="1"/><p>0 0 1 0 2 0 0 0 2 0 3 0 1 1 4 1 5 1 1 1 5 1 2 1 4 2 6 2 7 2 4 2 7 2 5 2 6 3 8 3 9 3 6 3 9 3 7 3 8 4 10 4 11 4 8 4 11 4 9 4 10 5 12 5 13 5 10 5 13 5 11 5 12 6 14 6 15 6 12 6 15 6 13 6 14 7 16 7 17 7 14 7 17 7 15 7 16 8 18 8 19 8 16 8 19 8 17 8 18 9 20 9 21 9 18 9 21 9 19 9 20 10 22 10 23 10 20 10 23 10 21 10 22 11 0 11 3 11 22 11 3 11 23 11 1 12 0 12 24 12 3 13 2 13 25 13 4 12 1 12 24 12 2 13 5 13 25 13 6 12 4 12 24 12 5 13 7 13 25 13 8 12 6 12 24 12 7 13 9 13 25 13 10 12 8 12 24 12 9 13 11 13 25 13 12 12 10 12 24 12 11 13 13 13 25 13 14 12 12 12 24 12 13 13 15 13 25 13 16 12 14 12 24 12 15 13 17 13 25 13 18 12 16 12 24 12 17 13 19 13 25 13 20 12 18 12 24 12 19 13 21 13 25 13 22 12 20 12 24 12 21 13 23 13 25 13 0 12 22 12 24 12 23 13 3 13 25 13</p></triangles>
        <triangles count="48" material="MAT_RUST-mat"><input semantic="VERTEX" source="#PUMP-vtx" offset="0"/><input semantic="NORMAL" source="#PUMP-nrm" offset="1"/><p>26 0 27 0 28 0 26 0 28 0 29 0 27 1 30 1 31 1 27 1 31 1 28 1 30 2 32 2 33 2 30 2 33 2 31 2 32 3 34 3 35 3 32 3 35 3 33 3 34 4 36 4 37 4 34 4 37 4 35 4 36 5 38 5 39 5 36 5 39 5 37 5 38 6 40 6 41 6 38 6 41 6 39 6 40 7 42 7 43 7 40 7 43 7 41 7 42 8 44 8 45 8 42 8 45 8 43 8 44 9 46 9 47 9 44 9 47 9 45 9 46 10 48 10 49 10 46 10 49 10 47 10 48 11 26 11 29 11 48 11 29 11 49 11 27 12 26 12 50 12 29 13 28 13 51 13 30 12 27 12 50 12 28 13 31 13 51 13 32 12 30 12 50 12 31 13 33 13 51 13 34 12 32 12 50 12 33 13 35 13 51 13 36 12 34 12 50 12 35 13 37 13 51 13 38 12 36 12 50 12 37 13 39 13 51 13 40 12 38 12 50 12 39 13 41 13 51 13 42 12 40 12 50 12 41 13 43 13 51 13 44 12 42 12 50 12 43 13 45 13 51 13 46 12 44 12 50 12 45 13 47 13 51 13 48 12 46 12 50 12 47 13 49 13 51 13 26 12 48 12 50 12 49 13 29 13 51 13</p></triangles>
        <triangles count="12" material="MAT_PLASTER-mat"><input semantic="VERTEX" source="#PUMP-vtx" offset="0"/><input semantic="NORMAL" source="#PUMP-nrm" offset="1"/><p>52 14 53 14 54 14 52 14 54 14 55 14 56 15 57 15 58 15 56 15 58 15 59 15 52 16 55 16 57 16 52 16 57 16 56 16 55 13 54 13 58 13 55 13 58 13 57 13 54 17 53 17 59 17 54 17 59 17 58 17 53 12 52 12 56 12 53 12 56 12 59 12</p></triangles>
        <triangles count="32" material="MAT_PIPE-mat"><input semantic="VERTEX" source="#PUMP-vtx" offset="0"/><input semantic="NORMAL" source="#PUMP-nrm" offset="1"/><p>60 18 61 19 62 20 60 18 62 20 63 21 61 19 64 22 65 23 61 19 65 23 62 20 64 22 66 24 67 25 64 22 67 25 65 23 66 24 68 26 69 27 66 24 69 27 67 25 68 26 70 28 71 29 68 26 71 29 69 27 70 28 72 30 73 31 70 28 73 31 71 29 72 30 74 32 75 33 72 30 75 33 73 31 74 32 60 18 63 21 74 32 63 21 75 33 61 19 60 18 76 14 63 21 62 20 77 15 64 22 61 19 76 14 62 20 65 23 77 15 66 24 64 22 76 14 65 23 67 25 77 15 68 26 66 24 76 14 67 25 69 27 77 15 70 28 68 26 76 14 69 27 71 29 77 15 72 30 70 28 76 14 71 29 73 31 77 15 74 32 72 30 76 14 73 31 75 33 77 15 60 18 74 32 76 14 75 33 63 21 77 15</p></triangles>
      </mesh>
    </geometry>
  </library_geometries>
  <library_visual_scenes><visual_scene id="scene" name="scene">
    <node id="PUMP" name="PUMP" type="NODE"><instance_geometry url="#PUMP-mesh"><bind_material><technique_common>
      <instance_material symbol="MAT_METAL-mat" target="#MAT_METAL"/>
      <instance_material symbol="MAT_RUST-mat" target="#MAT_RUST"/>
      <instance_material symbol="MAT_PAINT-mat" target="#MAT_PAINT"/>
      <instance_material symbol="MAT_TYRE-mat" target="#MAT_TYRE"/>
      <instance_material symbol="MAT_WOOD-mat" target="#MAT_WOOD"/>
      <instance_material symbol="MAT_PLASTER-mat" target="#MAT_PLASTER"/>
      <instance_material symbol="MAT_ROOF-mat" target="#MAT_ROOF"/>
      <instance_material symbol="MAT_PIPE-mat" target="#MAT_PIPE"/>
      <instance_material symbol="MAT_SEAT-mat" target="#MAT_SEAT"/>
    </technique_common></bind_material></instance_geometry></node>
  </visual_scene></library_visual_scenes>
  <scene><instance_visual_scene url="#scene"/></scene>
</COLLADA>
