<?xml version="1.0" encoding="utf-8"?>
<COLLADA xmlns="http://www.collada.org/2005/11/COLLADASchema" version="1.4.1">
  <asset>
    <contributor><authoring_tool>VIGIL SIH26126 farm generator</authoring_tool></contributor>
    <unit name="meter" meter="1"/>
    <up_axis>Z_UP</up_axis>
  </asset>
  <library_effects>
    <effect id="MAT_METAL-fx"><profile_COMMON><technique sid="c"><lambert><diffuse><color>0.1180 0.1210 0.1260 1</color></diffuse></lambert></technique></profile_COMMON></effect>
    <effect id="MAT_RUST-fx"><profile_COMMON><technique sid="c"><lambert><diffuse><color>0.1060 0.0430 0.0180 1</color></diffuse></lambert></technique></profile_COMMON></effect>
    <effect id="MAT_PAINT-fx"><profile_COMMON><technique sid="c"><lambert><diffuse><color>0.2860 0.0480 0.0220 1</color></diffuse></lambert></technique></profile_COMMON></effect>
    <effect id="MAT_TYRE-fx"><profile_COMMON><technique sid="c"><lambert><diffuse><color>0.0140 0.0140 0.0150 1</color></diffuse></lambert></technique></profile_COMMON></effect>
    <effect id="MAT_WOOD-fx"><profile_COMMON><technique sid="c"><lambert><diffuse><color>0.0890 0.0550 0.0280 1</color></diffuse></lambert></technique></profile_COMMON></effect>
    <effect id="MAT_PLASTER-fx"><profile_COMMON><technique sid="c"><lambert><diffuse><color>0.1760 0.1520 0.1210 1</color></diffuse></lambert></technique></profile_COMMON></effect>
    <effect id="MAT_ROOF-fx"><profile_COMMON><technique sid="c"><lambert><diffuse><color>0.1550 0.1520 0.1460 1</color></diffuse></lambert></technique></profile_COMMON></effect>
    <effect id="MAT_PIPE-fx"><profile_COMMON><technique sid="c"><lambert><diffuse><color>0.0450 0.0980 0.1800 1</color></diffuse></lambert></technique></profile_COMMON></effect>
    <effect id="MAT_SEAT-fx"><profile_COMMON><technique sid="c"><lambert><diffuse><color>0.0300 0.0300 0.0340 1</color></diffuse></lambert></technique></profile_COMMON></effect>
  </library_effects>
  <library_materials>
    <material id="MAT_METAL" name="MAT_METAL"><instance_effect url="#MAT_METAL-fx"/></material>
    <material id="MAT_RUST" name="MAT_RUST"><instance_effect url="#MAT_RUST-fx"/></material>
    <material id="MAT_PAINT" name="MAT_PAINT"><instance_effect url="#MAT_PAINT-fx"/></material>
    <material id="MAT_TYRE" name="MAT_TYRE"><instance_effect url="#MAT_TYRE-fx"/></material>
    <material id="MAT_WOOD" name="MAT_WOOD"><instance_effect url="#MAT_WOOD-fx"/></material>
    <material id="MAT_PLASTER" name="MAT_PLASTER"><instance_effect url="#MAT_PLASTER-fx"/></material>
    <material id="MAT_ROOF" name="MAT_ROOF"><instance_effect url="#MAT_ROOF-fx"/></material>
    <material id="MAT_PIPE" name="MAT_PIPE"><instance_effect url="#MAT_PIPE-fx"/></material>
    <material id="MAT_SEAT" name="MAT_SEAT"><instance_effect url="#MAT_SEAT-fx"/></material>
  </library_materials>
  <library_geometries>
    <geometry id="TRACTOR-mesh" name="TRACTOR">
      <mesh>
        <source id="TRACTOR-pos"><float_array id="TRACTOR-pos-a" count="2772">-0.13 -0.89 0.72 -0.17159 -0.89 0.90223 -0.17159 -0.59 0.90223 -0.13 -0.59 0.72 -0.28813 -0.89 1.0484 -0.28813 -0.59 1.0484 -0.45654 -0.89 1.1295 -0.45654 -0.59 1.1295 -0.64346 -0.89 1.1295 -0.64346 -0.59 1.1295 -0.81187 -0.89 1.0484 -0.81187 -0.59 1.0484 -0.92841 -0.89 0.90223 -0.92841 -0.59 0.90223 -0.97 -0.89 0.72 -0.97 -0.59 0.72 -0.92841 -0.89 0.53777 -0.92841 -0.59 0.53777 -0.81187 -0.89 0.39163 -0.81187 -0.59 0.39163 -0.64346 -0.89 0.31053 -0.64346 -0.59 0.31053 -0.45654 -0.89 0.31053 -0.45654 -0.59 0.31053 -0.28813 -0.89 0.39163 -0.28813 -0.59 0.39163 -0.17159 -0.89 0.53777 -0.17159 -0.59 0.53777 -0.55 -0.89 0.72 -0.55 -0.59 0.72 -0.13 0.59 0.72 -0.17159 0.59 0.90223 -0.17159 0.89 0.90223 -0.13 0.89 0.72 -0.28813 0.59 1.0484 -0.28813 0.89 1.0484 -0.45654 0.59 1.1295 -0.45654 0.89 1.1295 -0.64346 0.59 1.1295 -0.64346 0.89 1.1295 -0.81187 0.59 1.0484 -0.81187 0.89 1.0484 -0.92841 0.59 0.90223 -0.92841 0.89 0.90223 -0.97 0.59 0.72 -0.97 0.89 0.72 -0.92841 0.59 0.53777 -0.92841 0.89 0.53777 -0.81187 0.59 0.39163 -0.81187 0.89 0.39163 -0.64346 0.59 0.31053 -0.64346 0.89 0.31053 -0.45654 0.59 0.31053 -0.45654 0.89 0.31053 -0.28813 0.59 0.39163 -0.28813 0.89 0.39163 -0.17159 0.59 0.53777 -0.17159 0.89 0.53777 -0.55 0.59 0.72 -0.55 0.89 0.72 1.48 -0.655 0.38 1.4532 -0.655 0.48 1.4532 -0.465 0.48 1.48 -0.465 0.38 1.38 -0.655 0.55321 1.38 -0.465 0.55321 1.28 -0.655 0.58 1.28 -0.465 0.58 1.18 -0.655 0.55321 1.18 -0.465 0.55321 1.1068 -0.655 0.48 1.1068 -0.465 0.48 1.08 -0.655 0.38 1.08 -0.465 0.38 1.1068 -0.655 0.28 1.1068 -0.465 0.28 1.18 -0.655 0.20679 1.18 -0.465 0.20679 1.28 -0.655 0.18 1.28 -0.465 0.18 1.38 -0.655 0.20679 1.38 -0.465 0.20679 1.4532 -0.655 0.28 1.4532 -0.465 0.28 1.28 -0.655 0.38 1.28 -0.465 0.38 1.48 0.465 0.38 1.4532 0.465 0.48 1.4532 0.655 0.48 1.48 0.655 0.38 1.38 0.465 0.55321 1.38 0.655 0.55321 1.28 0.465 0.58 1.28 0.655 0.58 1.18 0.465 0.55321 1.18 0.655 0.55321 1.1068 0.465 0.48 1.1068 0.655 0.48 1.08 0.465 0.38 1.08 0.655 0.38 1.1068 0.465 0.28 1.1068 0.655 0.28 1.18 0.465 0.20679 1.18 0.655 0.20679 1.28 0.465 0.18 1.28 0.655 0.18 1.38 0.465 0.20679 1.38 0.655 0.20679 1.4532 0.465 0.28 1.4532 0.655 0.28 1.28 0.465 0.38 1.28 0.655 0.38 1.35 -0.6 0.38 1.3295 -0.6 0.4295 1.3295 0.6 0.4295 1.35 0.6 0.38 1.28 -0.6 0.45 1.28 0.6 0.45 1.2305 -0.6 0.4295 1.2305 0.6 0.4295 1.21 -0.6 0.38 1.21 0.6 0.38 1.2305 -0.6 0.3305 1.2305 0.6 0.3305 1.28 -0.6 0.31 1.28 0.6 0.31 1.3295 -0.6 0.3305 1.3295 0.6 0.3305 1.28 -0.6 0.38 1.28 0.6 0.38 1.5 -0.34 0.84 1.5 0.34 0.84 1.6 0.34 0.84 1.6 -0.34 0.84 1.5 -0.34 1.22 1.6 -0.34 1.22 1.6 0.34 1.22 1.5 0.34 1.22 -0.21 0.035 1.16 -0.21 0.024749 1.1847 0.31 0.024749 1.1847 0.31 0.035 1.16 -0.21 2.1431e-18 1.195 0.31 2.1431e-18 1.195 -0.21 -0.024749 1.1847 0.31 -0.024749 1.1847 -0.21 -0.035 1.16 0.31 -0.035 1.16 -0.21 -0.024749 1.1353 0.31 -0.024749 1.1353 -0.21 -6.4294e-18 1.125 0.31 -6.4294e-18 1.125 -0.21 0.024749 1.1353 0.31 0.024749 1.1353 -0.21 0 1.16 0.31 0 1.16 0.492 0 1.28 0.4768 0.020923 1.28 0.45731 0.020923 1.3654 0.47101 0 1.372 0.4522 0.012931 1.28 0.43515 0.012931 1.3547 0.4522 -0.012931 1.28 0.43515 -0.012931 1.3547 0.4768 -0.020923 1.28 0.45731 -0.020923 1.3654 0.4027 0.020923 1.4339 0.41218 0 1.4457 0.38737 0.012931 1.4146 0.38737 -0.012931 1.4146 0.4027 -0.020923 1.4339 0.32379 0.020923 1.4719 0.32717 0 1.4867 0.31832 0.012931 1.4479 0.31832 -0.012931 1.4479 0.32379 -0.020923 1.4719 0.23621 0.020923 1.4719 0.23283 0 1.4867 0.24168 0.012931 1.4479 0.24168 -0.012931 1.4479 0.23621 -0.020923 1.4719 0.1573 0.020923 1.4339 0.14782 0 1.4457 0.17263 0.012931 1.4146 0.17263 -0.012931 1.4146 0.1573 -0.020923 1.4339 0.10269 0.020923 1.3654 0.088995 0 1.372 0.12485 0.012931 1.3547 0.12485 -0.012931 1.3547 0.10269 -0.020923 1.3654 0.083202 0.020923 1.28 0.068 0 1.28 0.1078 0.012931 1.28 0.1078 -0.012931 1.28 0.083202 -0.020923 1.28 0.10269 0.020923 1.1946 0.088995 0 1.188 0.12485 0.012931 1.2053 0.12485 -0.012931 1.2053 0.10269 -0.020923 1.1946 0.1573 0.020923 1.1261 0.14782 0 1.1143 0.17263 0.012931 1.1454 0.17263 -0.012931 1.1454 0.1573 -0.020923 1.1261 0.23621 0.020923 1.0881 0.23283 0 1.0733 0.24168 0.012931 1.1121 0.24168 -0.012931 1.1121 0.23621 -0.020923 1.0881 0.32379 0.020923 1.0881 0.32717 0 1.0733 0.31832 0.012931 1.1121 0.31832 -0.012931 1.1121 0.32379 -0.020923 1.0881 0.4027 0.020923 1.1261 0.41218 0 1.1143 0.38737 0.012931 1.1454 0.38737 -0.012931 1.1454 0.4027 -0.020923 1.1261 0.45731 0.020923 1.1946 0.47101 0 1.188 0.43515 0.012931 1.2053 0.43515 -0.012931 1.2053 0.45731 -0.020923 1.1946 -0.815 -0.4 0.845 -0.82818 -0.36818 0.845 -0.82818 -0.36818 2.395 -0.815 -0.4 2.395 -0.86 -0.355 0.845 -0.86 -0.355 2.395 -0.89182 -0.36818 0.845 -0.89182 -0.36818 2.395 -0.905 -0.4 0.845 -0.905 -0.4 2.395 -0.89182 -0.43182 0.845 -0.89182 -0.43182 2.395 -0.86 -0.445 0.845 -0.86 -0.445 2.395 -0.82818 -0.43182 0.845 -0.82818 -0.43182 2.395 -0.86 -0.4 0.845 -0.86 -0.4 2.395 -0.815 0.4 0.845 -0.82818 0.43182 0.845 -0.82818 0.43182 2.395 -0.815 0.4 2.395 -0.86 0.445 0.845 -0.86 0.445 2.395 -0.89182 0.43182 0.845 -0.89182 0.43182 2.395 -0.905 0.4 0.845 -0.905 0.4 2.395 -0.89182 0.36818 0.845 -0.89182 0.36818 2.395 -0.86 0.355 0.845 -0.86 0.355 2.395 -0.82818 0.36818 0.845 -0.82818 0.36818 2.395 -0.86 0.4 0.845 -0.86 0.4 2.395 -0.92 -0.46 2.3 -0.92 0.46 2.3 -0.8 0.46 2.3 -0.8 -0.46 2.3 -0.92 -0.46 2.4 -0.8 -0.46 2.4 -0.8 0.46 2.4 -0.92 0.46 2.4 0.505 -0.3 1.145 0.49182 -0.26818 1.145 0.49182 -0.26818 2.095 0.505 -0.3 2.095 0.46 -0.255 1.145 0.46 -0.255 2.095 0.42818 -0.26818 1.145 0.42818 -0.26818 2.095 0.415 -0.3 1.145 0.415 -0.3 2.095 0.42818 -0.33182 1.145 0.42818 -0.33182 2.095 0.46 -0.345 1.145 0.46 -0.345 2.095 0.49182 -0.33182 1.145 0.49182 -0.33182 2.095 0.46 -0.3 1.145 0.46 -0.3 2.095 -1.3 -0.3 0.5 -1.3 0.3 0.5 -0.95 0.3 0.5 -0.95 -0.3 0.5 -1.3 -0.3 0.62 -0.95 -0.3 0.62 -0.95 0.3 0.62 -1.3 0.3 0.62 -0.95 -0.42 0.46 -0.95 0.42 0.46 1.45 0.42 0.46 1.45 -0.42 0.46 -0.95 -0.42 0.86 1.45 -0.42 0.86 1.45 0.42 0.86 -0.95 0.42 0.86 0.42 -0.36 0.8 0.42 0.36 0.8 1.52 0.36 0.8 1.52 -0.36 0.8 0.42 -0.36 1.24 1.52 -0.36 1.24 1.52 0.36 1.24 0.42 0.36 1.24 0.1 -0.3 1.1 0.1 0.3 1.1 0.52 0.3 1.1 0.52 -0.3 1.1 0.1 -0.3 1.32 0.52 -0.3 1.32 0.52 0.3 1.32 0.1 0.3 1.32 -1.12 -1.03 1.02 -1.12 -0.77 1.02 0.05 -0.77 1.02 0.05 -1.03 1.02 -1.12 -1.03 1.14 0.05 -1.03 1.14 0.05 -0.77 1.14 -1.12 -0.77 1.14 -1.12 -1.03 0.55 -1.12 -0.77 0.55 -1 -0.77 0.55 -1 -1.03 0.55 -1.12 -1.03 1.14 -1 -1.03 1.14 -1 -0.77 1.14 -1.12 -0.77 1.14 -1.12 0.77 1.02 -1.12 1.03 1.02 0.05 1.03 1.02 0.05 0.77 1.02 -1.12 0.77 1.14 0.05 0.77 1.14 0.05 1.03 1.14 -1.12 1.03 1.14 -1.12 0.77 0.55 -1.12 1.03 0.55 -1 1.03 0.55 -1 0.77 0.55 -1.12 0.77 1.14 -1 0.77 1.14 -1 1.03 1.14 -1.12 1.03 1.14 0.21 -0.74 0.72 0.16314 -0.62686 0.72 0.12013 -0.62686 0.96391 0.16417 -0.74 0.97994 0.05 -0.58 0.72 0.013816 -0.58 0.92521 -0.063137 -0.62686 0.72 -0.092499 -0.62686 0.88652 -0.11 -0.74 0.72 -0.13654 -0.74 0.87049 -0.063137 -0.85314 0.72 -0.092499 -0.85314 0.88652 0.05 -0.9 0.72 0.013816 -0.9 0.92521 0.16314 -0.85314 0.72 0.12013 -0.85314 0.96391 -0.0037053 -0.62686 1.1784 0.032194 -0.74 1.2085 -0.090373 -0.58 1.1057 -0.17704 -0.62686 1.0329 -0.21294 -0.74 1.0028 -0.17704 -0.85314 1.0329 -0.090373 -0.9 1.1057 -0.0037053 -0.85314 1.1784 -0.19343 -0.62686 1.3376 -0.17 -0.74 1.3782 -0.25 -0.58 1.2396 -0.30657 -0.62686 1.1416 -0.33 -0.74 1.1011 -0.30657 -0.85314 1.1416 -0.25 -0.9 1.2396 -0.19343 -0.85314 1.3376 -0.42617 -0.62686 1.4223 -0.41803 -0.74 1.4685 -0.44581 -0.58 1.3109 -0.46546 -0.62686 1.1995 -0.47359 -0.74 1.1533 -0.46546 -0.85314 1.1995 -0.44581 -0.9 1.3109 -0.42617 -0.85314 1.4223 -0.67383 -0.62686 1.4223 -0.68197 -0.74 1.4685 -0.65419 -0.58 1.3109 -0.63454 -0.62686 1.1995 -0.62641 -0.74 1.1533 -0.63454 -0.85314 1.1995 -0.65419 -0.9 1.3109 -0.67383 -0.85314 1.4223 -0.90657 -0.62686 1.3376 -0.93 -0.74 1.3782 -0.85 -0.58 1.2396 -0.79343 -0.62686 1.1416 -0.77 -0.74 1.1011 -0.79343 -0.85314 1.1416 -0.85 -0.9 1.2396 -0.90657 -0.85314 1.3376 -1.0963 -0.62686 1.1784 -1.1322 -0.74 1.2085 -1.0096 -0.58 1.1057 -0.92296 -0.62686 1.0329 -0.88706 -0.74 1.0028 -0.92296 -0.85314 1.0329 -1.0096 -0.9 1.1057 -1.0963 -0.85314 1.1784 -1.2201 -0.62686 0.96391 -1.2642 -0.74 0.97994 -1.1138 -0.58 0.92521 -1.0075 -0.62686 0.88652 -0.96346 -0.74 0.87049 -1.0075 -0.85314 0.88652 -1.1138 -0.9 0.92521 -1.2201 -0.85314 0.96391 -1.2631 -0.62686 0.72 -1.31 -0.74 0.72 -1.15 -0.58 0.72 -1.0369 -0.62686 0.72 -0.99 -0.74 0.72 -1.0369 -0.85314 0.72 -1.15 -0.9 0.72 -1.2631 -0.85314 0.72 -1.2201 -0.62686 0.47609 -1.2642 -0.74 0.46006 -1.1138 -0.58 0.51479 -1.0075 -0.62686 0.55348 -0.96346 -0.74 0.56951 -1.0075 -0.85314 0.55348 -1.1138 -0.9 0.51479 -1.2201 -0.85314 0.47609 -1.0963 -0.62686 0.2616 -1.1322 -0.74 0.23148 -1.0096 -0.58 0.33433 -0.92296 -0.62686 0.40705 -0.88706 -0.74 0.43717 -0.92296 -0.85314 0.40705 -1.0096 -0.9 0.33433 -1.0963 -0.85314 0.2616 -0.90657 -0.62686 0.10241 -0.93 -0.74 0.061821 -0.85 -0.58 0.20038 -0.79343 -0.62686 0.29836 -0.77 -0.74 0.33895 -0.79343 -0.85314 0.29836 -0.85 -0.9 0.20038 -0.90657 -0.85314 0.10241 -0.67383 -0.62686 0.017697 -0.68197 -0.74 -0.028454 -0.65419 -0.58 0.12912 -0.63454 -0.62686 0.24053 -0.62641 -0.74 0.28668 -0.63454 -0.85314 0.24053 -0.65419 -0.9 0.12912 -0.67383 -0.85314 0.017697 -0.42617 -0.62686 0.017697 -0.41803 -0.74 -0.028454 -0.44581 -0.58 0.12912 -0.46546 -0.62686 0.24053 -0.47359 -0.74 0.28668 -0.46546 -0.85314 0.24053 -0.44581 -0.9 0.12912 -0.42617 -0.85314 0.017697 -0.19343 -0.62686 0.10241 -0.17 -0.74 0.061821 -0.25 -0.58 0.20038 -0.30657 -0.62686 0.29836 -0.33 -0.74 0.33895 -0.30657 -0.85314 0.29836 -0.25 -0.9 0.20038 -0.19343 -0.85314 0.10241 -0.0037053 -0.62686 0.2616 0.032194 -0.74 0.23148 -0.090373 -0.58 0.33433 -0.17704 -0.62686 0.40705 -0.21294 -0.74 0.43717 -0.17704 -0.85314 0.40705 -0.090373 -0.9 0.33433 -0.0037053 -0.85314 0.2616 0.12013 -0.62686 0.47609 0.16417 -0.74 0.46006 0.013816 -0.58 0.51479 -0.092499 -0.62686 0.55348 -0.13654 -0.74 0.56951 -0.092499 -0.85314 0.55348 0.013816 -0.9 0.51479 0.12013 -0.85314 0.47609 0.21 0.74 0.72 0.16314 0.85314 0.72 0.12013 0.85314 0.96391 0.16417 0.74 0.97994 0.05 0.9 0.72 0.013816 0.9 0.92521 -0.063137 0.85314 0.72 -0.092499 0.85314 0.88652 -0.11 0.74 0.72 -0.13654 0.74 0.87049 -0.063137 0.62686 0.72 -0.092499 0.62686 0.88652 0.05 0.58 0.72 0.013816 0.58 0.92521 0.16314 0.62686 0.72 0.12013 0.62686 0.96391 -0.0037053 0.85314 1.1784 0.032194 0.74 1.2085 -0.090373 0.9 1.1057 -0.17704 0.85314 1.0329 -0.21294 0.74 1.0028 -0.17704 0.62686 1.0329 -0.090373 0.58 1.1057 -0.0037053 0.62686 1.1784 -0.19343 0.85314 1.3376 -0.17 0.74 1.3782 -0.25 0.9 1.2396 -0.30657 0.85314 1.1416 -0.33 0.74 1.1011 -0.30657 0.62686 1.1416 -0.25 0.58 1.2396 -0.19343 0.62686 1.3376 -0.42617 0.85314 1.4223 -0.41803 0.74 1.4685 -0.44581 0.9 1.3109 -0.46546 0.85314 1.1995 -0.47359 0.74 1.1533 -0.46546 0.62686 1.1995 -0.44581 0.58 1.3109 -0.42617 0.62686 1.4223 -0.67383 0.85314 1.4223 -0.68197 0.74 1.4685 -0.65419 0.9 1.3109 -0.63454 0.85314 1.1995 -0.62641 0.74 1.1533 -0.63454 0.62686 1.1995 -0.65419 0.58 1.3109 -0.67383 0.62686 1.4223 -0.90657 0.85314 1.3376 -0.93 0.74 1.3782 -0.85 0.9 1.2396 -0.79343 0.85314 1.1416 -0.77 0.74 1.1011 -0.79343 0.62686 1.1416 -0.85 0.58 1.2396 -0.90657 0.62686 1.3376 -1.0963 0.85314 1.1784 -1.1322 0.74 1.2085 -1.0096 0.9 1.1057 -0.92296 0.85314 1.0329 -0.88706 0.74 1.0028 -0.92296 0.62686 1.0329 -1.0096 0.58 1.1057 -1.0963 0.62686 1.1784 -1.2201 0.85314 0.96391 -1.2642 0.74 0.97994 -1.1138 0.9 0.92521 -1.0075 0.85314 0.88652 -0.96346 0.74 0.87049 -1.0075 0.62686 0.88652 -1.1138 0.58 0.92521 -1.2201 0.62686 0.96391 -1.2631 0.85314 0.72 -1.31 0.74 0.72 -1.15 0.9 0.72 -1.0369 0.85314 0.72 -0.99 0.74 0.72 -1.0369 0.62686 0.72 -1.15 0.58 0.72 -1.2631 0.62686 0.72 -1.2201 0.85314 0.47609 -1.2642 0.74 0.46006 -1.1138 0.9 0.51479 -1.0075 0.85314 0.55348 -0.96346 0.74 0.56951 -1.0075 0.62686 0.55348 -1.1138 0.58 0.51479 -1.2201 0.62686 0.47609 -1.0963 0.85314 0.2616 -1.1322 0.74 0.23148 -1.0096 0.9 0.33433 -0.92296 0.85314 0.40705 -0.88706 0.74 0.43717 -0.92296 0.62686 0.40705 -1.0096 0.58 0.33433 -1.0963 0.62686 0.2616 -0.90657 0.85314 0.10241 -0.93 0.74 0.061821 -0.85 0.9 0.20038 -0.79343 0.85314 0.29836 -0.77 0.74 0.33895 -0.79343 0.62686 0.29836 -0.85 0.58 0.20038 -0.90657 0.62686 0.10241 -0.67383 0.85314 0.017697 -0.68197 0.74 -0.028454 -0.65419 0.9 0.12912 -0.63454 0.85314 0.24053 -0.62641 0.74 0.28668 -0.63454 0.62686 0.24053 -0.65419 0.58 0.12912 -0.67383 0.62686 0.017697 -0.42617 0.85314 0.017697 -0.41803 0.74 -0.028454 -0.44581 0.9 0.12912 -0.46546 0.85314 0.24053 -0.47359 0.74 0.28668 -0.46546 0.62686 0.24053 -0.44581 0.58 0.12912 -0.42617 0.62686 0.017697 -0.19343 0.85314 0.10241 -0.17 0.74 0.061821 -0.25 0.9 0.20038 -0.30657 0.85314 0.29836 -0.33 0.74 0.33895 -0.30657 0.62686 0.29836 -0.25 0.58 0.20038 -0.19343 0.62686 0.10241 -0.0037053 0.85314 0.2616 0.032194 0.74 0.23148 -0.090373 0.9 0.33433 -0.17704 0.85314 0.40705 -0.21294 0.74 0.43717 -0.17704 0.62686 0.40705 -0.090373 0.58 0.33433 -0.0037053 0.62686 0.2616 0.12013 0.85314 0.47609 0.16417 0.74 0.46006 0.013816 0.9 0.51479 -0.092499 0.85314 0.55348 -0.13654 0.74 0.56951 -0.092499 0.62686 0.55348 0.013816 0.58 0.51479 0.12013 0.62686 0.47609 1.67 -0.56 0.38 1.6361 -0.48964 0.38 1.609 -0.48964 0.51628 1.6403 -0.56 0.52925 1.56 -0.47226 0.38 1.5387 -0.47226 0.48714 1.4989 -0.52095 0.38 1.4822 -0.52095 0.46377 1.4989 -0.59905 0.38 1.4822 -0.59905 0.46377 1.56 -0.64774 0.38 1.5387 -0.64774 0.48714 1.6361 -0.63036 0.38 1.609 -0.63036 0.51628 1.5318 -0.48964 0.63181 1.5558 -0.56 0.65577 1.478 -0.47226 0.57797 1.4348 -0.52095 0.53479 1.4348 -0.59905 0.53479 1.478 -0.64774 0.57797 1.5318 -0.63036 0.63181 1.4163 -0.48964 0.70901 1.4292 -0.56 0.74031 1.3871 -0.47226 0.63866 1.3638 -0.52095 0.58225 1.3638 -0.59905 0.58225 1.3871 -0.64774 0.63866 1.4163 -0.63036 0.70901 1.28 -0.48964 0.73611 1.28 -0.56 0.77 1.28 -0.47226 0.65997 1.28 -0.52095 0.59891 1.28 -0.59905 0.59891 1.28 -0.64774 0.65997 1.28 -0.63036 0.73611 1.1437 -0.48964 0.70901 1.1308 -0.56 0.74031 1.1729 -0.47226 0.63866 1.1962 -0.52095 0.58225 1.1962 -0.59905 0.58225 1.1729 -0.64774 0.63866 1.1437 -0.63036 0.70901 1.0282 -0.48964 0.63181 1.0042 -0.56 0.65577 1.082 -0.47226 0.57797 1.1252 -0.52095 0.53479 1.1252 -0.59905 0.53479 1.082 -0.64774 0.57797 1.0282 -0.63036 0.63181 0.95099 -0.48964 0.51628 0.91969 -0.56 0.52925 1.0213 -0.47226 0.48714 1.0778 -0.52095 0.46377 1.0778 -0.59905 0.46377 1.0213 -0.64774 0.48714 0.95099 -0.63036 0.51628 0.92389 -0.48964 0.38 0.89 -0.56 0.38 1 -0.47226 0.38 1.0611 -0.52095 0.38 1.0611 -0.59905 0.38 1 -0.64774 0.38 0.92389 -0.63036 0.38 0.95099 -0.48964 0.24372 0.91969 -0.56 0.23075 1.0213 -0.47226 0.27286 1.0778 -0.52095 0.29623 1.0778 -0.59905 0.29623 1.0213 -0.64774 0.27286 0.95099 -0.63036 0.24372 1.0282 -0.48964 0.12819 1.0042 -0.56 0.10423 1.082 -0.47226 0.18203 1.1252 -0.52095 0.22521 1.1252 -0.59905 0.22521 1.082 -0.64774 0.18203 1.0282 -0.63036 0.12819 1.1437 -0.48964 0.050993 1.1308 -0.56 0.019687 1.1729 -0.47226 0.12134 1.1962 -0.52095 0.17775 1.1962 -0.59905 0.17775 1.1729 -0.64774 0.12134 1.1437 -0.63036 0.050993 1.28 -0.48964 0.023886 1.28 -0.56 -0.01 1.28 -0.47226 0.10003 1.28 -0.52095 0.16109 1.28 -0.59905 0.16109 1.28 -0.64774 0.10003 1.28 -0.63036 0.023886 1.4163 -0.48964 0.050993 1.4292 -0.56 0.019687 1.3871 -0.47226 0.12134 1.3638 -0.52095 0.17775 1.3638 -0.59905 0.17775 1.3871 -0.64774 0.12134 1.4163 -0.63036 0.050993 1.5318 -0.48964 0.12819 1.5558 -0.56 0.10423 1.478 -0.47226 0.18203 1.4348 -0.52095 0.22521 1.4348 -0.59905 0.22521 1.478 -0.64774 0.18203 1.5318 -0.63036 0.12819 1.609 -0.48964 0.24372 1.6403 -0.56 0.23075 1.5387 -0.47226 0.27286 1.4822 -0.52095 0.29623 1.4822 -0.59905 0.29623 1.5387 -0.64774 0.27286 1.609 -0.63036 0.24372 1.67 0.56 0.38 1.6361 0.63036 0.38 1.609 0.63036 0.51628 1.6403 0.56 0.52925 1.56 0.64774 0.38 1.5387 0.64774 0.48714 1.4989 0.59905 0.38 1.4822 0.59905 0.46377 1.4989 0.52095 0.38 1.4822 0.52095 0.46377 1.56 0.47226 0.38 1.5387 0.47226 0.48714 1.6361 0.48964 0.38 1.609 0.48964 0.51628 1.5318 0.63036 0.63181 1.5558 0.56 0.65577 1.478 0.64774 0.57797 1.4348 0.59905 0.53479 1.4348 0.52095 0.53479 1.478 0.47226 0.57797 1.5318 0.48964 0.63181 1.4163 0.63036 0.70901 1.4292 0.56 0.74031 1.3871 0.64774 0.63866 1.3638 0.59905 0.58225 1.3638 0.52095 0.58225 1.3871 0.47226 0.63866 1.4163 0.48964 0.70901 1.28 0.63036 0.73611 1.28 0.56 0.77 1.28 0.64774 0.65997 1.28 0.59905 0.59891 1.28 0.52095 0.59891 1.28 0.47226 0.65997 1.28 0.48964 0.73611 1.1437 0.63036 0.70901 1.1308 0.56 0.74031 1.1729 0.64774 0.63866 1.1962 0.59905 0.58225 1.1962 0.52095 0.58225 1.1729 0.47226 0.63866 1.1437 0.48964 0.70901 1.0282 0.63036 0.63181 1.0042 0.56 0.65577 1.082 0.64774 0.57797 1.1252 0.59905 0.53479 1.1252 0.52095 0.53479 1.082 0.47226 0.57797 1.0282 0.48964 0.63181 0.95099 0.63036 0.51628 0.91969 0.56 0.52925 1.0213 0.64774 0.48714 1.0778 0.59905 0.46377 1.0778 0.52095 0.46377 1.0213 0.47226 0.48714 0.95099 0.48964 0.51628 0.92389 0.63036 0.38 0.89 0.56 0.38 1 0.64774 0.38 1.0611 0.59905 0.38 1.0611 0.52095 0.38 1 0.47226 0.38 0.92389 0.48964 0.38 0.95099 0.63036 0.24372 0.91969 0.56 0.23075 1.0213 0.64774 0.27286 1.0778 0.59905 0.29623 1.0778 0.52095 0.29623 1.0213 0.47226 0.27286 0.95099 0.48964 0.24372 1.0282 0.63036 0.12819 1.0042 0.56 0.10423 1.082 0.64774 0.18203 1.1252 0.59905 0.22521 1.1252 0.52095 0.22521 1.082 0.47226 0.18203 1.0282 0.48964 0.12819 1.1437 0.63036 0.050993 1.1308 0.56 0.019687 1.1729 0.64774 0.12134 1.1962 0.59905 0.17775 1.1962 0.52095 0.17775 1.1729 0.47226 0.12134 1.1437 0.48964 0.050993 1.28 0.63036 0.023886 1.28 0.56 -0.01 1.28 0.64774 0.10003 1.28 0.59905 0.16109 1.28 0.52095 0.16109 1.28 0.47226 0.10003 1.28 0.48964 0.023886 1.4163 0.63036 0.050993 1.4292 0.56 0.019687 1.3871 0.64774 0.12134 1.3638 0.59905 0.17775 1.3638 0.52095 0.17775 1.3871 0.47226 0.12134 1.4163 0.48964 0.050993 1.5318 0.63036 0.12819 1.5558 0.56 0.10423 1.478 0.64774 0.18203 1.4348 0.59905 0.22521 1.4348 0.52095 0.22521 1.478 0.47226 0.18203 1.5318 0.48964 0.12819 1.609 0.63036 0.24372 1.6403 0.56 0.23075 1.5387 0.64774 0.27286 1.4822 0.59905 0.29623 1.4822 0.52095 0.29623 1.5387 0.47226 0.27286 1.609 0.48964 0.24372 -0.62 -0.24 0.86 -0.62 0.24 0.86 -0.18 0.24 0.86 -0.18 -0.24 0.86 -0.62 -0.24 1 -0.18 -0.24 1 -0.18 0.24 1 -0.62 0.24 1 -0.7 -0.24 1 -0.7 0.24 1 -0.58 0.24 1 -0.58 -0.24 1 -0.7 -0.24 1.42 -0.58 -0.24 1.42 -0.58 0.24 1.42 -0.7 0.24 1.42 1.51 -0.185 1.1 1.51 -0.19932 1.1441 1.61 -0.19932 1.1441 1.61 -0.185 1.1 1.51 -0.23682 1.1713 1.61 -0.23682 1.1713 1.51 -0.28318 1.1713 1.61 -0.28318 1.1713 1.51 -0.32068 1.1441 1.61 -0.32068 1.1441 1.51 -0.335 1.1 1.61 -0.335 1.1 1.51 -0.32068 1.0559 1.61 -0.32068 1.0559 1.51 -0.28318 1.0287 1.61 -0.28318 1.0287 1.51 -0.23682 1.0287 1.61 -0.23682 1.0287 1.51 -0.19932 1.0559 1.61 -0.19932 1.0559 1.51 -0.26 1.1 1.61 -0.26 1.1 1.51 0.335 1.1 1.51 0.32068 1.1441 1.61 0.32068 1.1441 1.61 0.335 1.1 1.51 0.28318 1.1713 1.61 0.28318 1.1713 1.51 0.23682 1.1713 1.61 0.23682 1.1713 1.51 0.19932 1.1441 1.61 0.19932 1.1441 1.51 0.185 1.1 1.61 0.185 1.1 1.51 0.19932 1.0559 1.61 0.19932 1.0559 1.51 0.23682 1.0287 1.61 0.23682 1.0287 1.51 0.28318 1.0287 1.61 0.28318 1.0287 1.51 0.32068 1.0559 1.61 0.32068 1.0559 1.51 0.26 1.1 1.61 0.26 1.1</float_array><technique_common><accessor source="#TRACTOR-pos-a" count="924" stride="3"><param name="X" type="float"/><param name="Y" type="float"/><param name="Z" type="float"/></accessor></technique_common></source>
        <source id="TRACTOR-nrm"><float_array id="TRACTOR-nrm-a" count="1014">-0.975 0 -0.223 -0.782 0 -0.623 -0.434 0 -0.901 0 0 -1 0.434 0 -0.901 0.782 0 -0.623 0.975 0 -0.223 0.975 0 0.223 0.782 0 0.623 0.434 0 0.901 0 0 1 -0.434 0 0.901 -0.782 0 0.623 -0.975 0 0.223 0 1 0 0 -1 -0 -0.966 0 -0.259 -0.707 -0 -0.707 -0.259 0 -0.966 0.259 0 -0.966 0.707 0 -0.707 0.966 0 -0.259 0.966 0 0.259 0.707 0 0.707 0.259 0 0.966 -0.259 0 0.966 -0.707 0 0.707 -0.966 0 0.259 -0.924 0 -0.383 -0.383 0 -0.924 0.383 -0 -0.924 0.924 0 -0.383 0.924 -0 0.383 0.383 0 0.924 -0.383 0 0.924 -0.924 0 0.383 1 0 0 -1 0 0 0 0.924 0.383 0 0.383 0.924 0 -0.383 0.924 0 -0.924 0.383 0 -0.924 -0.383 0 -0.383 -0.924 0 0.383 -0.924 0 0.924 -0.383 0.796 0.578 0.182 -0.308 0.949 -0.07 -0.308 -0.949 -0.07 0.796 -0.578 0.182 0.638 0.578 0.509 -0.247 0.949 -0.197 -0.247 -0.949 -0.197 0.638 -0.578 0.509 0.354 0.578 0.735 -0.137 0.949 -0.285 -0.137 -0.949 -0.285 0.354 -0.578 0.735 0 0.578 0.816 0 0.949 -0.316 0 -0.949 -0.316 0 -0.578 0.816 -0.354 0.578 0.735 0.137 0.949 -0.285 0.137 -0.949 -0.285 -0.354 -0.578 0.735 -0.638 0.578 0.509 0.247 0.949 -0.197 0.247 -0.949 -0.197 -0.638 -0.578 0.509 -0.796 0.578 0.182 0.308 0.949 -0.07 0.308 -0.949 -0.07 -0.796 -0.578 0.182 -0.796 0.578 -0.182 0.308 0.949 0.07 0.308 -0.949 0.07 -0.796 -0.578 -0.182 -0.638 0.578 -0.509 0.247 0.949 0.197 0.247 -0.949 0.197 -0.638 -0.578 -0.509 -0.354 0.578 -0.735 0.137 0.949 0.285 0.137 -0.949 0.285 -0.354 -0.578 -0.735 0 0.578 -0.816 0 0.949 0.316 0 -0.949 0.316 0 -0.578 -0.816 0.354 0.578 -0.735 -0.137 0.949 0.285 -0.137 -0.949 0.285 0.354 -0.578 -0.735 0.638 0.578 -0.509 -0.247 0.949 0.197 -0.247 -0.949 0.197 0.638 -0.578 -0.509 0.796 0.578 -0.182 -0.308 0.949 0.07 -0.308 -0.949 0.07 0.796 -0.578 -0.182 0.924 0.383 0 0.383 0.924 0 -0.383 0.924 0 -0.924 0.383 0 -0.924 -0.383 0 -0.383 -0.924 0 0.383 -0.924 0 0.924 -0.383 0 0.727 0.687 0 0.683 0.687 0.249 0.94 0 0.342 0.042 0.999 -0 0.04 0.999 0.015 -0.685 0.729 -0 -0.643 0.729 -0.234 -0.94 -0 -0.342 -0.685 -0.729 -0 -0.643 -0.729 -0.234 0.042 -0.999 0 0.04 -0.999 0.015 0.727 -0.687 0 0.683 -0.687 0.249 0.557 0.687 0.467 0.766 0 0.643 0.033 0.999 0.027 -0.524 0.729 -0.44 -0.766 -0 -0.643 -0.524 -0.729 -0.44 0.033 -0.999 0.027 0.557 -0.687 0.467 0.364 0.687 0.63 0.5 0 0.866 0.021 0.999 0.037 -0.342 0.729 -0.593 -0.5 -0 -0.866 -0.342 -0.729 -0.593 0.021 -0.999 0.037 0.364 -0.687 0.63 0.126 0.687 0.716 0.174 0 0.985 0.007 0.999 0.042 -0.119 0.729 -0.674 -0.174 -0 -0.985 -0.119 -0.729 -0.674 0.007 -0.999 0.042 0.126 -0.687 0.716 -0.126 0.687 0.716 -0.174 0 0.985 -0.007 0.999 0.042 0.119 0.729 -0.674 0.174 -0 -0.985 0.119 -0.729 -0.674 -0.007 -0.999 0.042 -0.126 -0.687 0.716 -0.364 0.687 0.63 -0.5 0 0.866 -0.021 0.999 0.037 0.342 0.729 -0.593 0.5 -0 -0.866 0.342 -0.729 -0.593 -0.021 -0.999 0.037 -0.364 -0.687 0.63 -0.557 0.687 0.467 -0.766 -0 0.643 -0.033 0.999 0.027 0.524 0.729 -0.44 0.766 -0 -0.643 0.524 -0.729 -0.44 -0.033 -0.999 0.027 -0.557 -0.687 0.467 -0.683 0.687 0.249 -0.94 -0 0.342 -0.04 0.999 0.015 0.643 0.729 -0.234 0.94 -0 -0.342 0.643 -0.729 -0.234 -0.04 -0.999 0.015 -0.683 -0.687 0.249 -0.727 0.687 0 -0.042 0.999 0 0.685 0.729 -0 0.685 -0.729 0 -0.042 -0.999 0 -0.727 -0.687 0 -0.683 0.687 -0.249 -0.04 0.999 -0.015 0.643 0.729 0.234 0.643 -0.729 0.234 -0.04 -0.999 -0.015 -0.683 -0.687 -0.249 -0.557 0.687 -0.467 -0.033 0.999 -0.027 0.524 0.729 0.44 0.524 -0.729 0.44 -0.033 -0.999 -0.027 -0.557 -0.687 -0.467 -0.364 0.687 -0.63 -0.021 0.999 -0.037 0.342 0.729 0.593 0.342 -0.729 0.593 -0.021 -0.999 -0.037 -0.364 -0.687 -0.63 -0.126 0.687 -0.716 -0.007 0.999 -0.042 0.119 0.729 0.674 0.119 -0.729 0.674 -0.007 -0.999 -0.042 -0.126 -0.687 -0.716 0.126 0.687 -0.716 0.007 0.999 -0.042 -0.119 0.729 0.674 -0.119 -0.729 0.674 0.007 -0.999 -0.042 0.126 -0.687 -0.716 0.364 0.687 -0.63 0.021 0.999 -0.037 -0.342 0.729 0.593 -0.342 -0.729 0.593 0.021 -0.999 -0.037 0.364 -0.687 -0.63 0.557 0.687 -0.467 0.033 0.999 -0.027 -0.524 0.729 0.44 -0.524 -0.729 0.44 0.033 -0.999 -0.027 0.557 -0.687 -0.467 0.683 0.687 -0.249 0.04 0.999 -0.015 -0.643 0.729 0.234 -0.643 -0.729 0.234 0.04 -0.999 -0.015 0.683 -0.687 -0.249 0.654 0.756 -0 0.605 0.756 0.25 -0.17 0.985 -0 -0.157 0.985 -0.065 -0.89 0.456 0 -0.822 0.456 -0.34 -0.89 -0.456 0 -0.822 -0.456 -0.34 -0.17 -0.985 0 -0.157 -0.985 -0.065 0.654 -0.756 -0 0.605 -0.756 0.25 0.463 0.756 0.463 -0.12 0.985 -0.12 -0.629 0.456 -0.629 -0.629 -0.456 -0.629 -0.12 -0.985 -0.12 0.463 -0.756 0.463 0.25 0.756 0.605 -0.065 0.985 -0.157 -0.34 0.456 -0.822 -0.34 -0.456 -0.822 -0.065 -0.985 -0.157 0.25 -0.756 0.605 -0 0.756 0.654 0 0.985 -0.17 0 0.456 -0.89 0 -0.456 -0.89 0 -0.985 -0.17 -0 -0.756 0.654 -0.25 0.756 0.605 0.065 0.985 -0.157 0.34 0.456 -0.822 0.34 -0.456 -0.822 0.065 -0.985 -0.157 -0.25 -0.756 0.605 -0.463 0.756 0.463 0.12 0.985 -0.12 0.629 0.456 -0.629 0.629 -0.456 -0.629 0.12 -0.985 -0.12 -0.463 -0.756 0.463 -0.605 0.756 0.25 0.157 0.985 -0.065 0.822 0.456 -0.34 0.822 -0.456 -0.34 0.157 -0.985 -0.065 -0.605 -0.756 0.25 -0.654 0.756 -0 0.17 0.985 -0 0.89 0.456 0 0.89 -0.456 0 0.17 -0.985 0 -0.654 -0.756 -0 -0.605 0.756 -0.25 0.157 0.985 0.065 0.822 0.456 0.34 0.822 -0.456 0.34 0.157 -0.985 0.065 -0.605 -0.756 -0.25 -0.463 0.756 -0.463 0.12 0.985 0.12 0.629 0.456 0.629 0.629 -0.456 0.629 0.12 -0.985 0.12 -0.463 -0.756 -0.463 -0.25 0.756 -0.605 0.065 0.985 0.157 0.34 0.456 0.822 0.34 -0.456 0.822 0.065 -0.985 0.157 -0.25 -0.756 -0.605 0 0.756 -0.654 0 0.985 0.17 0 0.456 0.89 0 -0.456 0.89 0 -0.985 0.17 0 -0.756 -0.654 0.25 0.756 -0.605 -0.065 0.985 0.157 -0.34 0.456 0.822 -0.34 -0.456 0.822 -0.065 -0.985 0.157 0.25 -0.756 -0.605 0.463 0.756 -0.463 -0.12 0.985 0.12 -0.629 0.456 0.629 -0.629 -0.456 0.629 -0.12 -0.985 0.12 0.463 -0.756 -0.463 0.605 0.756 -0.25 -0.157 0.985 0.065 -0.822 0.456 0.34 -0.822 -0.456 0.34 -0.157 -0.985 0.065 0.605 -0.756 -0.25 0 0.951 0.309 0 0.588 0.809 0 -0.588 0.809 0 -0.951 0.309 0 -0.951 -0.309 0 -0.588 -0.809 0 0.588 -0.809 0 0.951 -0.309</float_array><technique_common><accessor source="#TRACTOR-nrm-a" count="338" stride="3"><param name="X" type="float"/><param name="Y" type="float"/><param name="Z" type="float"/></accessor></technique_common></source>
        <vertices id="TRACTOR-vtx"><input semantic="POSITION" source="#TRACTOR-pos"/></vertices>
        <triangles count="500" material="MAT_METAL-mat"><input semantic="VERTEX" source="#TRACTOR-vtx" offset="0"/><input semantic="NORMAL" source="#TRACTOR-nrm" offset="1"/><p>0 0 1 0 2 0 0 0 2 0 3 0 1 1 4 1 5 1 1 1 5 1 2 1 4 2 6 2 7 2 4 2 7 2 5 2 6 3 8 3 9 3 6 3 9 3 7 3 8 4 10 4 11 4 8 4 11 4 9 4 10 5 12 5 13 5 10 5 13 5 11 5 12 6 14 6 15 6 12 6 15 6 13 6 14 7 16 7 17 7 14 7 17 7 15 7 16 8 18 8 19 8 16 8 19 8 17 8 18 9 20 9 21 9 18 9 21 9 19 9 20 10 22 10 23 10 20 10 23 10 21 10 22 11 24 11 25 11 22 11 25 11 23 11 24 12 26 12 27 12 24 12 27 12 25 12 26 13 0 13 3 13 26 13 3 13 27 13 1 14 0 14 28 14 3 15 2 15 29 15 4 14 1 14 28 14 2 15 5 15 29 15 6 14 4 14 28 14 5 15 7 15 29 15 8 14 6 14 28 14 7 15 9 15 29 15 10 14 8 14 28 14 9 15 11 15 29 15 12 14 10 14 28 14 11 15 13 15 29 15 14 14 12 14 28 14 13 15 15 15 29 15 16 14 14 14 28 14 15 15 17 15 29 15 18 14 16 14 28 14 17 15 19 15 29 15 20 14 18 14 28 14 19 15 21 15 29 15 22 14 20 14 28 14 21 15 23 15 29 15 24 14 22 14 28 14 23 15 25 15 29 15 26 14 24 14 28 14 25 15 27 15 29 15 0 14 26 14 28 14 27 15 3 15 29 15 30 0 31 0 32 0 30 0 32 0 33 0 31 1 34 1 35 1 31 1 35 1 32 1 34 2 36 2 37 2 34 2 37 2 35 2 36 3 38 3 39 3 36 3 39 3 37 3 38 4 40 4 41 4 38 4 41 4 39 4 40 5 42 5 43 5 40 5 43 5 41 5 42 6 44 6 45 6 42 6 45 6 43 6 44 7 46 7 47 7 44 7 47 7 45 7 46 8 48 8 49 8 46 8 49 8 47 8 48 9 50 9 51 9 48 9 51 9 49 9 50 10 52 10 53 10 50 10 53 10 51 10 52 11 54 11 55 11 52 11 55 11 53 11 54 12 56 12 57 12 54 12 57 12 55 12 56 13 30 13 33 13 56 13 33 13 57 13 31 14 30 14 58 14 33 15 32 15 59 15 34 14 31 14 58 14 32 15 35 15 59 15 36 14 34 14 58 14 35 15 37 15 59 15 38 14 36 14 58 14 37 15 39 15 59 15 40 14 38 14 58 14 39 15 41 15 59 15 42 14 40 14 58 14 41 15 43 15 59 15 44 14 42 14 58 14 43 15 45 15 59 15 46 14 44 14 58 14 45 15 47 15 59 15 48 14 46 14 58 14 47 15 49 15 59 15 50 14 48 14 58 14 49 15 51 15 59 15 52 14 50 14 58 14 51 15 53 15 59 15 54 14 52 14 58 14 53 15 55 15 59 15 56 14 54 14 58 14 55 15 57 15 59 15 30 14 56 14 58 14 57 15 33 15 59 15 60 16 61 16 62 16 60 16 62 16 63 16 61 17 64 17 65 17 61 17 65 17 62 17 64 18 66 18 67 18 64 18 67 18 65 18 66 19 68 19 69 19 66 19 69 19 67 19 68 20 70 20 71 20 68 20 71 20 69 20 70 21 72 21 73 21 70 21 73 21 71 21 72 22 74 22 75 22 72 22 75 22 73 22 74 23 76 23 77 23 74 23 77 23 75 23 76 24 78 24 79 24 76 24 79 24 77 24 78 25 80 25 81 25 78 25 81 25 79 25 80 26 82 26 83 26 80 26 83 26 81 26 82 27 60 27 63 27 82 27 63 27 83 27 61 14 60 14 84 14 63 15 62 15 85 15 64 14 61 14 84 14 62 15 65 15 85 15 66 14 64 14 84 14 65 15 67 15 85 15 68 14 66 14 84 14 67 15 69 15 85 15 70 14 68 14 84 14 69 15 71 15 85 15 72 14 70 14 84 14 71 15 73 15 85 15 74 14 72 14 84 14 73 15 75 15 85 15 76 14 74 14 84 14 75 15 77 15 85 15 78 14 76 14 84 14 77 15 79 15 85 15 80 14 78 14 84 14 79 15 81 15 85 15 82 14 80 14 84 14 81 15 83 15 85 15 60 14 82 14 84 14 83 15 63 15 85 15 86 16 87 16 88 16 86 16 88 16 89 16 87 17 90 17 91 17 87 17 91 17 88 17 90 18 92 18 93 18 90 18 93 18 91 18 92 19 94 19 95 19 92 19 95 19 93 19 94 20 96 20 97 20 94 20 97 20 95 20 96 21 98 21 99 21 96 21 99 21 97 21 98 22 100 22 101 22 98 22 101 22 99 22 100 23 102 23 103 23 100 23 103 23 101 23 102 24 104 24 105 24 102 24 105 24 103 24 104 25 106 25 107 25 104 25 107 25 105 25 106 26 108 26 109 26 106 26 109 26 107 26 108 27 86 27 89 27 108 27 89 27 109 27 87 14 86 14 110 14 89 15 88 15 111 15 90 14 87 14 110 14 88 15 91 15 111 15 92 14 90 14 110 14 91 15 93 15 111 15 94 14 92 14 110 14 93 15 95 15 111 15 96 14 94 14 110 14 95 15 97 15 111 15 98 14 96 14 110 14 97 15 99 15 111 15 100 14 98 14 110 14 99 15 101 15 111 15 102 14 100 14 110 14 101 15 103 15 111 15 104 14 102 14 110 14 103 15 105 15 111 15 106 14 104 14 110 14 105 15 107 15 111 15 108 14 106 14 110 14 107 15 109 15 111 15 86 14 108 14 110 14 109 15 89 15 111 15 112 28 113 28 114 28 112 28 114 28 115 28 113 29 116 29 117 29 113 29 117 29 114 29 116 30 118 30 119 30 116 30 119 30 117 30 118 31 120 31 121 31 118 31 121 31 119 31 120 32 122 32 123 32 120 32 123 32 121 32 122 33 124 33 125 33 122 33 125 33 123 33 124 34 126 34 127 34 124 34 127 34 125 34 126 35 112 35 115 35 126 35 115 35 127 35 113 14 112 14 128 14 115 15 114 15 129 15 116 14 113 14 128 14 114 15 117 15 129 15 118 14 116 14 128 14 117 15 119 15 129 15 120 14 118 14 128 14 119 15 121 15 129 15 122 14 120 14 128 14 121 15 123 15 129 15 124 14 122 14 128 14 123 15 125 15 129 15 126 14 124 14 128 14 125 15 127 15 129 15 112 14 126 14 128 14 127 15 115 15 129 15 130 3 131 3 132 3 130 3 132 3 133 3 134 10 135 10 136 10 134 10 136 10 137 10 130 15 133 15 135 15 130 15 135 15 134 15 133 36 132 36 136 36 133 36 136 36 135 36 132 14 131 14 137 14 132 14 137 14 136 14 131 37 130 37 134 37 131 37 134 37 137 37 138 38 139 38 140 38 138 38 140 38 141 38 139 39 142 39 143 39 139 39 143 39 140 39 142 40 144 40 145 40 142 40 145 40 143 40 144 41 146 41 147 41 144 41 147 41 145 41 146 42 148 42 149 42 146 42 149 42 147 42 148 43 150 43 151 43 148 43 151 43 149 43 150 44 152 44 153 44 150 44 153 44 151 44 152 45 138 45 141 45 152 45 141 45 153 45 139 37 138 37 154 37 141 36 140 36 155 36 142 37 139 37 154 37 140 36 143 36 155 36 144 37 142 37 154 37 143 36 145 36 155 36 146 37 144 37 154 37 145 36 147 36 155 36 148 37 146 37 154 37 147 36 149 36 155 36 150 37 148 37 154 37 149 36 151 36 155 36 152 37 150 37 154 37 151 36 153 36 155 36 138 37 152 37 154 37 153 36 141 36 155 36 156 46 157 46 158 46 156 46 158 46 159 46 157 47 160 47 161 47 157 47 161 47 158 47 160 0 162 0 163 0 160 0 163 0 161 0 162 48 164 48 165 48 162 48 165 48 163 48 164 49 156 49 159 49 164 49 159 49 165 49 159 50 158 50 166 50 159 50 166 50 167 50 158 51 161 51 168 51 158 51 168 51 166 51 161 1 163 1 169 1 161 1 169 1 168 1 163 52 165 52 170 52 163 52 170 52 169 52 165 53 159 53 167 53 165 53 167 53 170 53 167 54 166 54 171 54 167 54 171 54 172 54 166 55 168 55 173 55 166 55 173 55 171 55 168 2 169 2 174 2 168 2 174 2 173 2 169 56 170 56 175 56 169 56 175 56 174 56 170 57 167 57 172 57 170 57 172 57 175 57 172 58 171 58 176 58 172 58 176 58 177 58 171 59 173 59 178 59 171 59 178 59 176 59 173 3 174 3 179 3 173 3 179 3 178 3 174 60 175 60 180 60 174 60 180 60 179 60 175 61 172 61 177 61 175 61 177 61 180 61 177 62 176 62 181 62 177 62 181 62 182 62 176 63 178 63 183 63 176 63 183 63 181 63 178 4 179 4 184 4 178 4 184 4 183 4 179 64 180 64 185 64 179 64 185 64 184 64 180 65 177 65 182 65 180 65 182 65 185 65 182 66 181 66 186 66 182 66 186 66 187 66 181 67 183 67 188 67 181 67 188 67 186 67 183 5 184 5 189 5 183 5 189 5 188 5 184 68 185 68 190 68 184 68 190 68 189 68 185 69 182 69 187 69 185 69 187 69 190 69 187 70 186 70 191 70 187 70 191 70 192 70 186 71 188 71 193 71 186 71 193 71 191 71 188 6 189 6 194 6 188 6 194 6 193 6 189 72 190 72 195 72 189 72 195 72 194 72 190 73 187 73 192 73 190 73 192 73 195 73 192 74 191 74 196 74 192 74 196 74 197 74 191 75 193 75 198 75 191 75 198 75 196 75 193 7 194 7 199 7 193 7 199 7 198 7 194 76 195 76 200 76 194 76 200 76 199 76 195 77 192 77 197 77 195 77 197 77 200 77 197 78 196 78 201 78 197 78 201 78 202 78 196 79 198 79 203 79 196 79 203 79 201 79 198 8 199 8 204 8 198 8 204 8 203 8 199 80 200 80 205 80 199 80 205 80 204 80 200 81 197 81 202 81 200 81 202 81 205 81 202 82 201 82 206 82 202 82 206 82 207 82 201 83 203 83 208 83 201 83 208 83 206 83 203 9 204 9 209 9 203 9 209 9 208 9 204 84 205 84 210 84 204 84 210 84 209 84 205 85 202 85 207 85 205 85 207 85 210 85 207 86 206 86 211 86 207 86 211 86 212 86 206 87 208 87 213 87 206 87 213 87 211 87 208 10 209 10 214 10 208 10 214 10 213 10 209 88 210 88 215 88 209 88 215 88 214 88 210 89 207 89 212 89 210 89 212 89 215 89 212 90 211 90 216 90 212 90 216 90 217 90 211 91 213 91 218 91 211 91 218 91 216 91 213 11 214 11 219 11 213 11 219 11 218 11 214 92 215 92 220 92 214 92 220 92 219 92 215 93 212 93 217 93 215 93 217 93 220 93 217 94 216 94 221 94 217 94 221 94 222 94 216 95 218 95 223 95 216 95 223 95 221 95 218 12 219 12 224 12 218 12 224 12 223 12 219 96 220 96 225 96 219 96 225 96 224 96 220 97 217 97 222 97 220 97 222 97 225 97 222 98 221 98 157 98 222 98 157 98 156 98 221 99 223 99 160 99 221 99 160 99 157 99 223 13 224 13 162 13 223 13 162 13 160 13 224 100 225 100 164 100 224 100 164 100 162 100 225 101 222 101 156 101 225 101 156 101 164 101 226 102 227 102 228 102 226 102 228 102 229 102 227 103 230 103 231 103 227 103 231 103 228 103 230 104 232 104 233 104 230 104 233 104 231 104 232 105 234 105 235 105 232 105 235 105 233 105 234 106 236 106 237 106 234 106 237 106 235 106 236 107 238 107 239 107 236 107 239 107 237 107 238 108 240 108 241 108 238 108 241 108 239 108 240 109 226 109 229 109 240 109 229 109 241 109 227 3 226 3 242 3 229 10 228 10 243 10 230 3 227 3 242 3 228 10 231 10 243 10 232 3 230 3 242 3 231 10 233 10 243 10 234 3 232 3 242 3 233 10 235 10 243 10 236 3 234 3 242 3 235 10 237 10 243 10 238 3 236 3 242 3 237 10 239 10 243 10 240 3 238 3 242 3 239 10 241 10 243 10 226 3 240 3 242 3 241 10 229 10 243 10 244 102 245 102 246 102 244 102 246 102 247 102 245 103 248 103 249 103 245 103 249 103 246 103 248 104 250 104 251 104 248 104 251 104 249 104 250 105 252 105 253 105 250 105 253 105 251 105 252 106 254 106 255 106 252 106 255 106 253 106 254 107 256 107 257 107 254 107 257 107 255 107 256 108 258 108 259 108 256 108 259 108 257 108 258 109 244 109 247 109 258 109 247 109 259 109 245 3 244 3 260 3 247 10 246 10 261 10 248 3 245 3 260 3 246 10 249 10 261 10 250 3 248 3 260 3 249 10 251 10 261 10 252 3 250 3 260 3 251 10 253 10 261 10 254 3 252 3 260 3 253 10 255 10 261 10 256 3 254 3 260 3 255 10 257 10 261 10 258 3 256 3 260 3 257 10 259 10 261 10 244 3 258 3 260 3 259 10 247 10 261 10 262 3 263 3 264 3 262 3 264 3 265 3 266 10 267 10 268 10 266 10 268 10 269 10 262 15 265 15 267 15 262 15 267 15 266 15 265 36 264 36 268 36 265 36 268 36 267 36 264 14 263 14 269 14 264 14 269 14 268 14 263 37 262 37 266 37 263 37 266 37 269 37</p></triangles>
        <triangles count="44" material="MAT_RUST-mat"><input semantic="VERTEX" source="#TRACTOR-vtx" offset="0"/><input semantic="NORMAL" source="#TRACTOR-nrm" offset="1"/><p>270 102 271 102 272 102 270 102 272 102 273 102 271 103 274 103 275 103 271 103 275 103 272 103 274 104 276 104 277 104 274 104 277 104 275 104 276 105 278 105 279 105 276 105 279 105 277 105 278 106 280 106 281 106 278 106 281 106 279 106 280 107 282 107 283 107 280 107 283 107 281 107 282 108 284 108 285 108 282 108 285 108 283 108 284 109 270 109 273 109 284 109 273 109 285 109 271 3 270 3 286 3 273 10 272 10 287 10 274 3 271 3 286 3 272 10 275 10 287 10 276 3 274 3 286 3 275 10 277 10 287 10 278 3 276 3 286 3 277 10 279 10 287 10 280 3 278 3 286 3 279 10 281 10 287 10 282 3 280 3 286 3 281 10 283 10 287 10 284 3 282 3 286 3 283 10 285 10 287 10 270 3 284 3 286 3 285 10 273 10 287 10 288 3 289 3 290 3 288 3 290 3 291 3 292 10 293 10 294 10 292 10 294 10 295 10 288 15 291 15 293 15 288 15 293 15 292 15 291 36 290 36 294 36 291 36 294 36 293 36 290 14 289 14 295 14 290 14 295 14 294 14 289 37 288 37 292 37 289 37 292 37 295 37</p></triangles>
        <triangles count="84" material="MAT_PAINT-mat"><input semantic="VERTEX" source="#TRACTOR-vtx" offset="0"/><input semantic="NORMAL" source="#TRACTOR-nrm" offset="1"/><p>296 3 297 3 298 3 296 3 298 3 299 3 300 10 301 10 302 10 300 10 302 10 303 10 296 15 299 15 301 15 296 15 301 15 300 15 299 36 298 36 302 36 299 36 302 36 301 36 298 14 297 14 303 14 298 14 303 14 302 14 297 37 296 37 300 37 297 37 300 37 303 37 304 3 305 3 306 3 304 3 306 3 307 3 308 10 309 10 310 10 308 10 310 10 311 10 304 15 307 15 309 15 304 15 309 15 308 15 307 36 306 36 310 36 307 36 310 36 309 36 306 14 305 14 311 14 306 14 311 14 310 14 305 37 304 37 308 37 305 37 308 37 311 37 312 3 313 3 314 3 312 3 314 3 315 3 316 10 317 10 318 10 316 10 318 10 319 10 312 15 315 15 317 15 312 15 317 15 316 15 315 36 314 36 318 36 315 36 318 36 317 36 314 14 313 14 319 14 314 14 319 14 318 14 313 37 312 37 316 37 313 37 316 37 319 37 320 3 321 3 322 3 320 3 322 3 323 3 324 10 325 10 326 10 324 10 326 10 327 10 320 15 323 15 325 15 320 15 325 15 324 15 323 36 322 36 326 36 323 36 326 36 325 36 322 14 321 14 327 14 322 14 327 14 326 14 321 37 320 37 324 37 321 37 324 37 327 37 328 3 329 3 330 3 328 3 330 3 331 3 332 10 333 10 334 10 332 10 334 10 335 10 328 15 331 15 333 15 328 15 333 15 332 15 331 36 330 36 334 36 331 36 334 36 333 36 330 14 329 14 335 14 330 14 335 14 334 14 329 37 328 37 332 37 329 37 332 37 335 37 336 3 337 3 338 3 336 3 338 3 339 3 340 10 341 10 342 10 340 10 342 10 343 10 336 15 339 15 341 15 336 15 341 15 340 15 339 36 338 36 342 36 339 36 342 36 341 36 338 14 337 14 343 14 338 14 343 14 342 14 337 37 336 37 340 37 337 37 340 37 343 37 344 3 345 3 346 3 344 3 346 3 347 3 348 10 349 10 350 10 348 10 350 10 351 10 344 15 347 15 349 15 344 15 349 15 348 15 347 36 346 36 350 36 347 36 350 36 349 36 346 14 345 14 351 14 346 14 351 14 350 14 345 37 344 37 348 37 345 37 348 37 351 37</p></triangles>
        <triangles count="1024" material="MAT_TYRE-mat"><input semantic="VERTEX" source="#TRACTOR-vtx" offset="0"/><input semantic="NORMAL" source="#TRACTOR-nrm" offset="1"/><p>352 36 353 110 354 111 352 36 354 111 355 112 353 110 356 113 357 114 353 110 357 114 354 111 356 113 358 115 359 116 356 113 359 116 357 114 358 115 360 37 361 117 358 115 361 117 359 116 360 37 362 118 363 119 360 37 363 119 361 117 362 118 364 120 365 121 362 118 365 121 363 119 364 120 366 122 367 123 364 120 367 123 365 121 366 122 352 36 355 112 366 122 355 112 367 123 355 112 354 111 368 124 355 112 368 124 369 125 354 111 357 114 370 126 354 111 370 126 368 124 357 114 359 116 371 127 357 114 371 127 370 126 359 116 361 117 372 128 359 116 372 128 371 127 361 117 363 119 373 129 361 117 373 129 372 128 363 119 365 121 374 130 363 119 374 130 373 129 365 121 367 123 375 131 365 121 375 131 374 130 367 123 355 112 369 125 367 123 369 125 375 131 369 125 368 124 376 132 369 125 376 132 377 133 368 124 370 126 378 134 368 124 378 134 376 132 370 126 371 127 379 135 370 126 379 135 378 134 371 127 372 128 380 136 371 127 380 136 379 135 372 128 373 129 381 137 372 128 381 137 380 136 373 129 374 130 382 138 373 129 382 138 381 137 374 130 375 131 383 139 374 130 383 139 382 138 375 131 369 125 377 133 375 131 377 133 383 139 377 133 376 132 384 140 377 133 384 140 385 141 376 132 378 134 386 142 376 132 386 142 384 140 378 134 379 135 387 143 378 134 387 143 386 142 379 135 380 136 388 144 379 135 388 144 387 143 380 136 381 137 389 145 380 136 389 145 388 144 381 137 382 138 390 146 381 137 390 146 389 145 382 138 383 139 391 147 382 138 391 147 390 146 383 139 377 133 385 141 383 139 385 141 391 147 385 141 384 140 392 148 385 141 392 148 393 149 384 140 386 142 394 150 384 140 394 150 392 148 386 142 387 143 395 151 386 142 395 151 394 150 387 143 388 144 396 152 387 143 396 152 395 151 388 144 389 145 397 153 388 144 397 153 396 152 389 145 390 146 398 154 389 145 398 154 397 153 390 146 391 147 399 155 390 146 399 155 398 154 391 147 385 141 393 149 391 147 393 149 399 155 393 149 392 148 400 156 393 149 400 156 401 157 392 148 394 150 402 158 392 148 402 158 400 156 394 150 395 151 403 159 394 150 403 159 402 158 395 151 396 152 404 160 395 151 404 160 403 159 396 152 397 153 405 161 396 152 405 161 404 160 397 153 398 154 406 162 397 153 406 162 405 161 398 154 399 155 407 163 398 154 407 163 406 162 399 155 393 149 401 157 399 155 401 157 407 163 401 157 400 156 408 164 401 157 408 164 409 165 400 156 402 158 410 166 400 156 410 166 408 164 402 158 403 159 411 167 402 158 411 167 410 166 403 159 404 160 412 168 403 159 412 168 411 167 404 160 405 161 413 169 404 160 413 169 412 168 405 161 406 162 414 170 405 161 414 170 413 169 406 162 407 163 415 171 406 162 415 171 414 170 407 163 401 157 409 165 407 163 409 165 415 171 409 165 408 164 416 172 409 165 416 172 417 173 408 164 410 166 418 174 408 164 418 174 416 172 410 166 411 167 419 175 410 166 419 175 418 174 411 167 412 168 420 176 411 167 420 176 419 175 412 168 413 169 421 177 412 168 421 177 420 176 413 169 414 170 422 178 413 169 422 178 421 177 414 170 415 171 423 179 414 170 423 179 422 178 415 171 409 165 417 173 415 171 417 173 423 179 417 173 416 172 424 180 417 173 424 180 425 37 416 172 418 174 426 181 416 172 426 181 424 180 418 174 419 175 427 182 418 174 427 182 426 181 419 175 420 176 428 36 419 175 428 36 427 182 420 176 421 177 429 183 420 176 429 183 428 36 421 177 422 178 430 184 421 177 430 184 429 183 422 178 423 179 431 185 422 178 431 185 430 184 423 179 417 173 425 37 423 179 425 37 431 185 425 37 424 180 432 186 425 37 432 186 433 117 424 180 426 181 434 187 424 180 434 187 432 186 426 181 427 182 435 188 426 181 435 188 434 187 427 182 428 36 436 112 427 182 436 112 435 188 428 36 429 183 437 189 428 36 437 189 436 112 429 183 430 184 438 190 429 183 438 190 437 189 430 184 431 185 439 191 430 184 439 191 438 190 431 185 425 37 433 117 431 185 433 117 439 191 433 117 432 186 440 192 433 117 440 192 441 128 432 186 434 187 442 193 432 186 442 193 440 192 434 187 435 188 443 194 434 187 443 194 442 193 435 188 436 112 444 125 435 188 444 125 443 194 436 112 437 189 445 195 436 112 445 195 444 125 437 189 438 190 446 196 437 189 446 196 445 195 438 190 439 191 447 197 438 190 447 197 446 196 439 191 433 117 441 128 439 191 441 128 447 197 441 128 440 192 448 198 441 128 448 198 449 136 440 192 442 193 450 199 440 192 450 199 448 198 442 193 443 194 451 200 442 193 451 200 450 199 443 194 444 125 452 133 443 194 452 133 451 200 444 125 445 195 453 201 444 125 453 201 452 133 445 195 446 196 454 202 445 195 454 202 453 201 446 196 447 197 455 203 446 196 455 203 454 202 447 197 441 128 449 136 447 197 449 136 455 203 449 136 448 198 456 204 449 136 456 204 457 144 448 198 450 199 458 205 448 198 458 205 456 204 450 199 451 200 459 206 450 199 459 206 458 205 451 200 452 133 460 141 451 200 460 141 459 206 452 133 453 201 461 207 452 133 461 207 460 141 453 201 454 202 462 208 453 201 462 208 461 207 454 202 455 203 463 209 454 202 463 209 462 208 455 203 449 136 457 144 455 203 457 144 463 209 457 144 456 204 464 210 457 144 464 210 465 152 456 204 458 205 466 211 456 204 466 211 464 210 458 205 459 206 467 212 458 205 467 212 466 211 459 206 460 141 468 149 459 206 468 149 467 212 460 141 461 207 469 213 460 141 469 213 468 149 461 207 462 208 470 214 461 207 470 214 469 213 462 208 463 209 471 215 462 208 471 215 470 214 463 209 457 144 465 152 463 209 465 152 471 215 465 152 464 210 472 216 465 152 472 216 473 160 464 210 466 211 474 217 464 210 474 217 472 216 466 211 467 212 475 218 466 211 475 218 474 217 467 212 468 149 476 157 467 212 476 157 475 218 468 149 469 213 477 219 468 149 477 219 476 157 469 213 470 214 478 220 469 213 478 220 477 219 470 214 471 215 479 221 470 214 479 221 478 220 471 215 465 152 473 160 471 215 473 160 479 221 473 160 472 216 480 222 473 160 480 222 481 168 472 216 474 217 482 223 472 216 482 223 480 222 474 217 475 218 483 224 474 217 483 224 482 223 475 218 476 157 484 165 475 218 484 165 483 224 476 157 477 219 485 225 476 157 485 225 484 165 477 219 478 220 486 226 477 219 486 226 485 225 478 220 479 221 487 227 478 220 487 227 486 226 479 221 473 160 481 168 479 221 481 168 487 227 481 168 480 222 488 228 481 168 488 228 489 176 480 222 482 223 490 229 480 222 490 229 488 228 482 223 483 224 491 230 482 223 491 230 490 229 483 224 484 165 492 173 483 224 492 173 491 230 484 165 485 225 493 231 484 165 493 231 492 173 485 225 486 226 494 232 485 225 494 232 493 231 486 226 487 227 495 233 486 226 495 233 494 232 487 227 481 168 489 176 487 227 489 176 495 233 489 176 488 228 353 110 489 176 353 110 352 36 488 228 490 229 356 113 488 228 356 113 353 110 490 229 491 230 358 115 490 229 358 115 356 113 491 230 492 173 360 37 491 230 360 37 358 115 492 173 493 231 362 118 492 173 362 118 360 37 493 231 494 232 364 120 493 231 364 120 362 118 494 232 495 233 366 122 494 232 366 122 364 120 495 233 489 176 352 36 495 233 352 36 366 122 496 36 497 110 498 111 496 36 498 111 499 112 497 110 500 113 501 114 497 110 501 114 498 111 500 113 502 115 503 116 500 113 503 116 501 114 502 115 504 37 505 117 502 115 505 117 503 116 504 37 506 118 507 119 504 37 507 119 505 117 506 118 508 120 509 121 506 118 509 121 507 119 508 120 510 122 511 123 508 120 511 123 509 121 510 122 496 36 499 112 510 122 499 112 511 123 499 112 498 111 512 124 499 112 512 124 513 125 498 111 501 114 514 126 498 111 514 126 512 124 501 114 503 116 515 127 501 114 515 127 514 126 503 116 505 117 516 128 503 116 516 128 515 127 505 117 507 119 517 129 505 117 517 129 516 128 507 119 509 121 518 130 507 119 518 130 517 129 509 121 511 123 519 131 509 121 519 131 518 130 511 123 499 112 513 125 511 123 513 125 519 131 513 125 512 124 520 132 513 125 520 132 521 133 512 124 514 126 522 134 512 124 522 134 520 132 514 126 515 127 523 135 514 126 523 135 522 134 515 127 516 128 524 136 515 127 524 136 523 135 516 128 517 129 525 137 516 128 525 137 524 136 517 129 518 130 526 138 517 129 526 138 525 137 518 130 519 131 527 139 518 130 527 139 526 138 519 131 513 125 521 133 519 131 521 133 527 139 521 133 520 132 528 140 521 133 528 140 529 141 520 132 522 134 530 142 520 132 530 142 528 140 522 134 523 135 531 143 522 134 531 143 530 142 523 135 524 136 532 144 523 135 532 144 531 143 524 136 525 137 533 145 524 136 533 145 532 144 525 137 526 138 534 146 525 137 534 146 533 145 526 138 527 139 535 147 526 138 535 147 534 146 527 139 521 133 529 141 527 139 529 141 535 147 529 141 528 140 536 148 529 141 536 148 537 149 528 140 530 142 538 150 528 140 538 150 536 148 530 142 531 143 539 151 530 142 539 151 538 150 531 143 532 144 540 152 531 143 540 152 539 151 532 144 533 145 541 153 532 144 541 153 540 152 533 145 534 146 542 154 533 145 542 154 541 153 534 146 535 147 543 155 534 146 543 155 542 154 535 147 529 141 537 149 535 147 537 149 543 155 537 149 536 148 544 156 537 149 544 156 545 157 536 148 538 150 546 158 536 148 546 158 544 156 538 150 539 151 547 159 538 150 547 159 546 158 539 151 540 152 548 160 539 151 548 160 547 159 540 152 541 153 549 161 540 152 549 161 548 160 541 153 542 154 550 162 541 153 550 162 549 161 542 154 543 155 551 163 542 154 551 163 550 162 543 155 537 149 545 157 543 155 545 157 551 163 545 157 544 156 552 164 545 157 552 164 553 165 544 156 546 158 554 166 544 156 554 166 552 164 546 158 547 159 555 167 546 158 555 167 554 166 547 159 548 160 556 168 547 159 556 168 555 167 548 160 549 161 557 169 548 160 557 169 556 168 549 161 550 162 558 170 549 161 558 170 557 169 550 162 551 163 559 171 550 162 559 171 558 170 551 163 545 157 553 165 551 163 553 165 559 171 553 165 552 164 560 172 553 165 560 172 561 173 552 164 554 166 562 174 552 164 562 174 560 172 554 166 555 167 563 175 554 166 563 175 562 174 555 167 556 168 564 176 555 167 564 176 563 175 556 168 557 169 565 177 556 168 565 177 564 176 557 169 558 170 566 178 557 169 566 178 565 177 558 170 559 171 567 179 558 170 567 179 566 178 559 171 553 165 561 173 559 171 561 173 567 179 561 173 560 172 568 180 561 173 568 180 569 37 560 172 562 174 570 181 560 172 570 181 568 180 562 174 563 175 571 182 562 174 571 182 570 181 563 175 564 176 572 36 563 175 572 36 571 182 564 176 565 177 573 183 564 176 573 183 572 36 565 177 566 178 574 184 565 177 574 184 573 183 566 178 567 179 575 185 566 178 575 185 574 184 567 179 561 173 569 37 567 179 569 37 575 185 569 37 568 180 576 186 569 37 576 186 577 117 568 180 570 181 578 187 568 180 578 187 576 186 570 181 571 182 579 188 570 181 579 188 578 187 571 182 572 36 580 112 571 182 580 112 579 188 572 36 573 183 581 189 572 36 581 189 580 112 573 183 574 184 582 190 573 183 582 190 581 189 574 184 575 185 583 191 574 184 583 191 582 190 575 185 569 37 577 117 575 185 577 117 583 191 577 117 576 186 584 192 577 117 584 192 585 128 576 186 578 187 586 193 576 186 586 193 584 192 578 187 579 188 587 194 578 187 587 194 586 193 579 188 580 112 588 125 579 188 588 125 587 194 580 112 581 189 589 195 580 112 589 195 588 125 581 189 582 190 590 196 581 189 590 196 589 195 582 190 583 191 591 197 582 190 591 197 590 196 583 191 577 117 585 128 583 191 585 128 591 197 585 128 584 192 592 198 585 128 592 198 593 136 584 192 586 193 594 199 584 192 594 199 592 198 586 193 587 194 595 200 586 193 595 200 594 199 587 194 588 125 596 133 587 194 596 133 595 200 588 125 589 195 597 201 588 125 597 201 596 133 589 195 590 196 598 202 589 195 598 202 597 201 590 196 591 197 599 203 590 196 599 203 598 202 591 197 585 128 593 136 591 197 593 136 599 203 593 136 592 198 600 204 593 136 600 204 601 144 592 198 594 199 602 205 592 198 602 205 600 204 594 199 595 200 603 206 594 199 603 206 602 205 595 200 596 133 604 141 595 200 604 141 603 206 596 133 597 201 605 207 596 133 605 207 604 141 597 201 598 202 606 208 597 201 606 208 605 207 598 202 599 203 607 209 598 202 607 209 606 208 599 203 593 136 601 144 599 203 601 144 607 209 601 144 600 204 608 210 601 144 608 210 609 152 600 204 602 205 610 211 600 204 610 211 608 210 602 205 603 206 611 212 602 205 611 212 610 211 603 206 604 141 612 149 603 206 612 149 611 212 604 141 605 207 613 213 604 141 613 213 612 149 605 207 606 208 614 214 605 207 614 214 613 213 606 208 607 209 615 215 606 208 615 215 614 214 607 209 601 144 609 152 607 209 609 152 615 215 609 152 608 210 616 216 609 152 616 216 617 160 608 210 610 211 618 217 608 210 618 217 616 216 610 211 611 212 619 218 610 211 619 218 618 217 611 212 612 149 620 157 611 212 620 157 619 218 612 149 613 213 621 219 612 149 621 219 620 157 613 213 614 214 622 220 613 213 622 220 621 219 614 214 615 215 623 221 614 214 623 221 622 220 615 215 609 152 617 160 615 215 617 160 623 221 617 160 616 216 624 222 617 160 624 222 625 168 616 216 618 217 626 223 616 216 626 223 624 222 618 217 619 218 627 224 618 217 627 224 626 223 619 218 620 157 628 165 619 218 628 165 627 224 620 157 621 219 629 225 620 157 629 225 628 165 621 219 622 220 630 226 621 219 630 226 629 225 622 220 623 221 631 227 622 220 631 227 630 226 623 221 617 160 625 168 623 221 625 168 631 227 625 168 624 222 632 228 625 168 632 228 633 176 624 222 626 223 634 229 624 222 634 229 632 228 626 223 627 224 635 230 626 223 635 230 634 229 627 224 628 165 636 173 627 224 636 173 635 230 628 165 629 225 637 231 628 165 637 231 636 173 629 225 630 226 638 232 629 225 638 232 637 231 630 226 631 227 639 233 630 226 639 233 638 232 631 227 625 168 633 176 631 227 633 176 639 233 633 176 632 228 497 110 633 176 497 110 496 36 632 228 634 229 500 113 632 228 500 113 497 110 634 229 635 230 502 115 634 229 502 115 500 113 635 230 636 173 504 37 635 230 504 37 502 115 636 173 637 231 506 118 636 173 506 118 504 37 637 231 638 232 508 120 637 231 508 120 506 118 638 232 639 233 510 122 638 232 510 122 508 120 639 233 633 176 496 36 639 233 496 36 510 122 640 36 641 234 642 235 640 36 642 235 643 32 641 234 644 236 645 237 641 234 645 237 642 235 644 236 646 238 647 239 644 236 647 239 645 237 646 238 648 240 649 241 646 238 649 241 647 239 648 240 650 242 651 243 648 240 651 243 649 241 650 242 652 244 653 245 650 242 653 245 651 243 652 244 640 36 643 32 652 244 643 32 653 245 643 32 642 235 654 246 643 32 654 246 655 23 642 235 645 237 656 247 642 235 656 247 654 246 645 237 647 239 657 248 645 237 657 248 656 247 647 239 649 241 658 249 647 239 658 249 657 248 649 241 651 243 659 250 649 241 659 250 658 249 651 243 653 245 660 251 651 243 660 251 659 250 653 245 643 32 655 23 653 245 655 23 660 251 655 23 654 246 661 252 655 23 661 252 662 33 654 246 656 247 663 253 654 246 663 253 661 252 656 247 657 248 664 254 656 247 664 254 663 253 657 248 658 249 665 255 657 248 665 255 664 254 658 249 659 250 666 256 658 249 666 256 665 255 659 250 660 251 667 257 659 250 667 257 666 256 660 251 655 23 662 33 660 251 662 33 667 257 662 33 661 252 668 258 662 33 668 258 669 10 661 252 663 253 670 259 661 252 670 259 668 258 663 253 664 254 671 260 663 253 671 260 670 259 664 254 665 255 672 261 664 254 672 261 671 260 665 255 666 256 673 262 665 255 673 262 672 261 666 256 667 257 674 263 666 256 674 263 673 262 667 257 662 33 669 10 667 257 669 10 674 263 669 10 668 258 675 264 669 10 675 264 676 34 668 258 670 259 677 265 668 258 677 265 675 264 670 259 671 260 678 266 670 259 678 266 677 265 671 260 672 261 679 267 671 260 679 267 678 266 672 261 673 262 680 268 672 261 680 268 679 267 673 262 674 263 681 269 673 262 681 269 680 268 674 263 669 10 676 34 674 263 676 34 681 269 676 34 675 264 682 270 676 34 682 270 683 26 675 264 677 265 684 271 675 264 684 271 682 270 677 265 678 266 685 272 677 265 685 272 684 271 678 266 679 267 686 273 678 266 686 273 685 272 679 267 680 268 687 274 679 267 687 274 686 273 680 268 681 269 688 275 680 268 688 275 687 274 681 269 676 34 683 26 681 269 683 26 688 275 683 26 682 270 689 276 683 26 689 276 690 35 682 270 684 271 691 277 682 270 691 277 689 276 684 271 685 272 692 278 684 271 692 278 691 277 685 272 686 273 693 279 685 272 693 279 692 278 686 273 687 274 694 280 686 273 694 280 693 279 687 274 688 275 695 281 687 274 695 281 694 280 688 275 683 26 690 35 688 275 690 35 695 281 690 35 689 276 696 282 690 35 696 282 697 37 689 276 691 277 698 283 689 276 698 283 696 282 691 277 692 278 699 284 691 277 699 284 698 283 692 278 693 279 700 285 692 278 700 285 699 284 693 279 694 280 701 286 693 279 701 286 700 285 694 280 695 281 702 287 694 280 702 287 701 286 695 281 690 35 697 37 695 281 697 37 702 287 697 37 696 282 703 288 697 37 703 288 704 28 696 282 698 283 705 289 696 282 705 289 703 288 698 283 699 284 706 290 698 283 706 290 705 289 699 284 700 285 707 291 699 284 707 291 706 290 700 285 701 286 708 292 700 285 708 292 707 291 701 286 702 287 709 293 701 286 709 293 708 292 702 287 697 37 704 28 702 287 704 28 709 293 704 28 703 288 710 294 704 28 710 294 711 17 703 288 705 289 712 295 703 288 712 295 710 294 705 289 706 290 713 296 705 289 713 296 712 295 706 290 707 291 714 297 706 290 714 297 713 296 707 291 708 292 715 298 707 291 715 298 714 297 708 292 709 293 716 299 708 292 716 299 715 298 709 293 704 28 711 17 709 293 711 17 716 299 711 17 710 294 717 300 711 17 717 300 718 29 710 294 712 295 719 301 710 294 719 301 717 300 712 295 713 296 720 302 712 295 720 302 719 301 713 296 714 297 721 303 713 296 721 303 720 302 714 297 715 298 722 304 714 297 722 304 721 303 715 298 716 299 723 305 715 298 723 305 722 304 716 299 711 17 718 29 716 299 718 29 723 305 718 29 717 300 724 306 718 29 724 306 725 3 717 300 719 301 726 307 717 300 726 307 724 306 719 301 720 302 727 308 719 301 727 308 726 307 720 302 721 303 728 309 720 302 728 309 727 308 721 303 722 304 729 310 721 303 729 310 728 309 722 304 723 305 730 311 722 304 730 311 729 310 723 305 718 29 725 3 723 305 725 3 730 311 725 3 724 306 731 312 725 3 731 312 732 30 724 306 726 307 733 313 724 306 733 313 731 312 726 307 727 308 734 314 726 307 734 314 733 313 727 308 728 309 735 315 727 308 735 315 734 314 728 309 729 310 736 316 728 309 736 316 735 315 729 310 730 311 737 317 729 310 737 317 736 316 730 311 725 3 732 30 730 311 732 30 737 317 732 30 731 312 738 318 732 30 738 318 739 20 731 312 733 313 740 319 731 312 740 319 738 318 733 313 734 314 741 320 733 313 741 320 740 319 734 314 735 315 742 321 734 314 742 321 741 320 735 315 736 316 743 322 735 315 743 322 742 321 736 316 737 317 744 323 736 316 744 323 743 322 737 317 732 30 739 20 737 317 739 20 744 323 739 20 738 318 745 324 739 20 745 324 746 31 738 318 740 319 747 325 738 318 747 325 745 324 740 319 741 320 748 326 740 319 748 326 747 325 741 320 742 321 749 327 741 320 749 327 748 326 742 321 743 322 750 328 742 321 750 328 749 327 743 322 744 323 751 329 743 322 751 329 750 328 744 323 739 20 746 31 744 323 746 31 751 329 746 31 745 324 641 234 746 31 641 234 640 36 745 324 747 325 644 236 745 324 644 236 641 234 747 325 748 326 646 238 747 325 646 238 644 236 748 326 749 327 648 240 748 326 648 240 646 238 749 327 750 328 650 242 749 327 650 242 648 240 750 328 751 329 652 244 750 328 652 244 650 242 751 329 746 31 640 36 751 329 640 36 652 244 752 36 753 234 754 235 752 36 754 235 755 32 753 234 756 236 757 237 753 234 757 237 754 235 756 236 758 238 759 239 756 236 759 239 757 237 758 238 760 240 761 241 758 238 761 241 759 239 760 240 762 242 763 243 760 240 763 243 761 241 762 242 764 244 765 245 762 242 765 245 763 243 764 244 752 36 755 32 764 244 755 32 765 245 755 32 754 235 766 246 755 32 766 246 767 23 754 235 757 237 768 247 754 235 768 247 766 246 757 237 759 239 769 248 757 237 769 248 768 247 759 239 761 241 770 249 759 239 770 249 769 248 761 241 763 243 771 250 761 241 771 250 770 249 763 243 765 245 772 251 763 243 772 251 771 250 765 245 755 32 767 23 765 245 767 23 772 251 767 23 766 246 773 252 767 23 773 252 774 33 766 246 768 247 775 253 766 246 775 253 773 252 768 247 769 248 776 254 768 247 776 254 775 253 769 248 770 249 777 255 769 248 777 255 776 254 770 249 771 250 778 256 770 249 778 256 777 255 771 250 772 251 779 257 771 250 779 257 778 256 772 251 767 23 774 33 772 251 774 33 779 257 774 33 773 252 780 258 774 33 780 258 781 10 773 252 775 253 782 259 773 252 782 259 780 258 775 253 776 254 783 260 775 253 783 260 782 259 776 254 777 255 784 261 776 254 784 261 783 260 777 255 778 256 785 262 777 255 785 262 784 261 778 256 779 257 786 263 778 256 786 263 785 262 779 257 774 33 781 10 779 257 781 10 786 263 781 10 780 258 787 264 781 10 787 264 788 34 780 258 782 259 789 265 780 258 789 265 787 264 782 259 783 260 790 266 782 259 790 266 789 265 783 260 784 261 791 267 783 260 791 267 790 266 784 261 785 262 792 268 784 261 792 268 791 267 785 262 786 263 793 269 785 262 793 269 792 268 786 263 781 10 788 34 786 263 788 34 793 269 788 34 787 264 794 270 788 34 794 270 795 26 787 264 789 265 796 271 787 264 796 271 794 270 789 265 790 266 797 272 789 265 797 272 796 271 790 266 791 267 798 273 790 266 798 273 797 272 791 267 792 268 799 274 791 267 799 274 798 273 792 268 793 269 800 275 792 268 800 275 799 274 793 269 788 34 795 26 793 269 795 26 800 275 795 26 794 270 801 276 795 26 801 276 802 35 794 270 796 271 803 277 794 270 803 277 801 276 796 271 797 272 804 278 796 271 804 278 803 277 797 272 798 273 805 279 797 272 805 279 804 278 798 273 799 274 806 280 798 273 806 280 805 279 799 274 800 275 807 281 799 274 807 281 806 280 800 275 795 26 802 35 800 275 802 35 807 281 802 35 801 276 808 282 802 35 808 282 809 37 801 276 803 277 810 283 801 276 810 283 808 282 803 277 804 278 811 284 803 277 811 284 810 283 804 278 805 279 812 285 804 278 812 285 811 284 805 279 806 280 813 286 805 279 813 286 812 285 806 280 807 281 814 287 806 280 814 287 813 286 807 281 802 35 809 37 807 281 809 37 814 287 809 37 808 282 815 288 809 37 815 288 816 28 808 282 810 283 817 289 808 282 817 289 815 288 810 283 811 284 818 290 810 283 818 290 817 289 811 284 812 285 819 291 811 284 819 291 818 290 812 285 813 286 820 292 812 285 820 292 819 291 813 286 814 287 821 293 813 286 821 293 820 292 814 287 809 37 816 28 814 287 816 28 821 293 816 28 815 288 822 294 816 28 822 294 823 17 815 288 817 289 824 295 815 288 824 295 822 294 817 289 818 290 825 296 817 289 825 296 824 295 818 290 819 291 826 297 818 290 826 297 825 296 819 291 820 292 827 298 819 291 827 298 826 297 820 292 821 293 828 299 820 292 828 299 827 298 821 293 816 28 823 17 821 293 823 17 828 299 823 17 822 294 829 300 823 17 829 300 830 29 822 294 824 295 831 301 822 294 831 301 829 300 824 295 825 296 832 302 824 295 832 302 831 301 825 296 826 297 833 303 825 296 833 303 832 302 826 297 827 298 834 304 826 297 834 304 833 303 827 298 828 299 835 305 827 298 835 305 834 304 828 299 823 17 830 29 828 299 830 29 835 305 830 29 829 300 836 306 830 29 836 306 837 3 829 300 831 301 838 307 829 300 838 307 836 306 831 301 832 302 839 308 831 301 839 308 838 307 832 302 833 303 840 309 832 302 840 309 839 308 833 303 834 304 841 310 833 303 841 310 840 309 834 304 835 305 842 311 834 304 842 311 841 310 835 305 830 29 837 3 835 305 837 3 842 311 837 3 836 306 843 312 837 3 843 312 844 30 836 306 838 307 845 313 836 306 845 313 843 312 838 307 839 308 846 314 838 307 846 314 845 313 839 308 840 309 847 315 839 308 847 315 846 314 840 309 841 310 848 316 840 309 848 316 847 315 841 310 842 311 849 317 841 310 849 317 848 316 842 311 837 3 844 30 842 311 844 30 849 317 844 30 843 312 850 318 844 30 850 318 851 20 843 312 845 313 852 319 843 312 852 319 850 318 845 313 846 314 853 320 845 313 853 320 852 319 846 314 847 315 854 321 846 314 854 321 853 320 847 315 848 316 855 322 847 315 855 322 854 321 848 316 849 317 856 323 848 316 856 323 855 322 849 317 844 30 851 20 849 317 851 20 856 323 851 20 850 318 857 324 851 20 857 324 858 31 850 318 852 319 859 325 850 318 859 325 857 324 852 319 853 320 860 326 852 319 860 326 859 325 853 320 854 321 861 327 853 320 861 327 860 326 854 321 855 322 862 328 854 321 862 328 861 327 855 322 856 323 863 329 855 322 863 329 862 328 856 323 851 20 858 31 856 323 858 31 863 329 858 31 857 324 753 234 858 31 753 234 752 36 857 324 859 325 756 236 857 324 756 236 753 234 859 325 860 326 758 238 859 325 758 238 756 236 860 326 861 327 760 240 860 326 760 240 758 238 861 327 862 328 762 242 861 327 762 242 760 240 862 328 863 329 764 244 862 328 764 244 762 242 863 329 858 31 752 36 863 329 752 36 764 244</p></triangles>
        <triangles count="104" material="MAT_SEAT-mat"><input semantic="VERTEX" source="#TRACTOR-vtx" offset="0"/><input semantic="NORMAL" source="#TRACTOR-nrm" offset="1"/><p>864 3 865 3 866 3 864 3 866 3 867 3 868 10 869 10 870 10 868 10 870 10 871 10 864 15 867 15 869 15 864 15 869 15 868 15 867 36 866 36 870 36 867 36 870 36 869 36 866 14 865 14 871 14 866 14 871 14 870 14 865 37 864 37 868 37 865 37 868 37 871 37 872 3 873 3 874 3 872 3 874 3 875 3 876 10 877 10 878 10 876 10 878 10 879 10 872 15 875 15 877 15 872 15 877 15 876 15 875 36 874 36 878 36 875 36 878 36 877 36 874 14 873 14 879 14 874 14 879 14 878 14 873 37 872 37 876 37 873 37 876 37 879 37 880 330 881 330 882 330 880 330 882 330 883 330 881 331 884 331 885 331 881 331 885 331 882 331 884 10 886 10 887 10 884 10 887 10 885 10 886 332 888 332 889 332 886 332 889 332 887 332 888 333 890 333 891 333 888 333 891 333 889 333 890 334 892 334 893 334 890 334 893 334 891 334 892 335 894 335 895 335 892 335 895 335 893 335 894 3 896 3 897 3 894 3 897 3 895 3 896 336 898 336 899 336 896 336 899 336 897 336 898 337 880 337 883 337 898 337 883 337 899 337 881 37 880 37 900 37 883 36 882 36 901 36 884 37 881 37 900 37 882 36 885 36 901 36 886 37 884 37 900 37 885 36 887 36 901 36 888 37 886 37 900 37 887 36 889 36 901 36 890 37 888 37 900 37 889 36 891 36 901 36 892 37 890 37 900 37 891 36 893 36 901 36 894 37 892 37 900 37 893 36 895 36 901 36 896 37 894 37 900 37 895 36 897 36 901 36 898 37 896 37 900 37 897 36 899 36 901 36 880 37 898 37 900 37 899 36 883 36 901 36 902 330 903 330 904 330 902 330 904 330 905 330 903 331 906 331 907 331 903 331 907 331 904 331 906 10 908 10 909 10 906 10 909 10 907 10 908 332 910 332 911 332 908 332 911 332 909 332 910 333 912 333 913 333 910 333 913 333 911 333 912 334 914 334 915 334 912 334 915 334 913 334 914 335 916 335 917 335 914 335 917 335 915 335 916 3 918 3 919 3 916 3 919 3 917 3 918 336 920 336 921 336 918 336 921 336 919 336 920 337 902 337 905 337 920 337 905 337 921 337 903 37 902 37 922 37 905 36 904 36 923 36 906 37 903 37 922 37 904 36 907 36 923 36 908 37 906 37 922 37 907 36 909 36 923 36 910 37 908 37 922 37 909 36 911 36 923 36 912 37 910 37 922 37 911 36 913 36 923 36 914 37 912 37 922 37 913 36 915 36 923 36 916 37 914 37 922 37 915 36 917 36 923 36 918 37 916 37 922 37 917 36 919 36 923 36 920 37 918 37 922 37 919 36 921 36 923 36 902 37 920 37 922 37 921 36 905 36 923 36</p></triangles>
      </mesh>
    </geometry>
  </library_geometries>
  <library_visual_scenes><visual_scene id="scene" name="scene">
    <node id="TRACTOR" name="TRACTOR" type="NODE"><instance_geometry url="#TRACTOR-mesh"><bind_material><technique_common>
      <instance_material symbol="MAT_METAL-mat" target="#MAT_METAL"/>
      <instance_material symbol="MAT_RUST-mat" target="#MAT_RUST"/>
      <instance_material symbol="MAT_PAINT-mat" target="#MAT_PAINT"/>
      <instance_material symbol="MAT_TYRE-mat" target="#MAT_TYRE"/>
      <instance_material symbol="MAT_WOOD-mat" target="#MAT_WOOD"/>
      <instance_material symbol="MAT_PLASTER-mat" target="#MAT_PLASTER"/>
      <instance_material symbol="MAT_ROOF-mat" target="#MAT_ROOF"/>
      <instance_material symbol="MAT_PIPE-mat" target="#MAT_PIPE"/>
      <instance_material symbol="MAT_SEAT-mat" target="#MAT_SEAT"/>
    </technique_common></bind_material></instance_geometry></node>
  </visual_scene></library_visual_scenes>
  <scene><instance_visual_scene url="#scene"/></scene>
</COLLADA>
