<?xml version="1.0" encoding="utf-8"?>
<COLLADA xmlns="http://www.collada.org/2005/11/COLLADASchema" version="1.4.1">
  <asset>
    <contributor><authoring_tool>VIGIL SIH26126 farm generator</authoring_tool></contributor>
    <unit name="meter" meter="1"/>
    <up_axis>Z_UP</up_axis>
  </asset>
  <library_effects>
    <effect id="MAT_SKIN_3-fx"><profile_COMMON><technique sid="c"><lambert><diffuse><color>0.0700 0.0360 0.0210 1</color></diffuse></lambert></technique></profile_COMMON></effect>
    <effect id="MAT_SHIRT_3-fx"><profile_COMMON><technique sid="c"><lambert><diffuse><color>0.0750 0.1300 0.0550 1</color></diffuse></lambert></technique></profile_COMMON></effect>
    <effect id="MAT_TROUSER_3-fx"><profile_COMMON><technique sid="c"><lambert><diffuse><color>0.1200 0.0980 0.0680 1</color></diffuse></lambert></technique></profile_COMMON></effect>
    <effect id="MAT_FOOTWEAR-fx"><profile_COMMON><technique sid="c"><lambert><diffuse><color>0.0220 0.0190 0.0170 1</color></diffuse></lambert></technique></profile_COMMON></effect>
    <effect id="MAT_HEADCOVER_3-fx"><profile_COMMON><technique sid="c"><lambert><diffuse><color>0.4200 0.4000 0.3600 1</color></diffuse></lambert></technique></profile_COMMON></effect>
  </library_effects>
  <library_materials>
    <material id="MAT_SKIN_3" name="MAT_SKIN_3"><instance_effect url="#MAT_SKIN_3-fx"/></material>
    <material id="MAT_SHIRT_3" name="MAT_SHIRT_3"><instance_effect url="#MAT_SHIRT_3-fx"/></material>
    <material id="MAT_TROUSER_3" name="MAT_TROUSER_3"><instance_effect url="#MAT_TROUSER_3-fx"/></material>
    <material id="MAT_FOOTWEAR" name="MAT_FOOTWEAR"><instance_effect url="#MAT_FOOTWEAR-fx"/></material>
    <material id="MAT_HEADCOVER_3" name="MAT_HEADCOVER_3"><instance_effect url="#MAT_HEADCOVER_3-fx"/></material>
  </library_materials>
  <library_geometries>
    <geometry id="HUMAN_M3-mesh" name="HUMAN_M3">
      <mesh>
        <source id="HUMAN_M3-pos"><float_array id="HUMAN_M3-pos-a" count="1143">0.051533 0.0612 1.3913 0.00058499 0.0306 1.4059 0.010908 0.029325 1.4339 0.059733 0.05865 1.4199 0.00058499 -0.0306 1.4059 0.010908 -0.029325 1.4339 0.051533 -0.0612 1.3913 0.059733 -0.05865 1.4199 0.10248 -0.0306 1.3767 0.10856 -0.029325 1.4059 0.10248 0.0306 1.3767 0.10856 0.029325 1.4059 0.021231 0.02805 1.4619 0.067933 0.0561 1.4485 0.021231 -0.02805 1.4619 0.067933 -0.0561 1.4485 0.11463 -0.02805 1.4351 0.11463 0.02805 1.4351 0.051533 0 1.3913 0.067933 0 1.4485 0.10167 0 1.7032 0.10167 0 1.7032 0.14235 0.029358 1.6897 0.15478 0 1.6897 0.10167 0 1.7032 0.11089 0.044978 1.6897 0.10167 0 1.7032 0.075117 0.039553 1.6897 0.10167 0 1.7032 0.051766 0.015621 1.6897 0.10167 0 1.7032 0.051766 -0.015621 1.6897 0.10167 0 1.7032 0.075117 -0.039553 1.6897 0.10167 0 1.7032 0.11089 -0.044978 1.6897 0.10167 0 1.7032 0.14235 -0.029358 1.6897 0.17498 0.052901 1.6516 0.19737 0 1.6516 0.11829 0.081048 1.6516 0.053823 0.071273 1.6516 0.011746 0.028148 1.6516 0.011746 -0.028148 1.6516 0.053823 -0.071273 1.6516 0.11829 -0.081048 1.6516 0.17498 -0.052901 1.6516 0.19308 0.065966 1.5967 0.221 0 1.5967 0.12239 0.10107 1.5967 0.042005 0.088876 1.5967 -0.010464 0.0351 1.5967 -0.010464 -0.0351 1.5967 0.042005 -0.088876 1.5967 0.12239 -0.10107 1.5967 0.19308 -0.065966 1.5967 0.19308 0.065966 1.5356 0.221 0 1.5356 0.12239 0.10107 1.5356 0.042005 0.088876 1.5356 -0.010464 0.0351 1.5356 -0.010464 -0.0351 1.5356 0.042005 -0.088876 1.5356 0.12239 -0.10107 1.5356 0.19308 -0.065966 1.5356 0.17498 0.052901 1.4807 0.19737 0 1.4807 0.11829 0.081048 1.4807 0.053823 0.071273 1.4807 0.011746 0.028148 1.4807 0.011746 -0.028148 1.4807 0.053823 -0.071273 1.4807 0.11829 -0.081048 1.4807 0.17498 -0.052901 1.4807 0.14235 0.029358 1.4426 0.15478 0 1.4426 0.11089 0.044978 1.4426 0.075117 0.039553 1.4426 0.051766 0.015621 1.4426 0.051766 -0.015621 1.4426 0.075117 -0.039553 1.4426 0.11089 -0.044978 1.4426 0.14235 -0.029358 1.4426 0.10167 8.2863e-18 1.4291 0.10167 0 1.4291 0.10167 1.2695e-17 1.4291 0.10167 1.1164e-17 1.4291 0.10167 4.409e-18 1.4291 0.10167 -4.409e-18 1.4291 0.10167 -1.1164e-17 1.4291 0.10167 -1.2695e-17 1.4291 0.10167 -8.2863e-18 1.4291 0.00037502 -0.25195 1.0663 -0.036706 -0.23298 1.0761 -0.069992 -0.23507 0.94411 -0.036747 -0.25207 0.93535 -0.045864 -0.19121 1.077 -0.078202 -0.19761 0.94495 -0.020203 -0.15807 1.0684 -0.055196 -0.16791 0.93723 0.020953 -0.15854 1.0567 -0.018297 -0.16832 0.92677 0.046614 -0.19225 1.0508 0.0047086 -0.19855 0.92144 0.037456 -0.23382 1.055 -0.0035021 -0.23582 0.92526 -0.10328 -0.23715 0.81217 -0.073869 -0.25219 0.80441 -0.11054 -0.20402 0.81291 -0.090189 -0.17774 0.80608 -0.057548 -0.17811 0.79682 -0.037197 -0.20485 0.79211 -0.04446 -0.23782 0.79549 0.00037502 -0.20269 1.0643 -0.073869 -0.21312 0.80286 -0.073869 -0.21312 0.85617 -0.073869 -0.21312 0.85617 -0.05704 -0.18806 0.84055 -0.04021 -0.21312 0.84055 -0.073869 -0.21312 0.85617 -0.090698 -0.18806 0.84055 -0.073869 -0.21312 0.85617 -0.10753 -0.21312 0.84055 -0.073869 -0.21312 0.85617 -0.090698 -0.23819 0.84055 -0.073869 -0.21312 0.85617 -0.05704 -0.23819 0.84055 -0.050069 -0.17767 0.80286 -0.026269 -0.21312 0.80286 -0.097669 -0.17767 0.80286 -0.12147 -0.21312 0.80286 -0.097669 -0.24858 0.80286 -0.050069 -0.24858 0.80286 -0.05704 -0.18806 0.76516 -0.04021 -0.21312 0.76516 -0.090698 -0.18806 0.76516 -0.10753 -0.21312 0.76516 -0.090698 -0.23819 0.76516 -0.05704 -0.23819 0.76516 -0.073869 -0.21312 0.74954 -0.073869 -0.21312 0.74954 -0.073869 -0.21312 0.74954 -0.073869 -0.21312 0.74954 -0.073869 -0.21312 0.74954 -0.073869 -0.21312 0.74954 -0.23785 0.27745 1.2977 -0.24707 0.24039 1.317 -0.37616 0.28162 1.3296 -0.36789 0.31485 1.3123 -0.24665 0.23124 1.3588 -0.37579 0.27342 1.3671 -0.23691 0.25689 1.3916 -0.36705 0.29641 1.3965 -0.22518 0.29802 1.3908 -0.35653 0.33329 1.3957 -0.22029 0.32366 1.3569 -0.35215 0.35628 1.3654 -0.22593 0.31451 1.3155 -0.3572 0.34807 1.3282 -0.50525 0.32285 1.3422 -0.49793 0.35224 1.3269 -0.50492 0.31559 1.3753 -0.49719 0.33593 1.4014 -0.48789 0.36855 1.4007 -0.48401 0.38889 1.3738 -0.48848 0.38163 1.341 -0.23427 0.27745 1.3469 -0.49509 0.35224 1.3659 -0.49509 0.35224 1.4192 -0.49509 0.35224 1.4192 -0.47827 0.37731 1.4036 -0.46144 0.35224 1.4036 -0.49509 0.35224 1.4192 -0.51192 0.37731 1.4036 -0.49509 0.35224 1.4192 -0.52875 0.35224 1.4036 -0.49509 0.35224 1.4192 -0.51192 0.32717 1.4036 -0.49509 0.35224 1.4192 -0.47827 0.32717 1.4036 -0.47129 0.38769 1.3659 -0.44749 0.35224 1.3659 -0.51889 0.38769 1.3659 -0.54269 0.35224 1.3659 -0.51889 0.31679 1.3659 -0.47129 0.31679 1.3659 -0.47827 0.37731 1.3282 -0.46144 0.35224 1.3282 -0.51192 0.37731 1.3282 -0.52875 0.35224 1.3282 -0.51192 0.32717 1.3282 -0.47827 0.32717 1.3282 -0.49509 0.35224 1.3126 -0.49509 0.35224 1.3126 -0.49509 0.35224 1.3126 -0.49509 0.35224 1.3126 -0.49509 0.35224 1.3126 -0.49509 0.35224 1.3126 0 0.10329 0.901 -0.1065 0.079126 0.91219 -0.085419 0.0872 1.2173 0.03195 0.11383 1.205 -0.16317 0.017936 0.91815 -0.14787 0.019767 1.2239 -0.14349 -0.051646 0.91608 -0.12618 -0.056916 1.2216 -0.056668 -0.097063 0.90696 -0.030501 -0.10697 1.2115 0.056668 -0.097063 0.89504 0.094401 -0.10697 1.1984 0.14349 -0.051646 0.88592 0.19008 -0.056916 1.1884 0.16317 0.017936 0.88385 0.21177 0.019767 1.1861 0.1065 0.079126 0.88981 0.14932 0.0872 1.1926 -0.057143 0.080741 1.4027 0.051533 0.1054 1.3913 -0.11497 0.018303 1.4088 -0.094885 -0.0527 1.4067 -0.0062923 -0.099044 1.3974 0.10936 -0.099044 1.3852 0.19795 -0.0527 1.3759 0.21803 0.018303 1.3738 0.16021 0.080741 1.3799 0 0 0.901 0.051533 0 1.3913 0.051533 -0.25668 1.3588 0.0043972 -0.23344 1.3665 -0.017254 -0.23388 1.2192 0.025954 -0.25518 1.2122 -0.0072442 -0.18163 1.3672 -0.027925 -0.18638 1.2199 0.025374 -0.14027 1.3605 0.0019755 -0.14846 1.2138 0.077691 -0.14049 1.3514 0.049932 -0.14867 1.2054 0.11031 -0.18214 1.3467 0.079833 -0.18685 1.2011 0.098668 -0.23385 1.35 0.069161 -0.23425 1.2041 -0.038904 -0.23431 1.072 0.00037502 -0.25367 1.0656 -0.048606 -0.19113 1.0726 -0.021423 -0.15666 1.067 0.022173 -0.15685 1.0594 0.049356 -0.19155 1.0555 0.039654 -0.23465 1.0582 0.051533 -0.1955 1.3573 0.00037502 -0.20269 1.0643 0.053754 0.1955 1.2961 0.039746 0.1495 1.3187 -0.10217 0.19431 1.3167 -0.089331 0.23648 1.296 0.034613 0.13814 1.3703 -0.10688 0.1839 1.364 0.042221 0.16997 1.4121 -0.099904 0.21308 1.4024 0.056841 0.22103 1.4127 -0.086502 0.25988 1.4029 0.067463 0.25286 1.3715 -0.076765 0.28905 1.3651 0.06609 0.2415 1.3196 -0.078024 0.27864 1.3176 -0.24409 0.23912 1.3147 -0.23242 0.27745 1.296 -0.24837 0.22965 1.3578 -0.24203 0.25618 1.3926 -0.22985 0.29872 1.3931 -0.22099 0.32525 1.3588 -0.22214 0.31578 1.3155 0.051533 0.1955 1.3573 -0.23427 0.27745 1.3469 0 -0.204 0.901 -0.076983 -0.16688 0.90503 -0.079254 -0.15999 0.69662 -0.010899 -0.19295 0.69304 -0.095996 -0.083459 0.90603 -0.096137 -0.085918 0.6975 -0.042722 -0.016564 0.90324 -0.048833 -0.02652 0.69502 0.042722 -0.016564 0.89876 0.027036 -0.02652 0.69105 0.095996 -0.083459 0.89597 0.074339 -0.085918 0.68857 0.076983 -0.16688 0.89697 0.057457 -0.15999 0.68945 -0.081526 -0.1531 0.4882 -0.021798 -0.1819 0.48507 -0.096278 -0.088377 0.48897 -0.054945 -0.036476 0.48681 0.011349 -0.036476 0.48333 0.052682 -0.088377 0.48117 0.03793 -0.1531 0.48194 0 -0.1054 0.901 -0.021798 -0.1054 0.48507 -0.021798 -0.1785 0.48507 -0.07895 -0.15098 0.48507 -0.070311 -0.14409 0.27682 -0.021798 -0.16745 0.27682 -0.093065 -0.089134 0.48507 -0.082292 -0.091593 0.27682 -0.053515 -0.039539 0.48507 -0.04872 -0.049495 0.27682 0.009919 -0.039539 0.48507 0.0051246 -0.049495 0.27682 0.049469 -0.089134 0.48507 0.038696 -0.091593 0.27682 0.035354 -0.15098 0.48507 0.026715 -0.14409 0.27682 -0.061671 -0.1372 0.068571 -0.021798 -0.1564 0.068571 -0.071519 -0.094051 0.068571 -0.043926 -0.059451 0.068571 0.00033017 -0.059451 0.068571 0.027923 -0.094051 0.068571 0.018076 -0.1372 0.068571 -0.021798 -0.1054 0.48507 -0.021798 -0.1054 0.068571 0 0.0068 0.901 -0.076983 0.043924 0.89697 -0.057457 0.050813 0.68945 0.010899 0.01785 0.69304 -0.095996 0.12734 0.89597 -0.074339 0.12488 0.68857 -0.042722 0.19424 0.89876 -0.027036 0.18428 0.69105 0.042722 0.19424 0.90324 0.048833 0.18428 0.69502 0.095996 0.12734 0.90603 0.096137 0.12488 0.6975 0.076983 0.043924 0.90503 0.079254 0.050813 0.69662 -0.03793 0.057703 0.48194 0.021798 0.0289 0.48507 -0.052682 0.12242 0.48117 -0.011349 0.17432 0.48333 0.054945 0.17432 0.48681 0.096278 0.12242 0.48897 0.081526 0.057703 0.4882 0 0.1054 0.901 0.021798 0.1054 0.48507 0.021798 0.0323 0.48507 -0.035041 0.059823 0.4791 -0.0046809 0.066712 0.27289 0.043566 0.04335 0.27796 -0.049079 0.12167 0.47762 -0.016597 0.11921 0.27164 -0.0097453 0.17126 0.48176 0.016791 0.16131 0.27515 0.053341 0.17126 0.48839 0.070341 0.16131 0.28078 0.092675 0.12167 0.49252 0.10373 0.11921 0.28429 0.078637 0.059823 0.49104 0.091813 0.066712 0.28303 0.025679 0.073602 0.066685 0.065334 0.0544 0.070852 0.015885 0.11675 0.065655 0.043327 0.15135 0.068539 0.087341 0.15135 0.073165 0.11478 0.11675 0.07605 0.10499 0.073602 0.07502 0.021798 0.1054 0.48507 0.065334 0.1054 0.070852 -0.064298 -0.1598 0 -0.064298 -0.051 0 0.1227 -0.051 0 0.1227 -0.1598 0 -0.064298 -0.1598 0.0612 0.1227 -0.1598 0.0612 0.1227 -0.051 0.0612 -0.064298 -0.051 0.0612 0.022834 0.051 0 0.022834 0.1598 0 0.20983 0.1598 0 0.20983 0.051 0 0.022834 0.051 0.0612 0.20983 0.051 0.0612 0.20983 0.1598 0.0612 0.022834 0.1598 0.0612</float_array><technique_common><accessor source="#HUMAN_M3-pos-a" count="381" stride="3"><param name="X" type="float"/><param name="Y" type="float"/><param name="Z" type="float"/></accessor></technique_common></source>
        <source id="HUMAN_M3-nrm"><float_array id="HUMAN_M3-nrm-a" count="639">0.024 0.996 0.082 -0.806 0.498 0.32 -0.806 -0.498 0.32 0.024 -0.996 0.082 0.853 -0.498 -0.156 0.853 0.498 -0.156 0.276 0 0.961 -0.276 0 -0.961 -0.248 0 -0.969 -0.189 -0.184 -0.965 -0.381 -0.371 -0.847 -0.514 0 -0.858 -0.043 -0.281 -0.959 -0.083 -0.546 -0.833 0.123 -0.247 -0.961 0.243 -0.488 -0.839 0.233 -0.098 -0.968 0.479 -0.202 -0.854 0.233 0.098 -0.968 0.479 0.202 -0.854 0.123 0.247 -0.961 0.243 0.488 -0.839 -0.043 0.281 -0.959 -0.083 0.546 -0.833 -0.189 0.184 -0.965 -0.381 0.371 -0.847 -0.612 -0.577 -0.541 -0.829 0 -0.56 -0.132 -0.846 -0.516 0.388 -0.757 -0.526 0.77 -0.315 -0.554 0.77 0.315 -0.554 0.388 0.757 -0.526 -0.132 0.846 -0.516 -0.612 0.577 -0.541 -0.719 -0.671 -0.183 -0.981 0 -0.192 -0.154 -0.973 -0.171 0.453 -0.874 -0.176 0.911 -0.367 -0.19 0.911 0.367 -0.19 0.453 0.874 -0.176 -0.154 0.973 -0.171 -0.719 0.671 -0.183 -0.719 -0.671 0.183 -0.981 0 0.192 -0.154 -0.973 0.171 0.453 -0.874 0.176 0.911 -0.367 0.19 0.911 0.367 0.19 0.453 0.874 0.176 -0.154 0.973 0.171 -0.719 0.671 0.183 -0.612 -0.577 0.541 -0.829 0 0.56 -0.132 -0.846 0.516 0.388 -0.757 0.526 0.77 -0.315 0.554 0.77 0.315 0.554 0.388 0.757 0.526 -0.132 0.846 0.516 -0.612 0.577 0.541 -0.381 -0.371 0.847 -0.514 0 0.858 -0.083 -0.546 0.833 0.243 -0.488 0.839 0.479 -0.202 0.854 0.479 0.202 0.854 0.243 0.488 0.839 -0.083 0.546 0.833 -0.381 0.371 0.847 -0.211 -0.154 0.965 -0.248 0 0.969 -0.067 -0.276 0.959 0.141 -0.236 0.962 0.238 -0.08 0.968 0.238 0.08 0.968 0.141 0.236 0.962 -0.067 0.276 0.959 -0.211 0.154 0.965 -0.01 -1 0.004 -0.762 -0.615 0.202 -0.947 0.231 0.221 -0.427 0.903 0.046 0.407 0.893 -0.19 0.927 0.21 -0.311 0.741 -0.632 -0.224 -0.273 -0.038 -0.961 0.273 0.038 0.961 -0.421 0 -0.907 -0.209 -0.412 -0.887 -0.375 -0.709 -0.597 -0.787 0 -0.616 0.209 -0.412 -0.887 0.375 -0.709 -0.597 0.421 0 -0.907 0.787 0 -0.616 0.209 0.412 -0.887 0.375 0.709 -0.597 -0.209 0.412 -0.887 -0.375 0.709 -0.597 -0.478 -0.878 -0 -1 0 -0 0.478 -0.878 -0 1 0 -0 0.478 0.878 0 -0.478 0.878 0 -0.375 -0.709 0.597 -0.787 0 0.616 0.375 -0.709 0.597 0.787 0 0.616 0.375 0.709 0.597 -0.375 0.709 0.597 -0.209 -0.412 0.887 -0.421 0 0.907 0.209 -0.412 0.887 0.421 0 0.907 0.209 0.412 0.887 -0.209 0.412 0.887 -0.108 0.01 -0.994 -0.295 -0.741 -0.603 -0.287 -0.926 0.244 -0.09 -0.407 0.909 0.148 0.427 0.892 0.247 0.947 0.205 0.133 0.761 -0.634 -0.959 0.275 0.07 0.959 -0.275 -0.07 -0.004 0.999 -0.034 -0.496 0.868 0.011 -0.498 0.865 0.059 0.001 1 0.005 -0.971 0.236 0.047 -0.967 0.232 0.11 -0.772 -0.635 0.033 -0.773 -0.628 0.089 -0.238 -0.971 -0.011 -0.237 -0.971 0.03 0.231 -0.971 -0.06 0.239 -0.971 -0.02 0.762 -0.635 -0.128 0.775 -0.628 -0.074 0.959 0.236 -0.156 0.968 0.232 -0.094 0.488 0.868 -0.092 0.499 0.865 -0.046 -0.485 0.868 0.104 0.005 0.999 0.045 -0.956 0.236 0.172 -0.759 -0.635 0.143 -0.229 -0.971 0.071 0.239 -0.971 0.022 0.772 -0.635 -0.018 0.971 0.236 -0.031 0.496 0.868 0.001 0.105 0 0.995 -0.105 0 -0.995 -0.006 -1 -0.009 -0.776 -0.62 0.116 -0.966 0.226 0.128 -0.433 0.901 0.019 0.421 0.898 -0.13 0.954 0.217 -0.207 0.764 -0.627 -0.153 -0.172 -0.024 -0.985 0.172 0.024 0.985 0.003 0.009 -1 -0.225 -0.742 -0.632 -0.309 -0.927 0.211 -0.185 -0.407 0.894 0.054 0.426 0.903 0.227 0.946 0.231 0.205 0.761 -0.616 -0.961 0.275 -0.035 0.961 -0.275 0.035 -0.003 -0.999 -0.053 -0.782 -0.623 -0.012 -0.975 0.222 -0.002 -0.435 0.9 -0.03 0.43 0.9 -0.076 0.969 0.222 -0.104 0.777 -0.623 -0.094 -0.052 0 -0.999 0.052 0 0.999 0 -0.999 -0.053 -0.781 -0.623 -0.053 -0.974 0.222 -0.053 -0.433 0.9 -0.053 0.433 0.9 -0.053 0.974 0.222 -0.053 0.781 -0.623 -0.053 0 0 -1 0 0 1 0.003 -0.999 -0.053 -0.777 -0.623 -0.094 -0.969 0.222 -0.104 -0.43 0.9 -0.076 0.435 0.9 -0.03 0.975 0.222 -0.002 0.782 -0.623 -0.012 0.052 0 -0.999 -0.052 -0 0.999 0.006 -0.999 -0.053 -0.771 -0.623 -0.134 -0.963 0.222 -0.154 -0.425 0.9 -0.098 0.436 0.9 -0.007 0.974 0.222 0.049 0.782 -0.623 0.029 0.105 0 -0.995 -0.105 -0 0.995 0 -1 0 0 1 0</float_array><technique_common><accessor source="#HUMAN_M3-nrm-a" count="213" stride="3"><param name="X" type="float"/><param name="Y" type="float"/><param name="Z" type="float"/></accessor></technique_common></source>
        <vertices id="HUMAN_M3-vtx"><input semantic="POSITION" source="#HUMAN_M3-pos"/></vertices>
        <triangles count="342" material="MAT_SKIN_3-mat"><input semantic="VERTEX" source="#HUMAN_M3-vtx" offset="0"/><input semantic="NORMAL" source="#HUMAN_M3-nrm" offset="1"/><p>0 0 1 1 2 1 0 0 2 1 3 0 1 1 4 2 5 2 1 1 5 2 2 1 4 2 6 3 7 3 4 2 7 3 5 2 6 3 8 4 9 4 6 3 9 4 7 3 8 4 10 5 11 5 8 4 11 5 9 4 10 5 0 0 3 0 10 5 3 0 11 5 3 0 2 1 12 1 3 0 12 1 13 0 2 1 5 2 14 2 2 1 14 2 12 1 5 2 7 3 15 3 5 2 15 3 14 2 7 3 9 4 16 4 7 3 16 4 15 3 9 4 11 5 17 5 9 4 17 5 16 4 11 5 3 0 13 0 11 5 13 0 17 5 0 6 1 6 18 6 1 6 4 6 18 6 4 6 6 6 18 6 6 6 8 6 18 6 8 6 10 6 18 6 10 6 0 6 18 6 12 7 13 7 19 7 14 7 12 7 19 7 15 7 14 7 19 7 16 7 15 7 19 7 17 7 16 7 19 7 13 7 17 7 19 7 20 8 21 9 22 10 20 8 22 10 23 11 21 9 24 12 25 13 21 9 25 13 22 10 24 12 26 14 27 15 24 12 27 15 25 13 26 14 28 16 29 17 26 14 29 17 27 15 28 16 30 18 31 19 28 16 31 19 29 17 30 18 32 20 33 21 30 18 33 21 31 19 32 20 34 22 35 23 32 20 35 23 33 21 34 22 36 24 37 25 34 22 37 25 35 23 36 24 20 8 23 11 36 24 23 11 37 25 23 11 22 10 38 26 23 11 38 26 39 27 22 10 25 13 40 28 22 10 40 28 38 26 25 13 27 15 41 29 25 13 41 29 40 28 27 15 29 17 42 30 27 15 42 30 41 29 29 17 31 19 43 31 29 17 43 31 42 30 31 19 33 21 44 32 31 19 44 32 43 31 33 21 35 23 45 33 33 21 45 33 44 32 35 23 37 25 46 34 35 23 46 34 45 33 37 25 23 11 39 27 37 25 39 27 46 34 39 27 38 26 47 35 39 27 47 35 48 36 38 26 40 28 49 37 38 26 49 37 47 35 40 28 41 29 50 38 40 28 50 38 49 37 41 29 42 30 51 39 41 29 51 39 50 38 42 30 43 31 52 40 42 30 52 40 51 39 43 31 44 32 53 41 43 31 53 41 52 40 44 32 45 33 54 42 44 32 54 42 53 41 45 33 46 34 55 43 45 33 55 43 54 42 46 34 39 27 48 36 46 34 48 36 55 43 48 36 47 35 56 44 48 36 56 44 57 45 47 35 49 37 58 46 47 35 58 46 56 44 49 37 50 38 59 47 49 37 59 47 58 46 50 38 51 39 60 48 50 38 60 48 59 47 51 39 52 40 61 49 51 39 61 49 60 48 52 40 53 41 62 50 52 40 62 50 61 49 53 41 54 42 63 51 53 41 63 51 62 50 54 42 55 43 64 52 54 42 64 52 63 51 55 43 48 36 57 45 55 43 57 45 64 52 57 45 56 44 65 53 57 45 65 53 66 54 56 44 58 46 67 55 56 44 67 55 65 53 58 46 59 47 68 56 58 46 68 56 67 55 59 47 60 48 69 57 59 47 69 57 68 56 60 48 61 49 70 58 60 48 70 58 69 57 61 49 62 50 71 59 61 49 71 59 70 58 62 50 63 51 72 60 62 50 72 60 71 59 63 51 64 52 73 61 63 51 73 61 72 60 64 52 57 45 66 54 64 52 66 54 73 61 66 54 65 53 74 62 66 54 74 62 75 63 65 53 67 55 76 64 65 53 76 64 74 62 67 55 68 56 77 65 67 55 77 65 76 64 68 56 69 57 78 66 68 56 78 66 77 65 69 57 70 58 79 67 69 57 79 67 78 66 70 58 71 59 80 68 70 58 80 68 79 67 71 59 72 60 81 69 71 59 81 69 80 68 72 60 73 61 82 70 72 60 82 70 81 69 73 61 66 54 75 63 73 61 75 63 82 70 75 63 74 62 83 71 75 63 83 71 84 72 74 62 76 64 85 73 74 62 85 73 83 71 76 64 77 65 86 74 76 64 86 74 85 73 77 65 78 66 87 75 77 65 87 75 86 74 78 66 79 67 88 76 78 66 88 76 87 75 79 67 80 68 89 77 79 67 89 77 88 76 80 68 81 69 90 78 80 68 90 78 89 77 81 69 82 70 91 79 81 69 91 79 90 78 82 70 75 63 84 72 82 70 84 72 91 79 92 80 93 81 94 81 92 80 94 81 95 80 93 81 96 82 97 82 93 81 97 82 94 81 96 82 98 83 99 83 96 82 99 83 97 82 98 83 100 84 101 84 98 83 101 84 99 83 100 84 102 85 103 85 100 84 103 85 101 84 102 85 104 86 105 86 102 85 105 86 103 85 104 86 92 80 95 80 104 86 95 80 105 86 95 80 94 81 106 81 95 80 106 81 107 80 94 81 97 82 108 82 94 81 108 82 106 81 97 82 99 83 109 83 97 82 109 83 108 82 99 83 101 84 110 84 99 83 110 84 109 83 101 84 103 85 111 85 101 84 111 85 110 84 103 85 105 86 112 86 103 85 112 86 111 85 105 86 95 80 107 80 105 86 107 80 112 86 92 87 93 87 113 87 93 87 96 87 113 87 96 87 98 87 113 87 98 87 100 87 113 87 100 87 102 87 113 87 102 87 104 87 113 87 104 87 92 87 113 87 106 88 107 88 114 88 108 88 106 88 114 88 109 88 108 88 114 88 110 88 109 88 114 88 111 88 110 88 114 88 112 88 111 88 114 88 107 88 112 88 114 88 115 89 116 90 117 91 115 89 117 91 118 92 116 90 119 93 120 94 116 90 120 94 117 91 119 93 121 95 122 96 119 93 122 96 120 94 121 95 123 97 124 98 121 95 124 98 122 96 123 97 125 99 126 100 123 97 126 100 124 98 125 99 115 89 118 92 125 99 118 92 126 100 118 92 117 91 127 101 118 92 127 101 128 102 117 91 120 94 129 103 117 91 129 103 127 101 120 94 122 96 130 104 120 94 130 104 129 103 122 96 124 98 131 105 122 96 131 105 130 104 124 98 126 100 132 106 124 98 132 106 131 105 126 100 118 92 128 102 126 100 128 102 132 106 128 102 127 101 133 107 128 102 133 107 134 108 127 101 129 103 135 109 127 101 135 109 133 107 129 103 130 104 136 110 129 103 136 110 135 109 130 104 131 105 137 111 130 104 137 111 136 110 131 105 132 106 138 112 131 105 138 112 137 111 132 106 128 102 134 108 132 106 134 108 138 112 134 108 133 107 139 113 134 108 139 113 140 114 133 107 135 109 141 115 133 107 141 115 139 113 135 109 136 110 142 116 135 109 142 116 141 115 136 110 137 111 143 117 136 110 143 117 142 116 137 111 138 112 144 118 137 111 144 118 143 117 138 112 134 108 140 114 138 112 140 114 144 118 145 119 146 120 147 120 145 119 147 120 148 119 146 120 149 121 150 121 146 120 150 121 147 120 149 121 151 122 152 122 149 121 152 122 150 121 151 122 153 123 154 123 151 122 154 123 152 122 153 123 155 124 156 124 153 123 156 124 154 123 155 124 157 125 158 125 155 124 158 125 156 124 157 125 145 119 148 119 157 125 148 119 158 125 148 119 147 120 159 120 148 119 159 120 160 119 147 120 150 121 161 121 147 120 161 121 159 120 150 121 152 122 162 122 150 121 162 122 161 121 152 122 154 123 163 123 152 122 163 123 162 122 154 123 156 124 164 124 154 123 164 124 163 123 156 124 158 125 165 125 156 124 165 125 164 124 158 125 148 119 160 119 158 125 160 119 165 125 145 126 146 126 166 126 146 126 149 126 166 126 149 126 151 126 166 126 151 126 153 126 166 126 153 126 155 126 166 126 155 126 157 126 166 126 157 126 145 126 166 126 159 127 160 127 167 127 161 127 159 127 167 127 162 127 161 127 167 127 163 127 162 127 167 127 164 127 163 127 167 127 165 127 164 127 167 127 160 127 165 127 167 127 168 89 169 90 170 91 168 89 170 91 171 92 169 90 172 93 173 94 169 90 173 94 170 91 172 93 174 95 175 96 172 93 175 96 173 94 174 95 176 97 177 98 174 95 177 98 175 96 176 97 178 99 179 100 176 97 179 100 177 98 178 99 168 89 171 92 178 99 171 92 179 100 171 92 170 91 180 101 171 92 180 101 181 102 170 91 173 94 182 103 170 91 182 103 180 101 173 94 175 96 183 104 173 94 183 104 182 103 175 96 177 98 184 105 175 96 184 105 183 104 177 98 179 100 185 106 177 98 185 106 184 105 179 100 171 92 181 102 179 100 181 102 185 106 181 102 180 101 186 107 181 102 186 107 187 108 180 101 182 103 188 109 180 101 188 109 186 107 182 103 183 104 189 110 182 103 189 110 188 109 183 104 184 105 190 111 183 104 190 111 189 110 184 105 185 106 191 112 184 105 191 112 190 111 185 106 181 102 187 108 185 106 187 108 191 112 187 108 186 107 192 113 187 108 192 113 193 114 186 107 188 109 194 115 186 107 194 115 192 113 188 109 189 110 195 116 188 109 195 116 194 115 189 110 190 111 196 117 189 110 196 117 195 116 190 111 191 112 197 118 190 111 197 118 196 117 191 112 187 108 193 114 191 112 193 114 197 118</p></triangles>
        <triangles count="138" material="MAT_SHIRT_3-mat"><input semantic="VERTEX" source="#HUMAN_M3-vtx" offset="0"/><input semantic="NORMAL" source="#HUMAN_M3-nrm" offset="1"/><p>198 128 199 129 200 130 198 128 200 130 201 131 199 129 202 132 203 133 199 129 203 133 200 130 202 132 204 134 205 135 202 132 205 135 203 133 204 134 206 136 207 137 204 134 207 137 205 135 206 136 208 138 209 139 206 136 209 139 207 137 208 138 210 140 211 141 208 138 211 141 209 139 210 140 212 142 213 143 210 140 213 143 211 141 212 142 214 144 215 145 212 142 215 145 213 143 214 144 198 128 201 131 214 144 201 131 215 145 201 131 200 130 216 146 201 131 216 146 217 147 200 130 203 133 218 148 200 130 218 148 216 146 203 133 205 135 219 149 203 133 219 149 218 148 205 135 207 137 220 150 205 135 220 150 219 149 207 137 209 139 221 151 207 137 221 151 220 150 209 139 211 141 222 152 209 139 222 152 221 151 211 141 213 143 223 153 211 141 223 153 222 152 213 143 215 145 224 154 213 143 224 154 223 153 215 145 201 131 217 147 215 145 217 147 224 154 198 155 199 155 225 155 199 155 202 155 225 155 202 155 204 155 225 155 204 155 206 155 225 155 206 155 208 155 225 155 208 155 210 155 225 155 210 155 212 155 225 155 212 155 214 155 225 155 214 155 198 155 225 155 216 156 217 156 226 156 218 156 216 156 226 156 219 156 218 156 226 156 220 156 219 156 226 156 221 156 220 156 226 156 222 156 221 156 226 156 223 156 222 156 226 156 224 156 223 156 226 156 217 156 224 156 226 156 227 157 228 158 229 158 227 157 229 158 230 157 228 158 231 159 232 159 228 158 232 159 229 158 231 159 233 160 234 160 231 159 234 160 232 159 233 160 235 161 236 161 233 160 236 161 234 160 235 161 237 162 238 162 235 161 238 162 236 161 237 162 239 163 240 163 237 162 240 163 238 162 239 163 227 157 230 157 239 163 230 157 240 163 230 157 229 158 241 158 230 157 241 158 242 157 229 158 232 159 243 159 229 158 243 159 241 158 232 159 234 160 244 160 232 159 244 160 243 159 234 160 236 161 245 161 234 160 245 161 244 160 236 161 238 162 246 162 236 161 246 162 245 161 238 162 240 163 247 163 238 162 247 163 246 162 240 163 230 157 242 157 240 163 242 157 247 163 227 164 228 164 248 164 228 164 231 164 248 164 231 164 233 164 248 164 233 164 235 164 248 164 235 164 237 164 248 164 237 164 239 164 248 164 239 164 227 164 248 164 241 165 242 165 249 165 243 165 241 165 249 165 244 165 243 165 249 165 245 165 244 165 249 165 246 165 245 165 249 165 247 165 246 165 249 165 242 165 247 165 249 165 250 166 251 167 252 167 250 166 252 167 253 166 251 167 254 168 255 168 251 167 255 168 252 167 254 168 256 169 257 169 254 168 257 169 255 168 256 169 258 170 259 170 256 169 259 170 257 169 258 170 260 171 261 171 258 170 261 171 259 170 260 171 262 172 263 172 260 171 263 172 261 171 262 172 250 166 253 166 262 172 253 166 263 172 253 166 252 167 264 167 253 166 264 167 265 166 252 167 255 168 266 168 252 167 266 168 264 167 255 168 257 169 267 169 255 168 267 169 266 168 257 169 259 170 268 170 257 169 268 170 267 169 259 170 261 171 269 171 259 170 269 171 268 170 261 171 263 172 270 172 261 171 270 172 269 171 263 172 253 166 265 166 263 172 265 166 270 172 250 173 251 173 271 173 251 173 254 173 271 173 254 173 256 173 271 173 256 173 258 173 271 173 258 173 260 173 271 173 260 173 262 173 271 173 262 173 250 173 271 173 264 174 265 174 272 174 266 174 264 174 272 174 267 174 266 174 272 174 268 174 267 174 272 174 269 174 268 174 272 174 270 174 269 174 272 174 265 174 270 174 272 174</p></triangles>
        <triangles count="168" material="MAT_TROUSER_3-mat"><input semantic="VERTEX" source="#HUMAN_M3-vtx" offset="0"/><input semantic="NORMAL" source="#HUMAN_M3-nrm" offset="1"/><p>273 175 274 176 275 176 273 175 275 176 276 175 274 176 277 177 278 177 274 176 278 177 275 176 277 177 279 178 280 178 277 177 280 178 278 177 279 178 281 179 282 179 279 178 282 179 280 178 281 179 283 180 284 180 281 179 284 180 282 179 283 180 285 181 286 181 283 180 286 181 284 180 285 181 273 175 276 175 285 181 276 175 286 181 276 175 275 176 287 176 276 175 287 176 288 175 275 176 278 177 289 177 275 176 289 177 287 176 278 177 280 178 290 178 278 177 290 178 289 177 280 178 282 179 291 179 280 178 291 179 290 178 282 179 284 180 292 180 282 179 292 180 291 179 284 180 286 181 293 181 284 180 293 181 292 180 286 181 276 175 288 175 286 181 288 175 293 181 273 182 274 182 294 182 274 182 277 182 294 182 277 182 279 182 294 182 279 182 281 182 294 182 281 182 283 182 294 182 283 182 285 182 294 182 285 182 273 182 294 182 287 183 288 183 295 183 289 183 287 183 295 183 290 183 289 183 295 183 291 183 290 183 295 183 292 183 291 183 295 183 293 183 292 183 295 183 288 183 293 183 295 183 296 184 297 185 298 185 296 184 298 185 299 184 297 185 300 186 301 186 297 185 301 186 298 185 300 186 302 187 303 187 300 186 303 187 301 186 302 187 304 188 305 188 302 187 305 188 303 187 304 188 306 189 307 189 304 188 307 189 305 188 306 189 308 190 309 190 306 189 309 190 307 189 308 190 296 184 299 184 308 190 299 184 309 190 299 184 298 185 310 185 299 184 310 185 311 184 298 185 301 186 312 186 298 185 312 186 310 185 301 186 303 187 313 187 301 186 313 187 312 186 303 187 305 188 314 188 303 187 314 188 313 187 305 188 307 189 315 189 305 188 315 189 314 188 307 189 309 190 316 190 307 189 316 190 315 189 309 190 299 184 311 184 309 190 311 184 316 190 296 191 297 191 317 191 297 191 300 191 317 191 300 191 302 191 317 191 302 191 304 191 317 191 304 191 306 191 317 191 306 191 308 191 317 191 308 191 296 191 317 191 310 192 311 192 318 192 312 192 310 192 318 192 313 192 312 192 318 192 314 192 313 192 318 192 315 192 314 192 318 192 316 192 315 192 318 192 311 192 316 192 318 192 319 193 320 194 321 194 319 193 321 194 322 193 320 194 323 195 324 195 320 194 324 195 321 194 323 195 325 196 326 196 323 195 326 196 324 195 325 196 327 197 328 197 325 196 328 197 326 196 327 197 329 198 330 198 327 197 330 198 328 197 329 198 331 199 332 199 329 198 332 199 330 198 331 199 319 193 322 193 331 199 322 193 332 199 322 193 321 194 333 194 322 193 333 194 334 193 321 194 324 195 335 195 321 194 335 195 333 194 324 195 326 196 336 196 324 195 336 196 335 195 326 196 328 197 337 197 326 196 337 197 336 196 328 197 330 198 338 198 328 197 338 198 337 197 330 198 332 199 339 199 330 198 339 199 338 198 332 199 322 193 334 193 332 199 334 193 339 199 319 200 320 200 340 200 320 200 323 200 340 200 323 200 325 200 340 200 325 200 327 200 340 200 327 200 329 200 340 200 329 200 331 200 340 200 331 200 319 200 340 200 333 201 334 201 341 201 335 201 333 201 341 201 336 201 335 201 341 201 337 201 336 201 341 201 338 201 337 201 341 201 339 201 338 201 341 201 334 201 339 201 341 201 342 202 343 203 344 203 342 202 344 203 345 202 343 203 346 204 347 204 343 203 347 204 344 203 346 204 348 205 349 205 346 204 349 205 347 204 348 205 350 206 351 206 348 205 351 206 349 205 350 206 352 207 353 207 350 206 353 207 351 206 352 207 354 208 355 208 352 207 355 208 353 207 354 208 342 202 345 202 354 208 345 202 355 208 345 202 344 203 356 203 345 202 356 203 357 202 344 203 347 204 358 204 344 203 358 204 356 203 347 204 349 205 359 205 347 204 359 205 358 204 349 205 351 206 360 206 349 205 360 206 359 205 351 206 353 207 361 207 351 206 361 207 360 206 353 207 355 208 362 208 353 207 362 208 361 207 355 208 345 202 357 202 355 208 357 202 362 208 342 209 343 209 363 209 343 209 346 209 363 209 346 209 348 209 363 209 348 209 350 209 363 209 350 209 352 209 363 209 352 209 354 209 363 209 354 209 342 209 363 209 356 210 357 210 364 210 358 210 356 210 364 210 359 210 358 210 364 210 360 210 359 210 364 210 361 210 360 210 364 210 362 210 361 210 364 210 357 210 362 210 364 210</p></triangles>
        <triangles count="24" material="MAT_FOOTWEAR-mat"><input semantic="VERTEX" source="#HUMAN_M3-vtx" offset="0"/><input semantic="NORMAL" source="#HUMAN_M3-nrm" offset="1"/><p>365 191 366 191 367 191 365 191 367 191 368 191 369 192 370 192 371 192 369 192 371 192 372 192 365 211 368 211 370 211 365 211 370 211 369 211 368 104 367 104 371 104 368 104 371 104 370 104 367 212 366 212 372 212 367 212 372 212 371 212 366 102 365 102 369 102 366 102 369 102 372 102 373 191 374 191 375 191 373 191 375 191 376 191 377 192 378 192 379 192 377 192 379 192 380 192 373 211 376 211 378 211 373 211 378 211 377 211 376 104 375 104 379 104 376 104 379 104 378 104 375 212 374 212 380 212 375 212 380 212 379 212 374 102 373 102 377 102 374 102 377 102 380 102</p></triangles>
      </mesh>
    </geometry>
  </library_geometries>
  <library_visual_scenes><visual_scene id="scene" name="scene">
    <node id="HUMAN_M3" name="HUMAN_M3" type="NODE"><instance_geometry url="#HUMAN_M3-mesh"><bind_material><technique_common>
      <instance_material symbol="MAT_SKIN_3-mat" target="#MAT_SKIN_3"/>
      <instance_material symbol="MAT_SHIRT_3-mat" target="#MAT_SHIRT_3"/>
      <instance_material symbol="MAT_TROUSER_3-mat" target="#MAT_TROUSER_3"/>
      <instance_material symbol="MAT_FOOTWEAR-mat" target="#MAT_FOOTWEAR"/>
      <instance_material symbol="MAT_HEADCOVER_3-mat" target="#MAT_HEADCOVER_3"/>
    </technique_common></bind_material></instance_geometry></node>
  </visual_scene></library_visual_scenes>
  <scene><instance_visual_scene url="#scene"/></scene>
</COLLADA>
