<?xml version="1.0" encoding="utf-8"?>
<COLLADA xmlns="http://www.collada.org/2005/11/COLLADASchema" version="1.4.1">
  <asset>
    <contributor><authoring_tool>VIGIL SIH26126 farm generator</authoring_tool></contributor>
    <unit name="meter" meter="1"/>
    <up_axis>Z_UP</up_axis>
  </asset>
  <library_effects>
    <effect id="MAT_SKIN_2-fx"><profile_COMMON><technique sid="c"><lambert><diffuse><color>0.1480 0.0860 0.0520 1</color></diffuse></lambert></technique></profile_COMMON></effect>
    <effect id="MAT_SHIRT_2-fx"><profile_COMMON><technique sid="c"><lambert><diffuse><color>0.1800 0.0550 0.0400 1</color></diffuse></lambert></technique></profile_COMMON></effect>
    <effect id="MAT_TROUSER_2-fx"><profile_COMMON><technique sid="c"><lambert><diffuse><color>0.0480 0.0520 0.0580 1</color></diffuse></lambert></technique></profile_COMMON></effect>
    <effect id="MAT_FOOTWEAR-fx"><profile_COMMON><technique sid="c"><lambert><diffuse><color>0.0220 0.0190 0.0170 1</color></diffuse></lambert></technique></profile_COMMON></effect>
    <effect id="MAT_HEADCOVER_2-fx"><profile_COMMON><technique sid="c"><lambert><diffuse><color>0.5000 0.4800 0.4400 1</color></diffuse></lambert></technique></profile_COMMON></effect>
  </library_effects>
  <library_materials>
    <material id="MAT_SKIN_2" name="MAT_SKIN_2"><instance_effect url="#MAT_SKIN_2-fx"/></material>
    <material id="MAT_SHIRT_2" name="MAT_SHIRT_2"><instance_effect url="#MAT_SHIRT_2-fx"/></material>
    <material id="MAT_TROUSER_2" name="MAT_TROUSER_2"><instance_effect url="#MAT_TROUSER_2-fx"/></material>
    <material id="MAT_FOOTWEAR" name="MAT_FOOTWEAR"><instance_effect url="#MAT_FOOTWEAR-fx"/></material>
    <material id="MAT_HEADCOVER_2" name="MAT_HEADCOVER_2"><instance_effect url="#MAT_HEADCOVER_2-fx"/></material>
  </library_materials>
  <library_geometries>
    <geometry id="HUMAN_F1-mesh" name="HUMAN_F1">
      <mesh>
        <source id="HUMAN_F1-pos"><float_array id="HUMAN_F1-pos-a" count="1278">0.40457 0.05688 1.0525 0.36683 0.02844 1.0842 0.38618 0.027255 1.104 0.42234 0.05451 1.0737 0.36683 -0.02844 1.0842 0.38618 -0.027255 1.104 0.40457 -0.05688 1.0525 0.42234 -0.05451 1.0737 0.4423 -0.02844 1.0208 0.4585 -0.027255 1.0433 0.4423 0.02844 1.0208 0.4585 0.027255 1.0433 0.40552 0.02607 1.1239 0.44011 0.05214 1.0949 0.40552 -0.02607 1.1239 0.44011 -0.05214 1.0949 0.4747 -0.02607 1.0658 0.4747 0.02607 1.0658 0.40457 0 1.0525 0.44011 0 1.0949 0.51324 0 1.3094 0.51324 0 1.3094 0.55105 0.027285 1.2968 0.56259 0 1.2968 0.51324 0 1.3094 0.52181 0.041804 1.2968 0.51324 0 1.3094 0.48856 0.036761 1.2968 0.51324 0 1.3094 0.46685 0.014518 1.2968 0.51324 0 1.3094 0.46685 -0.014518 1.2968 0.51324 0 1.3094 0.48856 -0.036761 1.2968 0.51324 0 1.3094 0.52181 -0.041804 1.2968 0.51324 0 1.3094 0.55105 -0.027285 1.2968 0.58137 0.049166 1.2615 0.60218 0 1.2615 0.52868 0.075327 1.2615 0.46877 0.066242 1.2615 0.42966 0.026161 1.2615 0.42966 -0.026161 1.2615 0.46877 -0.066242 1.2615 0.52868 -0.075327 1.2615 0.58137 -0.049166 1.2615 0.5982 0.06131 1.2104 0.62414 0 1.2104 0.5325 0.093932 1.2104 0.45778 0.082602 1.2104 0.40902 0.032622 1.2104 0.40902 -0.032622 1.2104 0.45778 -0.082602 1.2104 0.5325 -0.093932 1.2104 0.5982 -0.06131 1.2104 0.5982 0.06131 1.1537 0.62414 0 1.1537 0.5325 0.093932 1.1537 0.45778 0.082602 1.1537 0.40902 0.032622 1.1537 0.40902 -0.032622 1.1537 0.45778 -0.082602 1.1537 0.5325 -0.093932 1.1537 0.5982 -0.06131 1.1537 0.58137 0.049166 1.1026 0.60218 0 1.1026 0.52868 0.075327 1.1026 0.46877 0.066242 1.1026 0.42966 0.026161 1.1026 0.42966 -0.026161 1.1026 0.46877 -0.066242 1.1026 0.52868 -0.075327 1.1026 0.58137 -0.049166 1.1026 0.55105 0.027285 1.0672 0.56259 0 1.0672 0.52181 0.041804 1.0672 0.48856 0.036761 1.0672 0.46685 0.014518 1.0672 0.46685 -0.014518 1.0672 0.48856 -0.036761 1.0672 0.52181 -0.041804 1.0672 0.55105 -0.027285 1.0672 0.51324 7.7013e-18 1.0546 0.51324 0 1.0546 0.51324 1.1799e-17 1.0546 0.51324 1.0376e-17 1.0546 0.51324 4.0978e-18 1.0546 0.51324 -4.0978e-18 1.0546 0.51324 -1.0376e-17 1.0546 0.51324 -1.1799e-17 1.0546 0.51324 -7.7013e-18 1.0546 0.17705 -0.20818 0.90881 0.16576 -0.19403 0.87341 0.046964 -0.22853 0.89979 0.057081 -0.24122 0.93153 0.16298 -0.21331 0.83875 0.044465 -0.24582 0.86871 0.17078 -0.2515 0.83092 0.051467 -0.28006 0.8617 0.18331 -0.27985 0.85583 0.062696 -0.30548 0.88403 0.19112 -0.27701 0.89471 0.069697 -0.30293 0.91889 0.18833 -0.24511 0.91829 0.067198 -0.27433 0.94003 -0.071834 -0.26304 0.92617 -0.062884 -0.27426 0.95425 -0.074044 -0.27833 0.89868 -0.067851 -0.30862 0.89248 -0.057917 -0.3311 0.91223 -0.051724 -0.32885 0.94307 -0.053934 -0.30355 0.96177 0.17705 -0.23843 0.87439 -0.062884 -0.29825 0.92695 -0.062884 -0.29825 0.9765 -0.062884 -0.29825 0.9765 -0.047243 -0.27495 0.96199 -0.031602 -0.29825 0.96199 -0.062884 -0.29825 0.9765 -0.078525 -0.27495 0.96199 -0.062884 -0.29825 0.9765 -0.094167 -0.29825 0.96199 -0.062884 -0.29825 0.9765 -0.078525 -0.32155 0.96199 -0.062884 -0.29825 0.9765 -0.047243 -0.32155 0.96199 -0.040764 -0.2653 0.92695 -0.018644 -0.29825 0.92695 -0.085004 -0.2653 0.92695 -0.10712 -0.29825 0.92695 -0.085004 -0.3312 0.92695 -0.040764 -0.3312 0.92695 -0.047243 -0.27495 0.89191 -0.031602 -0.29825 0.89191 -0.078525 -0.27495 0.89191 -0.094167 -0.29825 0.89191 -0.078525 -0.32155 0.89191 -0.047243 -0.32155 0.89191 -0.062884 -0.29825 0.8774 -0.062884 -0.29825 0.8774 -0.062884 -0.29825 0.8774 -0.062884 -0.29825 0.8774 -0.062884 -0.29825 0.8774 -0.062884 -0.29825 0.8774 0.18655 0.227 0.80512 0.18103 0.19195 0.82307 0.059143 0.22171 0.83914 0.064093 0.25314 0.82305 0.18335 0.1833 0.86181 0.061225 0.21395 0.87387 0.19177 0.20755 0.89217 0.068772 0.2357 0.90109 0.19994 0.24645 0.89129 0.076101 0.27058 0.9003 0.20172 0.27071 0.85983 0.077693 0.29232 0.8721 0.19576 0.26205 0.82149 0.072349 0.28456 0.83772 -0.06274 0.25148 0.85521 -0.058361 0.27927 0.84097 -0.060898 0.24461 0.88593 -0.054222 0.26385 0.91001 -0.047739 0.2947 0.90931 -0.04633 0.31394 0.88436 -0.051058 0.30707 0.85395 0.19144 0.227 0.85068 -0.054478 0.27927 0.87711 -0.054478 0.27927 0.92666 -0.054478 0.27927 0.92666 -0.038837 0.30257 0.91214 -0.023196 0.27927 0.91214 -0.054478 0.27927 0.92666 -0.070119 0.30257 0.91214 -0.054478 0.27927 0.92666 -0.085761 0.27927 0.91214 -0.054478 0.27927 0.92666 -0.070119 0.25597 0.91214 -0.054478 0.27927 0.92666 -0.038837 0.25597 0.91214 -0.032358 0.31222 0.87711 -0.010238 0.27927 0.87711 -0.076598 0.31222 0.87711 -0.098718 0.27927 0.87711 -0.076598 0.24632 0.87711 -0.032358 0.24632 0.87711 -0.038837 0.30257 0.84207 -0.023196 0.27927 0.84207 -0.070119 0.30257 0.84207 -0.085761 0.27927 0.84207 -0.070119 0.25597 0.84207 -0.038837 0.25597 0.84207 -0.054478 0.27927 0.82756 -0.054478 0.27927 0.82756 -0.054478 0.27927 0.82756 -0.054478 0.27927 0.82756 -0.054478 0.27927 0.82756 -0.054478 0.27927 0.82756 0 0.096001 0.8374 -0.046726 0.073541 0.92528 0.19934 0.081045 1.0676 0.25083 0.1058 0.97077 -0.071589 0.01667 0.97204 0.17194 0.018371 1.1191 -0.062954 -0.048 0.9558 0.18145 -0.052898 1.1013 -0.024862 -0.090211 0.88416 0.22343 -0.099416 1.0223 0.024862 -0.090211 0.79064 0.27823 -0.099416 0.91924 0.062954 -0.048 0.719 0.32021 -0.052898 0.84029 0.071589 0.01667 0.70276 0.32972 0.018371 0.82239 0.046726 0.073541 0.74952 0.30233 0.081045 0.87392 0.35689 0.075042 1.1422 0.40457 0.09796 1.0525 0.33152 0.017011 1.1899 0.34033 -0.04898 1.1733 0.3792 -0.092052 1.1002 0.42994 -0.092052 1.0048 0.46881 -0.04898 0.9317 0.47762 0.017011 0.91513 0.45225 0.075042 0.96284 0 0 0.8374 0.40457 0 1.0525 0.40457 -0.23474 1.0414 0.3793 -0.20156 1.0678 0.26764 -0.22827 0.99067 0.29081 -0.25869 0.96648 0.37305 -0.15342 1.0589 0.26192 -0.18414 0.98247 0.39054 -0.12658 1.0213 0.27795 -0.15953 0.94805 0.41859 -0.14124 0.98347 0.30366 -0.17298 0.91333 0.43608 -0.18637 0.97379 0.31969 -0.21435 0.90445 0.42984 -0.22798 0.99959 0.31397 -0.25249 0.92811 0.15599 -0.25498 0.9135 0.17705 -0.28263 0.8915 0.15079 -0.21486 0.90604 0.16536 -0.19249 0.87475 0.18873 -0.20471 0.84319 0.20331 -0.24232 0.83512 0.19811 -0.277 0.85662 0.40457 -0.1817 1.0209 0.17705 -0.23843 0.87439 0.40457 0.12673 1.0063 0.37623 0.13861 1.0449 0.27203 0.16485 0.9578 0.298 0.15396 0.92239 0.36924 0.18294 1.0655 0.26562 0.20549 0.97664 0.38884 0.22633 1.0525 0.28359 0.24526 0.96473 0.42029 0.23612 1.0157 0.31242 0.25423 0.93103 0.4399 0.20492 0.98286 0.33039 0.22564 0.90092 0.4329 0.15624 0.97867 0.32398 0.18102 0.89707 0.16783 0.1911 0.87069 0.19144 0.1812 0.83849 0.162 0.22803 0.88782 0.17834 0.26419 0.87698 0.20455 0.27235 0.84635 0.22088 0.24635 0.81897 0.21505 0.20579 0.81548 0.40457 0.1817 1.0209 0.19144 0.227 0.85068 0 -0.1896 0.8374 -0.070559 -0.1551 0.84984 -0.096261 -0.14869 0.65784 -0.03361 -0.17933 0.64679 -0.087985 -0.077568 0.85291 -0.11173 -0.079853 0.66057 -0.039157 -0.015395 0.8443 -0.068378 -0.024648 0.65292 0.039157 -0.015395 0.8305 0.0011592 -0.024648 0.64066 0.087985 -0.077568 0.82189 0.044515 -0.079853 0.63302 0.070559 -0.1551 0.82496 0.029042 -0.14869 0.63574 -0.12196 -0.14229 0.46583 -0.067219 -0.16906 0.45618 -0.13548 -0.082139 0.46822 -0.0976 -0.033901 0.46154 -0.036839 -0.033901 0.45082 0.0010451 -0.082139 0.44414 -0.012475 -0.14229 0.44653 0 -0.09796 0.8374 -0.067219 -0.09796 0.45618 -0.067219 -0.1659 0.45618 -0.11828 -0.14032 0.44154 -0.057211 -0.13392 0.2577 -0.01387 -0.15563 0.27013 -0.13089 -0.082842 0.43792 -0.067916 -0.085127 0.25463 -0.095555 -0.036748 0.44806 -0.037922 -0.046001 0.26323 -0.038883 -0.036748 0.46431 0.010183 -0.046001 0.27703 -0.0035485 -0.082842 0.47444 0.040176 -0.085127 0.28563 -0.016159 -0.14032 0.47082 0.029472 -0.13392 0.28256 0.0038568 -0.12751 0.073862 0.03948 -0.14536 0.084077 -0.0049414 -0.087413 0.071339 0.019711 -0.055254 0.078408 0.059249 -0.055254 0.089745 0.083901 -0.087413 0.096814 0.075103 -0.12751 0.094291 -0.067219 -0.09796 0.45618 0.03948 -0.09796 0.084077 0 0.00632 0.8374 -0.071255 0.040823 0.82991 -0.043038 0.047227 0.63826 0.020232 0.01659 0.64491 -0.088853 0.11835 0.82806 -0.058664 0.11607 0.63662 -0.039543 0.18052 0.83324 -0.01488 0.17127 0.64122 0.039543 0.18052 0.84156 0.055343 0.17127 0.6486 0.088853 0.11835 0.84674 0.099127 0.11607 0.6532 0.071255 0.040823 0.84489 0.083501 0.047227 0.65156 -0.014821 0.05363 0.44661 0.040463 0.02686 0.45242 -0.028475 0.11378 0.44517 0.0097829 0.16202 0.4492 0.071143 0.16202 0.45565 0.1094 0.11378 0.45967 0.095747 0.05363 0.45823 0 0.09796 0.8374 0.040463 0.09796 0.45242 0.040463 0.03002 0.45242 -0.0045833 0.0556 0.42427 0.10479 0.062003 0.26439 0.14303 0.04029 0.28828 -0.015709 0.11308 0.41732 0.095348 0.11079 0.25849 0.015464 0.15917 0.4368 0.12181 0.14992 0.27502 0.065462 0.15917 0.46804 0.16425 0.14992 0.30154 0.096635 0.11308 0.48752 0.19071 0.11079 0.31808 0.085509 0.0556 0.48057 0.18127 0.062003 0.31217 0.21417 0.068407 0.1045 0.24559 0.05056 0.12414 0.20641 0.10851 0.099653 0.22815 0.14067 0.11324 0.26304 0.14067 0.13504 0.28478 0.10851 0.14863 0.27702 0.068407 0.14378 0.040463 0.09796 0.45242 0.24559 0.09796 0.12414 -1.994e-05 -0.14852 0 -1.994e-05 -0.0474 0 0.17378 -0.0474 0 0.17378 -0.14852 0 -1.994e-05 -0.14852 0.05688 0.17378 -0.14852 0.05688 0.17378 -0.0474 0.05688 -1.994e-05 -0.0474 0.05688 0.20609 0.0474 0 0.20609 0.14852 0 0.37989 0.14852 0 0.37989 0.0474 0 0.20609 0.0474 0.05688 0.37989 0.0474 0.05688 0.37989 0.14852 0.05688 0.20609 0.14852 0.05688 0.53761 0 1.2855 0.53761 0 1.2855 0.60396 0.053487 1.2637 0.62422 0 1.2637 0.53761 0 1.2855 0.55265 0.081947 1.2637 0.53761 0 1.2855 0.49431 0.072063 1.2637 0.53761 0 1.2855 0.45623 0.02846 1.2637 0.53761 0 1.2855 0.45623 -0.02846 1.2637 0.53761 0 1.2855 0.49431 -0.072063 1.2637 0.53761 0 1.2855 0.55265 -0.081947 1.2637 0.53761 0 1.2855 0.60396 -0.053487 1.2637 0.63144 0.075642 1.2111 0.66009 0 1.2111 0.55888 0.11589 1.2111 0.47637 0.10191 1.2111 0.42252 0.040248 1.2111 0.42252 -0.040248 1.2111 0.47637 -0.10191 1.2111 0.55888 -0.11589 1.2111 0.63144 -0.075642 1.2111 0.60396 0.053487 1.1584 0.62422 0 1.1584 0.55265 0.081947 1.1584 0.49431 0.072063 1.1584 0.45623 0.02846 1.1584 0.45623 -0.02846 1.1584 0.49431 -0.072063 1.1584 0.55265 -0.081947 1.1584 0.60396 -0.053487 1.1584 0.53761 9.2635e-18 1.1366 0.53761 0 1.1366 0.53761 1.4193e-17 1.1366 0.53761 1.2481e-17 1.1366 0.53761 4.929e-18 1.1366 0.53761 -4.929e-18 1.1366 0.53761 -1.2481e-17 1.1366 0.53761 -1.4193e-17 1.1366 0.53761 -9.2635e-18 1.1366</float_array><technique_common><accessor source="#HUMAN_F1-pos-a" count="426" stride="3"><param name="X" type="float"/><param name="Y" type="float"/><param name="Z" type="float"/></accessor></technique_common></source>
        <source id="HUMAN_F1-nrm"><float_array id="HUMAN_F1-nrm-a" count="777">0.055 0.996 0.065 -0.606 0.498 0.62 -0.606 -0.498 0.62 0.055 -0.996 0.065 0.716 -0.498 -0.489 0.716 0.498 -0.489 0.643 0 0.766 -0.643 0 -0.766 -0.248 0 -0.969 -0.189 -0.184 -0.965 -0.381 -0.371 -0.847 -0.514 -0 -0.858 -0.043 -0.281 -0.959 -0.083 -0.546 -0.833 0.123 -0.247 -0.961 0.243 -0.488 -0.839 0.233 -0.098 -0.968 0.479 -0.202 -0.854 0.233 0.098 -0.968 0.479 0.202 -0.854 0.123 0.247 -0.961 0.243 0.488 -0.839 -0.043 0.281 -0.959 -0.083 0.546 -0.833 -0.189 0.184 -0.965 -0.381 0.371 -0.847 -0.612 -0.577 -0.541 -0.829 0 -0.56 -0.132 -0.846 -0.516 0.388 -0.757 -0.526 0.77 -0.315 -0.554 0.77 0.315 -0.554 0.388 0.757 -0.526 -0.132 0.846 -0.516 -0.612 0.577 -0.541 -0.719 -0.671 -0.183 -0.981 -0 -0.192 -0.154 -0.973 -0.171 0.453 -0.874 -0.176 0.911 -0.367 -0.19 0.911 0.367 -0.19 0.453 0.874 -0.176 -0.154 0.973 -0.171 -0.719 0.671 -0.183 -0.719 -0.671 0.183 -0.981 -0 0.192 -0.154 -0.973 0.171 0.453 -0.874 0.176 0.911 -0.367 0.19 0.911 0.367 0.19 0.453 0.874 0.176 -0.154 0.973 0.171 -0.719 0.671 0.183 -0.612 -0.577 0.541 -0.829 -0 0.56 -0.132 -0.846 0.516 0.388 -0.757 0.526 0.77 -0.315 0.554 0.77 0.315 0.554 0.388 0.757 0.526 -0.132 0.846 0.516 -0.612 0.577 0.541 -0.381 -0.371 0.847 -0.514 0 0.858 -0.083 -0.546 0.833 0.243 -0.488 0.839 0.479 -0.202 0.854 0.479 0.202 0.854 0.243 0.488 0.839 -0.083 0.546 0.833 -0.381 0.371 0.847 -0.211 -0.154 0.965 -0.248 0 0.969 -0.067 -0.276 0.959 0.141 -0.236 0.962 0.238 -0.08 0.968 0.238 0.08 0.968 0.141 0.236 0.962 -0.067 0.276 0.959 -0.211 0.154 0.965 -0.036 0.651 0.758 -0.282 0.959 -0.014 -0.342 0.539 -0.77 -0.172 -0.294 -0.94 0.101 -0.912 -0.397 0.271 -0.85 0.451 0.211 -0.155 0.965 -0.949 -0.237 0.208 0.949 0.237 -0.208 -0.421 0 -0.907 -0.209 -0.412 -0.887 -0.375 -0.709 -0.597 -0.787 0 -0.616 0.209 -0.412 -0.887 0.375 -0.709 -0.597 0.421 0 -0.907 0.787 0 -0.616 0.209 0.412 -0.887 0.375 0.709 -0.597 -0.209 0.412 -0.887 -0.375 0.709 -0.597 -0.478 -0.878 0 -1 0 0 0.478 -0.878 0 1 -0 0 0.478 0.878 0 -0.478 0.878 0 -0.375 -0.709 0.597 -0.787 0 0.616 0.375 -0.709 0.597 0.787 0 0.616 0.375 0.709 0.597 -0.375 0.709 0.597 -0.209 -0.412 0.887 -0.421 0 0.907 0.209 -0.412 0.887 0.421 0 0.907 0.209 0.412 0.887 -0.209 0.412 0.887 -0.143 0.008 -0.99 -0.264 -0.757 -0.598 -0.213 -0.945 0.247 -0.029 -0.416 0.909 0.149 0.432 0.89 0.188 0.961 0.203 0.058 0.772 -0.633 -0.973 0.207 0.105 0.973 -0.207 -0.105 -0.03 0.999 -0.016 -0.268 0.868 0.418 -0.23 0.865 0.446 0.005 1 0.002 -0.504 0.236 0.831 -0.449 0.232 0.863 -0.405 -0.635 0.658 -0.359 -0.628 0.69 -0.142 -0.971 0.191 -0.108 -0.971 0.214 0.079 -0.971 -0.225 0.117 -0.971 -0.209 0.32 -0.635 -0.704 0.372 -0.628 -0.684 0.407 0.236 -0.882 0.464 0.232 -0.855 0.196 0.868 -0.456 0.241 0.865 -0.44 -0.185 0.868 0.461 0.04 0.999 0.021 -0.392 0.236 0.889 -0.306 -0.635 0.709 -0.069 -0.971 0.23 0.152 -0.971 -0.186 0.417 -0.635 -0.65 0.518 0.236 -0.822 0.279 0.868 -0.411 0.883 0 0.469 -0.883 0 -0.469 -0.028 -0.939 0.343 -0.472 -0.356 0.806 -0.582 0.49 0.649 -0.275 0.961 -0.011 0.218 0.704 -0.676 0.525 -0.089 -0.846 0.416 -0.82 -0.393 -0.823 -0.205 -0.53 0.823 0.205 0.53 -0.026 -0.96 -0.278 -0.524 -0.751 0.401 -0.647 0.027 0.762 -0.303 0.79 0.533 0.25 0.962 -0.113 0.594 0.414 -0.69 0.471 -0.442 -0.763 -0.771 0.164 -0.616 0.771 -0.164 0.616 -0.009 -0.999 -0.052 -0.778 -0.623 0.083 -0.968 0.222 0.117 -0.436 0.9 0.023 0.417 0.9 -0.127 0.95 0.222 -0.221 0.76 -0.623 -0.188 -0.174 0 -0.985 0.174 0 0.985 0.015 -0.999 -0.051 -0.736 -0.623 -0.266 -0.921 0.222 -0.319 -0.402 0.9 -0.17 0.431 0.9 0.068 0.95 0.222 0.217 0.765 -0.623 0.164 0.276 0 -0.961 -0.276 -0 0.961 0.006 -0.999 -0.053 -0.771 -0.623 -0.134 -0.963 0.222 -0.154 -0.425 0.9 -0.098 0.436 0.9 -0.007 0.974 0.222 0.049 0.782 -0.623 0.029 0.105 0 -0.995 -0.105 0 0.995 0.028 -0.999 -0.045 -0.634 -0.623 -0.459 -0.798 0.222 -0.561 -0.339 0.9 -0.275 0.396 0.9 0.185 0.854 0.222 0.471 0.69 -0.623 0.369 0.53 0 -0.848 -0.53 0 0.848 0 0 -1 0 0 1 0 -1 0 0 1 0 -0.244 0 -0.97 -0.187 -0.163 -0.969 -0.472 -0.411 -0.78 -0.622 -0 -0.783 -0.042 -0.25 -0.967 -0.106 -0.621 -0.777 0.122 -0.22 -0.968 0.305 -0.549 -0.778 0.229 -0.087 -0.969 0.583 -0.22 -0.782 0.229 0.087 -0.969 0.583 0.22 -0.782 0.122 0.22 -0.968 0.305 0.549 -0.778 -0.042 0.25 -0.967 -0.106 0.621 -0.777 -0.187 0.163 -0.969 -0.472 0.411 -0.78 -0.759 -0.652 0 -0.17 -0.985 0 0.491 -0.871 -0 0.937 -0.349 -0 0.937 0.349 -0 0.491 0.871 -0 -0.17 0.985 0 -0.759 0.652 0 -0.472 -0.411 0.78 -0.622 0 0.783 -0.106 -0.621 0.777 0.305 -0.549 0.778 0.583 -0.22 0.782 0.583 0.22 0.782 0.305 0.549 0.778 -0.106 0.621 0.777 -0.472 0.411 0.78 -0.211 -0.134 0.968 -0.244 0 0.97 -0.067 -0.245 0.967 0.14 -0.209 0.968 0.236 -0.069 0.969 0.236 0.069 0.969 0.14 0.209 0.968 -0.067 0.245 0.967 -0.211 0.134 0.968</float_array><technique_common><accessor source="#HUMAN_F1-nrm-a" count="259" stride="3"><param name="X" type="float"/><param name="Y" type="float"/><param name="Z" type="float"/></accessor></technique_common></source>
        <vertices id="HUMAN_F1-vtx"><input semantic="POSITION" source="#HUMAN_F1-pos"/></vertices>
        <triangles count="342" material="MAT_SKIN_2-mat"><input semantic="VERTEX" source="#HUMAN_F1-vtx" offset="0"/><input semantic="NORMAL" source="#HUMAN_F1-nrm" offset="1"/><p>0 0 1 1 2 1 0 0 2 1 3 0 1 1 4 2 5 2 1 1 5 2 2 1 4 2 6 3 7 3 4 2 7 3 5 2 6 3 8 4 9 4 6 3 9 4 7 3 8 4 10 5 11 5 8 4 11 5 9 4 10 5 0 0 3 0 10 5 3 0 11 5 3 0 2 1 12 1 3 0 12 1 13 0 2 1 5 2 14 2 2 1 14 2 12 1 5 2 7 3 15 3 5 2 15 3 14 2 7 3 9 4 16 4 7 3 16 4 15 3 9 4 11 5 17 5 9 4 17 5 16 4 11 5 3 0 13 0 11 5 13 0 17 5 0 6 1 6 18 6 1 6 4 6 18 6 4 6 6 6 18 6 6 6 8 6 18 6 8 6 10 6 18 6 10 6 0 6 18 6 12 7 13 7 19 7 14 7 12 7 19 7 15 7 14 7 19 7 16 7 15 7 19 7 17 7 16 7 19 7 13 7 17 7 19 7 20 8 21 9 22 10 20 8 22 10 23 11 21 9 24 12 25 13 21 9 25 13 22 10 24 12 26 14 27 15 24 12 27 15 25 13 26 14 28 16 29 17 26 14 29 17 27 15 28 16 30 18 31 19 28 16 31 19 29 17 30 18 32 20 33 21 30 18 33 21 31 19 32 20 34 22 35 23 32 20 35 23 33 21 34 22 36 24 37 25 34 22 37 25 35 23 36 24 20 8 23 11 36 24 23 11 37 25 23 11 22 10 38 26 23 11 38 26 39 27 22 10 25 13 40 28 22 10 40 28 38 26 25 13 27 15 41 29 25 13 41 29 40 28 27 15 29 17 42 30 27 15 42 30 41 29 29 17 31 19 43 31 29 17 43 31 42 30 31 19 33 21 44 32 31 19 44 32 43 31 33 21 35 23 45 33 33 21 45 33 44 32 35 23 37 25 46 34 35 23 46 34 45 33 37 25 23 11 39 27 37 25 39 27 46 34 39 27 38 26 47 35 39 27 47 35 48 36 38 26 40 28 49 37 38 26 49 37 47 35 40 28 41 29 50 38 40 28 50 38 49 37 41 29 42 30 51 39 41 29 51 39 50 38 42 30 43 31 52 40 42 30 52 40 51 39 43 31 44 32 53 41 43 31 53 41 52 40 44 32 45 33 54 42 44 32 54 42 53 41 45 33 46 34 55 43 45 33 55 43 54 42 46 34 39 27 48 36 46 34 48 36 55 43 48 36 47 35 56 44 48 36 56 44 57 45 47 35 49 37 58 46 47 35 58 46 56 44 49 37 50 38 59 47 49 37 59 47 58 46 50 38 51 39 60 48 50 38 60 48 59 47 51 39 52 40 61 49 51 39 61 49 60 48 52 40 53 41 62 50 52 40 62 50 61 49 53 41 54 42 63 51 53 41 63 51 62 50 54 42 55 43 64 52 54 42 64 52 63 51 55 43 48 36 57 45 55 43 57 45 64 52 57 45 56 44 65 53 57 45 65 53 66 54 56 44 58 46 67 55 56 44 67 55 65 53 58 46 59 47 68 56 58 46 68 56 67 55 59 47 60 48 69 57 59 47 69 57 68 56 60 48 61 49 70 58 60 48 70 58 69 57 61 49 62 50 71 59 61 49 71 59 70 58 62 50 63 51 72 60 62 50 72 60 71 59 63 51 64 52 73 61 63 51 73 61 72 60 64 52 57 45 66 54 64 52 66 54 73 61 66 54 65 53 74 62 66 54 74 62 75 63 65 53 67 55 76 64 65 53 76 64 74 62 67 55 68 56 77 65 67 55 77 65 76 64 68 56 69 57 78 66 68 56 78 66 77 65 69 57 70 58 79 67 69 57 79 67 78 66 70 58 71 59 80 68 70 58 80 68 79 67 71 59 72 60 81 69 71 59 81 69 80 68 72 60 73 61 82 70 72 60 82 70 81 69 73 61 66 54 75 63 73 61 75 63 82 70 75 63 74 62 83 71 75 63 83 71 84 72 74 62 76 64 85 73 74 62 85 73 83 71 76 64 77 65 86 74 76 64 86 74 85 73 77 65 78 66 87 75 77 65 87 75 86 74 78 66 79 67 88 76 78 66 88 76 87 75 79 67 80 68 89 77 79 67 89 77 88 76 80 68 81 69 90 78 80 68 90 78 89 77 81 69 82 70 91 79 81 69 91 79 90 78 82 70 75 63 84 72 82 70 84 72 91 79 92 80 93 81 94 81 92 80 94 81 95 80 93 81 96 82 97 82 93 81 97 82 94 81 96 82 98 83 99 83 96 82 99 83 97 82 98 83 100 84 101 84 98 83 101 84 99 83 100 84 102 85 103 85 100 84 103 85 101 84 102 85 104 86 105 86 102 85 105 86 103 85 104 86 92 80 95 80 104 86 95 80 105 86 95 80 94 81 106 81 95 80 106 81 107 80 94 81 97 82 108 82 94 81 108 82 106 81 97 82 99 83 109 83 97 82 109 83 108 82 99 83 101 84 110 84 99 83 110 84 109 83 101 84 103 85 111 85 101 84 111 85 110 84 103 85 105 86 112 86 103 85 112 86 111 85 105 86 95 80 107 80 105 86 107 80 112 86 92 87 93 87 113 87 93 87 96 87 113 87 96 87 98 87 113 87 98 87 100 87 113 87 100 87 102 87 113 87 102 87 104 87 113 87 104 87 92 87 113 87 106 88 107 88 114 88 108 88 106 88 114 88 109 88 108 88 114 88 110 88 109 88 114 88 111 88 110 88 114 88 112 88 111 88 114 88 107 88 112 88 114 88 115 89 116 90 117 91 115 89 117 91 118 92 116 90 119 93 120 94 116 90 120 94 117 91 119 93 121 95 122 96 119 93 122 96 120 94 121 95 123 97 124 98 121 95 124 98 122 96 123 97 125 99 126 100 123 97 126 100 124 98 125 99 115 89 118 92 125 99 118 92 126 100 118 92 117 91 127 101 118 92 127 101 128 102 117 91 120 94 129 103 117 91 129 103 127 101 120 94 122 96 130 104 120 94 130 104 129 103 122 96 124 98 131 105 122 96 131 105 130 104 124 98 126 100 132 106 124 98 132 106 131 105 126 100 118 92 128 102 126 100 128 102 132 106 128 102 127 101 133 107 128 102 133 107 134 108 127 101 129 103 135 109 127 101 135 109 133 107 129 103 130 104 136 110 129 103 136 110 135 109 130 104 131 105 137 111 130 104 137 111 136 110 131 105 132 106 138 112 131 105 138 112 137 111 132 106 128 102 134 108 132 106 134 108 138 112 134 108 133 107 139 113 134 108 139 113 140 114 133 107 135 109 141 115 133 107 141 115 139 113 135 109 136 110 142 116 135 109 142 116 141 115 136 110 137 111 143 117 136 110 143 117 142 116 137 111 138 112 144 118 137 111 144 118 143 117 138 112 134 108 140 114 138 112 140 114 144 118 145 119 146 120 147 120 145 119 147 120 148 119 146 120 149 121 150 121 146 120 150 121 147 120 149 121 151 122 152 122 149 121 152 122 150 121 151 122 153 123 154 123 151 122 154 123 152 122 153 123 155 124 156 124 153 123 156 124 154 123 155 124 157 125 158 125 155 124 158 125 156 124 157 125 145 119 148 119 157 125 148 119 158 125 148 119 147 120 159 120 148 119 159 120 160 119 147 120 150 121 161 121 147 120 161 121 159 120 150 121 152 122 162 122 150 121 162 122 161 121 152 122 154 123 163 123 152 122 163 123 162 122 154 123 156 124 164 124 154 123 164 124 163 123 156 124 158 125 165 125 156 124 165 125 164 124 158 125 148 119 160 119 158 125 160 119 165 125 145 126 146 126 166 126 146 126 149 126 166 126 149 126 151 126 166 126 151 126 153 126 166 126 153 126 155 126 166 126 155 126 157 126 166 126 157 126 145 126 166 126 159 127 160 127 167 127 161 127 159 127 167 127 162 127 161 127 167 127 163 127 162 127 167 127 164 127 163 127 167 127 165 127 164 127 167 127 160 127 165 127 167 127 168 89 169 90 170 91 168 89 170 91 171 92 169 90 172 93 173 94 169 90 173 94 170 91 172 93 174 95 175 96 172 93 175 96 173 94 174 95 176 97 177 98 174 95 177 98 175 96 176 97 178 99 179 100 176 97 179 100 177 98 178 99 168 89 171 92 178 99 171 92 179 100 171 92 170 91 180 101 171 92 180 101 181 102 170 91 173 94 182 103 170 91 182 103 180 101 173 94 175 96 183 104 173 94 183 104 182 103 175 96 177 98 184 105 175 96 184 105 183 104 177 98 179 100 185 106 177 98 185 106 184 105 179 100 171 92 181 102 179 100 181 102 185 106 181 102 180 101 186 107 181 102 186 107 187 108 180 101 182 103 188 109 180 101 188 109 186 107 182 103 183 104 189 110 182 103 189 110 188 109 183 104 184 105 190 111 183 104 190 111 189 110 184 105 185 106 191 112 184 105 191 112 190 111 185 106 181 102 187 108 185 106 187 108 191 112 187 108 186 107 192 113 187 108 192 113 193 114 186 107 188 109 194 115 186 107 194 115 192 113 188 109 189 110 195 116 188 109 195 116 194 115 189 110 190 111 196 117 189 110 196 117 195 116 190 111 191 112 197 118 190 111 197 118 196 117 191 112 187 108 193 114 191 112 193 114 197 118</p></triangles>
        <triangles count="138" material="MAT_SHIRT_2-mat"><input semantic="VERTEX" source="#HUMAN_F1-vtx" offset="0"/><input semantic="NORMAL" source="#HUMAN_F1-nrm" offset="1"/><p>198 128 199 129 200 130 198 128 200 130 201 131 199 129 202 132 203 133 199 129 203 133 200 130 202 132 204 134 205 135 202 132 205 135 203 133 204 134 206 136 207 137 204 134 207 137 205 135 206 136 208 138 209 139 206 136 209 139 207 137 208 138 210 140 211 141 208 138 211 141 209 139 210 140 212 142 213 143 210 140 213 143 211 141 212 142 214 144 215 145 212 142 215 145 213 143 214 144 198 128 201 131 214 144 201 131 215 145 201 131 200 130 216 146 201 131 216 146 217 147 200 130 203 133 218 148 200 130 218 148 216 146 203 133 205 135 219 149 203 133 219 149 218 148 205 135 207 137 220 150 205 135 220 150 219 149 207 137 209 139 221 151 207 137 221 151 220 150 209 139 211 141 222 152 209 139 222 152 221 151 211 141 213 143 223 153 211 141 223 153 222 152 213 143 215 145 224 154 213 143 224 154 223 153 215 145 201 131 217 147 215 145 217 147 224 154 198 155 199 155 225 155 199 155 202 155 225 155 202 155 204 155 225 155 204 155 206 155 225 155 206 155 208 155 225 155 208 155 210 155 225 155 210 155 212 155 225 155 212 155 214 155 225 155 214 155 198 155 225 155 216 156 217 156 226 156 218 156 216 156 226 156 219 156 218 156 226 156 220 156 219 156 226 156 221 156 220 156 226 156 222 156 221 156 226 156 223 156 222 156 226 156 224 156 223 156 226 156 217 156 224 156 226 156 227 157 228 158 229 158 227 157 229 158 230 157 228 158 231 159 232 159 228 158 232 159 229 158 231 159 233 160 234 160 231 159 234 160 232 159 233 160 235 161 236 161 233 160 236 161 234 160 235 161 237 162 238 162 235 161 238 162 236 161 237 162 239 163 240 163 237 162 240 163 238 162 239 163 227 157 230 157 239 163 230 157 240 163 230 157 229 158 241 158 230 157 241 158 242 157 229 158 232 159 243 159 229 158 243 159 241 158 232 159 234 160 244 160 232 159 244 160 243 159 234 160 236 161 245 161 234 160 245 161 244 160 236 161 238 162 246 162 236 161 246 162 245 161 238 162 240 163 247 163 238 162 247 163 246 162 240 163 230 157 242 157 240 163 242 157 247 163 227 164 228 164 248 164 228 164 231 164 248 164 231 164 233 164 248 164 233 164 235 164 248 164 235 164 237 164 248 164 237 164 239 164 248 164 239 164 227 164 248 164 241 165 242 165 249 165 243 165 241 165 249 165 244 165 243 165 249 165 245 165 244 165 249 165 246 165 245 165 249 165 247 165 246 165 249 165 242 165 247 165 249 165 250 166 251 167 252 167 250 166 252 167 253 166 251 167 254 168 255 168 251 167 255 168 252 167 254 168 256 169 257 169 254 168 257 169 255 168 256 169 258 170 259 170 256 169 259 170 257 169 258 170 260 171 261 171 258 170 261 171 259 170 260 171 262 172 263 172 260 171 263 172 261 171 262 172 250 166 253 166 262 172 253 166 263 172 253 166 252 167 264 167 253 166 264 167 265 166 252 167 255 168 266 168 252 167 266 168 264 167 255 168 257 169 267 169 255 168 267 169 266 168 257 169 259 170 268 170 257 169 268 170 267 169 259 170 261 171 269 171 259 170 269 171 268 170 261 171 263 172 270 172 261 171 270 172 269 171 263 172 253 166 265 166 263 172 265 166 270 172 250 173 251 173 271 173 251 173 254 173 271 173 254 173 256 173 271 173 256 173 258 173 271 173 258 173 260 173 271 173 260 173 262 173 271 173 262 173 250 173 271 173 264 174 265 174 272 174 266 174 264 174 272 174 267 174 266 174 272 174 268 174 267 174 272 174 269 174 268 174 272 174 270 174 269 174 272 174 265 174 270 174 272 174</p></triangles>
        <triangles count="168" material="MAT_TROUSER_2-mat"><input semantic="VERTEX" source="#HUMAN_F1-vtx" offset="0"/><input semantic="NORMAL" source="#HUMAN_F1-nrm" offset="1"/><p>273 175 274 176 275 176 273 175 275 176 276 175 274 176 277 177 278 177 274 176 278 177 275 176 277 177 279 178 280 178 277 177 280 178 278 177 279 178 281 179 282 179 279 178 282 179 280 178 281 179 283 180 284 180 281 179 284 180 282 179 283 180 285 181 286 181 283 180 286 181 284 180 285 181 273 175 276 175 285 181 276 175 286 181 276 175 275 176 287 176 276 175 287 176 288 175 275 176 278 177 289 177 275 176 289 177 287 176 278 177 280 178 290 178 278 177 290 178 289 177 280 178 282 179 291 179 280 178 291 179 290 178 282 179 284 180 292 180 282 179 292 180 291 179 284 180 286 181 293 181 284 180 293 181 292 180 286 181 276 175 288 175 286 181 288 175 293 181 273 182 274 182 294 182 274 182 277 182 294 182 277 182 279 182 294 182 279 182 281 182 294 182 281 182 283 182 294 182 283 182 285 182 294 182 285 182 273 182 294 182 287 183 288 183 295 183 289 183 287 183 295 183 290 183 289 183 295 183 291 183 290 183 295 183 292 183 291 183 295 183 293 183 292 183 295 183 288 183 293 183 295 183 296 184 297 185 298 185 296 184 298 185 299 184 297 185 300 186 301 186 297 185 301 186 298 185 300 186 302 187 303 187 300 186 303 187 301 186 302 187 304 188 305 188 302 187 305 188 303 187 304 188 306 189 307 189 304 188 307 189 305 188 306 189 308 190 309 190 306 189 309 190 307 189 308 190 296 184 299 184 308 190 299 184 309 190 299 184 298 185 310 185 299 184 310 185 311 184 298 185 301 186 312 186 298 185 312 186 310 185 301 186 303 187 313 187 301 186 313 187 312 186 303 187 305 188 314 188 303 187 314 188 313 187 305 188 307 189 315 189 305 188 315 189 314 188 307 189 309 190 316 190 307 189 316 190 315 189 309 190 299 184 311 184 309 190 311 184 316 190 296 191 297 191 317 191 297 191 300 191 317 191 300 191 302 191 317 191 302 191 304 191 317 191 304 191 306 191 317 191 306 191 308 191 317 191 308 191 296 191 317 191 310 192 311 192 318 192 312 192 310 192 318 192 313 192 312 192 318 192 314 192 313 192 318 192 315 192 314 192 318 192 316 192 315 192 318 192 311 192 316 192 318 192 319 193 320 194 321 194 319 193 321 194 322 193 320 194 323 195 324 195 320 194 324 195 321 194 323 195 325 196 326 196 323 195 326 196 324 195 325 196 327 197 328 197 325 196 328 197 326 196 327 197 329 198 330 198 327 197 330 198 328 197 329 198 331 199 332 199 329 198 332 199 330 198 331 199 319 193 322 193 331 199 322 193 332 199 322 193 321 194 333 194 322 193 333 194 334 193 321 194 324 195 335 195 321 194 335 195 333 194 324 195 326 196 336 196 324 195 336 196 335 195 326 196 328 197 337 197 326 196 337 197 336 196 328 197 330 198 338 198 328 197 338 198 337 197 330 198 332 199 339 199 330 198 339 199 338 198 332 199 322 193 334 193 332 199 334 193 339 199 319 200 320 200 340 200 320 200 323 200 340 200 323 200 325 200 340 200 325 200 327 200 340 200 327 200 329 200 340 200 329 200 331 200 340 200 331 200 319 200 340 200 333 201 334 201 341 201 335 201 333 201 341 201 336 201 335 201 341 201 337 201 336 201 341 201 338 201 337 201 341 201 339 201 338 201 341 201 334 201 339 201 341 201 342 202 343 203 344 203 342 202 344 203 345 202 343 203 346 204 347 204 343 203 347 204 344 203 346 204 348 205 349 205 346 204 349 205 347 204 348 205 350 206 351 206 348 205 351 206 349 205 350 206 352 207 353 207 350 206 353 207 351 206 352 207 354 208 355 208 352 207 355 208 353 207 354 208 342 202 345 202 354 208 345 202 355 208 345 202 344 203 356 203 345 202 356 203 357 202 344 203 347 204 358 204 344 203 358 204 356 203 347 204 349 205 359 205 347 204 359 205 358 204 349 205 351 206 360 206 349 205 360 206 359 205 351 206 353 207 361 207 351 206 361 207 360 206 353 207 355 208 362 208 353 207 362 208 361 207 355 208 345 202 357 202 355 208 357 202 362 208 342 209 343 209 363 209 343 209 346 209 363 209 346 209 348 209 363 209 348 209 350 209 363 209 350 209 352 209 363 209 352 209 354 209 363 209 354 209 342 209 363 209 356 210 357 210 364 210 358 210 356 210 364 210 359 210 358 210 364 210 360 210 359 210 364 210 361 210 360 210 364 210 362 210 361 210 364 210 357 210 362 210 364 210</p></triangles>
        <triangles count="24" material="MAT_FOOTWEAR-mat"><input semantic="VERTEX" source="#HUMAN_F1-vtx" offset="0"/><input semantic="NORMAL" source="#HUMAN_F1-nrm" offset="1"/><p>365 211 366 211 367 211 365 211 367 211 368 211 369 212 370 212 371 212 369 212 371 212 372 212 365 213 368 213 370 213 365 213 370 213 369 213 368 104 367 104 371 104 368 104 371 104 370 104 367 214 366 214 372 214 367 214 372 214 371 214 366 102 365 102 369 102 366 102 369 102 372 102 373 211 374 211 375 211 373 211 375 211 376 211 377 212 378 212 379 212 377 212 379 212 380 212 373 213 376 213 378 213 373 213 378 213 377 213 376 104 375 104 379 104 376 104 379 104 378 104 375 214 374 214 380 214 375 214 380 214 379 214 374 102 373 102 377 102 374 102 377 102 380 102</p></triangles>
        <triangles count="72" material="MAT_HEADCOVER_2-mat"><input semantic="VERTEX" source="#HUMAN_F1-vtx" offset="0"/><input semantic="NORMAL" source="#HUMAN_F1-nrm" offset="1"/><p>381 215 382 216 383 217 381 215 383 217 384 218 382 216 385 219 386 220 382 216 386 220 383 217 385 219 387 221 388 222 385 219 388 222 386 220 387 221 389 223 390 224 387 221 390 224 388 222 389 223 391 225 392 226 389 223 392 226 390 224 391 225 393 227 394 228 391 225 394 228 392 226 393 227 395 229 396 230 393 227 396 230 394 228 395 229 397 231 398 232 395 229 398 232 396 230 397 231 381 215 384 218 397 231 384 218 398 232 384 218 383 217 399 233 384 218 399 233 400 102 383 217 386 220 401 234 383 217 401 234 399 233 386 220 388 222 402 235 386 220 402 235 401 234 388 222 390 224 403 236 388 222 403 236 402 235 390 224 392 226 404 237 390 224 404 237 403 236 392 226 394 228 405 238 392 226 405 238 404 237 394 228 396 230 406 239 394 228 406 239 405 238 396 230 398 232 407 240 396 230 407 240 406 239 398 232 384 218 400 102 398 232 400 102 407 240 400 102 399 233 408 241 400 102 408 241 409 242 399 233 401 234 410 243 399 233 410 243 408 241 401 234 402 235 411 244 401 234 411 244 410 243 402 235 403 236 412 245 402 235 412 245 411 244 403 236 404 237 413 246 403 236 413 246 412 245 404 237 405 238 414 247 404 237 414 247 413 246 405 238 406 239 415 248 405 238 415 248 414 247 406 239 407 240 416 249 406 239 416 249 415 248 407 240 400 102 409 242 407 240 409 242 416 249 409 242 408 241 417 250 409 242 417 250 418 251 408 241 410 243 419 252 408 241 419 252 417 250 410 243 411 244 420 253 410 243 420 253 419 252 411 244 412 245 421 254 411 244 421 254 420 253 412 245 413 246 422 255 412 245 422 255 421 254 413 246 414 247 423 256 413 246 423 256 422 255 414 247 415 248 424 257 414 247 424 257 423 256 415 248 416 249 425 258 415 248 425 258 424 257 416 249 409 242 418 251 416 249 418 251 425 258</p></triangles>
      </mesh>
    </geometry>
  </library_geometries>
  <library_visual_scenes><visual_scene id="scene" name="scene">
    <node id="HUMAN_F1" name="HUMAN_F1" type="NODE"><instance_geometry url="#HUMAN_F1-mesh"><bind_material><technique_common>
      <instance_material symbol="MAT_SKIN_2-mat" target="#MAT_SKIN_2"/>
      <instance_material symbol="MAT_SHIRT_2-mat" target="#MAT_SHIRT_2"/>
      <instance_material symbol="MAT_TROUSER_2-mat" target="#MAT_TROUSER_2"/>
      <instance_material symbol="MAT_FOOTWEAR-mat" target="#MAT_FOOTWEAR"/>
      <instance_material symbol="MAT_HEADCOVER_2-mat" target="#MAT_HEADCOVER_2"/>
    </technique_common></bind_material></instance_geometry></node>
  </visual_scene></library_visual_scenes>
  <scene><instance_visual_scene url="#scene"/></scene>
</COLLADA>
