<?xml version="1.0" encoding="utf-8"?>
<COLLADA xmlns="http://www.collada.org/2005/11/COLLADASchema" version="1.4.1">
  <asset>
    <contributor><authoring_tool>VIGIL SIH26126 farm generator</authoring_tool></contributor>
    <unit name="meter" meter="1"/>
    <up_axis>Z_UP</up_axis>
  </asset>
  <library_effects>
    <effect id="MAT_SKIN_1-fx"><profile_COMMON><technique sid="c"><lambert><diffuse><color>0.0860 0.0450 0.0260 1</color></diffuse></lambert></technique></profile_COMMON></effect>
    <effect id="MAT_SHIRT_1-fx"><profile_COMMON><technique sid="c"><lambert><diffuse><color>0.0450 0.0900 0.1750 1</color></diffuse></lambert></technique></profile_COMMON></effect>
    <effect id="MAT_TROUSER_1-fx"><profile_COMMON><technique sid="c"><lambert><diffuse><color>0.1500 0.1400 0.1200 1</color></diffuse></lambert></technique></profile_COMMON></effect>
    <effect id="MAT_FOOTWEAR-fx"><profile_COMMON><technique sid="c"><lambert><diffuse><color>0.0220 0.0190 0.0170 1</color></diffuse></lambert></technique></profile_COMMON></effect>
    <effect id="MAT_HEADCOVER_1-fx"><profile_COMMON><technique sid="c"><lambert><diffuse><color>0.2800 0.0600 0.0500 1</color></diffuse></lambert></technique></profile_COMMON></effect>
  </library_effects>
  <library_materials>
    <material id="MAT_SKIN_1" name="MAT_SKIN_1"><instance_effect url="#MAT_SKIN_1-fx"/></material>
    <material id="MAT_SHIRT_1" name="MAT_SHIRT_1"><instance_effect url="#MAT_SHIRT_1-fx"/></material>
    <material id="MAT_TROUSER_1" name="MAT_TROUSER_1"><instance_effect url="#MAT_TROUSER_1-fx"/></material>
    <material id="MAT_FOOTWEAR" name="MAT_FOOTWEAR"><instance_effect url="#MAT_FOOTWEAR-fx"/></material>
    <material id="MAT_HEADCOVER_1" name="MAT_HEADCOVER_1"><instance_effect url="#MAT_HEADCOVER_1-fx"/></material>
  </library_materials>
  <library_geometries>
    <geometry id="HUMAN_M1-mesh" name="HUMAN_M1">
      <mesh>
        <source id="HUMAN_M1-pos"><float_array id="HUMAN_M1-pos-a" count="1278">0.034795 0.06192 1.4092 -0.018699 0.03096 1.4129 -0.014371 0.02967 1.4428 0.036894 0.05934 1.4392 -0.018699 -0.03096 1.4129 -0.014371 -0.02967 1.4428 0.034795 -0.06192 1.4092 0.036894 -0.05934 1.4392 0.088288 -0.03096 1.4054 0.088159 -0.02967 1.4356 0.088288 0.03096 1.4054 0.088159 0.02967 1.4356 -0.010042 0.02838 1.4727 0.038994 0.05676 1.4692 -0.010042 -0.02838 1.4727 0.038994 -0.05676 1.4692 0.08803 -0.02838 1.4658 0.08803 0.02838 1.4658 0.034795 0 1.4092 0.038994 0 1.4692 0.047633 0 1.7315 0.047633 0 1.7315 0.088794 0.029703 1.7177 0.10136 0 1.7177 0.047633 0 1.7315 0.056963 0.045508 1.7177 0.047633 0 1.7315 0.020766 0.040019 1.7177 0.047633 0 1.7315 -0.0028592 0.015805 1.7177 0.047633 0 1.7315 -0.0028592 -0.015805 1.7177 0.047633 0 1.7315 0.020766 -0.040019 1.7177 0.047633 0 1.7315 0.056963 -0.045508 1.7177 0.047633 0 1.7315 0.088794 -0.029703 1.7177 0.1218 0.053523 1.6793 0.14445 0 1.6793 0.064446 0.082002 1.6793 -0.00077844 0.072111 1.6793 -0.04335 0.028479 1.6793 -0.04335 -0.028479 1.6793 -0.00077844 -0.072111 1.6793 0.064446 -0.082002 1.6793 0.1218 -0.053523 1.6793 0.14012 0.066742 1.6236 0.16837 0 1.6236 0.068598 0.10225 1.6236 -0.012735 0.089921 1.6236 -0.065821 0.035513 1.6236 -0.065821 -0.035513 1.6236 -0.012735 -0.089921 1.6236 0.068598 -0.10225 1.6236 0.14012 -0.066742 1.6236 0.14012 0.066742 1.5619 0.16837 0 1.5619 0.068598 0.10225 1.5619 -0.012735 0.089921 1.5619 -0.065821 0.035513 1.5619 -0.065821 -0.035513 1.5619 -0.012735 -0.089921 1.5619 0.068598 -0.10225 1.5619 0.14012 -0.066742 1.5619 0.1218 0.053523 1.5063 0.14445 0 1.5063 0.064446 0.082002 1.5063 -0.00077844 0.072111 1.5063 -0.04335 0.028479 1.5063 -0.04335 -0.028479 1.5063 -0.00077844 -0.072111 1.5063 0.064446 -0.082002 1.5063 0.1218 -0.053523 1.5063 0.088794 0.029703 1.4678 0.10136 0 1.4678 0.056963 0.045508 1.4678 0.020766 0.040019 1.4678 -0.0028592 0.015805 1.4678 -0.0028592 -0.015805 1.4678 0.020766 -0.040019 1.4678 0.056963 -0.045508 1.4678 0.088794 -0.029703 1.4678 0.047633 8.3837e-18 1.4541 0.047633 0 1.4541 0.047633 1.2845e-17 1.4541 0.047633 1.1295e-17 1.4541 0.047633 4.4609e-18 1.4541 0.047633 -4.4609e-18 1.4541 0.047633 -1.1295e-17 1.4541 0.047633 -1.2845e-17 1.4541 0.047633 -8.3837e-18 1.4541 -0.027178 -0.25623 1.0844 -0.06106 -0.23596 1.1021 -0.12569 -0.24249 0.98069 -0.095308 -0.26066 0.96478 -0.069428 -0.19352 1.1035 -0.13319 -0.20444 0.98192 -0.045981 -0.16086 1.0874 -0.11217 -0.17515 0.96755 -0.0083748 -0.16257 1.0661 -0.07845 -0.17669 0.94839 0.015072 -0.19737 1.0555 -0.057429 -0.20789 0.93888 0.0067041 -0.23906 1.0636 -0.064931 -0.24526 0.94617 -0.19031 -0.24902 0.85927 -0.16344 -0.26509 0.8452 -0.19695 -0.21536 0.86036 -0.17835 -0.18945 0.84765 -0.14853 -0.19081 0.83071 -0.12993 -0.21841 0.82229 -0.13657 -0.25147 0.82874 -0.027178 -0.20651 1.0804 -0.16344 -0.22566 0.84203 -0.16344 -0.22566 0.89597 -0.16344 -0.22566 0.89597 -0.14641 -0.2003 0.88017 -0.12938 -0.22566 0.88017 -0.16344 -0.22566 0.89597 -0.18047 -0.2003 0.88017 -0.16344 -0.22566 0.89597 -0.19749 -0.22566 0.88017 -0.16344 -0.22566 0.89597 -0.18047 -0.25102 0.88017 -0.16344 -0.22566 0.89597 -0.14641 -0.25102 0.88017 -0.13936 -0.18979 0.84203 -0.11528 -0.22566 0.84203 -0.18752 -0.18979 0.84203 -0.2116 -0.22566 0.84203 -0.18752 -0.26153 0.84203 -0.13936 -0.26153 0.84203 -0.14641 -0.2003 0.80389 -0.12938 -0.22566 0.80389 -0.18047 -0.2003 0.80389 -0.19749 -0.22566 0.80389 -0.18047 -0.25102 0.80389 -0.14641 -0.25102 0.80389 -0.16344 -0.22566 0.78809 -0.16344 -0.22566 0.78809 -0.16344 -0.22566 0.78809 -0.16344 -0.22566 0.78809 -0.16344 -0.22566 0.78809 -0.16344 -0.22566 0.78809 -0.027178 0.15679 1.0764 -0.06106 0.17396 1.0971 -0.12569 0.18691 0.97622 -0.095308 0.17151 0.95762 -0.069428 0.21564 1.1053 -0.13319 0.22427 0.98351 -0.045981 0.25045 1.0946 -0.11217 0.25548 0.974 -0.0083748 0.25216 1.0733 -0.07845 0.25702 0.95485 0.015072 0.2195 1.0573 -0.057429 0.22773 0.94048 0.0067041 0.17706 1.0586 -0.064931 0.18968 0.94171 -0.19031 0.19985 0.85532 -0.16344 0.18623 0.83886 -0.19695 0.23291 0.86177 -0.17835 0.26051 0.85336 -0.14853 0.26187 0.83642 -0.12993 0.23596 0.8237 -0.13657 0.2023 0.82479 -0.027178 0.20651 1.0804 -0.16344 0.22566 0.84203 -0.16344 0.22566 0.89597 -0.16344 0.22566 0.89597 -0.14641 0.25102 0.88017 -0.12938 0.22566 0.88017 -0.16344 0.22566 0.89597 -0.18047 0.25102 0.88017 -0.16344 0.22566 0.89597 -0.19749 0.22566 0.88017 -0.16344 0.22566 0.89597 -0.18047 0.2003 0.88017 -0.16344 0.22566 0.89597 -0.14641 0.2003 0.88017 -0.13936 0.26153 0.84203 -0.11528 0.22566 0.84203 -0.18752 0.26153 0.84203 -0.2116 0.22566 0.84203 -0.18752 0.18979 0.84203 -0.13936 0.18979 0.84203 -0.14641 0.25102 0.80389 -0.12938 0.22566 0.80389 -0.18047 0.25102 0.80389 -0.19749 0.22566 0.80389 -0.18047 0.2003 0.80389 -0.14641 0.2003 0.80389 -0.16344 0.22566 0.78809 -0.16344 0.22566 0.78809 -0.16344 0.22566 0.78809 -0.16344 0.22566 0.78809 -0.16344 0.22566 0.78809 -0.16344 0.22566 0.78809 0 0.10451 0.9116 -0.10808 0.080057 0.91916 -0.097541 0.088226 1.2284 0.021573 0.11517 1.2201 -0.16559 0.018147 0.92318 -0.16092 0.019999 1.2329 -0.14562 -0.052254 0.92178 -0.13891 -0.057586 1.2313 -0.05751 -0.098205 0.91562 -0.041806 -0.10823 1.2245 0.05751 -0.098205 0.90758 0.084952 -0.10823 1.2157 0.14562 -0.052254 0.90142 0.18205 -0.057586 1.2089 0.16559 0.018147 0.90002 0.20406 0.019999 1.2073 0.10808 0.080057 0.90404 0.14069 0.088226 1.2118 -0.075496 0.081691 1.4169 0.034795 0.10664 1.4092 -0.13418 0.018518 1.421 -0.1138 -0.05332 1.4196 -0.02389 -0.10021 1.4133 0.093479 -0.10021 1.4051 0.18339 -0.05332 1.3988 0.20377 0.018518 1.3974 0.14508 0.081691 1.4015 0 0 0.9116 0.034795 0 1.4092 0.034795 -0.25969 1.3766 -0.012579 -0.23609 1.3859 -0.039618 -0.23726 1.2378 0.0038084 -0.25889 1.2293 -0.02428 -0.18366 1.3868 -0.050343 -0.18919 1.2386 0.0085041 -0.14187 1.3787 -0.020291 -0.15089 1.2311 0.061085 -0.1422 1.3676 0.027908 -0.15119 1.221 0.093869 -0.1844 1.362 0.05796 -0.18987 1.2158 0.082168 -0.23668 1.366 0.047234 -0.2378 1.2195 -0.066656 -0.23842 1.0896 -0.027178 -0.25809 1.0819 -0.076406 -0.19473 1.0904 -0.049087 -0.1599 1.0836 -0.0052691 -0.16018 1.0744 0.022051 -0.19534 1.0697 0.0123 -0.23891 1.073 0.034795 -0.1978 1.3748 -0.027178 -0.20651 1.0804 0.034795 0.13591 1.373 -0.012579 0.15892 1.3836 -0.039618 0.16651 1.2357 0.0038084 0.14542 1.2259 -0.02428 0.2112 1.3876 -0.050343 0.21444 1.2393 0.0085041 0.2534 1.382 -0.020291 0.25312 1.2342 0.061085 0.25373 1.3709 0.027908 0.25342 1.224 0.093869 0.21194 1.3628 0.05796 0.21512 1.2166 0.082168 0.15951 1.3637 0.047234 0.16705 1.2174 -0.066656 0.17411 1.0877 -0.027178 0.15493 1.0788 -0.076406 0.21768 1.0911 -0.049087 0.25284 1.0863 -0.0052691 0.25312 1.0771 0.022051 0.21829 1.0703 0.0123 0.1746 1.0711 0.034795 0.1978 1.3748 -0.027178 0.20651 1.0804 0 -0.2064 0.9116 -0.077948 -0.16884 0.91432 -0.076566 -0.16187 0.70345 -0.0073533 -0.19522 0.70103 -0.0972 -0.084441 0.91499 -0.09366 -0.086929 0.70404 -0.043258 -0.016759 0.91311 -0.045763 -0.026832 0.70237 0.043258 -0.016759 0.91009 0.031057 -0.026832 0.69969 0.0972 -0.084441 0.90821 0.078953 -0.086929 0.69801 0.077948 -0.16884 0.90888 0.061859 -0.16187 0.69861 -0.075184 -0.1549 0.49257 -0.014707 -0.18404 0.49046 -0.09012 -0.089417 0.49309 -0.048269 -0.036905 0.49163 0.018855 -0.036905 0.48928 0.060707 -0.089417 0.48782 0.04577 -0.1549 0.48834 0 -0.10664 0.9116 -0.014707 -0.10664 0.49046 -0.014707 -0.1806 0.49046 -0.072496 -0.15275 0.48844 -0.056407 -0.14578 0.27817 -0.0073533 -0.16942 0.27988 -0.086768 -0.090182 0.48794 -0.068522 -0.09267 0.27775 -0.046777 -0.040004 0.48934 -0.034576 -0.050077 0.27893 0.017364 -0.040004 0.49158 0.019869 -0.050077 0.28084 0.057355 -0.090182 0.49297 0.053815 -0.09267 0.28202 0.043082 -0.15275 0.49247 0.0417 -0.14578 0.2816 -0.040318 -0.13881 0.067905 0 -0.15824 0.069313 -0.050276 -0.095158 0.067558 -0.022375 -0.06015 0.068532 0.022375 -0.06015 0.070095 0.050276 -0.095158 0.071069 0.040318 -0.13881 0.070721 -0.014707 -0.10664 0.49046 0 -0.10664 0.069313 0 0.00688 0.9116 -0.077948 0.044441 0.90888 -0.061859 0.051411 0.69861 0.0073533 0.01806 0.70103 -0.0972 0.12884 0.90821 -0.078953 0.12635 0.69801 -0.043258 0.19652 0.91009 -0.031057 0.18645 0.69969 0.043258 0.19652 0.91311 0.045763 0.18645 0.70237 0.0972 0.12884 0.91499 0.09366 0.12635 0.70404 0.077948 0.044441 0.91432 0.076566 0.051411 0.70345 -0.04577 0.058382 0.48834 0.014707 0.02924 0.49046 -0.060707 0.12386 0.48782 -0.018855 0.17638 0.48928 0.048269 0.17638 0.49163 0.09012 0.12386 0.49309 0.075184 0.058382 0.49257 0 0.10664 0.9116 0.014707 0.10664 0.49046 0.014707 0.03268 0.49046 -0.042801 0.060527 0.48441 -0.012084 0.067497 0.27578 0.036731 0.04386 0.28091 -0.057004 0.1231 0.48292 -0.02414 0.12061 0.27451 -0.017208 0.17328 0.4871 0.0096408 0.1632 0.27806 0.046621 0.17328 0.49381 0.063821 0.1632 0.28376 0.086417 0.1231 0.49799 0.097602 0.12061 0.28731 0.072214 0.060527 0.4965 0.085545 0.067497 0.28604 0.018634 0.074468 0.067148 0.058755 0.05504 0.071365 0.0087243 0.11812 0.066107 0.036489 0.15313 0.069025 0.081021 0.15313 0.073705 0.10879 0.11812 0.076624 0.098877 0.074468 0.075582 0.014707 0.10664 0.49046 0.058755 0.10664 0.071365 -0.043 -0.16168 0 -0.043 -0.0516 0 0.1462 -0.0516 0 0.1462 -0.16168 0 -0.043 -0.16168 0.06192 0.1462 -0.16168 0.06192 0.1462 -0.0516 0.06192 -0.043 -0.0516 0.06192 0.015755 0.0516 0 0.015755 0.16168 0 0.20496 0.16168 0 0.20496 0.0516 0 0.015755 0.0516 0.06192 0.20496 0.0516 0.06192 0.20496 0.16168 0.06192 0.015755 0.16168 0.06192 0.050512 0 1.715 0.050512 0 1.715 0.12274 0.058226 1.6913 0.14479 0 1.6913 0.050512 0 1.715 0.066884 0.089208 1.6913 0.050512 0 1.715 0.0033713 0.078448 1.6913 0.050512 0 1.715 -0.038084 0.030982 1.6913 0.050512 0 1.715 -0.038084 -0.030982 1.6913 0.050512 0 1.715 0.0033713 -0.078448 1.6913 0.050512 0 1.715 0.066884 -0.089208 1.6913 0.050512 0 1.715 0.12274 -0.058226 1.6913 0.15265 0.082345 1.634 0.18385 0 1.634 0.073665 0.12616 1.634 -0.016155 0.11094 1.634 -0.074781 0.043815 1.634 -0.074781 -0.043815 1.634 -0.016155 -0.11094 1.634 0.073665 -0.12616 1.634 0.15265 -0.082345 1.634 0.12274 0.058226 1.5766 0.14479 0 1.5766 0.066884 0.089208 1.5766 0.0033713 0.078448 1.5766 -0.038084 0.030982 1.5766 -0.038084 -0.030982 1.5766 0.0033713 -0.078448 1.5766 0.066884 -0.089208 1.5766 0.12274 -0.058226 1.5766 0.050512 1.0084e-17 1.5529 0.050512 0 1.5529 0.050512 1.545e-17 1.5529 0.050512 1.3587e-17 1.5529 0.050512 5.3658e-18 1.5529 0.050512 -5.3658e-18 1.5529 0.050512 -1.3587e-17 1.5529 0.050512 -1.545e-17 1.5529 0.050512 -1.0084e-17 1.5529</float_array><technique_common><accessor source="#HUMAN_M1-pos-a" count="426" stride="3"><param name="X" type="float"/><param name="Y" type="float"/><param name="Z" type="float"/></accessor></technique_common></source>
        <source id="HUMAN_M1-nrm"><float_array id="HUMAN_M1-nrm-a" count="744">0.006 0.996 0.085 -0.855 0.498 0.145 -0.855 -0.498 0.145 0.006 -0.996 0.085 0.867 -0.498 0.025 0.867 0.498 0.025 0.07 0 0.998 -0.07 -0 -0.998 -0.248 0 -0.969 -0.189 -0.184 -0.965 -0.381 -0.371 -0.847 -0.514 0 -0.858 -0.043 -0.281 -0.959 -0.083 -0.546 -0.833 0.123 -0.247 -0.961 0.243 -0.488 -0.839 0.233 -0.098 -0.968 0.479 -0.202 -0.854 0.233 0.098 -0.968 0.479 0.202 -0.854 0.123 0.247 -0.961 0.243 0.488 -0.839 -0.043 0.281 -0.959 -0.083 0.546 -0.833 -0.189 0.184 -0.965 -0.381 0.371 -0.847 -0.612 -0.577 -0.541 -0.829 0 -0.56 -0.132 -0.846 -0.516 0.388 -0.757 -0.526 0.77 -0.315 -0.554 0.77 0.315 -0.554 0.388 0.757 -0.526 -0.132 0.846 -0.516 -0.612 0.577 -0.541 -0.719 -0.671 -0.183 -0.981 0 -0.192 -0.154 -0.973 -0.171 0.453 -0.874 -0.176 0.911 -0.367 -0.19 0.911 0.367 -0.19 0.453 0.874 -0.176 -0.154 0.973 -0.171 -0.719 0.671 -0.183 -0.719 -0.671 0.183 -0.981 0 0.192 -0.154 -0.973 0.171 0.453 -0.874 0.176 0.911 -0.367 0.19 0.911 0.367 0.19 0.453 0.874 0.176 -0.154 0.973 0.171 -0.719 0.671 0.183 -0.612 -0.577 0.541 -0.829 -0 0.56 -0.132 -0.846 0.516 0.388 -0.757 0.526 0.77 -0.315 0.554 0.77 0.315 0.554 0.388 0.757 0.526 -0.132 0.846 0.516 -0.612 0.577 0.541 -0.381 -0.371 0.847 -0.514 0 0.858 -0.083 -0.546 0.833 0.243 -0.488 0.839 0.479 -0.202 0.854 0.479 0.202 0.854 0.243 0.488 0.839 -0.083 0.546 0.833 -0.381 0.371 0.847 -0.211 -0.154 0.965 -0.248 0 0.969 -0.067 -0.276 0.959 0.141 -0.236 0.962 0.238 -0.08 0.968 0.238 0.08 0.968 0.141 0.236 0.962 -0.067 0.276 0.959 -0.211 0.154 0.965 -0.019 -0.999 0.048 -0.697 -0.593 0.403 -0.865 0.258 0.431 -0.395 0.912 0.109 0.358 0.878 -0.319 0.828 0.18 -0.531 0.66 -0.655 -0.368 -0.495 -0.07 -0.866 0.495 0.07 0.866 -0.421 0 -0.907 -0.209 -0.412 -0.887 -0.375 -0.709 -0.597 -0.787 0 -0.616 0.209 -0.412 -0.887 0.375 -0.709 -0.597 0.421 0 -0.907 0.787 0 -0.616 0.209 0.412 -0.887 0.375 0.709 -0.597 -0.209 0.412 -0.887 -0.375 0.709 -0.597 -0.478 -0.878 0 -1 0 0 0.478 -0.878 0 1 0 0 0.478 0.878 0 -0.478 0.878 0 -0.375 -0.709 0.597 -0.787 -0 0.616 0.375 -0.709 0.597 0.787 0 0.616 0.375 0.709 0.597 -0.375 0.709 0.597 -0.209 -0.412 0.887 -0.421 -0 0.907 0.209 -0.412 0.887 0.421 0 0.907 0.209 0.412 0.887 -0.209 0.412 0.887 -0.019 -0.993 -0.112 -0.697 -0.649 0.303 -0.865 0.186 0.466 -0.395 0.883 0.254 0.358 0.917 -0.174 0.828 0.263 -0.495 0.66 -0.587 -0.468 -0.495 0.07 -0.866 0.495 -0.07 0.866 -0.002 0.999 -0.034 -0.496 0.868 -0.006 -0.5 0.865 0.041 0 1 0.005 -0.972 0.236 0.013 -0.97 0.232 0.076 -0.773 -0.635 0.006 -0.776 -0.628 0.062 -0.238 -0.971 -0.019 -0.238 -0.971 0.022 0.233 -0.971 -0.052 0.239 -0.971 -0.011 0.766 -0.635 -0.102 0.777 -0.628 -0.047 0.964 0.236 -0.122 0.971 0.232 -0.06 0.491 0.868 -0.075 0.501 0.865 -0.029 -0.489 0.868 0.087 0.003 0.999 0.045 -0.962 0.236 0.139 -0.764 -0.635 0.116 -0.231 -0.971 0.063 0.238 -0.971 0.03 0.772 -0.635 0.009 0.972 0.236 0.003 0.496 0.868 0.018 -0.007 -1 -0.004 -0.772 -0.619 0.146 -0.961 0.227 0.16 -0.431 0.902 0.029 0.417 0.896 -0.149 0.946 0.215 -0.241 0.758 -0.629 -0.176 -0.206 -0.029 -0.978 0.206 0.029 0.978 -0.007 -0.998 -0.063 -0.772 -0.627 0.109 -0.961 0.217 0.174 -0.431 0.898 0.082 0.417 0.904 -0.096 0.946 0.229 -0.227 0.758 -0.617 -0.213 -0.206 0.029 -0.978 0.206 -0.029 0.978 -0.002 -0.999 -0.053 -0.782 -0.623 -0.026 -0.975 0.222 -0.019 -0.435 0.9 -0.038 0.431 0.9 -0.068 0.971 0.222 -0.087 0.778 -0.623 -0.08 -0.035 0 -0.999 0.035 -0 0.999 0.002 -0.999 -0.053 -0.778 -0.623 -0.08 -0.971 0.222 -0.087 -0.431 0.9 -0.068 0.435 0.9 -0.038 0.975 0.222 -0.019 0.782 -0.623 -0.026 0.035 0 -0.999 -0.035 -0 0.999 0.006 -0.999 -0.053 -0.771 -0.623 -0.134 -0.963 0.222 -0.154 -0.425 0.9 -0.098 0.436 0.9 -0.007 0.974 0.222 0.049 0.782 -0.623 0.029 0.105 0 -0.995 -0.105 -0 0.995 0 0 -1 0 0 1 0 -1 0 0 1 0 -0.244 0 -0.97 -0.187 -0.163 -0.969 -0.472 -0.411 -0.78 -0.622 -0 -0.783 -0.042 -0.25 -0.967 -0.106 -0.621 -0.777 0.122 -0.22 -0.968 0.305 -0.549 -0.778 0.229 -0.087 -0.969 0.583 -0.22 -0.782 0.229 0.087 -0.969 0.583 0.22 -0.782 0.122 0.22 -0.968 0.305 0.549 -0.778 -0.042 0.25 -0.967 -0.106 0.621 -0.777 -0.187 0.163 -0.969 -0.472 0.411 -0.78 -0.759 -0.652 0 -0.17 -0.985 -0 0.491 -0.871 -0 0.937 -0.349 0 0.937 0.349 0 0.491 0.871 0 -0.17 0.985 -0 -0.759 0.652 0 -0.472 -0.411 0.78 -0.622 0 0.783 -0.106 -0.621 0.777 0.305 -0.549 0.778 0.583 -0.22 0.782 0.583 0.22 0.782 0.305 0.549 0.778 -0.106 0.621 0.777 -0.472 0.411 0.78 -0.211 -0.134 0.968 -0.244 0 0.97 -0.067 -0.245 0.967 0.14 -0.209 0.968 0.236 -0.069 0.969 0.236 0.069 0.969 0.14 0.209 0.968 -0.067 0.245 0.967 -0.211 0.134 0.968</float_array><technique_common><accessor source="#HUMAN_M1-nrm-a" count="248" stride="3"><param name="X" type="float"/><param name="Y" type="float"/><param name="Z" type="float"/></accessor></technique_common></source>
        <vertices id="HUMAN_M1-vtx"><input semantic="POSITION" source="#HUMAN_M1-pos"/></vertices>
        <triangles count="342" material="MAT_SKIN_1-mat"><input semantic="VERTEX" source="#HUMAN_M1-vtx" offset="0"/><input semantic="NORMAL" source="#HUMAN_M1-nrm" offset="1"/><p>0 0 1 1 2 1 0 0 2 1 3 0 1 1 4 2 5 2 1 1 5 2 2 1 4 2 6 3 7 3 4 2 7 3 5 2 6 3 8 4 9 4 6 3 9 4 7 3 8 4 10 5 11 5 8 4 11 5 9 4 10 5 0 0 3 0 10 5 3 0 11 5 3 0 2 1 12 1 3 0 12 1 13 0 2 1 5 2 14 2 2 1 14 2 12 1 5 2 7 3 15 3 5 2 15 3 14 2 7 3 9 4 16 4 7 3 16 4 15 3 9 4 11 5 17 5 9 4 17 5 16 4 11 5 3 0 13 0 11 5 13 0 17 5 0 6 1 6 18 6 1 6 4 6 18 6 4 6 6 6 18 6 6 6 8 6 18 6 8 6 10 6 18 6 10 6 0 6 18 6 12 7 13 7 19 7 14 7 12 7 19 7 15 7 14 7 19 7 16 7 15 7 19 7 17 7 16 7 19 7 13 7 17 7 19 7 20 8 21 9 22 10 20 8 22 10 23 11 21 9 24 12 25 13 21 9 25 13 22 10 24 12 26 14 27 15 24 12 27 15 25 13 26 14 28 16 29 17 26 14 29 17 27 15 28 16 30 18 31 19 28 16 31 19 29 17 30 18 32 20 33 21 30 18 33 21 31 19 32 20 34 22 35 23 32 20 35 23 33 21 34 22 36 24 37 25 34 22 37 25 35 23 36 24 20 8 23 11 36 24 23 11 37 25 23 11 22 10 38 26 23 11 38 26 39 27 22 10 25 13 40 28 22 10 40 28 38 26 25 13 27 15 41 29 25 13 41 29 40 28 27 15 29 17 42 30 27 15 42 30 41 29 29 17 31 19 43 31 29 17 43 31 42 30 31 19 33 21 44 32 31 19 44 32 43 31 33 21 35 23 45 33 33 21 45 33 44 32 35 23 37 25 46 34 35 23 46 34 45 33 37 25 23 11 39 27 37 25 39 27 46 34 39 27 38 26 47 35 39 27 47 35 48 36 38 26 40 28 49 37 38 26 49 37 47 35 40 28 41 29 50 38 40 28 50 38 49 37 41 29 42 30 51 39 41 29 51 39 50 38 42 30 43 31 52 40 42 30 52 40 51 39 43 31 44 32 53 41 43 31 53 41 52 40 44 32 45 33 54 42 44 32 54 42 53 41 45 33 46 34 55 43 45 33 55 43 54 42 46 34 39 27 48 36 46 34 48 36 55 43 48 36 47 35 56 44 48 36 56 44 57 45 47 35 49 37 58 46 47 35 58 46 56 44 49 37 50 38 59 47 49 37 59 47 58 46 50 38 51 39 60 48 50 38 60 48 59 47 51 39 52 40 61 49 51 39 61 49 60 48 52 40 53 41 62 50 52 40 62 50 61 49 53 41 54 42 63 51 53 41 63 51 62 50 54 42 55 43 64 52 54 42 64 52 63 51 55 43 48 36 57 45 55 43 57 45 64 52 57 45 56 44 65 53 57 45 65 53 66 54 56 44 58 46 67 55 56 44 67 55 65 53 58 46 59 47 68 56 58 46 68 56 67 55 59 47 60 48 69 57 59 47 69 57 68 56 60 48 61 49 70 58 60 48 70 58 69 57 61 49 62 50 71 59 61 49 71 59 70 58 62 50 63 51 72 60 62 50 72 60 71 59 63 51 64 52 73 61 63 51 73 61 72 60 64 52 57 45 66 54 64 52 66 54 73 61 66 54 65 53 74 62 66 54 74 62 75 63 65 53 67 55 76 64 65 53 76 64 74 62 67 55 68 56 77 65 67 55 77 65 76 64 68 56 69 57 78 66 68 56 78 66 77 65 69 57 70 58 79 67 69 57 79 67 78 66 70 58 71 59 80 68 70 58 80 68 79 67 71 59 72 60 81 69 71 59 81 69 80 68 72 60 73 61 82 70 72 60 82 70 81 69 73 61 66 54 75 63 73 61 75 63 82 70 75 63 74 62 83 71 75 63 83 71 84 72 74 62 76 64 85 73 74 62 85 73 83 71 76 64 77 65 86 74 76 64 86 74 85 73 77 65 78 66 87 75 77 65 87 75 86 74 78 66 79 67 88 76 78 66 88 76 87 75 79 67 80 68 89 77 79 67 89 77 88 76 80 68 81 69 90 78 80 68 90 78 89 77 81 69 82 70 91 79 81 69 91 79 90 78 82 70 75 63 84 72 82 70 84 72 91 79 92 80 93 81 94 81 92 80 94 81 95 80 93 81 96 82 97 82 93 81 97 82 94 81 96 82 98 83 99 83 96 82 99 83 97 82 98 83 100 84 101 84 98 83 101 84 99 83 100 84 102 85 103 85 100 84 103 85 101 84 102 85 104 86 105 86 102 85 105 86 103 85 104 86 92 80 95 80 104 86 95 80 105 86 95 80 94 81 106 81 95 80 106 81 107 80 94 81 97 82 108 82 94 81 108 82 106 81 97 82 99 83 109 83 97 82 109 83 108 82 99 83 101 84 110 84 99 83 110 84 109 83 101 84 103 85 111 85 101 84 111 85 110 84 103 85 105 86 112 86 103 85 112 86 111 85 105 86 95 80 107 80 105 86 107 80 112 86 92 87 93 87 113 87 93 87 96 87 113 87 96 87 98 87 113 87 98 87 100 87 113 87 100 87 102 87 113 87 102 87 104 87 113 87 104 87 92 87 113 87 106 88 107 88 114 88 108 88 106 88 114 88 109 88 108 88 114 88 110 88 109 88 114 88 111 88 110 88 114 88 112 88 111 88 114 88 107 88 112 88 114 88 115 89 116 90 117 91 115 89 117 91 118 92 116 90 119 93 120 94 116 90 120 94 117 91 119 93 121 95 122 96 119 93 122 96 120 94 121 95 123 97 124 98 121 95 124 98 122 96 123 97 125 99 126 100 123 97 126 100 124 98 125 99 115 89 118 92 125 99 118 92 126 100 118 92 117 91 127 101 118 92 127 101 128 102 117 91 120 94 129 103 117 91 129 103 127 101 120 94 122 96 130 104 120 94 130 104 129 103 122 96 124 98 131 105 122 96 131 105 130 104 124 98 126 100 132 106 124 98 132 106 131 105 126 100 118 92 128 102 126 100 128 102 132 106 128 102 127 101 133 107 128 102 133 107 134 108 127 101 129 103 135 109 127 101 135 109 133 107 129 103 130 104 136 110 129 103 136 110 135 109 130 104 131 105 137 111 130 104 137 111 136 110 131 105 132 106 138 112 131 105 138 112 137 111 132 106 128 102 134 108 132 106 134 108 138 112 134 108 133 107 139 113 134 108 139 113 140 114 133 107 135 109 141 115 133 107 141 115 139 113 135 109 136 110 142 116 135 109 142 116 141 115 136 110 137 111 143 117 136 110 143 117 142 116 137 111 138 112 144 118 137 111 144 118 143 117 138 112 134 108 140 114 138 112 140 114 144 118 145 119 146 120 147 120 145 119 147 120 148 119 146 120 149 121 150 121 146 120 150 121 147 120 149 121 151 122 152 122 149 121 152 122 150 121 151 122 153 123 154 123 151 122 154 123 152 122 153 123 155 124 156 124 153 123 156 124 154 123 155 124 157 125 158 125 155 124 158 125 156 124 157 125 145 119 148 119 157 125 148 119 158 125 148 119 147 120 159 120 148 119 159 120 160 119 147 120 150 121 161 121 147 120 161 121 159 120 150 121 152 122 162 122 150 121 162 122 161 121 152 122 154 123 163 123 152 122 163 123 162 122 154 123 156 124 164 124 154 123 164 124 163 123 156 124 158 125 165 125 156 124 165 125 164 124 158 125 148 119 160 119 158 125 160 119 165 125 145 126 146 126 166 126 146 126 149 126 166 126 149 126 151 126 166 126 151 126 153 126 166 126 153 126 155 126 166 126 155 126 157 126 166 126 157 126 145 126 166 126 159 127 160 127 167 127 161 127 159 127 167 127 162 127 161 127 167 127 163 127 162 127 167 127 164 127 163 127 167 127 165 127 164 127 167 127 160 127 165 127 167 127 168 89 169 90 170 91 168 89 170 91 171 92 169 90 172 93 173 94 169 90 173 94 170 91 172 93 174 95 175 96 172 93 175 96 173 94 174 95 176 97 177 98 174 95 177 98 175 96 176 97 178 99 179 100 176 97 179 100 177 98 178 99 168 89 171 92 178 99 171 92 179 100 171 92 170 91 180 101 171 92 180 101 181 102 170 91 173 94 182 103 170 91 182 103 180 101 173 94 175 96 183 104 173 94 183 104 182 103 175 96 177 98 184 105 175 96 184 105 183 104 177 98 179 100 185 106 177 98 185 106 184 105 179 100 171 92 181 102 179 100 181 102 185 106 181 102 180 101 186 107 181 102 186 107 187 108 180 101 182 103 188 109 180 101 188 109 186 107 182 103 183 104 189 110 182 103 189 110 188 109 183 104 184 105 190 111 183 104 190 111 189 110 184 105 185 106 191 112 184 105 191 112 190 111 185 106 181 102 187 108 185 106 187 108 191 112 187 108 186 107 192 113 187 108 192 113 193 114 186 107 188 109 194 115 186 107 194 115 192 113 188 109 189 110 195 116 188 109 195 116 194 115 189 110 190 111 196 117 189 110 196 117 195 116 190 111 191 112 197 118 190 111 197 118 196 117 191 112 187 108 193 114 191 112 193 114 197 118</p></triangles>
        <triangles count="138" material="MAT_SHIRT_1-mat"><input semantic="VERTEX" source="#HUMAN_M1-vtx" offset="0"/><input semantic="NORMAL" source="#HUMAN_M1-nrm" offset="1"/><p>198 128 199 129 200 130 198 128 200 130 201 131 199 129 202 132 203 133 199 129 203 133 200 130 202 132 204 134 205 135 202 132 205 135 203 133 204 134 206 136 207 137 204 134 207 137 205 135 206 136 208 138 209 139 206 136 209 139 207 137 208 138 210 140 211 141 208 138 211 141 209 139 210 140 212 142 213 143 210 140 213 143 211 141 212 142 214 144 215 145 212 142 215 145 213 143 214 144 198 128 201 131 214 144 201 131 215 145 201 131 200 130 216 146 201 131 216 146 217 147 200 130 203 133 218 148 200 130 218 148 216 146 203 133 205 135 219 149 203 133 219 149 218 148 205 135 207 137 220 150 205 135 220 150 219 149 207 137 209 139 221 151 207 137 221 151 220 150 209 139 211 141 222 152 209 139 222 152 221 151 211 141 213 143 223 153 211 141 223 153 222 152 213 143 215 145 224 154 213 143 224 154 223 153 215 145 201 131 217 147 215 145 217 147 224 154 198 6 199 6 225 6 199 6 202 6 225 6 202 6 204 6 225 6 204 6 206 6 225 6 206 6 208 6 225 6 208 6 210 6 225 6 210 6 212 6 225 6 212 6 214 6 225 6 214 6 198 6 225 6 216 7 217 7 226 7 218 7 216 7 226 7 219 7 218 7 226 7 220 7 219 7 226 7 221 7 220 7 226 7 222 7 221 7 226 7 223 7 222 7 226 7 224 7 223 7 226 7 217 7 224 7 226 7 227 155 228 156 229 156 227 155 229 156 230 155 228 156 231 157 232 157 228 156 232 157 229 156 231 157 233 158 234 158 231 157 234 158 232 157 233 158 235 159 236 159 233 158 236 159 234 158 235 159 237 160 238 160 235 159 238 160 236 159 237 160 239 161 240 161 237 160 240 161 238 160 239 161 227 155 230 155 239 161 230 155 240 161 230 155 229 156 241 156 230 155 241 156 242 155 229 156 232 157 243 157 229 156 243 157 241 156 232 157 234 158 244 158 232 157 244 158 243 157 234 158 236 159 245 159 234 158 245 159 244 158 236 159 238 160 246 160 236 159 246 160 245 159 238 160 240 161 247 161 238 160 247 161 246 160 240 161 230 155 242 155 240 161 242 155 247 161 227 162 228 162 248 162 228 162 231 162 248 162 231 162 233 162 248 162 233 162 235 162 248 162 235 162 237 162 248 162 237 162 239 162 248 162 239 162 227 162 248 162 241 163 242 163 249 163 243 163 241 163 249 163 244 163 243 163 249 163 245 163 244 163 249 163 246 163 245 163 249 163 247 163 246 163 249 163 242 163 247 163 249 163 250 164 251 165 252 165 250 164 252 165 253 164 251 165 254 166 255 166 251 165 255 166 252 165 254 166 256 167 257 167 254 166 257 167 255 166 256 167 258 168 259 168 256 167 259 168 257 167 258 168 260 169 261 169 258 168 261 169 259 168 260 169 262 170 263 170 260 169 263 170 261 169 262 170 250 164 253 164 262 170 253 164 263 170 253 164 252 165 264 165 253 164 264 165 265 164 252 165 255 166 266 166 252 165 266 166 264 165 255 166 257 167 267 167 255 166 267 167 266 166 257 167 259 168 268 168 257 167 268 168 267 167 259 168 261 169 269 169 259 168 269 169 268 168 261 169 263 170 270 170 261 169 270 170 269 169 263 170 253 164 265 164 263 170 265 164 270 170 250 171 251 171 271 171 251 171 254 171 271 171 254 171 256 171 271 171 256 171 258 171 271 171 258 171 260 171 271 171 260 171 262 171 271 171 262 171 250 171 271 171 264 172 265 172 272 172 266 172 264 172 272 172 267 172 266 172 272 172 268 172 267 172 272 172 269 172 268 172 272 172 270 172 269 172 272 172 265 172 270 172 272 172</p></triangles>
        <triangles count="168" material="MAT_TROUSER_1-mat"><input semantic="VERTEX" source="#HUMAN_M1-vtx" offset="0"/><input semantic="NORMAL" source="#HUMAN_M1-nrm" offset="1"/><p>273 173 274 174 275 174 273 173 275 174 276 173 274 174 277 175 278 175 274 174 278 175 275 174 277 175 279 176 280 176 277 175 280 176 278 175 279 176 281 177 282 177 279 176 282 177 280 176 281 177 283 178 284 178 281 177 284 178 282 177 283 178 285 179 286 179 283 178 286 179 284 178 285 179 273 173 276 173 285 179 276 173 286 179 276 173 275 174 287 174 276 173 287 174 288 173 275 174 278 175 289 175 275 174 289 175 287 174 278 175 280 176 290 176 278 175 290 176 289 175 280 176 282 177 291 177 280 176 291 177 290 176 282 177 284 178 292 178 282 177 292 178 291 177 284 178 286 179 293 179 284 178 293 179 292 178 286 179 276 173 288 173 286 179 288 173 293 179 273 180 274 180 294 180 274 180 277 180 294 180 277 180 279 180 294 180 279 180 281 180 294 180 281 180 283 180 294 180 283 180 285 180 294 180 285 180 273 180 294 180 287 181 288 181 295 181 289 181 287 181 295 181 290 181 289 181 295 181 291 181 290 181 295 181 292 181 291 181 295 181 293 181 292 181 295 181 288 181 293 181 295 181 296 182 297 183 298 183 296 182 298 183 299 182 297 183 300 184 301 184 297 183 301 184 298 183 300 184 302 185 303 185 300 184 303 185 301 184 302 185 304 186 305 186 302 185 305 186 303 185 304 186 306 187 307 187 304 186 307 187 305 186 306 187 308 188 309 188 306 187 309 188 307 187 308 188 296 182 299 182 308 188 299 182 309 188 299 182 298 183 310 183 299 182 310 183 311 182 298 183 301 184 312 184 298 183 312 184 310 183 301 184 303 185 313 185 301 184 313 185 312 184 303 185 305 186 314 186 303 185 314 186 313 185 305 186 307 187 315 187 305 186 315 187 314 186 307 187 309 188 316 188 307 187 316 188 315 187 309 188 299 182 311 182 309 188 311 182 316 188 296 189 297 189 317 189 297 189 300 189 317 189 300 189 302 189 317 189 302 189 304 189 317 189 304 189 306 189 317 189 306 189 308 189 317 189 308 189 296 189 317 189 310 190 311 190 318 190 312 190 310 190 318 190 313 190 312 190 318 190 314 190 313 190 318 190 315 190 314 190 318 190 316 190 315 190 318 190 311 190 316 190 318 190 319 182 320 183 321 183 319 182 321 183 322 182 320 183 323 184 324 184 320 183 324 184 321 183 323 184 325 185 326 185 323 184 326 185 324 184 325 185 327 186 328 186 325 185 328 186 326 185 327 186 329 187 330 187 327 186 330 187 328 186 329 187 331 188 332 188 329 187 332 188 330 187 331 188 319 182 322 182 331 188 322 182 332 188 322 182 321 183 333 183 322 182 333 183 334 182 321 183 324 184 335 184 321 183 335 184 333 183 324 184 326 185 336 185 324 184 336 185 335 184 326 185 328 186 337 186 326 185 337 186 336 185 328 186 330 187 338 187 328 186 338 187 337 186 330 187 332 188 339 188 330 187 339 188 338 187 332 188 322 182 334 182 332 188 334 182 339 188 319 189 320 189 340 189 320 189 323 189 340 189 323 189 325 189 340 189 325 189 327 189 340 189 327 189 329 189 340 189 329 189 331 189 340 189 331 189 319 189 340 189 333 190 334 190 341 190 335 190 333 190 341 190 336 190 335 190 341 190 337 190 336 190 341 190 338 190 337 190 341 190 339 190 338 190 341 190 334 190 339 190 341 190 342 191 343 192 344 192 342 191 344 192 345 191 343 192 346 193 347 193 343 192 347 193 344 192 346 193 348 194 349 194 346 193 349 194 347 193 348 194 350 195 351 195 348 194 351 195 349 194 350 195 352 196 353 196 350 195 353 196 351 195 352 196 354 197 355 197 352 196 355 197 353 196 354 197 342 191 345 191 354 197 345 191 355 197 345 191 344 192 356 192 345 191 356 192 357 191 344 192 347 193 358 193 344 192 358 193 356 192 347 193 349 194 359 194 347 193 359 194 358 193 349 194 351 195 360 195 349 194 360 195 359 194 351 195 353 196 361 196 351 195 361 196 360 195 353 196 355 197 362 197 353 196 362 197 361 196 355 197 345 191 357 191 355 197 357 191 362 197 342 198 343 198 363 198 343 198 346 198 363 198 346 198 348 198 363 198 348 198 350 198 363 198 350 198 352 198 363 198 352 198 354 198 363 198 354 198 342 198 363 198 356 199 357 199 364 199 358 199 356 199 364 199 359 199 358 199 364 199 360 199 359 199 364 199 361 199 360 199 364 199 362 199 361 199 364 199 357 199 362 199 364 199</p></triangles>
        <triangles count="24" material="MAT_FOOTWEAR-mat"><input semantic="VERTEX" source="#HUMAN_M1-vtx" offset="0"/><input semantic="NORMAL" source="#HUMAN_M1-nrm" offset="1"/><p>365 200 366 200 367 200 365 200 367 200 368 200 369 201 370 201 371 201 369 201 371 201 372 201 365 202 368 202 370 202 365 202 370 202 369 202 368 104 367 104 371 104 368 104 371 104 370 104 367 203 366 203 372 203 367 203 372 203 371 203 366 102 365 102 369 102 366 102 369 102 372 102 373 200 374 200 375 200 373 200 375 200 376 200 377 201 378 201 379 201 377 201 379 201 380 201 373 202 376 202 378 202 373 202 378 202 377 202 376 104 375 104 379 104 376 104 379 104 378 104 375 203 374 203 380 203 375 203 380 203 379 203 374 102 373 102 377 102 374 102 377 102 380 102</p></triangles>
        <triangles count="72" material="MAT_HEADCOVER_1-mat"><input semantic="VERTEX" source="#HUMAN_M1-vtx" offset="0"/><input semantic="NORMAL" source="#HUMAN_M1-nrm" offset="1"/><p>381 204 382 205 383 206 381 204 383 206 384 207 382 205 385 208 386 209 382 205 386 209 383 206 385 208 387 210 388 211 385 208 388 211 386 209 387 210 389 212 390 213 387 210 390 213 388 211 389 212 391 214 392 215 389 212 392 215 390 213 391 214 393 216 394 217 391 214 394 217 392 215 393 216 395 218 396 219 393 216 396 219 394 217 395 218 397 220 398 221 395 218 398 221 396 219 397 220 381 204 384 207 397 220 384 207 398 221 384 207 383 206 399 222 384 207 399 222 400 102 383 206 386 209 401 223 383 206 401 223 399 222 386 209 388 211 402 224 386 209 402 224 401 223 388 211 390 213 403 225 388 211 403 225 402 224 390 213 392 215 404 226 390 213 404 226 403 225 392 215 394 217 405 227 392 215 405 227 404 226 394 217 396 219 406 228 394 217 406 228 405 227 396 219 398 221 407 229 396 219 407 229 406 228 398 221 384 207 400 102 398 221 400 102 407 229 400 102 399 222 408 230 400 102 408 230 409 231 399 222 401 223 410 232 399 222 410 232 408 230 401 223 402 224 411 233 401 223 411 233 410 232 402 224 403 225 412 234 402 224 412 234 411 233 403 225 404 226 413 235 403 225 413 235 412 234 404 226 405 227 414 236 404 226 414 236 413 235 405 227 406 228 415 237 405 227 415 237 414 236 406 228 407 229 416 238 406 228 416 238 415 237 407 229 400 102 409 231 407 229 409 231 416 238 409 231 408 230 417 239 409 231 417 239 418 240 408 230 410 232 419 241 408 230 419 241 417 239 410 232 411 233 420 242 410 232 420 242 419 241 411 233 412 234 421 243 411 233 421 243 420 242 412 234 413 235 422 244 412 234 422 244 421 243 413 235 414 236 423 245 413 235 423 245 422 244 414 236 415 237 424 246 414 236 424 246 423 245 415 237 416 238 425 247 415 237 425 247 424 246 416 238 409 231 418 240 416 238 418 240 425 247</p></triangles>
      </mesh>
    </geometry>
  </library_geometries>
  <library_visual_scenes><visual_scene id="scene" name="scene">
    <node id="HUMAN_M1" name="HUMAN_M1" type="NODE"><instance_geometry url="#HUMAN_M1-mesh"><bind_material><technique_common>
      <instance_material symbol="MAT_SKIN_1-mat" target="#MAT_SKIN_1"/>
      <instance_material symbol="MAT_SHIRT_1-mat" target="#MAT_SHIRT_1"/>
      <instance_material symbol="MAT_TROUSER_1-mat" target="#MAT_TROUSER_1"/>
      <instance_material symbol="MAT_FOOTWEAR-mat" target="#MAT_FOOTWEAR"/>
      <instance_material symbol="MAT_HEADCOVER_1-mat" target="#MAT_HEADCOVER_1"/>
    </technique_common></bind_material></instance_geometry></node>
  </visual_scene></library_visual_scenes>
  <scene><instance_visual_scene url="#scene"/></scene>
</COLLADA>
